<svg width="140" height="9" viewBox="0 0 140 9" fill="none" xmlns="http://www.w3.org/2000/svg">
<path d="M36.1821 3.30124C36.2215 3.08424 36.3466 2.95267 36.4317 2.99482C36.6437 3.03525 36.5985 2.81939 36.6825 2.77497C36.7682 2.8604 36.8539 2.94583 36.9397 3.03126C37.0248 3.0734 37.1522 3.11498 37.1939 3.07112C37.3613 2.93898 37.4464 2.98113 37.4494 3.19756C37.4499 3.24084 37.5768 3.23913 37.6196 3.28185C37.6191 3.23856 37.6185 3.19528 37.6179 3.15199L37.575 3.10927C37.531 2.97999 37.4864 2.80741 37.5281 2.76356C37.78 2.63028 37.6995 2.93442 37.7853 3.01985C37.8281 3.06257 37.8716 3.14857 37.9144 3.19128C37.9573 3.234 37.999 3.19014 38.0419 3.23286C38.0413 3.18957 38.0407 3.14629 38.0401 3.103C38.0389 3.01643 37.9949 2.88714 38.0372 2.88657C38.1629 2.79829 38.2063 2.88429 38.292 2.96972C38.3778 3.05515 38.4658 3.31373 38.5457 2.9663C38.9256 2.91788 39.3038 2.7396 39.6884 3.03746C39.8164 3.12233 39.8176 3.2089 39.8992 2.99133C39.9815 2.81704 40.278 2.85633 40.4084 3.11434C40.4084 3.11434 40.4084 3.11434 40.4078 3.07105C40.3655 3.07162 40.3232 3.07219 40.3238 3.11548C40.3238 3.11548 40.3244 3.15877 40.325 3.20205C40.3672 3.20148 40.3667 3.1582 40.4084 3.11434C40.5323 2.8962 40.6162 2.85177 40.6996 2.76406C40.867 2.63192 40.8271 2.80563 40.8699 2.84835C40.9134 2.93435 41.0402 2.93264 41.1253 2.97478C41.0842 3.06193 41.0431 3.14907 41.0014 3.19292C41.086 3.19178 41.1283 3.19121 41.2128 3.19007C41.2974 3.18893 41.4236 3.14393 41.5505 3.14222C41.5088 3.18608 41.4671 3.22994 41.426 3.31708C41.426 3.31708 41.47 3.44637 41.4694 3.40308C41.554 3.40194 41.638 3.35751 41.7648 3.3558C41.7214 3.2698 41.6362 3.22765 41.5505 3.14222C41.4624 2.88365 41.335 2.84207 41.1253 2.97478C41.2041 2.54078 41.2029 2.45421 41.5435 2.62279C41.7566 2.74979 42.0502 2.57266 42.2646 2.78624C42.3074 2.82895 42.4337 2.78395 42.5182 2.78281C42.7279 2.6501 42.9399 2.69054 43.0685 2.81868C43.1113 2.8614 43.1959 2.86026 43.2804 2.85912C43.2804 2.85912 43.2793 2.77254 43.321 2.72869C43.4044 2.64097 43.53 2.55269 43.5723 2.55212C43.6997 2.59369 43.7438 2.72298 43.5764 2.85512C43.5347 2.89898 43.8336 3.11142 43.9593 3.02313C44.0849 2.93485 44.21 2.80328 44.3803 2.88757C44.3803 2.88757 44.3803 2.88757 44.338 2.88814C44.3386 2.93143 44.3392 2.97471 44.3815 2.97414C44.3815 2.97414 44.4237 2.97357 44.466 2.973C44.4654 2.92972 44.4232 2.93029 44.3803 2.88757C44.3351 2.67171 44.4602 2.54014 44.587 2.53843C44.883 2.53444 45.22 2.4433 45.4361 2.78674C45.523 2.95874 45.7303 2.65288 45.8184 2.91146C45.9846 2.69275 46.1549 2.77704 46.3246 2.81804C46.4514 2.81633 46.5336 2.64205 46.7051 2.81291C46.7908 2.89834 46.9558 2.59305 47.0856 2.80777C47.0862 2.85106 47.1285 2.85049 47.1708 2.84992C47.4661 2.80264 47.9729 2.75251 48.2706 2.87837C48.4409 2.96266 48.526 3.00481 48.6928 2.82938C48.7345 2.78553 48.9453 2.73939 48.9882 2.7821C49.2025 2.99568 49.3693 2.82025 49.495 2.73197C49.7463 2.5554 49.7457 2.51212 49.9178 2.72627C50.0469 2.8977 50.1749 2.98256 50.3846 2.84985C50.5572 3.10728 50.6817 2.93243 50.8074 2.84414C50.8074 2.84414 51.4821 2.70516 51.525 2.74787C51.6107 2.8333 51.6958 2.87545 51.8215 2.78717C51.8632 2.74331 51.99 2.7416 52.0323 2.74103C52.2032 2.8686 52.3324 3.04004 52.6266 2.90619C52.8374 2.86005 53.05 2.94377 53.3036 2.94034C53.3459 2.93977 53.3876 2.89592 53.4299 2.89535C53.5984 2.84978 53.5526 2.59063 53.7635 2.54449C53.9326 2.54221 54.0206 2.80079 54.1874 2.62536C54.2291 2.58151 54.3143 2.62365 54.3571 2.66637C54.4845 2.70794 54.4892 3.05423 54.74 2.83438C54.8239 2.78995 55.0377 2.96024 55.2074 3.00125C55.5051 3.12711 55.8416 2.99269 56.0941 2.90269C56.3466 2.8127 56.5169 2.89699 56.7277 2.85085C56.77 2.85028 56.7706 2.89357 56.8134 2.93628C56.7711 2.93685 56.7295 2.98071 56.6872 2.98128C56.6449 2.98185 56.6026 2.98242 56.5603 2.98299C56.5181 2.98356 56.4758 2.98413 56.4335 2.9847C56.4764 3.02742 56.4769 3.0707 56.5198 3.11342C56.5627 3.15613 56.6484 3.24157 56.7335 3.28371C56.7758 3.28314 56.9021 3.23814 56.9438 3.19429C56.9849 3.10714 56.9414 3.02114 56.9825 2.934C57.0242 2.89014 57.0653 2.803 57.1499 2.80186C57.6144 2.7523 58.0836 3.04903 58.588 2.82575C58.7143 2.78075 58.4664 3.21704 58.8017 2.99604C58.9274 2.90776 59.0108 2.82004 59.0942 2.73233C59.1359 2.68847 59.2639 2.77334 59.2639 2.77334C59.268 3.07634 59.3977 3.29106 59.4858 3.54963C59.4864 3.59292 59.4447 3.63678 59.4036 3.72392C59.4042 3.7672 59.3625 3.81106 59.3625 3.81106C59.4482 3.89649 59.7436 3.84921 59.8264 3.71821C59.9092 3.58721 59.992 3.45621 59.7788 3.32921C59.6937 3.28706 59.5657 3.2022 59.5645 3.11563C59.5211 3.02963 59.5616 2.8992 59.6027 2.81206C59.6456 2.85477 59.7307 2.89692 59.7736 2.93963C59.8159 2.93906 59.8587 2.98178 59.9004 2.93792C60.3632 2.7585 60.7883 2.92594 61.2534 2.91967C61.5493 2.91567 61.8447 2.86839 62.1395 2.77783C62.308 2.73226 62.3497 2.6884 62.3949 2.90426C62.4401 3.12012 62.6087 3.07456 62.7349 3.02956C62.8189 2.98513 62.5635 2.8587 62.732 2.81313C62.816 2.7687 62.944 2.85356 63.0708 2.85185C63.2822 2.849 63.5341 2.71572 63.6621 2.80058C63.8753 2.92758 64.0421 2.75216 64.2541 2.79259C64.5506 2.83188 64.7197 2.8296 64.8489 3.00104C64.9346 3.08647 64.9781 3.17247 65.0638 3.2579C65.1067 3.30062 65.1912 3.29947 65.2335 3.2989C65.2752 3.25505 65.3163 3.1679 65.2734 3.12519C65.23 3.03919 65.102 2.95433 65.2699 2.86547C65.5224 2.77548 65.8161 2.59834 66.0292 2.72535C66.1572 2.81021 66.2412 2.76578 66.3252 2.72135C66.5366 2.7185 66.4543 2.89278 66.4561 3.02264C66.4144 3.0665 66.3727 3.11036 66.2893 3.19807C66.2893 3.19807 66.2893 3.19807 66.2887 3.15478C66.2465 3.15535 66.2042 3.15592 66.2048 3.19921C66.2048 3.19921 66.2053 3.2425 66.2059 3.28578C66.2482 3.28521 66.2476 3.24193 66.2893 3.19807C66.3304 3.11093 66.3721 3.06707 66.4561 3.02264C66.5407 3.0215 66.6258 3.06365 66.6675 3.01979C67.0445 2.75494 67.0445 2.75494 67.4696 2.92238C67.5971 2.96395 67.8108 3.13425 67.8484 2.78739C67.8484 2.78739 68.0169 2.74182 68.0598 2.78453C68.1449 2.82668 68.189 2.95597 68.2747 3.0414C68.3158 2.95426 68.3563 2.82383 68.4403 2.7794C68.6089 2.73383 68.8197 2.68769 68.9888 2.68541C69.2425 2.68199 69.4985 2.85171 69.7492 2.63186L69.7915 2.63129C70.0076 2.97472 70.2172 2.84201 70.4692 2.70873C70.5109 2.66488 70.8062 2.6176 70.768 2.92117C70.7704 3.09431 70.9812 3.04817 71.108 3.04646C71.2343 3.00147 71.3594 2.8699 71.4844 2.73833C71.5267 2.73776 71.6113 2.73662 71.6119 2.7799C71.6559 2.90919 71.4891 3.08462 71.7011 3.12505C71.9131 3.16548 72.1262 3.29249 72.3347 3.07321C72.3758 2.98606 72.4598 2.94164 72.5438 2.89721C72.6272 2.8095 72.754 2.80778 72.8397 2.89322C72.926 3.02193 73.0529 3.02022 73.094 2.93308C73.2596 2.67108 73.471 2.66823 73.7241 2.62152C74.0195 2.57424 74.1874 2.48539 74.444 2.69839C74.5298 2.78382 74.7412 2.78097 74.8251 2.73655C75.161 2.55884 75.3736 2.64256 75.6719 2.81171C75.7147 2.85442 75.9678 2.80771 75.9673 2.76443C76.0466 2.37371 76.3049 2.71658 76.4306 2.62829C76.6032 2.88573 76.8557 2.79573 77.11 2.8356C77.3214 2.83275 77.4934 3.04689 77.7453 2.91361C77.8293 2.86919 77.999 2.91019 78.1264 2.95176C78.3807 2.99163 78.6778 3.07421 78.9309 3.0275C79.2257 2.93693 79.3977 3.15108 79.6086 3.10494C79.7777 3.10266 79.9462 3.05709 80.1142 2.96824C80.3238 2.83553 80.6174 2.65839 80.9169 2.91411C81.002 2.95626 81.1694 2.82412 81.3385 2.82184C81.5076 2.81955 81.6768 2.81727 81.8042 2.85885C81.9322 2.94371 82.0173 2.98585 82.1424 2.85428C82.1841 2.81043 82.3532 2.80815 82.4372 2.76372C82.4795 2.76315 82.5224 2.80586 82.5646 2.80529C82.5229 2.84915 82.4807 2.84972 82.439 2.89358C82.3973 2.93743 82.3562 3.02458 82.2722 3.069C82.315 3.11172 82.3579 3.15443 82.4002 3.15386C82.7813 3.19202 83.163 3.27345 83.4971 2.96589C83.668 3.09346 83.8383 3.17775 84.0491 3.13161C84.0914 3.13104 84.1325 3.0439 84.1742 3.00005C84.4748 3.34234 84.725 3.0792 85.0609 2.90149C85.0615 2.94478 84.9775 2.98921 84.9775 2.98921C85.0215 3.11849 85.065 3.2045 85.109 3.33378C85.1507 3.28993 85.193 3.28936 85.1924 3.24607C85.1912 3.1595 85.1472 3.03021 85.0609 2.90149C85.4808 2.67936 85.4808 2.67936 85.8207 2.80465C85.863 2.80408 85.9065 2.89008 85.9059 2.8468C86.2841 2.66852 86.7098 2.87924 87.0469 2.78811C87.2154 2.74254 87.2588 2.82854 87.3434 2.8274C87.6828 2.90941 88.0205 2.86156 88.3129 2.59785C88.4803 2.46571 88.6071 2.464 88.7363 2.63543C88.7791 2.67815 88.7803 2.76472 88.7809 2.80801C88.8226 2.76415 88.8214 2.67758 88.8631 2.63372C88.9459 2.50272 89.0728 2.50101 89.1168 2.6303C89.1602 2.7163 89.2049 2.88887 89.206 2.97544C89.2078 3.1053 89.2507 3.14802 89.334 3.06031C89.3757 3.01645 89.4168 2.92931 89.4163 2.88602C89.4157 2.84273 89.3728 2.80002 89.3305 2.80059C89.2877 2.75787 89.2871 2.71459 89.2436 2.62859C89.2859 2.62802 89.3705 2.62687 89.4128 2.6263C89.5819 2.62402 89.6682 2.75274 89.7134 2.9686C89.7134 2.9686 89.7134 2.9686 89.7128 2.92531C89.6705 2.92588 89.6282 2.92645 89.6288 2.96974C89.6288 2.96974 89.6294 3.01303 89.63 3.05631C89.6723 3.05574 89.6717 3.01246 89.7134 2.9686C89.7962 2.8376 89.879 2.7066 89.9636 2.70546C90.1321 2.65989 90.3059 3.0039 90.5138 2.74133C90.6389 2.60976 90.8497 2.56362 91.0188 2.56134C91.2302 2.55849 91.4416 2.55563 91.6547 2.68264C91.825 2.76693 92.1644 2.84894 92.2472 2.71794C92.582 2.45366 92.8803 2.62281 93.1762 2.61882C93.2185 2.61825 93.3465 2.70311 93.3471 2.74639C93.3494 2.91954 93.4763 2.91783 93.5602 2.8734C93.8116 2.69683 94.107 2.64955 94.4035 2.68885C94.5303 2.68713 94.6983 2.59828 94.8251 2.59657C94.952 2.59486 95.1211 2.59258 95.2068 2.67801C95.3783 2.84887 95.4587 2.54473 95.5868 2.62959C95.6719 2.67173 95.9267 2.75488 95.9227 2.45188C95.9227 2.45188 96.1335 2.40574 96.218 2.4046C96.8534 2.48261 97.4441 2.38806 98.0783 2.3795C98.1206 2.37893 98.1635 2.42164 98.2058 2.42107C98.4183 2.50479 98.6309 2.58851 98.7971 2.3698C98.9216 2.19494 99.0919 2.27923 99.2187 2.27752C99.3884 2.31853 99.5158 2.3601 99.6427 2.35839C99.8541 2.35554 100.023 2.35326 100.235 2.3504C100.404 2.34812 100.573 2.38913 100.785 2.38627C100.954 2.38399 101.164 2.29457 101.249 2.33671C101.421 2.50758 101.504 2.37658 101.63 2.33158C101.882 2.1983 101.93 2.63059 102.223 2.45345C102.349 2.36517 102.645 2.36117 102.773 2.44603C102.943 2.53032 102.986 2.52975 103.111 2.44147C103.321 2.30876 103.574 2.21876 103.828 2.25863C103.997 2.29963 104.209 2.34007 104.42 2.25064C104.546 2.20564 104.801 2.33208 104.972 2.41637C105.015 2.45908 105.101 2.5878 105.141 2.45737C105.221 2.10994 105.607 2.49438 105.645 2.19081C105.819 2.53482 106.067 2.14182 106.28 2.22554C106.493 2.30926 106.744 2.13269 106.958 2.30299C107.171 2.47328 107.42 2.12357 107.677 2.33657C107.72 2.37929 107.93 2.28986 108.099 2.2443C108.225 2.1993 108.393 2.11044 108.436 2.15316C108.693 2.40945 108.988 2.31889 109.242 2.35875C109.369 2.40033 109.624 2.48348 109.62 2.18047L109.662 2.13662C110.044 2.26134 110.463 1.99592 110.803 2.12121C111.016 2.20493 111.184 2.11608 111.354 2.15708C111.523 2.19809 111.61 2.32681 111.862 2.23681C112.031 2.19124 112.241 2.10182 112.452 2.05568C112.494 2.05511 112.536 2.01125 112.578 2.01068C112.833 2.13712 113.17 2.04598 113.383 2.1297C113.638 2.21285 113.805 2.08071 114.018 2.16443C114.23 2.24815 114.442 2.2453 114.695 2.24187C114.738 2.2413 114.821 2.15359 114.863 2.10973C114.904 2.06588 115.03 1.97759 115.073 2.02031C115.457 2.27489 115.88 2.31247 116.301 2.13362C116.385 2.0892 116.557 2.30335 116.683 2.25835C116.809 2.21335 116.893 2.12564 117.021 2.25378C117.106 2.29593 117.317 2.2065 117.36 2.29251C117.489 2.42065 117.658 2.41837 117.785 2.41666C118.248 2.28053 118.757 2.40354 119.223 2.44055C119.307 2.43941 119.391 2.39498 119.475 2.35056C120.065 2.21271 120.615 2.20529 121.21 2.41374C121.337 2.45531 121.505 2.36646 121.591 2.45189C121.72 2.58004 121.889 2.57775 122.016 2.57604C122.142 2.57433 122.268 2.44276 122.397 2.61419C122.397 2.61419 122.481 2.61305 122.524 2.61248C122.9 2.30435 123.325 2.47179 123.706 2.46665C123.959 2.46323 124.255 2.41595 124.551 2.41196C124.847 2.40796 125.103 2.57768 125.396 2.35726C125.479 2.26955 125.692 2.39655 125.861 2.39427C126.2 2.43299 126.496 2.429 126.834 2.38115C127.171 2.3333 127.55 2.15502 127.934 2.45289C128.062 2.53775 128.402 2.61976 128.61 2.40048C128.993 2.56849 129.411 2.21649 129.753 2.47165C129.838 2.55708 130.05 2.55423 130.175 2.42266C130.343 2.3338 130.386 2.4198 130.389 2.59295C130.392 2.85266 130.435 2.89538 130.645 2.76267C130.729 2.71824 130.812 2.63053 130.896 2.5861L131.235 2.62482C131.403 2.57926 131.572 2.53369 131.741 2.53141C131.868 2.52969 131.997 2.65784 132.123 2.61284C132.418 2.52228 132.63 2.606 132.803 2.86343C132.846 2.90615 132.972 2.90444 133.058 2.94658C133.058 2.94658 133.058 2.94658 133.015 2.94715C133.016 2.99044 133.016 3.03373 133.059 3.03315C133.059 3.03315 133.101 3.03258 133.143 3.03201C133.143 2.98873 133.1 2.9893 133.058 2.94658C133.014 2.86058 133.056 2.81672 133.055 2.73015C133.097 2.72958 133.139 2.72901 133.182 2.77173L133.225 2.81444C133.813 2.50345 134.407 2.66861 135 2.70391C135.042 2.70334 135.126 2.7022 135.168 2.65834C135.378 2.52563 135.295 2.69992 135.297 2.78649C135.297 2.82978 135.34 2.87249 135.382 2.87192C135.635 2.78193 135.887 2.69193 136.06 2.94936C136.27 2.81665 136.525 2.8998 136.735 2.81038C136.861 2.76538 136.945 2.72095 137.074 2.8491C137.116 2.89182 137.243 2.89011 137.328 2.93225C137.795 3.05583 138.3 2.87584 138.727 3.17314C138.77 3.21586 138.978 2.95329 139.024 3.25572C138.982 3.25629 138.94 3.30015 138.898 3.30072C138.941 3.34343 138.984 3.38615 138.984 3.38615C139.072 3.64473 139.367 3.55416 139.496 3.76888C139.626 3.9836 139.797 4.11117 139.8 4.3276C139.803 4.54403 140.102 4.75647 139.809 4.9769C139.683 5.06518 140.024 5.23376 139.814 5.36647C139.604 5.49918 139.817 5.62619 139.819 5.75605C139.782 6.14619 139.788 6.57905 139.709 6.96977C139.67 7.23005 139.333 7.32119 139.337 7.62419C139.338 7.66748 139.164 7.32347 139.126 7.62705C139.127 7.71362 139.171 7.84291 139.214 7.92891C139.259 8.10148 139.218 8.18862 139.006 8.14819C138.921 8.14933 138.795 8.19433 138.795 8.23762C138.842 8.54005 138.63 8.5429 138.418 8.50247C138.249 8.50475 138.078 8.37717 137.912 8.5526C137.87 8.59645 137.743 8.55488 137.7 8.51216C137.529 8.38459 137.359 8.34358 137.149 8.47629C136.982 8.56515 136.855 8.56686 136.726 8.43871L136.641 8.39657C136.558 8.52757 136.475 8.61528 136.35 8.74685C136.222 8.66199 136.134 8.4467 136.007 8.44841C135.838 8.45069 135.714 8.66883 135.584 8.41083C135.333 8.63068 135.034 8.37496 134.781 8.46495C134.402 8.55666 134.148 8.5168 133.89 8.2605C133.848 8.21779 133.72 8.17621 133.636 8.22064C133.341 8.31121 133.046 8.35849 132.837 8.53448C132.627 8.66719 132.583 8.53791 132.456 8.49633C132.158 8.37047 131.776 8.28903 131.439 8.33688C131.27 8.33916 131.101 8.38473 130.932 8.38701C130.763 8.38929 130.55 8.26229 130.384 8.481C130.254 8.30956 130.127 8.26799 129.96 8.44342C129.96 8.44342 129.876 8.44456 129.833 8.44513C129.579 8.40526 129.364 8.10511 129.071 8.32554C128.861 8.45825 128.562 8.24581 128.311 8.42238C128.227 8.46681 128.057 8.4258 127.93 8.38423C127.675 8.34436 127.378 8.2185 127.21 8.35064C126.959 8.52721 126.785 8.13991 126.533 8.31648C126.408 8.44805 126.068 8.32276 125.814 8.32618C125.645 8.32846 125.517 8.2436 125.39 8.24531C125.348 8.24588 125.263 8.20374 125.263 8.20374C124.928 8.42473 124.546 8.34329 124.207 8.30457C124.038 8.30685 123.786 8.44013 123.743 8.35413C123.571 8.13998 123.405 8.40198 123.235 8.31769C123.065 8.27669 122.897 8.32226 122.728 8.36782C122.517 8.41396 122.221 8.41795 122.008 8.29095C121.582 8.08022 121.16 8.08593 120.696 8.17877C120.316 8.2272 119.933 8.10247 119.553 8.10761C119.256 8.06831 118.959 7.98573 118.666 8.16287C118.456 8.29558 118.282 7.95158 118.03 8.08486C117.905 8.17314 117.609 8.17713 117.394 7.96356C117.352 7.92084 117.225 7.96584 117.141 8.01026C116.889 8.10026 116.636 8.14697 116.381 8.10711C116.127 8.06724 115.871 7.89752 115.621 8.16066C115.491 7.90265 115.155 8.12365 114.983 7.86621L114.898 7.86736C114.647 8.08721 114.35 8.00463 114.012 8.00919C113.843 8.01148 113.719 8.22962 113.589 7.97161C113.589 7.97161 113.546 7.9289 113.546 7.97218C113.211 8.19318 112.827 7.9386 112.448 8.0303C112.321 8.0753 112.195 8.1203 112.068 8.07872C111.856 8.03829 111.646 8.12771 111.432 7.95742C111.347 7.91527 111.096 8.13513 110.969 8.13684C110.758 8.13969 110.503 8.05654 110.291 8.01611C109.994 7.97682 109.698 7.93752 109.401 7.89823C109.359 7.8988 109.276 7.98651 109.233 7.98708C108.937 7.99108 108.683 7.95122 108.388 8.04178C108.136 8.13178 107.837 7.91934 107.543 8.05319C107.5 8.05376 107.414 7.92504 107.329 7.8829C107.2 7.75475 107.116 7.75589 107.034 7.93018C107.034 7.97346 106.908 8.01846 106.823 8.0196C106.57 8.06631 106.271 7.81059 105.978 8.0743C105.763 7.81743 105.553 7.86357 105.301 7.99685C105.042 7.65399 104.834 7.91656 104.625 8.09255C104.497 7.96441 104.417 8.31184 104.245 8.09769C104.159 8.01226 103.906 8.05896 103.82 7.97353C103.692 7.84539 103.607 7.80324 103.609 8.01967L103.568 8.06353C103.441 8.06524 103.314 8.06695 103.187 8.02538C103.059 7.9838 102.931 7.85566 102.889 7.89951C102.763 7.9878 102.679 7.98894 102.55 7.86079C102.464 7.73207 102.21 7.73549 102.504 7.55836C102.546 7.55779 102.545 7.47121 102.587 7.42736C102.544 7.42793 102.459 7.38578 102.459 7.38578C102.334 7.51735 102.164 7.43306 102.04 7.6512C101.875 7.95649 101.492 7.78848 101.283 7.96448C101.279 7.70476 101.068 7.70761 100.898 7.62332C100.643 7.54017 100.433 7.6296 100.267 7.8916C100.225 7.93545 100.184 7.97931 100.141 7.97988C100.099 7.98045 99.9723 7.98216 99.93 7.98273C99.6311 7.77029 99.2946 7.90472 98.9998 7.99528C98.9159 8.03971 98.7467 8.04199 98.7033 7.95599C98.489 7.74241 98.1508 7.74698 97.9822 7.79254C97.7714 7.83868 97.6011 7.75439 97.5171 7.79882C97.3492 7.88767 97.1789 7.80338 97.0098 7.80566C96.7984 7.80852 96.7972 7.72194 96.9646 7.5898C96.9217 7.54709 96.8789 7.50437 96.8366 7.50494C96.5817 7.42179 96.3292 7.51179 96.1202 7.68778C96.0785 7.73164 96.0796 7.81821 96.0796 7.81821C96.1225 7.86093 96.2071 7.85979 96.2499 7.9025C96.2082 7.94636 96.1237 7.9475 96.082 7.99136C95.9146 8.1235 95.7883 8.1685 95.6175 8.04092C95.4037 7.87063 95.0649 7.8319 94.8547 7.92133C94.5188 8.09904 94.4319 7.92703 94.2604 7.75617C94.217 7.67017 94.0896 7.6286 94.0044 7.58645C93.9621 7.58702 93.9205 7.63088 93.8782 7.63145C93.7114 7.80687 93.5023 7.98287 93.2487 7.98629C93.1218 7.98801 92.9944 7.94643 92.8681 7.99143C92.7413 7.99314 92.6139 7.95156 92.487 7.95328C92.3602 7.95499 92.2357 8.12984 92.1482 7.91455L92.1059 7.91512C92.0225 8.00284 91.8969 8.09112 91.8135 8.17883C91.77 8.09283 91.6837 7.96412 91.6403 7.87811C91.6403 7.87811 91.5557 7.87925 91.5134 7.87982C91.3038 8.01254 90.7988 8.19253 90.7142 8.19367C90.5451 8.19595 90.4588 8.06723 90.4142 7.89466C90.3707 7.80866 90.4118 7.72151 90.4107 7.63494C90.3672 7.54894 90.2821 7.50679 90.2392 7.46408C90.1981 7.55122 90.1993 7.63779 90.1582 7.72494C90.1587 7.76822 90.1593 7.81151 90.1599 7.85479C90.0759 7.89922 89.992 7.94365 89.9086 8.03136C89.8663 8.03193 89.8246 8.07579 89.7823 8.07636C89.612 7.99207 89.3572 7.90892 89.2309 7.95392C89.2303 7.91063 89.2298 7.86735 89.312 7.69306C89.3531 7.60592 89.312 7.69306 89.2709 7.7802C89.2709 7.7802 89.3137 7.82292 89.3143 7.8662C89.3977 7.77849 89.4394 7.73463 89.5228 7.64692C89.4805 7.64749 89.4377 7.60478 89.312 7.69306C89.2298 7.86735 89.1875 7.86791 89.1452 7.86849C89.1881 7.9112 89.2309 7.95392 89.2309 7.95392C89.2327 8.08377 89.1939 8.34406 88.9802 8.17377C88.8522 8.08891 88.5163 8.26662 88.5533 7.87647C88.595 7.83262 88.6367 7.78876 88.7201 7.70105C88.5075 7.61733 88.3372 7.53304 88.1241 7.40603C88.1246 7.44932 88.1246 7.44932 88.1252 7.4926C88.0865 7.75289 88.087 7.79618 87.9162 7.6686C87.6602 7.49888 87.4511 7.67487 87.2831 7.76373C87.0735 7.89644 87.0741 7.93972 86.8615 7.856C86.8192 7.85657 86.7769 7.85715 86.7347 7.85772C86.6078 7.85943 86.481 7.86114 86.3536 7.81956C86.2261 7.77799 86.0564 7.73699 85.9707 7.65155C85.8415 7.48012 85.7599 7.69769 85.6331 7.6994C85.4645 7.74497 85.3336 7.44368 85.2931 7.57411C85.2537 7.79111 85.0834 7.70682 85 7.79453C84.8327 7.92667 84.8315 7.8401 84.8298 7.71024C84.8292 7.66696 84.7446 7.6681 84.7017 7.62538C84.707 8.01496 84.3653 7.7598 84.1979 7.89194C84.0311 8.06737 83.8996 7.72279 83.7299 7.68179C83.6876 7.68236 83.6859 7.5525 83.6853 7.50922C83.6436 7.55307 83.6442 7.59636 83.6025 7.64021C83.5197 7.77121 83.4374 7.9455 83.2231 7.73192C83.2225 7.68864 83.054 7.7342 83.0546 7.77749C82.9747 8.12492 82.677 7.99905 82.633 7.86977C82.5449 7.61119 82.293 7.74447 82.1227 7.66018C81.9101 7.57646 81.741 7.57874 81.8215 7.2746C81.8215 7.2746 81.7786 7.23188 81.7357 7.18917C81.6941 7.23302 81.6946 7.27631 81.6524 7.27688C81.4891 7.71202 81.4891 7.71202 81.0211 7.50187C80.8937 7.46029 80.8514 7.46086 80.7692 7.63515C80.6881 7.89601 80.6041 7.94044 80.391 7.81343C80.263 7.72857 80.1772 7.64314 80.0921 7.60099C80.0492 7.55828 79.9224 7.55999 79.9224 7.55999C79.6317 7.95356 79.5836 7.52127 79.455 7.39312C79.327 7.30826 79.1996 7.26668 79.0721 7.22511C79.0299 7.22568 78.9882 7.26954 78.9459 7.27011C78.9048 7.35725 78.8214 7.44496 78.7803 7.5321C78.6158 7.88068 78.5313 7.88182 78.2312 7.58281C78.0598 7.41194 77.9711 7.11008 77.6335 7.15793C77.4221 7.16078 77.5477 7.0725 77.6311 6.98479L77.5877 6.89879C77.5454 6.89936 77.5025 6.85664 77.4608 6.9005C77.4186 6.90107 77.4191 6.94435 77.3774 6.98821C77.3369 7.11864 77.4244 7.33393 77.2559 7.3795C77.1719 7.42392 77.0433 7.29578 76.9159 7.2542C76.8736 7.25477 76.8319 7.29863 76.8325 7.34192C76.7091 7.60334 76.6258 7.69106 76.4543 7.52019C76.2834 7.39262 75.9881 7.4399 75.9834 7.09361C75.9805 6.87718 75.7702 6.9666 75.7297 7.09703C75.6475 7.27132 75.5647 7.40232 75.3521 7.3186C75.3098 7.31917 75.3087 7.23259 75.3081 7.18931C75.3915 7.1016 75.4332 7.05774 75.2635 7.01673C75.2212 7.01731 75.1372 7.06173 75.1378 7.10502C75.1395 7.23488 75.0145 7.36645 75.227 7.45017C75.2693 7.4496 75.3133 7.57888 75.3562 7.6216C75.2722 7.66603 75.1883 7.71045 75.146 7.71102C74.8077 7.71559 74.678 7.50087 74.5899 7.24229C74.5893 7.19901 74.5465 7.15629 74.5459 7.113C74.5042 7.15686 74.4625 7.20072 74.4631 7.244C74.422 7.33115 74.4654 7.41715 74.4243 7.50429C74.4249 7.54758 74.3415 7.63529 74.2986 7.59257C74.0866 7.55214 73.7918 7.64271 73.6198 7.42856C73.5341 7.34313 72.8148 7.30954 72.7296 7.26739C72.4753 7.22753 72.6086 7.70197 72.268 7.53339C72.14 7.44852 71.9298 7.53795 71.7613 7.58352C71.3819 7.67522 71.0008 7.63707 70.6203 7.64221C70.4935 7.64392 70.3238 7.60291 70.3267 7.81934C70.3267 7.81934 70.1581 7.86491 70.1159 7.86548C69.9432 7.60805 69.8187 7.7829 69.6931 7.87119C69.6514 7.91504 69.4828 7.96061 69.4828 7.96061C69.3102 7.70318 69.1428 7.83532 69.0178 7.96689C68.9761 8.01074 68.9332 7.96803 68.8909 7.9686C68.8898 7.88203 68.8892 7.83874 68.972 7.70774C68.9714 7.66445 68.972 7.70774 68.9297 7.70831C68.9303 7.7516 68.9726 7.75103 68.9731 7.79431C69.0148 7.75046 69.0148 7.75046 69.0565 7.7066C69.0565 7.7066 69.0137 7.66388 68.972 7.70774C68.7195 7.79774 68.5509 7.8433 68.3395 7.84616C68.1281 7.84901 68.1276 7.80572 68.2938 7.58701C68.3783 7.58587 68.5486 7.67016 68.6297 7.4093C68.6291 7.36602 68.6297 7.4093 68.5874 7.40987C68.588 7.45316 68.6302 7.45259 68.6308 7.49587C68.6725 7.45202 68.6725 7.45202 68.7142 7.40816C68.7142 7.40816 68.6713 7.36544 68.6297 7.4093C68.4617 7.49816 68.3331 7.37001 68.2938 7.58701C68.1675 7.63201 68.1634 7.329 67.9966 7.50443C67.8721 7.67929 67.703 7.68157 67.5333 7.64056C67.3213 7.60013 67.1945 7.60184 67.1986 7.90484C67.2009 8.07799 66.8627 8.08255 66.8181 7.90998C66.7282 7.52155 66.5615 7.69697 66.3935 7.78583C66.2673 7.83082 66.141 7.87582 66.0576 7.96353C65.9319 8.05182 65.8485 8.13953 65.845 7.87981C65.8445 7.83653 65.717 7.79495 65.6319 7.75281C65.3753 7.5398 64.9525 7.54551 64.9461 7.06936C64.9455 7.02607 64.8186 7.02778 64.7758 6.98507C64.7335 6.98564 64.6912 6.98621 64.6489 6.98678C64.6495 7.03007 64.6078 7.07392 64.6507 7.11664C64.7805 7.33136 64.9096 7.50279 64.9971 7.71808C65.04 7.76079 64.9566 7.84851 64.9577 7.93508C64.8726 7.89293 64.8297 7.85022 64.744 7.76479C64.7011 7.72207 64.6583 7.67936 64.4446 7.50906C64.3171 7.46749 64.4029 7.55292 64.488 7.59507C64.5303 7.5945 64.572 7.55064 64.6143 7.55007C64.5279 7.42135 64.4845 7.33535 64.3982 7.20663C64.3565 7.25049 64.3148 7.29435 64.4017 7.46635C64.6154 7.63664 64.6583 7.67936 64.7012 7.72207C64.6595 7.76593 64.6183 7.85307 64.5761 7.85364C64.1527 7.81606 63.7293 7.77848 63.3059 7.7409C63.2214 7.74204 63.1356 7.65661 63.0505 7.61446C62.9231 7.57289 62.7111 7.53245 62.6283 7.66345C62.5044 7.88159 62.3787 7.96988 62.1238 7.88673C61.9541 7.84573 61.7474 8.19487 61.657 7.76315C61.6559 7.67657 61.3587 7.594 61.1467 7.55356C60.977 7.51256 61.0217 7.68513 61.0234 7.81499C60.9412 7.98928 60.9412 7.98927 60.8108 7.73127C60.8103 7.68798 60.8108 7.73127 60.7686 7.73184C60.7691 7.77513 60.8114 7.77456 60.812 7.81784C60.8537 7.77399 60.8537 7.77399 60.8954 7.73013C60.8954 7.73013 60.8525 7.68741 60.8108 7.73127C60.6018 7.90727 60.4327 7.90955 60.3875 7.69369C60.344 7.60769 60.3851 7.52054 60.384 7.43397C60.384 7.43397 60.2565 7.3924 60.2571 7.43568C60.2154 7.47954 60.2166 7.56611 60.1749 7.60997C60.132 7.56725 60.1314 7.52397 60.0886 7.48125C60.0862 7.30811 59.9177 7.35367 59.8332 7.35482C59.7909 7.35539 59.6652 7.44367 59.6658 7.48696C59.711 7.70282 59.4996 7.70567 59.3733 7.75067C59.3311 7.75124 59.2888 7.75181 59.2465 7.75238C59.1966 7.19023 58.9077 7.71366 58.738 7.67265C58.6106 7.63108 58.4878 7.93579 58.2752 7.85207C58.1055 7.81107 57.9793 7.85606 58.0181 7.59578C58.0169 7.5092 57.9729 7.37992 57.8871 7.29449C57.8014 7.20905 57.674 7.16748 57.634 7.34119C57.6375 7.60091 57.5541 7.68862 57.2993 7.60547C57.1296 7.56447 56.9611 7.61004 56.8331 7.52518C56.6622 7.3976 56.6199 7.39817 56.6228 7.6146C56.5805 7.61517 56.5383 7.61574 56.4954 7.57303C56.4108 7.57417 56.2828 7.48931 56.2834 7.53259C55.9082 7.9273 55.4807 7.58672 55.1008 7.63514C54.9316 7.63742 55.1795 7.20114 54.887 7.46485C54.678 7.64084 54.5094 7.68641 54.3374 7.47226C54.2517 7.38683 54.0403 7.38968 54.2123 7.60383C54.1706 7.64769 54.1289 7.69155 54.0866 7.69212C53.8752 7.69497 53.621 7.65511 53.3661 7.57196C53.3238 7.57253 53.3661 7.57196 53.3667 7.61524C53.409 7.61467 53.4084 7.57139 53.4507 7.57082C53.4078 7.5281 53.4078 7.5281 53.365 7.48538C53.365 7.48538 53.3233 7.52924 53.3661 7.57196C53.4102 7.70124 53.369 7.78839 53.3702 7.87496C53.2851 7.83281 53.1582 7.83453 53.1576 7.79124C53.1119 7.53209 52.8999 7.49166 52.7296 7.40737C52.5599 7.36637 52.4331 7.36808 52.3514 7.58565C52.2287 7.89036 52.1864 7.89093 51.8053 7.85278C51.6784 7.85449 51.551 7.81292 51.4242 7.81463C51.3819 7.8152 51.339 7.77248 51.3385 7.7292C51.3807 7.72863 51.4647 7.6842 51.507 7.68363C51.5487 7.63977 51.5898 7.55263 51.6315 7.50877C51.5463 7.46663 51.4612 7.42448 51.4195 7.46834C51.1664 7.51505 50.9996 7.69048 51.046 7.99291C51.0466 8.03619 51.0049 8.08005 50.9626 8.08062C50.962 8.03733 50.9192 7.99462 50.9192 7.99462C50.9186 7.95133 50.918 7.90805 50.9174 7.86476C50.9151 7.69162 50.9133 7.56176 50.911 7.38861C50.7425 7.43418 50.5305 7.39375 50.3625 7.4826C50.1529 7.61531 50.0278 7.74688 49.7729 7.66373C49.6455 7.62216 49.4353 7.71158 49.4735 7.40801C49.4735 7.40801 49.1758 7.28214 49.0495 7.32714C48.8816 7.416 48.7559 7.50428 48.6261 7.28956C48.6261 7.28956 48.4993 7.29127 48.4576 7.33513C48.4159 7.37899 48.3748 7.46613 48.3337 7.55327C48.1188 7.29641 47.9126 7.68883 47.7846 7.60397C47.5709 7.43368 47.3607 7.52311 47.1481 7.43939C47.1058 7.43996 47.1041 7.3101 47.1035 7.26681C47.0589 7.09424 46.9332 7.18252 46.5081 7.01508C46.2104 6.88922 46.2532 6.93193 46.2961 6.97465C46.4235 7.01622 46.5503 7.01451 46.6778 7.05609C46.72 7.05552 46.723 7.27195 46.8475 7.09709C46.8892 7.05323 46.8457 6.96723 46.8029 6.92452C46.6302 6.66708 46.3343 6.67108 46.5087 7.05837C46.8498 7.27023 46.8933 7.35624 46.9361 7.39895C46.8516 7.40009 46.7676 7.44452 46.683 7.44566C46.5127 7.36137 46.3413 7.19051 46.1334 7.45308C46.0923 7.54022 46.0506 7.58408 46.0095 7.67122C46.0083 7.58465 45.9649 7.49865 45.9637 7.41207C46.0013 7.06521 45.6689 7.50264 45.6654 7.24292C45.5814 7.28735 45.4123 7.28963 45.4992 7.46163C45.5867 7.67692 45.333 7.68035 45.3776 7.85292C45.3353 7.85349 45.2508 7.85463 45.2091 7.89849C45.2085 7.8552 45.2073 7.76863 45.2073 7.76863C45.3324 7.63706 45.2062 7.68206 45.121 7.63991C44.993 7.55505 44.7804 7.47133 45.0318 7.29477C44.9883 7.20876 44.9032 7.16662 44.8597 7.08062C44.8181 7.12447 44.8186 7.16776 44.7769 7.21162C44.7352 7.25547 44.6507 7.25661 44.6507 7.25661C44.5638 7.08461 44.3536 7.17403 44.2261 7.13246C44.225 7.04589 44.2238 6.95932 44.2649 6.87217C44.5186 6.86875 44.3888 6.65403 44.4294 6.5236L44.3442 6.48146C44.218 6.52645 44.1346 6.61417 44.0089 6.70245C43.9666 6.70302 43.9243 6.70359 43.7969 6.66202C43.7546 6.66259 43.7969 6.66202 43.7975 6.7053C43.8398 6.70473 43.8392 6.66145 43.8815 6.66088C43.8386 6.61816 43.8386 6.61816 43.7957 6.57545C43.7957 6.57545 43.7541 6.6193 43.7969 6.66202C43.8826 6.74745 43.9255 6.79016 43.969 6.87617C44.0547 6.9616 44.141 7.09032 44.2267 7.17575C44.1046 7.52375 44.1046 7.52375 43.7657 7.48502C43.7235 7.48559 43.6806 7.44288 43.6806 7.44288C43.4698 7.48902 43.2584 7.49187 43.0893 7.49415C42.835 7.45429 42.6201 7.19742 42.3705 7.50385C42.2454 7.63542 41.9483 7.55284 41.8185 7.33812C41.7751 7.25212 41.6482 7.25383 41.5631 7.21169C41.5643 7.29826 41.65 7.38369 41.6077 7.38426C41.5243 7.47197 41.4404 7.5164 41.3564 7.56083C41.3129 7.47482 41.2695 7.38882 41.3094 7.21511C41.3088 7.17182 41.3094 7.21511 41.2671 7.21568C41.2677 7.25897 41.31 7.25839 41.3106 7.30168C41.3523 7.25782 41.3523 7.25782 41.394 7.21397C41.394 7.21397 41.3511 7.17125 41.3094 7.21511C41.2266 7.34611 41.1426 7.39053 41.1432 7.43382C41.1456 7.60697 41.3135 7.51811 41.3987 7.56026C41.3998 7.64683 41.4004 7.69011 41.3593 7.77726C41.317 7.77783 41.2747 7.7784 41.2319 7.73568C41.1467 7.69354 41.0199 7.69525 40.9347 7.6531C40.7645 7.56881 41.0176 7.5221 40.9741 7.4361C40.8878 7.30739 40.6347 7.35409 40.5948 7.52781C40.5548 7.70152 40.5137 7.78867 40.344 7.74766C40.2166 7.70609 40.0897 7.7078 39.9629 7.70951C39.8361 7.71122 39.7926 7.62522 39.7909 7.49536C39.7468 7.36607 39.6629 7.4105 39.6646 7.54036C39.6247 7.71407 39.5395 7.67193 39.4121 7.63035C39.1561 7.46063 38.9007 7.3342 38.6041 7.29491C38.5618 7.29548 38.5184 7.20947 38.4755 7.16676C38.2606 6.90989 38.0909 6.86889 37.8824 7.08817C37.7985 7.1326 37.7574 7.21974 37.7162 7.30689C37.6728 7.22088 37.6716 7.13431 37.6282 7.04831L37.5853 7.00559C37.5419 6.91959 37.4984 6.83359 37.4156 6.96459C37.3739 7.00845 37.2471 7.01016 37.3334 7.13888C37.3763 7.18159 37.3357 7.31202 37.3363 7.35531C37.2518 7.35645 37.1672 7.35759 37.1243 7.31487C36.9535 7.1873 36.8249 7.05915 36.5312 7.23629C36.2793 7.36957 35.8982 7.33142 35.5993 7.11898C35.3862 6.99197 35.2153 6.8644 34.9616 6.86782C34.708 6.87124 34.708 6.87124 34.7538 7.13039C34.7543 7.17367 34.7972 7.21639 34.7978 7.25968C34.799 7.34625 34.7578 7.43339 34.7167 7.52053C34.6316 7.47839 34.547 7.47953 34.5042 7.43681C34.3762 7.35195 34.3304 7.09281 34.1636 7.26823C33.9122 7.4448 33.867 7.22894 33.7385 7.10079C33.695 7.01479 33.6933 6.88493 33.6492 6.75565C33.5664 6.88664 33.4836 7.01764 33.3579 7.10593C33.2323 7.19421 33.3597 7.23579 33.3609 7.32236C33.4055 7.49493 33.4072 7.62479 33.2393 7.71364C33.197 7.71421 33.1547 7.71479 33.1124 7.71536C33.1506 7.41178 32.8975 7.45849 32.7707 7.4602C32.517 7.46363 32.3438 7.1629 32.0925 7.33947C32.0925 7.33947 32.0073 7.29733 31.9645 7.25461C31.9656 7.34118 31.9674 7.47104 32.0097 7.47047C32.2639 7.51033 32.2228 7.59748 32.0549 7.68633C31.8869 7.77519 31.719 7.86404 31.7131 7.43118C31.7125 7.38789 31.6708 7.43175 31.6714 7.47503C31.672 7.51832 31.6726 7.56161 31.6732 7.60489C31.7149 7.56104 31.7994 7.5599 31.7989 7.51661C31.7983 7.47332 31.7971 7.38675 31.7131 7.43118C31.5458 7.56332 31.3326 7.43631 31.2909 7.48017C31.1235 7.61231 30.9938 7.39759 30.9092 7.39873C30.783 7.44373 30.6579 7.5753 30.5328 7.70687C30.5328 7.70687 30.4477 7.66472 30.4054 7.66529C30.3202 7.62315 30.2768 7.53715 30.403 7.49215C30.487 7.44772 30.5716 7.44658 30.6133 7.40272C30.6555 7.40215 30.6972 7.3583 30.6972 7.3583C30.6544 7.31558 30.6115 7.27287 30.6115 7.27287C30.4007 7.319 30.1007 7.02 30.0214 7.41071C29.8105 7.45685 29.5991 7.4597 29.4324 7.63513C29.4324 7.63513 29.3472 7.59298 29.3044 7.55027C29.174 7.29226 28.9209 7.33897 28.7095 7.34182C28.5827 7.34354 28.4153 7.47568 28.2861 7.30424C28.2861 7.30424 28.2022 7.34867 28.1605 7.39253C28.3325 7.60667 28.164 7.65224 28.0354 7.5241C27.9074 7.43923 27.8222 7.39709 27.6948 7.35552C27.568 7.35723 27.4405 7.31565 27.4012 7.53265C27.4024 7.61922 27.1487 7.62265 27.1469 7.49279C27.144 7.27636 27.0172 7.27807 26.8903 7.27978C26.6372 7.32649 26.3407 7.2872 26.1739 7.46262C25.9226 7.63919 25.7946 7.55433 25.6237 7.42675C25.4957 7.34189 25.3677 7.25703 25.2397 7.17217C25.1974 7.17274 25.1128 7.17388 25.1128 7.17388C25.0746 7.47746 24.9032 7.30659 24.7763 7.30831C24.6072 7.31059 24.4804 7.3123 24.6518 7.48316L24.5685 7.57087C24.4404 7.48601 24.1874 7.53272 24.1439 7.44672C23.7992 6.97514 23.4234 7.32656 23.0435 7.37498C22.9589 7.37612 22.9184 7.50655 22.8338 7.50769C22.7493 7.50883 22.539 7.59826 22.5355 7.33854C22.5344 7.25197 22.448 7.12325 22.3629 7.08111C22.32 7.03839 22.1938 7.08339 22.1521 7.12724C22.1098 7.12782 22.0687 7.21496 22.027 7.25881C22.0693 7.25824 22.1544 7.30039 22.1967 7.29982C22.2396 7.34253 22.3241 7.34139 22.367 7.38411C22.3253 7.42797 22.2836 7.47182 22.2413 7.47239C21.9876 7.47582 21.7322 7.34938 21.4809 7.52595C21.4809 7.52595 21.3963 7.52709 21.3534 7.48437C21.3529 7.44109 21.3946 7.39723 21.4363 7.35337C21.4774 7.26623 21.603 7.17795 21.6442 7.0908C21.6853 7.00366 21.6412 6.87437 21.5984 6.83166C21.5555 6.78894 21.4281 6.74737 21.3441 6.79179C21.1756 6.83736 21.3459 6.92165 21.3464 6.96494C21.3494 7.18137 21.0986 7.40122 20.8872 7.40408C20.7181 7.40636 20.549 7.40864 20.337 7.36821C20.0827 7.32834 19.8672 7.02819 19.6159 7.20476C19.3646 7.38133 19.1074 7.12503 18.856 7.3016C18.7721 7.34603 18.5155 7.13302 18.4321 7.22073C18.1807 7.3973 18.2195 7.13701 18.0921 7.09544C18.0492 7.05272 17.9641 7.01058 17.9218 7.01115C17.7544 7.14329 17.5859 7.18886 17.4573 7.06071C17.2864 6.93313 17.1619 7.10799 16.9922 7.06698C16.8648 7.02541 16.654 7.07155 16.5283 7.15983C16.361 7.29197 16.2341 7.29368 16.0632 7.16611C16.0204 7.12339 15.937 7.2111 15.8524 7.21225C15.3462 7.30566 14.8418 7.52894 14.2916 7.49307C14.1225 7.49535 13.9557 7.67078 13.8306 7.80235C13.7472 7.89006 13.6644 8.02106 13.581 8.10877C13.4489 7.72091 13.2017 8.20048 12.9873 7.9869C12.8159 7.81604 12.5199 7.82003 12.268 7.95331C12.0161 8.08659 11.9315 8.08774 11.6749 7.87473C11.5041 7.74715 11.4189 7.70501 11.3801 7.96529C11.3396 8.09572 11.2122 8.05415 11.1265 7.96872C10.9121 7.75514 10.6561 7.58542 10.3208 7.80641C10.1065 7.59283 9.94088 7.85483 9.72948 7.85768C9.43352 7.86168 9.14048 8.0821 8.84102 7.82638C8.71301 7.74152 8.41822 7.83208 8.24969 7.87765C8.03946 7.96707 7.94964 7.57864 7.65661 7.79906C7.53094 7.88735 7.27551 7.76091 7.06411 7.76376C6.17565 7.73246 5.36708 7.35372 4.47921 7.3657C4.18325 7.3697 3.92841 7.28655 3.63362 7.37711C3.33883 7.46768 2.99651 7.16924 2.69938 7.08666C2.61424 7.04452 2.52909 7.00237 2.44453 7.00351C2.27542 7.00579 2.10922 7.22451 1.93659 6.96707C1.85028 6.83835 1.59661 6.84178 1.4269 6.80077C0.874932 6.63504 0.78278 6.07347 0.398175 5.7756C0.355312 5.73288 0.396423 5.64574 0.395255 5.55917C0.393503 5.42931 0.603733 5.33988 0.432278 5.16902C0.38883 5.08302 0.471053 4.90873 0.469301 4.77888C0.466965 4.60573 0.422349 4.43316 0.377733 4.26058C0.550356 4.51802 0.464045 4.3893 0.419429 4.21673C0.375397 4.08744 -0.0890946 4.137 0.245054 3.82943C0.329029 3.78501 0.283829 3.56915 0.239797 3.43986C0.152318 3.22457 0.192845 3.09414 0.360212 2.962C0.444187 2.91757 0.563433 2.35314 0.519401 2.22385C0.428417 1.74885 0.428417 1.74885 0.933437 1.56886C1.18595 1.47886 1.43729 1.3023 1.64577 1.08301C1.77085 0.951444 1.85424 0.863731 2.06564 0.860878C2.27762 0.901312 2.49019 0.985032 2.69925 0.809035C2.74095 0.765179 2.86837 0.806753 2.95351 0.848898C3.1238 0.933189 3.25239 1.06134 3.42268 1.14563C3.5501 1.1872 3.76325 1.31421 3.84723 1.26978C4.14143 1.13593 4.18721 1.39507 4.31464 1.43665C4.39978 1.47879 4.86369 1.38595 5.03164 1.29709C5.199 1.16495 5.36812 1.16267 5.53783 1.20367C5.91951 1.28511 6.08863 1.28283 6.55254 1.18998C6.67938 1.18827 6.80621 1.18656 6.89136 1.22871C7.31824 1.526 7.78624 1.73616 8.25073 1.6866C8.54669 1.6826 8.7992 1.59261 9.09574 1.6319C9.35 1.67176 9.64537 1.62449 9.94075 1.57721C10.0253 1.57606 10.1099 1.57492 10.151 1.48778C10.3589 1.22521 10.8257 1.3488 10.9896 0.956939C10.989 0.913653 11.073 0.869226 11.1158 0.911941C11.2438 0.996802 11.289 1.21266 11.4981 1.03667C11.5398 0.992809 11.7952 1.11924 11.8815 1.24796C12.0107 1.41939 12.2209 1.32997 12.3489 1.41483C12.4764 1.45641 12.6049 1.58455 12.6907 1.66998C12.8187 1.75484 12.9884 1.79585 13.1135 1.66428C13.2386 1.53271 13.3648 1.48771 13.5345 1.52872C13.7042 1.56972 13.8328 1.69787 14.0019 1.69558C14.1288 1.69387 14.2967 1.60502 14.4236 1.60331C14.5504 1.6016 14.7201 1.6426 14.8481 1.72746C14.9761 1.81232 15.0178 1.76847 15.1441 1.72347C15.228 1.67904 15.3549 1.67733 15.3977 1.72005C15.6966 1.93248 16.1188 1.88349 16.4177 2.09593C16.5886 2.22351 16.7994 2.17737 16.9679 2.1318C17.0942 2.0868 17.2187 1.91195 17.3455 1.91023C17.4724 1.90852 17.6009 2.03667 17.7284 2.07824C17.8552 2.07653 17.9386 1.98882 18.0643 1.90054C18.1899 1.81225 18.1911 1.89882 18.1923 1.9854C18.194 2.11525 18.2369 2.15797 18.3197 2.02697C18.3608 1.93983 18.3179 1.89711 18.4877 1.93812C18.9545 2.0617 19.4201 2.09871 19.9275 2.09187C20.0543 2.09015 20.1383 2.04573 20.2669 2.17387C20.3961 2.34531 20.5669 2.47288 20.776 2.29689C20.9017 2.2086 20.948 2.51104 21.0725 2.33618C21.1137 2.24904 21.2446 2.55033 21.3685 2.33219C21.7108 2.63062 22.0467 2.45292 22.3844 2.40507C22.5112 2.40336 22.7197 2.18407 22.6821 2.53093C22.9804 2.70008 23.237 2.91309 23.5353 3.08224C23.5776 3.08167 23.6615 3.03724 23.7038 3.03667C23.7032 2.99339 23.7021 2.90682 23.6592 2.8641C23.3221 2.95524 23.3568 2.39195 23.0203 2.52637C23.0197 2.48308 23.0192 2.4398 23.0609 2.39594C23.1431 2.22165 23.2723 2.39309 23.3568 2.39195C23.4414 2.39081 23.5242 2.25981 23.6076 2.17209C23.6504 2.21481 23.6933 2.25752 23.651 2.25809C23.6516 2.30138 23.6105 2.38852 23.5688 2.43238C23.5277 2.51952 23.5289 2.60609 23.4872 2.64995C23.5717 2.64881 23.6569 2.69096 23.6986 2.6471C23.9094 2.60096 24.1208 2.59811 24.2441 2.33668C24.5406 2.37597 24.7949 2.41584 25.092 2.49841C25.1343 2.49784 25.1778 2.58385 25.1778 2.58385C25.3469 2.58156 25.5565 2.44885 25.6423 2.53428C25.6857 2.62029 25.8548 2.618 26.0239 2.61572C26.1931 2.61344 26.2307 2.26658 26.5284 2.39245C26.6558 2.43402 26.8232 2.30188 26.9917 2.25631C27.034 2.25574 27.0763 2.25517 27.1185 2.2546C27.1191 2.29789 27.1197 2.34117 27.1203 2.38446C27.0786 2.42832 27.0798 2.51489 27.0381 2.55875C27.0803 2.55817 27.1649 2.55703 27.2072 2.55646C27.374 2.38104 27.5877 2.55133 27.7985 2.50519C27.7985 2.50519 27.7985 2.50519 27.7562 2.50576C27.7568 2.54905 27.7574 2.59233 27.7997 2.59176C27.7997 2.59176 27.842 2.59119 27.8842 2.59062C27.8837 2.54734 27.8414 2.54791 27.7985 2.50519C27.8796 2.24433 28.179 2.50006 28.3029 2.28191C28.3029 2.28191 28.4304 2.32349 28.3881 2.32406C28.3933 2.71363 28.6429 2.40721 28.7704 2.44878C28.8978 2.49036 29.0646 2.31493 29.1074 2.35765C29.3217 2.57123 29.5331 2.56837 29.7023 2.56609C29.7445 2.56552 29.788 2.65152 29.7886 2.69481C29.7903 2.82467 29.7498 2.9551 29.7521 3.12824C29.7521 3.12824 29.7521 3.12824 29.7515 3.08495C29.7093 3.08552 29.667 3.0861 29.6676 3.12938C29.6676 3.12938 29.6682 3.17267 29.6687 3.21595C29.711 3.21538 29.7104 3.1721 29.7521 3.12824C29.7932 3.0411 29.8772 2.99667 29.9189 2.95281C30.0006 2.73524 30.2942 2.5581 30.549 2.64125C30.549 2.64125 30.5913 2.64068 30.5919 2.68397C31.0998 2.72041 31.0998 2.72041 31.313 2.84742C31.441 2.93228 31.4833 2.93171 31.5661 2.80071C31.7734 2.49485 32.1551 2.57629 32.4493 2.44244C32.4493 2.44244 32.535 2.52787 32.5356 2.57116C32.5831 2.96016 32.5831 2.96016 32.9642 2.99831C33.0488 2.99717 33.1339 3.03932 33.2185 3.03818C33.2608 3.0376 33.3019 2.95046 33.3013 2.90718C33.3007 2.86389 33.3001 2.8206 33.2573 2.77789C33.1721 2.73574 33.0881 2.78017 33.003 2.73802C32.9184 2.73917 32.875 2.65316 32.8327 2.65373C32.9167 2.60931 32.9578 2.52216 33.0418 2.47774C33.084 2.47717 33.4675 2.68846 33.4681 2.73175C33.5115 2.81775 33.555 2.90375 33.5978 2.94647C33.683 2.98861 33.8092 2.94362 33.8938 2.94248C33.8926 2.8559 33.8915 2.76933 33.8909 2.72604C33.8903 2.68276 33.8474 2.64004 33.8468 2.59676C33.8463 2.55347 33.8874 2.46633 33.9291 2.42247C33.9713 2.4219 34.0988 2.46348 34.0988 2.46348C34.1023 2.72319 34.1857 2.63548 34.3542 2.58991C34.4382 2.54548 34.649 2.49935 34.6531 2.80235C34.6108 2.80292 34.6102 2.75963 34.5679 2.7602C34.5256 2.76077 34.4411 2.76191 34.3988 2.76249C34.3994 2.80577 34.4 2.84906 34.4 2.84906C34.4845 2.84792 34.5268 2.84735 34.6531 2.80235C34.6942 2.71521 34.7782 2.67078 34.8621 2.62635C34.9878 2.53807 35.0706 2.40707 35.0747 2.71007C35.0753 2.75336 35.077 2.88322 35.077 2.88322C35.205 2.96808 35.0829 3.31608 35.3354 3.22608C35.5033 3.13723 35.3325 3.00965 35.3313 2.92308C35.3301 2.83651 35.4123 2.66222 35.5386 2.61722C35.6226 2.5728 35.7506 2.65766 35.878 2.69923C35.7547 2.96066 36.1757 2.8251 36.1821 3.30124C36.4341 3.16796 36.1393 3.25853 36.0952 3.12924C36.0947 3.08596 35.7159 3.22095 35.7159 3.22095C35.7588 3.26366 35.8439 3.30581 35.9285 3.30467C36.0559 3.34624 36.0987 3.38896 36.0582 3.51939C36.0588 3.56267 36.144 3.60482 36.1862 3.60425C36.2708 3.60311 36.3119 3.51596 36.1821 3.30124ZM47.7196 5.91639L47.719 5.8731C47.6767 5.87367 47.6344 5.87424 47.635 5.91753C47.635 5.91753 47.6356 5.96081 47.6362 6.0041C47.6785 6.00353 47.6779 5.96024 47.8024 5.78539C47.7601 5.78596 47.7607 5.82924 47.7184 5.82981C47.719 5.8731 47.7613 5.87253 47.7619 5.91582C47.8035 5.87196 47.8035 5.87196 47.8452 5.8281C47.8447 5.78482 47.8018 5.7421 47.7196 5.91639ZM103.66 5.50794C103.618 5.50851 103.618 5.55179 103.576 5.55236C103.577 5.59565 103.619 5.59508 103.62 5.63837C103.661 5.59451 103.661 5.59451 103.703 5.55065C103.703 5.55065 103.66 5.50794 103.578 5.68222L103.577 5.63894C103.535 5.63951 103.493 5.64008 103.493 5.68336C103.493 5.68336 103.494 5.72665 103.495 5.76994C103.494 5.72665 103.536 5.72608 103.66 5.50794ZM76.6593 7.04119C76.617 7.04177 76.6176 7.08505 76.5753 7.08562C76.5759 7.12891 76.6182 7.12834 76.6187 7.17162C76.6604 7.12777 76.6604 7.12777 76.7021 7.08391C76.7021 7.08391 76.6593 7.0412 76.577 7.21548L76.5765 7.17219C76.5342 7.17276 76.4919 7.17334 76.4925 7.21662C76.4925 7.21662 76.4931 7.25991 76.4937 7.30319C76.5354 7.25934 76.5348 7.21605 76.6593 7.04119ZM39.8708 7.14793C39.8285 7.1485 39.8291 7.19179 39.7868 7.19236C39.7874 7.23565 39.8296 7.23508 39.8302 7.27836C39.8719 7.23451 39.8719 7.2345 39.9136 7.19065C39.9136 7.19065 39.8708 7.14793 39.8314 7.36493C39.7457 7.2795 39.7457 7.2795 39.7457 7.2795C39.7034 7.28007 39.6188 7.28121 39.5765 7.28178C39.5771 7.32507 39.5777 7.36836 39.5777 7.36836C39.6206 7.41107 39.6623 7.36722 39.8708 7.14793ZM82.623 7.1339C82.5813 7.17776 82.5391 7.17833 82.4974 7.22219C82.5402 7.2649 82.5408 7.30819 82.5831 7.30762C82.6254 7.30705 82.7099 7.30591 82.7516 7.26205C82.7088 7.21933 82.6659 7.17662 82.3682 7.05075C82.3688 7.09404 82.4111 7.09347 82.4116 7.13676C82.4539 7.13618 82.4533 7.0929 82.4956 7.09233C82.4527 7.04961 82.4527 7.04961 82.4099 7.0069C82.4527 7.04961 82.4105 7.05018 82.623 7.1339ZM55.5092 3.43011C55.4675 3.47397 55.4258 3.51783 55.5144 3.81969C55.4287 3.73426 55.3853 3.64826 55.2995 3.56282C55.2584 3.64997 55.2173 3.73711 55.2191 3.86697C55.2197 3.91025 55.3048 3.9524 55.3899 3.99454C55.4322 3.99397 55.4733 3.90683 55.3847 3.60497C55.3835 3.5184 55.4252 3.47454 55.5092 3.43011C55.5937 3.42897 55.6783 3.42783 55.8897 3.42498C55.848 3.46884 55.8057 3.46941 55.764 3.51326C55.8069 3.55598 55.8075 3.59926 55.8498 3.59869C55.892 3.59812 55.9766 3.59698 56.0183 3.55313C55.9754 3.51041 55.9331 3.51098 55.7634 3.46998C55.7623 3.3834 55.7611 3.29683 55.7599 3.21026C55.676 3.25469 55.6343 3.29854 55.5503 3.34297C55.508 3.34354 55.5086 3.38683 55.5092 3.43011ZM41.1446 4.40322C41.2286 4.3588 41.2709 4.35823 41.3549 4.3138C41.312 4.27108 41.2691 4.22837 41.2268 4.22894C41.1423 4.23008 41.0583 4.27451 40.9738 4.27565C41.0166 4.31836 41.0589 4.31779 41.6056 4.09395C41.5216 4.13837 41.4794 4.13894 41.3954 4.18337C41.4382 4.22609 41.4811 4.2688 41.5234 4.26823C41.6079 4.26709 41.6919 4.22266 41.7765 4.22152C41.7336 4.17881 41.6913 4.17938 41.1446 4.40322ZM89.2259 4.44717L89.2253 4.40389C89.183 4.40446 89.1407 4.40503 89.1413 4.44831C89.1413 4.44831 89.1419 4.4916 89.1425 4.53488C89.1848 4.53431 89.1842 4.49103 89.4772 4.2706C89.3933 4.31503 89.351 4.3156 89.267 4.36003C89.3099 4.40274 89.3527 4.44546 89.395 4.44489C89.4796 4.44375 89.5635 4.39932 89.6481 4.39818C89.6047 4.31218 89.5618 4.26946 89.2259 4.44717ZM19.7214 2.48429C19.6785 2.44158 19.6779 2.39829 19.6356 2.39886C19.5505 2.35672 19.4236 2.35843 19.426 2.53157C19.4266 2.57486 19.4694 2.61757 19.47 2.66086C19.554 2.61643 19.638 2.57201 19.9298 2.26501C19.8459 2.30944 19.8036 2.31001 19.7196 2.35443C19.7625 2.39715 19.8053 2.43987 19.8476 2.4393C19.9322 2.43815 20.0161 2.39373 20.1007 2.39259C20.0578 2.34987 20.0156 2.35044 19.7214 2.48429ZM47.6533 4.14223C47.5682 4.10008 47.5253 4.05737 47.4831 4.05794C47.4408 4.05851 47.3991 4.10236 47.3568 4.10293C47.4003 4.18894 47.4431 4.23165 47.5288 4.31708C47.5705 4.27323 47.6122 4.22937 47.9857 3.7048C47.816 3.6638 47.607 3.83979 47.6516 4.01237C47.6522 4.05565 47.695 4.09837 47.695 4.09837C47.8213 4.05337 47.9053 4.00895 48.0309 3.92066C48.0732 3.92009 48.0721 3.83352 48.0715 3.79023C48.0286 3.74752 47.9857 3.7048 47.6533 4.14223ZM70.7068 4.65375C70.6646 4.65432 70.6651 4.69761 70.6229 4.69818C70.6234 4.74147 70.6657 4.7409 70.6663 4.78418C70.708 4.74033 70.708 4.74033 70.7497 4.69647C70.7497 4.69647 70.7068 4.65375 70.6252 4.87133C70.5817 4.78532 70.5389 4.74261 70.4954 4.65661C70.4526 4.61389 70.5348 4.43961 70.4091 4.52789C70.3252 4.57232 70.2846 4.70274 70.2435 4.78989C70.3715 4.87475 70.4572 4.96018 70.5847 5.00175C70.5418 4.95904 70.5841 4.95847 70.7068 4.65375ZM45.9047 3.04018C45.8624 3.04075 45.863 3.08403 45.8207 3.0846C45.8213 3.12789 45.8636 3.12732 45.8642 3.17061C45.9059 3.12675 45.9059 3.12675 45.9476 3.08289C45.9476 3.08289 45.9047 3.04018 45.9511 3.34261C45.7373 3.17232 45.651 3.0436 45.5659 3.00145C45.4813 3.0026 45.3979 3.09031 45.3145 3.17802C45.4425 3.26288 45.5706 3.34774 45.7408 3.43203C45.6991 3.47589 45.7825 3.38818 45.9047 3.04018ZM27.2274 7.18865C27.312 7.18751 27.3542 7.18693 27.4394 7.22908C27.6942 7.31223 27.861 7.1368 28.0284 7.00466C28.0701 6.96081 28.0266 6.8748 27.9838 6.83209C27.9832 6.7888 27.8992 6.83323 27.8563 6.79051C27.8193 7.18066 27.6056 7.01037 27.3936 6.96993C27.3085 6.92779 27.1816 6.9295 27.0976 6.97393C27.0131 6.97507 26.9726 7.1055 26.9309 7.14935C26.9737 7.19207 27.0583 7.19093 27.1011 7.23364C27.1 7.14707 27.1423 7.1465 27.2274 7.18865ZM47.5822 5.13895C47.4536 5.0108 47.325 4.88265 47.2828 4.88322C47.1559 4.88494 46.9886 5.01708 46.8629 5.10536L46.8635 5.14865C46.9915 5.23351 47.1201 5.36165 47.2898 5.40266C47.332 5.40209 47.4566 5.22723 47.5822 5.13895ZM47.5189 3.58122C47.4766 3.58179 47.4338 3.53907 47.4338 3.53907C47.1824 3.71564 47.0967 3.63021 47.1355 3.36992C47.1748 3.15292 47.0063 3.19849 46.8795 3.2002C46.8372 3.20077 46.7955 3.24463 46.7538 3.28848C46.9669 3.41549 46.8865 3.71963 47.1836 3.80221C47.3527 3.79993 47.4796 3.79822 47.5189 3.58122ZM29.7597 3.69096C29.6752 3.6921 29.6329 3.69267 29.5483 3.69381C29.506 3.69438 29.4638 3.69495 29.4221 3.73881L29.4227 3.7821C29.4679 3.99796 29.8478 3.94954 29.7673 4.25368C29.8096 4.25311 29.8513 4.20925 29.8936 4.20868C29.9347 4.12154 30.0181 4.03383 30.0592 3.94668C30.0586 3.9034 30.0574 3.81682 30.0146 3.77411C29.9711 3.68811 29.8443 3.68982 29.7597 3.69096ZM48.2902 7.46727C48.0348 7.34083 47.9896 7.12497 47.9861 6.86526C47.9438 6.86583 47.9021 6.90968 47.8598 6.91025C47.6508 7.08625 47.8657 7.34312 47.784 7.56069C47.8263 7.56012 47.8686 7.55955 47.9109 7.55898C48.0377 7.55726 48.1217 7.51284 48.2902 7.46727ZM27.2095 2.72961C27.041 2.77518 26.8302 2.82131 26.5771 2.86802C26.7485 3.03889 26.9605 3.07932 27.1696 2.90332C27.1696 2.90332 27.2982 3.03147 27.3404 3.0309C27.3827 3.03033 27.4667 2.9859 27.4661 2.94262C27.4655 2.89933 27.4644 2.81276 27.4215 2.77004C27.4215 2.77004 27.3369 2.77118 27.2095 2.72961ZM54.1157 3.5788C54.1163 3.62208 54.1157 3.5788 54.1151 3.53551C54.1556 3.40508 54.1122 3.31908 53.9854 3.32079C53.8162 3.32307 53.8609 3.49565 53.862 3.58222C53.8632 3.66879 53.9066 3.75479 53.9918 3.79694C54.0347 3.83965 54.1192 3.83851 54.2044 3.88066C54.1603 3.75137 54.1597 3.70808 54.1157 3.5788ZM93.6148 3.78184C93.6154 3.82512 93.616 3.86841 93.616 3.86841C93.7857 3.90941 93.9554 3.95042 94.0822 3.94871C94.0816 3.90542 94.0805 3.81885 94.0382 3.81942C93.953 3.77727 93.825 3.69241 93.6982 3.69412C93.6982 3.69412 93.6571 3.78127 93.6148 3.78184ZM51.4591 4.13417C51.4174 4.17803 51.3751 4.1786 51.3757 4.22188C51.3352 4.35231 51.2941 4.43945 51.2535 4.56988C51.2541 4.61317 51.297 4.65589 51.2976 4.69917C51.3393 4.65531 51.3815 4.65474 51.381 4.61146C51.4215 4.48103 51.4626 4.39389 51.5031 4.26346C51.5025 4.22017 51.4597 4.17746 51.4591 4.13417ZM50.6897 6.6556C50.6039 6.57017 50.6022 6.44031 50.5599 6.44088C50.4325 6.39931 50.3491 6.48702 50.3931 6.61631C50.3943 6.70288 50.4371 6.7456 50.4806 6.8316C50.4794 6.74503 50.5634 6.7006 50.6897 6.6556ZM65.7044 3.72549C65.705 3.76878 65.7479 3.81149 65.749 3.89806C65.8324 3.81035 65.9158 3.72264 65.9563 3.59221C65.9563 3.59221 65.8706 3.50678 65.8277 3.46406C65.7855 3.46463 65.7432 3.4652 65.7015 3.50906C65.7444 3.55177 65.7032 3.63892 65.7044 3.72549ZM44.1153 5.18573C44.0319 5.27344 43.9056 5.31844 44.1176 5.35887C44.1599 5.3583 44.201 5.27116 44.2421 5.18402C44.2416 5.14073 44.2832 5.09687 44.2404 5.05416C44.1975 5.01144 44.1547 4.96873 44.1118 4.92601C44.0266 4.88386 43.9427 4.92829 44.029 5.05701C44.1141 5.09915 44.1147 5.14244 44.1153 5.18573ZM40.4588 3.71977C40.3326 3.76477 40.2909 3.80863 40.2492 3.85248C40.3349 3.93792 40.3783 4.02392 40.4635 4.06606C40.5058 4.06549 40.5475 4.02164 40.5891 3.97778C40.5457 3.89178 40.5023 3.80578 40.4588 3.71977ZM52.1782 7.28493L52.1788 7.32821C52.3479 7.32593 52.5176 7.36694 52.6444 7.36522C52.6439 7.32194 52.6433 7.27865 52.601 7.27922C52.5581 7.23651 52.473 7.19436 52.4307 7.19493C52.3462 7.19607 52.2628 7.28379 52.1782 7.28493ZM48.9644 7.285C48.9638 7.24171 48.9644 7.285 48.9227 7.32885C48.9233 7.37214 48.9238 7.41543 48.9667 7.45814C49.0519 7.50029 49.1787 7.49858 49.2632 7.49743C49.3055 7.49686 49.3044 7.41029 49.3455 7.32315C49.3032 7.32372 49.2603 7.281 49.2181 7.28157C49.1335 7.28272 49.0912 7.28329 48.9644 7.285ZM36.6472 3.29497C36.5627 3.29611 36.5627 3.29611 36.5204 3.29668C36.5221 3.42654 36.5239 3.5564 36.525 3.64297C36.5673 3.6424 36.6519 3.64126 36.6942 3.64069C36.6924 3.51083 36.649 3.42483 36.6472 3.29497ZM39.7768 6.4565C39.8626 6.54193 39.9483 6.62736 40.034 6.71279C40.0757 6.66893 40.0746 6.58236 40.074 6.53907C40.1145 6.40865 40.1133 6.32207 39.9442 6.32436C39.9019 6.32493 39.8608 6.41207 39.7768 6.4565ZM92.1971 5.27296C92.1108 5.14424 92.0674 5.05824 92.0257 5.1021C91.8994 5.1471 91.816 5.23481 91.6898 5.27981C91.7327 5.32252 91.8178 5.36467 91.8601 5.3641C91.9863 5.3191 92.0703 5.27467 92.1971 5.27296ZM75.4897 4.97887C75.404 4.89343 75.3605 4.80743 75.3182 4.808C75.2337 4.80914 75.1926 4.89629 75.1509 4.94014C75.1509 4.94014 75.1949 5.06943 75.2372 5.06886C75.3217 5.06772 75.4057 5.02329 75.4897 4.97887ZM44.3474 3.58072C44.4331 3.66615 44.476 3.70886 44.5611 3.75101C44.6034 3.75044 44.6451 3.70658 44.6868 3.66273C44.6439 3.62001 44.6005 3.53401 44.5576 3.49129C44.5147 3.44858 44.4736 3.53572 44.3474 3.58072ZM45.6243 7.33006C45.5386 7.24463 45.4951 7.15863 45.4528 7.1592C45.3683 7.16034 45.3266 7.2042 45.2855 7.29134C45.2855 7.29134 45.3295 7.42063 45.3718 7.42006C45.4563 7.41892 45.498 7.37506 45.6243 7.33006ZM99.1643 7.64671C99.0797 7.64785 98.9958 7.69228 98.9535 7.69285C98.9969 7.77885 99.0832 7.90757 99.1249 7.86371C99.2095 7.86257 99.2929 7.77486 99.3769 7.73043C99.25 7.73214 99.2072 7.68943 99.1643 7.64671ZM74.3846 4.56084C74.512 4.60241 74.5543 4.60184 74.6388 4.6007C74.6811 4.60013 74.7651 4.5557 74.8074 4.55513C74.7645 4.51242 74.7211 4.42641 74.6788 4.42698C74.6359 4.38427 74.5936 4.38484 74.5519 4.4287C74.5097 4.42927 74.468 4.47312 74.3846 4.56084ZM34.4044 6.31252C34.4901 6.39795 34.533 6.44066 34.6181 6.48281C34.6604 6.48224 34.7021 6.43838 34.7438 6.39452C34.701 6.35181 34.6575 6.26581 34.6146 6.22309C34.5724 6.22366 34.4884 6.26809 34.4044 6.31252ZM52.1823 7.58793C52.0989 7.67564 52.0572 7.7195 51.9738 7.80721L52.0173 7.89321C52.1435 7.84822 52.2275 7.80379 52.3537 7.75879C52.3109 7.71608 52.268 7.67336 52.1823 7.58793ZM39.4476 3.99318C39.4042 3.90718 39.3613 3.86446 39.3184 3.82175C39.2344 3.86618 39.1511 3.95389 39.1516 3.99718C39.1528 4.08375 39.238 4.12589 39.3237 4.21132C39.3225 4.12475 39.3642 4.0809 39.4476 3.99318ZM52.813 7.31966C52.8981 7.3618 52.941 7.40452 53.0261 7.44666C53.0684 7.44609 53.153 7.44495 53.1947 7.40109C53.1089 7.31566 52.9809 7.2308 52.8952 7.14537C52.8964 7.23194 52.8547 7.2758 52.813 7.31966ZM23.6219 6.37141C23.6648 6.41413 23.7083 6.50013 23.7088 6.54342C23.7505 6.49956 23.7494 6.41299 23.7488 6.3697C23.7476 6.28313 23.7048 6.24042 23.7036 6.15384C23.7042 6.19713 23.6631 6.28427 23.6219 6.37141ZM46.3261 6.06507C46.2827 5.97907 46.1975 5.93692 46.1541 5.85092C46.1124 5.89478 46.0713 5.98192 46.0718 6.02521C46.1147 6.06792 46.1998 6.11007 46.2427 6.15278C46.2844 6.10893 46.3261 6.06507 46.3261 6.06507ZM94.0198 5.59472C93.9764 5.50872 93.9758 5.46543 93.9752 5.42215C93.8912 5.46657 93.8079 5.55429 93.7239 5.59871C93.7667 5.64143 93.8096 5.68414 93.8096 5.68414C93.8936 5.63972 93.9353 5.59586 94.0198 5.59472ZM35.415 5.99582C35.3733 6.03968 35.3316 6.08353 35.2905 6.17068C35.2911 6.21396 35.2917 6.25725 35.3346 6.29997C35.4185 6.25554 35.5019 6.16782 35.5859 6.1234C35.5008 6.08125 35.5008 6.08125 35.415 5.99582ZM46.1243 3.64333C46.082 3.6439 46.0403 3.68776 46.0403 3.68776C46.0415 3.77433 46.0849 3.86033 46.1278 3.90305C46.1278 3.90305 46.254 3.85805 46.2963 3.85748C46.2106 3.77205 46.1677 3.72933 46.1243 3.64333ZM64.0097 3.48859C63.9663 3.40259 63.9657 3.3593 63.9651 3.31602C63.8811 3.36045 63.7977 3.44816 63.7138 3.49259C63.7566 3.5353 63.7995 3.57802 63.7995 3.57802C63.8835 3.53359 63.9252 3.48973 64.0097 3.48859ZM43.212 7.18944C43.1703 7.23329 43.1292 7.32044 43.1298 7.36372C43.1304 7.40701 43.1732 7.44972 43.1738 7.49301C43.2572 7.4053 43.2989 7.36144 43.3823 7.27373C43.3394 7.23101 43.2972 7.23158 43.212 7.18944ZM68.0701 6.68085C67.9016 6.72642 67.817 6.72756 67.7324 6.7287C67.7753 6.77142 67.8182 6.81414 67.8604 6.81356C67.945 6.81242 68.0296 6.81128 68.1141 6.81014C68.0713 6.76743 68.0707 6.72414 68.0701 6.68085ZM42.4477 3.82282C42.4054 3.82339 42.3637 3.86725 42.3637 3.86725C42.3649 3.95382 42.4083 4.03982 42.4512 4.08254C42.4512 4.08254 42.5775 4.03754 42.6197 4.03697C42.5769 3.99425 42.4911 3.90882 42.4477 3.82282ZM56.0175 6.62701C55.974 6.54101 55.9729 6.45444 55.9294 6.36843C55.8877 6.41229 55.846 6.45615 55.8472 6.54272C55.8484 6.62929 55.8918 6.71529 55.893 6.80186C55.9341 6.71472 55.9758 6.67087 56.0175 6.62701ZM37.3593 5.92629C37.2753 5.97072 37.2331 5.97129 37.1908 5.97186C37.2342 6.05786 37.32 6.14329 37.3634 6.2293C37.4051 6.18544 37.4468 6.14158 37.4468 6.14158C37.4456 6.05501 37.4022 5.96901 37.3593 5.92629ZM78.7546 5.62752C78.7111 5.54151 78.626 5.49937 78.5825 5.41337C78.5408 5.45722 78.4997 5.54437 78.5003 5.58765C78.5432 5.63037 78.6283 5.67251 78.6712 5.71523C78.6706 5.67194 78.7123 5.62809 78.7546 5.62752ZM32.049 7.25347C32.0919 7.29619 32.1348 7.3389 32.2199 7.38105C32.2622 7.38048 32.3045 7.37991 32.3461 7.33605C32.3027 7.25005 32.217 7.16462 32.1735 7.07861C32.1318 7.12247 32.0901 7.16633 32.049 7.25347ZM52.9395 4.15749C52.8561 4.2452 52.8144 4.28906 52.731 4.37677C52.7733 4.3762 52.8161 4.41892 52.8161 4.41892C52.8578 4.37506 52.9418 4.33063 52.9835 4.28678C52.9829 4.24349 52.9401 4.20078 52.9395 4.15749ZM83.2625 7.51492C83.2208 7.55878 83.1797 7.64592 83.1803 7.68921C83.1808 7.73249 83.2237 7.77521 83.2243 7.81849C83.3077 7.73078 83.3494 7.68692 83.4328 7.59921C83.3476 7.55707 83.3476 7.55707 83.2625 7.51492ZM52.7984 6.2375C52.8418 6.32351 52.843 6.41008 52.8864 6.49608C52.9281 6.45222 52.9698 6.40837 52.9687 6.32179C52.9675 6.23522 52.9241 6.14922 52.9229 6.06265C52.8395 6.15036 52.8401 6.19365 52.7984 6.2375ZM40.5449 6.96566C40.5026 6.96623 40.4609 7.01009 40.4609 7.01009C40.4621 7.09666 40.5055 7.18266 40.5484 7.22538C40.5484 7.22538 40.6746 7.18038 40.7169 7.17981C40.6735 7.09381 40.5883 7.05166 40.5449 6.96566ZM78.7327 7.1431C78.8185 7.22853 78.8613 7.27125 78.947 7.35668C78.9465 7.31339 78.9882 7.26954 78.9882 7.26954C78.9453 7.22682 78.9018 7.14082 78.859 7.0981C78.859 7.0981 78.775 7.14253 78.7327 7.1431ZM80.0842 3.87782C80.1276 3.96382 80.1282 4.0071 80.171 4.04982C80.2544 3.96211 80.2961 3.91825 80.3795 3.83054C80.3372 3.83111 80.2944 3.78839 80.2944 3.78839C80.2098 3.78953 80.1681 3.83339 80.0842 3.87782ZM97.4523 2.99406C97.4535 3.08063 97.4969 3.16663 97.4975 3.20992C97.5392 3.16606 97.5803 3.07892 97.5797 3.03564C97.5791 2.99235 97.578 2.90578 97.5774 2.86249C97.5357 2.90635 97.494 2.9502 97.4523 2.99406ZM44.9373 6.56004C45.0213 6.51562 45.0636 6.51505 45.1052 6.47119C45.0195 6.38576 44.9767 6.34304 44.8909 6.25761C44.8915 6.3009 44.8498 6.34475 44.8498 6.34475C44.8516 6.47461 44.8944 6.51733 44.9373 6.56004ZM66.8405 6.43768C66.8393 6.35111 66.7959 6.26511 66.7953 6.22182C66.7536 6.26568 66.7125 6.35282 66.7131 6.39611C66.7136 6.43939 66.7148 6.52596 66.7154 6.56925C66.7571 6.52539 66.7988 6.48154 66.8405 6.43768ZM79.5203 5.96354C79.606 6.04897 79.6489 6.09168 79.7346 6.17711C79.734 6.13383 79.7757 6.08997 79.7757 6.08997C79.7328 6.04726 79.6894 5.96125 79.6465 5.91854C79.6042 5.91911 79.5625 5.96297 79.5203 5.96354ZM51.2364 6.43176C51.1947 6.47561 51.153 6.51947 51.1536 6.56275C51.1542 6.60604 51.1976 6.69204 51.1982 6.73533C51.2399 6.69147 51.2822 6.6909 51.2816 6.64762C51.281 6.60433 51.2798 6.51776 51.2364 6.43176ZM51.651 5.82005C51.6522 5.90662 51.6105 5.95047 51.6111 5.99376C51.6111 5.99376 51.6539 6.03648 51.6962 6.03591C51.7379 5.99205 51.7367 5.90548 51.7361 5.86219C51.7367 5.90548 51.6939 5.86276 51.651 5.82005ZM53.6982 3.97408C53.6993 4.06065 53.6576 4.10451 53.6582 4.14779C53.6582 4.14779 53.7011 4.19051 53.7434 4.18994C53.7851 4.14608 53.7839 4.05951 53.7833 4.01622C53.8256 4.01565 53.7404 3.97351 53.6982 3.97408ZM55.6093 7.71487C55.5676 7.75872 55.5253 7.75929 55.4836 7.80315C55.5265 7.84586 55.5693 7.88858 55.6539 7.88744C55.6962 7.88687 55.7379 7.84301 55.7802 7.84244C55.6944 7.75701 55.6521 7.75758 55.6093 7.71487ZM55.6481 7.45458C55.6475 7.41129 55.6046 7.36858 55.6034 7.28201C55.5618 7.32586 55.5195 7.32643 55.52 7.36972C55.5206 7.413 55.5641 7.49901 55.5647 7.54229C55.6069 7.54172 55.6486 7.49787 55.6481 7.45458ZM55.8982 7.19144C55.8982 7.19144 55.8571 7.27858 55.8577 7.32187C55.9 7.3213 55.9428 7.36401 55.9428 7.36401C55.9851 7.36344 56.0268 7.31959 56.0685 7.27573C56.0257 7.23301 55.9834 7.23358 55.8982 7.19144ZM56.4662 5.40872C56.3399 5.45372 56.3399 5.45372 56.2977 5.45429C56.3405 5.49701 56.3834 5.53972 56.4257 5.53915C56.468 5.53858 56.5102 5.53801 56.5519 5.49415C56.4674 5.4953 56.4668 5.45201 56.4662 5.40872ZM57.0887 4.53444C57.0887 4.53444 57.0476 4.62159 57.0482 4.66487C57.0905 4.6643 57.1333 4.70702 57.1333 4.70702C57.1756 4.70645 57.2173 4.66259 57.259 4.61873C57.2167 4.6193 57.1739 4.57659 57.0887 4.53444ZM57.8311 3.13902C57.8728 3.09516 57.915 3.09459 57.9567 3.05074C57.9139 3.00802 57.871 2.96531 57.7864 2.96645C57.7442 2.96702 57.7025 3.01087 57.6602 3.01144C57.7453 3.05359 57.7882 3.0963 57.8311 3.13902ZM58.4676 3.30361C58.4253 3.30418 58.3836 3.34803 58.2991 3.34918C58.3419 3.39189 58.3425 3.43518 58.3848 3.43461C58.4271 3.43404 58.511 3.38961 58.5533 3.38904C58.5527 3.34575 58.5104 3.34632 58.4676 3.30361ZM58.1373 7.03135C58.1802 7.07406 58.1813 7.16063 58.1813 7.16063C58.2236 7.16006 58.3082 7.15892 58.3499 7.11507C58.3493 7.07178 58.3064 7.02906 58.3064 7.02906C58.2641 7.02963 58.2219 7.03021 58.1373 7.03135ZM58.4828 4.42905C58.5256 4.47176 58.5268 4.55833 58.5268 4.55833C58.5691 4.55776 58.6536 4.55662 58.6953 4.51277C58.6948 4.46948 58.6519 4.42676 58.6519 4.42676C58.6519 4.42676 58.5673 4.4279 58.4828 4.42905ZM20.7621 7.53565C20.8038 7.49179 20.8461 7.49122 20.8878 7.44736C20.8449 7.40465 20.8021 7.36193 20.7175 7.36307C20.6752 7.36364 20.6335 7.4075 20.5912 7.40807C20.6341 7.45078 20.7193 7.49293 20.7621 7.53565ZM21.2948 6.27293C21.1686 6.31793 21.1686 6.31793 21.1263 6.3185C21.1691 6.36122 21.212 6.40393 21.2543 6.40336C21.2966 6.40279 21.3388 6.40222 21.3805 6.35836C21.3383 6.35893 21.2954 6.31622 21.2948 6.27293ZM59.8696 6.92138C59.8273 6.92195 59.785 6.92253 59.785 6.92253C59.7856 6.96581 59.7868 7.05238 59.7874 7.09567L59.8719 7.09453C59.8713 7.05124 59.8708 7.00796 59.8696 6.92138ZM23.6233 3.34082C23.6233 3.34082 23.5822 3.42796 23.5828 3.47125C23.6251 3.47068 23.668 3.51339 23.668 3.51339C23.7102 3.51282 23.7519 3.46896 23.7936 3.42511C23.7513 3.42568 23.7085 3.38296 23.6233 3.34082ZM73.266 3.14723C73.266 3.14723 73.3512 3.18937 73.3935 3.1888C73.3929 3.14552 73.4346 3.10166 73.4346 3.10166C73.434 3.05837 73.3911 3.01566 73.3483 2.97294C73.3488 3.01623 73.3494 3.05951 73.266 3.14723ZM25.7613 5.08702C25.7196 5.13088 25.6779 5.17474 25.6785 5.21802C25.679 5.26131 25.7225 5.34731 25.7231 5.3906C25.7648 5.34674 25.8071 5.34617 25.8065 5.30288C25.8053 5.21631 25.7619 5.13031 25.7613 5.08702ZM25.9697 4.86774C26.0126 4.91046 26.0138 4.99703 26.0138 4.99703C26.0561 4.99646 26.1406 4.99532 26.1823 4.95146C26.1817 4.90817 26.1389 4.86546 26.1389 4.86546C26.0966 4.86603 26.0543 4.8666 25.9697 4.86774ZM74.2053 6.94442C74.2482 6.98714 74.2493 7.07371 74.2493 7.07371C74.2916 7.07314 74.3762 7.072 74.4179 7.02814C74.4173 6.98486 74.3744 6.94214 74.3744 6.94214C74.3321 6.94271 74.2476 6.94385 74.2053 6.94442ZM27.0483 6.45506C27.0478 6.41178 27.0049 6.36906 27.0037 6.28249C26.962 6.32635 26.9198 6.32692 26.9203 6.3702C26.9209 6.41349 26.9644 6.49949 26.965 6.54278C26.965 6.54278 27.0072 6.54221 27.0483 6.45506ZM79.1538 7.00754C79.1966 7.05025 79.1978 7.13682 79.1978 7.13682C79.2401 7.13625 79.3246 7.13511 79.3663 7.09126C79.3658 7.04797 79.3229 7.00525 79.3229 7.00525C79.3229 7.00525 79.2383 7.0064 79.1538 7.00754ZM82.7201 4.9246C82.7201 4.9246 82.8052 4.96675 82.8475 4.96617C82.8469 4.92289 82.8886 4.87903 82.8886 4.87903C82.888 4.83575 82.8452 4.79303 82.8023 4.75031C82.76 4.75089 82.7606 4.79417 82.7201 4.9246ZM83.2849 6.04262C83.3278 6.08534 83.3289 6.17191 83.3289 6.17191C83.3712 6.17134 83.4558 6.1702 83.4975 6.12634C83.4969 6.08306 83.454 6.04034 83.454 6.04034C83.4534 5.99705 83.3695 6.04148 83.2849 6.04262ZM86.6698 3.05296C86.7127 3.09568 86.7556 3.13839 86.7979 3.13782C86.8401 3.13725 86.9241 3.09282 86.9664 3.09225C86.9235 3.04954 86.9229 3.00625 86.8807 3.00682C86.7967 3.05125 86.7121 3.05239 86.6698 3.05296ZM33.5197 3.42376C33.4757 3.29447 33.4757 3.29447 33.4751 3.25118C33.4334 3.29504 33.3917 3.3389 33.3923 3.38218C33.3929 3.42547 33.3934 3.46875 33.4363 3.51147C33.478 3.46761 33.5197 3.42376 33.5197 3.42376ZM34.1093 3.24263C33.983 3.28762 33.983 3.28762 33.9407 3.28819C33.9836 3.33091 34.0265 3.37362 34.0687 3.37305C34.111 3.37248 34.1533 3.37191 34.195 3.32806C34.1527 3.32863 34.1521 3.28534 34.1093 3.24263ZM35.2089 6.38825C35.2089 6.38825 35.1678 6.47539 35.1684 6.51868C35.2107 6.51811 35.2535 6.56082 35.2535 6.56082C35.2958 6.56025 35.3375 6.5164 35.3792 6.47254C35.3369 6.47311 35.294 6.43039 35.2089 6.38825ZM95.9545 7.94978C95.954 7.9065 95.9111 7.86378 95.9099 7.77721C95.8682 7.82107 95.826 7.82164 95.8265 7.86492C95.8271 7.90821 95.8706 7.99421 95.8712 8.0375C95.8712 8.0375 95.9129 7.99364 95.9545 7.94978ZM96.8333 4.12806C96.791 4.12863 96.7493 4.17248 96.6648 4.17362C96.7076 4.21634 96.7082 4.25963 96.7505 4.25906C96.7928 4.25849 96.8767 4.21406 96.919 4.21349C96.919 4.21349 96.8762 4.17077 96.8333 4.12806ZM99.7545 7.50887C99.6699 7.51001 99.627 7.46729 99.5848 7.46786C99.5848 7.46786 99.5431 7.51172 99.5436 7.555C99.5865 7.59772 99.6711 7.59658 99.7133 7.59601C99.6711 7.59658 99.7128 7.55272 99.7545 7.50887ZM102.88 7.25022C102.796 7.25136 102.753 7.20865 102.711 7.20922C102.711 7.20922 102.669 7.25307 102.669 7.29636C102.712 7.33907 102.797 7.33793 102.839 7.33736C102.797 7.33793 102.839 7.29408 102.88 7.25022ZM103.499 6.07294C103.414 6.07408 103.371 6.03136 103.329 6.03193C103.329 6.03193 103.287 6.07579 103.288 6.11908C103.331 6.16179 103.415 6.16065 103.458 6.16008C103.458 6.16008 103.499 6.11622 103.499 6.07294ZM37.2424 6.66387C37.1578 6.66501 37.115 6.62229 37.0727 6.62286C37.0727 6.62286 37.031 6.66672 37.0316 6.71001C37.0745 6.75272 37.159 6.75158 37.2013 6.75101C37.2013 6.75101 37.2007 6.70773 37.2424 6.66387ZM37.862 5.57316C37.8203 5.61702 37.7786 5.66087 37.7792 5.70416C37.7798 5.74744 37.8232 5.83345 37.8238 5.87673C37.8655 5.83288 37.9078 5.83231 37.9072 5.78902C37.8638 5.70302 37.8626 5.61645 37.862 5.57316ZM38.5472 6.21332C38.5484 6.2999 38.5067 6.34375 38.5073 6.38704C38.5073 6.38704 38.5502 6.42975 38.5924 6.42918C38.6341 6.38533 38.633 6.29875 38.6324 6.25547C38.6324 6.25547 38.5901 6.25604 38.5472 6.21332ZM39.1949 7.20035C39.1532 7.2442 39.1109 7.24477 39.0692 7.28863C39.1121 7.33135 39.1549 7.37406 39.2395 7.37292C39.2818 7.37235 39.3235 7.32849 39.3657 7.32792C39.3229 7.28521 39.2377 7.24306 39.1949 7.20035ZM131.604 8.07488C131.478 8.11988 131.478 8.11988 131.436 8.12045C131.479 8.16316 131.522 8.20588 131.564 8.20531C131.606 8.20474 131.648 8.20417 131.69 8.16031C131.605 8.11817 131.604 8.07488 131.604 8.07488ZM40.6638 3.24077C40.5792 3.24192 40.5364 3.1992 40.4941 3.19977C40.4941 3.19977 40.4524 3.24363 40.453 3.28691C40.4958 3.32963 40.5804 3.32849 40.6227 3.32792C40.6233 3.3712 40.6227 3.32792 40.6638 3.24077ZM138.534 7.67832C138.493 7.72218 138.408 7.72332 138.408 7.72332C138.409 7.7666 138.41 7.85317 138.453 7.89589C138.495 7.89532 138.537 7.85146 138.537 7.85146C138.536 7.80818 138.535 7.7216 138.534 7.67832ZM40.4087 6.27479C40.4504 6.23094 40.4927 6.23037 40.5344 6.18651C40.4915 6.1438 40.4486 6.10108 40.3641 6.10222C40.3218 6.10279 40.2801 6.14665 40.2378 6.14722C40.323 6.18936 40.3658 6.23208 40.4087 6.27479ZM42.1401 2.96109C42.0984 3.00495 42.0567 3.0488 42.0573 3.09209C42.0578 3.13538 42.1013 3.22138 42.1019 3.26466C42.1436 3.22081 42.1858 3.22024 42.1853 3.17695C42.1841 3.09038 42.1406 3.00438 42.1401 2.96109ZM42.2349 6.85627C42.1503 6.85741 42.1075 6.81469 42.0652 6.81527C42.0652 6.81527 42.0235 6.85912 42.0241 6.90241C42.067 6.94512 42.1515 6.94398 42.1938 6.94341C42.1515 6.94398 42.1932 6.90013 42.2349 6.85627ZM43.4665 4.11213C43.4225 3.98284 43.4225 3.98284 43.4219 3.93956C43.3802 3.98341 43.3385 4.02727 43.3391 4.07056C43.3397 4.11384 43.3402 4.15713 43.3831 4.19984C43.3825 4.15656 43.4242 4.1127 43.4665 4.11213ZM44.0132 3.88828C43.9692 3.759 43.9692 3.759 43.9686 3.71571C43.9269 3.75957 43.8852 3.80342 43.8858 3.84671C43.8864 3.89 43.887 3.93328 43.9298 3.976C43.9292 3.93271 43.9709 3.88886 44.0132 3.88828ZM44.6819 6.43361C44.5973 6.43475 44.5544 6.39203 44.5122 6.3926C44.5122 6.3926 44.4705 6.43646 44.4711 6.47975C44.5139 6.52246 44.5985 6.52132 44.6408 6.52075C44.6408 6.52075 44.6402 6.47746 44.6819 6.43361ZM47.3878 6.3971C47.3032 6.39824 47.2603 6.35552 47.2181 6.35609C47.2181 6.35609 47.1764 6.39995 47.1769 6.44324C47.2198 6.48595 47.3044 6.48481 47.3466 6.48424C47.3466 6.48424 47.3461 6.44095 47.3878 6.3971ZM18.8896 6.65174C18.8473 6.65231 18.8479 6.69559 18.8056 6.69617L18.8484 6.73888C18.8907 6.73831 18.8907 6.73831 18.9324 6.69445C18.8901 6.69502 18.8896 6.65174 18.8896 6.65174ZM23.4674 7.45585C23.5097 7.45528 23.5091 7.41199 23.5514 7.41142L23.5085 7.36871C23.4663 7.36928 23.4663 7.36928 23.4246 7.41313C23.4252 7.45642 23.4674 7.45585 23.4674 7.45585ZM23.9526 5.80413L23.9097 5.76142C23.9103 5.8047 23.868 5.80527 23.8686 5.84856L23.9115 5.89127C23.9109 5.84799 23.9526 5.80413 23.9526 5.80413ZM24.5233 7.35501C24.5238 7.3983 24.5661 7.39773 24.5667 7.44102L24.6084 7.39716C24.6078 7.35387 24.6078 7.35387 24.5649 7.31116C24.5655 7.35444 24.5655 7.35444 24.5233 7.35501ZM25.1951 6.9996L25.1522 6.95688C25.1528 7.00017 25.1105 7.00074 25.1111 7.04403L25.1539 7.08674C25.1539 7.08674 25.1956 7.04288 25.1951 6.9996ZM25.3589 6.60774C25.3166 6.60831 25.3172 6.6516 25.2749 6.65217L25.3178 6.69488C25.3601 6.69431 25.3601 6.69431 25.4018 6.65046C25.3589 6.60774 25.3589 6.60774 25.3589 6.60774ZM25.4904 6.95232L25.5333 6.99503C25.5756 6.99446 25.5756 6.99446 25.6173 6.95061L25.5744 6.90789C25.5744 6.90789 25.5321 6.90846 25.4904 6.95232ZM25.6861 5.78074C25.6438 5.78131 25.6444 5.8246 25.6021 5.82517L25.6449 5.86788C25.6872 5.86731 25.6872 5.86731 25.7289 5.82346C25.7289 5.82346 25.6866 5.82403 25.6861 5.78074ZM26.2515 6.94205L26.2098 6.98591C26.2103 7.02919 26.2103 7.02919 26.2532 7.07191L26.2949 7.02805C26.252 6.98534 26.252 6.98534 26.2515 6.94205ZM26.5116 7.41477L26.4687 7.37206C26.4693 7.41535 26.427 7.41592 26.4276 7.4592L26.4705 7.50192C26.4699 7.45863 26.5121 7.45806 26.5116 7.41477ZM28.1438 3.02006L28.1009 2.97734C28.1015 3.02063 28.0592 3.0212 28.0598 3.06449L28.1026 3.1072C28.1021 3.06392 28.1021 3.06392 28.1438 3.02006ZM28.4954 4.01108L28.4537 4.05493C28.496 4.05436 28.4966 4.09765 28.5389 4.09708L28.5806 4.05322C28.5806 4.05322 28.5377 4.01051 28.4954 4.01108ZM32.7651 3.91017L32.7222 3.86746C32.7228 3.91074 32.6805 3.91131 32.6811 3.9546L32.724 3.99731C32.7234 3.95403 32.7651 3.91017 32.7651 3.91017ZM33.0028 5.85519L32.9599 5.81248C32.9605 5.85576 32.9182 5.85634 32.9188 5.89962L32.9617 5.94234C32.9611 5.89905 32.9605 5.85576 33.0028 5.85519ZM33.3157 7.1065C33.3162 7.14978 33.3585 7.14921 33.3591 7.1925L33.4008 7.14864C33.4002 7.10536 33.4002 7.10536 33.3574 7.06264C33.3579 7.10593 33.3579 7.10593 33.3157 7.1065ZM33.7186 5.62907C33.7192 5.67235 33.7615 5.67178 33.762 5.71507L33.8037 5.67121C33.8032 5.62792 33.8032 5.62792 33.7603 5.58521C33.7609 5.6285 33.7609 5.6285 33.7186 5.62907ZM33.9921 7.09737L34.035 7.14009C34.0344 7.0968 34.0767 7.09623 34.0761 7.05294L34.0332 7.01023C34.0338 7.05351 34.0338 7.05351 33.9921 7.09737ZM34.5584 5.1848L34.6012 5.22751C34.6435 5.22694 34.6435 5.22694 34.6852 5.18308L34.6423 5.14037C34.6423 5.14037 34.6006 5.18422 34.5584 5.1848ZM36.0352 4.9484C36.0346 4.90511 35.9924 4.90568 35.9918 4.8624L35.9501 4.90625C35.9507 4.94954 35.9507 4.94954 35.9935 4.99225L36.0352 4.9484ZM36.2326 3.90668L36.2743 3.86282C36.232 3.86339 36.2314 3.82011 36.1891 3.82068L36.1475 3.86453C36.1897 3.86396 36.232 3.86339 36.2326 3.90668ZM36.4749 6.19799L36.4321 6.15527C36.4327 6.19856 36.3904 6.19913 36.391 6.24242L36.4338 6.28513C36.4333 6.24185 36.4327 6.19856 36.4749 6.19799ZM37.1275 4.41413L37.0858 4.45799C37.1281 4.45742 37.1286 4.5007 37.1709 4.50013L37.2126 4.45628C37.1703 4.45685 37.1281 4.45742 37.1275 4.41413ZM38.1122 5.31002L38.0705 5.35388C38.0711 5.39716 38.0711 5.39716 38.1139 5.43988L38.1556 5.39602C38.1556 5.39602 38.1128 5.35331 38.1122 5.31002ZM38.2618 6.99647L38.3035 6.95261C38.2612 6.95318 38.2606 6.90989 38.2183 6.91046L38.1766 6.95432C38.2189 6.95375 38.2189 6.95375 38.2618 6.99647ZM27.1688 5.97721L27.1259 5.93449C27.1265 5.97778 27.0842 5.97835 27.0848 6.02163L27.1276 6.06435C27.1693 6.02049 27.1688 5.97721 27.1688 5.97721ZM39.7847 3.90205L39.7418 3.85933C39.7424 3.90262 39.7001 3.90319 39.7007 3.94647L39.7436 3.98919C39.743 3.9459 39.7847 3.90205 39.7847 3.90205ZM41.0125 4.01536L41.0554 4.05808C41.0977 4.05751 41.0977 4.05751 41.1394 4.01365L41.0965 3.97093C41.0548 4.01479 41.0548 4.01479 41.0125 4.01536ZM41.4745 6.90982L41.4328 6.95368C41.475 6.95311 41.4756 6.9964 41.5179 6.99583L41.5596 6.95197C41.5173 6.95254 41.475 6.95311 41.4745 6.90982ZM41.8503 6.5584C41.8509 6.60169 41.8932 6.60112 41.8937 6.6444L41.9354 6.60055C41.9349 6.55726 41.9349 6.55726 41.892 6.51454C41.8926 6.55783 41.8926 6.55783 41.8503 6.5584ZM42.2328 3.56596L42.1899 3.52324C42.1905 3.56653 42.1482 3.5671 42.1488 3.61038L42.1917 3.6531C42.1911 3.60981 42.2334 3.60924 42.2328 3.56596ZM42.3538 3.13138L42.3121 3.17524C42.3544 3.17467 42.355 3.21796 42.3972 3.21739L42.4389 3.17353C42.3967 3.1741 42.3967 3.1741 42.3538 3.13138ZM42.7737 2.90925L42.732 2.9531C42.7743 2.95253 42.7748 2.99582 42.8171 2.99525L42.8588 2.95139C42.8165 2.95196 42.816 2.90868 42.7737 2.90925ZM43.0314 3.20883L42.9897 3.25268C43.032 3.25211 43.0326 3.2954 43.0749 3.29483L43.1166 3.25097C43.0743 3.25154 43.0314 3.20883 43.0314 3.20883ZM75.9297 3.11129L75.888 3.15514C75.9302 3.15457 75.9308 3.19786 75.9731 3.19729L76.0148 3.15343C75.9725 3.154 75.9719 3.11072 75.9297 3.11129ZM77.1608 6.60149L77.2037 6.6442C77.2459 6.64363 77.2459 6.64363 77.2876 6.59978L77.2448 6.55706C77.2448 6.55706 77.2025 6.55763 77.1608 6.60149ZM61.4272 3.26367C61.4266 3.22039 61.3843 3.22096 61.3837 3.17767L61.342 3.22153C61.3426 3.26482 61.3426 3.26482 61.3855 3.30753C61.3855 3.30753 61.3855 3.30753 61.4272 3.26367ZM78.0939 6.80537L78.051 6.76265C78.0516 6.80594 78.0093 6.80651 78.0099 6.8498L78.0527 6.89251C78.0522 6.84922 78.0516 6.80594 78.0939 6.80537ZM78.6802 3.24735L78.6373 3.20464C78.6379 3.24792 78.5956 3.24849 78.5962 3.29178L78.639 3.33449C78.6385 3.29121 78.6808 3.29064 78.6802 3.24735ZM80.4183 3.57025L80.3754 3.52754C80.376 3.57082 80.3337 3.57139 80.3343 3.61468L80.3772 3.65739C80.3766 3.61411 80.376 3.57082 80.4183 3.57025ZM80.6796 4.12955C80.6802 4.17283 80.7224 4.17226 80.723 4.21555L80.7647 4.17169C80.7641 4.12841 80.7641 4.12841 80.7213 4.08569C80.6796 4.12955 80.6796 4.12955 80.6796 4.12955ZM80.7781 5.16727C80.7776 5.12399 80.7353 5.12456 80.7347 5.08127L80.693 5.12513C80.6936 5.16841 80.6936 5.16841 80.7365 5.21113C80.7781 5.16727 80.7781 5.16727 80.7781 5.16727ZM61.305 3.61167C61.3056 3.65496 61.3479 3.65439 61.3484 3.69768L61.3901 3.65382C61.3896 3.61053 61.3896 3.61053 61.3467 3.56782C61.305 3.61167 61.305 3.61167 61.305 3.61167ZM61.2062 5.69112L61.1633 5.6484C61.1639 5.69169 61.1216 5.69226 61.1222 5.73555L61.1651 5.77826C61.1645 5.73497 61.1645 5.73498 61.2062 5.69112ZM66.9445 4.74781L66.9017 4.7051C66.9022 4.74838 66.86 4.74895 66.8606 4.79224L66.9034 4.83495C66.9028 4.79167 66.9445 4.74781 66.9445 4.74781ZM67.0772 5.17896L67.1201 5.22168C67.1624 5.22111 67.1624 5.22111 67.2041 5.17725L67.1612 5.13453C67.1189 5.13511 67.0772 5.17896 67.0772 5.17896ZM63.7211 7.17247C63.6789 7.17304 63.6794 7.21633 63.6372 7.2169L63.68 7.25962C63.7223 7.25905 63.7223 7.25905 63.764 7.21519C63.7634 7.1719 63.7634 7.1719 63.7211 7.17247ZM61.9008 7.02386L61.9436 7.06658C61.9859 7.066 61.9859 7.066 62.0276 7.02215L61.9847 6.97943C61.9425 6.98 61.943 7.02329 61.9008 7.02386ZM51.4879 3.13802L51.5308 3.18073C51.5302 3.13745 51.5725 3.13688 51.5719 3.09359L51.5291 3.05088C51.5296 3.09416 51.5296 3.09416 51.4879 3.13802ZM88.6276 3.97901L88.6704 4.02173C88.7127 4.02116 88.7127 4.02116 88.7544 3.9773L88.7115 3.93458C88.6692 3.93516 88.627 3.93573 88.6276 3.97901ZM63.0749 3.15485L63.1178 3.19757C63.1172 3.15428 63.1595 3.15371 63.1589 3.11043L63.116 3.06771C63.1166 3.111 63.1166 3.111 63.0749 3.15485ZM88.8731 3.36958L88.9147 3.32573C88.8725 3.3263 88.8719 3.28301 88.8296 3.28358L88.7879 3.32744C88.8302 3.32687 88.8725 3.3263 88.8731 3.36958ZM89.0503 3.97331C89.0509 4.01659 89.0932 4.01602 89.0938 4.05931L89.1355 4.01545C89.1349 3.97217 89.1349 3.97217 89.092 3.92945C89.0503 3.97331 89.0503 3.97331 89.0503 3.97331ZM50.7896 4.66273C50.7902 4.70602 50.8325 4.70545 50.8331 4.74873L50.8748 4.70488C50.8742 4.66159 50.8742 4.66159 50.8313 4.61887C50.8319 4.66216 50.8319 4.66216 50.7896 4.66273ZM50.3904 3.28271L50.4333 3.32543C50.4327 3.28214 50.475 3.28157 50.4744 3.23828L50.4315 3.19557C50.4321 3.23885 50.4327 3.28214 50.3904 3.28271ZM91.2186 7.97039L91.2615 8.01311C91.2609 7.96982 91.3032 7.96925 91.3026 7.92596L91.2598 7.88325C91.2603 7.92653 91.2603 7.92653 91.2186 7.97039ZM91.9189 3.45837C91.9195 3.50165 91.9618 3.50108 91.9624 3.54437L92.0041 3.50051C92.0035 3.45723 92.0035 3.45723 91.9606 3.41451C91.9606 3.41451 91.9184 3.41508 91.9189 3.45837ZM92.1732 3.49823L92.2161 3.54095C92.2583 3.54038 92.2583 3.54038 92.3 3.49652L92.2572 3.4538C92.2149 3.45437 92.2149 3.45437 92.1732 3.49823ZM92.8284 5.04797C92.829 5.09126 92.8713 5.09069 92.8719 5.13397L92.9136 5.09012C92.913 5.04683 92.913 5.04683 92.8701 5.00412C92.8701 5.00412 92.8707 5.0474 92.8284 5.04797ZM93.0279 7.29657L93.0708 7.33928C93.1131 7.33871 93.113 7.33871 93.1547 7.29486L93.1119 7.25214C93.0696 7.25271 93.0702 7.296 93.0279 7.29657ZM93.4495 7.20429L93.4924 7.24701C93.5347 7.24644 93.5347 7.24644 93.5764 7.20258L93.5335 7.15986C93.4912 7.16044 93.4495 7.20429 93.4495 7.20429ZM94.1449 5.46315C94.1455 5.50644 94.1878 5.50586 94.1884 5.54915L94.2301 5.50529C94.2295 5.46201 94.2295 5.46201 94.1866 5.41929C94.1866 5.41929 94.1866 5.41929 94.1449 5.46315ZM48.4118 7.07598C48.4124 7.11927 48.4547 7.1187 48.4553 7.16198L48.497 7.11813C48.4964 7.07484 48.4964 7.07484 48.4535 7.03213C48.4535 7.03213 48.4541 7.07541 48.4118 7.07598ZM95.3597 7.74134C95.3174 7.74191 95.318 7.7852 95.2757 7.78577L95.3186 7.82848C95.3609 7.82791 95.3609 7.82791 95.4026 7.78405C95.4026 7.78405 95.3603 7.78463 95.3597 7.74134ZM48.7386 3.08853L48.6957 3.04581C48.6963 3.0891 48.654 3.08967 48.6546 3.13295L48.6975 3.17567C48.7398 3.1751 48.7392 3.13181 48.7386 3.08853ZM69.7527 2.89157L69.711 2.93543C69.7533 2.93486 69.7539 2.97815 69.7962 2.97758L69.8379 2.93372C69.7956 2.93429 69.7533 2.93486 69.7527 2.89157ZM97.0016 7.19966L96.9599 7.24351C97.0022 7.24294 97.0028 7.28623 97.0451 7.28566L97.0867 7.2418C97.0445 7.24237 97.0022 7.24294 97.0016 7.19966ZM48.3415 4.99882C48.3421 5.04211 48.3844 5.04154 48.385 5.08482L48.4266 5.04097C48.4261 4.99768 48.4261 4.99768 48.3832 4.95496C48.3832 4.95496 48.3838 4.99825 48.3415 4.99882ZM97.937 7.57668L97.8953 7.62054C97.8959 7.66382 97.8959 7.66382 97.9388 7.70654L97.9805 7.66268C97.9376 7.61997 97.937 7.57668 97.937 7.57668ZM99.184 2.84081L99.2257 2.79696C99.1834 2.79753 99.1828 2.75424 99.1406 2.75481L99.0989 2.79867C99.1412 2.7981 99.1412 2.7981 99.184 2.84081ZM48.2864 4.0471L48.3292 4.08981C48.3287 4.04653 48.3709 4.04596 48.3703 4.00267L48.3275 3.95995C48.3281 4.00324 48.3287 4.04653 48.2864 4.0471ZM99.9086 3.26398C99.9092 3.30726 99.9515 3.30669 99.9521 3.34998L99.9938 3.30612C99.9932 3.26283 99.9932 3.26283 99.9503 3.22012C99.908 3.22069 99.908 3.22069 99.9086 3.26398ZM100.894 7.32032L100.852 7.36417C100.853 7.40746 100.853 7.40746 100.895 7.45018L100.937 7.40632C100.937 7.36303 100.936 7.31975 100.894 7.32032ZM48.1942 3.48552L48.2371 3.52823C48.2794 3.52766 48.2794 3.52766 48.3211 3.48381L48.2782 3.44109C48.2782 3.44109 48.2365 3.48495 48.1942 3.48552ZM102.233 3.18931L102.192 3.23317C102.234 3.2326 102.235 3.27589 102.277 3.27532L102.319 3.23146C102.276 3.18874 102.233 3.18931 102.233 3.18931ZM103.333 6.33494C103.291 6.33551 103.291 6.37879 103.249 6.37936L103.292 6.42208C103.334 6.42151 103.334 6.42151 103.376 6.37765C103.333 6.33494 103.333 6.33494 103.333 6.33494ZM70.6098 6.86306L70.5681 6.90691C70.6104 6.90634 70.611 6.94963 70.6532 6.94906L70.6949 6.9052C70.6527 6.90577 70.6098 6.86306 70.6098 6.86306ZM104.732 6.57583L104.69 6.61968C104.732 6.61911 104.733 6.6624 104.775 6.66183L104.817 6.61797C104.775 6.61854 104.775 6.61854 104.732 6.57583ZM108.092 4.88532L108.135 4.92803C108.177 4.92746 108.177 4.92746 108.219 4.88361L108.176 4.84089C108.134 4.88475 108.092 4.88532 108.092 4.88532ZM108.523 5.52891L108.565 5.48505C108.523 5.48562 108.522 5.44233 108.48 5.4429L108.438 5.48676C108.438 5.48676 108.481 5.52948 108.523 5.52891ZM108.557 4.87904C108.515 4.87961 108.515 4.9229 108.473 4.92347L108.516 4.96619C108.558 4.96562 108.558 4.96562 108.6 4.92176C108.6 4.92176 108.6 4.92176 108.557 4.87904ZM109.545 2.91748L109.504 2.96133C109.504 3.00462 109.504 3.00462 109.547 3.04734L109.589 3.00348C109.588 2.96019 109.545 2.91748 109.545 2.91748ZM110.862 6.49311C110.82 6.49368 110.821 6.53697 110.778 6.53754L110.821 6.58025C110.863 6.57968 110.863 6.57968 110.905 6.53583C110.863 6.5364 110.863 6.5364 110.862 6.49311ZM110.932 5.40982C110.89 5.41039 110.891 5.45367 110.848 5.45424L110.891 5.49696C110.933 5.49639 110.933 5.49639 110.975 5.45253C110.975 5.45253 110.975 5.40925 110.932 5.40982ZM111.373 3.62881L111.415 3.58495C111.373 3.58552 111.372 3.54224 111.33 3.54281L111.288 3.58667C111.331 3.5861 111.373 3.58552 111.373 3.62881ZM114.713 3.58374C114.714 3.62703 114.756 3.62646 114.757 3.66974L114.799 3.62589C114.798 3.5826 114.798 3.5826 114.755 3.53989C114.713 3.54046 114.713 3.58374 114.713 3.58374ZM115.495 5.08849L115.538 5.1312C115.537 5.08792 115.58 5.08735 115.579 5.04406L115.536 5.00135C115.537 5.04463 115.537 5.04463 115.495 5.08849ZM72.1461 4.76422L72.1044 4.80807C72.105 4.85136 72.105 4.85136 72.1478 4.89407L72.1895 4.85022C72.1895 4.85022 72.1467 4.8075 72.1461 4.76422ZM116.674 7.8434L116.716 7.79954C116.673 7.80011 116.673 7.75682 116.63 7.75739L116.589 7.80125C116.589 7.80125 116.632 7.84397 116.674 7.8434ZM47.5257 7.21782L47.484 7.26168C47.4846 7.30496 47.4846 7.30496 47.5275 7.34768L47.5691 7.30382C47.5686 7.26054 47.5263 7.26111 47.5257 7.21782ZM62.1905 3.42655L62.1477 3.38383C62.1482 3.42712 62.106 3.42769 62.1066 3.47098L62.1494 3.51369C62.1917 3.51312 62.1911 3.46984 62.1905 3.42655ZM47.7227 3.01565L47.7656 3.05836C47.8079 3.05779 47.8079 3.05779 47.8496 3.01394L47.8067 2.97122C47.7644 2.97179 47.7227 3.01565 47.7227 3.01565ZM119.467 7.97889L119.508 7.93503C119.466 7.9356 119.466 7.89232 119.423 7.89289L119.382 7.93674C119.424 7.93617 119.467 7.97889 119.467 7.97889ZM47.0976 6.83395L47.1405 6.87667C47.1828 6.8761 47.1828 6.8761 47.2245 6.83224L47.1816 6.78952C47.1393 6.79009 47.0976 6.83395 47.0976 6.83395ZM73.0998 3.36594C73.0576 3.36651 73.0581 3.4098 73.0159 3.41037L73.0587 3.45308C73.101 3.45251 73.101 3.45251 73.1427 3.40866C73.1427 3.40866 73.1427 3.40866 73.0998 3.36594ZM47.1452 7.22296L47.1023 7.18024C47.1029 7.22353 47.0606 7.2241 47.0612 7.26738L47.1041 7.3101C47.1458 7.26624 47.1458 7.26624 47.1452 7.22296ZM64.474 6.5562L64.4311 6.51348C64.4317 6.55677 64.3894 6.55734 64.39 6.60063L64.4329 6.64334C64.4329 6.64334 64.4746 6.59949 64.474 6.5562ZM73.8116 2.83681C73.8539 2.83624 73.8533 2.79295 73.8956 2.79238L73.8527 2.74967C73.8104 2.75024 73.8104 2.75024 73.7687 2.79409C73.7687 2.79409 73.7693 2.83738 73.8116 2.83681ZM131.017 8.42915L131.059 8.3853C131.017 8.38587 131.016 8.34258 130.974 8.34315L130.932 8.38701C130.974 8.38644 131.017 8.38587 131.017 8.42915ZM133.338 4.93432C133.38 4.93375 133.38 4.89046 133.422 4.88989L133.379 4.84718C133.337 4.84775 133.337 4.84775 133.295 4.8916C133.295 4.8916 133.338 4.89103 133.338 4.93432ZM74.3219 3.04639L74.2802 3.09025C74.2807 3.13354 74.2807 3.13354 74.3236 3.17625L74.3653 3.1324C74.3653 3.1324 74.3647 3.08911 74.3219 3.04639ZM46.0019 7.1085C46.0025 7.15179 46.0447 7.15122 46.0453 7.1945L46.087 7.15065C46.0864 7.10736 46.0864 7.10736 46.0436 7.06464L46.0019 7.1085ZM45.8998 5.81106L45.8581 5.85491C45.8587 5.8982 45.8587 5.8982 45.9016 5.94092L45.9432 5.89706C45.9427 5.85377 45.9004 5.85434 45.8998 5.81106ZM139.537 6.75562L139.578 6.71176C139.536 6.71233 139.535 6.66905 139.493 6.66962L139.452 6.71347C139.494 6.7129 139.537 6.75562 139.537 6.75562ZM45.8263 6.63463C45.7841 6.63521 45.7846 6.67849 45.7424 6.67906L45.7852 6.72178C45.8275 6.72121 45.8275 6.72121 45.8692 6.67735C45.8692 6.67735 45.8692 6.67735 45.8263 6.63463ZM57.2865 6.65318C57.2442 6.65375 57.2448 6.69704 57.2025 6.69761L57.2453 6.74032C57.2876 6.73975 57.2876 6.73975 57.3293 6.6959C57.3293 6.6959 57.3293 6.6959 57.2865 6.65318ZM45.5598 5.68576L45.5169 5.64305C45.5175 5.68633 45.4752 5.6869 45.4758 5.73019L45.5187 5.77291C45.5181 5.72962 45.5181 5.72962 45.5598 5.68576ZM44.6489 7.12676L44.6918 7.16947C44.7341 7.1689 44.7341 7.1689 44.7758 7.12504L44.7329 7.08233C44.6912 7.12618 44.6489 7.12676 44.6489 7.12676ZM61.0986 7.12127L61.1415 7.16399C61.1409 7.1207 61.1832 7.12013 61.1826 7.07684L61.1397 7.03413C61.1397 7.03413 61.1403 7.07741 61.0986 7.12127ZM74.9155 3.16827L74.9584 3.21098C75.0007 3.21041 75.0007 3.21041 75.0424 3.16655L74.9995 3.12384C75.0001 3.16712 74.9578 3.16769 74.9155 3.16827ZM56.3245 7.44545L56.2817 7.40274C56.2823 7.44602 56.24 7.44659 56.2406 7.48988L56.2834 7.53259C56.2828 7.48931 56.2823 7.44602 56.3245 7.44545ZM75.3147 4.54829C75.2725 4.54886 75.273 4.59214 75.2308 4.59271L75.2736 4.63543C75.3159 4.63486 75.3159 4.63486 75.3576 4.591C75.3153 4.59157 75.3153 4.59157 75.3147 4.54829ZM44.0062 3.36885C44.0056 3.32557 43.9633 3.32614 43.9628 3.28285L43.9211 3.32671C43.9216 3.36999 43.9216 3.36999 43.9645 3.41271L44.0062 3.36885ZM43.6231 6.31801C43.6237 6.3613 43.666 6.36073 43.6666 6.40401L43.7083 6.36016C43.7077 6.31687 43.7077 6.31687 43.6648 6.27415C43.6654 6.31744 43.6654 6.31744 43.6231 6.31801ZM77.8959 7.8038C77.9382 7.80323 77.9799 7.75937 78.0216 7.71552C77.9787 7.6728 77.9353 7.5868 77.8924 7.54408C77.8501 7.54465 77.8084 7.58851 77.6822 7.63351C77.7679 7.71894 77.8113 7.80494 77.8959 7.8038ZM76.5036 8.03906C76.5459 8.03849 76.5887 8.0812 76.5887 8.0812C76.631 8.08063 76.6727 8.03677 76.7144 7.99292C76.6721 7.99349 76.6293 7.95077 76.5441 7.90863C76.587 7.95134 76.5453 7.9952 76.5036 8.03906ZM81.071 8.06402C81.0715 8.1073 81.0727 8.19388 81.1156 8.23659C81.1578 8.23602 81.1995 8.19217 81.1995 8.19217C81.199 8.14888 81.1978 8.06231 81.1966 7.97573C81.1549 8.01959 81.071 8.06402 81.071 8.06402ZM88.5127 8.0069C88.555 8.00633 88.5973 8.00576 88.6396 8.00519C88.5967 7.96247 88.5956 7.8759 88.5533 7.87647C88.511 7.87704 88.4264 7.87818 88.3425 7.92261C88.4276 7.96476 88.4705 8.00747 88.5127 8.0069ZM35.7344 7.72327C35.7766 7.7227 35.8612 7.72156 35.9029 7.6777C35.9023 7.63442 35.8594 7.5917 35.8594 7.5917C35.8172 7.59227 35.7326 7.59341 35.648 7.59455C35.7338 7.67999 35.7344 7.72327 35.7344 7.72327ZM36.833 7.66515C36.8753 7.66458 36.9599 7.66344 37.0016 7.61959C37.001 7.5763 36.9581 7.53358 36.9581 7.53358C36.9158 7.53415 36.8313 7.5353 36.7467 7.53644C36.7902 7.62244 36.833 7.66515 36.833 7.66515ZM23.8526 7.797C23.852 7.75372 23.8943 7.75315 23.8937 7.70986L23.8509 7.66715C23.8515 7.71043 23.8092 7.711 23.8098 7.75429C23.852 7.75372 23.8526 7.797 23.8526 7.797ZM35.1853 7.77397C35.2276 7.7734 35.2276 7.7734 35.2693 7.72955L35.2264 7.68683C35.1841 7.6874 35.1841 7.6874 35.1424 7.73126C35.1424 7.73126 35.143 7.77455 35.1853 7.77397ZM35.4384 7.72727C35.439 7.77055 35.439 7.77055 35.4818 7.81327L35.5235 7.76941C35.523 7.72612 35.523 7.72612 35.4801 7.68341C35.4384 7.72727 35.4384 7.72727 35.4384 7.72727ZM37.974 7.60646L38.0169 7.64918C38.0592 7.64861 38.0592 7.64861 38.1008 7.60475L38.058 7.56204C38.058 7.56204 38.0157 7.56261 37.974 7.60646ZM55.4501 8.45301L55.493 8.49573C55.5352 8.49516 55.5352 8.49516 55.5769 8.4513L55.5341 8.40858C55.4924 8.45244 55.4501 8.45301 55.4501 8.45301ZM79.7644 8.38471C79.8067 8.38413 79.8067 8.38413 79.8484 8.34028L79.8055 8.29756C79.7632 8.29813 79.7632 8.29813 79.7215 8.34199C79.7215 8.34199 79.7221 8.38528 79.7644 8.38471ZM52.9081 8.09767L52.9509 8.14038C52.9932 8.13981 52.9932 8.13981 53.0349 8.09595L52.992 8.05324C52.9498 8.05381 52.9498 8.05381 52.9081 8.09767ZM83.3703 2.9676C83.4126 2.96703 83.412 2.92374 83.4543 2.92317C83.4114 2.88046 83.4114 2.88046 83.3685 2.83774L83.3268 2.8816C83.3274 2.92488 83.3697 2.92431 83.3703 2.9676ZM84.0479 3.04504C84.0902 3.04447 84.0896 3.00119 84.1319 3.00062C84.089 2.9579 84.089 2.9579 84.0462 2.91518L84.0045 2.95904C84.0051 3.00233 84.0473 3.00176 84.0479 3.04504ZM90.2474 8.07008C90.248 8.11337 90.2486 8.15666 90.2908 8.15608C90.2908 8.15608 90.3331 8.15551 90.3754 8.15494C90.3748 8.11166 90.3325 8.11223 90.3319 8.06894C90.2897 8.06951 90.2897 8.06951 90.2474 8.07008ZM59.9253 7.91639L59.9682 7.95911C60.0105 7.95854 60.0105 7.95854 60.0521 7.91468L60.0093 7.87197C60.0099 7.91525 59.9676 7.91582 59.9253 7.91639ZM139.198 3.59973C139.24 3.59916 139.282 3.5553 139.324 3.55473C139.281 3.51201 139.239 3.4693 139.239 3.4693C139.239 3.4693 139.239 3.51259 139.198 3.59973ZM44.3518 7.04418C44.3489 6.82775 44.1809 6.9166 44.0958 6.87445C44.0964 6.91774 44.097 6.96103 44.0975 7.00431C44.1827 7.04646 44.2672 7.04532 44.3518 7.04418Z" fill="#FDB706"/>
</svg>
