<svg width="256" height="9" viewBox="0 0 256 9" fill="none" xmlns="http://www.w3.org/2000/svg">
<path d="M65.9161 2.70474C65.992 2.49196 66.223 2.36319 66.3777 2.40473C66.7642 2.44489 66.6857 2.23303 66.8399 2.18965C66.9949 2.27365 67.1499 2.35765 67.3048 2.44166C67.4596 2.48319 67.6915 2.52427 67.7685 2.48135C68.0767 2.35211 68.2315 2.39365 68.2327 2.60597C68.233 2.64843 68.4647 2.64705 68.5422 2.68905C68.5419 2.64658 68.5417 2.60412 68.5414 2.56166L68.4639 2.51966C68.3859 2.39273 68.3077 2.22334 68.3847 2.18042C68.8473 2.05026 68.6946 2.34842 68.8496 2.43242C68.9271 2.47443 69.0049 2.55889 69.0824 2.60089C69.1598 2.64289 69.2368 2.59997 69.3143 2.64197C69.3141 2.59951 69.3138 2.55704 69.3136 2.51458C69.3131 2.42965 69.2351 2.30273 69.3123 2.30227C69.5435 2.21596 69.6213 2.30042 69.7762 2.38442C69.9312 2.46842 70.0872 2.72228 70.2397 2.38165C70.9346 2.33504 71.6287 2.16103 72.3256 2.45412C72.5579 2.53766 72.5584 2.62258 72.7116 2.40935C72.8651 2.23857 73.406 2.2778 73.6392 2.53119C73.6392 2.53119 73.6392 2.53119 73.639 2.48873C73.5617 2.48919 73.4845 2.48966 73.4847 2.53212C73.4847 2.53212 73.485 2.57458 73.4852 2.61704C73.5625 2.61658 73.5622 2.57412 73.6392 2.53119C73.8697 2.3175 74.0239 2.27411 74.1779 2.18826C74.4861 2.05903 74.4098 2.22934 74.4873 2.27134C74.5651 2.35581 74.7968 2.35442 74.9515 2.39596C74.8748 2.48135 74.7981 2.56673 74.7211 2.60966C74.8756 2.60874 74.9528 2.60827 75.1073 2.60735C75.2618 2.60643 75.4932 2.56258 75.7249 2.5612C75.648 2.60412 75.571 2.64704 75.4942 2.73243C75.4942 2.73243 75.5722 2.85936 75.572 2.81689C75.7265 2.81597 75.8807 2.77259 76.1124 2.7712C76.0347 2.68674 75.8799 2.6452 75.7249 2.5612C75.5689 2.30734 75.337 2.26626 74.9515 2.39596C75.1035 1.97041 75.103 1.88549 75.7219 2.05164C76.1089 2.17672 76.6485 2.00364 77.036 2.21365C77.1135 2.25565 77.3449 2.2118 77.4994 2.21088C77.8849 2.08118 78.2713 2.12134 78.5038 2.24734C78.5813 2.28934 78.7358 2.28842 78.8902 2.28749C78.8902 2.28749 78.8897 2.20257 78.9667 2.15965C79.1207 2.0738 79.3519 1.98749 79.4291 1.98703C79.6611 2.0281 79.7391 2.15503 79.4309 2.28426C79.3539 2.32719 79.8959 2.53627 80.1271 2.44996C80.3583 2.36365 80.5892 2.23488 80.8987 2.31796C80.8987 2.31796 80.8987 2.31796 80.8215 2.31842C80.8217 2.36088 80.822 2.40334 80.8992 2.40288C80.8992 2.40288 80.9765 2.40242 81.0537 2.40196C81.0534 2.3595 80.9762 2.35996 80.8987 2.31796C80.8202 2.10611 81.0512 1.97733 81.2829 1.97595C81.8236 1.97272 82.441 1.8841 82.8292 2.22149C82.9847 2.39042 83.3691 2.09087 83.5251 2.34473C83.8328 2.13057 84.1423 2.21365 84.4515 2.25426C84.6832 2.25288 84.8366 2.0821 85.1466 2.25011C85.3016 2.33411 85.6088 2.03503 85.8418 2.24595C85.842 2.28842 85.9193 2.28795 85.9965 2.28749C86.5369 2.2418 87.4635 2.1938 88.005 2.31796C88.3144 2.40103 88.4692 2.44257 88.7771 2.27088C88.8541 2.22795 89.24 2.18318 89.3175 2.22518C89.705 2.43519 90.013 2.26349 90.2442 2.17718C90.7066 2.00456 90.7063 1.9621 91.0166 2.17257C91.2493 2.34103 91.4815 2.42457 91.867 2.29488C92.1774 2.54781 92.4081 2.37657 92.6393 2.29026C92.6393 2.29026 93.8744 2.15549 93.9519 2.19749C94.1069 2.28149 94.2616 2.32303 94.4928 2.23672C94.5698 2.1938 94.8015 2.19241 94.8788 2.19195C95.1885 2.31749 95.4212 2.48596 95.9611 2.35534C96.3471 2.31057 96.7338 2.39319 97.1972 2.39042C97.2745 2.38996 97.3514 2.34703 97.4287 2.34657C97.7374 2.30226 97.6586 2.04795 98.0446 2.00318C98.3535 2.00133 98.5095 2.25518 98.8175 2.08349C98.8945 2.04056 99.0492 2.0821 99.1267 2.1241C99.3587 2.16518 99.3607 2.50488 99.8229 2.2898C99.9771 2.24641 100.364 2.41396 100.674 2.45457C101.215 2.57873 101.832 2.44765 102.295 2.35995C102.758 2.27226 103.067 2.35534 103.453 2.31057C103.531 2.31011 103.531 2.35257 103.608 2.39457C103.531 2.39503 103.454 2.43796 103.377 2.43842C103.3 2.43888 103.222 2.43934 103.145 2.4398C103.068 2.44026 102.991 2.44072 102.913 2.44119C102.991 2.48319 102.991 2.52565 103.069 2.56765C103.146 2.60965 103.301 2.69365 103.456 2.73519C103.533 2.73473 103.765 2.69088 103.842 2.64796C103.918 2.56257 103.841 2.47811 103.917 2.39272C103.994 2.3498 104.071 2.26441 104.225 2.26349C105.075 2.21595 105.926 2.50811 106.852 2.29026C107.083 2.24641 106.622 2.67381 107.239 2.4578C107.47 2.37149 107.624 2.28564 107.778 2.19979C107.855 2.15687 108.087 2.24041 108.087 2.24041C108.089 2.53765 108.322 2.74858 108.478 3.00243C108.478 3.04489 108.402 3.08782 108.325 3.1732C108.325 3.21567 108.248 3.25859 108.248 3.25859C108.403 3.34259 108.943 3.2969 109.097 3.16859C109.251 3.04028 109.405 2.91197 109.018 2.78689C108.863 2.74535 108.631 2.66181 108.63 2.57688C108.552 2.49242 108.629 2.36457 108.706 2.27918C108.783 2.32118 108.938 2.36272 109.015 2.40472C109.093 2.40426 109.17 2.44626 109.247 2.40334C110.096 2.22841 110.869 2.39364 111.719 2.38857C112.259 2.38534 112.8 2.33964 113.34 2.25149C113.649 2.20718 113.726 2.16425 113.804 2.37611C113.883 2.58796 114.191 2.54365 114.423 2.4998C114.577 2.45641 114.113 2.3318 114.422 2.28749C114.576 2.2441 114.808 2.32764 115.04 2.32626C115.426 2.32395 115.889 2.19379 116.121 2.27733C116.508 2.40241 116.816 2.23072 117.202 2.27087C117.743 2.3101 118.052 2.30826 118.285 2.47672C118.44 2.56072 118.518 2.64519 118.673 2.72919C118.75 2.77119 118.905 2.77027 118.982 2.76981C119.059 2.72688 119.135 2.6415 119.058 2.59949C118.98 2.51503 118.748 2.43149 119.056 2.34472C119.519 2.25702 120.059 2.08394 120.446 2.20902C120.678 2.29256 120.832 2.24918 120.987 2.20579C121.373 2.20348 121.219 2.37426 121.22 2.50165C121.143 2.54457 121.066 2.58749 120.912 2.67334C120.912 2.67334 120.912 2.67334 120.912 2.63088C120.835 2.63134 120.758 2.6318 120.758 2.67427C120.758 2.67427 120.758 2.71673 120.758 2.75919C120.836 2.75873 120.835 2.71627 120.912 2.67334C120.989 2.58796 121.066 2.54503 121.22 2.50165C121.375 2.50072 121.529 2.54226 121.606 2.49934C122.3 2.24041 122.3 2.24041 123.073 2.40564C123.305 2.44672 123.693 2.61426 123.768 2.2741C123.768 2.2741 124.077 2.22979 124.154 2.27179C124.309 2.31333 124.387 2.44026 124.542 2.52426C124.618 2.43887 124.695 2.31102 124.849 2.26764C125.158 2.22333 125.544 2.17856 125.853 2.17671C126.316 2.17394 126.781 2.34102 127.243 2.12594L127.32 2.12548C127.708 2.46287 128.094 2.33318 128.556 2.20302C128.633 2.1601 129.174 2.1144 129.098 2.4121C129.099 2.58195 129.485 2.53718 129.717 2.5358C129.948 2.49195 130.179 2.36318 130.41 2.23441C130.488 2.23394 130.642 2.23302 130.642 2.27548C130.72 2.40241 130.412 2.57411 130.799 2.61426C131.185 2.65442 131.572 2.7795 131.957 2.56488C132.034 2.47949 132.188 2.4361 132.342 2.39272C132.496 2.30687 132.728 2.30548 132.883 2.38949C133.038 2.51595 133.27 2.51457 133.347 2.42918C133.654 2.17256 134.04 2.17025 134.504 2.12502C135.044 2.07932 135.352 1.99255 135.817 2.2021C135.972 2.2861 136.358 2.28379 136.513 2.2404C137.129 2.06686 137.516 2.14948 138.058 2.3161C138.135 2.3581 138.599 2.31287 138.598 2.2704C138.75 1.88732 139.216 2.22425 139.447 2.13794C139.758 2.39087 140.221 2.30317 140.684 2.34287C141.07 2.34056 141.381 2.55103 141.843 2.42087C141.998 2.37748 142.307 2.4181 142.539 2.45918C143.002 2.49887 143.544 2.58057 144.007 2.53533C144.547 2.44718 144.857 2.65764 145.243 2.61287C145.552 2.61103 145.861 2.56672 146.169 2.47995C146.555 2.35025 147.094 2.17717 147.637 2.42871C147.791 2.47025 148.099 2.34102 148.408 2.33917C148.717 2.33733 149.026 2.33548 149.258 2.37656C149.491 2.4601 149.645 2.50164 149.876 2.37287C149.953 2.32994 150.262 2.3281 150.416 2.28471C150.494 2.28425 150.571 2.32625 150.648 2.32579C150.571 2.36871 150.494 2.36917 150.417 2.4121C150.34 2.45502 150.263 2.54041 150.109 2.58379C150.187 2.6258 150.264 2.6678 150.341 2.66734C151.037 2.70564 151.733 2.78642 152.349 2.48548C152.658 2.61103 152.968 2.6941 153.354 2.64933C153.431 2.64887 153.508 2.56349 153.585 2.52056C154.127 2.85703 154.589 2.59949 155.206 2.42594C155.207 2.46841 155.052 2.51179 155.052 2.51179C155.13 2.63872 155.208 2.72318 155.286 2.85011C155.363 2.80718 155.44 2.80672 155.44 2.76426C155.44 2.67933 155.362 2.55241 155.206 2.42594C155.977 2.20901 155.977 2.20901 156.596 2.33271C156.673 2.33225 156.751 2.41671 156.751 2.37425C157.445 2.20024 158.219 2.40794 158.836 2.31932C159.145 2.27502 159.222 2.35948 159.377 2.35856C159.995 2.43979 160.613 2.39363 161.152 2.13563C161.46 2.00639 161.692 2.00501 161.925 2.17347C162.002 2.21547 162.003 2.3004 162.003 2.34286C162.08 2.29994 162.08 2.21501 162.157 2.17209C162.31 2.04378 162.542 2.04239 162.62 2.16932C162.698 2.25378 162.776 2.42317 162.776 2.5081C162.777 2.63549 162.855 2.67749 163.009 2.59164C163.086 2.54871 163.162 2.46333 163.162 2.42086C163.162 2.3784 163.084 2.3364 163.007 2.33686C162.93 2.29486 162.929 2.2524 162.852 2.16793C162.929 2.16747 163.083 2.16655 163.161 2.16609C163.47 2.16424 163.625 2.29071 163.703 2.50256C163.703 2.50256 163.703 2.50256 163.703 2.4601C163.626 2.46056 163.549 2.46102 163.549 2.50348C163.549 2.50348 163.549 2.54594 163.549 2.58841C163.627 2.58795 163.626 2.54548 163.703 2.50256C163.857 2.37425 164.011 2.24594 164.165 2.24501C164.474 2.2007 164.785 2.53856 165.17 2.28148C165.401 2.1527 165.787 2.10793 166.096 2.10609C166.482 2.10378 166.868 2.10147 167.255 2.22655C167.564 2.30963 168.183 2.39086 168.336 2.26255C168.953 2.00408 169.495 2.1707 170.035 2.16747C170.112 2.16701 170.345 2.25055 170.345 2.29301C170.346 2.46286 170.578 2.46148 170.732 2.41809C171.194 2.24547 171.735 2.19978 172.276 2.23901C172.507 2.23763 172.816 2.15086 173.048 2.14947C173.279 2.14809 173.588 2.14624 173.743 2.23024C174.053 2.39825 174.206 2.10008 174.438 2.18363C174.593 2.22516 175.057 2.30732 175.055 2.01008C175.055 2.01008 175.441 1.96531 175.595 1.96439C176.755 2.04239 177.835 1.951 178.994 1.94408C179.071 1.94362 179.149 1.98562 179.226 1.98516C179.613 2.06777 179.999 2.15039 180.307 1.93623C180.538 1.765 180.847 1.84808 181.079 1.84669C181.388 1.88731 181.62 1.92839 181.852 1.927C182.238 1.92469 182.547 1.92285 182.933 1.92054C183.242 1.91869 183.551 1.95931 183.938 1.957C184.246 1.95516 184.632 1.86792 184.787 1.90946C185.097 2.07747 185.251 1.94915 185.482 1.90531C185.945 1.77515 186.025 2.19932 186.564 2.02623C186.795 1.93992 187.336 1.93669 187.568 2.02023C187.878 2.10331 187.955 2.10285 188.186 2.01654C188.572 1.88685 189.035 1.79915 189.498 1.83884C189.807 1.87946 190.194 1.91961 190.58 1.83238C190.811 1.78853 191.275 1.91315 191.585 1.99623C191.662 2.03823 191.817 2.1647 191.894 2.03685C192.046 1.69622 192.744 2.07423 192.819 1.77653C193.13 2.11439 193.591 1.72946 193.978 1.81207C194.365 1.89469 194.827 1.72207 195.214 1.88961C195.602 2.05716 196.063 1.71468 196.528 1.92423C196.605 1.96623 196.991 1.879 197.3 1.83469C197.531 1.79084 197.84 1.70407 197.917 1.74607C198.382 1.99808 198.922 1.90992 199.386 1.94961C199.618 1.99069 200.082 2.07285 200.08 1.77561L200.157 1.73268C200.853 1.85592 201.624 1.59653 202.242 1.72022C202.629 1.80284 202.938 1.71607 203.247 1.75668C203.556 1.7973 203.711 1.92377 204.174 1.83607C204.483 1.79176 204.869 1.70453 205.255 1.65976C205.332 1.6593 205.409 1.61637 205.486 1.61591C205.95 1.74053 206.568 1.65191 206.954 1.73453C207.418 1.81669 207.726 1.68745 208.113 1.77007C208.5 1.85269 208.886 1.85038 209.35 1.84761C209.427 1.84715 209.581 1.7613 209.658 1.71837C209.735 1.67545 209.966 1.58914 210.043 1.63114C210.74 1.88176 211.513 1.91961 212.284 1.74514C212.438 1.70176 212.749 1.91223 212.98 1.86838C213.211 1.82453 213.365 1.73868 213.598 1.86469C213.753 1.90622 214.138 1.81899 214.216 1.90346C214.449 2.02946 214.758 2.02761 214.989 2.02623C215.838 1.89376 216.766 2.01561 217.616 2.053C217.77 2.05207 217.924 2.00869 218.079 1.9653C219.159 1.83145 220.163 1.82545 221.246 2.0313C221.478 2.07238 221.786 1.98561 221.941 2.06961C222.174 2.19561 222.483 2.19377 222.714 2.19238C222.946 2.191 223.177 2.06223 223.41 2.23069C223.41 2.23069 223.564 2.22977 223.642 2.22931C224.335 1.92792 225.108 2.09315 225.804 2.089C226.267 2.08623 226.807 2.04053 227.348 2.0373C227.889 2.03407 228.353 2.20115 228.893 1.98561C229.047 1.89976 229.434 2.02484 229.742 2.02299C230.361 2.06176 230.901 2.05853 231.519 2.01238C232.137 1.96622 232.831 1.79222 233.528 2.0853C233.76 2.16884 234.378 2.25008 234.763 2.03545C235.459 2.20115 236.23 1.85683 236.849 2.10792C237.004 2.19192 237.39 2.18961 237.621 2.06084C237.93 1.97407 238.008 2.05853 238.009 2.22838C238.01 2.48316 238.088 2.52516 238.473 2.39546C238.627 2.35208 238.781 2.26623 238.935 2.22284L239.554 2.26161C239.862 2.2173 240.171 2.173 240.48 2.17115C240.712 2.16976 240.944 2.29577 241.176 2.25192C241.716 2.16376 242.103 2.24638 242.413 2.49931C242.491 2.54131 242.722 2.53993 242.877 2.58147C242.877 2.58147 242.877 2.58147 242.8 2.58193C242.8 2.62439 242.8 2.66685 242.877 2.66639C242.877 2.66639 242.955 2.66593 243.032 2.66547C243.032 2.62301 242.954 2.62347 242.877 2.58147C242.799 2.497 242.876 2.45408 242.876 2.36915C242.953 2.36869 243.03 2.36823 243.108 2.41023L243.185 2.45223C244.265 2.14853 245.347 2.31192 246.429 2.34792C246.506 2.34746 246.66 2.34654 246.737 2.30361C247.123 2.17392 246.969 2.34469 246.97 2.42962C246.97 2.47208 247.048 2.51408 247.125 2.51362C247.588 2.42592 248.051 2.33823 248.361 2.59116C248.747 2.46146 249.211 2.54362 249.596 2.45639C249.828 2.41254 249.982 2.36915 250.214 2.49516C250.292 2.53716 250.524 2.53577 250.678 2.57731C251.529 2.69962 252.455 2.52423 253.229 2.81686C253.306 2.85886 253.691 2.60177 253.77 2.89855C253.693 2.89901 253.616 2.94194 253.539 2.9424C253.616 2.9844 253.694 3.0264 253.694 3.0264C253.85 3.28025 254.39 3.1921 254.623 3.40302C254.856 3.61395 255.165 3.7395 255.167 3.95181C255.168 4.16412 255.71 4.3732 255.17 4.58875C254.939 4.67506 255.558 4.84122 255.173 4.97091C254.787 5.10061 255.174 5.22569 255.175 5.35308C255.1 5.7357 255.103 6.16033 254.95 6.54342C254.875 6.79865 254.257 6.88727 254.259 7.18451C254.259 7.22697 253.948 6.88912 253.873 7.18682C253.873 7.27174 253.951 7.39867 254.029 7.48313C254.107 7.65252 254.031 7.73791 253.644 7.69775C253.49 7.69868 253.258 7.74252 253.259 7.78499C253.338 8.08176 252.951 8.08407 252.565 8.04392C252.256 8.04576 251.946 7.92022 251.638 8.09192C251.561 8.13484 251.329 8.09377 251.252 8.05176C250.942 7.92622 250.633 7.88561 250.247 8.0153C249.939 8.10207 249.707 8.10346 249.475 7.97745L249.32 7.93591C249.166 8.06423 249.012 8.15007 248.781 8.27885C248.549 8.19531 248.393 7.98392 248.162 7.9853C247.853 7.98715 247.622 8.20085 247.389 7.94745C246.927 8.16254 246.385 7.91099 245.922 7.99869C245.227 8.08777 244.763 8.04807 244.299 7.79607C244.221 7.75407 243.989 7.71299 243.835 7.75637C243.295 7.84453 242.754 7.89022 242.369 8.06238C241.984 8.19208 241.906 8.06515 241.674 8.02407C241.132 7.89992 240.437 7.81914 239.819 7.8653C239.51 7.86715 239.201 7.91146 238.892 7.9133C238.583 7.91515 238.196 7.79007 237.889 8.00423C237.656 7.83576 237.424 7.79468 237.116 7.96638C237.116 7.96638 236.962 7.9673 236.884 7.96777C236.421 7.92807 236.033 7.63314 235.493 7.84869C235.108 7.97838 234.566 7.7693 234.103 7.94192C233.949 7.98531 233.64 7.94469 233.408 7.90361C232.944 7.86392 232.403 7.73976 232.095 7.86899C231.632 8.04161 231.321 7.6613 230.859 7.83392C230.628 7.96269 230.009 7.83899 229.546 7.84176C229.237 7.84361 229.004 7.76007 228.773 7.76145C228.695 7.76192 228.541 7.72038 228.541 7.72038C227.924 7.93638 227.228 7.85561 226.61 7.81684C226.301 7.81869 225.839 7.94884 225.761 7.86438C225.451 7.65391 225.143 7.91054 224.834 7.82746C224.524 7.78684 224.216 7.83115 223.907 7.87546C223.521 7.92023 222.98 7.92346 222.593 7.79838C221.82 7.59068 221.047 7.5953 220.198 7.6853C219.503 7.73192 218.807 7.60868 218.112 7.61284C217.571 7.57361 217.03 7.49191 216.491 7.66499C216.105 7.79469 215.794 7.45683 215.331 7.58699C215.1 7.6733 214.56 7.67653 214.172 7.46653C214.095 7.42453 213.863 7.46837 213.709 7.51176C213.246 7.59945 212.783 7.64468 212.319 7.60499C211.855 7.5653 211.391 7.39822 210.929 7.65576C210.696 7.40237 210.079 7.61838 209.769 7.36545L209.614 7.36637C209.152 7.58145 208.611 7.49976 207.993 7.50345C207.684 7.5053 207.454 7.719 207.22 7.4656C207.22 7.4656 207.143 7.4236 207.143 7.46607C206.526 7.68207 205.83 7.43145 205.135 7.52053C204.904 7.56438 204.672 7.60822 204.44 7.56715C204.054 7.52699 203.668 7.61422 203.281 7.44668C203.126 7.40514 202.664 7.62023 202.432 7.62161C202.046 7.62392 201.582 7.54176 201.196 7.50161C200.655 7.46237 200.114 7.42314 199.573 7.38391C199.496 7.38437 199.342 7.47022 199.264 7.47068C198.724 7.47391 198.26 7.43422 197.72 7.52238C197.257 7.61007 196.715 7.40099 196.175 7.53161C196.098 7.53207 195.943 7.40561 195.788 7.36407C195.555 7.23806 195.401 7.23898 195.247 7.40976C195.248 7.45222 195.016 7.49607 194.862 7.49699C194.399 7.54222 193.856 7.29068 193.317 7.54869C192.93 7.29622 192.544 7.34099 192.081 7.47115C191.615 7.13421 191.231 7.3913 190.846 7.56346C190.613 7.43745 190.461 7.77808 190.15 7.56761C189.995 7.48361 189.532 7.52884 189.377 7.44484C189.145 7.31883 188.99 7.2773 188.991 7.48961L188.914 7.53253C188.683 7.53392 188.451 7.5353 188.219 7.49422C187.987 7.45315 187.754 7.32714 187.677 7.37007C187.446 7.45638 187.292 7.4573 187.059 7.3313C186.904 7.20483 186.441 7.2076 186.98 7.03452C187.058 7.03406 187.057 6.94913 187.134 6.90621C187.057 6.90667 186.902 6.86513 186.902 6.86513C186.671 6.9939 186.362 6.91083 186.131 7.12452C185.824 7.42361 185.128 7.25791 184.743 7.43007C184.741 7.17529 184.355 7.1776 184.045 7.09452C183.582 7.01237 183.196 7.0996 182.888 7.35622C182.811 7.39915 182.734 7.44207 182.657 7.44253C182.58 7.44299 182.348 7.44438 182.271 7.44484C181.729 7.23576 181.112 7.36684 180.572 7.45499C180.418 7.49838 180.109 7.50023 180.031 7.41576C179.643 7.20576 179.025 7.20945 178.717 7.25376C178.331 7.29853 178.021 7.21545 177.867 7.25884C177.559 7.34561 177.249 7.26253 176.94 7.26438C176.554 7.26668 176.554 7.18176 176.862 7.05252C176.784 7.01052 176.707 6.96852 176.629 6.96898C176.166 6.88683 175.703 6.97452 175.317 7.14668C175.24 7.1896 175.241 7.27453 175.241 7.27453C175.318 7.31653 175.473 7.31561 175.55 7.35761C175.473 7.40053 175.319 7.40146 175.242 7.44438C174.934 7.57361 174.702 7.61746 174.393 7.49192C174.005 7.32438 173.387 7.28561 173.002 7.37284C172.385 7.54638 172.229 7.37746 171.919 7.20945C171.841 7.12499 171.609 7.08391 171.455 7.04237C171.377 7.04283 171.3 7.08576 171.223 7.08622C170.915 7.25791 170.53 7.43007 170.067 7.43284C169.835 7.43423 169.603 7.39315 169.372 7.437C169.14 7.43838 168.908 7.3973 168.676 7.39869C168.444 7.40007 168.214 7.57131 168.058 7.35992L167.981 7.36038C167.827 7.44623 167.596 7.53254 167.442 7.61839C167.364 7.53392 167.209 7.40746 167.131 7.32299C167.131 7.32299 166.976 7.32392 166.899 7.32438C166.514 7.45407 165.588 7.62946 165.433 7.63039C165.124 7.63223 164.969 7.50577 164.891 7.33638C164.813 7.25192 164.89 7.16653 164.889 7.0816C164.812 6.99714 164.657 6.9556 164.579 6.9136C164.503 6.99899 164.503 7.08391 164.426 7.1693C164.427 7.21176 164.427 7.25422 164.427 7.29669C164.273 7.34007 164.119 7.38346 163.965 7.46931C163.888 7.46977 163.811 7.51269 163.733 7.51315C163.424 7.43007 162.96 7.34792 162.728 7.39177C162.728 7.3493 162.728 7.30684 162.881 7.13607C162.958 7.05068 162.881 7.13607 162.805 7.22145C162.805 7.22145 162.882 7.26345 162.882 7.30592C163.036 7.22007 163.113 7.17714 163.267 7.0913C163.19 7.09176 163.113 7.04976 162.881 7.13607C162.728 7.30684 162.651 7.3073 162.573 7.30776C162.651 7.34976 162.728 7.39177 162.728 7.39177C162.729 7.51915 162.653 7.77439 162.266 7.60685C162.034 7.52331 161.417 7.69685 161.492 7.31423C161.569 7.2713 161.646 7.22838 161.8 7.14253C161.413 7.05991 161.104 6.97683 160.717 6.85175C160.717 6.89421 160.717 6.89421 160.717 6.93668C160.642 7.19192 160.642 7.23438 160.332 7.10884C159.868 6.94175 159.483 7.11391 159.174 7.20068C158.789 7.33038 158.789 7.37284 158.402 7.29023C158.325 7.29069 158.248 7.29115 158.171 7.29161C157.939 7.293 157.707 7.29438 157.475 7.2533C157.243 7.21222 156.934 7.17161 156.779 7.08761C156.546 6.91914 156.393 7.13238 156.161 7.13376C155.853 7.17807 155.619 6.88222 155.543 7.01006C155.467 7.22284 155.157 7.13976 155.003 7.22561C154.695 7.35484 154.695 7.26992 154.694 7.14253C154.693 7.10007 154.539 7.10099 154.462 7.05899C154.464 7.44115 153.844 7.19007 153.536 7.3193C153.228 7.491 152.995 7.15268 152.685 7.11207C152.608 7.11253 152.607 6.98514 152.607 6.94268C152.53 6.9856 152.53 7.02807 152.453 7.07099C152.3 7.1993 152.146 7.37008 151.759 7.16007C151.758 7.11761 151.45 7.16192 151.45 7.20438C151.298 7.545 150.756 7.42085 150.678 7.29392C150.522 7.04007 150.059 7.17022 149.75 7.08714C149.363 7.00453 149.054 7.00637 149.207 6.70821C149.207 6.70821 149.129 6.66621 149.052 6.62421C148.975 6.66713 148.975 6.7096 148.898 6.71006C148.592 7.13653 148.592 7.13653 147.741 6.9293C147.509 6.88822 147.431 6.88868 147.278 7.05945C147.125 7.31515 146.971 7.35854 146.584 7.23346C146.352 7.14992 146.197 7.06592 146.042 7.02438C145.964 6.98237 145.733 6.98376 145.733 6.98376C145.194 7.36915 145.115 6.94499 144.882 6.81899C144.65 6.73545 144.418 6.69437 144.186 6.65329C144.109 6.65375 144.032 6.69667 143.954 6.69714C143.878 6.78252 143.724 6.86837 143.647 6.95376C143.34 7.29531 143.186 7.29623 142.643 7.00222C142.333 6.83422 142.177 6.5379 141.559 6.58406C141.173 6.58636 141.404 6.50005 141.558 6.41421L141.481 6.32974C141.403 6.3302 141.326 6.2882 141.249 6.33113C141.172 6.33159 141.172 6.37405 141.095 6.41698C141.018 6.54483 141.174 6.75622 140.865 6.80052C140.711 6.84391 140.479 6.71791 140.247 6.67683C140.169 6.67729 140.092 6.72021 140.093 6.76268C139.863 7.01884 139.709 7.10469 139.399 6.93668C139.089 6.81114 138.548 6.85683 138.546 6.51713C138.545 6.30482 138.159 6.39205 138.083 6.5199C137.93 6.69068 137.776 6.81899 137.389 6.73637C137.312 6.73683 137.311 6.65191 137.311 6.60944C137.465 6.52359 137.542 6.48067 137.233 6.44005C137.156 6.44052 137.001 6.4839 137.002 6.52636C137.002 6.65375 136.771 6.78253 137.158 6.86514C137.235 6.86468 137.313 6.99161 137.391 7.03361C137.237 7.07699 137.082 7.12038 137.005 7.12084C136.387 7.12453 136.154 6.91361 135.998 6.65975C135.998 6.61729 135.921 6.57529 135.92 6.53283C135.843 6.57575 135.766 6.61867 135.767 6.66114C135.69 6.74652 135.768 6.83099 135.691 6.91637C135.691 6.95884 135.537 7.04469 135.46 7.00268C135.073 6.96253 134.533 7.05069 134.223 6.84022C134.068 6.75622 132.754 6.7216 132.6 6.68006C132.136 6.64037 132.371 7.10607 131.752 6.93991C131.519 6.85637 131.134 6.94361 130.825 6.98792C130.13 7.077 129.435 7.03869 128.74 7.04284C128.508 7.04423 128.199 7.00361 128.2 7.21592C128.2 7.21592 127.891 7.26023 127.814 7.26069C127.504 7.00776 127.273 7.179 127.042 7.26531C126.965 7.30823 126.656 7.35254 126.656 7.35254C126.346 7.09961 126.037 7.22885 125.806 7.35762C125.73 7.40054 125.652 7.35854 125.575 7.359C125.574 7.27408 125.574 7.23162 125.728 7.1033C125.727 7.06084 125.728 7.1033 125.65 7.10377C125.651 7.14623 125.728 7.14577 125.728 7.18823C125.805 7.14531 125.805 7.14531 125.882 7.10238C125.882 7.10238 125.805 7.06038 125.728 7.1033C125.265 7.191 124.956 7.23531 124.57 7.23762C124.184 7.23992 124.183 7.19746 124.491 6.9833C124.646 6.98238 124.955 7.06546 125.108 6.80976C125.108 6.7673 125.108 6.80976 125.031 6.81022C125.031 6.85268 125.108 6.85222 125.109 6.89468C125.186 6.85176 125.186 6.85176 125.263 6.80884C125.263 6.80884 125.185 6.76683 125.108 6.80976C124.8 6.89653 124.567 6.77053 124.491 6.9833C124.26 7.02715 124.258 6.72991 123.95 6.90161C123.719 7.07284 123.41 7.07469 123.101 7.03407C122.715 6.99392 122.483 6.9953 122.485 7.29254C122.486 7.46239 121.868 7.46608 121.79 7.2967C121.633 6.91545 121.325 7.08715 121.016 7.17392C120.785 7.21777 120.553 7.26162 120.399 7.34747C120.168 7.43378 120.014 7.51962 120.013 7.26485C120.013 7.22239 119.781 7.18131 119.626 7.13977C119.161 6.93022 118.389 6.93484 118.386 6.46775C118.386 6.42529 118.154 6.42667 118.076 6.38467C117.999 6.38513 117.922 6.3856 117.845 6.38606C117.845 6.42852 117.768 6.47144 117.846 6.51344C118.079 6.72437 118.311 6.89284 118.467 7.10423C118.544 7.14623 118.39 7.23208 118.391 7.317C118.236 7.27547 118.159 7.23346 118.004 7.14946C117.926 7.10746 117.849 7.06546 117.462 6.89792C117.23 6.85684 117.385 6.94084 117.539 6.98238C117.617 6.98192 117.694 6.93899 117.771 6.93853C117.616 6.81207 117.538 6.7276 117.383 6.60114C117.306 6.64406 117.229 6.68699 117.384 6.85592C117.771 7.02346 117.849 7.06546 117.926 7.10746C117.849 7.15038 117.773 7.23577 117.695 7.23623C116.923 7.19839 116.15 7.16054 115.377 7.12269C115.223 7.12362 115.068 7.03961 114.913 6.99807C114.681 6.957 114.295 6.91684 114.141 7.04515C113.911 7.25885 113.679 7.34516 113.215 7.263C112.906 7.22239 112.522 7.5644 112.365 7.14069C112.365 7.05577 111.823 6.97407 111.437 6.93392C111.128 6.8933 111.206 7.06269 111.207 7.19008C111.053 7.36085 111.053 7.36085 110.82 7.10746C110.82 7.065 110.82 7.10746 110.743 7.10792C110.743 7.15039 110.82 7.14992 110.821 7.19239C110.898 7.14946 110.898 7.14946 110.975 7.10654C110.975 7.10654 110.897 7.06454 110.82 7.10746C110.435 7.27962 110.126 7.28147 110.047 7.06961C109.97 6.98515 110.046 6.89976 110.046 6.81484C110.046 6.81484 109.814 6.77376 109.814 6.81622C109.737 6.85915 109.738 6.94407 109.661 6.987C109.583 6.945 109.583 6.90253 109.505 6.86053C109.504 6.69068 109.196 6.73499 109.041 6.73591C108.964 6.73638 108.733 6.82269 108.733 6.86515C108.812 7.077 108.425 7.07931 108.194 7.12316C108.117 7.12362 108.039 7.12408 107.962 7.12454C107.882 6.57299 107.344 7.08577 107.035 7.04515C106.803 7.00408 106.573 7.3027 106.186 7.22008C105.877 7.17947 105.646 7.22331 105.721 6.96807C105.721 6.88315 105.643 6.75622 105.488 6.67222C105.333 6.58822 105.101 6.54714 105.025 6.71745C105.026 6.97223 104.872 7.05808 104.408 6.97592C104.099 6.93531 103.79 6.97961 103.558 6.89607C103.248 6.77053 103.171 6.77099 103.172 6.98331C103.095 6.98377 103.018 6.98423 102.94 6.94223C102.786 6.94315 102.554 6.85961 102.554 6.90207C101.861 7.28839 101.087 6.95331 100.392 6.99992C100.083 7.00177 100.544 6.57437 100.004 6.83238C99.6193 7.00454 99.3106 7.04885 99.0004 6.83838C98.8454 6.75438 98.4592 6.75669 98.7694 6.96715C98.6924 7.01008 98.6154 7.053 98.5382 7.05346C98.152 7.05577 97.6883 7.01608 97.2244 6.93392C97.1471 6.93438 97.2244 6.93392 97.2246 6.97638C97.3019 6.97592 97.3016 6.93346 97.3789 6.933C97.3014 6.891 97.3014 6.891 97.2239 6.849C97.2239 6.849 97.1469 6.89192 97.2244 6.93392C97.3024 7.06085 97.2257 7.14624 97.2262 7.23116C97.0714 7.18962 96.8397 7.19101 96.8395 7.14854C96.7607 6.89423 96.3742 6.85407 96.0648 6.77099C95.7556 6.73038 95.5238 6.73176 95.3706 6.945C95.1407 7.24362 95.0634 7.24408 94.368 7.20578C94.1363 7.20716 93.9044 7.16608 93.6726 7.16747C93.5954 7.16793 93.5179 7.12593 93.5177 7.08347C93.5949 7.083 93.7491 7.03962 93.8264 7.03916C93.9033 6.99623 93.9801 6.91085 94.0571 6.86792C93.9023 6.82638 93.7476 6.78484 93.6706 6.82777C93.2074 6.873 92.8995 7.0447 92.9785 7.34147C92.9788 7.38394 92.9018 7.42686 92.8245 7.42732C92.8243 7.38486 92.7468 7.34286 92.7468 7.34286C92.7465 7.30039 92.7463 7.25793 92.746 7.21547C92.745 7.04562 92.7442 6.91823 92.7432 6.74838C92.4345 6.79269 92.0481 6.75253 91.7396 6.83931C91.3542 6.969 91.1232 7.09777 90.6593 7.01562C90.4273 6.97454 90.0416 7.06177 90.1171 6.76407C90.1171 6.76407 89.5757 6.63992 89.3442 6.68376C89.0357 6.77054 88.8045 6.85684 88.5715 6.64592C88.5715 6.64592 88.3398 6.6473 88.2628 6.69023C88.1859 6.73315 88.1091 6.81854 88.0324 6.90392C87.6447 6.65146 87.2608 7.03593 87.0285 6.95239C86.6413 6.78484 86.2556 6.87208 85.8689 6.78946C85.7917 6.78992 85.7909 6.66253 85.7907 6.62007C85.7124 6.45068 85.4812 6.53699 84.7078 6.37176C84.1664 6.2476 84.2439 6.2896 84.3213 6.3316C84.5533 6.37268 84.785 6.37129 85.017 6.41237C85.0942 6.41191 85.0955 6.62422 85.3262 6.45299C85.4032 6.41006 85.3255 6.3256 85.248 6.2836C84.9375 6.03067 84.3968 6.0339 84.708 6.41422C85.3272 6.62284 85.405 6.7073 85.4825 6.7493C85.328 6.75023 85.1738 6.79361 85.0193 6.79454C84.7098 6.71146 84.3999 6.54345 84.0152 6.80054C83.9384 6.88592 83.8615 6.92885 83.7847 7.01423C83.7842 6.92931 83.7065 6.84485 83.706 6.75992C83.7812 6.41976 83.1658 6.84808 83.1643 6.5933C83.0101 6.63669 82.7011 6.63853 82.8566 6.80746C83.0123 7.01885 82.5489 7.02162 82.6272 7.19101C82.5499 7.19147 82.3954 7.19239 82.3185 7.23532C82.3182 7.19285 82.3177 7.10793 82.3177 7.10793C82.5486 6.97916 82.3172 7.023 82.1625 6.98147C81.9302 6.89792 81.5435 6.81531 82.0059 6.64269C81.9282 6.55822 81.7735 6.51668 81.6957 6.43222C81.6187 6.47514 81.619 6.51761 81.542 6.56053C81.465 6.60346 81.3105 6.60438 81.3105 6.60438C81.155 6.43545 80.7693 6.52268 80.5374 6.48161C80.5369 6.39668 80.5364 6.31175 80.6131 6.22637C81.0765 6.2236 80.8435 6.01267 80.92 5.88482L80.7653 5.84328C80.5338 5.88713 80.3799 5.97298 80.1486 6.05929C80.0714 6.05975 79.9942 6.06021 79.7622 6.01913C79.685 6.01959 79.7622 6.01913 79.7624 6.06159C79.8397 6.06113 79.8394 6.01867 79.9167 6.01821C79.8392 5.97621 79.8392 5.97621 79.7617 5.93421C79.7617 5.93421 79.6847 5.97713 79.7622 6.01913C79.9172 6.10313 79.9947 6.14514 80.0724 6.2296C80.2274 6.3136 80.3826 6.44007 80.5376 6.52407C80.3079 6.86515 80.3079 6.86515 79.6898 6.82638C79.6125 6.82685 79.535 6.78485 79.535 6.78485C79.1491 6.82962 78.7629 6.83192 78.4539 6.83377C77.9903 6.79408 77.6025 6.54161 77.1409 6.84162C76.9099 6.97039 76.3687 6.88869 76.1358 6.67777C76.058 6.5933 75.8263 6.59469 75.6716 6.55315C75.6721 6.63807 75.8271 6.72207 75.7498 6.72254C75.5958 6.80838 75.4416 6.85177 75.2874 6.89516C75.2096 6.81069 75.1319 6.72623 75.2081 6.55592C75.2079 6.51345 75.2081 6.55592 75.1309 6.55638C75.1311 6.59884 75.2084 6.59838 75.2086 6.64084C75.2856 6.59792 75.2856 6.59792 75.3626 6.55499C75.3626 6.55499 75.2851 6.51299 75.2081 6.55592C75.0544 6.68423 74.9002 6.72761 74.9004 6.77008C74.9014 6.93993 75.2099 6.85316 75.3646 6.89469C75.3651 6.97962 75.3654 7.02208 75.2887 7.10747C75.2114 7.10793 75.1342 7.10839 75.0567 7.06639C74.9019 7.02485 74.6702 7.02624 74.5155 6.9847C74.206 6.90162 74.6692 6.85639 74.5915 6.77192C74.4362 6.64546 73.973 6.69069 73.8968 6.861C73.8206 7.03131 73.7439 7.1167 73.4347 7.07608C73.2027 7.03501 72.971 7.03639 72.7392 7.03778C72.5075 7.03916 72.4298 6.9547 72.429 6.82731C72.351 6.70038 72.1968 6.74377 72.1976 6.87116C72.1213 7.04147 71.9666 6.99993 71.7346 6.95885C71.2702 6.79177 70.806 6.66715 70.2651 6.62792C70.1878 6.62838 70.1101 6.54392 70.0326 6.50192C69.6449 6.24945 69.3356 6.20883 68.9507 6.42345C68.7965 6.46684 68.7198 6.55223 68.643 6.63761C68.5653 6.55315 68.5648 6.46822 68.487 6.38376L68.4095 6.34176C68.3318 6.2573 68.254 6.17283 68.1003 6.30114C68.0233 6.34407 67.7916 6.34545 67.9469 6.47192C68.0244 6.51392 67.9479 6.64177 67.9481 6.68423C67.7937 6.68515 67.6392 6.68608 67.5617 6.64408C67.252 6.51853 67.0195 6.39253 66.4798 6.56561C66.0171 6.69577 65.3217 6.65746 64.7798 6.44838C64.3928 6.3233 64.0831 6.19776 63.6197 6.20053C63.1562 6.20329 63.1562 6.20329 63.235 6.45761C63.2353 6.50007 63.3128 6.54207 63.313 6.58454C63.3135 6.66946 63.2368 6.75485 63.16 6.84023C63.0053 6.7987 62.8508 6.79962 62.7733 6.75762C62.5411 6.67408 62.4624 6.41976 62.1544 6.59146C61.692 6.76408 61.6135 6.55223 61.381 6.42622C61.3033 6.34176 61.3025 6.21437 61.2245 6.08745C61.0708 6.21576 60.9171 6.34407 60.6859 6.43038C60.4546 6.51669 60.6866 6.55777 60.6871 6.64269C60.7654 6.81208 60.7661 6.93947 60.4577 7.02624C60.3804 7.0267 60.3032 7.02716 60.226 7.02762C60.3014 6.72992 59.8382 6.77516 59.6065 6.77654C59.1431 6.77931 58.8324 6.48392 58.3699 6.65654C58.3699 6.65654 58.2152 6.615 58.1377 6.573C58.1382 6.65792 58.139 6.78531 58.2162 6.78485C58.6799 6.82454 58.6032 6.90993 58.2947 6.9967C57.9863 7.08347 57.6778 7.17024 57.6753 6.74562C57.675 6.70315 57.5981 6.74608 57.5983 6.78854C57.5986 6.831 57.5988 6.87347 57.5991 6.91593C57.6761 6.87301 57.8305 6.87208 57.8303 6.82962C57.83 6.78716 57.8295 6.70223 57.6753 6.74562C57.3671 6.87485 56.9801 6.74977 56.9032 6.7927C56.595 6.92193 56.362 6.711 56.2075 6.71193C55.976 6.75577 55.7451 6.88455 55.5141 7.01332C55.5141 7.01332 55.3594 6.97178 55.2821 6.97224C55.1274 6.9307 55.0497 6.84624 55.2811 6.80239C55.4354 6.759 55.5898 6.75808 55.6668 6.71516C55.7441 6.71469 55.821 6.67177 55.821 6.67177C55.7435 6.62977 55.6661 6.58777 55.6661 6.58777C55.2801 6.63254 54.7377 6.33853 54.5855 6.72162C54.1995 6.76639 53.8133 6.7687 53.5054 6.94039C53.5054 6.94039 53.3507 6.89885 53.2732 6.85685C53.0399 6.60346 52.5767 6.64869 52.1905 6.651C51.9588 6.65239 51.6506 6.78162 51.4179 6.61315C51.4179 6.61315 51.2637 6.65654 51.1867 6.69946C51.4969 6.90993 51.1882 6.95424 50.9557 6.82824C50.7235 6.7447 50.5688 6.70316 50.3368 6.66208C50.1051 6.66346 49.8731 6.62239 49.7971 6.83516C49.7976 6.92009 49.3342 6.92285 49.3334 6.79547C49.3322 6.58315 49.1005 6.58454 48.8687 6.58592C48.4056 6.63116 47.8646 6.59192 47.5567 6.76362C47.0943 6.93624 46.862 6.8527 46.5523 6.72716C46.3201 6.64362 46.0879 6.56008 45.8556 6.47654C45.7784 6.477 45.6239 6.47792 45.6239 6.47792C45.5485 6.77562 45.2385 6.60762 45.0068 6.609C44.6978 6.61085 44.4661 6.61223 44.7761 6.78024L44.6221 6.86609C44.3899 6.78254 43.9267 6.82778 43.8489 6.74331C43.2282 6.27992 42.5351 6.62377 41.8402 6.67039C41.6857 6.67131 41.6093 6.79916 41.4548 6.80008C41.3003 6.80101 40.9146 6.88824 40.9131 6.63346C40.9126 6.54854 40.7573 6.42207 40.6026 6.38053C40.5251 6.33853 40.2936 6.38238 40.2167 6.42531C40.1394 6.42577 40.0627 6.51115 39.9857 6.55408C40.0629 6.55362 40.2177 6.59516 40.2949 6.59469C40.3724 6.6367 40.5269 6.63577 40.6044 6.67777C40.5274 6.7207 40.4504 6.76362 40.3732 6.76408C39.9097 6.76685 39.4455 6.64224 38.9831 6.81486C38.9831 6.81486 38.8286 6.81578 38.7511 6.77378C38.7509 6.73131 38.8279 6.68839 38.9049 6.64547C38.9816 6.56008 39.2128 6.47377 39.2895 6.38838C39.3663 6.30299 39.2883 6.17607 39.2108 6.13407C39.1333 6.09207 38.9013 6.05099 38.7471 6.09437C38.4384 6.13868 38.7478 6.22176 38.7481 6.26422C38.7494 6.47654 38.2872 6.69162 37.901 6.69393C37.592 6.69577 37.2831 6.69762 36.8966 6.65747C36.4329 6.61777 36.045 6.32284 35.5826 6.49546C35.1201 6.66808 34.6552 6.41608 34.1928 6.5887C34.0385 6.63208 33.5738 6.42254 33.4199 6.50839C32.9574 6.68101 33.0331 6.42577 32.8012 6.38469C32.7237 6.34269 32.569 6.30115 32.4917 6.30161C32.1835 6.43085 31.8748 6.47515 31.6423 6.34915C31.3326 6.22361 31.1019 6.39485 30.7927 6.35423C30.5607 6.31315 30.1748 6.35792 29.9436 6.44423C29.6354 6.57347 29.4037 6.57485 29.0939 6.44931C29.0164 6.40731 28.8625 6.49316 28.708 6.49408C27.7816 6.58454 26.856 6.8024 25.8517 6.76593C25.5427 6.76778 25.2348 6.93948 25.0038 7.06825C24.8498 7.1541 24.6961 7.28241 24.5421 7.36826C24.3081 6.98748 23.8475 7.45734 23.46 7.24733C23.1501 7.07933 22.6094 7.08256 22.1467 7.21271C21.684 7.34287 21.5296 7.3438 21.0649 7.13425C20.7551 7.00871 20.6004 6.96717 20.5247 7.22241C20.4482 7.35026 20.2162 7.30918 20.0612 7.22518C19.6738 7.01517 19.2093 6.84809 18.5927 7.0641C18.2052 6.85409 17.8978 7.11071 17.5116 7.11302C16.9709 7.11625 16.4315 7.3318 15.8893 7.08025C15.6571 6.99671 15.1169 7.08487 14.8082 7.12918C14.4225 7.21641 14.2658 6.83517 13.7264 7.05071C13.4951 7.13702 13.0309 7.0124 12.6447 7.01471C11.0225 6.98194 9.55264 6.60855 7.93061 6.61824C7.38994 6.62147 6.92599 6.53932 6.38582 6.62747C5.84566 6.71563 5.22597 6.42208 4.68478 6.34039C4.53005 6.29885 4.37532 6.25731 4.22084 6.25823C3.91188 6.26008 3.60419 6.47424 3.29371 6.22131C3.13847 6.09484 2.67504 6.09761 2.36583 6.057C1.3607 5.89315 1.20292 5.34205 0.505992 5.04897C0.428499 5.00697 0.505231 4.92158 0.504723 4.83666C0.503962 4.70927 0.889651 4.62204 0.579679 4.45403C0.501932 4.36957 0.655395 4.19879 0.654634 4.07141C0.653619 3.90155 0.575365 3.73217 0.497111 3.56278C0.80759 3.81571 0.652351 3.68924 0.574096 3.51985C0.496096 3.39293 -0.353284 3.44047 0.262855 3.13953C0.41708 3.09615 0.338572 2.8843 0.260571 2.75737C0.104824 2.54598 0.181302 2.41813 0.489498 2.2889C0.643723 2.24551 0.872142 1.69211 0.794142 1.56519C0.636872 1.09902 0.636872 1.09902 1.56273 0.92363C2.02566 0.835935 2.48808 0.663315 2.87301 0.448694C3.10396 0.319921 3.25793 0.234072 3.64413 0.231765C4.03058 0.271919 4.41729 0.354537 4.80247 0.182378C4.87945 0.139454 5.11143 0.180532 5.26616 0.222072C5.57562 0.305151 5.8081 0.431154 6.11757 0.514233C6.34954 0.555311 6.7365 0.680391 6.89072 0.637005C7.43064 0.506386 7.5094 0.760701 7.74137 0.801779C7.8961 0.843318 8.74523 0.753316 9.05368 0.666544C9.36187 0.53731 9.67083 0.535464 9.98004 0.57608C10.6757 0.656851 10.9847 0.655005 11.8338 0.565002C12.0655 0.563618 12.2972 0.562233 12.452 0.603773C13.2261 0.896396 14.077 1.10363 14.9264 1.05609C15.4671 1.05286 15.93 0.965166 16.4709 1.0044C16.9346 1.04409 17.475 0.998397 18.0155 0.952704C18.17 0.95178 18.3244 0.950857 18.4012 0.86547C18.7858 0.608387 19.6362 0.730697 19.9429 0.346687C19.9427 0.304224 20.0969 0.260839 20.1744 0.30284C20.4066 0.38638 20.4851 0.598232 20.8703 0.426074C20.9473 0.383149 21.4115 0.507768 21.5667 0.634233C21.7994 0.802699 22.1851 0.715466 22.4174 0.799006C22.6493 0.840084 22.8818 0.966088 23.0368 1.05009C23.269 1.13363 23.5782 1.17425 23.8092 1.04547C24.0401 0.916701 24.2716 0.872854 24.5808 0.91347C24.89 0.954087 25.1225 1.08009 25.4315 1.07824C25.6632 1.07686 25.9716 0.990087 26.2034 0.988703C26.4351 0.987318 26.7443 1.02793 26.9765 1.11148C27.2087 1.19502 27.2857 1.15209 27.5172 1.10824C27.6714 1.06486 27.9031 1.06347 27.9806 1.10547C28.5226 1.31456 29.2947 1.26748 29.8366 1.47656C30.1464 1.6021 30.5323 1.55733 30.841 1.51302C31.0725 1.46918 31.3032 1.29794 31.5349 1.29656C31.7666 1.29517 31.9991 1.42117 32.2311 1.46225C32.4628 1.46087 32.6168 1.37502 32.848 1.28871C33.0792 1.2024 33.0797 1.28732 33.0802 1.37225C33.081 1.49964 33.1584 1.54164 33.3122 1.41333C33.3889 1.32794 33.3114 1.28594 33.6206 1.32656C34.471 1.44887 35.3209 1.48625 36.2478 1.48071C36.4795 1.47933 36.6337 1.43594 36.8662 1.56195C37.0989 1.73041 37.4086 1.85595 37.7938 1.6838C38.025 1.59749 38.104 1.89426 38.3348 1.72303C38.4115 1.63764 38.645 1.93349 38.8754 1.7198C39.4951 2.01334 40.112 1.8398 40.7297 1.79364C40.9614 1.79226 41.3463 1.57764 41.2711 1.9178C41.8128 2.08442 42.2775 2.29396 42.8192 2.46058C42.8964 2.46012 43.0507 2.41674 43.1279 2.41628C43.1277 2.37381 43.1271 2.28889 43.0497 2.24689C42.4322 2.3355 42.5062 1.78303 41.889 1.91411C41.8888 1.87165 41.8885 1.82918 41.9655 1.78626C42.119 1.61549 42.3517 1.78395 42.5062 1.78303C42.6607 1.7821 42.8144 1.65379 42.9683 1.56795C43.0458 1.60995 43.1233 1.65195 43.0461 1.65241C43.0464 1.69487 42.9696 1.78026 42.8926 1.82318C42.8159 1.90857 42.8164 1.9935 42.7394 2.03642C42.8939 2.0355 43.0486 2.07704 43.1256 2.03411C43.5116 1.98934 43.8978 1.98703 44.128 1.73087C44.6689 1.7701 45.1326 1.8098 45.6738 1.89149C45.751 1.89103 45.8287 1.97549 45.8287 1.97549C46.1377 1.97365 46.5231 1.84395 46.6781 1.92795C46.7559 2.01242 47.0648 2.01057 47.3738 2.00873C47.6827 2.00688 47.758 1.66672 48.2994 1.79087C48.5314 1.83195 48.8396 1.70272 49.1483 1.65841C49.2255 1.65795 49.3027 1.65748 49.38 1.65702C49.3802 1.69949 49.3805 1.74195 49.3807 1.78441C49.3038 1.82734 49.3043 1.91226 49.2273 1.95519C49.3045 1.95472 49.459 1.9538 49.5362 1.95334C49.8442 1.78164 50.2314 1.94918 50.6173 1.90441C50.6173 1.90441 50.6173 1.90441 50.5401 1.90488C50.5403 1.94734 50.5406 1.9898 50.6178 1.98934C50.6178 1.98934 50.6951 1.98888 50.7723 1.98842C50.7721 1.94595 50.6948 1.94642 50.6173 1.90441C50.7703 1.64872 51.3125 1.90026 51.5429 1.68656C51.5429 1.68656 51.7749 1.72764 51.6977 1.7281C51.7 2.11027 52.1616 1.81026 52.3936 1.85134C52.6256 1.89241 52.9335 1.72072 53.011 1.76272C53.3985 1.97272 53.7847 1.97042 54.0936 1.96857C54.1708 1.96811 54.2486 2.05257 54.2488 2.09503C54.2496 2.22242 54.1731 2.35027 54.1741 2.52012C54.1741 2.52012 54.1741 2.52012 54.1739 2.47766C54.0967 2.47812 54.0194 2.47858 54.0197 2.52105C54.0197 2.52105 54.0199 2.56351 54.0202 2.60597C54.0974 2.60551 54.0972 2.56305 54.1741 2.52012C54.2509 2.43474 54.4051 2.39135 54.4821 2.34843C54.6353 2.13519 55.175 1.96211 55.6389 2.04426C55.6389 2.04426 55.7161 2.0438 55.7164 2.08626C56.6435 2.12319 56.6435 2.12319 57.0305 2.24827C57.2627 2.33181 57.3399 2.33135 57.4937 2.20304C57.8781 1.90349 58.5737 1.98426 59.1137 1.85364C59.1137 1.85364 59.2686 1.93764 59.2689 1.98011C59.3484 2.36181 59.3484 2.36181 60.0438 2.40012C60.1983 2.39919 60.353 2.44073 60.5075 2.43981C60.5848 2.43935 60.6615 2.35396 60.6612 2.3115C60.661 2.26904 60.6607 2.22657 60.5832 2.18457C60.4285 2.14303 60.2743 2.18642 60.1195 2.14488C59.9651 2.1458 59.8873 2.06134 59.8101 2.0618C59.9643 2.01842 60.041 1.93303 60.1953 1.88964C60.2725 1.88918 60.9689 2.09734 60.9692 2.1398C61.0469 2.22427 61.1247 2.30873 61.2022 2.35073C61.3569 2.39227 61.5884 2.34842 61.7428 2.3475C61.7423 2.26257 61.7418 2.17765 61.7416 2.13519C61.7413 2.09272 61.6638 2.05072 61.6636 2.00826C61.6633 1.9658 61.7401 1.88041 61.817 1.83749C61.8943 1.83703 62.1262 1.8781 62.1262 1.8781C62.1278 2.13288 62.2817 2.04703 62.5904 2.00272C62.7447 1.95934 63.1306 1.91457 63.1324 2.2118C63.0551 2.21227 63.0549 2.1698 62.9777 2.17026C62.9004 2.17073 62.7459 2.17165 62.6687 2.17211C62.669 2.21457 62.6692 2.25704 62.6692 2.25704C62.8237 2.25611 62.9009 2.25565 63.1324 2.2118C63.2091 2.12642 63.3633 2.08303 63.5176 2.03965C63.7488 1.95334 63.9025 1.82502 63.9043 2.12226C63.9045 2.16473 63.9053 2.29211 63.9053 2.29211C64.1375 2.37565 63.9078 2.71674 64.3708 2.62905C64.6792 2.54227 64.3695 2.41673 64.369 2.33181C64.3685 2.24688 64.5219 2.07611 64.7534 2.03226C64.9076 1.98887 65.1399 2.07242 65.3718 2.11349C65.1416 2.36965 65.9133 2.23765 65.9161 2.70474C66.3787 2.57458 65.8386 2.66274 65.7606 2.53581C65.7603 2.49335 65.0659 2.62489 65.0659 2.62489C65.1434 2.66689 65.2981 2.70843 65.4526 2.70751C65.6846 2.74859 65.7621 2.79059 65.6856 2.91844C65.6859 2.9609 65.8406 3.00244 65.9178 3.00198C66.0723 3.00106 66.149 2.91567 65.9161 2.70474ZM86.9414 5.2968L86.9411 5.25434C86.8639 5.2548 86.7867 5.25526 86.7869 5.29773C86.7869 5.29773 86.7872 5.34019 86.7874 5.38265C86.8647 5.38219 86.8644 5.33973 87.0951 5.16849C87.0179 5.16895 87.0181 5.21142 86.9409 5.21188C86.9411 5.25434 87.0184 5.25388 87.0186 5.29634C87.0956 5.25342 87.0956 5.25342 87.1726 5.21049C87.1724 5.16803 87.0949 5.12603 86.9414 5.2968ZM189.131 5.02585C189.054 5.02631 189.054 5.06878 188.977 5.06924C188.977 5.1117 189.054 5.11124 189.055 5.1537C189.132 5.11078 189.132 5.11078 189.209 5.06785C189.209 5.06785 189.131 5.02585 188.978 5.19663L188.977 5.15416C188.9 5.15462 188.823 5.15509 188.823 5.19755C188.823 5.19755 188.823 5.24001 188.824 5.28247C188.823 5.24001 188.901 5.23955 189.131 5.02585ZM139.782 6.46728C139.705 6.46775 139.705 6.51021 139.628 6.51067C139.628 6.55313 139.705 6.55267 139.706 6.59513C139.783 6.55221 139.783 6.55221 139.859 6.50929C139.859 6.50929 139.782 6.46729 139.629 6.63806L139.628 6.5956C139.551 6.59606 139.474 6.59652 139.474 6.63898C139.474 6.63898 139.474 6.68144 139.475 6.72391C139.552 6.68098 139.551 6.63852 139.782 6.46728ZM72.5815 6.48668C72.5042 6.48715 72.5045 6.52961 72.4272 6.53007C72.4275 6.57253 72.5047 6.57207 72.505 6.61453C72.582 6.57161 72.582 6.57161 72.659 6.52869C72.659 6.52869 72.5815 6.48668 72.5055 6.69946C72.3505 6.61546 72.3505 6.61546 72.3505 6.61546C72.2733 6.61592 72.1188 6.61684 72.0416 6.6173C72.0418 6.65977 72.0421 6.70223 72.0421 6.70223C72.1196 6.74423 72.1965 6.70131 72.5815 6.48668ZM150.674 6.57205C150.597 6.61498 150.52 6.61544 150.443 6.65836C150.52 6.70037 150.52 6.74283 150.598 6.74237C150.675 6.74191 150.829 6.74098 150.906 6.69806C150.829 6.65606 150.751 6.61406 150.21 6.4899C150.21 6.53236 150.287 6.5319 150.288 6.57436C150.365 6.5739 150.365 6.53144 150.442 6.53098C150.364 6.48898 150.364 6.48898 150.287 6.44697C150.364 6.48898 150.287 6.48944 150.674 6.57205ZM101.217 2.87597C101.14 2.91889 101.063 2.96182 101.219 3.25813C101.064 3.17413 100.986 3.08967 100.831 3.00566C100.755 3.09105 100.678 3.17644 100.679 3.30382C100.679 3.34629 100.834 3.38783 100.988 3.42937C101.066 3.42891 101.142 3.34352 100.986 3.0472C100.986 2.96228 101.063 2.91935 101.217 2.87597C101.371 2.87504 101.526 2.87412 101.912 2.87181C101.835 2.91474 101.758 2.9152 101.681 2.95812C101.758 3.00012 101.758 3.04259 101.836 3.04213C101.913 3.04166 102.067 3.04074 102.144 2.99782C102.067 2.95582 101.99 2.95628 101.68 2.91566C101.68 2.83074 101.679 2.74581 101.679 2.66088C101.525 2.70427 101.448 2.74719 101.293 2.79058C101.216 2.79104 101.216 2.8335 101.217 2.87597ZM74.9599 3.79723C75.1141 3.75384 75.1914 3.75338 75.3456 3.70999C75.2681 3.66799 75.1906 3.62599 75.1134 3.62645C74.9589 3.62738 74.8047 3.67076 74.6502 3.67169C74.7277 3.71369 74.8049 3.71323 75.8078 3.49491C75.6535 3.5383 75.5763 3.53876 75.4221 3.58215C75.4996 3.62415 75.5771 3.66615 75.6543 3.66569C75.8088 3.66476 75.963 3.62138 76.1175 3.62045C76.04 3.57845 75.9628 3.57891 74.9599 3.79723ZM162.785 3.95183L162.785 3.90937C162.708 3.90983 162.63 3.91029 162.631 3.95275C162.631 3.95275 162.631 3.99521 162.631 4.03768C162.708 4.03722 162.708 3.99475 163.248 3.77921C163.093 3.82259 163.016 3.82306 162.862 3.86644C162.939 3.90844 163.017 3.95044 163.094 3.94998C163.249 3.94906 163.403 3.90567 163.557 3.90475C163.48 3.82029 163.402 3.77829 162.785 3.95183ZM35.8639 1.86519C35.7864 1.82318 35.7861 1.78072 35.7089 1.78118C35.5541 1.73964 35.3224 1.74103 35.3234 1.91088C35.3237 1.95334 35.4012 1.99534 35.4014 2.03781C35.5557 1.99442 35.7099 1.95103 36.2488 1.65056C36.0946 1.69395 36.0173 1.69441 35.8631 1.7378C35.9406 1.7798 36.0181 1.8218 36.0953 1.82134C36.2498 1.82041 36.404 1.77703 36.5585 1.77611C36.481 1.73411 36.4038 1.73457 35.8639 1.86519ZM86.8538 3.5563C86.699 3.51476 86.6215 3.47276 86.5443 3.47322C86.467 3.47368 86.3901 3.5166 86.3128 3.51706C86.3906 3.60153 86.4681 3.64353 86.623 3.72753C86.7 3.68461 86.777 3.64168 87.4691 3.12798C87.1599 3.08736 86.7747 3.25952 86.853 3.42891C86.8532 3.47137 86.9307 3.51337 86.9307 3.51337C87.1622 3.46952 87.3164 3.42614 87.5476 3.33983C87.6249 3.33937 87.6244 3.25444 87.6241 3.21198C87.5466 3.16998 87.4691 3.12798 86.8538 3.5563ZM128.954 4.11153C128.877 4.11199 128.877 4.15446 128.8 4.15492C128.8 4.19738 128.877 4.19692 128.878 4.23938C128.955 4.19646 128.955 4.19646 129.032 4.15353C129.032 4.15353 128.954 4.11153 128.801 4.32477C128.723 4.24031 128.646 4.1983 128.568 4.11384C128.49 4.07184 128.644 3.90107 128.413 3.98738C128.258 4.03076 128.182 4.15861 128.105 4.244C128.337 4.32754 128.492 4.41154 128.724 4.45262C128.647 4.41062 128.724 4.41016 128.954 4.11153ZM83.6803 2.47119C83.6031 2.47165 83.6034 2.51412 83.5261 2.51458C83.5264 2.55704 83.6036 2.55658 83.6039 2.59904C83.6808 2.55612 83.6809 2.55612 83.7578 2.51319C83.7578 2.51319 83.6803 2.47119 83.7594 2.76797C83.3721 2.60043 83.2169 2.47396 83.0622 2.43242C82.9077 2.43334 82.7537 2.51919 82.5998 2.60504C82.832 2.68858 83.0642 2.77212 83.3737 2.8552C83.2967 2.89813 83.4507 2.81228 83.6803 2.47119ZM49.4861 6.49731C49.6406 6.49638 49.7179 6.49592 49.8726 6.53746C50.3365 6.61962 50.6445 6.44792 50.9527 6.31868C51.0297 6.27576 50.9519 6.1913 50.8744 6.1493C50.8742 6.10683 50.7199 6.15022 50.6425 6.10822C50.5675 6.49084 50.1803 6.3233 49.7938 6.28315C49.6391 6.24161 49.4074 6.24299 49.2532 6.28638C49.0987 6.2873 49.0222 6.41515 48.9452 6.45807C49.0227 6.50008 49.1772 6.49915 49.2547 6.54115C49.2542 6.45623 49.3314 6.45577 49.4861 6.49731ZM86.7051 4.53386C86.4726 4.40786 86.2402 4.28185 86.1629 4.28232C85.9312 4.2837 85.623 4.41293 85.3918 4.49924L85.392 4.54171C85.6243 4.62525 85.8567 4.75125 86.166 4.79187C86.2432 4.79141 86.4739 4.62017 86.7051 4.53386ZM86.6187 3.00567C86.5415 3.00613 86.464 2.96413 86.464 2.96413C86.0016 3.13675 85.8466 3.05274 85.9223 2.79751C85.9983 2.58473 85.6896 2.62904 85.4579 2.63043C85.3806 2.63089 85.3036 2.67381 85.2267 2.71674C85.6136 2.84182 85.4609 3.13998 86.0021 3.22167C86.311 3.21983 86.5428 3.21844 86.6187 3.00567ZM54.1774 3.07214C54.023 3.07306 53.9457 3.07352 53.7912 3.07444C53.714 3.07491 53.6368 3.07537 53.5598 3.11829L53.56 3.16075C53.6385 3.37261 54.3334 3.32599 54.1807 3.62415C54.258 3.62369 54.335 3.58077 54.4122 3.5803C54.4889 3.49492 54.6429 3.40907 54.7196 3.32368C54.7194 3.28122 54.7189 3.19629 54.6414 3.15429C54.5636 3.06983 54.3319 3.07121 54.1774 3.07214ZM87.9546 6.81946C87.4904 6.69484 87.4119 6.48299 87.4104 6.22821C87.3332 6.22867 87.2562 6.2716 87.179 6.27206C86.7938 6.44422 87.1815 6.69669 87.0283 6.90992C87.1055 6.90946 87.1828 6.909 87.26 6.90854C87.4917 6.90715 87.6459 6.86377 87.9546 6.81946ZM49.5372 2.12319C49.2285 2.1675 48.8426 2.21227 48.3794 2.2575C48.6894 2.42551 49.0758 2.46566 49.461 2.2935C49.461 2.2935 49.6935 2.4195 49.7707 2.41904C49.848 2.41858 50.0022 2.3752 50.002 2.33273C50.0017 2.29027 50.0012 2.20535 49.9237 2.16334C49.9237 2.16334 49.7692 2.16427 49.5372 2.12319ZM98.6686 3.01859C98.6688 3.06105 98.6686 3.01859 98.6683 2.97612C98.7448 2.84827 98.6671 2.76381 98.4353 2.7652C98.1264 2.76704 98.2046 2.93643 98.2051 3.02136C98.2056 3.10628 98.2834 3.19075 98.4381 3.23229C98.5156 3.27429 98.6701 3.27336 98.8248 3.3149C98.7468 3.18798 98.7466 3.14551 98.6686 3.01859ZM170.814 3.30935C170.815 3.35181 170.815 3.39427 170.815 3.39427C171.124 3.43489 171.433 3.47551 171.665 3.47412C171.665 3.43166 171.664 3.34673 171.587 3.34719C171.432 3.30566 171.2 3.22212 170.968 3.2235C170.968 3.2235 170.892 3.30889 170.814 3.30935ZM93.8055 3.55722C93.7286 3.60014 93.6513 3.6006 93.6516 3.64307C93.5751 3.77092 93.4984 3.8563 93.4219 3.98415C93.4221 4.02662 93.4996 4.06862 93.4999 4.11108C93.5769 4.06815 93.6541 4.06769 93.6539 4.02523C93.7303 3.89738 93.8071 3.81199 93.8835 3.68414C93.8833 3.64168 93.8058 3.59968 93.8055 3.55722ZM92.3527 6.02882C92.1977 5.94482 92.197 5.81743 92.1197 5.81789C91.8878 5.77682 91.7338 5.86266 91.8118 5.98959C91.8123 6.07452 91.8898 6.11652 91.9675 6.20098C91.967 6.11606 92.1213 6.07267 92.3527 6.02882ZM119.834 3.18936C119.834 3.23182 119.912 3.27382 119.912 3.35875C120.066 3.2729 120.22 3.18705 120.297 3.0592C120.297 3.0592 120.142 2.9752 120.064 2.9332C119.987 2.93366 119.91 2.93412 119.833 2.97704C119.91 3.01904 119.833 3.10443 119.834 3.18936ZM80.3715 4.57171C80.2175 4.65756 79.986 4.7014 80.3725 4.74156C80.4497 4.7411 80.5265 4.65571 80.6032 4.57032C80.603 4.52786 80.6799 4.48494 80.6024 4.44294C80.525 4.40094 80.4475 4.35893 80.37 4.31693C80.2152 4.27539 80.061 4.31878 80.2162 4.44524C80.371 4.48678 80.3712 4.52925 80.3715 4.57171ZM73.72 3.12521C73.4886 3.16906 73.4116 3.21198 73.3346 3.25491C73.4896 3.33891 73.5673 3.42337 73.722 3.46491C73.7993 3.46445 73.8763 3.42153 73.9533 3.3786C73.8755 3.29414 73.7978 3.20967 73.72 3.12521ZM95.0599 6.64961L95.0602 6.69207C95.3691 6.69022 95.6783 6.73084 95.91 6.72946C95.9098 6.68699 95.9095 6.64453 95.8323 6.64499C95.7548 6.60299 95.6001 6.56145 95.5228 6.56191C95.3684 6.56284 95.2144 6.64868 95.0599 6.64961ZM89.1895 6.64222C89.1892 6.59976 89.1895 6.64222 89.1125 6.68515C89.1127 6.72761 89.113 6.77007 89.1905 6.81207C89.3452 6.85361 89.5769 6.85223 89.7314 6.85131C89.8086 6.85084 89.8081 6.76592 89.8849 6.68053C89.8076 6.68099 89.7301 6.63899 89.6529 6.63945C89.4984 6.64038 89.4212 6.64084 89.1895 6.64222ZM66.7657 2.69966C66.6112 2.70059 66.6112 2.70059 66.534 2.70105C66.5347 2.82844 66.5355 2.95582 66.536 3.04075C66.6132 3.04029 66.7677 3.03936 66.845 3.0389C66.8442 2.91151 66.7664 2.82705 66.7657 2.69966ZM72.4229 5.80821C72.5779 5.89221 72.7329 5.97621 72.8879 6.06021C72.9649 6.01729 72.9644 5.93236 72.9641 5.8899C73.0406 5.76205 73.0401 5.67712 72.7311 5.67897C72.6539 5.67943 72.5772 5.76482 72.4229 5.80821ZM168.197 4.76877C168.042 4.64231 167.964 4.55784 167.887 4.60077C167.656 4.64462 167.502 4.73046 167.27 4.77431C167.348 4.81631 167.502 4.85785 167.58 4.85739C167.811 4.81354 167.965 4.77016 168.197 4.76877ZM137.684 4.44154C137.529 4.35754 137.452 4.27307 137.374 4.27354C137.22 4.27446 137.143 4.35984 137.066 4.40277C137.066 4.40277 137.144 4.5297 137.221 4.52923C137.376 4.52831 137.53 4.48493 137.684 4.44154ZM80.8255 2.99782C80.9805 3.08182 81.058 3.12382 81.2127 3.16536C81.29 3.1649 81.367 3.12198 81.444 3.07905C81.3665 3.03705 81.2887 2.95259 81.2112 2.91059C81.1337 2.86859 81.057 2.95397 80.8255 2.99782ZM83.0876 6.67869C82.9326 6.59469 82.8548 6.51022 82.7776 6.51068C82.6231 6.51161 82.5461 6.55453 82.4694 6.63992C82.4694 6.63992 82.5474 6.76684 82.6246 6.76638C82.7791 6.76546 82.8561 6.72253 83.0876 6.67869ZM180.879 7.11345C180.724 7.11437 180.57 7.15776 180.493 7.15822C180.57 7.24268 180.726 7.36915 180.803 7.32622C180.957 7.3253 181.111 7.23945 181.265 7.19606C181.034 7.19745 180.956 7.15545 180.879 7.11345ZM135.674 4.02891C135.906 4.06999 135.983 4.06953 136.137 4.06861C136.215 4.06815 136.369 4.02476 136.446 4.0243C136.368 3.9823 136.291 3.89783 136.214 3.89829C136.136 3.85629 136.059 3.85675 135.982 3.89968C135.905 3.90014 135.828 3.94307 135.674 4.02891ZM62.6123 5.65451C62.7673 5.73851 62.8447 5.78051 62.9995 5.82205C63.0767 5.82159 63.1537 5.77867 63.2307 5.73574C63.1532 5.69374 63.0754 5.60928 62.998 5.56728C62.9207 5.56774 62.7665 5.61113 62.6123 5.65451ZM95.0617 6.94685C94.9077 7.03269 94.8307 7.07562 94.6767 7.16147L94.7545 7.24593C94.986 7.20208 95.1402 7.1587 95.3716 7.11485C95.2942 7.07285 95.2167 7.03085 95.0617 6.94685ZM71.8678 3.39106C71.79 3.3066 71.7126 3.2646 71.6351 3.2226C71.4808 3.26598 71.3269 3.35183 71.3271 3.3943C71.3276 3.47922 71.4824 3.52076 71.6373 3.60476C71.6368 3.51984 71.7138 3.47691 71.8678 3.39106ZM96.2187 6.68515C96.3735 6.72669 96.451 6.76869 96.6057 6.81023C96.6829 6.80976 96.8374 6.80884 96.9144 6.76592C96.7594 6.68192 96.5272 6.59837 96.3722 6.51437C96.3727 6.5993 96.2957 6.64222 96.2187 6.68515ZM42.9157 5.68729C42.9932 5.72929 43.071 5.81375 43.0712 5.85621C43.1482 5.81329 43.1477 5.72836 43.1474 5.6859C43.1469 5.60098 43.0694 5.55897 43.0689 5.47405C43.0692 5.51651 42.9925 5.6019 42.9157 5.68729ZM84.3933 5.43942C84.3155 5.35496 84.1608 5.31342 84.083 5.22896C84.006 5.27188 83.9293 5.35727 83.9296 5.39973C84.0071 5.44173 84.1618 5.48327 84.2393 5.52527C84.3163 5.48235 84.3933 5.43942 84.3933 5.43942ZM171.52 5.08863C171.443 5.00416 171.442 4.9617 171.442 4.91924C171.288 4.96262 171.134 5.04847 170.98 5.09186C171.057 5.13386 171.135 5.17586 171.135 5.17586C171.289 5.13247 171.366 5.08955 171.52 5.08863ZM64.4642 5.3462C64.3872 5.38912 64.3103 5.43204 64.2335 5.51743C64.2338 5.55989 64.234 5.60236 64.3115 5.64436C64.4658 5.60097 64.6197 5.51512 64.774 5.47174C64.6192 5.4302 64.6192 5.4302 64.4642 5.3462ZM84.0701 3.06336C83.9929 3.06382 83.9159 3.10675 83.9159 3.10675C83.9164 3.19167 83.9941 3.27614 84.0716 3.31814C84.0716 3.31814 84.3031 3.27429 84.3803 3.27383C84.2253 3.18983 84.1478 3.14782 84.0701 3.06336ZM116.743 2.95304C116.665 2.86858 116.665 2.82612 116.665 2.78365C116.51 2.82704 116.356 2.91289 116.202 2.95627C116.28 2.99827 116.357 3.04028 116.357 3.04028C116.511 2.99689 116.588 2.95397 116.743 2.95304ZM78.6839 6.53515C78.6069 6.57807 78.5302 6.66346 78.5304 6.70592C78.5307 6.74838 78.6082 6.79038 78.6084 6.83285C78.7624 6.747 78.8394 6.70407 78.9934 6.61823C78.9159 6.57622 78.8386 6.57669 78.6839 6.53515ZM124.1 6.09389C123.791 6.1382 123.636 6.13913 123.482 6.14005C123.559 6.18205 123.637 6.22405 123.714 6.22359C123.869 6.22267 124.023 6.22174 124.178 6.22082C124.1 6.17882 124.1 6.13636 124.1 6.09389ZM77.351 3.23091C77.2738 3.23137 77.1968 3.27429 77.1968 3.27429C77.1973 3.35922 77.2751 3.44368 77.3525 3.48568C77.3525 3.48568 77.584 3.44183 77.6613 3.44137C77.5838 3.39937 77.4288 3.31537 77.351 3.23091ZM102.085 6.01313C102.007 5.92866 102.007 5.84374 101.929 5.75927C101.852 5.8022 101.775 5.84512 101.776 5.93005C101.776 6.01497 101.854 6.09944 101.854 6.18436C101.931 6.09898 102.008 6.05605 102.085 6.01313ZM68.017 5.2825C67.8628 5.32589 67.7855 5.32635 67.7083 5.32681C67.786 5.41127 67.941 5.49527 68.0188 5.57974C68.0958 5.53681 68.1727 5.49389 68.1727 5.49389C68.1722 5.40896 68.0945 5.3245 68.017 5.2825ZM143.636 5.0854C143.558 5.00094 143.403 4.9594 143.326 4.87493C143.249 4.91786 143.172 5.00325 143.172 5.04571C143.25 5.08771 143.404 5.12925 143.482 5.17125C143.482 5.12879 143.559 5.08586 143.636 5.0854ZM58.2922 6.57207C58.3697 6.61408 58.4472 6.65608 58.6019 6.69762C58.6792 6.69716 58.7564 6.69669 58.8334 6.65377C58.7556 6.56931 58.6006 6.4853 58.5229 6.40084C58.4459 6.44376 58.3689 6.48669 58.2922 6.57207ZM96.5092 3.58353C96.3552 3.66937 96.2782 3.7123 96.1243 3.79815C96.2015 3.79769 96.279 3.83969 96.279 3.83969C96.356 3.79676 96.5102 3.75338 96.5872 3.71045C96.5869 3.66799 96.5094 3.62599 96.5092 3.58353ZM151.835 6.9473C151.758 6.99022 151.681 7.07561 151.681 7.11807C151.681 7.16053 151.759 7.20253 151.759 7.24499C151.913 7.15915 151.99 7.11622 152.144 7.03037C151.989 6.98883 151.989 6.98883 151.835 6.9473ZM96.2124 5.62358C96.2901 5.70804 96.2907 5.79297 96.3684 5.87743C96.4454 5.83451 96.5224 5.79158 96.5219 5.70666C96.5214 5.62173 96.4436 5.53727 96.4431 5.45234C96.2891 5.53819 96.2894 5.58066 96.2124 5.62358ZM73.8163 6.30945C73.739 6.30991 73.6621 6.35283 73.6621 6.35283C73.6626 6.43776 73.7403 6.52222 73.8178 6.56423C73.8178 6.56423 74.0493 6.52038 74.1265 6.51992C74.0488 6.43545 73.894 6.39391 73.8163 6.30945ZM143.567 6.57206C143.722 6.65606 143.8 6.69806 143.955 6.78206C143.955 6.7396 144.032 6.69667 144.032 6.69667C143.954 6.65467 143.876 6.57021 143.799 6.52821C143.799 6.52821 143.645 6.57159 143.567 6.57206ZM146.097 3.37212C146.175 3.45659 146.175 3.49905 146.253 3.54105C146.407 3.4552 146.484 3.41228 146.638 3.32643C146.561 3.32689 146.483 3.28489 146.483 3.28489C146.329 3.28581 146.252 3.32874 146.097 3.37212ZM177.839 2.54548C177.839 2.63041 177.917 2.71487 177.917 2.75733C177.994 2.71441 178.071 2.62902 178.071 2.58656C178.071 2.5441 178.07 2.45917 178.07 2.41671C177.993 2.45963 177.916 2.50256 177.839 2.54548ZM81.8471 5.92174C82.0014 5.87836 82.0786 5.8779 82.1556 5.83497C82.0006 5.75097 81.9231 5.70897 81.7681 5.62497C81.7684 5.66743 81.6914 5.71035 81.6914 5.71035C81.6922 5.83774 81.7697 5.87974 81.8471 5.92174ZM121.858 5.8525C121.858 5.76758 121.78 5.68311 121.78 5.64065C121.703 5.68358 121.626 5.76896 121.626 5.81143C121.626 5.85389 121.627 5.93881 121.627 5.98128C121.704 5.93835 121.781 5.89543 121.858 5.8525ZM145.028 5.41679C145.183 5.5008 145.261 5.5428 145.416 5.6268C145.415 5.58434 145.492 5.54141 145.492 5.54141C145.415 5.49941 145.337 5.41495 145.26 5.37295C145.182 5.37341 145.105 5.41633 145.028 5.41679ZM93.3556 5.81051C93.2786 5.85343 93.2016 5.89636 93.2018 5.93882C93.2021 5.98128 93.2798 6.06575 93.2801 6.10821C93.3571 6.06528 93.4343 6.06482 93.4341 6.02236C93.4338 5.9799 93.4333 5.89497 93.3556 5.81051ZM94.1244 5.21142C94.1249 5.29634 94.0479 5.33927 94.0482 5.38173C94.0482 5.38173 94.1257 5.42373 94.2029 5.42327C94.2799 5.38034 94.2794 5.29542 94.2791 5.25296C94.2794 5.29542 94.2019 5.25342 94.1244 5.21142ZM97.8985 3.40537C97.899 3.49029 97.822 3.53322 97.8222 3.57568C97.8222 3.57568 97.8997 3.61768 97.977 3.61722C98.054 3.57429 98.0535 3.48937 98.0532 3.44691C98.1304 3.44644 97.9757 3.40491 97.8985 3.40537ZM101.319 7.07931C101.242 7.12223 101.165 7.1227 101.088 7.16562C101.165 7.20762 101.243 7.24962 101.397 7.2487C101.475 7.24824 101.552 7.20531 101.629 7.20485C101.474 7.12085 101.397 7.12131 101.319 7.07931ZM101.395 6.82407C101.395 6.78161 101.317 6.73961 101.317 6.65468C101.24 6.69761 101.162 6.69807 101.163 6.74053C101.163 6.78299 101.241 6.86746 101.241 6.90992C101.318 6.90946 101.395 6.86653 101.395 6.82407ZM101.857 6.56653C101.857 6.56653 101.78 6.65191 101.78 6.69438C101.857 6.69391 101.935 6.73592 101.935 6.73592C102.012 6.73545 102.089 6.69253 102.166 6.64961C102.089 6.6076 102.011 6.60807 101.857 6.56653ZM102.928 4.8191C102.696 4.86294 102.696 4.86294 102.619 4.8634C102.696 4.90541 102.774 4.94741 102.851 4.94694C102.928 4.94648 103.006 4.94602 103.083 4.9031C102.928 4.90402 102.928 4.86156 102.928 4.8191ZM104.081 3.96292C104.081 3.96292 104.004 4.04831 104.005 4.09077C104.082 4.09031 104.159 4.13231 104.159 4.13231C104.237 4.13185 104.314 4.08892 104.391 4.046C104.313 4.04646 104.236 4.00446 104.081 3.96292ZM105.463 2.59581C105.54 2.55288 105.618 2.55242 105.695 2.50949C105.617 2.46749 105.54 2.42549 105.385 2.42642C105.308 2.42688 105.231 2.4698 105.154 2.47026C105.308 2.5118 105.386 2.5538 105.463 2.59581ZM106.623 2.75873C106.546 2.75919 106.469 2.80212 106.314 2.80304C106.392 2.84504 106.392 2.8875 106.469 2.88704C106.546 2.88658 106.701 2.8432 106.778 2.84273C106.778 2.80027 106.7 2.80073 106.623 2.75873ZM105.95 6.41468C106.027 6.45668 106.028 6.5416 106.028 6.5416C106.105 6.54114 106.259 6.54022 106.336 6.49729C106.336 6.45483 106.259 6.41283 106.259 6.41283C106.181 6.41329 106.104 6.41375 105.95 6.41468ZM106.63 3.86276C106.707 3.90476 106.708 3.98969 106.708 3.98969C106.785 3.98923 106.939 3.9883 107.016 3.94538C107.016 3.90292 106.939 3.86092 106.939 3.86092C106.939 3.86092 106.784 3.86184 106.63 3.86276ZM37.67 6.8227C37.747 6.77978 37.8243 6.77932 37.9013 6.73639C37.8238 6.69439 37.7463 6.65239 37.5918 6.65331C37.5146 6.65377 37.4376 6.6967 37.3603 6.69716C37.4378 6.73916 37.5926 6.7807 37.67 6.8227ZM38.6668 5.58528C38.4353 5.62913 38.4353 5.62913 38.3581 5.62959C38.4356 5.67159 38.5131 5.71359 38.5903 5.71313C38.6676 5.71267 38.7448 5.71221 38.8218 5.66929C38.7445 5.66975 38.6671 5.62775 38.6668 5.58528ZM109.116 6.31083C109.039 6.31129 108.961 6.31175 108.961 6.31175C108.962 6.35421 108.962 6.43914 108.962 6.4816L109.117 6.48068C109.117 6.43821 109.116 6.39575 109.116 6.31083ZM42.9752 2.71444C42.9752 2.71444 42.8985 2.79982 42.8987 2.84229C42.976 2.84183 43.0535 2.88383 43.0535 2.88383C43.1307 2.88336 43.2077 2.84044 43.2847 2.79752C43.2074 2.79798 43.1299 2.75598 42.9752 2.71444ZM133.657 2.63965C133.657 2.63965 133.812 2.68119 133.889 2.68072C133.889 2.63826 133.966 2.59534 133.966 2.59534C133.965 2.55287 133.888 2.51087 133.81 2.46887C133.811 2.51134 133.811 2.5538 133.657 2.63965ZM46.8476 4.43233C46.7706 4.47525 46.6936 4.51818 46.6939 4.56064C46.6941 4.6031 46.7719 4.68757 46.7721 4.73003C46.8491 4.6871 46.9263 4.68664 46.9261 4.64418C46.9256 4.55925 46.8478 4.47479 46.8476 4.43233ZM47.2325 4.21771C47.31 4.25971 47.3105 4.34463 47.3105 4.34463C47.3877 4.34417 47.5422 4.34325 47.6192 4.30032C47.619 4.25786 47.5415 4.21586 47.5415 4.21586C47.4642 4.21632 47.387 4.21678 47.2325 4.21771ZM135.301 6.36667C135.379 6.40867 135.379 6.49359 135.379 6.49359C135.457 6.49313 135.611 6.49221 135.688 6.44929C135.688 6.40682 135.61 6.36482 135.61 6.36482C135.533 6.36528 135.379 6.36621 135.301 6.36667ZM49.1729 5.77729C49.1726 5.73482 49.0951 5.69282 49.0946 5.6079C49.0176 5.65082 48.9404 5.65128 48.9406 5.69375C48.9409 5.73621 49.0186 5.82067 49.0189 5.86313C49.0189 5.86313 49.0961 5.86267 49.1729 5.77729ZM144.339 6.44005C144.417 6.48205 144.417 6.56698 144.417 6.56698C144.494 6.56652 144.649 6.56559 144.726 6.52267C144.726 6.48021 144.648 6.43821 144.648 6.43821C144.648 6.43821 144.494 6.43913 144.339 6.44005ZM150.893 4.40507C150.893 4.40507 151.047 4.44661 151.125 4.44615C151.124 4.40369 151.201 4.36077 151.201 4.36077C151.201 4.3183 151.123 4.2763 151.046 4.2343C150.969 4.23476 150.969 4.27722 150.893 4.40507ZM151.903 5.5031C151.981 5.5451 151.981 5.63003 151.981 5.63003C152.058 5.62957 152.213 5.62864 152.29 5.58572C152.29 5.54326 152.212 5.50126 152.212 5.50126C152.212 5.45879 152.058 5.50218 151.903 5.5031ZM158.142 2.57825C158.22 2.62026 158.297 2.66226 158.375 2.6618C158.452 2.66133 158.606 2.61795 158.683 2.61749C158.606 2.57549 158.606 2.53302 158.528 2.53348C158.374 2.57687 158.22 2.57779 158.142 2.57825ZM61.0505 2.81874C60.9725 2.69182 60.9725 2.69182 60.9722 2.64935C60.8952 2.69228 60.8183 2.7352 60.8185 2.77767C60.8188 2.82013 60.819 2.86259 60.8965 2.90459C60.9735 2.86167 61.0505 2.81874 61.0505 2.81874ZM62.1308 2.64243C61.8994 2.68628 61.8994 2.68628 61.8221 2.68674C61.8996 2.72874 61.9771 2.77074 62.0543 2.77028C62.1316 2.76982 62.2088 2.76936 62.2858 2.72643C62.2086 2.7269 62.2083 2.68443 62.1308 2.64243ZM64.0803 5.73067C64.0803 5.73067 64.0036 5.81605 64.0038 5.85852C64.0811 5.85805 64.1586 5.90006 64.1586 5.90006C64.2358 5.89959 64.3128 5.85667 64.3898 5.81375C64.3125 5.81421 64.2351 5.77221 64.0803 5.73067ZM175.01 7.4033C175.01 7.36084 174.932 7.31884 174.932 7.23391C174.855 7.27684 174.778 7.2773 174.778 7.31976C174.778 7.36222 174.856 7.44669 174.856 7.48915C174.856 7.48915 174.933 7.44623 175.01 7.4033ZM176.687 3.65643C176.61 3.65689 176.533 3.69982 176.378 3.70074C176.456 3.74274 176.456 3.78521 176.533 3.78474C176.61 3.78428 176.765 3.7409 176.842 3.74043C176.842 3.74043 176.764 3.69843 176.687 3.65643ZM181.959 6.9796C181.805 6.98052 181.727 6.93852 181.65 6.93898C181.65 6.93898 181.573 6.98191 181.573 7.02437C181.651 7.06637 181.805 7.06545 181.883 7.06498C181.805 7.06545 181.882 7.02252 181.959 6.9796ZM187.674 6.73313C187.519 6.73405 187.442 6.69205 187.364 6.69251C187.364 6.69251 187.287 6.73544 187.288 6.7779C187.365 6.8199 187.52 6.81898 187.597 6.81851C187.52 6.81898 187.597 6.77605 187.674 6.73313ZM188.825 5.57971C188.671 5.58064 188.593 5.53863 188.516 5.5391C188.516 5.5391 188.439 5.58202 188.439 5.62448C188.517 5.66648 188.671 5.66556 188.749 5.6651C188.749 5.6651 188.826 5.62217 188.825 5.57971ZM67.7896 6.00575C67.6351 6.00667 67.5576 5.96467 67.4804 5.96513C67.4804 5.96513 67.4034 6.00806 67.4036 6.05052C67.4811 6.09252 67.6356 6.0916 67.7129 6.09114C67.7129 6.09114 67.7126 6.04867 67.7896 6.00575ZM68.9418 4.93726C68.8648 4.98018 68.7879 5.02311 68.7881 5.06557C68.7884 5.10803 68.8661 5.1925 68.8664 5.23496C68.9434 5.19204 69.0206 5.19157 69.0203 5.14911C68.9426 5.06465 68.9421 4.97972 68.9418 4.93726ZM70.1815 5.56681C70.182 5.65174 70.105 5.69466 70.1052 5.73713C70.1052 5.73713 70.1827 5.77913 70.26 5.77867C70.337 5.73574 70.3365 5.65082 70.3362 5.60835C70.3362 5.60835 70.259 5.60882 70.1815 5.56681ZM71.3459 6.53653C71.2689 6.57946 71.1917 6.57992 71.1147 6.62284C71.1922 6.66484 71.2697 6.70684 71.4242 6.70592C71.5014 6.70546 71.5784 6.66254 71.6556 6.66207C71.5781 6.62007 71.4234 6.57853 71.3459 6.53653ZM240.126 7.60868C239.895 7.65252 239.895 7.65253 239.818 7.65299C239.895 7.69499 239.973 7.73699 240.05 7.73653C240.127 7.73607 240.204 7.7356 240.281 7.69268C240.127 7.65114 240.126 7.60868 240.126 7.60868ZM74.1034 2.65581C73.9489 2.65674 73.8714 2.61474 73.7942 2.6152C73.7942 2.6152 73.7172 2.65812 73.7175 2.70058C73.795 2.74259 73.9494 2.74166 74.0267 2.7412C74.0269 2.78366 74.0267 2.7412 74.1034 2.65581ZM252.792 7.23574C252.715 7.27867 252.56 7.27959 252.56 7.27959C252.561 7.32205 252.561 7.40698 252.639 7.44898C252.716 7.44852 252.793 7.40559 252.793 7.40559C252.793 7.36313 252.792 7.27821 252.792 7.23574ZM73.5805 5.63143C73.6575 5.58851 73.7347 5.58805 73.8117 5.54512C73.7342 5.50312 73.6567 5.46112 73.5023 5.46204C73.425 5.4625 73.348 5.50543 73.2708 5.50589C73.4255 5.54743 73.503 5.58943 73.5805 5.63143ZM76.8053 2.38488C76.7283 2.42781 76.6513 2.47073 76.6516 2.51319C76.6518 2.55566 76.7296 2.64012 76.7298 2.68258C76.8068 2.63966 76.884 2.6392 76.8838 2.59673C76.8833 2.51181 76.8055 2.42735 76.8053 2.38488ZM76.9054 6.20606C76.7509 6.20698 76.6734 6.16498 76.5961 6.16544C76.5961 6.16544 76.5192 6.20837 76.5194 6.25083C76.5969 6.29283 76.7514 6.29191 76.8286 6.29145C76.7514 6.29191 76.8284 6.24899 76.9054 6.20606ZM79.2066 3.51707C79.1286 3.39014 79.1286 3.39014 79.1283 3.34768C79.0513 3.3906 78.9743 3.43353 78.9746 3.47599C78.9748 3.51845 78.9751 3.56091 79.0526 3.60291C79.0523 3.56045 79.1293 3.51753 79.2066 3.51707ZM80.2094 3.29875C80.1314 3.17183 80.1314 3.17183 80.1311 3.12936C80.0542 3.17229 79.9772 3.21521 79.9774 3.25767C79.9777 3.30014 79.9779 3.3426 80.0554 3.3846C80.0552 3.34214 80.1322 3.29921 80.2094 3.29875ZM81.383 5.79713C81.2285 5.79805 81.151 5.75605 81.0737 5.75651C81.0737 5.75651 80.9968 5.79943 80.997 5.8419C81.0745 5.8839 81.229 5.88297 81.3062 5.88251C81.3062 5.88251 81.306 5.84005 81.383 5.79713ZM86.3263 5.76759C86.1718 5.76851 86.0943 5.72651 86.0171 5.72697C86.0171 5.72697 85.9401 5.76989 85.9403 5.81236C86.0178 5.85436 86.1723 5.85343 86.2495 5.85297C86.2495 5.85297 86.2493 5.81051 86.3263 5.76759ZM34.2662 5.95129C34.1889 5.95176 34.1892 5.99422 34.112 5.99468L34.1895 6.03668C34.2667 6.03622 34.2667 6.03622 34.3437 5.9933C34.2664 5.99376 34.2662 5.95129 34.2662 5.95129ZM42.6131 6.7507C42.6904 6.75024 42.6901 6.70777 42.7673 6.70731L42.6898 6.66531C42.6126 6.66577 42.6126 6.66577 42.5356 6.7087C42.5359 6.75116 42.6131 6.7507 42.6131 6.7507ZM43.5303 5.13158L43.4528 5.08958C43.4531 5.13204 43.3759 5.1325 43.3761 5.17496L43.4536 5.21697C43.4534 5.1745 43.5303 5.13158 43.5303 5.13158ZM44.5436 6.65423C44.5438 6.6967 44.6211 6.69624 44.6213 6.7387L44.6983 6.69577C44.6981 6.65331 44.6981 6.65331 44.6206 6.61131C44.6208 6.65377 44.6208 6.65377 44.5436 6.65423ZM45.7774 6.30715L45.6999 6.26515C45.7001 6.30761 45.6229 6.30807 45.6232 6.35053L45.7007 6.39253C45.7007 6.39253 45.7776 6.34961 45.7774 6.30715ZM46.0841 5.92314C46.0068 5.9236 46.0071 5.96606 45.9298 5.96652L46.0073 6.00852C46.0846 6.00806 46.0846 6.00806 46.1616 5.96514C46.0841 5.92314 46.0841 5.92314 46.0841 5.92314ZM46.3178 6.26145L46.3953 6.30346C46.4725 6.30299 46.4725 6.30299 46.5495 6.26007L46.472 6.21807C46.472 6.21807 46.3948 6.21853 46.3178 6.26145ZM46.6972 5.11265C46.6199 5.11312 46.6202 5.15558 46.5429 5.15604L46.6204 5.19804C46.6977 5.19758 46.6977 5.19758 46.7746 5.15465C46.7746 5.15465 46.6974 5.15512 46.6972 5.11265ZM47.7081 6.25315L47.6311 6.29607C47.6314 6.33853 47.6314 6.33853 47.7089 6.38053L47.7859 6.33761C47.7084 6.29561 47.7084 6.29561 47.7081 6.25315ZM48.1743 6.71747L48.0969 6.67546C48.0971 6.71793 48.0199 6.71839 48.0201 6.76085L48.0976 6.80285C48.0974 6.76039 48.1746 6.75993 48.1743 6.71747ZM51.2383 2.41027L51.1608 2.36827C51.1611 2.41074 51.0838 2.4112 51.0841 2.45366L51.1616 2.49566C51.1613 2.4532 51.1613 2.4532 51.2383 2.41027ZM51.862 3.38322L51.7851 3.42615C51.8623 3.42568 51.8625 3.46815 51.9398 3.46769L52.0168 3.42476C52.0168 3.42476 51.9393 3.38276 51.862 3.38322ZM59.663 3.29414L59.5855 3.25214C59.5857 3.2946 59.5085 3.29506 59.5087 3.33753L59.5862 3.37953C59.586 3.33707 59.663 3.29414 59.663 3.29414ZM60.0606 5.20265L59.9831 5.16065C59.9833 5.20312 59.9061 5.20358 59.9064 5.24604L59.9838 5.28804C59.9836 5.24558 59.9833 5.20311 60.0606 5.20265ZM60.6086 6.43084C60.6089 6.4733 60.6861 6.47284 60.6864 6.5153L60.7633 6.47238C60.7631 6.42992 60.7631 6.42992 60.6856 6.38792C60.6859 6.43038 60.6859 6.43038 60.6086 6.43084ZM61.3724 4.98249C61.3726 5.02496 61.4499 5.02449 61.4501 5.06696L61.5271 5.02403C61.5269 4.98157 61.5269 4.98157 61.4494 4.93957C61.4496 4.98203 61.4496 4.98203 61.3724 4.98249ZM61.8444 6.42345L61.9219 6.46546C61.9217 6.42299 61.9989 6.42253 61.9987 6.38007L61.9212 6.33807C61.9214 6.38053 61.9214 6.38053 61.8444 6.42345ZM62.9146 4.54864L62.9921 4.59064C63.0694 4.59018 63.0694 4.59018 63.1463 4.54725L63.0689 4.50525C63.0689 4.50525 62.9919 4.54817 62.9146 4.54864ZM65.6167 4.32017C65.6165 4.2777 65.5392 4.27817 65.539 4.2357L65.462 4.27863C65.4623 4.32109 65.4623 4.32109 65.5398 4.36309L65.6167 4.32017ZM65.9968 3.29876L66.0738 3.25583C65.9966 3.25629 65.9963 3.21383 65.9191 3.21429L65.8421 3.25722C65.9193 3.25675 65.9966 3.25629 65.9968 3.29876ZM66.3965 5.54697L66.319 5.50497C66.3193 5.54743 66.242 5.54789 66.2423 5.59035L66.3198 5.63236C66.3195 5.58989 66.3193 5.54743 66.3965 5.54697ZM67.6219 3.79861L67.5449 3.84154C67.6222 3.84108 67.6224 3.88354 67.6997 3.88308L67.7766 3.84015C67.6994 3.84062 67.6222 3.84108 67.6219 3.79861ZM69.4038 4.67971L69.3268 4.72264C69.327 4.7651 69.327 4.7651 69.4045 4.8071L69.4815 4.76418C69.4815 4.76418 69.404 4.72218 69.4038 4.67971ZM69.6454 6.33437L69.7223 6.29145C69.6451 6.29191 69.6449 6.24945 69.5676 6.24991L69.4906 6.29283C69.5679 6.29237 69.5679 6.29237 69.6454 6.33437ZM49.4018 5.30881L49.3243 5.26681C49.3246 5.30927 49.2473 5.30974 49.2476 5.3522L49.3251 5.3942C49.4021 5.35128 49.4018 5.30881 49.4018 5.30881ZM72.4852 3.30245L72.4077 3.26045C72.408 3.30291 72.3307 3.30337 72.331 3.34583L72.4085 3.38783C72.4082 3.34537 72.4852 3.30245 72.4852 3.30245ZM74.7259 3.41645L74.8034 3.45845C74.8806 3.45799 74.8806 3.45799 74.9576 3.41506L74.8801 3.37306C74.8031 3.41599 74.8031 3.41599 74.7259 3.41645ZM75.5153 6.25683L75.4383 6.29976C75.5156 6.29929 75.5158 6.34176 75.5931 6.3413L75.67 6.29837C75.5928 6.29883 75.5156 6.29929 75.5153 6.25683ZM76.2084 5.91298C76.2087 5.95544 76.2859 5.95498 76.2862 5.99744L76.3632 5.95452C76.3629 5.91205 76.3629 5.91205 76.2854 5.87005C76.2857 5.91251 76.2857 5.91251 76.2084 5.91298ZM76.9633 2.97844L76.8858 2.93644C76.8861 2.9789 76.8088 2.97936 76.8091 3.02182L76.8866 3.06382C76.8863 3.02136 76.9636 3.0209 76.9633 2.97844ZM77.1925 2.55243L77.1155 2.59535C77.1927 2.59489 77.193 2.63735 77.2702 2.63689L77.3472 2.59397C77.27 2.59443 77.27 2.59443 77.1925 2.55243ZM77.9636 2.3355L77.8866 2.37842C77.9639 2.37796 77.9641 2.42042 78.0414 2.41996L78.1183 2.37704C78.0411 2.3775 78.0409 2.33503 77.9636 2.3355ZM78.4288 2.62997L78.3518 2.67289C78.4291 2.67243 78.4293 2.71489 78.5066 2.71443L78.5836 2.67151C78.5063 2.67197 78.4288 2.62997 78.4288 2.62997ZM138.523 2.61057L138.446 2.65349C138.523 2.65303 138.524 2.69549 138.601 2.69503L138.678 2.65211C138.601 2.65257 138.6 2.61011 138.523 2.61057ZM140.706 6.03712L140.784 6.07912C140.861 6.07866 140.861 6.07866 140.938 6.03573L140.861 5.99373C140.861 5.99373 140.783 5.9942 140.706 6.03712ZM112.03 2.72642C112.029 2.68396 111.952 2.68442 111.952 2.64196L111.875 2.68488C111.875 2.72735 111.875 2.72735 111.953 2.76935C111.953 2.76935 111.953 2.76935 112.03 2.72642ZM142.407 6.23928L142.329 6.19728C142.33 6.23974 142.252 6.2402 142.253 6.28266L142.33 6.32467C142.33 6.2822 142.33 6.23974 142.407 6.23928ZM143.545 2.75042L143.467 2.70842C143.467 2.75088 143.39 2.75134 143.39 2.7938L143.468 2.8358C143.468 2.79334 143.545 2.79288 143.545 2.75042ZM146.713 3.07119L146.636 3.02919C146.636 3.07165 146.559 3.07212 146.559 3.11458L146.637 3.15658C146.637 3.11412 146.636 3.07165 146.713 3.07119ZM147.18 3.62044C147.18 3.6629 147.258 3.66244 147.258 3.7049L147.335 3.66198C147.335 3.61952 147.335 3.61952 147.257 3.57751C147.18 3.62044 147.18 3.62044 147.18 3.62044ZM147.341 4.63862C147.341 4.59616 147.263 4.59662 147.263 4.55416L147.186 4.59708C147.186 4.63954 147.186 4.63954 147.264 4.68154C147.341 4.63862 147.341 4.63862 147.341 4.63862ZM111.8 3.06751C111.8 3.10997 111.878 3.10951 111.878 3.15197L111.955 3.10905C111.955 3.06659 111.955 3.06659 111.877 3.02458C111.8 3.06751 111.8 3.06751 111.8 3.06751ZM111.58 5.1071L111.503 5.0651C111.503 5.10756 111.426 5.10802 111.426 5.15049L111.504 5.19249C111.504 5.15002 111.504 5.15003 111.58 5.1071ZM122.08 4.19507L122.002 4.15307C122.003 4.19554 121.925 4.196 121.926 4.23846L122.003 4.28046C122.003 4.238 122.08 4.19507 122.08 4.19507ZM122.314 4.61832L122.392 4.66032C122.469 4.65986 122.469 4.65986 122.546 4.61693L122.468 4.57493C122.391 4.57539 122.314 4.61832 122.314 4.61832ZM116.147 6.56606C116.069 6.56652 116.07 6.60899 115.992 6.60945L116.07 6.65145C116.147 6.65099 116.147 6.65099 116.224 6.60806C116.224 6.5656 116.224 6.5656 116.147 6.56606ZM112.824 6.41606L112.902 6.45806C112.979 6.4576 112.979 6.4576 113.056 6.41467L112.978 6.37267C112.901 6.37313 112.901 6.4156 112.824 6.41606ZM93.8769 2.58011L93.9544 2.62212C93.9542 2.57965 94.0314 2.57919 94.0312 2.53673L93.9537 2.49473C93.9539 2.53719 93.9539 2.53719 93.8769 2.58011ZM161.701 3.4912L161.778 3.5332C161.856 3.53274 161.856 3.53274 161.933 3.48982L161.855 3.44782C161.778 3.44828 161.701 3.44874 161.701 3.4912ZM115.042 2.6235L115.119 2.6655C115.119 2.62303 115.196 2.62257 115.196 2.58011L115.118 2.53811C115.119 2.58057 115.119 2.58057 115.042 2.6235ZM162.161 2.89395L162.238 2.85103C162.161 2.85149 162.16 2.80903 162.083 2.80949L162.006 2.85242C162.083 2.85195 162.161 2.85149 162.161 2.89395ZM162.473 3.48659C162.474 3.52905 162.551 3.52859 162.551 3.57105L162.628 3.52812C162.628 3.48566 162.628 3.48566 162.55 3.44366C162.473 3.48659 162.473 3.48659 162.473 3.48659ZM92.5728 4.07415C92.573 4.11662 92.6503 4.11616 92.6505 4.15862L92.7275 4.11569C92.7272 4.07323 92.7272 4.07323 92.6498 4.03123C92.65 4.07369 92.65 4.07369 92.5728 4.07415ZM91.8695 2.7195L91.947 2.7615C91.9467 2.71904 92.024 2.71858 92.0237 2.67612L91.9462 2.63412C91.9465 2.67658 91.9467 2.71904 91.8695 2.7195ZM166.359 7.41253L166.436 7.45454C166.436 7.41207 166.513 7.41161 166.513 7.36915L166.436 7.32715C166.436 7.36961 166.436 7.36961 166.359 7.41253ZM167.723 2.98811C167.723 3.03057 167.8 3.03011 167.801 3.07257L167.878 3.02965C167.877 2.98719 167.877 2.98719 167.8 2.94519C167.8 2.94519 167.723 2.94565 167.723 2.98811ZM168.187 3.0278L168.264 3.0698C168.341 3.06934 168.341 3.06934 168.418 3.02642L168.341 2.98442C168.264 2.98488 168.264 2.98488 168.187 3.0278ZM169.354 4.54954C169.355 4.592 169.432 4.59154 169.432 4.634L169.509 4.59107C169.509 4.54861 169.509 4.54861 169.431 4.50661C169.431 4.50661 169.432 4.54907 169.354 4.54954ZM169.676 6.75575L169.754 6.79775C169.831 6.79729 169.831 6.79729 169.908 6.75436L169.831 6.71236C169.753 6.71282 169.754 6.75529 169.676 6.75575ZM170.448 6.66621L170.526 6.70821C170.603 6.70775 170.603 6.70775 170.68 6.66482L170.603 6.62282C170.525 6.62328 170.448 6.66621 170.448 6.66621ZM171.751 4.95985C171.751 5.00232 171.829 5.00185 171.829 5.04432L171.906 5.00139C171.906 4.95893 171.906 4.95893 171.828 4.91693C171.828 4.91693 171.828 4.91693 171.751 4.95985ZM88.1841 6.43591C88.1843 6.47837 88.2616 6.47791 88.2618 6.52037L88.3388 6.47745C88.3386 6.43499 88.3386 6.43499 88.2611 6.39299C88.2611 6.39299 88.2613 6.43545 88.1841 6.43591ZM173.927 7.19745C173.85 7.19791 173.85 7.24037 173.773 7.24084L173.851 7.28284C173.928 7.28238 173.928 7.28238 174.005 7.23945C174.005 7.23945 173.928 7.23991 173.927 7.19745ZM88.8559 2.52519L88.7784 2.48319C88.7786 2.52565 88.7014 2.52611 88.7017 2.56858L88.7792 2.61058C88.8564 2.61012 88.8561 2.56765 88.8559 2.52519ZM127.244 2.38072L127.167 2.42364C127.245 2.42318 127.245 2.46564 127.322 2.46518L127.399 2.42226C127.322 2.42272 127.245 2.42318 127.244 2.38072ZM176.937 6.6699L176.86 6.71282C176.937 6.71236 176.937 6.75482 177.014 6.75436L177.091 6.71144C177.014 6.7119 176.937 6.71236 176.937 6.6699ZM88.0947 4.39816C88.0949 4.44063 88.1721 4.44017 88.1724 4.48263L88.2494 4.4397C88.2491 4.39724 88.2491 4.39724 88.1716 4.35524C88.1716 4.35524 88.1719 4.3977 88.0947 4.39816ZM178.638 7.04191L178.561 7.08483C178.561 7.12729 178.561 7.12729 178.639 7.1693L178.716 7.12637C178.638 7.08437 178.638 7.04191 178.638 7.04191ZM181.005 2.39917L181.082 2.35624C181.005 2.35671 181.004 2.31424 180.927 2.3147L180.85 2.35763C180.927 2.35717 180.927 2.35717 181.005 2.39917ZM88.0118 3.46445L88.0893 3.50645C88.0891 3.46399 88.1663 3.46352 88.1661 3.42106L88.0886 3.37906C88.0888 3.42152 88.0891 3.46399 88.0118 3.46445ZM182.321 2.81595C182.321 2.85841 182.398 2.85795 182.398 2.90041L182.475 2.85749C182.475 2.81502 182.475 2.81502 182.398 2.77302C182.32 2.77349 182.32 2.77349 182.321 2.81595ZM184.044 6.79728L183.967 6.84021C183.967 6.88267 183.967 6.88267 184.044 6.92467L184.121 6.88175C184.121 6.83928 184.121 6.79682 184.044 6.79728ZM87.8541 2.91336L87.9316 2.95536C88.0088 2.9549 88.0088 2.9549 88.0858 2.91197L88.0083 2.86997C88.0083 2.86997 87.9313 2.91289 87.8541 2.91336ZM186.568 2.7481L186.491 2.79102C186.569 2.79056 186.569 2.83302 186.646 2.83256L186.723 2.78964C186.646 2.74764 186.568 2.7481 186.568 2.7481ZM188.518 5.83633C188.441 5.8368 188.441 5.87926 188.364 5.87972L188.441 5.92172C188.519 5.92126 188.519 5.92126 188.595 5.87834C188.518 5.83633 188.518 5.83633 188.518 5.83633ZM128.735 6.27851L128.658 6.32144C128.735 6.32098 128.736 6.36344 128.813 6.36298L128.89 6.32005C128.813 6.32051 128.735 6.27851 128.735 6.27851ZM191.068 6.07588L190.991 6.1188C191.069 6.11834 191.069 6.1608 191.146 6.16034L191.223 6.11742C191.146 6.11788 191.146 6.11788 191.068 6.07588ZM197.238 4.42537L197.315 4.46737C197.393 4.46691 197.393 4.46691 197.47 4.42399L197.392 4.38199C197.315 4.42491 197.238 4.42537 197.238 4.42537ZM198.014 5.0577L198.091 5.01477C198.014 5.01523 198.014 4.97277 197.936 4.97323L197.859 5.01616C197.859 5.01616 197.937 5.05816 198.014 5.0577ZM198.088 4.4203C198.01 4.42076 198.011 4.46322 197.933 4.46368L198.011 4.50568C198.088 4.50522 198.088 4.50522 198.165 4.4623C198.165 4.4623 198.165 4.4623 198.088 4.4203ZM199.93 2.4984L199.853 2.54132C199.853 2.58378 199.853 2.58378 199.931 2.62579L200.008 2.58286C200.007 2.5404 199.93 2.4984 199.93 2.4984ZM202.268 6.00895C202.191 6.00941 202.191 6.05188 202.114 6.05234L202.191 6.09434C202.269 6.09388 202.269 6.09388 202.346 6.05095C202.268 6.05141 202.268 6.05141 202.268 6.00895ZM202.416 4.94646C202.339 4.94692 202.339 4.98939 202.262 4.98985L202.34 5.03185C202.417 5.03139 202.417 5.03139 202.494 4.98846C202.494 4.98846 202.493 4.946 202.416 4.94646ZM203.255 3.20042L203.332 3.15749C203.255 3.15795 203.255 3.11549 203.178 3.11595L203.101 3.15888C203.178 3.15841 203.255 3.15795 203.255 3.20042ZM209.357 3.16395C209.358 3.20641 209.435 3.20595 209.435 3.24842L209.512 3.20549C209.512 3.16303 209.512 3.16303 209.434 3.12103C209.357 3.12149 209.357 3.16395 209.357 3.16395ZM210.757 4.64184L210.834 4.68384C210.834 4.64138 210.911 4.64091 210.911 4.59845L210.833 4.55645C210.834 4.59891 210.834 4.59891 210.757 4.64184ZM131.581 4.22323L131.504 4.26615C131.504 4.30861 131.504 4.30861 131.582 4.35062L131.659 4.30769C131.659 4.30769 131.581 4.26569 131.581 4.22323ZM212.858 7.34698L212.935 7.30406C212.858 7.30452 212.858 7.26206 212.781 7.26252L212.704 7.30545C212.704 7.30545 212.781 7.34745 212.858 7.34698ZM86.5628 6.57299L86.4858 6.61592C86.4861 6.65838 86.4861 6.65838 86.5636 6.70038L86.6406 6.65746C86.6403 6.61499 86.5631 6.61545 86.5628 6.57299ZM113.421 2.88796L113.344 2.84596C113.344 2.88843 113.267 2.88889 113.267 2.93135L113.344 2.97335C113.422 2.97289 113.421 2.93043 113.421 2.88796ZM87.0016 2.45134L87.0791 2.49334C87.1564 2.49288 87.1564 2.49288 87.2334 2.44996L87.1559 2.40796C87.0786 2.40842 87.0016 2.45134 87.0016 2.45134ZM217.957 7.48637L218.034 7.44345C217.957 7.44391 217.957 7.40145 217.879 7.40191L217.802 7.44483C217.88 7.44437 217.957 7.48637 217.957 7.48637ZM85.7881 6.19544L85.8656 6.23744C85.9429 6.23698 85.9429 6.23698 86.0199 6.19406L85.9424 6.15206C85.8651 6.15252 85.7881 6.19544 85.7881 6.19544ZM133.349 2.85381C133.272 2.85427 133.272 2.89673 133.195 2.89719L133.273 2.93919C133.35 2.93873 133.35 2.93873 133.427 2.89581C133.427 2.89581 133.427 2.89581 133.349 2.85381ZM85.8677 6.57715L85.7902 6.53515C85.7904 6.57761 85.7132 6.57807 85.7134 6.62053L85.7909 6.66253C85.8679 6.61961 85.8679 6.61961 85.8677 6.57715ZM117.533 5.96328L117.456 5.92127C117.456 5.96374 117.379 5.9642 117.379 6.00666L117.457 6.04866C117.457 6.04866 117.534 6.00574 117.533 5.96328ZM134.659 2.33641C134.737 2.33595 134.736 2.29348 134.814 2.29302L134.736 2.25102C134.659 2.25148 134.659 2.25148 134.582 2.29441C134.582 2.29441 134.582 2.33687 134.659 2.33641ZM239.047 7.95484L239.124 7.91192C239.047 7.91238 239.046 7.86992 238.969 7.87038L238.892 7.9133C238.97 7.91284 239.047 7.91238 239.047 7.95484ZM243.352 4.53198C243.429 4.53152 243.429 4.48906 243.506 4.48859L243.429 4.44659C243.352 4.44705 243.352 4.44706 243.275 4.48998C243.275 4.48998 243.352 4.48952 243.352 4.53198ZM135.587 2.54318L135.51 2.58611C135.511 2.62857 135.511 2.62857 135.588 2.67057L135.665 2.62765C135.665 2.62765 135.665 2.58518 135.587 2.54318ZM83.7814 6.46222C83.7817 6.50468 83.8589 6.50422 83.8592 6.54668L83.9362 6.50376C83.9359 6.4613 83.9359 6.4613 83.8584 6.4193L83.7814 6.46222ZM83.6193 5.18926L83.5424 5.23219C83.5426 5.27465 83.5426 5.27465 83.6201 5.31665L83.6971 5.27373C83.6968 5.23126 83.6196 5.23173 83.6193 5.18926ZM254.64 6.33295L254.717 6.29002C254.64 6.29049 254.64 6.24802 254.562 6.24848L254.485 6.29141C254.563 6.29095 254.64 6.33295 254.64 6.33295ZM83.4697 5.99698C83.3924 5.99744 83.3927 6.0399 83.3155 6.04036L83.393 6.08236C83.4702 6.0819 83.4702 6.0819 83.5472 6.03898C83.5472 6.03898 83.5472 6.03898 83.4697 5.99698ZM104.403 6.04174C104.325 6.0422 104.326 6.08467 104.248 6.08513L104.326 6.12713C104.403 6.12667 104.403 6.12667 104.48 6.08374C104.48 6.08374 104.48 6.08374 104.403 6.04174ZM83.0007 5.06557L82.9232 5.02357C82.9234 5.06603 82.8462 5.06649 82.8464 5.10895L82.9239 5.15095C82.9237 5.10849 82.9237 5.10849 83.0007 5.06557ZM81.3098 6.47699L81.3873 6.51899C81.4645 6.51853 81.4645 6.51853 81.5415 6.47561L81.464 6.4336C81.387 6.47653 81.3098 6.47699 81.3098 6.47699ZM111.357 6.50975L111.435 6.55175C111.434 6.50929 111.512 6.50883 111.511 6.46637L111.434 6.42437C111.434 6.42437 111.434 6.46683 111.357 6.50975ZM136.67 2.66411L136.747 2.70611C136.824 2.70565 136.824 2.70565 136.901 2.66272L136.824 2.62072C136.824 2.66318 136.747 2.66365 136.67 2.66411ZM102.631 6.81669L102.553 6.77469C102.553 6.81715 102.476 6.81761 102.476 6.86007L102.554 6.90207C102.554 6.85961 102.553 6.81715 102.631 6.81669ZM137.373 4.01876C137.296 4.01922 137.296 4.06168 137.219 4.06214L137.296 4.10415C137.373 4.10368 137.373 4.10368 137.45 4.06076C137.373 4.06122 137.373 4.06122 137.373 4.01876ZM80.2063 2.7892C80.2061 2.74674 80.1289 2.7472 80.1286 2.70474L80.0516 2.74766C80.0519 2.79012 80.0519 2.79012 80.1294 2.83212L80.2063 2.7892ZM79.4512 5.68128C79.4515 5.72374 79.5287 5.72328 79.529 5.76574L79.6059 5.72282C79.6057 5.68035 79.6057 5.68035 79.5282 5.63835C79.5284 5.68082 79.5284 5.68082 79.4512 5.68128ZM142.027 7.21823C142.104 7.21777 142.181 7.17484 142.258 7.13192C142.18 7.08992 142.102 7.00545 142.025 6.96345C141.948 6.96391 141.871 7.00684 141.639 7.05068C141.794 7.13469 141.872 7.21915 142.027 7.21823ZM139.479 7.44577C139.556 7.44531 139.634 7.48731 139.634 7.48731C139.711 7.48685 139.788 7.44393 139.865 7.401C139.788 7.40146 139.71 7.35946 139.555 7.31792C139.633 7.35992 139.556 7.40285 139.479 7.44577ZM147.821 7.48085C147.821 7.52331 147.822 7.60824 147.899 7.65024C147.977 7.64978 148.054 7.60685 148.054 7.60685C148.053 7.56439 148.053 7.47946 148.052 7.39454C147.975 7.43746 147.821 7.48085 147.821 7.48085ZM161.416 7.44207C161.493 7.44161 161.57 7.44115 161.647 7.44069C161.57 7.39869 161.569 7.31376 161.492 7.31423C161.415 7.31469 161.26 7.31561 161.106 7.359C161.261 7.40054 161.338 7.44254 161.416 7.44207ZM65.0151 7.04147C65.0923 7.04101 65.2468 7.04009 65.3238 6.99716C65.3235 6.9547 65.246 6.9127 65.246 6.9127C65.1688 6.91316 65.0143 6.91408 64.8598 6.91501C65.0148 6.99901 65.0151 7.04147 65.0151 7.04147ZM67.023 6.98701C67.1003 6.98655 67.2548 6.98562 67.3317 6.9427C67.3315 6.90024 67.254 6.85823 67.254 6.85823C67.1768 6.8587 67.0223 6.85962 66.8678 6.86054C66.9455 6.94501 67.023 6.98701 67.023 6.98701ZM43.3103 7.08625C43.31 7.04378 43.3873 7.04332 43.387 7.00086L43.3095 6.95886C43.3098 7.00132 43.2326 7.00178 43.2328 7.04424C43.31 7.04378 43.3103 7.08625 43.3103 7.08625ZM64.0112 7.08993C64.0884 7.08947 64.0884 7.08947 64.1654 7.04655L64.0879 7.00455C64.0107 7.00501 64.0107 7.00501 63.9337 7.04793C63.9337 7.04793 63.934 7.0904 64.0112 7.08993ZM64.4744 7.0447C64.4746 7.08716 64.4746 7.08716 64.5521 7.12916L64.6291 7.08624C64.6289 7.04378 64.6289 7.04378 64.5514 7.00178C64.4744 7.0447 64.4744 7.0447 64.4744 7.0447ZM69.1082 6.93208L69.1857 6.97408C69.263 6.97362 69.263 6.97362 69.34 6.9307L69.2625 6.8887C69.2625 6.8887 69.1852 6.88916 69.1082 6.93208ZM101.014 7.80302L101.092 7.84502C101.169 7.84456 101.169 7.84456 101.246 7.80164L101.169 7.75963C101.092 7.80256 101.014 7.80302 101.014 7.80302ZM145.429 7.7924C145.506 7.79193 145.506 7.79193 145.583 7.74901L145.505 7.70701C145.428 7.70747 145.428 7.70747 145.351 7.75039C145.351 7.75039 145.351 7.79286 145.429 7.7924ZM96.3778 7.44855L96.4553 7.49055C96.5325 7.49009 96.5325 7.49009 96.6095 7.44717L96.532 7.40517C96.4548 7.40563 96.4548 7.40563 96.3778 7.44855ZM152.117 2.48687C152.194 2.48641 152.194 2.44394 152.271 2.44348C152.194 2.40148 152.194 2.40148 152.116 2.35948L152.039 2.40241C152.039 2.44487 152.117 2.44441 152.117 2.48687ZM153.353 2.56441C153.431 2.56395 153.43 2.52148 153.508 2.52102C153.43 2.47902 153.43 2.47902 153.353 2.43702L153.276 2.47995C153.276 2.52241 153.353 2.52195 153.353 2.56441ZM164.583 7.50808C164.583 7.55054 164.583 7.593 164.661 7.59254C164.661 7.59254 164.738 7.59208 164.815 7.59162C164.815 7.54915 164.738 7.54962 164.737 7.50715C164.66 7.50761 164.66 7.50761 164.583 7.50808ZM109.199 7.28701L109.277 7.32901C109.354 7.32854 109.354 7.32854 109.431 7.28562L109.353 7.24362C109.353 7.28608 109.276 7.28654 109.199 7.28701ZM254.081 3.23641C254.158 3.23594 254.235 3.19302 254.312 3.19256C254.235 3.15056 254.157 3.10856 254.157 3.10856C254.157 3.10856 254.158 3.15102 254.081 3.23641ZM80.7686 6.3953C80.7673 6.18298 80.4589 6.26975 80.3041 6.22821C80.3044 6.27068 80.3046 6.31314 80.3049 6.3556C80.4596 6.39714 80.6141 6.39622 80.7686 6.3953Z" fill="#FDB706"/>
</svg>
