<svg width="167" height="8" viewBox="0 0 167 8" fill="none" xmlns="http://www.w3.org/2000/svg">
<path d="M42.99 2.57488C43.0371 2.3577 43.1862 2.22559 43.2875 2.26737C43.54 2.30689 43.4864 2.09122 43.5864 2.04643C43.6884 2.1315 43.7904 2.21656 43.8924 2.30163C43.9938 2.34341 44.1455 2.38444 44.1952 2.3404C44.3947 2.20754 44.496 2.24932 44.4992 2.46575C44.4999 2.50903 44.6509 2.50678 44.7019 2.54931C44.7013 2.50602 44.7007 2.46274 44.7 2.41945L44.649 2.37692C44.5967 2.24782 44.5438 2.07543 44.5935 2.03139C44.8937 1.89702 44.7975 2.20152 44.8995 2.28659C44.9505 2.32912 45.0021 2.41494 45.0531 2.45748C45.1041 2.50001 45.1538 2.45597 45.2048 2.4985C45.2042 2.45522 45.2035 2.41193 45.2029 2.36865C45.2016 2.28208 45.1493 2.15298 45.1997 2.15222C45.3494 2.0634 45.4011 2.14922 45.5031 2.23428C45.6051 2.31935 45.7097 2.57756 45.8052 2.22977C46.2577 2.17972 46.7083 1.99981 47.166 2.29604C47.3184 2.38035 47.3196 2.46692 47.4171 2.24899C47.5152 2.07435 47.8684 2.11237 48.0233 2.36983C48.0233 2.36983 48.0233 2.36983 48.0226 2.32654C47.9723 2.32729 47.9219 2.32804 47.9226 2.37133C47.9226 2.37133 47.9232 2.41461 47.9239 2.4579C47.9742 2.45715 47.9736 2.41386 48.0233 2.36983C48.1711 2.15114 48.2712 2.10635 48.3706 2.01828C48.5701 1.88542 48.5223 2.05931 48.5733 2.10184C48.6249 2.18766 48.776 2.18541 48.8773 2.22719C48.8283 2.31451 48.7792 2.40183 48.7295 2.44587C48.8302 2.44436 48.8806 2.44361 48.9813 2.44211C49.082 2.44061 49.2324 2.39506 49.3835 2.39281C49.3338 2.43685 49.284 2.48088 49.235 2.5682C49.235 2.5682 49.2873 2.69731 49.2866 2.65402C49.3873 2.65252 49.4874 2.60773 49.6385 2.60547C49.5868 2.51966 49.4855 2.47787 49.3835 2.39281C49.2789 2.1346 49.1272 2.09357 48.8773 2.22719C48.9716 1.79283 48.9703 1.70626 49.3757 1.87339C49.6294 1.99948 49.9793 1.82108 50.2343 2.03374C50.2853 2.07628 50.4357 2.03074 50.5364 2.02923C50.7862 1.89562 51.0386 1.93514 51.1916 2.06274C51.2426 2.10527 51.3433 2.10377 51.444 2.10227C51.444 2.10227 51.4428 2.0157 51.4925 1.97166C51.5919 1.88359 51.7416 1.79476 51.792 1.79401C51.9437 1.83504 51.996 1.96414 51.7965 2.097C51.7468 2.14104 52.1025 2.3522 52.2523 2.26338C52.402 2.17455 52.5512 2.04244 52.7539 2.126C52.7539 2.126 52.7539 2.126 52.7035 2.12675C52.7042 2.17004 52.7048 2.21332 52.7552 2.21257C52.7552 2.21257 52.8055 2.21182 52.8559 2.21107C52.8552 2.16778 52.8049 2.16853 52.7539 2.126C52.7003 1.91033 52.8494 1.77822 53.0005 1.77596C53.3529 1.7707 53.7545 1.67811 54.0114 2.02063C54.1147 2.19227 54.3619 1.88551 54.4665 2.14372C54.6647 1.92429 54.8674 2.00785 55.0695 2.04813C55.2205 2.04587 55.3186 1.87123 55.5226 2.04136C55.6246 2.12643 55.8215 1.82042 55.9758 2.03459C55.9764 2.07788 56.0268 2.07713 56.0772 2.07637C56.429 2.02782 57.0326 1.97552 57.387 2.10011C57.5897 2.18367 57.691 2.22545 57.8899 2.0493C57.9396 2.00527 58.1907 1.95822 58.2417 2.00075C58.4967 2.21342 58.6955 2.03727 58.8453 1.94845C59.1448 1.77079 59.1441 1.72751 59.3488 1.94093C59.5024 2.11181 59.6548 2.19613 59.9046 2.06251C60.1099 2.31921 60.2584 2.14382 60.4081 2.05499C60.4081 2.05499 61.2118 1.9131 61.2628 1.95564C61.3648 2.0407 61.4662 2.08249 61.616 1.99366C61.6657 1.94962 61.8167 1.94737 61.8671 1.94661C62.0704 2.07346 62.2241 2.24435 62.5746 2.10923C62.8257 2.06218 63.0788 2.14499 63.3809 2.14048C63.4312 2.13973 63.4809 2.09569 63.5313 2.09494C63.7321 2.04865 63.6778 1.78969 63.929 1.74264C64.1304 1.73964 64.2349 1.99784 64.4338 1.82169C64.4835 1.77766 64.5848 1.81944 64.6358 1.86197C64.7875 1.903 64.7927 2.24928 65.0916 2.02835C65.1917 1.98356 65.446 2.15294 65.6481 2.19322C66.0025 2.31781 66.4034 2.18194 66.7042 2.09085C67.005 1.99977 67.2077 2.08333 67.4588 2.03629C67.5092 2.03554 67.5098 2.07882 67.5608 2.12136C67.5105 2.12211 67.4608 2.16615 67.4104 2.1669C67.3601 2.16765 67.3097 2.1684 67.2594 2.16915C67.209 2.16991 67.1586 2.17066 67.1083 2.17141C67.1593 2.21394 67.1599 2.25723 67.2109 2.29976C67.2619 2.34229 67.3639 2.42736 67.4653 2.46914C67.5156 2.46839 67.666 2.42285 67.7158 2.37881C67.7648 2.29149 67.7132 2.20567 67.7622 2.11835C67.8119 2.07431 67.861 1.98699 67.9617 1.98548C68.5149 1.93393 69.0733 2.22865 69.6743 2.0032C69.8248 1.95766 69.5291 2.39503 69.9287 2.17259C70.0785 2.08376 70.1779 1.99568 70.2773 1.90761C70.327 1.86357 70.4793 1.94789 70.4793 1.94789C70.4839 2.25088 70.6382 2.46505 70.7427 2.72326C70.7434 2.76655 70.6937 2.81058 70.6446 2.89791C70.6453 2.94119 70.5956 2.98523 70.5956 2.98523C70.6976 3.0703 71.0494 3.02175 71.1481 2.89039C71.2469 2.75903 71.3457 2.62767 71.092 2.50157C70.9906 2.45979 70.8383 2.37548 70.837 2.28891C70.7853 2.20309 70.8337 2.07248 70.8828 1.98516C70.9338 2.02769 71.0352 2.06947 71.0862 2.11201C71.1365 2.11125 71.1875 2.15379 71.2372 2.10975C71.7885 1.92834 72.2946 2.09396 72.8485 2.08569C73.201 2.08042 73.5528 2.03187 73.904 1.94004C74.1047 1.89375 74.1545 1.84971 74.208 2.06538C74.2616 2.28106 74.4624 2.23477 74.6128 2.18922C74.7129 2.14444 74.4088 2.01909 74.6096 1.9728C74.7096 1.92801 74.862 2.01232 75.013 2.01007C75.2648 2.00631 75.565 1.87194 75.7173 1.95626C75.971 2.08235 76.1698 1.9062 76.4223 1.94573C76.7754 1.98375 76.9768 1.98074 77.1304 2.15163C77.2324 2.23669 77.2841 2.32251 77.3861 2.40758C77.4371 2.45011 77.5378 2.44861 77.5881 2.44786C77.6378 2.40382 77.6869 2.3165 77.6359 2.27396C77.5843 2.18815 77.4319 2.10383 77.632 2.01425C77.9328 1.92317 78.2827 1.74477 78.5364 1.87086C78.6888 1.95518 78.7888 1.91039 78.8889 1.8656C79.1407 1.86184 79.0425 2.03648 79.0445 2.16634C78.9948 2.21038 78.9451 2.25441 78.8457 2.34249C78.8457 2.34249 78.8457 2.34249 78.845 2.2992C78.7947 2.29995 78.7443 2.30071 78.745 2.34399C78.745 2.34399 78.7456 2.38728 78.7462 2.43056C78.7966 2.42981 78.7959 2.38652 78.8457 2.34249C78.8947 2.25516 78.9444 2.21113 79.0445 2.16634C79.1452 2.16483 79.2465 2.20662 79.2962 2.16258C79.7455 1.8961 79.7455 1.8961 80.2517 2.06172C80.4034 2.10275 80.6577 2.27213 80.7029 1.9251C80.7029 1.9251 80.9037 1.87881 80.9547 1.92134C81.056 1.96312 81.1083 2.09222 81.2103 2.17729C81.2594 2.08997 81.3078 1.95936 81.4078 1.91457C81.6086 1.86828 81.8597 1.82123 82.0611 1.81823C82.3632 1.81371 82.6679 1.98234 82.9668 1.76141L83.0172 1.76065C83.2741 2.10318 83.5239 1.96956 83.8241 1.83519C83.8738 1.79116 84.2257 1.74261 84.1798 2.04636C84.1824 2.2195 84.4335 2.17245 84.5846 2.1702C84.735 2.12465 84.8841 1.99254 85.0332 1.86043C85.0836 1.85968 85.1843 1.85818 85.1849 1.90146C85.2372 2.03056 85.0384 2.20671 85.2908 2.24624C85.5432 2.28576 85.7969 2.41186 86.0455 2.19167C86.0945 2.10435 86.1946 2.05956 86.2946 2.01477C86.394 1.9267 86.5451 1.92444 86.6471 2.00951C86.7497 2.13786 86.9008 2.13561 86.9499 2.04828C87.1474 1.78556 87.3992 1.7818 87.7006 1.73401C88.0525 1.68546 88.2526 1.59588 88.5579 1.8078C88.6599 1.89286 88.9117 1.8891 89.0117 1.84431C89.412 1.66516 89.665 1.74797 90.0201 1.91584C90.0711 1.95838 90.3726 1.91058 90.3719 1.8673C90.4668 1.47622 90.7741 1.81799 90.9239 1.72917C91.1291 1.98587 91.43 1.89479 91.7327 1.93356C91.9845 1.9298 92.1891 2.14322 92.4893 2.00885C92.5894 1.96407 92.7914 2.00434 92.9431 2.04537C93.2459 2.08415 93.5997 2.16545 93.9011 2.11766C94.2523 2.02582 94.457 2.23924 94.7081 2.1922C94.9095 2.18919 95.1103 2.14289 95.3104 2.05332C95.5602 1.9197 95.9101 1.7413 96.2664 1.99574C96.3678 2.03753 96.5673 1.90466 96.7687 1.90165C96.9701 1.89865 97.1715 1.89564 97.3232 1.93667C97.4755 2.02098 97.5769 2.06276 97.726 1.93065C97.7757 1.88662 97.9771 1.88361 98.0772 1.83882C98.1275 1.83807 98.1785 1.8806 98.2289 1.87985C98.1792 1.92389 98.1288 1.92464 98.0791 1.96867C98.0294 2.01271 97.9804 2.10003 97.8803 2.14482C97.9313 2.18736 97.9823 2.22989 98.0327 2.22914C98.4865 2.26566 98.9409 2.34546 99.3392 2.03645C99.5426 2.16329 99.7453 2.24686 99.9964 2.19981C100.047 2.19906 100.096 2.11174 100.146 2.0677C100.503 2.40872 100.801 2.1445 101.202 1.96534C101.202 2.00862 101.102 2.05341 101.102 2.05341C101.155 2.18252 101.206 2.26834 101.258 2.39744C101.308 2.3534 101.359 2.35265 101.358 2.30936C101.357 2.22279 101.304 2.09369 101.202 1.96534C101.702 1.74139 101.702 1.74139 102.107 1.86523C102.157 1.86448 102.209 1.9503 102.208 1.90701C102.659 1.72711 103.165 1.93601 103.567 1.84343C103.768 1.79713 103.819 1.88295 103.92 1.88145C104.324 1.962 104.726 1.9127 105.075 1.64773C105.274 1.51486 105.425 1.51261 105.579 1.68349C105.63 1.72603 105.631 1.8126 105.632 1.85588C105.682 1.81185 105.68 1.72527 105.73 1.68124C105.829 1.54988 105.98 1.54762 106.032 1.67673C106.084 1.76254 106.137 1.93493 106.138 2.0215C106.14 2.15136 106.191 2.19389 106.291 2.10582C106.34 2.06178 106.389 1.97446 106.389 1.93117C106.388 1.88789 106.337 1.84536 106.287 1.84611C106.236 1.80357 106.235 1.76029 106.183 1.67447C106.234 1.67372 106.334 1.67221 106.385 1.67146C106.586 1.66845 106.689 1.79681 106.742 2.01248C106.742 2.01248 106.742 2.01248 106.742 1.9692C106.691 1.96995 106.641 1.9707 106.642 2.01398C106.642 2.01398 106.642 2.05727 106.643 2.10055C106.693 2.0998 106.693 2.05652 106.742 2.01248C106.841 1.88112 106.94 1.74976 107.041 1.74826C107.241 1.70196 107.448 2.04524 107.696 1.78177C107.845 1.64966 108.096 1.60261 108.298 1.5996C108.549 1.59584 108.801 1.59208 109.055 1.71818C109.257 1.80174 109.662 1.8823 109.76 1.75094C110.159 1.48521 110.514 1.65309 110.867 1.64782C110.917 1.64707 111.069 1.73139 111.07 1.77467C111.073 1.94781 111.224 1.94556 111.324 1.90077C111.623 1.72312 111.975 1.67457 112.328 1.71259C112.479 1.71033 112.679 1.62075 112.831 1.6185C112.982 1.61624 113.183 1.61324 113.285 1.6983C113.489 1.86843 113.585 1.56393 113.738 1.64825C113.839 1.69003 114.142 1.77209 114.138 1.46909C114.138 1.46909 114.389 1.42205 114.49 1.42054C115.246 1.49583 115.95 1.39874 116.705 1.38746C116.755 1.38671 116.806 1.42924 116.857 1.42849C117.11 1.5113 117.363 1.59411 117.561 1.37468C117.71 1.19928 117.912 1.28284 118.063 1.28059C118.265 1.32086 118.417 1.36189 118.568 1.35964C118.82 1.35588 119.021 1.35287 119.273 1.34911C119.475 1.3461 119.677 1.38638 119.928 1.38262C120.13 1.37961 120.38 1.28928 120.482 1.33106C120.686 1.5012 120.784 1.36984 120.935 1.32429C121.235 1.18993 121.292 1.62203 121.642 1.44362C121.791 1.3548 122.144 1.34953 122.296 1.43385C122.499 1.51741 122.549 1.51666 122.699 1.42783C122.949 1.29422 123.25 1.20313 123.552 1.24191C123.755 1.28219 124.007 1.32171 124.257 1.23138C124.408 1.18584 124.712 1.31118 124.915 1.39475C124.966 1.43728 125.068 1.56563 125.117 1.43502C125.212 1.08724 125.671 1.47004 125.717 1.16629C125.924 1.50956 126.22 1.11548 126.473 1.1983C126.726 1.28111 127.026 1.10345 127.28 1.27284C127.534 1.44222 127.831 1.09142 128.136 1.30334C128.188 1.34587 128.438 1.25554 128.639 1.20925C128.789 1.16371 128.989 1.07413 129.04 1.11666C129.346 1.37186 129.697 1.28003 130 1.3188C130.152 1.35983 130.455 1.44189 130.451 1.13889L130.5 1.09485C130.956 1.21794 131.455 0.950713 131.86 1.07455C132.113 1.15736 132.313 1.06778 132.515 1.10806C132.717 1.14834 132.82 1.27669 133.121 1.18561C133.322 1.13932 133.572 1.04899 133.823 1.00194C133.873 1.00119 133.923 0.957153 133.974 0.956401C134.278 1.08174 134.679 0.989159 134.932 1.07197C135.236 1.15403 135.435 1.02116 135.688 1.10398C135.941 1.18679 136.193 1.18303 136.495 1.17851C136.545 1.17776 136.645 1.08969 136.695 1.04565C136.744 1.00161 136.894 0.912788 136.945 0.955321C137.402 1.20826 137.906 1.24403 138.407 1.06337C138.507 1.01858 138.712 1.232 138.862 1.18646C139.013 1.14092 139.112 1.05284 139.265 1.18044C139.366 1.22222 139.617 1.13189 139.669 1.21771C139.822 1.34531 140.023 1.3423 140.174 1.34005C140.726 1.20192 141.332 1.32275 141.887 1.35777C141.987 1.35626 142.087 1.31147 142.188 1.26669C142.891 1.1263 143.545 1.11653 144.253 1.32243C144.405 1.36346 144.605 1.27388 144.707 1.35894C144.86 1.48654 145.061 1.48354 145.213 1.48128C145.364 1.47902 145.513 1.34691 145.666 1.5178C145.666 1.5178 145.767 1.51629 145.817 1.51554C146.266 1.20578 146.772 1.3714 147.225 1.36463C147.527 1.36012 147.879 1.31157 148.232 1.30631C148.584 1.30104 148.889 1.46967 149.238 1.24798C149.338 1.15991 149.591 1.28601 149.793 1.283C150.196 1.32027 150.549 1.315 150.951 1.2657C151.353 1.2164 151.804 1.03649 152.261 1.33272C152.414 1.41704 152.818 1.49759 153.066 1.27741C153.522 1.44378 154.02 1.08998 154.427 1.34367C154.529 1.42874 154.781 1.42498 154.93 1.29287C155.13 1.20329 155.182 1.28911 155.184 1.46225C155.188 1.72196 155.239 1.7645 155.489 1.63088C155.589 1.58609 155.689 1.49802 155.789 1.45323L156.192 1.4905C156.393 1.4442 156.594 1.39791 156.795 1.3949C156.946 1.39265 157.099 1.52025 157.249 1.47471C157.601 1.38287 157.854 1.46568 158.059 1.72239C158.11 1.76492 158.261 1.76266 158.362 1.80445C158.362 1.80445 158.362 1.80445 158.312 1.8052C158.313 1.84848 158.313 1.89177 158.364 1.89102C158.364 1.89102 158.414 1.89026 158.464 1.88951C158.464 1.84623 158.413 1.84698 158.362 1.80445C158.311 1.71863 158.36 1.67459 158.359 1.58802C158.41 1.58727 158.46 1.58652 158.511 1.62905L158.562 1.67158C159.262 1.35806 159.97 1.52067 160.675 1.55343C160.726 1.55268 160.826 1.55117 160.876 1.50714C161.126 1.37352 161.028 1.54817 161.029 1.63474C161.03 1.67802 161.081 1.72056 161.131 1.7198C161.432 1.62872 161.733 1.53764 161.938 1.79434C162.188 1.66073 162.491 1.74279 162.742 1.65246C162.892 1.60691 162.992 1.56213 163.145 1.68973C163.196 1.73226 163.347 1.73 163.449 1.77178C164.004 1.89337 164.606 1.7112 165.114 2.00668C165.165 2.04921 165.413 1.78574 165.468 2.08799C165.418 2.08874 165.368 2.13278 165.318 2.13353C165.369 2.17606 165.42 2.2186 165.42 2.2186C165.524 2.4768 165.875 2.38497 166.03 2.59914C166.184 2.81331 166.387 2.94016 166.39 3.15658C166.394 3.37301 166.749 3.58417 166.4 3.80586C166.25 3.89469 166.656 4.06181 166.406 4.19543C166.156 4.32904 166.41 4.45514 166.412 4.585C166.367 4.97531 166.374 5.40817 166.279 5.79924C166.232 6.0597 165.831 6.15229 165.835 6.45528C165.836 6.49857 165.629 6.15529 165.584 6.45904C165.585 6.54561 165.637 6.67472 165.689 6.76053C165.742 6.93292 165.693 7.02025 165.44 6.98072C165.34 6.98223 165.189 7.02777 165.19 7.07105C165.245 7.3733 164.993 7.37706 164.741 7.33753C164.539 7.34054 164.336 7.21369 164.137 7.38984C164.087 7.43388 163.936 7.39285 163.885 7.35031C163.681 7.22347 163.479 7.18319 163.229 7.3168C163.029 7.40638 162.878 7.40864 162.725 7.28104L162.624 7.23926C162.525 7.37062 162.426 7.45869 162.276 7.5908C162.124 7.50649 162.02 7.29156 161.869 7.29382C161.668 7.29683 161.52 7.51551 161.365 7.25805C161.066 7.47899 160.71 7.22454 160.409 7.31563C159.957 7.40896 159.654 7.37019 159.348 7.11499C159.297 7.07246 159.146 7.03143 159.045 7.07622C158.694 7.16805 158.342 7.2166 158.093 7.3935C157.843 7.52712 157.791 7.39801 157.639 7.35698C157.285 7.23239 156.831 7.15259 156.428 7.20189C156.227 7.2049 156.026 7.25119 155.825 7.2542C155.623 7.25721 155.37 7.13111 155.172 7.35054C155.018 7.17966 154.866 7.13863 154.667 7.31478C154.667 7.31478 154.567 7.31628 154.516 7.31703C154.214 7.27826 153.957 6.97902 153.608 7.20071C153.358 7.33433 153.002 7.12317 152.703 7.30082C152.603 7.34561 152.401 7.30533 152.249 7.2643C151.946 7.22553 151.592 7.10094 151.392 7.2338C151.093 7.41145 150.886 7.02489 150.586 7.20254C150.437 7.33466 150.032 7.21082 149.73 7.21533C149.529 7.21834 149.376 7.13402 149.225 7.13628C149.175 7.13703 149.074 7.09525 149.074 7.09525C148.674 7.31769 148.22 7.23789 147.816 7.20062C147.615 7.20362 147.315 7.33799 147.263 7.25217C147.058 7.03875 146.861 7.30147 146.658 7.21791C146.456 7.17763 146.255 7.22393 146.054 7.27022C145.803 7.31726 145.451 7.32253 145.197 7.19643C144.69 6.98753 144.187 6.99504 143.634 7.08989C143.182 7.13994 142.727 7.01685 142.273 7.02362C141.92 6.9856 141.567 6.90429 141.217 7.0827C140.967 7.21631 140.76 6.87304 140.46 7.0074C140.31 7.09623 139.958 7.10149 139.703 6.88883C139.652 6.84629 139.501 6.89183 139.401 6.93662C139.101 7.02771 138.799 7.0755 138.496 7.03673C138.194 6.99796 137.889 6.82933 137.591 7.09355C137.436 6.83609 137.036 7.05854 136.831 6.80183L136.73 6.80334C136.431 7.02427 136.078 6.94297 135.675 6.94898C135.473 6.95199 135.325 7.17067 135.171 6.91322C135.171 6.91322 135.12 6.87068 135.12 6.91397C134.721 7.13641 134.264 6.88347 133.812 6.9768C133.661 7.02235 133.511 7.06789 133.359 7.02686C133.107 6.98733 132.856 7.07766 132.602 6.90828C132.501 6.8665 132.202 7.08744 132.051 7.08969C131.799 7.09345 131.495 7.01139 131.243 6.97187C130.89 6.93385 130.537 6.89583 130.184 6.8578C130.133 6.85856 130.034 6.94663 129.984 6.94738C129.631 6.95265 129.328 6.91387 128.977 7.00571C128.676 7.09679 128.321 6.88563 127.97 7.02074C127.92 7.0215 127.817 6.89315 127.716 6.85136C127.563 6.72376 127.462 6.72527 127.364 6.89991C127.365 6.9432 127.214 6.98874 127.113 6.99024C126.812 7.03804 126.456 6.78359 126.107 7.04857C125.851 6.79262 125.6 6.83966 125.3 6.97403C124.993 6.63226 124.745 6.89573 124.496 7.07263C124.343 6.94503 124.247 7.29282 124.043 7.0794C123.941 6.99433 123.639 7.04213 123.537 6.95706C123.384 6.82946 123.283 6.78768 123.286 7.0041L123.236 7.04814C123.085 7.0504 122.934 7.05265 122.782 7.01162C122.631 6.97059 122.478 6.843 122.428 6.88703C122.278 6.97586 122.178 6.97736 122.025 6.84976C121.922 6.72141 121.62 6.72592 121.97 6.54752C122.02 6.54677 122.019 6.4602 122.068 6.41616C122.018 6.41691 121.917 6.37513 121.917 6.37513C121.768 6.50724 121.565 6.42368 121.417 6.64236C121.22 6.94837 120.764 6.78199 120.515 6.95889C120.511 6.69918 120.26 6.70294 120.057 6.61938C119.754 6.53732 119.503 6.62765 119.306 6.89037C119.256 6.93441 119.206 6.97844 119.156 6.97919C119.105 6.97995 118.954 6.9822 118.904 6.98295C118.548 6.77179 118.147 6.90766 117.796 6.9995C117.696 7.04429 117.495 7.04729 117.443 6.96148C117.188 6.74881 116.785 6.75483 116.585 6.80112C116.333 6.84816 116.131 6.7646 116.031 6.80939C115.831 6.89897 115.628 6.8154 115.426 6.81841C115.175 6.82217 115.173 6.7356 115.373 6.60274C115.322 6.56021 115.271 6.51767 115.22 6.51842C114.917 6.43636 114.616 6.52745 114.367 6.70435C114.317 6.74838 114.319 6.83495 114.319 6.83495C114.37 6.87749 114.47 6.87598 114.521 6.91852C114.472 6.96255 114.371 6.96406 114.321 7.0081C114.122 7.14096 113.971 7.1865 113.768 7.05965C113.514 6.89027 113.11 6.853 112.86 6.94333C112.459 7.12249 112.356 6.95085 112.152 6.78072C112.101 6.6949 111.949 6.65387 111.847 6.61209C111.797 6.61284 111.747 6.65688 111.697 6.65763C111.498 6.83378 111.249 7.01068 110.947 7.01519C110.796 7.01745 110.644 6.97642 110.494 7.02196C110.343 7.02421 110.191 6.98318 110.04 6.98544C109.889 6.9877 109.74 7.16309 109.636 6.94817L109.586 6.94892C109.487 7.037 109.337 7.12582 109.238 7.2139C109.186 7.12808 109.083 6.99973 109.032 6.91391C109.032 6.91391 108.931 6.91541 108.881 6.91616C108.631 7.04978 108.029 7.23194 107.928 7.23345C107.727 7.23646 107.624 7.1081 107.571 6.93572C107.52 6.8499 107.569 6.76258 107.567 6.676C107.516 6.59019 107.414 6.5484 107.363 6.50587C107.314 6.59319 107.316 6.67976 107.267 6.76709C107.267 6.81037 107.268 6.85366 107.269 6.89694C107.169 6.94173 107.068 6.98652 106.969 7.07459C106.919 7.07535 106.869 7.11938 106.819 7.12014C106.616 7.03657 106.313 6.95451 106.162 7.00006C106.162 6.95677 106.161 6.91349 106.259 6.73884C106.308 6.65152 106.259 6.73884 106.21 6.82616C106.21 6.82616 106.261 6.8687 106.262 6.91198C106.361 6.82391 106.411 6.77987 106.51 6.6918C106.46 6.69255 106.409 6.65001 106.259 6.73884C106.161 6.91349 106.11 6.91424 106.06 6.91499C106.111 6.95752 106.162 7.00006 106.162 7.00006C106.164 7.12991 106.118 7.39037 105.863 7.22099C105.711 7.13668 105.311 7.31583 105.355 6.92552C105.405 6.88148 105.455 6.83744 105.554 6.74937C105.301 6.66656 105.098 6.58299 104.845 6.4569C104.845 6.50018 104.845 6.50018 104.846 6.54347C104.799 6.80393 104.8 6.84722 104.597 6.72037C104.292 6.55174 104.043 6.72864 103.843 6.81822C103.593 6.95183 103.594 6.99512 103.34 6.91231C103.29 6.91306 103.24 6.91381 103.189 6.91456C103.038 6.91682 102.887 6.91908 102.736 6.87805C102.584 6.83702 102.382 6.79674 102.28 6.71167C102.126 6.54079 102.029 6.75872 101.878 6.76097C101.677 6.80727 101.521 6.50653 101.473 6.63713C101.426 6.85431 101.223 6.77075 101.124 6.85882C100.924 6.99169 100.923 6.90512 100.921 6.77526C100.92 6.73198 100.82 6.73348 100.769 6.69095C100.774 7.08051 100.368 6.82682 100.168 6.95968C99.9694 7.13583 99.8132 6.7918 99.6111 6.75153C99.5608 6.75228 99.5588 6.62242 99.5582 6.57914C99.5085 6.62317 99.5091 6.66646 99.4594 6.7105C99.3606 6.84186 99.2625 7.0165 99.0075 6.80384C99.0069 6.76055 98.8061 6.80684 98.8068 6.85013C98.7112 7.19791 98.3568 7.07332 98.3045 6.94422C98.1999 6.68601 97.8998 6.82038 97.6971 6.73681C97.444 6.654 97.2426 6.65701 97.3388 6.35251C97.3388 6.35251 97.2878 6.30998 97.2368 6.26745C97.1871 6.31148 97.1877 6.35477 97.1374 6.35552C96.9424 6.79138 96.9424 6.79138 96.3853 6.58322C96.2336 6.5422 96.1832 6.54295 96.0851 6.71759C95.9883 6.97881 95.8882 7.0236 95.6345 6.8975C95.4822 6.81319 95.3802 6.72812 95.2788 6.68634C95.2278 6.6438 95.0768 6.64606 95.0768 6.64606C94.7301 7.04089 94.6733 6.60879 94.5203 6.48119C94.368 6.39688 94.2163 6.35585 94.0646 6.31482C94.0142 6.31557 93.9645 6.35961 93.9141 6.36036C93.8651 6.44768 93.7657 6.53576 93.7166 6.62308C93.5204 6.97237 93.4197 6.97387 93.0627 6.67614C92.8587 6.50601 92.7534 6.20451 92.3513 6.25381C92.0995 6.25757 92.2493 6.16875 92.3487 6.08067L92.297 5.99485C92.2467 5.99561 92.1957 5.95307 92.146 5.99711C92.0956 5.99786 92.0963 6.04115 92.0466 6.08518C91.9981 6.21579 92.1021 6.43071 91.9013 6.47701C91.8013 6.5218 91.6483 6.3942 91.4966 6.35317C91.4462 6.35392 91.3965 6.39796 91.3971 6.44124C91.25 6.70321 91.1505 6.79128 90.9465 6.62115C90.7432 6.4943 90.3914 6.54285 90.3862 6.19657C90.383 5.98014 90.1325 6.07047 90.0841 6.20108C89.986 6.37573 89.8872 6.50708 89.6342 6.42427C89.5838 6.42503 89.5825 6.33846 89.5819 6.29517C89.6813 6.2071 89.731 6.16306 89.5289 6.12278C89.4786 6.12353 89.3785 6.16832 89.3792 6.21161C89.3811 6.34146 89.232 6.47358 89.485 6.55639C89.5354 6.55563 89.5877 6.68474 89.6387 6.72727C89.5386 6.77206 89.4386 6.81685 89.3882 6.8176C88.9854 6.82362 88.8311 6.60945 88.7265 6.35124C88.7259 6.30795 88.6749 6.26542 88.6742 6.22213C88.6245 6.26617 88.5748 6.31021 88.5754 6.35349C88.5264 6.44082 88.578 6.52663 88.529 6.61396C88.5296 6.65724 88.4302 6.74532 88.3792 6.70278C88.1268 6.66326 87.7756 6.75509 87.571 6.54167C87.469 6.45661 86.6123 6.42611 86.511 6.38432C86.2082 6.34555 86.3664 6.81943 85.961 6.65231C85.8086 6.56799 85.5582 6.65832 85.3574 6.70462C84.9055 6.79795 84.4517 6.76144 83.9985 6.7682C83.8475 6.77046 83.6454 6.73018 83.6486 6.94661C83.6486 6.94661 83.4479 6.9929 83.3975 6.99365C83.1922 6.73695 83.0438 6.91235 82.894 7.00117C82.8443 7.04521 82.6435 7.0915 82.6435 7.0915C82.4382 6.8348 82.2388 6.96766 82.0896 7.09977C82.0399 7.14381 81.9889 7.10128 81.9386 7.10203C81.9373 7.01546 81.9366 6.97217 82.0354 6.84081C82.0348 6.79753 82.0354 6.84081 81.9851 6.84157C81.9857 6.88485 82.036 6.8841 82.0367 6.92738C82.0864 6.88335 82.0864 6.88335 82.1361 6.83931C82.1361 6.83931 82.0851 6.79678 82.0354 6.84081C81.7346 6.9319 81.5338 6.97819 81.2821 6.98195C81.0303 6.98571 81.0296 6.94242 81.2278 6.72299C81.3285 6.72149 81.5312 6.80505 81.6281 6.54383C81.6274 6.50055 81.6281 6.54383 81.5777 6.54458C81.5784 6.58787 81.6287 6.58712 81.6293 6.6304C81.6791 6.58637 81.6791 6.58637 81.7288 6.54233C81.7288 6.54233 81.6778 6.4998 81.6281 6.54383C81.4279 6.63341 81.2749 6.50581 81.2278 6.72299C81.0774 6.76853 81.0729 6.46553 80.8741 6.64168C80.7256 6.81708 80.5242 6.82009 80.3221 6.77981C80.0697 6.74028 79.9187 6.74254 79.9232 7.04554C79.9258 7.21868 79.5229 7.22469 79.47 7.0523C79.3635 6.66424 79.1646 6.84039 78.9645 6.92997C78.8141 6.97551 78.6637 7.02105 78.5643 7.10912C78.4145 7.19795 78.3151 7.28602 78.3112 7.02631C78.3106 6.98303 78.1589 6.942 78.0575 6.90022C77.7522 6.6883 77.2487 6.69582 77.2415 6.21969C77.2409 6.1764 77.0898 6.17866 77.0388 6.13612C76.9885 6.13687 76.9381 6.13763 76.8878 6.13838C76.8884 6.18166 76.8387 6.2257 76.8897 6.26823C77.044 6.4824 77.1977 6.65329 77.3016 6.86821C77.3526 6.91075 77.2532 6.99882 77.2545 7.08539C77.1531 7.04361 77.1021 7.00108 77.0001 6.91601C76.9491 6.87348 76.8981 6.83094 76.6438 6.66156C76.4921 6.62053 76.5941 6.7056 76.6954 6.74738C76.7458 6.74663 76.7955 6.70259 76.8458 6.70184C76.7432 6.57349 76.6915 6.48767 76.5889 6.35932C76.5392 6.40335 76.4895 6.44739 76.5928 6.61903C76.8471 6.78841 76.8981 6.83094 76.9491 6.87348C76.8994 6.91751 76.8504 7.00483 76.8 7.00559C76.2958 6.96982 75.7917 6.93406 75.2875 6.89829C75.1868 6.89979 75.0848 6.81473 74.9834 6.77295C74.8317 6.73192 74.5793 6.69239 74.4805 6.82375C74.3327 7.04243 74.183 7.13126 73.8795 7.0492C73.6775 7.00892 73.4309 7.35896 73.3237 6.92762C73.3224 6.84104 72.9687 6.75974 72.7163 6.72021C72.5142 6.67994 72.5671 6.85232 72.5691 6.98218C72.471 7.15682 72.471 7.15682 72.316 6.89937C72.3154 6.85608 72.316 6.89937 72.2657 6.90012C72.2663 6.94341 72.3167 6.94265 72.3173 6.98594C72.367 6.9419 72.367 6.9419 72.4167 6.89787C72.4167 6.89787 72.3657 6.85533 72.316 6.89937C72.0668 7.07627 71.8654 7.07928 71.8119 6.8636C71.7602 6.77778 71.8093 6.69046 71.808 6.60389C71.808 6.60389 71.6563 6.56286 71.6569 6.60615C71.6072 6.65019 71.6085 6.73676 71.5588 6.78079C71.5078 6.73826 71.5071 6.69497 71.4561 6.65244C71.4536 6.4793 71.2528 6.52559 71.1521 6.5271C71.1017 6.52785 70.952 6.61667 70.9526 6.65996C71.0062 6.87563 70.7544 6.87939 70.604 6.92494C70.5537 6.92569 70.5033 6.92644 70.453 6.92719C70.3942 6.36523 70.0495 6.88992 69.8474 6.84964C69.6957 6.80861 69.5492 7.11387 69.2961 7.03106C69.0941 6.99078 68.9437 7.03632 68.9902 6.77586C68.9889 6.68929 68.9366 6.56018 68.8346 6.47512C68.7326 6.39005 68.5809 6.34902 68.5331 6.52291C68.537 6.78262 68.4376 6.8707 68.1342 6.78864C67.9321 6.74836 67.7313 6.79465 67.579 6.71034C67.3756 6.58349 67.3253 6.58424 67.3285 6.80067C67.2782 6.80142 67.2278 6.80217 67.1768 6.75964C67.0761 6.76115 66.9238 6.67683 66.9244 6.72012C66.477 7.11645 65.9683 6.77769 65.5158 6.82774C65.3144 6.83075 65.6101 6.39338 65.2615 6.65836C65.0123 6.83526 64.8115 6.88155 64.6069 6.66813C64.5049 6.58307 64.2531 6.58683 64.4578 6.80025C64.408 6.84428 64.3583 6.88832 64.308 6.88907C64.0562 6.89283 63.7535 6.85406 63.4501 6.772C63.3997 6.77275 63.4501 6.772 63.4507 6.81529C63.5011 6.81453 63.5004 6.77125 63.5508 6.7705C63.4998 6.72796 63.4998 6.72796 63.4488 6.68543C63.4488 6.68543 63.3991 6.72947 63.4501 6.772C63.5023 6.9011 63.4533 6.98843 63.4546 7.075C63.3532 7.03322 63.2022 7.03547 63.2015 6.99219C63.1473 6.73323 62.8949 6.6937 62.6922 6.61014C62.4901 6.56986 62.3391 6.57212 62.2416 6.79005C62.0951 7.0953 62.0447 7.09605 61.5909 7.05953C61.4398 7.06179 61.2881 7.02076 61.1371 7.02302C61.0867 7.02377 61.0357 6.98123 61.0351 6.93795C61.0854 6.9372 61.1855 6.89241 61.2358 6.89166C61.2855 6.84762 61.3346 6.7603 61.3843 6.71626C61.2829 6.67448 61.1816 6.6327 61.1319 6.67673C60.8304 6.72453 60.6316 6.90068 60.6865 7.20292C60.6871 7.24621 60.6374 7.29025 60.5871 7.291C60.5864 7.24771 60.5354 7.20518 60.5354 7.20518C60.5348 7.16189 60.5341 7.11861 60.5335 7.07532C60.5309 6.90218 60.5289 6.77233 60.5264 6.59919C60.3256 6.64548 60.0732 6.60595 59.8731 6.69553C59.6232 6.82915 59.4741 6.96126 59.1707 6.8792C59.019 6.83817 58.7685 6.9285 58.8144 6.62475C58.8144 6.62475 58.46 6.50016 58.3095 6.5457C58.1094 6.63528 57.9597 6.72411 57.8054 6.50994C57.8054 6.50994 57.6543 6.51219 57.6046 6.55623C57.5549 6.60027 57.5058 6.68759 57.4568 6.77491C57.2011 6.51896 56.9552 6.91229 56.8028 6.82797C56.5485 6.65859 56.298 6.74892 56.045 6.66611C55.9946 6.66686 55.9927 6.53701 55.992 6.49372C55.9391 6.32133 55.7893 6.41016 55.2832 6.24454C54.9288 6.11994 54.9798 6.16248 55.0308 6.20501C55.1825 6.24604 55.3336 6.24378 55.4853 6.28481C55.5356 6.28406 55.5389 6.50049 55.6873 6.32509C55.737 6.28105 55.6854 6.19524 55.6344 6.1527C55.4291 5.896 55.0766 5.90126 55.2839 6.28782C55.6899 6.49823 55.7416 6.58405 55.7926 6.62658C55.6918 6.62809 55.5918 6.67288 55.4911 6.67438C55.2884 6.59082 55.0844 6.42069 54.8365 6.68416C54.7874 6.77148 54.7377 6.81552 54.6887 6.90284C54.6874 6.81627 54.6357 6.73045 54.6344 6.64388C54.6796 6.29685 54.2833 6.73571 54.2794 6.476C54.1793 6.52079 53.9779 6.5238 54.0812 6.69544C54.1851 6.91036 53.883 6.91487 53.936 7.08726C53.8856 7.08801 53.7849 7.08951 53.7352 7.13355C53.7346 7.09027 53.7333 7.0037 53.7333 7.0037C53.8824 6.87158 53.732 6.91713 53.6306 6.87534C53.4783 6.79103 53.2252 6.70822 53.5247 6.53057C53.4731 6.44475 53.3717 6.40297 53.3201 6.31715C53.2704 6.36118 53.271 6.40447 53.2213 6.44851C53.1716 6.49254 53.0709 6.49405 53.0709 6.49405C52.9676 6.32241 52.7172 6.41274 52.5654 6.37171C52.5642 6.28514 52.5629 6.19857 52.6119 6.11125C52.914 6.10674 52.7597 5.89257 52.8082 5.76196L52.7068 5.72018C52.5564 5.76572 52.457 5.85379 52.3072 5.94262C52.2569 5.94337 52.2065 5.94412 52.0548 5.90309C52.0045 5.90385 52.0548 5.90309 52.0555 5.94638C52.1058 5.94563 52.1052 5.90234 52.1555 5.90159C52.1045 5.85906 52.1045 5.85906 52.0535 5.81652C52.0535 5.81652 52.0038 5.86056 52.0548 5.90309C52.1568 5.98816 52.2078 6.03069 52.2595 6.11651C52.3615 6.20158 52.4641 6.32993 52.5661 6.415C52.4202 6.76354 52.4202 6.76353 52.0167 6.72627C51.9664 6.72702 51.9154 6.68448 51.9154 6.68448C51.6643 6.73153 51.4125 6.73529 51.2111 6.7383C50.9083 6.69952 50.6527 6.44357 50.3551 6.75108C50.206 6.88319 49.8522 6.80188 49.6979 6.58771C49.6463 6.5019 49.4952 6.50415 49.3939 6.46237C49.3952 6.54894 49.4972 6.63401 49.4468 6.63476C49.3474 6.72283 49.2473 6.76762 49.1473 6.81241C49.0956 6.72659 49.044 6.64077 49.0918 6.46688C49.0911 6.4236 49.0918 6.46688 49.0414 6.46763C49.042 6.51092 49.0924 6.51017 49.0931 6.55345C49.1428 6.50941 49.1428 6.50942 49.1925 6.46538C49.1925 6.46538 49.1415 6.42284 49.0918 6.46688C48.993 6.59824 48.8929 6.64303 48.8936 6.68632C48.8962 6.85946 49.0963 6.76988 49.1976 6.81166C49.1989 6.89823 49.1996 6.94151 49.1505 7.02884C49.1002 7.02959 49.0498 7.03034 48.9988 6.98781C48.8975 6.94603 48.7464 6.94828 48.645 6.9065C48.4423 6.82294 48.7438 6.77514 48.6922 6.68932C48.5895 6.56097 48.288 6.60877 48.2403 6.78266C48.1925 6.95655 48.1435 7.04388 47.9414 7.0036C47.7897 6.96257 47.6386 6.96483 47.4876 6.96708C47.3365 6.96934 47.2849 6.88352 47.2829 6.75366C47.2306 6.62456 47.1306 6.66935 47.1325 6.7992C47.0848 6.9731 46.9834 6.93132 46.8317 6.89029C46.527 6.72166 46.2229 6.59631 45.8698 6.55829C45.8195 6.55904 45.7678 6.47322 45.7168 6.43069C45.4612 6.17474 45.2591 6.13446 45.0106 6.35465C44.9105 6.39944 44.8615 6.48676 44.8124 6.57408C44.7608 6.48826 44.7595 6.40169 44.7078 6.31587L44.6568 6.27334C44.6052 6.18752 44.5535 6.1017 44.4548 6.23306C44.4051 6.2771 44.254 6.27936 44.3567 6.40771C44.4077 6.45024 44.3592 6.58085 44.3599 6.62413C44.2592 6.62564 44.1585 6.62714 44.1075 6.58461C43.9041 6.45776 43.7511 6.33016 43.4012 6.50857C43.1011 6.64293 42.6472 6.60642 42.2915 6.39525C42.0378 6.26916 41.8345 6.14231 41.5324 6.14682C41.2303 6.15133 41.2303 6.15133 41.2845 6.41029C41.2851 6.45358 41.3361 6.49611 41.3368 6.5394C41.3381 6.62597 41.289 6.71329 41.24 6.80061C41.1386 6.75883 41.0379 6.76033 40.9869 6.7178C40.8345 6.63349 40.7803 6.37453 40.5815 6.55067C40.282 6.72833 40.2284 6.51265 40.0754 6.38505C40.0237 6.29924 40.0218 6.16938 39.9695 6.04028C39.8707 6.17164 39.772 6.303 39.6222 6.39182C39.4724 6.48065 39.6241 6.52168 39.6254 6.60825C39.6784 6.78064 39.6803 6.91049 39.4802 7.00007C39.4298 7.00082 39.3795 7.00157 39.3291 7.00233C39.375 6.69858 39.0735 6.74637 38.9224 6.74863C38.6203 6.75314 38.4144 6.45315 38.1149 6.63081C38.1149 6.63081 38.0135 6.58902 37.9625 6.54649C37.9638 6.63306 37.9657 6.76292 38.0161 6.76216C38.3188 6.80094 38.2698 6.88826 38.0697 6.97784C37.8695 7.06742 37.6694 7.157 37.663 6.72414C37.6623 6.68086 37.6126 6.7249 37.6133 6.76818C37.6139 6.81147 37.6146 6.85475 37.6152 6.89804C37.6649 6.854 37.7656 6.8525 37.765 6.80921C37.7643 6.76592 37.763 6.67935 37.663 6.72414C37.4635 6.85701 37.2098 6.73091 37.1601 6.77495C36.9606 6.90781 36.8063 6.69364 36.7056 6.69515C36.5552 6.74069 36.4061 6.8728 36.257 7.00491C36.257 7.00491 36.1556 6.96313 36.1053 6.96388C36.0039 6.9221 35.9523 6.83628 36.1027 6.79074C36.2027 6.74595 36.3034 6.74445 36.3531 6.70041C36.4035 6.69966 36.4532 6.65562 36.4532 6.65562C36.4022 6.61309 36.3512 6.57055 36.3512 6.57055C36.1001 6.6176 35.7431 6.31987 35.6482 6.71094C35.3971 6.75798 35.1453 6.76174 34.9465 6.93789C34.9465 6.93789 34.8452 6.89611 34.7942 6.85357C34.6392 6.59612 34.3377 6.64392 34.086 6.64768C33.9349 6.64993 33.7355 6.78279 33.5818 6.61191C33.5818 6.61191 33.4817 6.6567 33.432 6.70074C33.6367 6.91415 33.4359 6.96045 33.2829 6.83285C33.1306 6.74853 33.0292 6.70675 32.8775 6.66572C32.7265 6.66798 32.5748 6.62695 32.5276 6.84413C32.5289 6.9307 32.2268 6.93521 32.2249 6.80535C32.2216 6.58893 32.0706 6.59118 31.9195 6.59344C31.618 6.64124 31.2649 6.60321 31.0661 6.77936C30.7666 6.95702 30.6142 6.8727 30.4109 6.74585C30.2585 6.66154 30.1062 6.57722 29.9538 6.49291C29.9035 6.49366 29.8028 6.49516 29.8028 6.49516C29.7569 6.79891 29.5529 6.62878 29.4019 6.63104C29.2005 6.63404 29.0494 6.6363 29.2534 6.80643L29.154 6.89451C29.0016 6.81019 28.7002 6.85799 28.6485 6.77217C28.2386 6.30205 27.7906 6.6551 27.3381 6.70515C27.2374 6.70665 27.1889 6.83726 27.0882 6.83877C26.9875 6.84027 26.7371 6.9306 26.7332 6.67089C26.7319 6.58432 26.6292 6.45597 26.5279 6.41419C26.4769 6.37165 26.3265 6.41719 26.2768 6.46123C26.2264 6.46198 26.1774 6.54931 26.1277 6.59334C26.178 6.59259 26.2794 6.63437 26.3297 6.63362C26.3807 6.67615 26.4814 6.67465 26.5324 6.71718C26.4827 6.76122 26.433 6.80526 26.3827 6.80601C26.0805 6.81052 25.7765 6.68518 25.4769 6.86283C25.4769 6.86283 25.3762 6.86433 25.3252 6.8218C25.3246 6.77851 25.3743 6.73448 25.424 6.69044C25.4731 6.60312 25.6228 6.51429 25.6719 6.42697C25.721 6.33965 25.6687 6.21054 25.6177 6.16801C25.5667 6.12548 25.415 6.08445 25.3149 6.12924C25.1141 6.17553 25.3168 6.25909 25.3175 6.30238C25.3207 6.5188 25.0218 6.73974 24.7701 6.7435C24.5687 6.74651 24.3672 6.74952 24.1148 6.70999C23.8121 6.67122 23.5558 6.37198 23.2563 6.54963C22.9567 6.72728 22.6507 6.47209 22.3512 6.64974C22.2511 6.69453 21.9458 6.48261 21.8464 6.57069C21.5468 6.74834 21.5933 6.48788 21.4416 6.44685C21.3906 6.40431 21.2893 6.36253 21.2389 6.36328C21.0394 6.49615 20.8387 6.54244 20.6857 6.41484C20.4823 6.28799 20.3339 6.46339 20.1318 6.42311C19.9801 6.38208 19.729 6.42913 19.5792 6.51795C19.3797 6.65082 19.2287 6.65307 19.0253 6.52623C18.9743 6.48369 18.8749 6.57177 18.7742 6.57327C18.1713 6.66886 17.5703 6.89431 16.915 6.8608C16.7136 6.86381 16.5148 7.03996 16.3657 7.17207C16.2663 7.26015 16.1675 7.39151 16.0681 7.47958C15.9112 7.09227 15.6162 7.57292 15.3612 7.36025C15.1572 7.19012 14.8047 7.19538 14.5046 7.32975C14.2044 7.46412 14.1037 7.46562 13.7983 7.25371C13.595 7.12686 13.4936 7.08508 13.4472 7.34554C13.3987 7.47615 13.247 7.43512 13.145 7.35005C12.89 7.13739 12.5853 6.96876 12.1858 7.1912C11.9308 6.97853 11.7332 7.24125 11.4815 7.24501C11.129 7.25027 10.7798 7.47196 10.4234 7.21752C10.2711 7.1332 9.91988 7.22504 9.71911 7.27133C9.46864 7.36166 9.36212 6.9736 9.01288 7.19528C8.86312 7.28411 8.55906 7.15877 8.3073 7.16253C7.24924 7.13503 6.28672 6.75975 5.22931 6.77554C4.87684 6.78081 4.57343 6.69875 4.22226 6.79058C3.87108 6.88242 3.46373 6.58544 3.10997 6.50413C3.00862 6.46235 2.90727 6.42057 2.80656 6.42207C2.60515 6.42508 2.40697 6.64451 2.20168 6.38781C2.09904 6.25946 1.79692 6.26397 1.59486 6.22369C0.937693 6.06032 0.828584 5.49912 0.370884 5.20289C0.319885 5.16036 0.368945 5.07304 0.367652 4.98647C0.365713 4.85661 0.616184 4.76628 0.412187 4.59615C0.360542 4.51033 0.458662 4.33568 0.456722 4.20583C0.454137 4.03269 0.401199 3.8603 0.34826 3.68791C0.55355 3.94461 0.450905 3.81626 0.397967 3.64387C0.345674 3.51477 -0.20756 3.56633 0.190738 3.25731C0.290797 3.21252 0.237212 2.99685 0.18492 2.86775C0.0809826 2.65282 0.129396 2.52222 0.328868 2.38935C0.428927 2.34456 0.571582 1.7796 0.51929 1.6505C0.411474 1.17586 0.411474 1.17586 1.01312 0.993699C1.31395 0.902617 1.61348 0.724965 1.86201 0.504779C2.01113 0.372667 2.11054 0.284593 2.3623 0.280833C2.61471 0.320359 2.86777 0.40317 3.11695 0.226269C3.16666 0.182232 3.31836 0.223261 3.41971 0.265043C3.62242 0.348605 3.77541 0.476205 3.97812 0.559768C4.12982 0.600797 4.38353 0.726893 4.48359 0.682104C4.83412 0.546985 4.88835 0.805944 5.04005 0.846973C5.1414 0.888755 5.69399 0.793913 5.89411 0.704335C6.09358 0.571471 6.29499 0.568463 6.49705 0.608741C6.95152 0.688544 7.15293 0.685536 7.70552 0.590694C7.85658 0.588438 8.00763 0.586183 8.10899 0.627964C8.61704 0.923441 9.17415 1.1316 9.72738 1.08004C10.0799 1.07478 10.3807 0.983693 10.7338 1.02171C11.0366 1.06049 11.3884 1.01194 11.7402 0.963391C11.8409 0.961887 11.9416 0.960383 11.9907 0.873061C12.2386 0.60959 12.7944 0.731174 12.99 0.338599C12.9893 0.295314 13.0894 0.250525 13.1404 0.293058C13.2927 0.377373 13.3463 0.593047 13.5955 0.416146C13.6452 0.372109 13.9493 0.497453 14.0519 0.625805C14.2055 0.79669 14.456 0.70636 14.6084 0.790674C14.7601 0.831704 14.9131 0.959304 15.0151 1.04437C15.1674 1.12868 15.3695 1.16896 15.5186 1.03685C15.6677 0.904739 15.8181 0.859198 16.0202 0.899475C16.2222 0.939753 16.3752 1.06735 16.5767 1.06434C16.7277 1.06209 16.9278 0.972511 17.0789 0.970255C17.23 0.967999 17.432 1.00828 17.5844 1.09259C17.7367 1.17691 17.7864 1.13287 17.9368 1.08733C18.0369 1.04254 18.1879 1.04028 18.2389 1.08282C18.5946 1.29398 19.0975 1.24317 19.4532 1.45434C19.6566 1.58118 19.9077 1.53414 20.1085 1.48785C20.2589 1.44231 20.4073 1.26691 20.5584 1.26465C20.7095 1.2624 20.8625 1.39 21.0142 1.43103C21.1652 1.42877 21.2646 1.3407 21.4144 1.25187C21.5642 1.16304 21.5655 1.24961 21.5668 1.33618C21.5687 1.46604 21.6197 1.50857 21.7185 1.37721C21.7675 1.28989 21.7165 1.24736 21.9186 1.28764C22.4744 1.40922 23.0289 1.44423 23.6332 1.43521C23.7842 1.43295 23.8843 1.38817 24.0373 1.51576C24.1909 1.68665 24.3943 1.8135 24.6434 1.6366C24.7932 1.54777 24.8481 1.85002 24.9966 1.67462C25.0456 1.5873 25.2012 1.88804 25.349 1.66936C25.7564 1.96634 26.1566 1.78718 26.5588 1.73788C26.7098 1.73562 26.9584 1.51544 26.9132 1.86247C27.2683 2.03035 27.5736 2.24226 27.9287 2.41014C27.979 2.40939 28.0791 2.3646 28.1294 2.36385C28.1288 2.32056 28.1275 2.23399 28.0765 2.19146C27.675 2.28404 27.7169 1.72058 27.316 1.85646C27.3154 1.81317 27.3147 1.76989 27.3644 1.72585C27.4626 1.5512 27.6162 1.72209 27.7169 1.72058C27.8176 1.71908 27.9164 1.58772 28.0158 1.49965C28.0668 1.54218 28.1178 1.58471 28.0674 1.58547C28.0681 1.62875 28.019 1.71607 27.9693 1.76011C27.9203 1.84743 27.9215 1.934 27.8718 1.97804C27.9725 1.97654 28.0739 2.01832 28.1236 1.97428C28.3747 1.92724 28.6265 1.92348 28.7737 1.66151C29.1268 1.69953 29.4295 1.7383 29.7833 1.81961C29.8337 1.81886 29.8853 1.90468 29.8853 1.90468C30.0867 1.90167 30.3365 1.76805 30.4385 1.85312C30.4902 1.93894 30.6916 1.93593 30.893 1.93292C31.0944 1.92992 31.1396 1.58288 31.494 1.70747C31.6457 1.7485 31.8452 1.61564 32.0459 1.56935C32.0963 1.56859 32.1467 1.56784 32.197 1.56709C32.1977 1.61038 32.1983 1.65366 32.1989 1.69695C32.1492 1.74098 32.1505 1.82755 32.1008 1.87159C32.1512 1.87084 32.2519 1.86934 32.3022 1.86858C32.5011 1.69243 32.7554 1.86182 33.0065 1.81477C33.0065 1.81477 33.0065 1.81477 32.9562 1.81552C32.9568 1.85881 32.9575 1.90209 33.0078 1.90134C33.0078 1.90134 33.0582 1.90059 33.1085 1.89984C33.1079 1.85655 33.0575 1.8573 33.0065 1.81477C33.1034 1.55356 33.4597 1.808 33.6075 1.58932C33.6075 1.58932 33.7592 1.63035 33.7089 1.6311C33.7147 2.02067 34.0123 1.71316 34.164 1.75419C34.3157 1.79522 34.5145 1.61907 34.5655 1.66161C34.8205 1.87427 35.0723 1.87051 35.2737 1.8675C35.324 1.86675 35.3757 1.95257 35.3763 1.99586C35.3783 2.12571 35.3299 2.25632 35.3325 2.42946C35.3325 2.42946 35.3325 2.42946 35.3318 2.38617C35.2815 2.38693 35.2311 2.38768 35.2317 2.43096C35.2317 2.43096 35.2324 2.47425 35.233 2.51753C35.2834 2.51678 35.2827 2.4735 35.3325 2.42946C35.3815 2.34214 35.4816 2.29735 35.5313 2.25331C35.6287 2.03538 35.9786 1.85698 36.282 1.93904C36.282 1.93904 36.3324 1.93828 36.333 1.98157C36.9379 2.01583 36.9379 2.01583 37.1916 2.14193C37.344 2.22624 37.3943 2.22549 37.4931 2.09413C37.7403 1.78737 38.1948 1.86718 38.5453 1.73206C38.5453 1.73206 38.6473 1.81712 38.648 1.86041C38.7041 2.24922 38.7041 2.24922 39.158 2.28574C39.2587 2.28424 39.36 2.32602 39.4607 2.32451C39.5111 2.32376 39.5601 2.23644 39.5595 2.19316C39.5589 2.14987 39.5582 2.10659 39.5072 2.06405C39.4059 2.02227 39.3058 2.06706 39.2044 2.02528C39.1037 2.02678 39.0521 1.94096 39.0017 1.94172C39.1018 1.89693 39.1509 1.8096 39.2509 1.76482C39.3013 1.76406 39.7577 1.97372 39.7583 2.01701C39.81 2.10283 39.8616 2.18864 39.9126 2.23118C40.014 2.27296 40.1644 2.22742 40.2651 2.22591C40.2638 2.13934 40.2625 2.05277 40.2619 2.00949C40.2612 1.9662 40.2102 1.92367 40.2096 1.88038C40.2089 1.8371 40.258 1.74978 40.3077 1.70574C40.358 1.70499 40.5097 1.74602 40.5097 1.74602C40.5136 2.00573 40.613 1.91765 40.8138 1.87136C40.9139 1.82657 41.165 1.77953 41.1695 2.08252C41.1191 2.08327 41.1185 2.03999 41.0681 2.04074C41.0178 2.04149 40.9171 2.043 40.8667 2.04375C40.8674 2.08703 40.868 2.13032 40.868 2.13032C40.9687 2.12882 41.0191 2.12806 41.1695 2.08252C41.2186 1.9952 41.3186 1.95041 41.4187 1.90562C41.5684 1.8168 41.6672 1.68544 41.6717 1.98843C41.6724 2.03172 41.6743 2.16157 41.6743 2.16157C41.8267 2.24589 41.6808 2.59443 41.9816 2.50334C42.1817 2.41377 41.9784 2.28692 41.9771 2.20035C41.9758 2.11378 42.0739 1.93913 42.2243 1.89359C42.3244 1.8488 42.4767 1.93312 42.6284 1.97415C42.4813 2.23611 42.9828 2.09874 42.99 2.57488C43.2901 2.44051 42.939 2.53234 42.8867 2.40324C42.886 2.35995 42.4348 2.49658 42.4348 2.49658C42.4858 2.53911 42.5871 2.58089 42.6878 2.57939C42.8395 2.62042 42.8905 2.66295 42.8421 2.79356C42.8428 2.83684 42.9441 2.87862 42.9945 2.87787C43.0952 2.87637 43.1442 2.78905 42.99 2.57488ZM56.7273 5.1406L56.7266 5.09731C56.6763 5.09807 56.6259 5.09882 56.6266 5.1421C56.6266 5.1421 56.6272 5.18539 56.6279 5.22867C56.6782 5.22792 56.6776 5.18464 56.826 5.00924C56.7757 5.00999 56.7763 5.05328 56.726 5.05403C56.7266 5.09731 56.777 5.09656 56.7776 5.13985C56.8273 5.09581 56.8273 5.09581 56.877 5.05177C56.8764 5.00849 56.8254 4.96596 56.7273 5.1406ZM123.349 4.49206C123.299 4.49281 123.299 4.5361 123.249 4.53685C123.25 4.58013 123.3 4.57938 123.301 4.62267C123.35 4.57863 123.35 4.57863 123.4 4.53459C123.4 4.53459 123.349 4.49206 123.251 4.6667L123.25 4.62342C123.2 4.62417 123.15 4.62492 123.15 4.66821C123.15 4.66821 123.151 4.71149 123.152 4.75478C123.151 4.71149 123.201 4.71074 123.349 4.49206ZM91.1912 6.14125C91.1408 6.142 91.1415 6.18529 91.0911 6.18604C91.0918 6.22933 91.1421 6.22857 91.1428 6.27186C91.1925 6.22782 91.1925 6.22782 91.2422 6.18379C91.2422 6.18379 91.1912 6.14125 91.0931 6.3159L91.0924 6.27261C91.0421 6.27336 90.9917 6.27412 90.9924 6.3174C90.9924 6.3174 90.993 6.36069 90.9937 6.40397C91.0434 6.35993 91.0427 6.31665 91.1912 6.14125ZM47.3785 6.40588C47.3281 6.40663 47.3288 6.44991 47.2784 6.45067C47.2791 6.49395 47.3294 6.4932 47.3301 6.53649C47.3798 6.49245 47.3798 6.49245 47.4295 6.44841C47.4295 6.44841 47.3785 6.40588 47.3313 6.62306C47.2293 6.53799 47.2293 6.53799 47.2293 6.53799C47.179 6.53874 47.0783 6.54024 47.0279 6.541C47.0286 6.58428 47.0292 6.62757 47.0292 6.62757C47.0802 6.6701 47.1299 6.62606 47.3785 6.40588ZM98.2935 6.20837C98.2438 6.25241 98.1935 6.25316 98.1438 6.2972C98.1948 6.33973 98.1954 6.38301 98.2458 6.38226C98.2961 6.38151 98.3968 6.38001 98.4465 6.33597C98.3955 6.29344 98.3445 6.2509 97.9901 6.12631C97.9908 6.1696 98.0411 6.16884 98.0418 6.21213C98.0921 6.21138 98.0915 6.16809 98.1418 6.16734C98.0908 6.12481 98.0908 6.12481 98.0398 6.08227C98.0908 6.12481 98.0405 6.12556 98.2935 6.20837ZM66.007 2.6208C65.9573 2.66484 65.9076 2.70888 66.0128 3.01037C65.9108 2.9253 65.8592 2.83949 65.7572 2.75442C65.7081 2.84174 65.6591 2.92906 65.661 3.05892C65.6616 3.1022 65.763 3.14399 65.8643 3.18577C65.9147 3.18502 65.9638 3.09769 65.8585 2.7962C65.8572 2.70963 65.9069 2.66559 66.007 2.6208C66.1077 2.6193 66.2084 2.6178 66.4602 2.61404C66.4105 2.65807 66.3601 2.65883 66.3104 2.70286C66.3614 2.7454 66.3621 2.78868 66.4124 2.78793C66.4628 2.78718 66.5635 2.78567 66.6132 2.74164C66.5622 2.6991 66.5118 2.69985 66.3098 2.65958C66.3085 2.57301 66.3072 2.48644 66.3059 2.39987C66.2058 2.44466 66.1561 2.48869 66.0561 2.53348C66.0057 2.53423 66.0063 2.57752 66.007 2.6208ZM48.8987 3.6556C48.9987 3.61081 49.0491 3.61006 49.1492 3.56527C49.0982 3.52274 49.0472 3.4802 48.9968 3.48095C48.8961 3.48246 48.796 3.52725 48.6953 3.52875C48.7463 3.57128 48.7967 3.57053 49.448 3.34433C49.348 3.38912 49.2976 3.38987 49.1976 3.43466C49.2486 3.47719 49.2996 3.51973 49.3499 3.51898C49.4506 3.51747 49.5507 3.47268 49.6514 3.47118C49.6004 3.42865 49.55 3.4294 48.8987 3.6556ZM106.16 3.4932L106.159 3.44992C106.109 3.45067 106.059 3.45142 106.059 3.4947C106.059 3.4947 106.06 3.53799 106.061 3.58127C106.111 3.58052 106.11 3.53724 106.46 3.31555C106.36 3.36034 106.309 3.36109 106.209 3.40588C106.26 3.44841 106.311 3.49095 106.362 3.49019C106.462 3.48869 106.562 3.4439 106.663 3.4424C106.611 3.35658 106.56 3.31404 106.16 3.4932ZM23.3872 1.82854C23.3362 1.786 23.3356 1.74272 23.2852 1.74347C23.1839 1.70169 23.0328 1.70394 23.0354 1.87709C23.036 1.92037 23.087 1.9629 23.0877 2.00619C23.1877 1.9614 23.2878 1.91661 23.6357 1.60835C23.5357 1.65314 23.4853 1.65389 23.3853 1.69868C23.4363 1.74121 23.4873 1.78375 23.5376 1.783C23.6383 1.78149 23.7384 1.7367 23.8391 1.7352C23.7881 1.69267 23.7377 1.69342 23.3872 1.82854ZM56.6504 3.36666C56.5491 3.32488 56.4981 3.28234 56.4477 3.2831C56.3974 3.28385 56.3477 3.32788 56.2973 3.32864C56.349 3.41446 56.4 3.45699 56.5019 3.54206C56.5517 3.49802 56.6014 3.45398 57.0468 2.92779C56.8447 2.88751 56.5955 3.06441 56.6485 3.2368C56.6491 3.28009 56.7001 3.32262 56.7001 3.32262C56.8505 3.27708 56.9506 3.23229 57.1004 3.14346C57.1507 3.14271 57.1494 3.05614 57.1488 3.01286C57.0978 2.97032 57.0468 2.92779 56.6504 3.36666ZM84.105 3.77927C84.0546 3.78002 84.0553 3.8233 84.0049 3.82406C84.0056 3.86734 84.0559 3.86659 84.0566 3.90987C84.1063 3.86584 84.1063 3.86584 84.156 3.8218C84.156 3.8218 84.105 3.77927 84.0075 3.9972C83.9559 3.91138 83.9048 3.86885 83.8532 3.78303C83.8022 3.74049 83.9003 3.56585 83.7506 3.65468C83.6505 3.69946 83.6021 3.83007 83.553 3.91739C83.7054 4.00171 83.8074 4.08678 83.9591 4.1278C83.9081 4.08527 83.9584 4.08452 84.105 3.77927ZM54.5692 2.27207C54.5188 2.27282 54.5194 2.31611 54.4691 2.31686C54.4697 2.36015 54.5201 2.35939 54.5207 2.40268C54.5704 2.35864 54.5704 2.35864 54.6202 2.31461C54.6202 2.31461 54.5692 2.27207 54.624 2.57432C54.3697 2.40494 54.267 2.27658 54.1657 2.2348C54.065 2.23631 53.9656 2.32438 53.8662 2.41246C54.0185 2.49677 54.1709 2.58108 54.3736 2.66465C54.3239 2.70868 54.4233 2.62061 54.5692 2.27207ZM32.321 6.50085C32.4218 6.49935 32.4721 6.4986 32.5735 6.54038C32.8769 6.62244 33.0757 6.44629 33.2752 6.31343C33.3249 6.26939 33.2732 6.18357 33.2222 6.14104C33.2216 6.09775 33.1215 6.14254 33.0705 6.10001C33.026 6.49033 32.7716 6.32094 32.5192 6.28142C32.4179 6.23964 32.2668 6.24189 32.1668 6.28668C32.0661 6.28819 32.0176 6.41879 31.9679 6.46283C32.0189 6.50536 32.1196 6.50386 32.1706 6.54639C32.1693 6.45982 32.2197 6.45907 32.321 6.50085ZM56.5646 4.36372C56.4116 4.23612 56.2586 4.10852 56.2082 4.10927C56.0572 4.11153 55.8577 4.24439 55.7079 4.33322L55.7086 4.37651C55.8609 4.46082 56.0139 4.58842 56.216 4.6287C56.2663 4.62795 56.4148 4.45255 56.5646 4.36372ZM56.491 2.80621C56.4406 2.80696 56.3896 2.76443 56.3896 2.76443C56.0901 2.94208 55.9881 2.85701 56.0346 2.59655C56.0817 2.37937 55.8809 2.42566 55.7299 2.42792C55.6795 2.42867 55.6298 2.47271 55.5801 2.51674C55.8338 2.64284 55.7376 2.94734 56.0914 3.02865C56.2928 3.02564 56.4438 3.02338 56.491 2.80621ZM35.3409 2.99217C35.2401 2.99367 35.1898 2.99442 35.0891 2.99593C35.0387 2.99668 34.9884 2.99743 34.9387 3.04147L34.9393 3.08475C34.9929 3.30043 35.4454 3.25037 35.3493 3.55488C35.3996 3.55412 35.4493 3.51009 35.4997 3.50933C35.5487 3.42201 35.6481 3.33394 35.6972 3.24662C35.6966 3.20333 35.6953 3.11676 35.6443 3.07423C35.5926 2.98841 35.4416 2.99066 35.3409 2.99217ZM57.4051 6.68909C57.1011 6.56375 57.0475 6.34807 57.0436 6.08836C56.9933 6.08911 56.9436 6.13315 56.8932 6.1339C56.644 6.3108 56.8997 6.56676 56.8022 6.78469C56.8525 6.78393 56.9029 6.78318 56.9533 6.78243C57.1043 6.78017 57.2044 6.73539 57.4051 6.68909ZM32.3048 2.04172C32.1041 2.08802 31.8529 2.13506 31.5515 2.18286C31.7555 2.35299 32.0079 2.39252 32.2571 2.21562C32.2571 2.21562 32.4101 2.34322 32.4604 2.34247C32.5108 2.34171 32.6108 2.29692 32.6102 2.25364C32.6095 2.21035 32.6082 2.12378 32.5572 2.08125C32.5572 2.08125 32.4565 2.08275 32.3048 2.04172ZM64.3473 2.77547C64.3479 2.81876 64.3473 2.77547 64.3466 2.73219C64.3951 2.60158 64.3434 2.51576 64.1923 2.51802C63.9909 2.52103 64.0439 2.69341 64.0452 2.77999C64.0465 2.86656 64.0981 2.95237 64.1995 2.99416C64.2505 3.03669 64.3512 3.03518 64.4525 3.07697C64.4002 2.94786 64.3996 2.90458 64.3473 2.77547ZM111.388 2.80901C111.388 2.85229 111.389 2.89558 111.389 2.89558C111.591 2.93585 111.793 2.97613 111.944 2.97388C111.944 2.93059 111.942 2.84402 111.892 2.84477C111.791 2.80299 111.638 2.71868 111.487 2.72093C111.487 2.72093 111.438 2.80825 111.388 2.80901ZM61.1828 3.34227C61.1331 3.38631 61.0828 3.38706 61.0834 3.43034C61.035 3.56095 60.9859 3.64827 60.9375 3.77888C60.9382 3.82217 60.9892 3.8647 60.9898 3.90798C61.0395 3.86395 61.0899 3.86319 61.0892 3.81991C61.1376 3.6893 61.1867 3.60198 61.2351 3.47137C61.2345 3.42809 61.1835 3.38555 61.1828 3.34227ZM60.2636 5.8671C60.1616 5.78203 60.1597 5.65218 60.1093 5.65293C59.9576 5.6119 59.8582 5.69997 59.9105 5.82908C59.9118 5.91565 59.9628 5.95818 60.0144 6.044C60.0131 5.95743 60.1132 5.91264 60.2636 5.8671ZM78.1485 2.87244C78.1491 2.91572 78.2001 2.95826 78.2014 3.04483C78.3008 2.95675 78.4002 2.86868 78.4487 2.73807C78.4487 2.73807 78.3467 2.653 78.2957 2.61047C78.2453 2.61122 78.195 2.61197 78.1452 2.65601C78.1962 2.69854 78.1472 2.78587 78.1485 2.87244ZM52.4357 4.42538C52.3362 4.51346 52.1858 4.559 52.4382 4.59852C52.4886 4.59777 52.5377 4.51045 52.5867 4.42313C52.5861 4.37984 52.6358 4.3358 52.5848 4.29327C52.5338 4.25074 52.4828 4.2082 52.4318 4.16567C52.3304 4.12389 52.2304 4.16868 52.333 4.29703C52.4344 4.33881 52.435 4.3821 52.4357 4.42538ZM48.0827 2.97507C47.9323 3.02061 47.8826 3.06464 47.8329 3.10868C47.9349 3.19375 47.9865 3.27957 48.0879 3.32135C48.1382 3.3206 48.1879 3.27656 48.2376 3.23252C48.186 3.1467 48.1343 3.06088 48.0827 2.97507ZM62.0357 6.49006L62.0363 6.53334C62.2377 6.53034 62.4398 6.57061 62.5908 6.56836C62.5902 6.52507 62.5895 6.48179 62.5392 6.48254C62.4882 6.44001 62.3868 6.39822 62.3365 6.39898C62.2358 6.40048 62.1364 6.48855 62.0357 6.49006ZM58.2082 6.50392C58.2075 6.46064 58.2082 6.50392 58.1585 6.54796C58.1591 6.59124 58.1598 6.63453 58.2108 6.67706C58.3121 6.71884 58.4632 6.71659 58.5639 6.71508C58.6142 6.71433 58.613 6.62776 58.662 6.54044C58.6117 6.54119 58.5607 6.49866 58.5103 6.49941C58.4096 6.50091 58.3593 6.50166 58.2082 6.50392ZM43.5438 2.5666C43.4431 2.56811 43.4431 2.56811 43.3928 2.56886C43.3947 2.69872 43.3967 2.82857 43.3979 2.91514C43.4483 2.91439 43.549 2.91289 43.5994 2.91213C43.5974 2.78228 43.5458 2.69646 43.5438 2.5666ZM47.2674 5.71482C47.3694 5.79988 47.4714 5.88495 47.5734 5.97002C47.6231 5.92598 47.6218 5.83941 47.6212 5.79612C47.6696 5.66552 47.6683 5.57895 47.4669 5.58195C47.4165 5.58271 47.3675 5.67003 47.2674 5.71482ZM109.698 4.30627C109.595 4.17792 109.543 4.0921 109.494 4.13614C109.343 4.18168 109.244 4.26975 109.094 4.31529C109.145 4.35783 109.246 4.39961 109.296 4.39885C109.447 4.35331 109.547 4.30853 109.698 4.30627ZM89.8007 4.08386C89.6986 3.9988 89.647 3.91298 89.5967 3.91373C89.496 3.91524 89.4469 4.00256 89.3972 4.04659C89.3972 4.04659 89.4495 4.1757 89.4998 4.17495C89.6005 4.17344 89.7006 4.12865 89.8007 4.08386ZM52.7139 2.81932C52.8159 2.90438 52.8669 2.94692 52.9682 2.9887C53.0186 2.98795 53.0683 2.94391 53.118 2.89987C53.067 2.85734 53.0153 2.77152 52.9643 2.72899C52.9133 2.68645 52.8643 2.77378 52.7139 2.81932ZM54.2303 6.56332C54.1283 6.47826 54.0767 6.39244 54.0263 6.39319C53.9256 6.3947 53.8759 6.43873 53.8269 6.52605C53.8269 6.52605 53.8791 6.65516 53.9295 6.65441C54.0302 6.6529 54.0799 6.60887 54.2303 6.56332ZM117.992 6.65021C117.892 6.65171 117.792 6.6965 117.741 6.69725C117.793 6.78307 117.896 6.91142 117.945 6.86739C118.046 6.86588 118.145 6.77781 118.246 6.73302C118.094 6.73527 118.043 6.69274 117.992 6.65021ZM88.485 3.67056C88.6367 3.71159 88.6871 3.71084 88.7878 3.70934C88.8381 3.70859 88.9382 3.6638 88.9885 3.66304C88.9375 3.62051 88.8859 3.53469 88.8355 3.53544C88.7846 3.49291 88.7342 3.49366 88.6845 3.5377C88.6341 3.53845 88.5844 3.58249 88.485 3.67056ZM40.8694 5.59389C40.9714 5.67896 41.0224 5.72149 41.1237 5.76327C41.1741 5.76252 41.2238 5.71848 41.2735 5.67444C41.2225 5.63191 41.1709 5.54609 41.1199 5.50356C41.0695 5.50431 40.9694 5.5491 40.8694 5.59389ZM62.0402 6.79305C61.9408 6.88113 61.8911 6.92517 61.7916 7.01324L61.8433 7.09906C61.9937 7.05352 62.0938 7.00873 62.2442 6.96319C62.1932 6.92065 62.1422 6.87812 62.0402 6.79305ZM46.8781 3.25282C46.8265 3.16701 46.7755 3.12447 46.7245 3.08194C46.6244 3.12673 46.525 3.2148 46.5256 3.25809C46.5269 3.34466 46.6283 3.38644 46.7303 3.47151C46.729 3.38494 46.7787 3.3409 46.8781 3.25282ZM62.7916 6.52206C62.8929 6.56385 62.9439 6.60638 63.0453 6.64816C63.0956 6.64741 63.1963 6.6459 63.2461 6.60187C63.1441 6.5168 62.9917 6.43249 62.8897 6.34742C62.891 6.43399 62.8413 6.47803 62.7916 6.52206ZM28.0281 5.69906C28.0791 5.7416 28.1308 5.82742 28.1314 5.8707C28.1811 5.82666 28.1798 5.74009 28.1792 5.69681C28.1779 5.61024 28.1269 5.5677 28.1256 5.48113C28.1263 5.52442 28.0772 5.61174 28.0281 5.69906ZM55.0676 5.29527C55.0159 5.20945 54.9146 5.16767 54.8629 5.08185C54.8132 5.12589 54.7642 5.21321 54.7648 5.2565C54.8158 5.29903 54.9172 5.34081 54.9682 5.38334C55.0179 5.33931 55.0676 5.29527 55.0676 5.29527ZM111.868 4.62022C111.816 4.5344 111.816 4.49111 111.815 4.44783C111.715 4.49262 111.616 4.58069 111.516 4.62548C111.567 4.66801 111.618 4.71055 111.618 4.71055C111.718 4.66576 111.767 4.62172 111.868 4.62022ZM42.0733 5.27285C42.0236 5.31688 41.9739 5.36092 41.9249 5.44824C41.9255 5.49153 41.9261 5.53481 41.9771 5.57735C42.0772 5.53256 42.1766 5.44448 42.2767 5.39969C42.1753 5.35791 42.1753 5.35791 42.0733 5.27285ZM54.83 2.87431C54.7796 2.87506 54.7299 2.9191 54.7299 2.9191C54.7312 3.00567 54.7828 3.09148 54.8338 3.13402C54.8338 3.13402 54.9843 3.08848 55.0346 3.08772C54.9326 3.00266 54.8816 2.96012 54.83 2.87431ZM76.1305 2.6428C76.0788 2.55699 76.0782 2.5137 76.0775 2.47041C75.9775 2.5152 75.8781 2.60328 75.778 2.64807C75.829 2.6906 75.88 2.73313 75.88 2.73313C75.9801 2.68834 76.0298 2.64431 76.1305 2.6428ZM51.3576 6.43304C51.3079 6.47708 51.2589 6.5644 51.2595 6.60769C51.2602 6.65097 51.3112 6.69351 51.3118 6.73679C51.4112 6.64872 51.4609 6.60468 51.5603 6.51661C51.5093 6.47407 51.459 6.47483 51.3576 6.43304ZM80.9625 5.81776C80.7617 5.86405 80.661 5.86556 80.5603 5.86706C80.6113 5.90959 80.6623 5.95213 80.7127 5.95138C80.8134 5.94987 80.9141 5.94837 81.0148 5.94686C80.9638 5.90433 80.9631 5.86104 80.9625 5.81776ZM50.4512 3.06958C50.4009 3.07033 50.3512 3.11437 50.3512 3.11437C50.3524 3.20094 50.4041 3.28676 50.4551 3.32929C50.4551 3.32929 50.6055 3.28375 50.6559 3.283C50.6049 3.24047 50.5029 3.1554 50.4512 3.06958ZM66.6087 5.81564C66.5571 5.72982 66.5558 5.64325 66.5041 5.55743C66.4544 5.60147 66.4047 5.64551 66.406 5.73208C66.4073 5.81865 66.4589 5.90446 66.4602 5.99103C66.5093 5.90371 66.559 5.85967 66.6087 5.81564ZM44.3889 5.19497C44.2888 5.23976 44.2385 5.24051 44.1881 5.24126C44.2398 5.32708 44.3418 5.41215 44.3934 5.49797C44.4431 5.45393 44.4928 5.40989 44.4928 5.40989C44.4916 5.32332 44.4399 5.2375 44.3889 5.19497ZM93.6882 4.71853C93.6365 4.63271 93.5352 4.59093 93.4835 4.50511C93.4338 4.54915 93.3848 4.63647 93.3854 4.67975C93.4364 4.72229 93.5377 4.76407 93.5887 4.8066C93.5881 4.76332 93.6378 4.71928 93.6882 4.71853ZM38.0632 6.54499C38.1142 6.58752 38.1652 6.63005 38.2666 6.67184C38.3169 6.67108 38.3673 6.67033 38.417 6.62629C38.3653 6.54048 38.2633 6.45541 38.2117 6.36959C38.162 6.41363 38.1123 6.45766 38.0632 6.54499ZM62.9458 3.35924C62.8464 3.44731 62.7967 3.49135 62.6973 3.57942C62.7476 3.57867 62.7986 3.6212 62.7986 3.6212C62.8483 3.57717 62.9484 3.53238 62.9981 3.48834C62.9975 3.44505 62.9465 3.40252 62.9458 3.35924ZM99.0546 6.58666C99.0049 6.63069 98.9559 6.71802 98.9565 6.7613C98.9572 6.80459 99.0082 6.84712 99.0088 6.8904C99.1082 6.80233 99.1579 6.75829 99.2573 6.67022C99.156 6.62844 99.156 6.62844 99.0546 6.58666ZM62.7754 5.43993C62.8271 5.52575 62.8284 5.61232 62.88 5.69814C62.9297 5.6541 62.9794 5.61007 62.9781 5.5235C62.9768 5.43693 62.9252 5.35111 62.9239 5.26454C62.8245 5.35261 62.8251 5.3959 62.7754 5.43993ZM48.1815 6.22071C48.1312 6.22146 48.0815 6.26549 48.0815 6.26549C48.0828 6.35207 48.1344 6.43788 48.1854 6.48042C48.1854 6.48042 48.3358 6.43488 48.3862 6.43412C48.3345 6.3483 48.2332 6.30652 48.1815 6.22071ZM93.6604 6.23426C93.7624 6.31933 93.8134 6.36186 93.9154 6.44693C93.9148 6.40364 93.9645 6.35961 93.9645 6.35961C93.9135 6.31707 93.8618 6.23126 93.8108 6.18872C93.8108 6.18872 93.7108 6.23351 93.6604 6.23426ZM95.2736 2.96306C95.3252 3.04888 95.3259 3.09216 95.3769 3.13469C95.4763 3.04662 95.526 3.00258 95.6254 2.91451C95.5751 2.91526 95.5241 2.87273 95.5241 2.87273C95.4234 2.87423 95.3737 2.91827 95.2736 2.96306ZM115.959 2.00473C115.96 2.0913 116.012 2.17712 116.012 2.2204C116.062 2.17637 116.111 2.08904 116.111 2.04576C116.11 2.00247 116.109 1.9159 116.108 1.87262C116.058 1.91666 116.009 1.96069 115.959 2.00473ZM53.413 5.79622C53.5131 5.75143 53.5635 5.75068 53.6132 5.70664C53.5112 5.62158 53.4602 5.57904 53.3582 5.49398C53.3588 5.53726 53.3091 5.5813 53.3091 5.5813C53.311 5.71115 53.362 5.75369 53.413 5.79622ZM79.4984 5.57985C79.4971 5.49328 79.4454 5.40747 79.4448 5.36418C79.3951 5.40822 79.346 5.49554 79.3467 5.53883C79.3473 5.58211 79.3486 5.66868 79.3493 5.71197C79.399 5.66793 79.4487 5.62389 79.4984 5.57985ZM94.5997 5.05127C94.7017 5.13634 94.7527 5.17887 94.8547 5.26394C94.854 5.22066 94.9037 5.17662 94.9037 5.17662C94.8527 5.13409 94.8011 5.04827 94.7501 5.00573C94.6997 5.00649 94.65 5.05052 94.5997 5.05127ZM60.915 5.6409C60.8653 5.68493 60.8155 5.72897 60.8162 5.77226C60.8168 5.81554 60.8685 5.90136 60.8691 5.94465C60.9188 5.90061 60.9692 5.89986 60.9685 5.85657C60.9679 5.81329 60.9666 5.72672 60.915 5.6409ZM61.4094 5.02738C61.4107 5.11395 61.361 5.15799 61.3617 5.20128C61.3617 5.20128 61.4127 5.24381 61.463 5.24306C61.5127 5.19902 61.5114 5.11245 61.5108 5.06917C61.5114 5.11245 61.4604 5.06992 61.4094 5.02738ZM63.8496 3.17256C63.8509 3.25913 63.8012 3.30317 63.8018 3.34645C63.8018 3.34645 63.8528 3.38899 63.9032 3.38823C63.9529 3.3442 63.9516 3.25763 63.9509 3.21434C64.0013 3.21359 63.8999 3.17181 63.8496 3.17256ZM66.1213 6.90529C66.0716 6.94933 66.0213 6.95008 65.9716 6.99411C66.0226 7.03665 66.0736 7.07918 66.1743 7.07768C66.2246 7.07692 66.2743 7.03289 66.3247 7.03214C66.2227 6.94707 66.1723 6.94782 66.1213 6.90529ZM66.1678 6.64482C66.1672 6.60154 66.1162 6.55901 66.1149 6.47244C66.0652 6.51647 66.0148 6.51722 66.0155 6.56051C66.0161 6.6038 66.0678 6.68961 66.0684 6.7329C66.1188 6.73215 66.1685 6.68811 66.1678 6.64482ZM66.4661 6.3806C66.4661 6.3806 66.417 6.46792 66.4176 6.51121C66.468 6.51046 66.519 6.55299 66.519 6.55299C66.5693 6.55224 66.6191 6.5082 66.6688 6.46416C66.6178 6.42163 66.5674 6.42238 66.4661 6.3806ZM67.1445 4.59538C66.9941 4.64092 66.9941 4.64092 66.9437 4.64167C66.9947 4.68421 67.0457 4.72674 67.0961 4.72599C67.1464 4.72524 67.1968 4.72448 67.2465 4.68045C67.1458 4.68195 67.1451 4.63867 67.1445 4.59538ZM67.8868 3.7184C67.8868 3.7184 67.8378 3.80572 67.8384 3.849C67.8888 3.84825 67.9398 3.89079 67.9398 3.89079C67.9901 3.89003 68.0399 3.846 68.0896 3.80196C68.0392 3.80271 67.9882 3.76018 67.8868 3.7184ZM68.7725 2.31974C68.8222 2.2757 68.8726 2.27495 68.9223 2.23091C68.8713 2.18838 68.8203 2.14584 68.7196 2.14735C68.6692 2.1481 68.6195 2.19214 68.5692 2.19289C68.6705 2.23467 68.7215 2.2772 68.7725 2.31974ZM69.5304 2.4816C69.48 2.48235 69.4303 2.52639 69.3296 2.52789C69.3806 2.57042 69.3813 2.61371 69.4316 2.61296C69.482 2.6122 69.582 2.56742 69.6324 2.56666C69.6317 2.52338 69.5814 2.52413 69.5304 2.4816ZM69.1328 6.21089C69.1838 6.25343 69.1851 6.34 69.1851 6.34C69.2355 6.33924 69.3362 6.33774 69.3859 6.2937C69.3852 6.25042 69.3342 6.20789 69.3342 6.20789C69.2839 6.20864 69.2335 6.20939 69.1328 6.21089ZM69.5472 3.60701C69.5982 3.64955 69.5995 3.73612 69.5995 3.73612C69.6498 3.73536 69.7506 3.73386 69.8003 3.68982C69.7996 3.64654 69.7486 3.604 69.7486 3.604C69.7486 3.604 69.6479 3.60551 69.5472 3.60701ZM24.621 6.87561C24.6707 6.83158 24.721 6.83082 24.7707 6.78679C24.7197 6.74425 24.6687 6.70172 24.568 6.70322C24.5177 6.70398 24.468 6.74801 24.4176 6.74876C24.4686 6.7913 24.57 6.83308 24.621 6.87561ZM25.2568 5.61057C25.1064 5.65611 25.1064 5.65611 25.056 5.65686C25.107 5.69939 25.158 5.74193 25.2084 5.74117C25.2587 5.74042 25.3091 5.73967 25.3588 5.69563C25.3084 5.69638 25.2574 5.65385 25.2568 5.61057ZM71.196 6.09349C71.1456 6.09424 71.0953 6.095 71.0953 6.095C71.0959 6.13828 71.0972 6.22485 71.0979 6.26814L71.1986 6.26663C71.1979 6.22335 71.1973 6.18006 71.196 6.09349ZM28.0332 2.66835C28.0332 2.66835 27.9842 2.75567 27.9848 2.79895C28.0352 2.7982 28.0862 2.84074 28.0862 2.84074C28.1365 2.83998 28.1862 2.79595 28.2359 2.75191C28.1856 2.75266 28.1346 2.71013 28.0332 2.66835ZM87.1545 2.2617C87.1545 2.2617 87.2559 2.30348 87.3062 2.30273C87.3056 2.25945 87.3553 2.21541 87.3553 2.21541C87.3546 2.17212 87.3036 2.12959 87.2526 2.08706C87.2533 2.13034 87.2539 2.17363 87.1545 2.2617ZM30.5774 4.40544C30.5277 4.44948 30.478 4.49352 30.4786 4.5368C30.4793 4.58009 30.5309 4.66591 30.5316 4.70919C30.5813 4.66516 30.6316 4.6644 30.631 4.62112C30.6297 4.53455 30.578 4.44873 30.5774 4.40544ZM30.8259 4.18526C30.8769 4.22779 30.8782 4.31436 30.8782 4.31436C30.9286 4.31361 31.0293 4.31211 31.079 4.26807C31.0783 4.22478 31.0273 4.18225 31.0273 4.18225C30.977 4.183 30.9266 4.18375 30.8259 4.18526ZM88.2688 6.05501C88.3198 6.09754 88.3211 6.18411 88.3211 6.18411C88.3714 6.18336 88.4722 6.18186 88.5219 6.13782C88.5212 6.09454 88.4702 6.052 88.4702 6.052C88.4199 6.05275 88.3192 6.05426 88.2688 6.05501ZM32.1086 5.76801C32.108 5.72473 32.057 5.68219 32.0557 5.59562C32.006 5.63966 31.9556 5.64041 31.9563 5.6837C31.9569 5.72698 32.0086 5.8128 32.0092 5.85609C32.0092 5.85609 32.0596 5.85533 32.1086 5.76801ZM94.162 6.09689C94.213 6.13942 94.2143 6.22599 94.2143 6.22599C94.2647 6.22524 94.3654 6.22374 94.4151 6.1797C94.4144 6.13641 94.3634 6.09388 94.3634 6.09388C94.3634 6.09388 94.2627 6.09538 94.162 6.09689ZM98.4116 3.99857C98.4116 3.99857 98.513 4.04035 98.5633 4.0396C98.5627 3.99631 98.6124 3.95227 98.6124 3.95227C98.6117 3.90899 98.5607 3.86646 98.5097 3.82392C98.4594 3.82467 98.46 3.86796 98.4116 3.99857ZM99.083 5.11421C99.134 5.15674 99.1353 5.24331 99.1353 5.24331C99.1857 5.24256 99.2864 5.24106 99.3361 5.19702C99.3354 5.15373 99.2844 5.1112 99.2844 5.1112C99.2838 5.06791 99.1837 5.1127 99.083 5.11421ZM103.118 2.10991C103.169 2.15244 103.22 2.19497 103.27 2.19422C103.32 2.19347 103.42 2.14868 103.471 2.14793C103.42 2.10539 103.419 2.06211 103.369 2.06286C103.269 2.10765 103.168 2.10915 103.118 2.10991ZM39.819 2.70882C39.7667 2.57971 39.7667 2.57971 39.7661 2.53643C39.7164 2.58047 39.6667 2.6245 39.6673 2.66779C39.668 2.71107 39.6686 2.75436 39.7196 2.79689C39.7693 2.75286 39.819 2.70882 39.819 2.70882ZM40.5214 2.52515C40.371 2.57069 40.371 2.57069 40.3206 2.57144C40.3716 2.61398 40.4226 2.65651 40.473 2.65576C40.5233 2.65501 40.5737 2.65425 40.6234 2.61022C40.573 2.61097 40.5724 2.56768 40.5214 2.52515ZM41.8274 5.66617C41.8274 5.66617 41.7783 5.75349 41.779 5.79678C41.8293 5.79603 41.8803 5.83856 41.8803 5.83856C41.9307 5.83781 41.9804 5.79377 42.0301 5.74973C41.9797 5.75049 41.9287 5.70795 41.8274 5.66617ZM114.17 6.96707C114.169 6.92378 114.118 6.88125 114.117 6.79468C114.067 6.83871 114.017 6.83947 114.017 6.88275C114.018 6.92604 114.069 7.01186 114.07 7.05514C114.07 7.05514 114.12 7.0111 114.17 6.96707ZM115.22 3.14142C115.17 3.14218 115.12 3.18621 115.02 3.18772C115.071 3.23025 115.071 3.27354 115.122 3.27278C115.172 3.27203 115.272 3.22724 115.322 3.22649C115.322 3.22649 115.271 3.18396 115.22 3.14142ZM118.695 6.50982C118.595 6.51133 118.544 6.4688 118.493 6.46955C118.493 6.46955 118.444 6.51358 118.444 6.55687C118.495 6.5994 118.596 6.5979 118.646 6.59715C118.596 6.5979 118.646 6.55386 118.695 6.50982ZM122.418 6.23775C122.318 6.23926 122.267 6.19673 122.216 6.19748C122.216 6.19748 122.167 6.24151 122.167 6.2848C122.218 6.32733 122.319 6.32583 122.369 6.32508C122.319 6.32583 122.369 6.28179 122.418 6.23775ZM123.156 5.05777C123.055 5.05928 123.004 5.01675 122.954 5.0175C122.954 5.0175 122.904 5.06153 122.905 5.10482C122.956 5.14735 123.057 5.14585 123.107 5.1451C123.107 5.1451 123.157 5.10106 123.156 5.05777ZM44.2488 5.93308C44.1481 5.93458 44.0971 5.89205 44.0468 5.8928C44.0468 5.8928 43.9971 5.93684 43.9977 5.98012C44.0487 6.02265 44.1494 6.02115 44.1998 6.0204C44.1998 6.0204 44.1991 5.97711 44.2488 5.93308ZM44.988 4.83967C44.9383 4.8837 44.8886 4.92774 44.8892 4.97103C44.8899 5.01431 44.9415 5.10013 44.9421 5.14341C44.9918 5.09938 45.0422 5.09863 45.0416 5.05534C44.9899 4.96952 44.9886 4.88295 44.988 4.83967ZM45.8033 5.47691C45.8046 5.56348 45.7549 5.60752 45.7555 5.65081C45.7555 5.65081 45.8065 5.69334 45.8569 5.69259C45.9066 5.64855 45.9053 5.56198 45.9047 5.51869C45.9047 5.51869 45.8543 5.51945 45.8033 5.47691ZM46.5735 6.46119C46.5238 6.50523 46.4734 6.50598 46.4237 6.55002C46.4747 6.59255 46.5257 6.63509 46.6264 6.63358C46.6768 6.63283 46.7265 6.58879 46.7768 6.58804C46.7258 6.54551 46.6245 6.50373 46.5735 6.46119ZM156.626 6.93917C156.476 6.98471 156.476 6.98471 156.425 6.98546C156.476 7.028 156.527 7.07053 156.578 7.06978C156.628 7.06903 156.678 7.06827 156.728 7.02424C156.627 6.98246 156.626 6.93917 156.626 6.93917ZM48.3273 2.49517C48.2266 2.49667 48.1756 2.45414 48.1253 2.45489C48.1253 2.45489 48.0756 2.49893 48.0762 2.54221C48.1272 2.58475 48.2279 2.58324 48.2783 2.58249C48.2789 2.62578 48.2783 2.58249 48.3273 2.49517ZM164.879 6.51285C164.83 6.55689 164.729 6.5584 164.729 6.5584C164.73 6.60168 164.731 6.68825 164.782 6.73079C164.832 6.73003 164.882 6.686 164.882 6.686C164.881 6.64271 164.88 6.55614 164.879 6.51285ZM48.0201 5.5304C48.0698 5.48636 48.1202 5.48561 48.1699 5.44157C48.1189 5.39904 48.0679 5.3565 47.9672 5.35801C47.9168 5.35876 47.8671 5.4028 47.8168 5.40355C47.9181 5.44533 47.9691 5.48786 48.0201 5.5304ZM50.0858 2.20914C50.0361 2.25318 49.9864 2.29721 49.987 2.3405C49.9877 2.38378 50.0393 2.4696 50.04 2.51289C50.0897 2.46885 50.14 2.4681 50.1394 2.42481C50.1381 2.33824 50.0865 2.25243 50.0858 2.20914ZM50.1943 6.10406C50.0936 6.10556 50.0426 6.06303 49.9923 6.06378C49.9923 6.06378 49.9426 6.10782 49.9432 6.1511C49.9942 6.19364 50.0949 6.19213 50.1453 6.19138C50.0949 6.19213 50.1446 6.14809 50.1943 6.10406ZM51.6642 3.35453C51.6119 3.22543 51.6119 3.22543 51.6113 3.18214C51.5616 3.22618 51.5119 3.27022 51.5125 3.3135C51.5131 3.35679 51.5138 3.40007 51.5648 3.4426C51.5641 3.39932 51.6139 3.35528 51.6642 3.35453ZM52.3156 3.12833C52.2633 2.99923 52.2633 2.99923 52.2626 2.95594C52.2129 2.99998 52.1632 3.04401 52.1639 3.0873C52.1645 3.13058 52.1651 3.17387 52.2161 3.2164C52.2155 3.17312 52.2652 3.12908 52.3156 3.12833ZM53.109 5.67088C53.0083 5.67238 52.9573 5.62985 52.9069 5.6306C52.9069 5.6306 52.8572 5.67464 52.8579 5.71792C52.9089 5.76046 53.0096 5.75895 53.0599 5.7582C53.0599 5.7582 53.0593 5.71491 53.109 5.67088ZM56.3316 5.62275C56.2309 5.62426 56.1799 5.58172 56.1295 5.58248C56.1295 5.58248 56.0798 5.62651 56.0804 5.6698C56.1314 5.71233 56.2322 5.71083 56.2825 5.71008C56.2825 5.71008 56.2819 5.66679 56.3316 5.62275ZM22.3919 5.99971C22.3415 6.00046 22.3421 6.04375 22.2918 6.0445L22.3428 6.08703C22.3931 6.08628 22.3931 6.08628 22.4429 6.04224C22.3925 6.04299 22.3919 5.99971 22.3919 5.99971ZM27.8429 6.7842C27.8932 6.78345 27.8926 6.74016 27.9429 6.73941L27.8919 6.69688C27.8416 6.69763 27.8416 6.69763 27.7919 6.74167C27.7925 6.78495 27.8429 6.7842 27.8429 6.7842ZM28.4226 5.13034L28.3716 5.08781C28.3722 5.13109 28.3218 5.13184 28.3225 5.17513L28.3735 5.21766C28.3728 5.17438 28.4226 5.13034 28.4226 5.13034ZM29.1004 6.67883C29.1011 6.72212 29.1514 6.72137 29.1521 6.76465L29.2018 6.72061C29.2011 6.67733 29.2011 6.67733 29.1501 6.6348C29.1508 6.67808 29.1508 6.67808 29.1004 6.67883ZM29.9009 6.32052L29.8499 6.27799C29.8505 6.32127 29.8002 6.32202 29.8008 6.36531L29.8518 6.40784C29.8518 6.40784 29.9015 6.36381 29.9009 6.32052ZM30.0965 5.92795C30.0461 5.9287 30.0468 5.97198 29.9964 5.97273L30.0474 6.01527C30.0978 6.01452 30.0978 6.01452 30.1475 5.97048C30.0965 5.92795 30.0965 5.92795 30.0965 5.92795ZM30.2527 6.27197L30.3037 6.3145C30.3541 6.31375 30.3541 6.31375 30.4038 6.26972L30.3528 6.22718C30.3528 6.22718 30.3024 6.22793 30.2527 6.27197ZM30.487 5.09951C30.4367 5.10026 30.4373 5.14355 30.387 5.1443L30.438 5.18683C30.4883 5.18608 30.4883 5.18608 30.538 5.14204C30.538 5.14204 30.4877 5.1428 30.487 5.09951ZM31.1591 6.25844L31.1093 6.30247C31.11 6.34576 31.11 6.34576 31.161 6.38829L31.2107 6.34426C31.1597 6.30172 31.1597 6.30172 31.1591 6.25844ZM31.4683 6.73006L31.4173 6.68753C31.4179 6.73081 31.3676 6.73157 31.3682 6.77485L31.4192 6.81738C31.4186 6.7741 31.4689 6.77335 31.4683 6.73006ZM33.4171 2.32818L33.3661 2.28564C33.3668 2.32893 33.3164 2.32968 33.317 2.37297L33.368 2.4155C33.3674 2.37222 33.3674 2.37222 33.4171 2.32818ZM33.8348 3.31772L33.7851 3.36176C33.8354 3.36101 33.8361 3.40429 33.8864 3.40354L33.9362 3.3595C33.9362 3.3595 33.8851 3.31697 33.8348 3.31772ZM38.9198 3.19849L38.8688 3.15596C38.8694 3.19924 38.8191 3.19999 38.8197 3.24328L38.8707 3.28581C38.8701 3.24253 38.9198 3.19849 38.9198 3.19849ZM39.2006 5.14257L39.1496 5.10003C39.1503 5.14332 39.0999 5.14407 39.1006 5.18735L39.1516 5.22989C39.1509 5.1866 39.1503 5.14332 39.2006 5.14257ZM39.5718 6.39257C39.5725 6.43586 39.6228 6.43511 39.6235 6.47839L39.6732 6.43435C39.6726 6.39107 39.6726 6.39107 39.6216 6.34854C39.6222 6.39182 39.6222 6.39182 39.5718 6.39257ZM40.0534 4.91336C40.054 4.95664 40.1044 4.95589 40.105 4.99917L40.1548 4.95514C40.1541 4.91185 40.1541 4.91185 40.1031 4.86932C40.1038 4.9126 40.1038 4.9126 40.0534 4.91336ZM40.3775 6.38054L40.4285 6.42308C40.4278 6.37979 40.4782 6.37904 40.4775 6.33575L40.4266 6.29322C40.4272 6.3365 40.4272 6.3365 40.3775 6.38054ZM41.054 4.46547L41.105 4.508C41.1553 4.50725 41.1553 4.50725 41.205 4.46321L41.154 4.42068C41.154 4.42068 41.1043 4.46471 41.054 4.46547ZM42.8131 4.22272C42.8125 4.17944 42.7621 4.18019 42.7615 4.1369L42.7118 4.18094C42.7124 4.22423 42.7124 4.22422 42.7634 4.26676L42.8131 4.22272ZM43.0494 3.18012L43.0991 3.13608C43.0487 3.13683 43.0481 3.09355 42.9977 3.0943L42.948 3.13834C42.9984 3.13758 43.0487 3.13683 43.0494 3.18012ZM43.3354 5.47047L43.2844 5.42794C43.285 5.47122 43.2347 5.47198 43.2353 5.51526L43.2863 5.5578C43.2857 5.51451 43.285 5.47123 43.3354 5.47047ZM44.1145 3.68375L44.0648 3.72779C44.1152 3.72703 44.1158 3.77032 44.1662 3.76957L44.2159 3.72553C44.1655 3.72628 44.1152 3.72703 44.1145 3.68375ZM45.2862 4.57544L45.2365 4.61948C45.2371 4.66277 45.2371 4.66277 45.2881 4.7053L45.3379 4.66126C45.3379 4.66126 45.2869 4.61873 45.2862 4.57544ZM45.4625 6.26131L45.5122 6.21727C45.4618 6.21802 45.4612 6.17474 45.4108 6.17549L45.3611 6.21953C45.4115 6.21878 45.4115 6.21878 45.4625 6.26131ZM32.2526 5.28962L32.2016 5.24709C32.2022 5.29037 32.1519 5.29112 32.1525 5.33441L32.2035 5.37694C32.2532 5.3329 32.2526 5.28962 32.2526 5.28962ZM47.2796 3.16024L47.2286 3.11771C47.2293 3.16099 47.1789 3.16174 47.1796 3.20503L47.2306 3.24756C47.2299 3.20428 47.2796 3.16024 47.2796 3.16024ZM48.7418 3.26829L48.7928 3.31082C48.8432 3.31007 48.8432 3.31007 48.8929 3.26603L48.8419 3.2235C48.7922 3.26754 48.7922 3.26754 48.7418 3.26829ZM49.2886 6.16088L49.2389 6.20491C49.2893 6.20416 49.2899 6.24745 49.3403 6.2467L49.39 6.20266C49.3396 6.20341 49.2893 6.20416 49.2886 6.16088ZM49.7366 5.80783C49.7373 5.85111 49.7876 5.85036 49.7883 5.89365L49.838 5.84961C49.8374 5.80632 49.8373 5.80632 49.7863 5.76379C49.787 5.80708 49.787 5.80708 49.7366 5.80783ZM50.1956 2.81363L50.1446 2.7711C50.1452 2.81438 50.0949 2.81513 50.0955 2.85842L50.1465 2.90095C50.1459 2.85767 50.1962 2.85691 50.1956 2.81363ZM50.3402 2.37852L50.2905 2.42256C50.3408 2.42181 50.3415 2.46509 50.3918 2.46434L50.4415 2.4203C50.3912 2.42105 50.3912 2.42105 50.3402 2.37852ZM50.8405 2.15458L50.7908 2.19861C50.8411 2.19786 50.8418 2.24115 50.8921 2.24039L50.9418 2.19636C50.8915 2.19711 50.8908 2.15382 50.8405 2.15458ZM51.1471 2.45306L51.0974 2.4971C51.1478 2.49635 51.1484 2.53963 51.1987 2.53888L51.2485 2.49484C51.1981 2.49559 51.1471 2.45306 51.1471 2.45306ZM90.3267 2.21433L90.277 2.25837C90.3274 2.25761 90.328 2.3009 90.3784 2.30015L90.4281 2.25611C90.3777 2.25686 90.3771 2.21358 90.3267 2.21433ZM91.789 5.69938L91.84 5.74191C91.8903 5.74116 91.8903 5.74116 91.94 5.69712L91.889 5.65459C91.889 5.65459 91.8387 5.65534 91.789 5.69938ZM73.0551 2.42896C73.0544 2.38568 73.0041 2.38643 73.0034 2.34314L72.9537 2.38718C72.9544 2.43046 72.9544 2.43046 73.0054 2.473C73.0054 2.473 73.0054 2.473 73.0551 2.42896ZM92.9 5.89926L92.849 5.85673C92.8496 5.90001 92.7993 5.90076 92.7999 5.94405L92.8509 5.98658C92.8503 5.9433 92.8496 5.90001 92.9 5.89926ZM93.6023 2.33859L93.5513 2.29606C93.5519 2.33935 93.5016 2.3401 93.5022 2.38338L93.5532 2.42592C93.5525 2.38263 93.6029 2.38188 93.6023 2.33859ZM95.6719 2.65405L95.6209 2.61151C95.6215 2.6548 95.5712 2.65555 95.5718 2.69883L95.6228 2.74137C95.6222 2.69808 95.6215 2.6548 95.6719 2.65405ZM95.9824 3.21224C95.9831 3.25553 96.0334 3.25477 96.0341 3.29806L96.0838 3.25402C96.0831 3.21074 96.0831 3.21074 96.0321 3.1682C95.9824 3.21224 95.9824 3.21224 95.9824 3.21224ZM96.0986 4.24958C96.098 4.2063 96.0476 4.20705 96.047 4.16376L95.9973 4.2078C95.9979 4.25109 95.9979 4.25109 96.0489 4.29362C96.0986 4.24958 96.0986 4.24958 96.0986 4.24958ZM72.9092 2.7775C72.9098 2.82078 72.9602 2.82003 72.9608 2.86332L73.0106 2.81928C73.0099 2.77599 73.0099 2.77599 72.9589 2.73346C72.9092 2.7775 72.9092 2.7775 72.9092 2.7775ZM72.7892 4.85744L72.7382 4.81491C72.7388 4.8582 72.6885 4.85895 72.6891 4.90223L72.7401 4.94477C72.7395 4.90148 72.7395 4.90148 72.7892 4.85744ZM79.6242 3.88948L79.5732 3.84694C79.5739 3.89023 79.5235 3.89098 79.5242 3.93426L79.5752 3.9768C79.5745 3.93351 79.6242 3.88948 79.6242 3.88948ZM79.7817 4.32007L79.8327 4.36261C79.8831 4.36185 79.8831 4.36185 79.9328 4.31782L79.8818 4.27528C79.8315 4.27604 79.7817 4.32007 79.7817 4.32007ZM75.7826 6.32806C75.7323 6.32881 75.7329 6.3721 75.6826 6.37285L75.7336 6.41538C75.7839 6.41463 75.7839 6.41463 75.8336 6.3706C75.833 6.32731 75.833 6.32731 75.7826 6.32806ZM73.6149 6.18725L73.6659 6.22979C73.7162 6.22904 73.7162 6.22904 73.7659 6.185L73.7149 6.14247C73.6646 6.14322 73.6652 6.1865 73.6149 6.18725ZM61.2183 2.34596L61.2693 2.38849C61.2687 2.3452 61.319 2.34445 61.3184 2.30117L61.2674 2.25863C61.268 2.30192 61.268 2.30192 61.2183 2.34596ZM105.448 3.02759L105.499 3.07012C105.549 3.06937 105.549 3.06937 105.599 3.02534L105.548 2.9828C105.498 2.98355 105.447 2.98431 105.448 3.02759ZM75.0176 2.31306L75.0686 2.3556C75.0679 2.31231 75.1183 2.31156 75.1176 2.26828L75.0666 2.22574C75.0673 2.26903 75.0673 2.26903 75.0176 2.31306ZM105.741 2.41709L105.791 2.37305C105.741 2.3738 105.74 2.33052 105.69 2.33127L105.64 2.37531C105.69 2.37455 105.741 2.3738 105.741 2.41709ZM105.952 3.02007C105.952 3.06336 106.003 3.06261 106.003 3.10589L106.053 3.06185C106.052 3.01857 106.052 3.01857 106.001 2.97603C105.952 3.02007 105.952 3.02007 105.952 3.02007ZM60.3849 3.87372C60.3856 3.91701 60.4359 3.91626 60.4366 3.95954L60.4863 3.9155C60.4856 3.87222 60.4856 3.87222 60.4346 3.82969C60.4353 3.87297 60.4353 3.87297 60.3849 3.87372ZM59.9111 2.49536L59.9621 2.5379C59.9614 2.49461 60.0118 2.49386 60.0111 2.45057L59.9601 2.40804C59.9608 2.45133 59.9614 2.49461 59.9111 2.49536ZM108.529 7.008L108.58 7.05053C108.58 7.00725 108.63 7.0065 108.629 6.96321L108.578 6.92068C108.579 6.96396 108.579 6.96396 108.529 7.008ZM109.368 2.4928C109.369 2.53609 109.419 2.53534 109.42 2.57862L109.47 2.53458C109.469 2.4913 109.469 2.4913 109.418 2.44876C109.418 2.44876 109.368 2.44952 109.368 2.4928ZM109.671 2.53158L109.722 2.57411C109.773 2.57336 109.773 2.57336 109.822 2.52932L109.771 2.48679C109.721 2.48754 109.721 2.48754 109.671 2.53158ZM110.45 4.07856C110.45 4.12185 110.501 4.1211 110.501 4.16438L110.551 4.12035C110.551 4.07706 110.551 4.07706 110.5 4.03453C110.5 4.03453 110.5 4.07781 110.45 4.07856ZM110.685 6.32639L110.736 6.36892C110.786 6.36817 110.786 6.36817 110.836 6.32413L110.785 6.2816C110.735 6.28235 110.735 6.32564 110.685 6.32639ZM111.187 6.2323L111.238 6.27483C111.288 6.27408 111.288 6.27408 111.338 6.23004L111.287 6.18751C111.237 6.18826 111.187 6.2323 111.187 6.2323ZM112.017 4.48811C112.018 4.53139 112.068 4.53064 112.069 4.57392L112.119 4.52989C112.118 4.4866 112.118 4.4866 112.067 4.44407C112.067 4.44407 112.067 4.44407 112.017 4.48811ZM57.5504 6.29727C57.551 6.34056 57.6014 6.3398 57.602 6.38309L57.6517 6.33905C57.6511 6.29577 57.6511 6.29577 57.6001 6.25323C57.6001 6.25323 57.6007 6.29652 57.5504 6.29727ZM113.461 6.76117C113.411 6.76192 113.412 6.8052 113.361 6.80596L113.412 6.84849C113.463 6.84774 113.463 6.84774 113.512 6.8037C113.512 6.8037 113.462 6.80445 113.461 6.76117ZM57.9441 2.30826L57.8931 2.26573C57.8937 2.30901 57.8434 2.30977 57.844 2.35305L57.895 2.39558C57.9454 2.39483 57.9447 2.35155 57.9441 2.30826ZM82.9707 2.02112L82.921 2.06515C82.9714 2.0644 82.972 2.10769 83.0224 2.10693L83.0721 2.0629C83.0217 2.06365 82.9714 2.0644 82.9707 2.02112ZM115.417 6.21242L115.368 6.25646C115.418 6.2557 115.419 6.29899 115.469 6.29824L115.519 6.2542C115.468 6.25495 115.418 6.2557 115.417 6.21242ZM57.469 4.22033C57.4696 4.26362 57.52 4.26286 57.5206 4.30615L57.5703 4.26211C57.5697 4.21883 57.5697 4.21883 57.5187 4.17629C57.5187 4.17629 57.5193 4.21958 57.469 4.22033ZM116.531 6.58544L116.481 6.62948C116.482 6.67277 116.482 6.67277 116.533 6.7153L116.583 6.67126C116.532 6.62873 116.531 6.58544 116.531 6.58544ZM118.021 1.84404L118.071 1.80001C118.021 1.80076 118.02 1.75747 117.97 1.75823L117.92 1.80226C117.97 1.80151 117.97 1.80151 118.021 1.84404ZM57.4044 3.26881L57.4554 3.31134C57.4548 3.26806 57.5051 3.2673 57.5045 3.22402L57.4535 3.18149C57.4541 3.22477 57.4548 3.26806 57.4044 3.26881ZM118.884 2.26411C118.885 2.3074 118.935 2.30665 118.936 2.34993L118.985 2.3059C118.985 2.26261 118.985 2.26261 118.934 2.22008C118.883 2.22083 118.883 2.22083 118.884 2.26411ZM120.052 6.31638L120.003 6.36042C120.003 6.4037 120.003 6.4037 120.054 6.44624L120.104 6.4022C120.103 6.35891 120.103 6.31563 120.052 6.31638ZM57.2953 2.7076L57.3463 2.75014C57.3967 2.74939 57.3967 2.74939 57.4464 2.70535L57.3954 2.66282C57.3954 2.66282 57.3457 2.70685 57.2953 2.7076ZM121.653 2.17947L121.603 2.22351C121.653 2.22276 121.654 2.26604 121.704 2.26529L121.754 2.22125C121.703 2.17872 121.653 2.17947 121.653 2.17947ZM122.959 5.32049C122.908 5.32125 122.909 5.36453 122.859 5.36528L122.91 5.40782C122.96 5.40706 122.96 5.40706 123.01 5.36303C122.959 5.32049 122.959 5.32049 122.959 5.32049ZM83.9869 5.98907L83.9372 6.03311C83.9875 6.03235 83.9882 6.07564 84.0385 6.07489L84.0882 6.03085C84.0379 6.0316 83.9869 5.98907 83.9869 5.98907ZM124.624 5.55539L124.574 5.59943C124.625 5.59868 124.625 5.64196 124.676 5.64121L124.726 5.59717C124.675 5.59792 124.675 5.59792 124.624 5.55539ZM128.628 3.8504L128.679 3.89293C128.729 3.89218 128.729 3.89218 128.779 3.84814L128.728 3.80561C128.678 3.84965 128.628 3.8504 128.628 3.8504ZM129.141 4.49216L129.191 4.44812C129.14 4.44887 129.14 4.40559 129.089 4.40634L129.04 4.45037C129.04 4.45037 129.091 4.49291 129.141 4.49216ZM129.182 3.84213C129.131 3.84288 129.132 3.88616 129.082 3.88691L129.133 3.92945C129.183 3.9287 129.183 3.9287 129.233 3.88466C129.233 3.88466 129.233 3.88466 129.182 3.84213ZM130.361 1.87624L130.311 1.92028C130.312 1.96357 130.312 1.96357 130.363 2.0061L130.413 1.96206C130.412 1.91878 130.361 1.87624 130.361 1.87624ZM131.925 5.44636C131.875 5.44711 131.876 5.4904 131.825 5.49115L131.876 5.53368C131.927 5.53293 131.927 5.53293 131.976 5.48889C131.926 5.48964 131.926 5.48964 131.925 5.44636ZM132.01 4.36272C131.96 4.36348 131.96 4.40676 131.91 4.40751L131.961 4.45005C132.011 4.4493 132.011 4.44929 132.061 4.40526C132.061 4.40526 132.06 4.36197 132.01 4.36272ZM132.537 2.57976L132.587 2.53572C132.537 2.53647 132.536 2.49319 132.486 2.49394L132.436 2.53798C132.486 2.53723 132.537 2.53647 132.537 2.57976ZM136.515 2.52036C136.516 2.56364 136.566 2.56289 136.567 2.60617L136.616 2.56214C136.616 2.51885 136.616 2.51885 136.565 2.47632C136.514 2.47707 136.515 2.52036 136.515 2.52036ZM137.444 4.0218L137.495 4.06434C137.494 4.02105 137.545 4.0203 137.544 3.97701L137.493 3.93448C137.494 3.97777 137.494 3.97777 137.444 4.0218ZM85.8189 3.88356L85.7692 3.92759C85.7698 3.97088 85.7698 3.97088 85.8208 4.01341L85.8706 3.96938C85.8706 3.96938 85.8196 3.92684 85.8189 3.88356ZM138.845 6.77175L138.895 6.72772C138.844 6.72847 138.844 6.68518 138.793 6.68594L138.744 6.72997C138.744 6.72997 138.795 6.77251 138.845 6.77175ZM56.4949 6.44292L56.4452 6.48695C56.4458 6.53024 56.4458 6.53024 56.4968 6.57277L56.5465 6.52873C56.5459 6.48545 56.4956 6.4862 56.4949 6.44292ZM73.964 2.58857L73.913 2.54603C73.9137 2.58932 73.8633 2.59007 73.864 2.63336L73.915 2.67589C73.9653 2.67514 73.9647 2.63185 73.964 2.58857ZM56.7343 2.23974L56.7853 2.28227C56.8357 2.28152 56.8357 2.28152 56.8854 2.23748L56.8344 2.19495C56.784 2.1957 56.7343 2.23974 56.7343 2.23974ZM142.171 6.89527L142.221 6.85123C142.17 6.85198 142.17 6.8087 142.119 6.80945L142.069 6.85349C142.12 6.85273 142.171 6.89527 142.171 6.89527ZM55.9856 6.06087L56.0366 6.1034C56.0869 6.10265 56.0869 6.10265 56.1366 6.05861L56.0856 6.01608C56.0353 6.01683 55.9856 6.06087 55.9856 6.06087ZM86.9563 2.48114C86.906 2.48189 86.9066 2.52517 86.8563 2.52592L86.9073 2.56846C86.9576 2.56771 86.9576 2.56771 87.0073 2.52367C87.0073 2.52367 87.0073 2.52367 86.9563 2.48114ZM56.0417 6.44968L55.9907 6.40715C55.9914 6.45044 55.941 6.45119 55.9417 6.49447L55.9927 6.53701C56.0424 6.49297 56.0424 6.49297 56.0417 6.44968ZM76.6799 5.70853L76.6289 5.666C76.6296 5.70929 76.5792 5.71004 76.5798 5.75332L76.6308 5.79586C76.6308 5.79586 76.6806 5.75182 76.6799 5.70853ZM87.8046 1.94893C87.8549 1.94818 87.8543 1.90489 87.9046 1.90414L87.8536 1.86161C87.8033 1.86236 87.8033 1.86236 87.7536 1.9064C87.7536 1.9064 87.7542 1.94968 87.8046 1.94893ZM155.926 7.29598L155.976 7.25194C155.926 7.25269 155.925 7.20941 155.875 7.21016L155.825 7.2542C155.875 7.25345 155.926 7.25269 155.926 7.29598ZM158.694 3.79105C158.745 3.7903 158.744 3.74702 158.794 3.74626L158.743 3.70373C158.693 3.70448 158.693 3.70448 158.643 3.74852C158.643 3.74852 158.694 3.74777 158.694 3.79105ZM88.412 2.15633L88.3623 2.20037C88.363 2.24366 88.363 2.24366 88.414 2.28619L88.4637 2.24215C88.4637 2.24215 88.463 2.19887 88.412 2.15633ZM54.6803 6.34013C54.6809 6.38342 54.7313 6.38266 54.7319 6.42595L54.7816 6.38191C54.781 6.33863 54.781 6.33863 54.73 6.29609L54.6803 6.34013ZM54.5602 5.04308L54.5105 5.08712C54.5111 5.1304 54.5111 5.1304 54.5621 5.17293L54.6118 5.1289C54.6112 5.08561 54.5608 5.08636 54.5602 5.04308ZM166.074 5.58582L166.124 5.54178C166.074 5.54253 166.073 5.49925 166.023 5.5L165.973 5.54404C166.023 5.54329 166.074 5.58582 166.074 5.58582ZM54.4717 5.867C54.4214 5.86775 54.422 5.91104 54.3717 5.91179L54.4227 5.95432C54.473 5.95357 54.473 5.95357 54.5227 5.90953C54.5227 5.90953 54.5227 5.90953 54.4717 5.867ZM68.1199 5.83637C68.0696 5.83712 68.0702 5.8804 68.0199 5.88115L68.0709 5.92369C68.1212 5.92294 68.1212 5.92294 68.1709 5.8789C68.1709 5.8789 68.1709 5.8789 68.1199 5.83637ZM54.1554 4.91924L54.1044 4.87671C54.1051 4.91999 54.0547 4.92074 54.0553 4.96403L54.1064 5.00656C54.1057 4.96328 54.1057 4.96328 54.1554 4.91924ZM53.069 6.36419L53.12 6.40673C53.1703 6.40597 53.1703 6.40597 53.22 6.36194L53.169 6.3194C53.1193 6.36344 53.069 6.36419 53.069 6.36419ZM72.6594 6.28811L72.7104 6.33065C72.7098 6.28736 72.7602 6.28661 72.7595 6.24332L72.7085 6.20079C72.7085 6.20079 72.7092 6.24408 72.6594 6.28811ZM89.1189 2.27566L89.1699 2.31819C89.2203 2.31744 89.2203 2.31744 89.27 2.27341L89.219 2.23087C89.2196 2.27416 89.1693 2.27491 89.1189 2.27566ZM66.9735 6.63279L66.9225 6.59026C66.9231 6.63355 66.8728 6.6343 66.8734 6.67758L66.9244 6.72012C66.9238 6.67683 66.9231 6.63355 66.9735 6.63279ZM89.5928 3.65402C89.5424 3.65477 89.5431 3.69806 89.4927 3.69881L89.5437 3.74134C89.5941 3.74059 89.5941 3.74059 89.6438 3.69655C89.5934 3.69731 89.5934 3.69731 89.5928 3.65402ZM52.3078 2.60891C52.3072 2.56562 52.2568 2.56637 52.2562 2.52309L52.2065 2.56713C52.2071 2.61041 52.2071 2.61041 52.2581 2.65294L52.3078 2.60891ZM51.8482 5.55982C51.8489 5.60311 51.8992 5.60235 51.8999 5.64564L51.9496 5.6016C51.9489 5.55832 51.9489 5.55832 51.8979 5.51578C51.8986 5.55907 51.8986 5.55907 51.8482 5.55982ZM92.6631 6.89858C92.7134 6.89783 92.7631 6.85379 92.8128 6.80975C92.7618 6.76722 92.7102 6.6814 92.6592 6.63887C92.6088 6.63962 92.5591 6.68366 92.4087 6.7292C92.5107 6.81427 92.5624 6.90008 92.6631 6.89858ZM91.0047 7.13982C91.055 7.13907 91.106 7.1816 91.106 7.1816C91.1564 7.18085 91.2061 7.13681 91.2558 7.09277C91.2054 7.09353 91.1544 7.05099 91.0531 7.00921C91.1041 7.05175 91.0544 7.09578 91.0047 7.13982ZM96.4441 7.14518C96.4447 7.18847 96.446 7.27504 96.497 7.31757C96.5473 7.31682 96.5971 7.27278 96.5971 7.27278C96.5964 7.2295 96.5951 7.14292 96.5938 7.05635C96.5441 7.10039 96.4441 7.14518 96.4441 7.14518ZM105.307 7.05612C105.357 7.05537 105.407 7.05462 105.458 7.05387C105.407 7.01133 105.406 6.92476 105.355 6.92552C105.305 6.92627 105.204 6.92777 105.104 6.97256C105.205 7.01434 105.256 7.05688 105.307 7.05612ZM42.4517 6.99899C42.502 6.99824 42.6027 6.99673 42.6524 6.9527C42.6518 6.90941 42.6008 6.86688 42.6008 6.86688C42.5504 6.86763 42.4497 6.86913 42.349 6.87064C42.451 6.9557 42.4517 6.99899 42.4517 6.99899ZM43.7602 6.93615C43.8105 6.9354 43.9112 6.9339 43.9609 6.88986C43.9603 6.84658 43.9093 6.80404 43.9093 6.80404C43.8589 6.8048 43.7582 6.8063 43.6575 6.8078C43.7092 6.89362 43.7602 6.93615 43.7602 6.93615ZM28.3012 7.12372C28.3006 7.08043 28.3509 7.07968 28.3503 7.03639L28.2993 6.99386C28.2999 7.03715 28.2496 7.0379 28.2502 7.08118C28.3006 7.08043 28.3012 7.12372 28.3012 7.12372ZM41.7977 7.05205C41.8481 7.0513 41.8481 7.0513 41.8978 7.00726L41.8468 6.96473C41.7964 6.96548 41.7964 6.96548 41.7467 7.00952C41.7467 7.00952 41.7474 7.0528 41.7977 7.05205ZM42.0992 7.00425C42.0998 7.04754 42.0998 7.04754 42.1508 7.09007L42.2005 7.04604C42.1999 7.00275 42.1999 7.00275 42.1489 6.96022C42.0992 7.00425 42.0992 7.00425 42.0992 7.00425ZM45.1191 6.87257L45.1701 6.9151C45.2204 6.91435 45.2204 6.91435 45.2701 6.87031L45.2191 6.82778C45.2191 6.82778 45.1688 6.82853 45.1191 6.87257ZM65.9309 7.64414L65.9819 7.68668C66.0323 7.68593 66.0323 7.68593 66.082 7.64189L66.031 7.59936C65.9813 7.64339 65.9309 7.64414 65.9309 7.64414ZM94.8876 7.47149C94.938 7.47074 94.938 7.47074 94.9877 7.4267L94.9367 7.38416C94.8864 7.38492 94.8864 7.38492 94.8366 7.42895C94.8366 7.42895 94.8373 7.47224 94.8876 7.47149ZM62.9039 7.29969L62.9549 7.34223C63.0053 7.34148 63.0053 7.34148 63.055 7.29744L63.004 7.2549C62.9536 7.25566 62.9536 7.25566 62.9039 7.29969ZM99.1882 2.0387C99.2385 2.03795 99.2379 1.99466 99.2882 1.99391C99.2372 1.95138 99.2372 1.95138 99.1862 1.90885L99.1365 1.95288C99.1372 1.99617 99.1875 1.99542 99.1882 2.0387ZM99.9951 2.11324C100.045 2.11249 100.045 2.0692 100.095 2.06845C100.044 2.02592 100.044 2.02592 99.9932 1.98339L99.9435 2.02742C99.9441 2.07071 99.9945 2.06996 99.9951 2.11324ZM107.373 7.11186C107.373 7.15515 107.374 7.19843 107.424 7.19768C107.424 7.19768 107.475 7.19693 107.525 7.19618C107.524 7.15289 107.474 7.15365 107.473 7.11036C107.423 7.11111 107.423 7.11111 107.373 7.11186ZM71.2612 7.0883L71.3122 7.13083C71.3625 7.13008 71.3626 7.13008 71.4123 7.08604L71.3613 7.04351C71.3619 7.0868 71.3116 7.08755 71.2612 7.0883ZM165.675 2.43126C165.725 2.43051 165.775 2.38647 165.825 2.38572C165.774 2.34319 165.723 2.30065 165.723 2.30065C165.723 2.30065 165.724 2.34394 165.675 2.43126ZM52.7152 6.28289C52.712 6.06646 52.5119 6.15604 52.4105 6.11426C52.4112 6.15754 52.4118 6.20083 52.4125 6.24411C52.5138 6.28589 52.6145 6.28439 52.7152 6.28289Z" fill="#FDB706"/>
</svg>
