<svg width="203" height="9" viewBox="0 0 203 9" fill="none" xmlns="http://www.w3.org/2000/svg">
<path d="M52.3982 2.87358C52.4554 2.65598 52.637 2.52257 52.7606 2.56348C53.0683 2.60082 53.0027 2.3856 53.1246 2.33995C53.249 2.42414 53.3734 2.50833 53.4978 2.59251C53.6214 2.63342 53.8064 2.67314 53.8669 2.62867C54.1099 2.49408 54.2334 2.53499 54.2376 2.7514C54.2385 2.79468 54.4226 2.79112 54.4848 2.83321C54.4839 2.78993 54.4831 2.74665 54.4822 2.70336L54.42 2.66127C54.3562 2.53261 54.2914 2.36067 54.352 2.3162C54.7177 2.17923 54.6008 2.48458 54.7252 2.56877C54.7874 2.61087 54.8505 2.69624 54.9127 2.73834C54.9749 2.78043 55.0354 2.73596 55.0976 2.77806C55.0968 2.73477 55.0959 2.69149 55.0951 2.64821C55.0934 2.56165 55.0295 2.43299 55.0909 2.4318C55.2733 2.34168 55.3364 2.42705 55.4608 2.51124C55.5852 2.59543 55.713 2.85275 55.829 2.50412C56.3805 2.45015 56.9295 2.26634 57.4876 2.55863C57.6734 2.64163 57.6751 2.72819 57.7936 2.50941C57.913 2.33391 58.3434 2.36888 58.5326 2.62501C58.5326 2.62501 58.5326 2.62501 58.5317 2.58173C58.4704 2.58291 58.409 2.5841 58.4098 2.62738C58.4098 2.62738 58.4107 2.67066 58.4115 2.71395C58.4729 2.71276 58.472 2.66948 58.5326 2.62501C58.7125 2.40504 58.8344 2.35938 58.9554 2.27044C59.1984 2.13585 59.1404 2.31016 59.2026 2.35226C59.2656 2.43763 59.4497 2.43407 59.5733 2.47498C59.5136 2.56273 59.4539 2.65048 59.3934 2.69495C59.5161 2.69258 59.5775 2.69139 59.7002 2.68902C59.823 2.68664 60.0062 2.6398 60.1904 2.63624C60.1298 2.6807 60.0693 2.72517 60.0096 2.81293C60.0096 2.81293 60.0735 2.94158 60.0726 2.8983C60.1954 2.89593 60.3173 2.85027 60.5014 2.84671C60.4383 2.76133 60.3148 2.72042 60.1904 2.63624C60.0626 2.37892 59.8776 2.3392 59.5733 2.47498C59.6877 2.03979 59.686 1.95322 60.1803 2.11685C60.4897 2.24076 60.9159 2.05932 61.2269 2.2698C61.2891 2.31189 61.4724 2.26505 61.5951 2.26267C61.8995 2.12689 62.2071 2.16424 62.3938 2.29052C62.456 2.33262 62.5787 2.33024 62.7014 2.32787C62.7014 2.32787 62.6998 2.2413 62.7603 2.19684C62.8814 2.1079 63.0638 2.01777 63.1252 2.01658C63.3101 2.0563 63.374 2.18496 63.131 2.31956C63.0705 2.36403 63.5042 2.57213 63.6867 2.482C63.8691 2.39187 64.0507 2.25847 64.2979 2.34028C64.2979 2.34028 64.2979 2.34028 64.2365 2.34147C64.2373 2.38475 64.2382 2.42803 64.2995 2.42685C64.2995 2.42685 64.3609 2.42566 64.4223 2.42447C64.4214 2.38119 64.3601 2.38238 64.2979 2.34028C64.2323 2.12506 64.4139 1.99165 64.598 1.98809C65.0276 1.97978 65.5168 1.88372 65.8304 2.22404C65.9565 2.39479 66.2575 2.08588 66.3852 2.3432C66.6265 2.12204 66.8737 2.20386 67.12 2.24239C67.3041 2.23883 67.4234 2.06332 67.6723 2.2317C67.7967 2.31589 68.0363 2.00817 68.2246 2.22102C68.2254 2.2643 68.2868 2.26311 68.3482 2.26193C68.7769 2.21033 69.5125 2.15281 69.9446 2.27434C70.1917 2.35616 70.3153 2.39706 70.5574 2.21919C70.618 2.17472 70.924 2.1255 70.9862 2.16759C71.2972 2.37807 71.5393 2.20019 71.7218 2.11007C72.0866 1.92981 72.0858 1.88653 72.3354 2.09819C72.5229 2.26776 72.7087 2.35076 73.013 2.21498C73.2635 2.46992 73.4443 2.29323 73.6267 2.20311C73.6267 2.20311 74.6061 2.05427 74.6683 2.09636C74.7927 2.18055 74.9163 2.22146 75.0987 2.13133C75.1592 2.08686 75.3433 2.0833 75.4047 2.08211C75.6527 2.20721 75.8401 2.37678 76.2672 2.23862C76.5732 2.1894 76.8817 2.27003 77.2499 2.26291C77.3113 2.26172 77.3718 2.21725 77.4332 2.21606C77.6778 2.16803 77.6115 1.90953 77.9175 1.86031C78.1629 1.85556 78.2907 2.11288 78.5328 1.935C78.5933 1.89053 78.7169 1.93144 78.7791 1.97354C78.9641 2.01326 78.9708 2.35951 79.3348 2.13598C79.4567 2.09032 79.7669 2.25751 80.0132 2.29605C80.4453 2.41758 80.9337 2.27824 81.3003 2.18455C81.6668 2.09086 81.9139 2.17268 82.2199 2.12346C82.2813 2.12227 82.2822 2.16556 82.3444 2.20765C82.283 2.20884 82.2225 2.25331 82.1611 2.25449C82.0997 2.25568 82.0384 2.25687 81.977 2.25806C81.9156 2.25924 81.8542 2.26043 81.7929 2.26162C81.8551 2.30371 81.8559 2.34699 81.9181 2.38909C81.9803 2.43118 82.1047 2.51537 82.2283 2.55628C82.2897 2.55509 82.473 2.50825 82.5335 2.46378C82.5932 2.37603 82.5301 2.29065 82.5898 2.2029C82.6504 2.15843 82.7101 2.07068 82.8328 2.06831C83.507 2.01197 84.1879 2.30188 84.9202 2.07122C85.1034 2.02438 84.7436 2.46432 85.2304 2.23842C85.4128 2.14829 85.5338 2.05935 85.6549 1.97041C85.7154 1.92594 85.9012 2.00895 85.9012 2.00895C85.9071 2.31192 86.0954 2.52477 86.2231 2.78209C86.224 2.82537 86.1634 2.86984 86.1037 2.95759C86.1046 3.00087 86.0441 3.04534 86.0441 3.04534C86.1685 3.12953 86.5972 3.07794 86.7174 2.94572C86.8376 2.81349 86.9579 2.68127 86.6485 2.55736C86.525 2.51646 86.3392 2.43345 86.3375 2.34689C86.2745 2.26151 86.3333 2.13048 86.393 2.04273C86.4552 2.08483 86.5788 2.12573 86.641 2.16783C86.7024 2.16664 86.7646 2.20874 86.8251 2.16427C87.4968 1.97808 88.1138 2.13933 88.7889 2.12627C89.2185 2.11796 89.6472 2.06637 90.0751 1.9715C90.3197 1.92347 90.3803 1.879 90.4458 2.09422C90.5114 2.30944 90.756 2.26141 90.9393 2.21457C91.0612 2.16891 90.6905 2.04619 90.9351 1.99816C91.057 1.9525 91.2428 2.0355 91.4269 2.03194C91.7337 2.02601 92.0994 1.88904 92.2852 1.97204C92.5946 2.09595 92.8367 1.91807 93.1444 1.95542C93.5748 1.99039 93.8203 1.98564 94.0077 2.15521C94.1321 2.2394 94.1952 2.32477 94.3196 2.40896C94.3818 2.45106 94.5045 2.44868 94.5659 2.4475C94.6264 2.40303 94.6861 2.31528 94.6239 2.27318C94.5609 2.1878 94.3751 2.1048 94.6189 2.01349C94.9854 1.9198 95.4116 1.73836 95.721 1.86227C95.9068 1.94528 96.0287 1.89962 96.1506 1.85396C96.4574 1.84803 96.338 2.02353 96.3405 2.15337C96.28 2.19784 96.2195 2.24231 96.0984 2.33125C96.0984 2.33125 96.0984 2.33125 96.0976 2.28797C96.0362 2.28916 95.9749 2.29034 95.9757 2.33363C95.9757 2.33363 95.9765 2.37691 95.9774 2.42019C96.0387 2.419 96.0379 2.37572 96.0984 2.33125C96.1581 2.2435 96.2186 2.19903 96.3405 2.15337C96.4633 2.151 96.5869 2.19191 96.6474 2.14744C97.1947 1.87706 97.1947 1.87706 97.8117 2.03832C97.9967 2.07804 98.3069 2.24523 98.3615 1.89779C98.3615 1.89779 98.6062 1.84976 98.6684 1.89185C98.7919 1.93276 98.8558 2.06142 98.9802 2.14561C99.0399 2.05786 99.0988 1.92682 99.2207 1.88117C99.4653 1.83313 99.7713 1.78392 100.017 1.77917C100.385 1.77205 100.757 1.93805 101.121 1.71452L101.182 1.71333C101.496 2.05365 101.8 1.91787 102.166 1.7809C102.226 1.73643 102.655 1.68484 102.599 1.989C102.603 2.16212 102.909 2.11291 103.093 2.10935C103.276 2.0625 103.458 1.92909 103.639 1.79569C103.701 1.7945 103.823 1.79212 103.824 1.83541C103.888 1.96407 103.646 2.14194 103.954 2.17929C104.261 2.21663 104.571 2.34054 104.873 2.1182C104.933 2.03045 105.055 1.98479 105.177 1.93913C105.298 1.8502 105.482 1.84663 105.606 1.93082C105.732 2.05829 105.916 2.05473 105.975 1.96698C106.216 1.70254 106.523 1.69661 106.89 1.6462C107.319 1.59461 107.563 1.50329 107.935 1.71258C108.059 1.79677 108.366 1.79084 108.488 1.74518C108.976 1.56255 109.284 1.64318 109.717 1.808C109.779 1.85009 110.147 1.79969 110.146 1.75641C110.261 1.36449 110.636 1.70363 110.818 1.6135C111.069 1.86844 111.436 1.77476 111.805 1.81091C112.111 1.80498 112.361 2.01664 112.727 1.87967C112.849 1.83401 113.095 1.87255 113.28 1.91227C113.649 1.94843 114.08 2.02668 114.448 1.97627C114.875 1.8814 115.125 2.09306 115.431 2.04384C115.677 2.03909 115.921 1.99106 116.165 1.89975C116.469 1.76397 116.896 1.58253 117.33 1.83391C117.454 1.87482 117.697 1.74022 117.942 1.73547C118.188 1.73073 118.433 1.72598 118.618 1.7657C118.804 1.8487 118.927 1.88961 119.109 1.7562C119.17 1.71173 119.415 1.70698 119.537 1.66133C119.598 1.66014 119.661 1.70223 119.722 1.70105C119.661 1.74551 119.6 1.7467 119.539 1.79117C119.479 1.83564 119.419 1.92339 119.297 1.96905C119.36 2.01114 119.422 2.05324 119.483 2.05205C120.036 2.08465 120.59 2.16053 121.075 1.84805C121.323 1.97315 121.571 2.05497 121.877 2.00575C121.938 2.00456 121.998 1.91681 122.058 1.87234C122.494 2.21029 122.858 1.94347 123.345 1.76085C123.346 1.80413 123.224 1.84978 123.224 1.84978C123.288 1.97844 123.351 2.06382 123.415 2.19248C123.475 2.14801 123.537 2.14682 123.536 2.10354C123.534 2.01698 123.47 1.88832 123.345 1.76085C123.955 1.53256 123.955 1.53256 124.448 1.65291C124.509 1.65172 124.573 1.7371 124.572 1.69382C125.121 1.51001 125.739 1.71454 126.228 1.61848C126.472 1.57045 126.535 1.65583 126.658 1.65345C127.151 1.73052 127.641 1.67774 128.066 1.40974C128.308 1.27514 128.493 1.27158 128.68 1.44115C128.742 1.48324 128.744 1.56981 128.745 1.61309C128.805 1.56862 128.804 1.48206 128.864 1.43759C128.984 1.30537 129.168 1.3018 129.232 1.43046C129.295 1.51584 129.36 1.68778 129.362 1.77434C129.364 1.90419 129.427 1.94628 129.548 1.85735C129.608 1.81288 129.668 1.72513 129.667 1.68184C129.666 1.63856 129.604 1.59647 129.543 1.59766C129.48 1.55556 129.48 1.51228 129.416 1.4269C129.478 1.42571 129.601 1.42334 129.662 1.42215C129.907 1.4174 130.033 1.54488 130.098 1.7601C130.098 1.7601 130.098 1.7601 130.097 1.71682C130.036 1.718 129.975 1.71919 129.975 1.76247C129.975 1.76247 129.976 1.80575 129.977 1.84904C130.039 1.84785 130.038 1.80457 130.098 1.7601C130.218 1.62788 130.339 1.49566 130.461 1.49328C130.706 1.44525 130.958 1.78676 131.26 1.52113C131.442 1.38772 131.748 1.33851 131.993 1.33376C132.3 1.32782 132.607 1.32188 132.916 1.44579C133.163 1.52761 133.656 1.60468 133.776 1.47246C134.262 1.20327 134.695 1.36808 135.125 1.35977C135.186 1.35858 135.372 1.44159 135.373 1.48487C135.376 1.658 135.56 1.65444 135.682 1.60878C136.047 1.42853 136.476 1.37694 136.906 1.41191C137.09 1.40835 137.334 1.31703 137.518 1.31347C137.702 1.30991 137.948 1.30516 138.072 1.38935C138.321 1.55773 138.438 1.25238 138.623 1.33538C138.747 1.37629 139.117 1.45573 139.111 1.15276C139.111 1.15276 139.417 1.10354 139.54 1.10117C140.462 1.16992 141.319 1.06674 142.24 1.04893C142.301 1.04774 142.364 1.08984 142.425 1.08865C142.733 1.16928 143.042 1.2499 143.283 1.02874C143.464 0.852056 143.711 0.933871 143.895 0.930309C144.142 0.968842 144.326 1.00856 144.511 1.005C144.817 0.999065 145.063 0.994315 145.37 0.988379C145.615 0.983631 145.862 1.02216 146.168 1.01623C146.414 1.01148 146.719 0.918979 146.843 0.959886C147.091 1.12827 147.212 0.996045 147.395 0.949201C147.761 0.812232 147.83 1.24386 148.257 1.06243C148.439 0.972301 148.869 0.96399 149.054 1.04699C149.302 1.12881 149.363 1.12762 149.545 1.03749C149.85 0.901713 150.216 0.808026 150.585 0.844184C150.832 0.882718 151.139 0.920063 151.444 0.827563C151.628 0.78072 151.998 0.903442 152.246 0.985257C152.308 1.02735 152.433 1.15482 152.492 1.02379C152.608 0.675161 153.168 1.05401 153.223 0.749852C153.475 1.09136 153.836 0.694698 154.145 0.775326C154.453 0.855953 154.818 0.675703 155.128 0.842894C155.438 1.01009 155.8 0.656707 156.172 0.865994C156.234 0.908088 156.54 0.815588 156.784 0.767557C156.968 0.720714 157.211 0.629401 157.274 0.671496C157.647 0.924064 158.075 0.82919 158.444 0.865348C158.629 0.905069 158.999 0.984509 158.993 0.681536L159.053 0.637067C159.608 0.756228 160.217 0.484664 160.71 0.605012C161.019 0.68564 161.263 0.594327 161.509 0.63286C161.755 0.671393 161.88 0.798865 162.247 0.705178C162.492 0.657147 162.797 0.564647 163.103 0.515429C163.164 0.514241 163.225 0.469773 163.286 0.468585C163.657 0.591308 164.146 0.495246 164.454 0.575874C164.824 0.655314 165.067 0.52072 165.376 0.601347C165.684 0.681975 165.991 0.676039 166.359 0.668916C166.421 0.667729 166.542 0.578791 166.602 0.534321C166.663 0.489852 166.845 0.399727 166.908 0.441821C167.465 0.690828 168.079 0.722238 168.69 0.537238C168.812 0.491581 169.061 0.703242 169.245 0.656398C169.428 0.609555 169.549 0.520617 169.736 0.646901C169.859 0.687808 170.164 0.595309 170.227 0.680685C170.414 0.806969 170.659 0.802221 170.843 0.798659C171.516 0.655754 172.255 0.771353 172.931 0.801575C173.054 0.799201 173.175 0.753545 173.297 0.707888C174.154 0.561421 174.952 0.545988 175.815 0.745776C176 0.785497 176.244 0.694184 176.368 0.778373C176.555 0.904657 176.8 0.899909 176.985 0.896347C177.169 0.892786 177.35 0.759378 177.538 0.928944C177.538 0.928944 177.66 0.92657 177.722 0.925382C178.268 0.611724 178.885 0.772979 179.438 0.762294C179.806 0.755171 180.235 0.703579 180.664 0.695268C181.094 0.686958 181.465 0.852962 181.891 0.628242C182.012 0.539304 182.321 0.663213 182.567 0.658464C183.058 0.692249 183.488 0.683938 183.978 0.631158C184.468 0.578379 185.017 0.394566 185.575 0.686855C185.761 0.769857 186.254 0.846923 186.556 0.624577C187.112 0.78702 187.719 0.428893 188.215 0.679086C188.339 0.763276 188.646 0.75734 188.828 0.623932C189.072 0.53262 189.135 0.617996 189.138 0.791124C189.143 1.05082 189.205 1.09291 189.51 0.957128C189.631 0.911472 189.753 0.822534 189.874 0.776877L190.366 0.810661C190.611 0.762631 190.855 0.7146 191.101 0.709851C191.285 0.70629 191.472 0.832574 191.655 0.78573C192.083 0.690856 192.391 0.771483 192.642 1.02643C192.704 1.06852 192.888 1.06496 193.012 1.10587C193.012 1.10587 193.012 1.10587 192.95 1.10705C192.951 1.15034 192.952 1.19362 193.013 1.19243C193.013 1.19243 193.075 1.19124 193.136 1.19006C193.135 1.14677 193.074 1.14796 193.012 1.10587C192.949 1.02049 193.009 0.976021 193.008 0.889457C193.069 0.88827 193.13 0.887083 193.192 0.929177L193.255 0.971272C194.108 0.651678 194.971 0.808184 195.83 0.834845C195.892 0.833658 196.015 0.831284 196.075 0.786814C196.379 0.651032 196.26 0.826535 196.262 0.913098C196.263 0.95638 196.325 0.998476 196.386 0.997288C196.753 0.903601 197.119 0.809914 197.37 1.06486C197.674 0.929074 198.044 1.00851 198.349 0.916015C198.532 0.869171 198.654 0.823515 198.841 0.949799C198.903 0.991894 199.087 0.988332 199.211 1.02924C199.888 1.14603 200.621 0.958652 201.241 1.24975C201.303 1.29185 201.605 1.02622 201.672 1.32801C201.611 1.32919 201.55 1.37366 201.489 1.37485C201.551 1.41694 201.613 1.45904 201.613 1.45904C201.741 1.71636 202.169 1.62148 202.357 1.83433C202.546 2.04718 202.794 2.17228 202.798 2.38869C202.802 2.6051 203.236 2.81319 202.81 3.03791C202.628 3.12804 203.122 3.29167 202.818 3.42745C202.514 3.56323 202.823 3.68714 202.825 3.81699C202.772 4.20771 202.78 4.64053 202.665 5.03245C202.608 5.29332 202.119 5.38939 202.125 5.69236C202.126 5.73564 201.874 5.39413 201.818 5.6983C201.82 5.78486 201.884 5.91352 201.947 5.99889C202.011 6.17084 201.952 6.25859 201.644 6.22124C201.521 6.22362 201.338 6.27046 201.339 6.31374C201.406 6.61553 201.099 6.62146 200.792 6.58412C200.546 6.58887 200.298 6.46377 200.056 6.64165C199.996 6.68611 199.811 6.64639 199.748 6.6043C199.5 6.4792 199.254 6.44067 198.95 6.57645C198.706 6.66776 198.522 6.67133 198.335 6.54504L198.212 6.50413C198.091 6.63635 197.97 6.72529 197.789 6.8587C197.603 6.7757 197.476 6.56166 197.292 6.56522C197.047 6.56997 196.867 6.78994 196.677 6.53381C196.313 6.75735 195.879 6.50597 195.512 6.59965C194.962 6.6969 194.593 6.66074 194.219 6.40818C194.157 6.36608 193.972 6.32636 193.85 6.37202C193.422 6.46689 192.994 6.51848 192.69 6.69755C192.386 6.83333 192.322 6.70467 192.137 6.66495C191.705 6.54341 191.151 6.46754 190.661 6.52032C190.415 6.52507 190.171 6.5731 189.925 6.57784C189.68 6.58259 189.37 6.45868 189.129 6.67984C188.942 6.51028 188.757 6.47056 188.515 6.64843C188.515 6.64843 188.392 6.65081 188.331 6.65199C187.961 6.61584 187.649 6.3188 187.223 6.54352C186.919 6.6793 186.485 6.4712 186.12 6.65145C185.998 6.69711 185.752 6.65858 185.567 6.61886C185.198 6.5827 184.766 6.46116 184.523 6.59576C184.158 6.77601 183.905 6.39122 183.54 6.57147C183.359 6.70488 182.865 6.58453 182.497 6.59165C182.252 6.5964 182.066 6.5134 181.882 6.51696C181.82 6.51815 181.697 6.47724 181.697 6.47724C181.21 6.70315 180.656 6.62727 180.164 6.59348C179.919 6.59823 179.553 6.7352 179.49 6.64983C179.24 6.43816 179 6.70261 178.753 6.62079C178.507 6.58226 178.262 6.63029 178.017 6.67832C177.711 6.72754 177.282 6.73585 176.972 6.61194C176.354 6.4074 175.741 6.41927 175.067 6.51889C174.516 6.57286 173.961 6.4537 173.409 6.46439C172.978 6.42942 172.547 6.35116 172.121 6.5326C171.817 6.66838 171.564 6.32687 171.199 6.46384C171.016 6.55397 170.587 6.56228 170.276 6.35181C170.213 6.30971 170.03 6.35656 169.908 6.40221C169.542 6.4959 169.174 6.5463 168.805 6.51015C168.436 6.47399 168.065 6.30798 167.701 6.5748C167.512 6.31867 167.026 6.54457 166.775 6.28963L166.652 6.29201C166.288 6.51554 165.857 6.43729 165.366 6.44678C165.121 6.45153 164.941 6.6715 164.752 6.41537C164.752 6.41537 164.689 6.37328 164.69 6.41656C164.203 6.64247 163.646 6.39346 163.096 6.49071C162.912 6.53755 162.729 6.5844 162.544 6.54468C162.236 6.50733 161.931 6.59983 161.621 6.43264C161.497 6.39173 161.133 6.61527 160.949 6.61883C160.642 6.62476 160.273 6.54532 159.965 6.50798C159.534 6.47301 159.104 6.43803 158.674 6.40306C158.612 6.40425 158.491 6.49319 158.43 6.49438C158 6.50269 157.631 6.46653 157.203 6.5614C156.837 6.65509 156.403 6.44699 155.976 6.58515C155.915 6.58633 155.789 6.45886 155.666 6.41795C155.479 6.29167 155.356 6.29404 155.237 6.46955C155.238 6.51283 155.055 6.55967 154.932 6.56205C154.564 6.61245 154.13 6.36107 153.705 6.62907C153.393 6.37532 153.087 6.42453 152.722 6.5615C152.347 6.22237 152.045 6.488 151.742 6.66706C151.555 6.54078 151.439 6.88941 151.189 6.67775C151.065 6.59356 150.697 6.64396 150.573 6.55977C150.386 6.43349 150.263 6.39258 150.267 6.60899L150.206 6.65346C150.022 6.65702 149.838 6.66058 149.653 6.62086C149.468 6.58114 149.282 6.45486 149.221 6.49933C149.039 6.58946 148.916 6.59183 148.729 6.46555C148.604 6.33807 148.236 6.3452 148.662 6.16376C148.724 6.16257 148.722 6.07601 148.782 6.03154C148.721 6.03273 148.598 5.99182 148.598 5.99182C148.416 6.12523 148.169 6.04341 147.989 6.26338C147.749 6.5711 147.194 6.40866 146.89 6.58773C146.885 6.32803 146.578 6.33397 146.331 6.25215C145.961 6.17271 145.656 6.26522 145.416 6.52966C145.355 6.57412 145.294 6.61859 145.233 6.61978C145.172 6.62097 144.988 6.62453 144.926 6.62572C144.493 6.41762 144.004 6.55696 143.576 6.65184C143.454 6.69749 143.209 6.70224 143.146 6.61686C142.835 6.40639 142.344 6.41589 142.099 6.46392C141.793 6.51314 141.546 6.43132 141.424 6.47698C141.18 6.56829 140.933 6.48648 140.688 6.49122C140.381 6.49716 140.379 6.4106 140.622 6.276C140.56 6.23391 140.498 6.19181 140.436 6.193C140.066 6.11356 139.7 6.20725 139.396 6.38631C139.336 6.43078 139.338 6.51734 139.338 6.51734C139.4 6.55944 139.522 6.55706 139.585 6.59916C139.524 6.64363 139.401 6.646 139.341 6.69047C139.098 6.82507 138.915 6.87191 138.667 6.74681C138.357 6.57962 137.865 6.54584 137.56 6.63834C137.072 6.82096 136.946 6.65021 136.697 6.48183C136.634 6.39645 136.449 6.35673 136.325 6.31583C136.264 6.31701 136.204 6.36148 136.142 6.36267C135.9 6.54055 135.597 6.71961 135.228 6.72673C135.044 6.73029 134.859 6.69057 134.676 6.73742C134.492 6.74098 134.307 6.70126 134.123 6.70482C133.939 6.70838 133.758 6.88507 133.631 6.67104L133.57 6.67222C133.449 6.76116 133.266 6.85129 133.145 6.94023C133.082 6.85485 132.957 6.72738 132.894 6.642C132.894 6.642 132.771 6.64438 132.71 6.64556C132.405 6.78135 131.672 6.96872 131.55 6.97109C131.304 6.97584 131.179 6.84837 131.114 6.67643C131.051 6.59105 131.111 6.5033 131.109 6.41674C131.046 6.33136 130.923 6.29046 130.86 6.24836C130.801 6.33611 130.802 6.42267 130.743 6.51043C130.743 6.55371 130.744 6.59699 130.745 6.64027C130.623 6.68593 130.501 6.73158 130.38 6.82052C130.319 6.82171 130.258 6.86618 130.197 6.86737C129.95 6.78555 129.58 6.70611 129.397 6.75295C129.396 6.70967 129.395 6.66639 129.514 6.49089C129.574 6.40314 129.514 6.49089 129.455 6.57864C129.455 6.57864 129.517 6.62073 129.518 6.66402C129.639 6.57508 129.699 6.53061 129.82 6.44167C129.759 6.44286 129.697 6.40076 129.514 6.49089C129.395 6.66639 129.334 6.66758 129.272 6.66876C129.335 6.71086 129.397 6.75295 129.397 6.75295C129.399 6.8828 129.343 7.14368 129.033 6.97649C128.847 6.89348 128.359 7.07611 128.413 6.68539C128.474 6.64092 128.534 6.59645 128.655 6.50751C128.347 6.42688 128.1 6.34507 127.79 6.22116C127.791 6.26444 127.791 6.26444 127.792 6.30772C127.736 6.5686 127.736 6.61188 127.488 6.48679C127.117 6.32078 126.813 6.49984 126.57 6.59116C126.265 6.72694 126.266 6.77022 125.958 6.68959C125.896 6.69078 125.835 6.69197 125.773 6.69315C125.589 6.69672 125.405 6.70028 125.22 6.66056C125.035 6.62084 124.789 6.5823 124.665 6.49811C124.477 6.32855 124.359 6.54733 124.175 6.55089C123.93 6.59893 123.74 6.29951 123.681 6.43055C123.624 6.64814 123.377 6.56633 123.256 6.65527C123.013 6.78986 123.011 6.7033 123.009 6.57345C123.008 6.53017 122.885 6.53254 122.823 6.49045C122.83 6.87999 122.334 6.62979 122.091 6.76439C121.849 6.94226 121.658 6.59957 121.412 6.56104C121.351 6.56222 121.348 6.43238 121.347 6.3891C121.287 6.43357 121.288 6.47685 121.227 6.52132C121.107 6.65354 120.988 6.82904 120.677 6.61857C120.676 6.57528 120.431 6.62331 120.432 6.6666C120.316 7.01523 119.884 6.89369 119.82 6.76503C119.692 6.50771 119.326 6.64468 119.079 6.56287C118.771 6.48224 118.525 6.48699 118.642 6.18164C118.642 6.18164 118.58 6.13955 118.518 6.09745C118.457 6.14192 118.458 6.1852 118.397 6.18639C118.16 6.62396 118.16 6.62396 117.48 6.42061C117.295 6.38089 117.234 6.38208 117.115 6.55758C116.997 6.81964 116.875 6.8653 116.566 6.74139C116.38 6.65839 116.255 6.5742 116.132 6.53329C116.07 6.4912 115.886 6.49476 115.886 6.49476C115.464 6.89261 115.394 6.46097 115.207 6.33469C115.021 6.25169 114.836 6.21197 114.652 6.17225C114.59 6.17343 114.53 6.2179 114.468 6.21909C114.409 6.30684 114.288 6.39578 114.228 6.48353C113.989 6.83454 113.866 6.83691 113.431 6.54225C113.182 6.37387 113.053 6.07327 112.563 6.12605C112.256 6.13199 112.439 6.04186 112.56 5.95292L112.497 5.86754C112.436 5.86873 112.373 5.82664 112.313 5.87111C112.251 5.87229 112.252 5.91558 112.192 5.96004C112.133 6.09108 112.26 6.30511 112.015 6.35314C111.893 6.3988 111.707 6.27252 111.522 6.2328C111.46 6.23398 111.4 6.27845 111.401 6.32173C111.222 6.58499 111.101 6.67393 110.852 6.50555C110.604 6.38045 110.175 6.43204 110.168 6.08579C110.164 5.86938 109.859 5.96188 109.8 6.09291C109.681 6.26841 109.56 6.40063 109.252 6.32C109.191 6.32119 109.189 6.23463 109.188 6.19135C109.309 6.10241 109.37 6.05794 109.123 6.01941C109.062 6.02059 108.94 6.06625 108.941 6.10953C108.943 6.23938 108.762 6.37278 109.07 6.45341C109.132 6.45223 109.196 6.58088 109.258 6.62298C109.136 6.66863 109.014 6.71429 108.953 6.71548C108.462 6.72498 108.273 6.51213 108.146 6.25481C108.145 6.21153 108.083 6.16943 108.082 6.12615C108.021 6.17062 107.961 6.21509 107.962 6.25837C107.902 6.34612 107.965 6.4315 107.905 6.51925C107.906 6.56253 107.785 6.65147 107.723 6.60938C107.415 6.57203 106.987 6.66691 106.738 6.45524C106.613 6.37105 105.569 6.34796 105.445 6.30705C105.076 6.27089 105.27 6.74343 104.775 6.5798C104.59 6.4968 104.284 6.5893 104.04 6.63733C103.489 6.73458 102.936 6.70198 102.384 6.71266C102.2 6.71623 101.953 6.67769 101.957 6.8941C101.957 6.8941 101.713 6.94213 101.651 6.94332C101.401 6.68838 101.22 6.86507 101.038 6.95519C100.977 6.99966 100.733 7.04769 100.733 7.04769C100.482 6.79275 100.239 6.92735 100.058 7.06075C99.9971 7.10522 99.9348 7.06313 99.8735 7.06431C99.8718 6.97775 99.871 6.93447 99.9912 6.80225C99.9903 6.75897 99.9912 6.80225 99.9298 6.80344C99.9307 6.84672 99.992 6.84553 99.9929 6.88881C100.053 6.84434 100.053 6.84434 100.114 6.79987C100.114 6.79987 100.052 6.75778 99.9912 6.80225C99.6246 6.89594 99.38 6.94397 99.0732 6.9499C98.7663 6.95584 98.7655 6.91256 99.0068 6.6914C99.1295 6.68902 99.3767 6.77084 99.4944 6.50877C99.4935 6.46549 99.4944 6.50877 99.433 6.50996C99.4338 6.55324 99.4952 6.55205 99.4961 6.59534C99.5566 6.55087 99.5566 6.55087 99.6171 6.5064C99.6171 6.5064 99.5549 6.4643 99.4944 6.50877C99.2506 6.60008 99.064 6.4738 99.0068 6.6914C98.8235 6.73824 98.8177 6.43527 98.5755 6.61314C98.3948 6.78983 98.1493 6.79458 97.903 6.75605C97.5953 6.7187 97.4112 6.72227 97.4171 7.02524C97.4204 7.19837 96.9295 7.20786 96.8648 7.03592C96.7345 6.64876 96.4924 6.82664 96.2486 6.91795C96.0653 6.96479 95.882 7.01164 95.761 7.10058C95.5785 7.1907 95.4575 7.27964 95.4524 7.01995C95.4516 6.97667 95.2667 6.93695 95.1431 6.89604C94.7707 6.68675 94.157 6.69862 94.1478 6.22252C94.147 6.17924 93.9628 6.1828 93.9006 6.14071C93.8393 6.14189 93.7779 6.14308 93.7165 6.14427C93.7174 6.18755 93.6568 6.23202 93.719 6.27411C93.9073 6.48696 94.0948 6.65653 94.2217 6.87056C94.2839 6.91266 94.1629 7.0016 94.1645 7.08816C94.041 7.04725 93.9788 7.00516 93.8543 6.92097C93.7921 6.87887 93.7299 6.83678 93.4197 6.66959C93.2348 6.62987 93.3592 6.71406 93.4828 6.75497C93.5442 6.75378 93.6047 6.70931 93.666 6.70812C93.5408 6.58065 93.4778 6.49527 93.3525 6.3678C93.292 6.41227 93.2314 6.45674 93.3575 6.62749C93.6677 6.79469 93.7299 6.83678 93.7921 6.87887C93.7316 6.92334 93.6719 7.01109 93.6105 7.01228C92.996 6.98087 92.3815 6.94946 91.767 6.91805C91.6442 6.92043 91.5198 6.83624 91.3963 6.79533C91.2113 6.75561 90.9036 6.71826 90.7834 6.85048C90.6035 7.07046 90.4211 7.16058 90.0512 7.08114C89.8049 7.04261 89.5047 7.3948 89.3736 6.96435C89.3719 6.87779 88.9407 6.79954 88.633 6.76219C88.3867 6.72366 88.4514 6.8956 88.4539 7.02544C88.3345 7.20095 88.3345 7.20095 88.1454 6.94482C88.1446 6.90153 88.1454 6.94482 88.084 6.946C88.0849 6.98929 88.1462 6.9881 88.1471 7.03138C88.2076 6.98691 88.2076 6.98691 88.2681 6.94244C88.2681 6.94244 88.2059 6.90035 88.1454 6.94482C87.8419 7.12388 87.5964 7.12863 87.5309 6.91341C87.4678 6.82803 87.5275 6.74028 87.5259 6.65372C87.5259 6.65372 87.3409 6.614 87.3418 6.65728C87.2812 6.70175 87.2829 6.78831 87.2224 6.83278C87.1602 6.79068 87.1593 6.7474 87.0971 6.70531C87.0938 6.53218 86.8491 6.58021 86.7264 6.58259C86.665 6.58377 86.4826 6.6739 86.4834 6.71718C86.549 6.9324 86.2421 6.93834 86.0589 6.98518C85.9975 6.98637 85.9361 6.98756 85.8748 6.98874C85.8025 6.42727 85.383 6.95496 85.1367 6.91643C84.9517 6.87671 84.7735 7.18324 84.465 7.10261C84.2187 7.06408 84.0354 7.11092 84.0917 6.85005C84.0901 6.76348 84.0262 6.63482 83.9018 6.55063C83.7774 6.46644 83.5924 6.42672 83.5344 6.60104C83.5394 6.86073 83.4184 6.94967 83.0485 6.87023C82.8022 6.83169 82.5575 6.87973 82.3718 6.79672C82.1238 6.67163 82.0624 6.67281 82.0666 6.88922C82.0052 6.89041 81.9438 6.8916 81.8816 6.8495C81.7589 6.85188 81.5731 6.76888 81.574 6.81216C81.0292 7.21238 80.4088 6.878 79.8573 6.93196C79.6118 6.93671 79.9717 6.49677 79.5471 6.76477C79.2436 6.94384 78.999 6.99187 78.7493 6.78021C78.6249 6.69602 78.3181 6.70195 78.5677 6.91361C78.5072 6.95808 78.4467 7.00255 78.3853 7.00374C78.0785 7.00967 77.7094 6.97352 77.3395 6.89407C77.2782 6.89526 77.3395 6.89407 77.3404 6.93736C77.4017 6.93617 77.4009 6.89289 77.4623 6.8917C77.4001 6.84961 77.4001 6.84961 77.3379 6.80751C77.3379 6.80751 77.2773 6.85198 77.3395 6.89407C77.4034 7.02273 77.3437 7.11048 77.3454 7.19705C77.2218 7.15614 77.0377 7.1597 77.0369 7.11642C76.9705 6.85792 76.6628 6.82057 76.4157 6.73876C76.1693 6.70022 75.9852 6.70378 75.8667 6.92257C75.6884 7.2291 75.6271 7.23029 75.0739 7.19769C74.8898 7.20126 74.7049 7.16153 74.5208 7.1651C74.4594 7.16628 74.3972 7.12419 74.3964 7.08091C74.4577 7.07972 74.5796 7.03406 74.641 7.03288C74.7015 6.98841 74.7612 6.90066 74.8218 6.85619C74.6982 6.81528 74.5746 6.77437 74.5141 6.81884C74.1467 6.86925 73.9046 7.04712 73.9718 7.34891C73.9726 7.39219 73.9121 7.43666 73.8507 7.43785C73.8499 7.39457 73.7877 7.35247 73.7877 7.35247C73.7869 7.30919 73.786 7.26591 73.7852 7.22263C73.7818 7.0495 73.7793 6.91965 73.776 6.74652C73.5313 6.79455 73.2237 6.75721 72.9799 6.84852C72.6755 6.9843 72.4939 7.11771 72.1241 7.03827C71.9391 6.99855 71.6339 7.09105 71.6894 6.78689C71.6894 6.78689 71.2574 6.66535 71.0741 6.7122C70.8303 6.80351 70.6479 6.89364 70.4596 6.68079C70.4596 6.68079 70.2755 6.68435 70.2149 6.72882C70.1544 6.77329 70.0947 6.86104 70.035 6.94879C69.7231 6.69503 69.4238 7.09051 69.2381 7.00751C68.9279 6.84031 68.6227 6.93281 68.3142 6.85219C68.2528 6.85337 68.2503 6.72353 68.2495 6.68025C68.1848 6.50831 68.0023 6.59843 67.3853 6.43718C66.9532 6.31564 67.0154 6.35773 67.0776 6.39983C67.2626 6.43955 67.4467 6.43599 67.6316 6.47571C67.693 6.47452 67.6972 6.69093 67.8779 6.51424C67.9384 6.46977 67.8754 6.3844 67.8132 6.3423C67.5627 6.08736 67.1331 6.09567 67.3861 6.48046C67.8813 6.68737 67.9443 6.77275 68.0065 6.81484C67.8838 6.81721 67.7619 6.86287 67.6391 6.86525C67.392 6.78343 67.1432 6.61505 66.8413 6.88068C66.7816 6.96843 66.7211 7.0129 66.6614 7.10065C66.6598 7.01409 66.5967 6.92871 66.595 6.84215C66.6497 6.4947 66.1671 6.93702 66.1621 6.67733C66.0402 6.72299 65.7947 6.72773 65.9208 6.89849C66.0477 7.11252 65.6795 7.11965 65.7442 7.29159C65.6829 7.29277 65.5601 7.29515 65.4996 7.33962C65.4988 7.29634 65.4971 7.20977 65.4971 7.20977C65.6787 7.07636 65.4954 7.12321 65.3719 7.0823C65.1861 6.9993 64.8775 6.91867 65.2424 6.73842C65.1794 6.65304 65.0558 6.61214 64.9928 6.52676C64.9322 6.57123 64.9331 6.61451 64.8725 6.65898C64.812 6.70345 64.6893 6.70582 64.6893 6.70582C64.5632 6.53507 64.258 6.62757 64.0731 6.58785C64.0714 6.50128 64.0697 6.41472 64.1294 6.32697C64.4976 6.31985 64.3093 6.107 64.3682 5.97597L64.2446 5.93506C64.0613 5.9819 63.9403 6.07084 63.7578 6.16097C63.6965 6.16215 63.6351 6.16334 63.4502 6.12362C63.3888 6.12481 63.4502 6.12362 63.451 6.1669C63.5124 6.16571 63.5115 6.12243 63.5729 6.12124C63.5107 6.07915 63.5107 6.07915 63.4485 6.03706C63.4485 6.03706 63.388 6.08152 63.4502 6.12362C63.5746 6.20781 63.6368 6.2499 63.6998 6.33528C63.8242 6.41947 63.9495 6.54694 64.0739 6.63113C63.8965 6.98095 63.8965 6.98095 63.4047 6.94716C63.3433 6.94835 63.2811 6.90626 63.2811 6.90626C62.9751 6.95547 62.6683 6.96141 62.4228 6.96616C62.0538 6.93 61.7419 6.67624 61.3796 6.98634C61.198 7.11975 60.7667 7.0415 60.5784 6.82865C60.5154 6.74327 60.3313 6.74683 60.2077 6.70593C60.2094 6.79249 60.3338 6.87668 60.2724 6.87787C60.1513 6.9668 60.0295 7.01246 59.9075 7.05812C59.8445 6.97274 59.7815 6.88736 59.8395 6.71305C59.8386 6.66977 59.8395 6.71305 59.7781 6.71424C59.7789 6.75752 59.8403 6.75633 59.8412 6.79961C59.9017 6.75514 59.9017 6.75514 59.9622 6.71067C59.9622 6.71067 59.9 6.66858 59.8395 6.71305C59.7193 6.84527 59.5974 6.89093 59.5982 6.93421C59.6015 7.10733 59.8453 7.01602 59.9689 7.05693C59.9706 7.14349 59.9714 7.18678 59.9117 7.27453C59.8504 7.27571 59.789 7.2769 59.7268 7.23481C59.6032 7.1939 59.4191 7.19746 59.2955 7.15655C59.0484 7.07474 59.4158 7.02433 59.3527 6.93896C59.2275 6.81148 58.8601 6.86189 58.8021 7.0362C58.7441 7.21052 58.6844 7.29827 58.4381 7.25974C58.2531 7.22002 58.069 7.22358 57.8849 7.22714C57.7008 7.2307 57.6378 7.14533 57.6352 7.01548C57.5714 6.88682 57.4495 6.93248 57.452 7.06232C57.394 7.23664 57.2704 7.19573 57.0854 7.15601C56.7139 6.99001 56.3432 6.86728 55.9127 6.83231C55.8514 6.8335 55.7883 6.74812 55.7261 6.70603C55.4143 6.45227 55.1679 6.41374 54.8653 6.63609C54.7434 6.68174 54.6837 6.76949 54.624 6.85724C54.561 6.77187 54.5593 6.6853 54.4962 6.59993L54.434 6.55783C54.371 6.47245 54.3079 6.38708 54.1877 6.5193C54.1272 6.56377 53.9431 6.56733 54.0683 6.6948C54.1305 6.7369 54.0717 6.86793 54.0725 6.91121C53.9498 6.91358 53.827 6.91596 53.7648 6.87386C53.5169 6.74877 53.3302 6.62248 52.904 6.80392C52.5383 6.94089 51.9852 6.90829 51.5514 6.70019C51.242 6.57629 50.9941 6.45119 50.6258 6.45831C50.2576 6.46543 50.2576 6.46543 50.324 6.72394C50.3249 6.76722 50.3871 6.80932 50.3879 6.8526C50.3896 6.93916 50.3299 7.02691 50.2702 7.11466C50.1466 7.07376 50.0239 7.07613 49.9617 7.03404C49.7759 6.95103 49.7095 6.69253 49.4674 6.87041C49.1025 7.05066 49.037 6.83543 48.8503 6.70915C48.7873 6.62377 48.7848 6.49393 48.7209 6.36527C48.6007 6.49749 48.4805 6.62971 48.298 6.71984C48.1156 6.80996 48.3005 6.84968 48.3022 6.93625C48.3669 7.10819 48.3694 7.23803 48.1256 7.32934C48.0643 7.33053 48.0029 7.33172 47.9415 7.33291C47.997 7.02874 47.6297 7.07915 47.4456 7.08271C47.0774 7.08984 46.826 6.79161 46.4612 6.97186C46.4612 6.97186 46.3376 6.93095 46.2754 6.88886C46.2771 6.97542 46.2796 7.10527 46.3409 7.10408C46.71 7.14024 46.6503 7.22799 46.4065 7.3193C46.1627 7.41062 45.9189 7.50193 45.9105 7.06911C45.9097 7.02583 45.8492 7.0703 45.85 7.11358C45.8508 7.15686 45.8517 7.20014 45.8525 7.24343C45.913 7.19896 46.0358 7.19658 46.0349 7.1533C46.0341 7.11002 46.0324 7.02345 45.9105 7.06911C45.6676 7.2037 45.3582 7.0798 45.2977 7.12426C45.0547 7.25886 44.8664 7.04601 44.7437 7.04839C44.5604 7.09523 44.3788 7.22864 44.1972 7.36204C44.1972 7.36204 44.0737 7.32114 44.0123 7.32232C43.8887 7.28142 43.8257 7.19604 44.0089 7.1492C44.1308 7.10354 44.2536 7.10117 44.3141 7.0567C44.3755 7.05551 44.436 7.01104 44.436 7.01104C44.3738 6.96894 44.3116 6.92685 44.3116 6.92685C44.0056 6.97607 43.5701 6.68141 43.4549 7.07332C43.1489 7.12254 42.8421 7.12847 42.6 7.30635C42.6 7.30635 42.4764 7.26544 42.4142 7.22335C42.2251 6.96722 41.8577 7.01762 41.5509 7.02356C41.3667 7.02712 41.1238 7.16171 40.9363 6.99215C40.9363 6.99215 40.8144 7.0378 40.7539 7.08227C41.0036 7.29393 40.7589 7.34196 40.5723 7.21568C40.3865 7.13268 40.2629 7.09177 40.078 7.05205C39.8939 7.05561 39.709 7.01589 39.6518 7.23349C39.6535 7.32005 39.2852 7.32718 39.2827 7.19733C39.2785 6.98092 39.0944 6.98448 38.9103 6.98804C38.543 7.03845 38.1125 7.00348 37.8704 7.18135C37.5056 7.3616 37.3198 7.2786 37.0718 7.15351C36.886 7.0705 36.7002 6.9875 36.5145 6.9045C36.4531 6.90569 36.3303 6.90806 36.3303 6.90806C36.2748 7.21222 36.026 7.04384 35.8419 7.0474C35.5964 7.05215 35.4123 7.05571 35.6612 7.22409L35.5401 7.31303C35.3543 7.23003 34.9869 7.28044 34.9239 7.19506C34.4237 6.72845 33.8781 7.08539 33.3266 7.13936C33.2039 7.14174 33.145 7.27277 33.0223 7.27514C32.8996 7.27752 32.5944 7.37002 32.5894 7.11033C32.5877 7.02376 32.4625 6.89629 32.3389 6.85538C32.2767 6.81329 32.0934 6.86013 32.0329 6.9046C31.9715 6.90579 31.9118 6.99354 31.8513 7.03801C31.9127 7.03682 32.0362 7.07773 32.0976 7.07654C32.1598 7.11864 32.2825 7.11626 32.3447 7.15836C32.2842 7.20283 32.2237 7.2473 32.1623 7.24848C31.7941 7.25561 31.4234 7.13288 31.0585 7.31313C31.0585 7.31313 30.9358 7.31551 30.8736 7.27341C30.8727 7.23013 30.9333 7.18566 30.9938 7.14119C31.0535 7.05344 31.2359 6.96332 31.2956 6.87557C31.3553 6.78782 31.2914 6.65916 31.2292 6.61706C31.167 6.57497 30.9821 6.53525 30.8602 6.5809C30.6155 6.62893 30.8627 6.71075 30.8635 6.75403C30.8677 6.97044 30.5037 7.19397 30.1969 7.19991C29.9514 7.20466 29.7059 7.20941 29.3982 7.17206C29.0292 7.1359 28.7165 6.83887 28.3516 7.01912C27.9867 7.19937 27.6135 6.9468 27.2487 7.12705C27.1268 7.17271 26.7544 6.96342 26.6333 7.05236C26.2684 7.23261 26.3248 6.97173 26.1398 6.93201C26.0776 6.88992 25.9541 6.84901 25.8927 6.8502C25.6497 6.98479 25.4051 7.03282 25.2185 6.90654C24.9705 6.78144 24.7897 6.95813 24.5434 6.9196C24.3585 6.87988 24.0525 6.92909 23.87 7.01922C23.6271 7.15381 23.443 7.15738 23.195 7.03228C23.1328 6.99018 23.0117 7.07912 22.889 7.0815C22.1542 7.18231 21.422 7.41296 20.6234 7.38512C20.3779 7.38986 20.1358 7.56774 19.9542 7.70115C19.8331 7.79009 19.7129 7.92231 19.5918 8.01125C19.4002 7.62527 19.0412 8.10849 18.7302 7.89802C18.4813 7.72964 18.0518 7.73795 17.6861 7.87492C17.3204 8.01189 17.1976 8.01427 16.8252 7.80498C16.5772 7.67988 16.4537 7.63897 16.3973 7.89985C16.3385 8.03089 16.1535 7.99117 16.0291 7.90698C15.7181 7.6965 15.3465 7.5305 14.8598 7.75641C14.5487 7.54593 14.3083 7.81037 14.0014 7.81631C13.5719 7.82462 13.1465 8.04934 12.7119 7.79796C12.5261 7.71496 12.0982 7.80983 11.8536 7.85786C11.5484 7.95036 11.4181 7.5632 10.9927 7.78792C10.8103 7.87804 10.4396 7.75532 10.1327 7.76126C8.84315 7.74291 7.66961 7.37593 6.38087 7.40086C5.9513 7.40917 5.58141 7.32973 5.15351 7.4246C4.7256 7.51948 4.22879 7.226 3.79754 7.14775C3.67396 7.10684 3.55039 7.06593 3.42765 7.06831C3.18218 7.07306 2.94089 7.29421 2.6904 7.03927C2.56515 6.9118 2.19694 6.91892 1.95062 6.88039C1.14949 6.7227 1.01586 6.16241 0.457687 5.87012C0.395481 5.82802 0.455175 5.74027 0.4535 5.65371C0.450988 5.52386 0.756156 5.43136 0.507332 5.26298C0.444289 5.17761 0.563677 5.0021 0.561165 4.87226C0.557816 4.69913 0.493098 4.52719 0.42838 4.35525C0.678878 4.61019 0.553629 4.48272 0.488911 4.31078C0.425031 4.18212 -0.249184 4.23846 0.235902 3.92599C0.357801 3.88033 0.292246 3.66511 0.228366 3.53645C0.101443 3.32242 0.160299 3.19139 0.403261 3.05679C0.52516 3.01113 0.69838 2.44491 0.6345 2.31625C0.502553 1.84252 0.502553 1.84252 1.23562 1.65515C1.60216 1.56146 1.96702 1.38121 2.26968 1.15886C2.45127 1.02546 2.57233 0.936518 2.87918 0.930582C3.18685 0.967928 3.49537 1.04856 3.79886 0.869492C3.8594 0.825023 4.04434 0.864743 4.16791 0.90565C4.41506 0.987465 4.60168 1.11375 4.84883 1.19556C5.03377 1.23528 5.34312 1.35919 5.46502 1.31354C5.89209 1.17538 5.95848 1.43389 6.14342 1.47361C6.267 1.51451 6.94038 1.41489 7.18418 1.32358C7.42714 1.18898 7.67261 1.18423 7.91892 1.22277C8.47291 1.29865 8.71839 1.2939 9.39177 1.19427C9.57587 1.19071 9.75998 1.18715 9.88355 1.22806C10.5031 1.51916 11.1823 1.72251 11.8565 1.66617C12.2861 1.65786 12.6527 1.56417 13.0831 1.59914C13.4521 1.6353 13.8809 1.58371 14.3096 1.53212C14.4323 1.52974 14.5551 1.52737 14.6148 1.43962C14.9166 1.17399 15.5942 1.29078 15.8321 0.896489C15.8313 0.853207 15.9532 0.807551 16.0154 0.849645C16.2011 0.932648 16.2667 1.14787 16.5702 0.968806C16.6307 0.924337 17.0014 1.04706 17.1267 1.17453C17.3142 1.3441 17.6193 1.2516 17.8051 1.3346C17.99 1.37432 18.1767 1.5006 18.3011 1.58479C18.4869 1.6678 18.7332 1.70633 18.9148 1.57292C19.0964 1.43951 19.2796 1.39267 19.5259 1.4312C19.7722 1.46974 19.9589 1.59602 20.2043 1.59127C20.3884 1.58771 20.6322 1.4964 20.8163 1.49284C21.0004 1.48927 21.2468 1.52781 21.4325 1.61081C21.6183 1.69381 21.6788 1.64934 21.8621 1.6025C21.984 1.55684 22.1681 1.55328 22.2303 1.59538C22.6641 1.80347 23.2769 1.74832 23.7107 1.95642C23.9587 2.08152 24.2647 2.0323 24.5093 1.98427C24.6926 1.93742 24.8734 1.76073 25.0575 1.75717C25.2416 1.75361 25.4282 1.8799 25.6131 1.91962C25.7972 1.91605 25.9183 1.82712 26.1007 1.73699C26.2832 1.64687 26.2848 1.73343 26.2865 1.81999C26.289 1.94984 26.3512 1.99193 26.4714 1.85971C26.5311 1.77196 26.4689 1.72987 26.7152 1.7684C27.3928 1.88519 28.0687 1.91541 28.8051 1.90116C28.9892 1.8976 29.1111 1.85194 29.2977 1.97823C29.4852 2.1478 29.7332 2.27289 30.0367 2.09383C30.2191 2.0037 30.2863 2.30549 30.4671 2.1288C30.5268 2.04105 30.7168 2.34046 30.8967 2.12049C31.3935 2.41396 31.8811 2.23134 32.3712 2.17856C32.5553 2.175 32.858 1.95265 32.8033 2.3001C33.2362 2.46491 33.6086 2.6742 34.0415 2.83902C34.1029 2.83783 34.2248 2.79217 34.2862 2.79099C34.2853 2.7477 34.2837 2.66114 34.2215 2.61904C33.7322 2.71511 33.7827 2.15125 33.2942 2.2906C33.2934 2.24732 33.2926 2.20403 33.3531 2.15956C33.4725 1.98406 33.6599 2.15363 33.7827 2.15125C33.9054 2.14888 34.0256 2.01666 34.1467 1.92772C34.2089 1.96982 34.2711 2.01191 34.2097 2.0131C34.2106 2.05638 34.1509 2.14413 34.0903 2.1886C34.0307 2.27635 34.0323 2.36291 33.9718 2.40738C34.0945 2.40501 34.2181 2.44592 34.2786 2.40145C34.5846 2.35223 34.8915 2.34629 35.0706 2.08304C35.501 2.11801 35.87 2.15417 36.3013 2.23242C36.3626 2.23124 36.4257 2.31661 36.4257 2.31661C36.6712 2.31186 36.9755 2.17608 37.0999 2.26027C37.163 2.34565 37.4084 2.3409 37.6539 2.33615C37.8994 2.3314 37.954 1.98396 38.3861 2.10549C38.5711 2.14521 38.814 2.01062 39.0587 1.96259C39.12 1.9614 39.1814 1.96021 39.2428 1.95903C39.2436 2.00231 39.2445 2.04559 39.2453 2.08887C39.1848 2.13334 39.1864 2.21991 39.1259 2.26438C39.1873 2.26319 39.31 2.26081 39.3714 2.25963C39.6135 2.08175 39.9237 2.24894 40.2297 2.19972C40.2297 2.19972 40.2297 2.19972 40.1683 2.20091C40.1692 2.24419 40.17 2.28748 40.2314 2.28629C40.2314 2.28629 40.2927 2.2851 40.3541 2.28391C40.3533 2.24063 40.2919 2.24182 40.2297 2.19972C40.3474 1.93766 40.782 2.18904 40.9619 1.96907C40.9619 1.96907 41.1469 2.00879 41.0855 2.00998C41.093 2.39951 41.4554 2.08942 41.6403 2.12914C41.8253 2.16886 42.0674 1.99098 42.1296 2.03307C42.4406 2.24355 42.7475 2.23761 42.993 2.23286C43.0543 2.23168 43.1174 2.31705 43.1182 2.36033C43.1207 2.49018 43.0619 2.62121 43.0652 2.79434C43.0652 2.79434 43.0652 2.79434 43.0644 2.75106C43.003 2.75225 42.9416 2.75343 42.9425 2.79672C42.9425 2.79672 42.9433 2.84 42.9441 2.88328C43.0055 2.88209 43.0047 2.83881 43.0652 2.79434C43.1249 2.70659 43.2468 2.66093 43.3073 2.61646C43.4259 2.39768 43.8521 2.21624 44.222 2.29568C44.222 2.29568 44.2834 2.2945 44.2842 2.33778C45.0215 2.36681 45.0215 2.36681 45.3308 2.49072C45.5166 2.57372 45.578 2.57254 45.6982 2.44032C45.9992 2.13141 46.5532 2.20729 46.9802 2.06913C46.9802 2.06913 47.1046 2.15332 47.1055 2.1966C47.1744 2.58495 47.1744 2.58495 47.7275 2.61755C47.8503 2.61517 47.9738 2.65608 48.0966 2.65371C48.158 2.65252 48.2176 2.56477 48.2168 2.52149C48.216 2.47821 48.2151 2.43492 48.1529 2.39283C48.0294 2.35192 47.9075 2.39758 47.7839 2.35667C47.6611 2.35904 47.5981 2.27367 47.5367 2.27486C47.6586 2.2292 47.7183 2.14145 47.8402 2.09579C47.9016 2.0946 48.4581 2.30033 48.4589 2.34361C48.522 2.42899 48.585 2.51436 48.6472 2.55646C48.7708 2.59737 48.9541 2.55052 49.0768 2.54815C49.0751 2.46158 49.0735 2.37502 49.0726 2.33174C49.0718 2.28846 49.0096 2.24636 49.0087 2.20308C49.0079 2.1598 49.0676 2.07205 49.1281 2.02758C49.1895 2.02639 49.3744 2.06611 49.3744 2.06611C49.3795 2.3258 49.5005 2.23686 49.7452 2.18883C49.8671 2.14318 50.1731 2.09396 50.1789 2.39693C50.1176 2.39812 50.1167 2.35484 50.0553 2.35602C49.994 2.35721 49.8712 2.35959 49.8099 2.36077C49.8107 2.40406 49.8115 2.44734 49.8115 2.44734C49.9343 2.44496 49.9957 2.44378 50.1789 2.39693C50.2386 2.30918 50.3605 2.26353 50.4824 2.21787C50.6648 2.12774 50.7851 1.99552 50.7909 2.2985C50.7918 2.34178 50.7943 2.47162 50.7943 2.47162C50.9801 2.55463 50.8027 2.90444 51.1692 2.81076C51.413 2.71944 51.165 2.59435 51.1633 2.50778C51.1617 2.42122 51.281 2.24572 51.4643 2.19887C51.5862 2.15322 51.772 2.23622 51.9569 2.27594C51.7779 2.53919 52.389 2.39747 52.3982 2.87358C52.7639 2.73661 52.336 2.83148 52.2721 2.70282C52.2713 2.65954 51.7215 2.80007 51.7215 2.80007C51.7837 2.84217 51.9073 2.88307 52.03 2.8807C52.215 2.92042 52.2772 2.96251 52.2183 3.09355C52.2192 3.13683 52.3427 3.17774 52.4041 3.17655C52.5268 3.17418 52.5865 3.08642 52.3982 2.87358ZM69.144 5.3207L69.1432 5.27742C69.0818 5.2786 69.0205 5.27979 69.0213 5.32307C69.0213 5.32307 69.0221 5.36635 69.023 5.40964C69.0843 5.40845 69.0835 5.36517 69.2643 5.18848C69.2029 5.18966 69.2037 5.23295 69.1424 5.23413C69.1432 5.27742 69.2046 5.27623 69.2054 5.31951C69.2659 5.27504 69.2659 5.27504 69.3265 5.23057C69.3256 5.18729 69.2634 5.1452 69.144 5.3207ZM150.341 4.09627C150.28 4.09745 150.281 4.14073 150.219 4.14192C150.22 4.1852 150.281 4.18402 150.282 4.2273C150.343 4.18283 150.343 4.18283 150.403 4.13836C150.403 4.13836 150.341 4.09627 150.222 4.27177L150.221 4.22849C150.16 4.22967 150.098 4.23086 150.099 4.27414C150.099 4.27414 150.1 4.31742 150.101 4.36071C150.1 4.31742 150.161 4.31624 150.341 4.09627ZM111.149 6.02351C111.088 6.0247 111.089 6.06798 111.027 6.06917C111.028 6.11245 111.09 6.11126 111.091 6.15454C111.151 6.11007 111.151 6.11007 111.212 6.0656C111.212 6.0656 111.149 6.02351 111.03 6.19901L111.029 6.15573C110.968 6.15692 110.906 6.1581 110.907 6.20139C110.907 6.20139 110.908 6.24467 110.909 6.28795C110.969 6.24348 110.969 6.2002 111.149 6.02351ZM57.7513 6.66685C57.6899 6.66804 57.6907 6.71132 57.6294 6.71251C57.6302 6.75579 57.6916 6.7546 57.6924 6.79788C57.753 6.75341 57.753 6.75341 57.8135 6.70894C57.8135 6.70894 57.7513 6.66685 57.6941 6.88445C57.5697 6.80026 57.5697 6.80026 57.5697 6.80026C57.5083 6.80144 57.3856 6.80382 57.3242 6.80501C57.325 6.84829 57.3259 6.89157 57.3259 6.89157C57.3881 6.93366 57.4486 6.8892 57.7513 6.66685ZM119.806 6.02924C119.745 6.07371 119.684 6.0749 119.623 6.11937C119.685 6.16146 119.686 6.20474 119.748 6.20355C119.809 6.20237 119.932 6.19999 119.992 6.15552C119.93 6.11343 119.868 6.07133 119.436 5.9498C119.437 5.99308 119.498 5.99189 119.499 6.03518C119.56 6.03399 119.559 5.99071 119.621 5.98952C119.559 5.94742 119.559 5.94742 119.496 5.90533C119.559 5.94742 119.497 5.94861 119.806 6.02924ZM80.4511 2.72056C80.3906 2.76502 80.3301 2.80949 80.4587 3.11009C80.3343 3.0259 80.2712 2.94053 80.1468 2.85634C80.0871 2.94409 80.0274 3.03184 80.0299 3.16169C80.0308 3.20497 80.1544 3.24587 80.2779 3.28678C80.3393 3.2856 80.399 3.19784 80.2704 2.89724C80.2687 2.81068 80.3293 2.76621 80.4511 2.72056C80.5739 2.71818 80.6966 2.71581 81.0035 2.70987C80.9429 2.75434 80.8816 2.75553 80.821 2.8C80.8832 2.84209 80.8841 2.88537 80.9454 2.88419C81.0068 2.883 81.1296 2.88062 81.1901 2.83615C81.1279 2.79406 81.0665 2.79525 80.8202 2.75671C80.8185 2.67015 80.8169 2.58359 80.8152 2.49702C80.6933 2.54268 80.6327 2.58715 80.5108 2.6328C80.4495 2.63399 80.4503 2.67727 80.4511 2.72056ZM59.6009 3.90328C59.7229 3.85763 59.7842 3.85644 59.9061 3.81078C59.8439 3.76869 59.7817 3.72659 59.7203 3.72778C59.5976 3.73016 59.4757 3.77581 59.353 3.77819C59.4152 3.82028 59.4765 3.81909 60.2701 3.58725C60.1482 3.63291 60.0869 3.63409 59.965 3.67975C60.0272 3.72185 60.0894 3.76394 60.1508 3.76275C60.2735 3.76038 60.3954 3.71472 60.5181 3.71235C60.4559 3.67025 60.3946 3.67144 59.6009 3.90328ZM129.39 3.24593L129.389 3.20265C129.328 3.20384 129.267 3.20502 129.268 3.2483C129.268 3.2483 129.268 3.29159 129.269 3.33487C129.331 3.33368 129.33 3.2904 129.755 3.06568C129.633 3.11134 129.572 3.11252 129.45 3.15818C129.512 3.20027 129.574 3.24237 129.636 3.24118C129.758 3.23881 129.88 3.19315 130.003 3.19078C129.94 3.1054 129.878 3.0633 129.39 3.24593ZM28.5058 2.29664C28.4436 2.25454 28.4428 2.21126 28.3814 2.21245C28.2578 2.17154 28.0737 2.1751 28.0771 2.34823C28.0779 2.39151 28.1401 2.43361 28.141 2.47689C28.2629 2.43123 28.3848 2.38557 28.8085 2.07429C28.6866 2.11995 28.6252 2.12113 28.5033 2.16679C28.5655 2.20889 28.6277 2.25098 28.6891 2.24979C28.8118 2.24742 28.9337 2.20176 29.0565 2.19939C28.9943 2.15729 28.9329 2.15848 28.5058 2.29664ZM69.0483 3.54732C68.9248 3.50642 68.8626 3.46432 68.8012 3.46551C68.7398 3.4667 68.6793 3.51117 68.6179 3.51235C68.681 3.59773 68.7432 3.63982 68.8676 3.72401C68.9281 3.67955 68.9886 3.63508 69.5309 3.10501C69.2846 3.06647 68.9811 3.24554 69.0458 3.41748C69.0467 3.46076 69.1089 3.50286 69.1089 3.50286C69.2921 3.45601 69.414 3.41036 69.5965 3.32023C69.6578 3.31904 69.6562 3.23248 69.6553 3.1892C69.5931 3.1471 69.5309 3.10501 69.0483 3.54732ZM102.51 3.72265C102.449 3.72384 102.45 3.76712 102.388 3.76831C102.389 3.81159 102.45 3.8104 102.451 3.85368C102.512 3.80921 102.512 3.80921 102.572 3.76474C102.572 3.76474 102.51 3.72265 102.391 3.94143C102.328 3.85606 102.266 3.81396 102.203 3.72859C102.141 3.68649 102.26 3.51099 102.078 3.60111C101.956 3.64677 101.897 3.7778 101.838 3.86555C102.023 3.94856 102.148 4.03275 102.333 4.07247C102.27 4.03037 102.332 4.02918 102.51 3.72265ZM66.5105 2.47067C66.4491 2.47186 66.4499 2.51514 66.3886 2.51633C66.3894 2.55961 66.4508 2.55842 66.4516 2.6017C66.5121 2.55723 66.5121 2.55723 66.5727 2.51276C66.5727 2.51276 66.5105 2.47067 66.5777 2.77246C66.2675 2.60527 66.1422 2.47779 66.0187 2.43689C65.8959 2.43926 65.7749 2.5282 65.6538 2.61714C65.8396 2.70014 66.0254 2.78314 66.2725 2.86496C66.212 2.90943 66.3331 2.82049 66.5105 2.47067ZM39.3996 6.89198C39.5223 6.88961 39.5837 6.88842 39.7073 6.92933C40.0772 7.00877 40.3193 6.83089 40.5623 6.6963C40.6228 6.65183 40.5597 6.56645 40.4975 6.52436C40.4967 6.48107 40.3748 6.52673 40.3126 6.48464C40.2588 6.87536 39.9486 6.70817 39.6409 6.67082C39.5173 6.62992 39.3332 6.63348 39.2113 6.67913C39.0886 6.68151 39.0297 6.81254 38.9692 6.85701C39.0314 6.89911 39.1541 6.89673 39.2163 6.93883C39.2147 6.85226 39.276 6.85107 39.3996 6.89198ZM68.9449 4.54518C68.7582 4.4189 68.5716 4.29262 68.5103 4.2938C68.3262 4.29736 68.0832 4.43196 67.9008 4.52208L67.9016 4.56537C68.0874 4.64837 68.274 4.77465 68.5203 4.81319C68.5817 4.812 68.7624 4.63531 68.9449 4.54518ZM68.8533 2.98822C68.792 2.98941 68.7298 2.94731 68.7298 2.94731C68.3649 3.12756 68.2405 3.04338 68.2968 2.7825C68.354 2.5649 68.1094 2.61293 67.9253 2.61649C67.8639 2.61768 67.8034 2.66215 67.7429 2.70662C68.0522 2.83053 67.9353 3.13588 68.3666 3.21413C68.6121 3.20938 68.7962 3.20582 68.8533 2.98822ZM43.0761 3.35701C42.9534 3.35938 42.892 3.36057 42.7692 3.36294C42.7079 3.36413 42.6465 3.36532 42.586 3.40979L42.5868 3.45307C42.6524 3.66829 43.2039 3.61432 43.087 3.91967C43.1483 3.91848 43.2089 3.87402 43.2702 3.87283C43.3299 3.78508 43.451 3.69614 43.5107 3.60839C43.5099 3.56511 43.5082 3.47854 43.446 3.43645C43.3829 3.35107 43.1988 3.35463 43.0761 3.35701ZM69.972 6.86341C69.6012 6.74069 69.5357 6.52547 69.5307 6.26578C69.4693 6.26696 69.4088 6.31143 69.3474 6.31262C69.0439 6.49168 69.3558 6.74544 69.2372 6.96422C69.2986 6.96304 69.36 6.96185 69.4213 6.96066C69.6054 6.9571 69.7273 6.91144 69.972 6.86341ZM39.3747 2.43275C39.1301 2.48079 38.8241 2.53 38.4567 2.58041C38.7055 2.74879 39.0132 2.78613 39.3167 2.60707C39.3167 2.60707 39.5033 2.73335 39.5647 2.73217C39.6261 2.73098 39.748 2.68532 39.7471 2.64204C39.7463 2.59876 39.7446 2.5122 39.6824 2.4701C39.6824 2.4701 39.5597 2.47248 39.3747 2.43275ZM78.4285 2.88958C78.4293 2.93286 78.4285 2.88958 78.4277 2.8463C78.4865 2.71526 78.4235 2.62989 78.2394 2.63345C77.9939 2.6382 78.0586 2.81014 78.0603 2.8967C78.062 2.98327 78.125 3.06864 78.2486 3.10955C78.3108 3.15165 78.4335 3.14927 78.5571 3.19018C78.4932 3.06152 78.4924 3.01824 78.4285 2.88958ZM135.761 2.51651C135.762 2.55979 135.763 2.60308 135.763 2.60308C136.009 2.64161 136.255 2.68014 136.439 2.67658C136.438 2.6333 136.437 2.54673 136.375 2.54792C136.252 2.50701 136.066 2.42401 135.882 2.42757C135.882 2.42757 135.822 2.51533 135.761 2.51651ZM74.5723 3.48376C74.5118 3.52823 74.4504 3.52941 74.4513 3.5727C74.3924 3.70373 74.3327 3.79148 74.2739 3.92251C74.2747 3.96579 74.3369 4.00789 74.3377 4.05117C74.3983 4.0067 74.4596 4.00552 74.4588 3.96223C74.5177 3.8312 74.5774 3.74345 74.6362 3.61242C74.6354 3.56913 74.5732 3.52704 74.5723 3.48376ZM73.4549 6.01667C73.3305 5.93248 73.328 5.80263 73.2666 5.80382C73.0817 5.7641 72.9606 5.85304 73.0245 5.9817C73.0262 6.06826 73.0884 6.11035 73.1514 6.19573C73.1497 6.10917 73.2716 6.06351 73.4549 6.01667ZM95.2493 2.86726C95.2502 2.91054 95.3124 2.95263 95.314 3.0392C95.4351 2.95026 95.5562 2.86132 95.615 2.73029C95.615 2.73029 95.4906 2.6461 95.4284 2.604C95.367 2.60519 95.3057 2.60638 95.2451 2.65085C95.3073 2.69294 95.2476 2.78069 95.2493 2.86726ZM63.9126 4.64254C63.7916 4.73147 63.6083 4.77832 63.916 4.81566C63.9774 4.81448 64.0371 4.72673 64.0968 4.63897C64.0959 4.59569 64.1564 4.55122 64.0942 4.50913C64.032 4.46703 63.9698 4.42494 63.9076 4.38284C63.784 4.34194 63.6622 4.38759 63.7874 4.51506C63.911 4.55597 63.9118 4.59925 63.9126 4.64254ZM58.6057 3.22977C58.4224 3.27661 58.3619 3.32108 58.3013 3.36555C58.4257 3.44974 58.4888 3.53512 58.6124 3.57602C58.6737 3.57484 58.7343 3.53037 58.7948 3.4859C58.7317 3.40052 58.6687 3.31515 58.6057 3.22977ZM75.6154 6.62434L75.6162 6.66763C75.8617 6.66288 76.108 6.70141 76.2921 6.69785C76.2912 6.65457 76.2904 6.61128 76.229 6.61247C76.1668 6.57038 76.0433 6.52947 75.9819 6.53066C75.8592 6.53303 75.7381 6.62197 75.6154 6.62434ZM70.9505 6.67129C70.9497 6.62801 70.9505 6.67129 70.89 6.71576C70.8908 6.75904 70.8917 6.80232 70.9539 6.84442C71.0774 6.88533 71.2615 6.88176 71.3843 6.87939C71.4456 6.8782 71.444 6.79164 71.5037 6.70389C71.4423 6.70507 71.3801 6.66298 71.3187 6.66417C71.196 6.66654 71.1346 6.66773 70.9505 6.67129ZM53.0733 2.86052C52.9505 2.86289 52.9505 2.86289 52.8892 2.86408C52.8917 2.99392 52.8942 3.12377 52.8959 3.21033C52.9572 3.20915 53.08 3.20677 53.1414 3.20558C53.1388 3.07574 53.0758 2.99036 53.0733 2.86052ZM57.6151 5.97671C57.7396 6.0609 57.864 6.14509 57.9884 6.22928C58.0489 6.18481 58.0472 6.09825 58.0464 6.05497C58.1053 5.92393 58.1036 5.83737 57.8581 5.84212C57.7967 5.84331 57.737 5.93106 57.6151 5.97671ZM133.703 4.02846C133.578 3.90099 133.515 3.81562 133.454 3.86009C133.271 3.90693 133.15 3.99587 132.966 4.04271C133.029 4.08481 133.152 4.12571 133.214 4.12453C133.397 4.07768 133.519 4.03203 133.703 4.02846ZM109.452 3.97803C109.328 3.89384 109.265 3.80847 109.203 3.80965C109.081 3.81203 109.021 3.89978 108.96 3.94425C108.96 3.94425 109.024 4.07291 109.086 4.07172C109.208 4.06934 109.33 4.02369 109.452 3.97803ZM64.2499 3.03398C64.3743 3.11817 64.4365 3.16026 64.5601 3.20117C64.6214 3.19999 64.682 3.15552 64.7425 3.11105C64.6803 3.06895 64.6173 2.98358 64.555 2.94148C64.4928 2.89939 64.4332 2.98714 64.2499 3.03398ZM66.1024 6.76508C65.978 6.68089 65.915 6.59551 65.8536 6.5967C65.7308 6.59908 65.6703 6.64354 65.6106 6.7313C65.6106 6.7313 65.6745 6.85995 65.7359 6.85877C65.8586 6.85639 65.9191 6.81192 66.1024 6.76508ZM143.815 6.30083C143.692 6.3032 143.57 6.34886 143.509 6.35005C143.572 6.43543 143.697 6.5629 143.758 6.51843C143.881 6.51605 144.002 6.42712 144.123 6.38146C143.939 6.38502 143.877 6.34293 143.815 6.30083ZM107.848 3.57608C108.033 3.6158 108.095 3.61461 108.217 3.61224C108.279 3.61105 108.401 3.56539 108.462 3.56421C108.4 3.52211 108.337 3.43674 108.275 3.43792C108.213 3.39583 108.152 3.39702 108.091 3.44148C108.03 3.44267 107.969 3.48714 107.848 3.57608ZM49.8172 5.91108C49.9416 5.99527 50.0038 6.03736 50.1274 6.07827C50.1887 6.07708 50.2493 6.03262 50.3098 5.98815C50.2476 5.94605 50.1845 5.86068 50.1223 5.81858C50.061 5.81977 49.9391 5.86542 49.8172 5.91108ZM75.6212 6.92732C75.5002 7.01626 75.4396 7.06072 75.3186 7.14966L75.3816 7.23504C75.5649 7.1882 75.6868 7.14254 75.87 7.0957C75.8078 7.0536 75.7456 7.01151 75.6212 6.92732ZM57.1378 3.51795C57.0748 3.43258 57.0126 3.39048 56.9504 3.34839C56.8285 3.39404 56.7074 3.48298 56.7083 3.52626C56.7099 3.61283 56.8335 3.65374 56.9579 3.73792C56.9562 3.65136 57.0168 3.60689 57.1378 3.51795ZM76.5367 6.64982C76.6603 6.69073 76.7225 6.73282 76.8461 6.77373C76.9074 6.77254 77.0302 6.77017 77.0907 6.7257C76.9663 6.64151 76.7805 6.5585 76.6561 6.47432C76.6578 6.56088 76.5972 6.60535 76.5367 6.64982ZM34.1665 6.12726C34.2287 6.16935 34.2918 6.25473 34.2926 6.29801C34.3532 6.25354 34.3515 6.16698 34.3506 6.12369C34.349 6.03713 34.2868 5.99504 34.2851 5.90847C34.2859 5.95175 34.2262 6.03951 34.1665 6.12726ZM67.1214 5.48972C67.0583 5.40434 66.9348 5.36344 66.8717 5.27806C66.8112 5.32253 66.7515 5.41028 66.7523 5.45356C66.8145 5.49566 66.9381 5.53656 67.0003 5.57866C67.0609 5.53419 67.1214 5.48972 67.1214 5.48972ZM136.348 4.32367C136.285 4.23829 136.284 4.19501 136.284 4.15173C136.162 4.19739 136.041 4.28632 135.919 4.33198C135.981 4.37407 136.043 4.41617 136.043 4.41617C136.165 4.37051 136.226 4.32604 136.348 4.32367ZM51.2841 5.57961C51.2236 5.62408 51.1631 5.66855 51.1034 5.7563C51.1042 5.79958 51.1051 5.84287 51.1673 5.88496C51.2892 5.8393 51.4102 5.75037 51.5321 5.70471C51.4086 5.6638 51.4086 5.6638 51.2841 5.57961ZM66.829 3.07068C66.7677 3.07187 66.7071 3.11634 66.7071 3.11634C66.7088 3.2029 66.7718 3.28828 66.8341 3.33037C66.8341 3.33037 67.0173 3.28353 67.0787 3.28234C66.9543 3.19815 66.8921 3.15606 66.829 3.07068ZM92.7896 2.65505C92.7265 2.56968 92.7257 2.52639 92.7248 2.48311C92.6029 2.52877 92.4819 2.61771 92.36 2.66336C92.4222 2.70546 92.4844 2.74755 92.4844 2.74755C92.6063 2.7019 92.6668 2.65743 92.7896 2.65505ZM62.6011 6.65962C62.5405 6.70409 62.4808 6.79184 62.4817 6.83513C62.4825 6.87841 62.5447 6.9205 62.5456 6.96378C62.6666 6.87485 62.7271 6.83038 62.8482 6.74144C62.786 6.69934 62.7246 6.70053 62.6011 6.65962ZM98.6824 5.78841C98.4377 5.83644 98.315 5.83882 98.1922 5.84119C98.2544 5.88329 98.3167 5.92538 98.378 5.92419C98.5008 5.92182 98.6235 5.91945 98.7462 5.91707C98.684 5.87498 98.6832 5.83169 98.6824 5.78841ZM61.4925 3.30382C61.4311 3.305 61.3706 3.34947 61.3706 3.34947C61.3723 3.43604 61.4353 3.52141 61.4975 3.56351C61.4975 3.56351 61.6808 3.51666 61.7421 3.51548C61.6799 3.47338 61.5555 3.38919 61.4925 3.30382ZM81.1882 5.91036C81.1251 5.82498 81.1234 5.73842 81.0604 5.65304C80.9999 5.69751 80.9393 5.74198 80.941 5.82854C80.9427 5.91511 81.0057 6.00049 81.0074 6.08705C81.0671 5.9993 81.1276 5.95483 81.1882 5.91036ZM54.1063 5.48172C53.9844 5.52738 53.923 5.52856 53.8616 5.52975C53.9247 5.61513 54.0491 5.69932 54.1121 5.78469C54.1726 5.74022 54.2332 5.69575 54.2332 5.69575C54.2315 5.60919 54.1685 5.52381 54.1063 5.48172ZM114.191 4.57913C114.128 4.49375 114.004 4.45284 113.941 4.36747C113.881 4.41194 113.821 4.49969 113.822 4.54297C113.884 4.58506 114.008 4.62597 114.07 4.66806C114.069 4.62478 114.13 4.58031 114.191 4.57913ZM46.3981 6.88648C46.4603 6.92858 46.5225 6.97067 46.6461 7.01158C46.7075 7.01039 46.7688 7.00921 46.8294 6.96474C46.7663 6.87936 46.6419 6.79517 46.5789 6.7098C46.5183 6.75426 46.4578 6.79873 46.3981 6.88648ZM76.7211 3.48549C76.6 3.57443 76.5395 3.61889 76.4184 3.70783C76.4798 3.70665 76.542 3.74874 76.542 3.74874C76.6025 3.70427 76.7244 3.65861 76.7849 3.61415C76.7841 3.57086 76.7219 3.52877 76.7211 3.48549ZM120.734 6.40097C120.673 6.44544 120.613 6.53319 120.614 6.57647C120.615 6.61975 120.677 6.66185 120.678 6.70513C120.799 6.61619 120.86 6.57172 120.981 6.48278C120.857 6.44188 120.857 6.44188 120.734 6.40097ZM76.5158 5.56777C76.5788 5.65315 76.5805 5.73971 76.6435 5.82509C76.7041 5.78062 76.7646 5.73615 76.7629 5.64958C76.7613 5.56302 76.6982 5.47764 76.6965 5.39108C76.5755 5.48002 76.5763 5.5233 76.5158 5.56777ZM58.7298 6.47473C58.6685 6.47591 58.6079 6.52038 58.6079 6.52038C58.6096 6.60695 58.6726 6.69232 58.7348 6.73442C58.7348 6.73442 58.9181 6.68757 58.9795 6.68639C58.9164 6.60101 58.7929 6.5601 58.7298 6.47473ZM114.159 6.09518C114.283 6.17937 114.346 6.22147 114.47 6.30566C114.469 6.26237 114.53 6.2179 114.53 6.2179C114.467 6.17581 114.404 6.09043 114.342 6.04834C114.342 6.04834 114.22 6.09399 114.159 6.09518ZM116.121 2.80986C116.184 2.89523 116.185 2.93852 116.247 2.98061C116.368 2.89167 116.429 2.8472 116.55 2.75827C116.489 2.75945 116.426 2.71736 116.426 2.71736C116.304 2.71973 116.243 2.7642 116.121 2.80986ZM141.331 1.67268C141.333 1.75925 141.396 1.84462 141.397 1.88791C141.457 1.84344 141.517 1.75569 141.516 1.7124C141.515 1.66912 141.514 1.58256 141.513 1.53928C141.452 1.58375 141.392 1.62821 141.331 1.67268ZM65.1054 6.005C65.2273 5.95934 65.2887 5.95816 65.3492 5.91369C65.2248 5.8295 65.1626 5.7874 65.0382 5.70321C65.0391 5.7465 64.9785 5.79097 64.9785 5.79097C64.981 5.92081 65.0432 5.96291 65.1054 6.005ZM96.8976 5.56315C96.896 5.47659 96.8329 5.39121 96.8321 5.34793C96.7716 5.3924 96.7119 5.48015 96.7127 5.52343C96.7135 5.56671 96.7152 5.65328 96.716 5.69656C96.7766 5.65209 96.8371 5.60762 96.8976 5.56315ZM115.302 4.90401C115.427 4.9882 115.489 5.0303 115.613 5.11449C115.613 5.0712 115.673 5.02673 115.673 5.02673C115.611 4.98464 115.548 4.89926 115.486 4.85717C115.424 4.85836 115.364 4.90282 115.302 4.90401ZM74.2485 5.78482C74.188 5.82929 74.1274 5.87376 74.1283 5.91704C74.1291 5.96033 74.1922 6.0457 74.193 6.08898C74.2535 6.04452 74.3149 6.04333 74.3141 6.00005C74.3132 5.95676 74.3115 5.8702 74.2485 5.78482ZM74.8505 5.167C74.8521 5.25357 74.7916 5.29804 74.7924 5.34132C74.7924 5.34132 74.8547 5.38341 74.916 5.38223C74.9765 5.33776 74.9749 5.25119 74.974 5.20791C74.9749 5.25119 74.9127 5.2091 74.8505 5.167ZM77.8223 3.29099C77.824 3.37755 77.7635 3.42202 77.7643 3.4653C77.7643 3.4653 77.8265 3.5074 77.8879 3.50621C77.9484 3.46174 77.9468 3.37518 77.9459 3.3319C78.0073 3.33071 77.8837 3.2898 77.8223 3.29099ZM80.5954 7.00428C80.5349 7.04875 80.4735 7.04994 80.413 7.09441C80.4752 7.1365 80.5374 7.1786 80.6601 7.17622C80.7215 7.17503 80.782 7.13056 80.8434 7.12938C80.719 7.04519 80.6576 7.04638 80.5954 7.00428ZM80.6518 6.7434C80.6509 6.70012 80.5887 6.65803 80.587 6.57146C80.5265 6.61593 80.4651 6.61712 80.466 6.6604C80.4668 6.70368 80.5299 6.78906 80.5307 6.83234C80.5921 6.83115 80.6526 6.78668 80.6518 6.7434ZM81.0149 6.47659C81.0149 6.47659 80.9552 6.56434 80.9561 6.60762C81.0175 6.60643 81.0797 6.64853 81.0797 6.64853C81.141 6.64734 81.2016 6.60287 81.2621 6.5584C81.1999 6.51631 81.1385 6.51749 81.0149 6.47659ZM81.8398 4.68541C81.6565 4.73225 81.6565 4.73225 81.5951 4.73344C81.6573 4.77553 81.7195 4.81763 81.7809 4.81644C81.8423 4.81525 81.9036 4.81407 81.9642 4.7696C81.8414 4.77197 81.8406 4.72869 81.8398 4.68541ZM82.7436 3.80196C82.7436 3.80196 82.6839 3.88971 82.6847 3.93299C82.7461 3.9318 82.8083 3.9739 82.8083 3.9739C82.8696 3.97271 82.9302 3.92824 82.9907 3.88377C82.9293 3.88496 82.8671 3.84287 82.7436 3.80196ZM83.8214 2.39557C83.8819 2.3511 83.9433 2.34991 84.0038 2.30544C83.9416 2.26335 83.8794 2.22125 83.7567 2.22363C83.6953 2.22481 83.6348 2.26928 83.5734 2.27047C83.697 2.31138 83.7592 2.35347 83.8214 2.39557ZM84.7453 2.55089C84.6839 2.55207 84.6234 2.59654 84.5006 2.59892C84.5628 2.64101 84.5637 2.68429 84.625 2.68311C84.6864 2.68192 84.8083 2.63626 84.8697 2.63508C84.8688 2.59179 84.8075 2.59298 84.7453 2.55089ZM84.265 6.28382C84.3272 6.32591 84.3288 6.41248 84.3288 6.41248C84.3902 6.41129 84.513 6.40892 84.5735 6.36445C84.5726 6.32116 84.5104 6.27907 84.5104 6.27907C84.4491 6.28026 84.3877 6.28144 84.265 6.28382ZM84.767 3.67622C84.8292 3.71831 84.8309 3.80488 84.8309 3.80488C84.8923 3.80369 85.015 3.80131 85.0756 3.75684C85.0747 3.71356 85.0125 3.67147 85.0125 3.67147C85.0125 3.67147 84.8898 3.67384 84.767 3.67622ZM30.0153 7.33332C30.0758 7.28885 30.1372 7.28766 30.1977 7.24319C30.1355 7.2011 30.0733 7.159 29.9505 7.16138C29.8892 7.16256 29.8286 7.20703 29.7673 7.20822C29.8295 7.25032 29.9531 7.29122 30.0153 7.33332ZM30.7888 6.06271C30.6055 6.10955 30.6055 6.10955 30.5441 6.11074C30.6063 6.15283 30.6685 6.19493 30.7299 6.19374C30.7913 6.19255 30.8526 6.19137 30.9132 6.1469C30.8518 6.14808 30.7896 6.10599 30.7888 6.06271ZM86.7794 6.14858C86.718 6.14977 86.6567 6.15095 86.6567 6.15095C86.6575 6.19423 86.6592 6.2808 86.66 6.32408L86.7827 6.32171C86.7819 6.27842 86.7811 6.23514 86.7794 6.14858ZM34.1693 3.09633C34.1693 3.09633 34.1096 3.18408 34.1104 3.22737C34.1718 3.22618 34.234 3.26827 34.234 3.26827C34.2954 3.26709 34.3559 3.22262 34.4164 3.17815C34.3551 3.17934 34.2929 3.13724 34.1693 3.09633ZM106.225 2.17864C106.225 2.17864 106.349 2.21955 106.41 2.21836C106.409 2.17508 106.47 2.13061 106.47 2.13061C106.469 2.08733 106.407 2.04524 106.344 2.00314C106.345 2.04642 106.346 2.0897 106.225 2.17864ZM37.272 4.81153C37.2115 4.856 37.151 4.90047 37.1518 4.94375C37.1527 4.98703 37.2157 5.07241 37.2165 5.11569C37.2771 5.07122 37.3384 5.07004 37.3376 5.02675C37.3359 4.94019 37.2729 4.85481 37.272 4.81153ZM37.5747 4.58919C37.6369 4.63128 37.6386 4.71784 37.6386 4.71784C37.7 4.71666 37.8227 4.71428 37.8832 4.66981C37.8824 4.62653 37.8202 4.58444 37.8202 4.58444C37.7588 4.58562 37.6974 4.58681 37.5747 4.58919ZM107.587 5.96252C107.65 6.00462 107.651 6.09118 107.651 6.09118C107.713 6.08999 107.835 6.08762 107.896 6.04315C107.895 5.99987 107.833 5.95777 107.833 5.95777C107.772 5.95896 107.649 5.96133 107.587 5.96252ZM39.1399 6.16094C39.1391 6.11766 39.0769 6.07556 39.0752 5.989C39.0147 6.03347 38.9533 6.03465 38.9541 6.07794C38.955 6.12122 39.018 6.20659 39.0188 6.24988C39.0188 6.24988 39.0802 6.24869 39.1399 6.16094ZM114.77 5.95346C114.832 5.99556 114.834 6.08212 114.834 6.08212C114.895 6.08094 115.018 6.07856 115.079 6.03409C115.078 5.99081 115.016 5.94871 115.016 5.94871C115.016 5.94871 114.893 5.95109 114.77 5.95346ZM119.947 3.8183C119.947 3.8183 120.071 3.85921 120.132 3.85802C120.131 3.81474 120.192 3.77027 120.192 3.77027C120.191 3.72699 120.129 3.68489 120.066 3.6428C120.005 3.64398 120.006 3.68727 119.947 3.8183ZM120.767 4.9282C120.829 4.97029 120.83 5.05685 120.83 5.05685C120.892 5.05567 121.015 5.05329 121.075 5.00882C121.074 4.96554 121.012 4.92345 121.012 4.92345C121.011 4.88016 120.889 4.92582 120.767 4.9282ZM125.681 1.88886C125.743 1.93095 125.805 1.97305 125.866 1.97186C125.928 1.97067 126.05 1.92502 126.111 1.92383C126.049 1.88174 126.048 1.83845 125.987 1.83964C125.865 1.8853 125.742 1.88767 125.681 1.88886ZM48.5337 3.03493C48.4698 2.90628 48.4698 2.90628 48.469 2.86299C48.4085 2.90746 48.3479 2.95193 48.3488 2.99521C48.3496 3.0385 48.3504 3.08178 48.4126 3.12387C48.4732 3.0794 48.5337 3.03493 48.5337 3.03493ZM49.3895 2.84519C49.2062 2.89203 49.2062 2.89203 49.1449 2.89322C49.2071 2.93531 49.2693 2.97741 49.3307 2.97622C49.392 2.97503 49.4534 2.97384 49.5139 2.92938C49.4526 2.93056 49.4517 2.88728 49.3895 2.84519ZM50.9848 5.97509C50.9848 5.97509 50.9252 6.06284 50.926 6.10612C50.9874 6.10493 51.0496 6.14703 51.0496 6.14703C51.1109 6.14584 51.1715 6.10137 51.232 6.0569C51.1706 6.05809 51.1084 6.01599 50.9848 5.97509ZM139.156 6.65075C139.155 6.60747 139.093 6.56537 139.091 6.47881C139.031 6.52328 138.969 6.52447 138.97 6.56775C138.971 6.61103 139.034 6.69641 139.035 6.73969C139.035 6.73969 139.095 6.69522 139.156 6.65075ZM140.432 2.81582C140.371 2.81701 140.31 2.86148 140.188 2.86385C140.25 2.90595 140.251 2.94923 140.312 2.94804C140.374 2.94685 140.495 2.9012 140.557 2.90001C140.557 2.90001 140.495 2.85792 140.432 2.81582ZM144.672 6.15436C144.549 6.15674 144.487 6.11464 144.425 6.11583C144.425 6.11583 144.365 6.1603 144.366 6.20358C144.428 6.24568 144.551 6.2433 144.612 6.24211C144.551 6.2433 144.611 6.19883 144.672 6.15436ZM149.209 5.8501C149.086 5.85248 149.024 5.81038 148.962 5.81157C148.962 5.81157 148.902 5.85604 148.903 5.89932C148.965 5.94141 149.088 5.93904 149.149 5.93785C149.088 5.93904 149.148 5.89457 149.209 5.8501ZM150.107 4.66368C149.984 4.66605 149.922 4.62396 149.86 4.62515C149.86 4.62515 149.8 4.66962 149.801 4.7129C149.863 4.75499 149.986 4.75262 150.047 4.75143C150.047 4.75143 150.107 4.70696 150.107 4.66368ZM53.9364 6.22107C53.8136 6.22345 53.7514 6.18135 53.6901 6.18254C53.6901 6.18254 53.6295 6.22701 53.6304 6.27029C53.6926 6.31239 53.8153 6.31001 53.8767 6.30882C53.8767 6.30882 53.8759 6.26554 53.9364 6.22107ZM54.836 5.12122C54.7754 5.16569 54.7149 5.21016 54.7158 5.25344C54.7166 5.29672 54.7796 5.3821 54.7805 5.42538C54.841 5.38091 54.9024 5.37972 54.9015 5.33644C54.8385 5.25106 54.8368 5.1645 54.836 5.12122ZM55.8304 5.75145C55.8321 5.83801 55.7716 5.88248 55.7724 5.92577C55.7724 5.92577 55.8346 5.96786 55.896 5.96667C55.9565 5.9222 55.9548 5.83564 55.954 5.79236C55.954 5.79236 55.8926 5.79355 55.8304 5.75145ZM56.7702 6.72913C56.7097 6.7736 56.6483 6.77478 56.5878 6.81925C56.65 6.86135 56.7122 6.90344 56.8349 6.90107C56.8963 6.89988 56.9568 6.85541 57.0182 6.85422C56.956 6.81213 56.8324 6.77122 56.7702 6.72913ZM190.901 6.25588C190.718 6.30272 190.718 6.30272 190.657 6.30391C190.719 6.346 190.781 6.3881 190.842 6.38691C190.904 6.38572 190.965 6.38453 191.026 6.34006C190.902 6.29916 190.901 6.25588 190.901 6.25588ZM58.9033 2.74773C58.7806 2.75011 58.7183 2.70801 58.657 2.7092C58.657 2.7092 58.5964 2.75367 58.5973 2.79695C58.6595 2.83904 58.7822 2.83667 58.8436 2.83548C58.8444 2.87876 58.8436 2.83548 58.9033 2.74773ZM200.96 5.7582C200.899 5.80267 200.777 5.80504 200.777 5.80504C200.777 5.84832 200.779 5.93489 200.841 5.97698C200.903 5.9758 200.963 5.93133 200.963 5.93133C200.962 5.88804 200.961 5.80148 200.96 5.7582ZM58.5323 5.78578C58.5929 5.74131 58.6542 5.74012 58.7148 5.69565C58.6525 5.65356 58.5903 5.61146 58.4676 5.61384C58.4062 5.61502 58.3457 5.65949 58.2843 5.66068C58.4079 5.70159 58.4701 5.74368 58.5323 5.78578ZM61.0462 2.44649C60.9856 2.49096 60.9251 2.53542 60.9259 2.57871C60.9268 2.62199 60.9898 2.70737 60.9907 2.75065C61.0512 2.70618 61.1126 2.70499 61.1117 2.66171C61.11 2.57515 61.047 2.48977 61.0462 2.44649ZM61.1829 6.34067C61.0601 6.34305 60.9979 6.30095 60.9366 6.30214C60.9366 6.30214 60.876 6.34661 60.8769 6.38989C60.9391 6.43199 61.0618 6.42961 61.1232 6.42843C61.0618 6.42961 61.1224 6.38514 61.1829 6.34067ZM62.9712 3.5783C62.9073 3.44964 62.9073 3.44964 62.9065 3.40636C62.8459 3.45082 62.7854 3.49529 62.7862 3.53858C62.7871 3.58186 62.7879 3.62514 62.8501 3.66723C62.8493 3.62395 62.9098 3.57948 62.9712 3.5783ZM63.7648 3.34645C63.7009 3.21779 63.7009 3.21779 63.7001 3.17451C63.6395 3.21898 63.579 3.26345 63.5798 3.30673C63.5807 3.35001 63.5815 3.3933 63.6437 3.43539C63.6429 3.39211 63.7034 3.34764 63.7648 3.34645ZM64.7347 5.88228C64.612 5.88465 64.5498 5.84256 64.4884 5.84375C64.4884 5.84375 64.4279 5.88821 64.4287 5.9315C64.4909 5.97359 64.6137 5.97122 64.675 5.97003C64.675 5.97003 64.6742 5.92675 64.7347 5.88228ZM68.6623 5.8063C68.5396 5.80867 68.4774 5.76658 68.416 5.76776C68.416 5.76776 68.3555 5.81223 68.3563 5.85551C68.4185 5.89761 68.5412 5.89523 68.6026 5.89405C68.6026 5.89405 68.6018 5.85077 68.6623 5.8063ZM27.2975 6.47663C27.2361 6.47782 27.2369 6.5211 27.1756 6.52229L27.2378 6.56439C27.2991 6.5632 27.2991 6.5632 27.3597 6.51873C27.2983 6.51992 27.2975 6.47663 27.2975 6.47663ZM33.942 7.21405C34.0034 7.21287 34.0025 7.16958 34.0639 7.1684L34.0017 7.1263C33.9403 7.12749 33.9403 7.12749 33.8798 7.17196C33.8806 7.21524 33.942 7.21405 33.942 7.21405ZM34.6466 5.55509L34.5844 5.513C34.5852 5.55628 34.5239 5.55747 34.5247 5.60075L34.5869 5.64284C34.5861 5.59956 34.6466 5.55509 34.6466 5.55509ZM35.4745 7.09781C35.4754 7.14109 35.5367 7.1399 35.5376 7.18319L35.5981 7.13872C35.5973 7.09543 35.5973 7.09544 35.5351 7.05334C35.5359 7.09662 35.5359 7.09662 35.4745 7.09781ZM36.4497 6.73256L36.3875 6.69046C36.3884 6.73375 36.327 6.73493 36.3278 6.77821L36.39 6.82031C36.39 6.82031 36.4506 6.77584 36.4497 6.73256ZM36.6877 6.33827C36.6263 6.33946 36.6271 6.38274 36.5658 6.38393L36.628 6.42602C36.6893 6.42484 36.6893 6.42484 36.7499 6.38037C36.6877 6.33827 36.6877 6.33827 36.6877 6.33827ZM36.8785 6.68097L36.9407 6.72306C37.002 6.72187 37.002 6.72187 37.0626 6.6774L37.0004 6.63531C37.0004 6.63531 36.939 6.6365 36.8785 6.68097ZM37.1627 5.50642C37.1013 5.5076 37.1022 5.55089 37.0408 5.55207L37.103 5.59417C37.1644 5.59298 37.1644 5.59298 37.2249 5.54851C37.2249 5.54851 37.1635 5.5497 37.1627 5.50642ZM37.9831 6.6596L37.9226 6.70407C37.9234 6.74735 37.9234 6.74735 37.9856 6.78944L38.0461 6.74497C37.9839 6.70288 37.9839 6.70288 37.9831 6.6596ZM38.3605 7.12857L38.2983 7.08648C38.2992 7.12976 38.2378 7.13095 38.2386 7.17423L38.3008 7.21632C38.3 7.17304 38.3614 7.17186 38.3605 7.12857ZM40.7307 2.70961L40.6685 2.66751C40.6693 2.7108 40.608 2.71198 40.6088 2.75527L40.671 2.79736C40.6702 2.75408 40.6702 2.75408 40.7307 2.70961ZM41.2409 3.6956L41.1804 3.74007C41.2417 3.73888 41.2426 3.78216 41.3039 3.78097L41.3645 3.7365C41.3645 3.7365 41.3023 3.69441 41.2409 3.6956ZM47.4383 3.53241L47.3761 3.49031C47.3769 3.53359 47.3155 3.53478 47.3164 3.57806L47.3786 3.62016C47.3777 3.57687 47.4383 3.53241 47.4383 3.53241ZM47.7828 5.47416L47.7206 5.43206C47.7214 5.47534 47.6601 5.47653 47.6609 5.51981L47.7231 5.56191C47.7223 5.51863 47.7214 5.47534 47.7828 5.47416ZM48.2367 6.72102C48.2375 6.7643 48.2989 6.76312 48.2997 6.8064L48.3602 6.76193C48.3594 6.71865 48.3594 6.71865 48.2972 6.67655C48.298 6.71984 48.298 6.71984 48.2367 6.72102ZM48.8219 5.23756C48.8227 5.28085 48.8841 5.27966 48.8849 5.32294L48.9454 5.27847C48.9446 5.23519 48.9446 5.23519 48.8824 5.1931C48.8832 5.23638 48.8832 5.23638 48.8219 5.23756ZM49.2186 6.70203L49.2808 6.74412C49.2799 6.70084 49.3413 6.69965 49.3405 6.65637L49.2782 6.61428C49.2791 6.65756 49.2791 6.65756 49.2186 6.70203ZM50.0409 4.781L50.1031 4.8231C50.1644 4.82191 50.1644 4.82191 50.225 4.77744L50.1628 4.73534C50.1628 4.73534 50.1022 4.77981 50.0409 4.781ZM52.1846 4.52304C52.1837 4.47976 52.1224 4.48094 52.1215 4.43766L52.061 4.48213C52.0618 4.52541 52.0618 4.52541 52.124 4.56751L52.1846 4.52304ZM52.4713 3.47834L52.5319 3.43387C52.4705 3.43505 52.4697 3.39177 52.4083 3.39296L52.3477 3.43743C52.4091 3.43624 52.4705 3.43505 52.4713 3.47834ZM52.8225 5.76634L52.7603 5.72425C52.7612 5.76753 52.6998 5.76872 52.7006 5.812L52.7629 5.85409C52.762 5.81081 52.7612 5.76753 52.8225 5.76634ZM53.7701 3.97279L53.7096 4.01726C53.7709 4.01607 53.7718 4.05935 53.8332 4.05816L53.8937 4.0137C53.8323 4.01488 53.7709 4.01607 53.7701 3.97279ZM55.1992 4.8544L55.1386 4.89887C55.1395 4.94215 55.1395 4.94215 55.2017 4.98425L55.2622 4.93978C55.2622 4.93978 55.2 4.89768 55.1992 4.8544ZM55.4159 6.53884L55.4765 6.49437C55.4151 6.49555 55.4143 6.45227 55.3529 6.45346L55.2924 6.49793C55.3537 6.49674 55.3537 6.49674 55.4159 6.53884ZM39.3148 5.68127L39.2526 5.63918C39.2534 5.68246 39.1921 5.68365 39.1929 5.72693L39.2551 5.76903C39.3156 5.72456 39.3148 5.68127 39.3148 5.68127ZM57.6271 3.42189L57.5649 3.3798C57.5657 3.42308 57.5044 3.42427 57.5052 3.46755L57.5674 3.50964C57.5666 3.46636 57.6271 3.42189 57.6271 3.42189ZM59.4093 3.51731L59.4715 3.5594C59.5329 3.55822 59.5329 3.55822 59.5934 3.51375L59.5312 3.47165C59.4707 3.51612 59.4707 3.51612 59.4093 3.51731ZM60.0791 6.40533L60.0186 6.4498C60.0799 6.44861 60.0808 6.49189 60.1421 6.4907L60.2027 6.44623C60.1413 6.44742 60.0799 6.44861 60.0791 6.40533ZM60.6247 6.04839C60.6255 6.09167 60.6869 6.09048 60.6878 6.13376L60.7483 6.08929C60.7474 6.04601 60.7474 6.04601 60.6852 6.00392C60.6861 6.0472 60.6861 6.0472 60.6247 6.04839ZM61.1806 3.05006L61.1184 3.00796C61.1192 3.05125 61.0579 3.05243 61.0587 3.09572L61.1209 3.13781C61.1201 3.09453 61.1815 3.09334 61.1806 3.05006ZM61.3564 2.61368L61.2958 2.65815C61.3572 2.65696 61.358 2.70024 61.4194 2.69906L61.4799 2.65459C61.4186 2.65577 61.4186 2.65577 61.3564 2.61368ZM61.9659 2.3854L61.9053 2.42987C61.9667 2.42868 61.9675 2.47196 62.0289 2.47077L62.0894 2.4263C62.0281 2.42749 62.0272 2.38421 61.9659 2.3854ZM62.3399 2.68125L62.2794 2.72572C62.3408 2.72453 62.3416 2.76781 62.403 2.76662L62.4635 2.72215C62.4021 2.72334 62.3399 2.68125 62.3399 2.68125ZM110.091 2.10385L110.031 2.14832C110.092 2.14713 110.093 2.19041 110.154 2.18923L110.215 2.14476C110.153 2.14594 110.153 2.10266 110.091 2.10385ZM111.877 5.57644L111.94 5.61854C112.001 5.61735 112.001 5.61735 112.062 5.57288L111.999 5.53079C111.999 5.53079 111.938 5.53197 111.877 5.57644ZM89.0411 2.46778C89.0402 2.4245 88.9788 2.42569 88.978 2.3824L88.9175 2.42687C88.9183 2.47016 88.9183 2.47016 88.9805 2.51225C88.9805 2.51225 88.9805 2.51225 89.0411 2.46778ZM113.232 5.76673L113.169 5.72464C113.17 5.76792 113.109 5.76911 113.11 5.81239L113.172 5.85449C113.171 5.8112 113.17 5.76792 113.232 5.76673ZM114.084 2.19981L114.021 2.15771C114.022 2.20099 113.961 2.20218 113.962 2.24546L114.024 2.28756C114.023 2.24428 114.084 2.24309 114.084 2.19981ZM116.606 2.49739L116.544 2.45529C116.545 2.49857 116.484 2.49976 116.484 2.54304L116.547 2.58514C116.546 2.54186 116.545 2.49857 116.606 2.49739ZM116.985 3.05293C116.986 3.09621 117.048 3.09502 117.049 3.13831L117.109 3.09384C117.108 3.05055 117.108 3.05055 117.046 3.00846C116.985 3.05293 116.985 3.05293 116.985 3.05293ZM117.128 4.08932C117.127 4.04604 117.066 4.04723 117.065 4.00394L117.005 4.04841C117.006 4.09169 117.006 4.09169 117.068 4.13379C117.128 4.08932 117.128 4.08932 117.128 4.08932ZM88.8637 2.8176C88.8645 2.86088 88.9259 2.85969 88.9267 2.90298L88.9872 2.85851C88.9864 2.81522 88.9864 2.81522 88.9242 2.77313C88.8637 2.8176 88.8637 2.8176 88.8637 2.8176ZM88.7197 4.89869L88.6575 4.8566C88.6584 4.89988 88.597 4.90107 88.5978 4.94435L88.66 4.98644C88.6592 4.94316 88.6592 4.94316 88.7197 4.89869ZM97.0491 3.87159L96.9869 3.8295C96.9877 3.87278 96.9264 3.87397 96.9272 3.91725L96.9894 3.95934C96.9886 3.91606 97.0491 3.87159 97.0491 3.87159ZM97.2416 4.30085L97.3038 4.34295C97.3651 4.34176 97.3652 4.34176 97.4257 4.29729L97.3635 4.25519C97.3021 4.25638 97.2416 4.30085 97.2416 4.30085ZM92.3698 6.34352C92.3084 6.3447 92.3092 6.38798 92.2479 6.38917L92.3101 6.43127C92.3715 6.43008 92.3715 6.43008 92.432 6.38561C92.4311 6.34233 92.4312 6.34233 92.3698 6.34352ZM89.7276 6.22144L89.7898 6.26353C89.8512 6.26235 89.8512 6.26235 89.9117 6.21788L89.8495 6.17578C89.7881 6.17697 89.789 6.22025 89.7276 6.22144ZM74.6144 2.48709L74.6767 2.52918C74.6758 2.4859 74.7372 2.48471 74.7363 2.44143L74.6741 2.39933C74.675 2.44262 74.675 2.44262 74.6144 2.48709ZM128.522 2.78645L128.584 2.82854C128.645 2.82736 128.645 2.82736 128.706 2.78289L128.644 2.74079C128.582 2.74198 128.521 2.74317 128.522 2.78645ZM91.4327 2.33492L91.495 2.37701C91.4941 2.33373 91.5555 2.33254 91.5547 2.28926L91.4924 2.24716C91.4933 2.29045 91.4933 2.29045 91.4327 2.33492ZM128.878 2.17338L128.939 2.12891C128.878 2.1301 128.877 2.08682 128.815 2.088L128.755 2.13247C128.816 2.13128 128.878 2.1301 128.878 2.17338ZM129.136 2.77458C129.136 2.81786 129.198 2.81667 129.199 2.85995L129.259 2.81549C129.258 2.7722 129.258 2.7722 129.196 2.73011C129.136 2.77458 129.136 2.77458 129.136 2.77458ZM73.6005 4.02214C73.6013 4.06542 73.6627 4.06423 73.6635 4.10751L73.7241 4.06304C73.7232 4.01976 73.7232 4.01976 73.661 3.97767C73.6619 4.02095 73.6619 4.02095 73.6005 4.02214ZM73.0214 2.6478L73.0836 2.68989C73.0827 2.64661 73.1441 2.64542 73.1433 2.60214L73.0811 2.56005C73.0819 2.60333 73.0827 2.64661 73.0214 2.6478ZM132.282 6.74044L132.344 6.78253C132.343 6.73925 132.405 6.73806 132.404 6.69478L132.342 6.65269C132.342 6.69597 132.342 6.69597 132.282 6.74044ZM133.299 2.21775C133.3 2.26103 133.362 2.25984 133.362 2.30312L133.423 2.25865C133.422 2.21537 133.422 2.21537 133.36 2.17328C133.36 2.17328 133.299 2.17446 133.299 2.21775ZM133.668 2.2539L133.731 2.296C133.792 2.29481 133.792 2.29481 133.853 2.25034L133.79 2.20825C133.729 2.20944 133.729 2.20944 133.668 2.2539ZM134.619 3.79425C134.62 3.83753 134.681 3.83634 134.682 3.87962L134.743 3.83515C134.742 3.79187 134.742 3.79187 134.68 3.74978C134.68 3.74978 134.681 3.79306 134.619 3.79425ZM134.908 6.04016L134.97 6.08225C135.032 6.08107 135.032 6.08107 135.092 6.0366L135.03 5.9945C134.969 5.99569 134.97 6.03897 134.908 6.04016ZM135.52 5.94172L135.582 5.98382C135.644 5.98263 135.644 5.98263 135.704 5.93816L135.642 5.89607C135.581 5.89725 135.52 5.94172 135.52 5.94172ZM136.53 4.19026C136.531 4.23354 136.592 4.23236 136.593 4.27564L136.654 4.23117C136.653 4.18789 136.653 4.18789 136.59 4.14579C136.59 4.14579 136.59 4.14579 136.53 4.19026ZM70.1485 6.47031C70.1494 6.5136 70.2107 6.51241 70.2116 6.55569L70.2721 6.51122C70.2713 6.46794 70.2713 6.46794 70.2091 6.42584C70.2091 6.42584 70.2099 6.46913 70.1485 6.47031ZM138.293 6.45096C138.231 6.45215 138.232 6.49543 138.171 6.49662L138.233 6.53871C138.294 6.53753 138.294 6.53753 138.355 6.49306C138.355 6.49306 138.293 6.49424 138.293 6.45096ZM70.6238 2.47769L70.5616 2.4356C70.5625 2.47888 70.5011 2.48007 70.5019 2.52335L70.5641 2.56544C70.6255 2.56425 70.6247 2.52097 70.6238 2.47769ZM101.126 1.97421L101.065 2.01868C101.126 2.01749 101.127 2.06077 101.189 2.05958L101.249 2.01512C101.188 2.0163 101.126 2.01749 101.126 1.97421ZM140.676 5.88528L140.615 5.92975C140.677 5.92856 140.678 5.97184 140.739 5.97065L140.8 5.92619C140.738 5.92737 140.677 5.92856 140.676 5.88528ZM70.047 4.39397C70.0478 4.43725 70.1092 4.43606 70.11 4.47934L70.1706 4.43488C70.1697 4.39159 70.1697 4.39159 70.1075 4.3495C70.1075 4.3495 70.1083 4.39278 70.047 4.39397ZM142.034 6.2487L141.973 6.29317C141.974 6.33645 141.974 6.33645 142.036 6.37854L142.097 6.33407C142.034 6.29198 142.034 6.2487 142.034 6.2487ZM143.845 1.49416L143.905 1.44969C143.844 1.45088 143.843 1.4076 143.782 1.40878L143.721 1.45325C143.783 1.45207 143.783 1.45207 143.845 1.49416ZM69.9672 3.44295L70.0294 3.48505C70.0286 3.44177 70.0899 3.44058 70.0891 3.3973L70.0269 3.3552C70.0277 3.39848 70.0286 3.44177 69.9672 3.44295ZM144.896 1.9068C144.897 1.95008 144.959 1.94889 144.959 1.99217L145.02 1.94771C145.019 1.90442 145.019 1.90442 144.957 1.86233C144.896 1.86352 144.896 1.86352 144.896 1.9068ZM146.325 5.94918L146.265 5.99365C146.266 6.03693 146.265 6.03693 146.328 6.07903L146.388 6.03456C146.387 5.99128 146.387 5.94799 146.325 5.94918ZM69.8336 2.88266L69.8958 2.92476C69.9571 2.92357 69.9571 2.92357 70.0177 2.8791L69.9555 2.83701C69.9555 2.83701 69.8949 2.88147 69.8336 2.88266ZM148.271 1.79822L148.21 1.84269C148.272 1.8415 148.272 1.88478 148.334 1.8836L148.394 1.83913C148.332 1.79703 148.271 1.79822 148.271 1.79822ZM149.866 4.92812C149.805 4.92931 149.806 4.97259 149.744 4.97378L149.806 5.01587C149.868 5.01468 149.868 5.01468 149.928 4.97022C149.866 4.92812 149.866 4.92812 149.866 4.92812ZM102.369 5.93359L102.308 5.97806C102.369 5.97687 102.37 6.02015 102.432 6.01897L102.492 5.9745C102.431 5.97568 102.369 5.93359 102.369 5.93359ZM151.896 5.14863L151.836 5.1931C151.897 5.19192 151.898 5.2352 151.959 5.23401L152.02 5.18954C151.959 5.19073 151.959 5.19073 151.896 5.14863ZM156.774 3.40894L156.836 3.45104C156.898 3.44985 156.898 3.44985 156.958 3.40538L156.896 3.36329C156.835 3.40776 156.774 3.40894 156.774 3.40894ZM157.4 4.0463L157.461 4.00183C157.399 4.00302 157.399 3.95974 157.337 3.96092L157.277 4.00539C157.277 4.00539 157.339 4.04749 157.4 4.0463ZM157.449 3.39588C157.388 3.39707 157.389 3.44035 157.327 3.44154L157.389 3.48363C157.451 3.48245 157.451 3.48245 157.511 3.43798C157.511 3.43798 157.511 3.43798 157.449 3.39588ZM158.884 1.4197L158.824 1.46417C158.825 1.50745 158.824 1.50745 158.887 1.54955L158.947 1.50508C158.946 1.4618 158.884 1.4197 158.884 1.4197ZM160.795 4.97649C160.733 4.97768 160.734 5.02096 160.673 5.02214L160.735 5.06424C160.796 5.06305 160.796 5.06305 160.857 5.01858C160.796 5.01977 160.796 5.01977 160.795 4.97649ZM160.897 3.89206C160.835 3.89325 160.836 3.93653 160.775 3.93772L160.837 3.97982C160.898 3.97863 160.898 3.97863 160.959 3.93416C160.959 3.93416 160.958 3.89088 160.897 3.89206ZM161.537 2.10445L161.598 2.05998C161.536 2.06116 161.536 2.01788 161.474 2.01907L161.414 2.06354C161.475 2.06235 161.536 2.06116 161.537 2.10445ZM166.385 2.01066C166.386 2.05394 166.448 2.05275 166.448 2.09603L166.509 2.05156C166.508 2.00828 166.508 2.00828 166.446 1.96619C166.385 1.96737 166.385 2.01066 166.385 2.01066ZM167.519 3.50415L167.582 3.54625C167.581 3.50297 167.642 3.50178 167.641 3.4585L167.579 3.4164C167.58 3.45969 167.58 3.45968 167.519 3.50415ZM104.599 3.81213L104.539 3.8566C104.539 3.89988 104.539 3.89988 104.602 3.94198L104.662 3.89751C104.662 3.89751 104.6 3.85541 104.599 3.81213ZM169.23 6.24214L169.29 6.19767C169.229 6.19886 169.228 6.15558 169.167 6.15677L169.106 6.20124C169.106 6.20124 169.168 6.24333 169.23 6.24214ZM68.8623 6.62509L68.8018 6.66956C68.8026 6.71284 68.8026 6.71284 68.8648 6.75494L68.9254 6.71047C68.9245 6.66719 68.8632 6.66837 68.8623 6.62509ZM90.149 2.61954L90.0868 2.57744C90.0877 2.62073 90.0263 2.62191 90.0271 2.6652L90.0893 2.70729C90.1507 2.7061 90.1499 2.66282 90.149 2.61954ZM69.1493 2.41962L69.2115 2.46171C69.2729 2.46053 69.2729 2.46053 69.3334 2.41606L69.2712 2.37396C69.2098 2.37515 69.1493 2.41962 69.1493 2.41962ZM173.284 6.33691L173.344 6.29245C173.283 6.29363 173.282 6.25035 173.22 6.25154L173.16 6.29601C173.221 6.29482 173.284 6.33691 173.284 6.33691ZM68.2411 6.24743L68.3033 6.28952C68.3647 6.28833 68.3647 6.28833 68.4252 6.24386L68.363 6.20177C68.3016 6.20296 68.2411 6.24743 68.2411 6.24743ZM105.984 2.3998C105.922 2.40099 105.923 2.44427 105.862 2.44546L105.924 2.48755C105.985 2.48637 105.985 2.48637 106.046 2.4419C106.046 2.4419 106.046 2.4419 105.984 2.3998ZM68.31 6.63578L68.2478 6.59368C68.2486 6.63696 68.1873 6.63815 68.1881 6.68143L68.2503 6.72353C68.3108 6.67906 68.3108 6.67906 68.31 6.63578ZM93.4627 5.7162L93.4005 5.6741C93.4013 5.71739 93.3399 5.71857 93.3408 5.76185L93.403 5.80395C93.403 5.80395 93.4635 5.75948 93.4627 5.7162ZM107.017 1.86024C107.078 1.85905 107.078 1.81577 107.139 1.81458L107.077 1.77248C107.015 1.77367 107.015 1.77367 106.955 1.81814C106.955 1.81814 106.956 1.86142 107.017 1.86024ZM190.049 6.61875L190.109 6.57428C190.048 6.57547 190.047 6.53219 189.986 6.53338L189.925 6.57784C189.987 6.57666 190.048 6.57547 190.049 6.61875ZM193.418 3.08971C193.48 3.08853 193.479 3.04524 193.54 3.04406L193.478 3.00196C193.417 3.00315 193.417 3.00315 193.356 3.04762C193.356 3.04762 193.418 3.04643 193.418 3.08971ZM107.758 2.0624L107.697 2.10687C107.698 2.15015 107.698 2.15015 107.76 2.19224L107.821 2.14778C107.821 2.14778 107.82 2.10449 107.758 2.0624ZM66.6505 6.53799C66.6514 6.58127 66.7127 6.58008 66.7136 6.62336L66.7741 6.57889C66.7733 6.53561 66.7733 6.53561 66.7111 6.49352L66.6505 6.53799ZM66.5027 5.2419L66.4421 5.28637C66.443 5.32965 66.443 5.32965 66.5052 5.37175L66.5657 5.32728C66.5649 5.284 66.5035 5.28518 66.5027 5.2419ZM202.415 4.82078L202.476 4.77632C202.414 4.7775 202.413 4.73422 202.352 4.73541L202.292 4.77988C202.353 4.77869 202.415 4.82078 202.415 4.82078ZM66.3959 6.06663C66.3345 6.06782 66.3353 6.1111 66.274 6.11229L66.3362 6.15438C66.3975 6.1532 66.3975 6.1532 66.4581 6.10873C66.4581 6.10873 66.4581 6.10873 66.3959 6.06663ZM83.0301 5.91803C82.9687 5.91921 82.9695 5.96249 82.9082 5.96368L82.9704 6.00578C83.0317 6.00459 83.0317 6.00459 83.0923 5.96012C83.0923 5.96012 83.0923 5.96012 83.0301 5.91803ZM66.0092 5.12155L65.947 5.07946C65.9479 5.12274 65.8865 5.12393 65.8873 5.16721L65.9495 5.2093C65.9487 5.16602 65.9487 5.16602 66.0092 5.12155ZM64.6868 6.57598L64.749 6.61807C64.8103 6.61688 64.8103 6.61688 64.8709 6.57241L64.8086 6.53032C64.7481 6.57479 64.6868 6.57598 64.6868 6.57598ZM88.5633 6.33056L88.6255 6.37265C88.6246 6.32937 88.686 6.32818 88.6852 6.2849L88.623 6.24281C88.623 6.24281 88.6238 6.28609 88.5633 6.33056ZM108.619 2.17562L108.681 2.21772C108.743 2.21653 108.743 2.21653 108.803 2.17206L108.741 2.12997C108.742 2.17325 108.681 2.17444 108.619 2.17562ZM81.6337 6.72441L81.5714 6.68231C81.5723 6.72559 81.5109 6.72678 81.5118 6.77006L81.574 6.81216C81.5731 6.76888 81.5723 6.72559 81.6337 6.72441ZM109.198 3.54996C109.137 3.55115 109.138 3.59443 109.076 3.59562L109.139 3.63771C109.2 3.63652 109.2 3.63652 109.261 3.59206C109.199 3.59324 109.199 3.59324 109.198 3.54996ZM63.7547 2.82707C63.7539 2.78379 63.6925 2.78497 63.6917 2.74169L63.6312 2.78616C63.632 2.82944 63.632 2.82944 63.6942 2.87154L63.7547 2.82707ZM63.198 5.78211C63.1988 5.82539 63.2602 5.82421 63.261 5.86749L63.3216 5.82302C63.3207 5.77974 63.3207 5.77974 63.2585 5.73764C63.2594 5.78093 63.2594 5.78093 63.198 5.78211ZM112.944 6.76816C113.005 6.76697 113.066 6.7225 113.127 6.67803C113.064 6.63593 113.001 6.55056 112.939 6.50846C112.878 6.50965 112.817 6.55412 112.634 6.60096C112.758 6.68515 112.821 6.77053 112.944 6.76816ZM110.923 7.02374C110.985 7.02256 111.047 7.06465 111.047 7.06465C111.108 7.06346 111.169 7.01899 111.229 6.97452C111.168 6.97571 111.106 6.93362 110.982 6.89271C111.044 6.9348 110.984 6.97927 110.923 7.02374ZM117.553 6.98209C117.553 7.02537 117.555 7.11193 117.617 7.15403C117.679 7.15284 117.739 7.10837 117.739 7.10837C117.738 7.06509 117.737 6.97853 117.735 6.89196C117.675 6.93643 117.553 6.98209 117.553 6.98209ZM128.354 6.81642C128.416 6.81523 128.477 6.81404 128.538 6.81286C128.476 6.77076 128.475 6.6842 128.413 6.68539C128.352 6.68657 128.229 6.68895 128.107 6.7346C128.231 6.77551 128.293 6.81761 128.354 6.81642ZM51.7472 7.30258C51.8086 7.30139 51.9313 7.29902 51.9919 7.25455C51.991 7.21127 51.9288 7.16917 51.9288 7.16917C51.8674 7.17036 51.7447 7.17273 51.622 7.17511C51.7464 7.2593 51.7472 7.30258 51.7472 7.30258ZM53.342 7.22843C53.4033 7.22724 53.5261 7.22487 53.5866 7.1804C53.5858 7.13712 53.5236 7.09502 53.5236 7.09502C53.4622 7.09621 53.3394 7.09859 53.2167 7.10096C53.2798 7.18634 53.342 7.22843 53.342 7.22843ZM34.501 7.54962C34.5002 7.50634 34.5615 7.50516 34.5607 7.46187L34.4985 7.41978C34.4993 7.46306 34.438 7.46425 34.4388 7.50753C34.5002 7.50634 34.501 7.54962 34.501 7.54962ZM50.9503 7.3613C51.0116 7.36011 51.0116 7.36011 51.0722 7.31564L51.01 7.27355C50.9486 7.27473 50.9486 7.27473 50.8881 7.3192C50.8881 7.3192 50.8889 7.36248 50.9503 7.3613ZM51.3176 7.31089C51.3185 7.35417 51.3185 7.35417 51.3807 7.39627L51.4412 7.3518C51.4404 7.30852 51.4404 7.30852 51.3782 7.26642C51.3176 7.31089 51.3176 7.31089 51.3176 7.31089ZM54.9981 7.15309L55.0603 7.19519C55.1216 7.194 55.1216 7.194 55.1822 7.14953L55.12 7.10744C55.12 7.10744 55.0586 7.10862 54.9981 7.15309ZM80.3642 7.74482L80.4264 7.78692C80.4877 7.78573 80.4877 7.78573 80.5483 7.74126L80.4861 7.69917C80.4255 7.74364 80.3642 7.74482 80.3642 7.74482ZM115.656 7.32186C115.717 7.32068 115.717 7.32068 115.778 7.27621L115.716 7.23411C115.654 7.2353 115.654 7.2353 115.594 7.27977C115.594 7.27977 115.595 7.32305 115.656 7.32186ZM76.6745 7.42652L76.7367 7.46861C76.7981 7.46743 76.7981 7.46743 76.8586 7.42296L76.7964 7.38086C76.7351 7.38205 76.7351 7.38205 76.6745 7.42652ZM120.891 1.85162C120.953 1.85043 120.952 1.80715 121.013 1.80596C120.951 1.76386 120.951 1.76387 120.889 1.72177L120.828 1.76624C120.829 1.80952 120.89 1.80833 120.891 1.85162ZM121.875 1.91918C121.936 1.918 121.935 1.87472 121.997 1.87353C121.935 1.83143 121.935 1.83143 121.872 1.78934L121.812 1.83381C121.813 1.87709 121.874 1.8759 121.875 1.91918ZM130.872 6.85431C130.873 6.89759 130.874 6.94087 130.935 6.93968C130.935 6.93968 130.996 6.9385 131.058 6.93731C131.057 6.89403 130.996 6.89522 130.995 6.85193C130.933 6.85312 130.933 6.85312 130.872 6.85431ZM86.86 7.14288L86.9222 7.18497C86.9836 7.18378 86.9836 7.18378 87.0441 7.13931L86.9819 7.09722C86.9828 7.1405 86.9214 7.14169 86.86 7.14288ZM201.924 1.66951C201.986 1.66833 202.046 1.62386 202.108 1.62267C202.045 1.58057 201.983 1.53848 201.983 1.53848C201.983 1.53848 201.984 1.58176 201.924 1.66951ZM64.2555 6.49772C64.2513 6.28131 64.0075 6.37263 63.8839 6.33172C63.8848 6.375 63.8856 6.41828 63.8864 6.46156C64.01 6.50247 64.1328 6.5001 64.2555 6.49772Z" fill="#FDB706"/>
</svg>
