<svg version="1.1" id="Layer_1" xmlns="http://www.w3.org/2000/svg" xmlns:xlink="http://www.w3.org/1999/xlink" x="0px" y="0px"
	 viewBox="0 0 214.48 8.22" style="enable-background:new 0 0 214.48 8.22;" xml:space="preserve">
<style type="text/css">
	.st0{fill:#FCB714;}
</style>
<path class="st0" d="M55.22,2.94c0.06-0.22,0.25-0.35,0.38-0.31c0.33,0.04,0.26-0.18,0.38-0.23c0.13,0.08,0.26,0.17,0.4,0.25
	c0.13,0.04,0.33,0.08,0.39,0.03c0.26-0.14,0.39-0.1,0.39,0.12c0,0.04,0.2,0.04,0.26,0.08c0-0.04,0-0.09,0-0.13l-0.07-0.04
	c-0.07-0.13-0.14-0.3-0.07-0.34c0.39-0.14,0.26,0.17,0.4,0.25c0.07,0.04,0.13,0.13,0.2,0.17c0.07,0.04,0.13,0,0.2,0.04
	c0-0.04,0-0.09,0-0.13c0-0.09-0.07-0.21,0-0.22c0.19-0.09,0.26-0.01,0.39,0.08c0.13,0.08,0.27,0.34,0.39-0.01
	c0.58-0.06,1.16-0.24,1.76,0.05c0.2,0.08,0.2,0.17,0.32-0.05c0.13-0.18,0.58-0.14,0.78,0.11c0,0,0,0,0-0.04
	c-0.06,0-0.13,0-0.13,0.05c0,0,0,0.04,0,0.09c0.06,0,0.06-0.04,0.13-0.09c0.19-0.22,0.32-0.27,0.45-0.36
	c0.26-0.14,0.2,0.04,0.26,0.08c0.07,0.09,0.26,0.08,0.39,0.12c-0.06,0.09-0.13,0.18-0.19,0.22c0.13,0,0.19,0,0.32-0.01
	c0.13,0,0.32-0.05,0.52-0.05c-0.06,0.04-0.13,0.09-0.19,0.18c0,0,0.07,0.13,0.07,0.09c0.13,0,0.26-0.05,0.45-0.05
	c-0.07-0.09-0.2-0.13-0.33-0.21c-0.14-0.26-0.33-0.3-0.65-0.16c0.12-0.44,0.12-0.52,0.64-0.36c0.33,0.12,0.78-0.06,1.11,0.15
	c0.07,0.04,0.26-0.01,0.39-0.01c0.32-0.14,0.65-0.1,0.85,0.02c0.07,0.04,0.2,0.04,0.33,0.04c0,0,0-0.09,0.06-0.13
	c0.13-0.09,0.32-0.18,0.39-0.18c0.2,0.04,0.26,0.17,0.01,0.3c-0.06,0.04,0.4,0.25,0.59,0.16s0.39-0.23,0.65-0.14c0,0,0,0-0.06,0
	c0,0.04,0,0.09,0.07,0.09c0,0,0.07,0,0.13,0c0-0.04-0.07-0.04-0.13-0.08C67.75,2.14,67.94,2.01,68.14,2
	c0.45-0.01,0.97-0.11,1.31,0.23c0.13,0.17,0.45-0.14,0.59,0.12c0.26-0.22,0.52-0.14,0.78-0.1c0.19,0,0.32-0.18,0.58-0.01
	c0.13,0.08,0.39-0.23,0.58-0.01c0,0.04,0.07,0.04,0.13,0.04c0.45-0.05,1.23-0.11,1.69,0.01c0.26,0.08,0.39,0.12,0.65-0.06
	c0.06-0.04,0.39-0.1,0.45-0.05c0.33,0.21,0.59,0.03,0.78-0.06c0.39-0.18,0.38-0.23,0.65-0.01c0.2,0.17,0.4,0.25,0.72,0.11
	c0.27,0.25,0.46,0.08,0.65-0.01c0,0,1.04-0.15,1.1-0.11c0.13,0.08,0.26,0.12,0.46,0.03c0.06-0.04,0.26-0.05,0.32-0.05
	c0.26,0.12,0.46,0.29,0.91,0.15c0.32-0.05,0.65,0.03,1.04,0.02c0.06,0,0.13-0.05,0.19-0.05c0.26-0.05,0.19-0.31,0.51-0.36
	c0.26-0.01,0.4,0.25,0.65,0.07c0.06-0.04,0.19,0,0.26,0.04c0.2,0.04,0.2,0.39,0.59,0.16c0.13-0.05,0.46,0.12,0.72,0.16
	c0.46,0.12,0.97-0.02,1.36-0.12c0.39-0.1,0.65-0.01,0.97-0.07c0.06,0,0.07,0.04,0.13,0.08c-0.06,0-0.13,0.05-0.19,0.05
	c-0.07,0-0.13,0-0.19,0c-0.07,0-0.13,0-0.19,0c0.07,0.04,0.07,0.09,0.13,0.13c0.07,0.04,0.2,0.13,0.33,0.17
	c0.06,0,0.26-0.05,0.32-0.09c0.06-0.09,0-0.17,0.06-0.26C87.25,2.09,87.31,2,87.44,2c0.71-0.06,1.44,0.23,2.21-0.01
	c0.19-0.05-0.19,0.39,0.33,0.17c0.19-0.09,0.32-0.18,0.45-0.27c0.06-0.04,0.26,0.04,0.26,0.04c0.01,0.3,0.21,0.51,0.34,0.77
	c0,0.04-0.06,0.09-0.13,0.18c0,0.04-0.06,0.09-0.06,0.09c0.13,0.08,0.59,0.03,0.71-0.1c0.13-0.13,0.25-0.27-0.07-0.39
	c-0.13-0.04-0.33-0.12-0.33-0.21c-0.07-0.09,0-0.22,0.06-0.3c0.07,0.04,0.2,0.08,0.26,0.12c0.07,0,0.13,0.04,0.19,0
	c0.71-0.19,1.36-0.03,2.08-0.05c0.45-0.01,0.91-0.06,1.36-0.16c0.26-0.05,0.32-0.09,0.39,0.12s0.33,0.17,0.52,0.12
	c0.13-0.05-0.26-0.17,0-0.22c0.13-0.05,0.33,0.04,0.52,0.03c0.32-0.01,0.71-0.15,0.91-0.06c0.33,0.12,0.58-0.06,0.91-0.02
	c0.46,0.03,0.72,0.03,0.91,0.2c0.13,0.08,0.2,0.17,0.33,0.25c0.07,0.04,0.2,0.04,0.26,0.04c0.06-0.04,0.13-0.13,0.06-0.17
	c-0.07-0.09-0.26-0.17-0.01-0.26c0.39-0.1,0.84-0.28,1.17-0.16c0.2,0.08,0.33,0.04,0.45-0.01c0.33-0.01,0.2,0.17,0.2,0.3
	c-0.06,0.04-0.13,0.09-0.26,0.18c0,0,0,0,0-0.04c-0.06,0-0.13,0-0.13,0.05c0,0,0,0.04,0,0.09c0.07,0,0.06-0.04,0.13-0.09
	c0.06-0.09,0.13-0.13,0.26-0.18c0.13,0,0.26,0.04,0.32-0.01c0.58-0.27,0.58-0.27,1.23-0.11c0.2,0.04,0.52,0.2,0.58-0.14
	c0,0,0.26-0.05,0.32-0.01c0.13,0.04,0.2,0.17,0.33,0.25c0.06-0.09,0.12-0.22,0.25-0.27c0.26-0.05,0.58-0.1,0.84-0.11
	c0.39-0.01,0.78,0.16,1.17-0.07l0.07,0c0.33,0.34,0.65,0.2,1.04,0.06c0.06-0.04,0.52-0.1,0.46,0.21c0,0.17,0.33,0.12,0.52,0.12
	c0.19-0.05,0.39-0.18,0.58-0.32c0.07,0,0.19,0,0.2,0.04c0.07,0.13-0.19,0.31,0.14,0.34c0.33,0.04,0.65,0.16,0.97-0.07
	c0.06-0.09,0.19-0.13,0.32-0.18c0.13-0.09,0.32-0.09,0.46-0.01c0.13,0.13,0.33,0.12,0.39,0.03c0.25-0.27,0.58-0.27,0.97-0.32
	c0.45-0.05,0.71-0.15,1.11,0.06c0.13,0.08,0.46,0.08,0.58,0.03c0.52-0.18,0.84-0.11,1.3,0.06c0.07,0.04,0.45-0.01,0.45-0.05
	c0.12-0.39,0.52-0.05,0.71-0.15c0.27,0.25,0.65,0.16,1.04,0.19c0.32-0.01,0.59,0.2,0.98,0.06c0.13-0.05,0.39-0.01,0.59,0.03
	c0.39,0.03,0.85,0.11,1.24,0.06c0.45-0.1,0.72,0.11,1.04,0.06c0.26-0.01,0.52-0.05,0.78-0.15c0.32-0.14,0.77-0.32,1.23-0.07
	c0.13,0.04,0.39-0.1,0.65-0.1c0.26-0.01,0.52-0.01,0.72,0.03c0.2,0.08,0.33,0.12,0.52-0.01c0.06-0.04,0.32-0.05,0.45-0.1
	c0.07,0,0.13,0.04,0.19,0.04c-0.06,0.04-0.13,0.05-0.19,0.09c-0.06,0.04-0.13,0.13-0.26,0.18c0.07,0.04,0.13,0.08,0.2,0.08
	c0.59,0.03,1.17,0.1,1.69-0.21c0.26,0.12,0.52,0.2,0.85,0.15c0.07,0,0.13-0.09,0.19-0.13c0.46,0.34,0.85,0.07,1.36-0.12
	c0,0.04-0.13,0.09-0.13,0.09c0.07,0.13,0.13,0.21,0.2,0.34c0.06-0.04,0.13-0.05,0.13-0.09c0-0.09-0.07-0.21-0.2-0.34
	c0.64-0.23,0.64-0.23,1.17-0.11c0.07,0,0.13,0.08,0.13,0.04c0.58-0.19,1.24,0.02,1.75-0.08c0.26-0.05,0.33,0.04,0.46,0.03
	c0.52,0.07,1.04,0.02,1.49-0.25c0.26-0.14,0.45-0.14,0.65,0.03c0.07,0.04,0.07,0.13,0.07,0.17c0.06-0.04,0.06-0.13,0.13-0.18
	c0.13-0.13,0.32-0.14,0.39-0.01c0.07,0.09,0.13,0.26,0.14,0.34c0,0.13,0.07,0.17,0.2,0.08c0.06-0.04,0.13-0.13,0.13-0.18
	c0-0.04-0.07-0.09-0.13-0.08c-0.07-0.04-0.07-0.09-0.13-0.17c0.07,0,0.19,0,0.26-0.01c0.26-0.01,0.39,0.12,0.46,0.34c0,0,0,0,0-0.04
	c-0.06,0-0.13,0-0.13,0.05c0,0,0,0.04,0,0.09c0.07,0,0.06-0.04,0.13-0.09c0.13-0.13,0.25-0.27,0.38-0.27
	c0.26-0.05,0.53,0.29,0.85,0.02c0.19-0.13,0.51-0.18,0.78-0.19c0.32-0.01,0.65-0.01,0.98,0.11c0.26,0.08,0.78,0.16,0.91,0.02
	c0.51-0.27,0.97-0.11,1.43-0.12c0.07,0,0.26,0.08,0.26,0.12c0,0.17,0.2,0.17,0.33,0.12c0.39-0.18,0.84-0.24,1.3-0.2
	c0.2,0,0.45-0.1,0.65-0.1c0.19,0,0.46-0.01,0.59,0.07c0.26,0.17,0.39-0.14,0.58-0.06c0.13,0.04,0.52,0.12,0.52-0.18
	c0,0,0.32-0.05,0.45-0.05c0.98,0.06,1.88-0.04,2.86-0.06c0.07,0,0.13,0.04,0.2,0.04c0.33,0.08,0.65,0.16,0.91-0.06
	c0.19-0.18,0.45-0.1,0.65-0.1c0.26,0.04,0.46,0.08,0.65,0.07c0.32-0.01,0.58-0.01,0.91-0.02c0.26-0.01,0.52,0.03,0.85,0.02
	c0.26-0.01,0.58-0.1,0.71-0.06c0.26,0.17,0.39,0.03,0.58-0.01c0.39-0.14,0.46,0.29,0.91,0.11c0.19-0.09,0.65-0.1,0.84-0.02
	c0.26,0.08,0.33,0.08,0.52-0.01c0.32-0.14,0.71-0.23,1.1-0.2c0.26,0.04,0.59,0.07,0.91-0.02c0.19-0.05,0.59,0.07,0.85,0.15
	c0.07,0.04,0.2,0.17,0.26,0.04c0.12-0.35,0.71,0.03,0.77-0.28c0.27,0.34,0.65-0.06,0.97,0.02c0.33,0.08,0.71-0.1,1.04,0.06
	c0.33,0.17,0.71-0.19,1.11,0.02c0.07,0.04,0.39-0.05,0.65-0.1c0.19-0.05,0.45-0.14,0.52-0.1c0.4,0.25,0.85,0.15,1.24,0.19
	c0.2,0.04,0.59,0.12,0.58-0.19l0.06-0.04c0.59,0.12,1.23-0.16,1.75-0.04c0.33,0.08,0.58-0.01,0.85,0.02s0.39,0.16,0.78,0.07
	c0.26-0.05,0.58-0.14,0.91-0.19c0.07,0,0.13-0.05,0.19-0.05c0.39,0.12,0.91,0.02,1.24,0.1c0.39,0.08,0.65-0.06,0.97,0.02
	c0.33,0.08,0.65,0.07,1.04,0.06c0.07,0,0.19-0.09,0.26-0.14c0.06-0.04,0.26-0.14,0.32-0.09c0.59,0.25,1.24,0.28,1.89,0.09
	c0.13-0.05,0.39,0.16,0.59,0.12s0.32-0.14,0.52-0.01c0.13,0.04,0.45-0.05,0.52,0.03c0.2,0.13,0.46,0.12,0.65,0.12
	c0.71-0.15,1.5-0.03,2.21-0.01c0.13,0,0.26-0.05,0.39-0.1c0.91-0.15,1.75-0.17,2.67,0.03c0.2,0.04,0.45-0.05,0.58,0.03
	c0.2,0.13,0.46,0.12,0.65,0.12c0.2,0,0.39-0.14,0.59,0.03c0,0,0.13,0,0.19,0c0.58-0.32,1.23-0.16,1.82-0.17
	c0.39-0.01,0.84-0.06,1.3-0.07c0.46-0.01,0.85,0.15,1.3-0.07c0.13-0.09,0.46,0.03,0.72,0.03c0.52,0.03,0.98,0.02,1.49-0.03
	c0.52-0.05,1.1-0.24,1.69,0.05c0.2,0.08,0.72,0.16,1.04-0.07c0.59,0.16,1.23-0.2,1.76,0.05c0.13,0.08,0.46,0.08,0.65-0.06
	c0.26-0.09,0.32-0.01,0.33,0.17c0.01,0.26,0.07,0.3,0.39,0.16c0.13-0.05,0.26-0.14,0.39-0.18l0.52,0.03c0.26-0.05,0.52-0.1,0.78-0.1
	c0.2,0,0.39,0.12,0.59,0.07c0.45-0.1,0.78-0.02,1.05,0.24c0.07,0.04,0.26,0.04,0.39,0.08c0,0,0,0-0.07,0c0,0.04,0,0.09,0.07,0.09
	c0,0,0.07,0,0.13,0c0-0.04-0.07-0.04-0.13-0.08c-0.07-0.09,0-0.13,0-0.22c0.07,0,0.13,0,0.2,0.04l0.07,0.04
	c0.9-0.32,1.82-0.17,2.73-0.15c0.07,0,0.19,0,0.26-0.05c0.32-0.14,0.2,0.04,0.2,0.13c0,0.04,0.07,0.09,0.13,0.08
	c0.39-0.1,0.78-0.19,1.04,0.06c0.32-0.14,0.71-0.06,1.04-0.15c0.19-0.05,0.32-0.09,0.52,0.03c0.07,0.04,0.26,0.04,0.39,0.08
	c0.72,0.11,1.49-0.08,2.15,0.21c0.07,0.04,0.39-0.23,0.46,0.08c-0.06,0-0.13,0.05-0.19,0.05c0.07,0.04,0.13,0.08,0.13,0.08
	c0.14,0.26,0.59,0.16,0.79,0.37c0.2,0.21,0.46,0.34,0.47,0.55c0.01,0.22,0.46,0.42,0.01,0.65c-0.19,0.09,0.33,0.25,0.01,0.39
	c-0.32,0.14,0,0.26,0.01,0.39c-0.06,0.39-0.05,0.82-0.17,1.22c-0.06,0.26-0.58,0.36-0.57,0.66c0,0.04-0.27-0.3-0.32,0.01
	c0,0.09,0.07,0.21,0.14,0.3c0.07,0.17,0.01,0.26-0.32,0.22c-0.13,0-0.32,0.05-0.32,0.09c0.07,0.3-0.25,0.31-0.58,0.27
	c-0.26,0.01-0.52-0.12-0.78,0.06c-0.06,0.04-0.26,0.01-0.33-0.04c-0.26-0.12-0.52-0.16-0.85-0.02c-0.26,0.09-0.45,0.1-0.65-0.03
	l-0.13-0.04c-0.13,0.13-0.26,0.22-0.45,0.36c-0.2-0.08-0.33-0.3-0.53-0.29c-0.26,0.01-0.45,0.23-0.65-0.03
	c-0.38,0.23-0.85-0.02-1.23,0.07c-0.58,0.1-0.97,0.07-1.37-0.19c-0.07-0.04-0.26-0.08-0.39-0.03c-0.45,0.1-0.91,0.15-1.23,0.33
	c-0.32,0.14-0.39,0.01-0.59-0.03c-0.46-0.12-1.04-0.19-1.56-0.14c-0.26,0.01-0.52,0.05-0.78,0.06c-0.26,0.01-0.59-0.12-0.84,0.11
	c-0.2-0.17-0.39-0.21-0.65-0.03c0,0-0.13,0-0.19,0c-0.39-0.03-0.72-0.33-1.17-0.1c-0.32,0.14-0.78-0.07-1.17,0.11
	c-0.13,0.05-0.39,0.01-0.59-0.03c-0.39-0.03-0.85-0.15-1.1-0.02c-0.39,0.18-0.65-0.2-1.04-0.02c-0.19,0.13-0.71,0.02-1.1,0.02
	c-0.26,0.01-0.46-0.08-0.65-0.07c-0.07,0-0.2-0.04-0.2-0.04c-0.51,0.23-1.1,0.15-1.62,0.12c-0.26,0.01-0.65,0.14-0.71,0.06
	c-0.26-0.21-0.52,0.05-0.78-0.03c-0.26-0.04-0.52,0.01-0.78,0.06c-0.32,0.05-0.78,0.06-1.11-0.06c-0.65-0.2-1.3-0.19-2.02-0.08
	c-0.58,0.06-1.17-0.06-1.76-0.05c-0.46-0.03-0.91-0.11-1.36,0.07c-0.32,0.14-0.59-0.2-0.98-0.06c-0.19,0.09-0.65,0.1-0.98-0.11
	c-0.07-0.04-0.26,0.01-0.39,0.05c-0.39,0.1-0.78,0.15-1.17,0.11c-0.39-0.03-0.78-0.2-1.17,0.07c-0.2-0.26-0.72-0.03-0.98-0.28
	l-0.13,0c-0.38,0.23-0.84,0.15-1.36,0.16c-0.26,0.01-0.45,0.23-0.65-0.03c0,0-0.07-0.04-0.07,0c-0.51,0.23-1.1-0.02-1.69,0.08
	c-0.19,0.05-0.39,0.1-0.58,0.06c-0.32-0.04-0.65,0.06-0.98-0.11c-0.13-0.04-0.52,0.18-0.71,0.19c-0.33,0.01-0.72-0.07-1.04-0.11
	c-0.46-0.03-0.91-0.07-1.37-0.1c-0.06,0-0.19,0.09-0.26,0.09c-0.46,0.01-0.85-0.02-1.3,0.07c-0.39,0.1-0.85-0.11-1.3,0.03
	c-0.07,0-0.2-0.13-0.33-0.17c-0.2-0.13-0.33-0.12-0.45,0.05c0,0.04-0.19,0.09-0.32,0.09c-0.39,0.05-0.85-0.2-1.3,0.07
	c-0.33-0.25-0.65-0.2-1.04-0.06c-0.4-0.34-0.72-0.07-1.04,0.11c-0.2-0.13-0.32,0.22-0.59,0.01c-0.13-0.08-0.52-0.03-0.65-0.12
	c-0.2-0.13-0.33-0.17-0.32,0.05l-0.06,0.04c-0.2,0-0.39,0.01-0.59-0.03s-0.39-0.16-0.46-0.12c-0.19,0.09-0.32,0.09-0.52-0.03
	c-0.13-0.13-0.52-0.12-0.07-0.3c0.07,0,0.06-0.09,0.13-0.13c-0.07,0-0.2-0.04-0.2-0.04c-0.19,0.13-0.45,0.05-0.64,0.27
	c-0.25,0.31-0.84,0.15-1.16,0.33c-0.01-0.26-0.33-0.25-0.59-0.33c-0.39-0.08-0.71,0.02-0.97,0.28c-0.06,0.04-0.13,0.09-0.19,0.09
	c-0.06,0-0.26,0.01-0.32,0.01c-0.46-0.21-0.98-0.06-1.43,0.03c-0.13,0.05-0.39,0.05-0.46-0.03c-0.33-0.21-0.85-0.2-1.11-0.15
	c-0.32,0.05-0.59-0.03-0.71,0.02c-0.26,0.09-0.52,0.01-0.78,0.02c-0.32,0.01-0.33-0.08-0.07-0.21c-0.07-0.04-0.13-0.08-0.2-0.08
	c-0.39-0.08-0.78,0.02-1.1,0.2c-0.06,0.04-0.06,0.13-0.06,0.13c0.07,0.04,0.2,0.04,0.26,0.08c-0.06,0.04-0.19,0.05-0.26,0.09
	c-0.26,0.14-0.45,0.18-0.71,0.06c-0.33-0.17-0.85-0.2-1.17-0.1c-0.51,0.18-0.65,0.01-0.91-0.15c-0.07-0.09-0.26-0.12-0.39-0.16
	c-0.07,0-0.13,0.05-0.19,0.05c-0.26,0.18-0.58,0.36-0.97,0.37c-0.19,0-0.39-0.03-0.58,0.01c-0.2,0-0.39-0.03-0.59-0.03
	c-0.2,0-0.39,0.18-0.52-0.03l-0.07,0c-0.13,0.09-0.32,0.18-0.45,0.27c-0.07-0.09-0.2-0.21-0.27-0.3c0,0-0.13,0-0.19,0
	c-0.32,0.14-1.1,0.33-1.23,0.33c-0.26,0.01-0.39-0.12-0.46-0.29c-0.07-0.09,0-0.17-0.01-0.26c-0.07-0.09-0.2-0.13-0.26-0.17
	c-0.06,0.09-0.06,0.17-0.12,0.26c0,0.04,0,0.09,0,0.13c-0.13,0.05-0.26,0.09-0.39,0.18c-0.07,0-0.13,0.05-0.19,0.05
	c-0.26-0.08-0.65-0.16-0.85-0.11c0-0.04,0-0.09,0.12-0.26c0.06-0.09,0,0-0.06,0.09c0,0,0.07,0.04,0.07,0.09
	c0.13-0.09,0.19-0.13,0.32-0.22c-0.07,0-0.13-0.04-0.32,0.05c-0.13,0.18-0.19,0.18-0.26,0.18c0.07,0.04,0.13,0.08,0.13,0.08
	c0,0.13-0.06,0.39-0.38,0.23c-0.2-0.08-0.71,0.1-0.66-0.29c0.06-0.04,0.13-0.09,0.26-0.18c-0.33-0.08-0.59-0.16-0.92-0.28
	c0,0.04,0,0.04,0,0.09c-0.06,0.26-0.06,0.3-0.32,0.18c-0.39-0.16-0.71,0.02-0.97,0.11c-0.32,0.14-0.32,0.18-0.65,0.1
	c-0.07,0-0.13,0-0.2,0c-0.19,0-0.39,0.01-0.59-0.03s-0.46-0.08-0.59-0.16c-0.2-0.17-0.32,0.05-0.52,0.05
	c-0.26,0.05-0.46-0.25-0.52-0.12c-0.06,0.22-0.32,0.14-0.45,0.23c-0.26,0.14-0.26,0.05-0.26-0.08c0-0.04-0.13-0.04-0.2-0.08
	c0.01,0.39-0.52,0.14-0.77,0.28c-0.26,0.18-0.46-0.16-0.72-0.2c-0.07,0-0.07-0.13-0.07-0.17c-0.06,0.04-0.06,0.09-0.13,0.13
	c-0.13,0.13-0.25,0.31-0.58,0.1c0-0.04-0.26,0.01-0.26,0.05c-0.12,0.35-0.58,0.23-0.65,0.1c-0.14-0.26-0.52-0.12-0.78-0.2
	c-0.33-0.08-0.59-0.07-0.46-0.38c0,0-0.07-0.04-0.13-0.08c-0.06,0.04-0.06,0.09-0.13,0.09c-0.25,0.44-0.25,0.44-0.97,0.24
	c-0.2-0.04-0.26-0.04-0.39,0.14c-0.12,0.26-0.25,0.31-0.58,0.19c-0.2-0.08-0.33-0.17-0.46-0.21c-0.07-0.04-0.26-0.04-0.26-0.04
	c-0.45,0.4-0.52-0.03-0.72-0.16c-0.2-0.08-0.39-0.12-0.59-0.16c-0.06,0-0.13,0.05-0.19,0.05c-0.06,0.09-0.19,0.18-0.25,0.27
	c-0.25,0.35-0.38,0.35-0.84,0.06c-0.26-0.17-0.4-0.47-0.92-0.41c-0.32,0.01-0.13-0.08,0-0.17l-0.07-0.09c-0.07,0-0.13-0.04-0.19,0
	c-0.07,0-0.06,0.04-0.13,0.09c-0.06,0.13,0.07,0.34-0.19,0.39c-0.13,0.05-0.33-0.08-0.52-0.12c-0.07,0-0.13,0.05-0.13,0.09
	c-0.19,0.26-0.32,0.35-0.58,0.19c-0.26-0.12-0.72-0.07-0.73-0.42c0-0.22-0.33-0.12-0.39,0.01c-0.13,0.18-0.25,0.31-0.58,0.23
	c-0.07,0-0.07-0.09-0.07-0.13c0.13-0.09,0.19-0.13-0.07-0.17c-0.07,0-0.19,0.05-0.19,0.09c0,0.13-0.19,0.26,0.14,0.34
	c0.07,0,0.13,0.13,0.2,0.17c-0.13,0.05-0.26,0.09-0.32,0.09c-0.52,0.01-0.72-0.2-0.86-0.46c0-0.04-0.07-0.09-0.07-0.13
	c-0.06,0.04-0.13,0.09-0.13,0.13c-0.06,0.09,0,0.17-0.06,0.26c0,0.04-0.13,0.13-0.19,0.09c-0.33-0.04-0.78,0.06-1.04-0.15
	c-0.13-0.08-1.24-0.1-1.37-0.14c-0.39-0.03-0.19,0.44-0.71,0.28c-0.2-0.08-0.52,0.01-0.78,0.06c-0.58,0.1-1.17,0.07-1.75,0.08
	c-0.19,0-0.46-0.03-0.45,0.18c0,0-0.26,0.05-0.32,0.05c-0.27-0.25-0.46-0.08-0.65,0.01c-0.06,0.04-0.32,0.09-0.32,0.09
	c-0.27-0.25-0.52-0.12-0.71,0.02c-0.06,0.04-0.13,0-0.19,0c0-0.09,0-0.13,0.12-0.26c0-0.04,0,0-0.07,0c0,0.04,0.07,0.04,0.07,0.09
	c0.06-0.04,0.06-0.04,0.13-0.09c0,0-0.07-0.04-0.13,0c-0.39,0.1-0.65,0.14-0.97,0.15c-0.32,0.01-0.33-0.04-0.07-0.26
	c0.13,0,0.39,0.08,0.52-0.18c0-0.04,0,0-0.07,0c0,0.04,0.07,0.04,0.07,0.09c0.06-0.04,0.06-0.04,0.13-0.09c0,0-0.06-0.04-0.13,0
	c-0.26,0.09-0.46-0.03-0.52,0.18c-0.19,0.05-0.2-0.26-0.46-0.08c-0.19,0.18-0.45,0.18-0.71,0.15c-0.33-0.04-0.52-0.03-0.51,0.27
	c0,0.17-0.52,0.18-0.58,0.01c-0.14-0.39-0.4-0.21-0.65-0.12c-0.19,0.05-0.39,0.1-0.52,0.18c-0.19,0.09-0.32,0.18-0.33-0.08
	c0-0.04-0.2-0.08-0.33-0.12c-0.39-0.21-1.04-0.19-1.06-0.67c0-0.04-0.2-0.04-0.26-0.08c-0.06,0-0.13,0-0.19,0
	c0,0.04-0.06,0.09,0,0.13c0.2,0.21,0.4,0.38,0.53,0.59c0.07,0.04-0.06,0.13-0.06,0.22c-0.13-0.04-0.2-0.08-0.33-0.17
	c-0.07-0.04-0.13-0.08-0.46-0.25c-0.2-0.04-0.06,0.04,0.07,0.09c0.07,0,0.13-0.05,0.19-0.05c-0.13-0.13-0.2-0.21-0.33-0.34
	c-0.06,0.04-0.13,0.09,0.01,0.26c0.33,0.17,0.39,0.21,0.46,0.25c-0.06,0.04-0.13,0.13-0.19,0.13c-0.65-0.03-1.3-0.06-1.95-0.09
	c-0.13,0-0.26-0.08-0.39-0.12c-0.2-0.04-0.52-0.07-0.65,0.06c-0.19,0.22-0.38,0.31-0.77,0.23c-0.26-0.04-0.58,0.32-0.72-0.11
	c0-0.09-0.46-0.16-0.78-0.2c-0.26-0.04-0.19,0.13-0.19,0.26c-0.13,0.18-0.13,0.18-0.33-0.08c0-0.04,0,0-0.07,0
	c0,0.04,0.07,0.04,0.07,0.09c0.06-0.04,0.06-0.04,0.13-0.09c0,0-0.07-0.04-0.13,0c-0.32,0.18-0.58,0.19-0.65-0.03
	c-0.07-0.09,0-0.17-0.01-0.26c0,0-0.2-0.04-0.19,0c-0.06,0.04-0.06,0.13-0.13,0.18c-0.07-0.04-0.07-0.09-0.13-0.13
	c0-0.17-0.26-0.12-0.39-0.12c-0.07,0-0.26,0.09-0.26,0.14c0.07,0.21-0.25,0.22-0.45,0.27c-0.06,0-0.13,0-0.19,0
	c-0.08-0.56-0.52-0.03-0.78-0.07c-0.2-0.04-0.38,0.27-0.71,0.19c-0.26-0.04-0.45,0.01-0.4-0.25c0-0.09-0.07-0.21-0.2-0.3
	c-0.13-0.08-0.33-0.12-0.39,0.05c0.01,0.26-0.12,0.35-0.51,0.27c-0.26-0.04-0.52,0.01-0.72-0.07c-0.26-0.12-0.33-0.12-0.32,0.09
	c-0.07,0-0.13,0-0.2-0.04c-0.13,0-0.33-0.08-0.33-0.04c-0.58,0.4-1.23,0.07-1.82,0.13c-0.26,0.01,0.12-0.44-0.33-0.17
	c-0.32,0.18-0.58,0.23-0.84,0.02C83,6.65,82.67,6.66,82.94,6.87c-0.06,0.04-0.13,0.09-0.19,0.09c-0.32,0.01-0.72-0.03-1.11-0.11
	c-0.07,0,0,0,0,0.04c0.07,0,0.06-0.04,0.13-0.05c-0.07-0.04-0.07-0.04-0.13-0.08c0,0-0.06,0.04,0,0.09c0.07,0.13,0,0.22,0.01,0.3
	c-0.13-0.04-0.33-0.04-0.33-0.08c-0.07-0.26-0.4-0.29-0.66-0.37c-0.26-0.04-0.46-0.03-0.58,0.19c-0.19,0.31-0.25,0.31-0.84,0.28
	c-0.19,0-0.39-0.03-0.59-0.03c-0.06,0-0.13-0.04-0.13-0.08c0.06,0,0.19-0.05,0.26-0.05c0.06-0.04,0.13-0.13,0.19-0.18
	c-0.13-0.04-0.26-0.08-0.33-0.04C78.26,6.84,78,7.02,78.07,7.32c0,0.04-0.06,0.09-0.13,0.09c0-0.04-0.07-0.09-0.07-0.09
	c0-0.04,0-0.09,0-0.13c0-0.17-0.01-0.3-0.01-0.48c-0.26,0.05-0.58,0.01-0.84,0.11c-0.32,0.14-0.51,0.27-0.91,0.19
	c-0.2-0.04-0.52,0.05-0.46-0.25c0,0-0.46-0.12-0.65-0.07c-0.26,0.09-0.45,0.18-0.65-0.03c0,0-0.19,0-0.26,0.05
	c-0.06,0.04-0.13,0.13-0.19,0.22C73.57,6.69,73.26,7.08,73.06,7c-0.33-0.17-0.65-0.07-0.98-0.15c-0.06,0-0.07-0.13-0.07-0.17
	c-0.07-0.17-0.26-0.08-0.92-0.24c-0.46-0.12-0.39-0.08-0.33-0.04c0.2,0.04,0.39,0.03,0.59,0.07c0.06,0,0.07,0.21,0.26,0.04
	c0.06-0.04,0-0.13-0.07-0.17c-0.27-0.25-0.72-0.24-0.45,0.14c0.52,0.2,0.59,0.29,0.66,0.33c-0.13,0-0.26,0.05-0.39,0.05
	c-0.26-0.08-0.53-0.25-0.84,0.02c-0.06,0.09-0.13,0.13-0.19,0.22c0-0.09-0.07-0.17-0.07-0.26c0.06-0.35-0.45,0.1-0.46-0.16
	c-0.13,0.05-0.39,0.05-0.26,0.22c0.13,0.21-0.26,0.22-0.19,0.39c-0.07,0-0.19,0-0.26,0.05c0-0.04,0-0.13,0-0.13
	c0.19-0.13,0-0.09-0.13-0.13c-0.2-0.08-0.52-0.16-0.14-0.34c-0.07-0.09-0.2-0.13-0.26-0.21c-0.06,0.04-0.06,0.09-0.13,0.13
	c-0.06,0.04-0.19,0.05-0.19,0.05c-0.13-0.17-0.46-0.08-0.65-0.12c0-0.09,0-0.17,0.06-0.26c0.39-0.01,0.19-0.22,0.25-0.35l-0.13-0.04
	C67.58,6,67.45,6.09,67.26,6.18c-0.06,0-0.13,0-0.33-0.04c-0.07,0,0,0,0,0.04c0.06,0,0.06-0.04,0.13-0.05
	c-0.07-0.04-0.07-0.04-0.13-0.08c0,0-0.06,0.04,0,0.09c0.13,0.08,0.2,0.13,0.26,0.21c0.13,0.08,0.26,0.21,0.4,0.29
	C67.4,7,67.4,7,66.88,6.97c-0.06,0-0.13-0.04-0.13-0.04c-0.32,0.05-0.65,0.06-0.91,0.06c-0.39-0.03-0.72-0.29-1.1,0.02
	c-0.19,0.13-0.65,0.06-0.85-0.15c-0.07-0.09-0.26-0.08-0.39-0.12c0,0.09,0.13,0.17,0.07,0.17C63.44,7,63.31,7.05,63.18,7.09
	c-0.07-0.09-0.13-0.17-0.07-0.34c0-0.04,0,0-0.07,0c0,0.04,0.07,0.04,0.07,0.09c0.06-0.04,0.06-0.04,0.13-0.09c0,0-0.07-0.04-0.13,0
	c-0.13,0.13-0.26,0.18-0.26,0.22c0,0.17,0.26,0.08,0.39,0.12c0,0.09,0,0.13-0.06,0.22c-0.06,0-0.13,0-0.2-0.04
	c-0.13-0.04-0.33-0.04-0.46-0.08c-0.26-0.08,0.13-0.13,0.06-0.22c-0.13-0.13-0.52-0.07-0.58,0.1c-0.06,0.17-0.12,0.26-0.38,0.23
	c-0.2-0.04-0.39-0.03-0.59-0.03c-0.19,0-0.26-0.08-0.26-0.21c-0.07-0.13-0.2-0.08-0.19,0.05c-0.06,0.17-0.19,0.13-0.39,0.1
	c-0.39-0.16-0.79-0.29-1.24-0.32c-0.06,0-0.13-0.08-0.2-0.13c-0.33-0.25-0.59-0.29-0.91-0.07c-0.13,0.05-0.19,0.13-0.26,0.22
	c-0.07-0.09-0.07-0.17-0.14-0.26l-0.07-0.04c-0.07-0.09-0.13-0.17-0.26-0.04C57.06,6.62,56.86,6.63,57,6.75c0.07,0.04,0,0.17,0,0.22
	c-0.13,0-0.26,0.01-0.33-0.04c-0.26-0.12-0.46-0.25-0.91-0.07c-0.39,0.14-0.97,0.11-1.43-0.1c-0.33-0.12-0.59-0.25-0.98-0.24
	s-0.39,0.01-0.32,0.27c0,0.04,0.07,0.09,0.07,0.13c0,0.09-0.06,0.17-0.12,0.26c-0.13-0.04-0.26-0.04-0.33-0.08
	c-0.2-0.08-0.27-0.34-0.52-0.16c-0.39,0.18-0.46-0.03-0.65-0.16c-0.07-0.09-0.07-0.21-0.14-0.34c-0.13,0.13-0.25,0.27-0.45,0.36
	s0,0.13,0,0.22c0.07,0.17,0.07,0.3-0.19,0.39c-0.06,0-0.13,0-0.19,0c0.06-0.3-0.33-0.25-0.53-0.25c-0.39,0.01-0.66-0.29-1.04-0.11
	c0,0-0.13-0.04-0.2-0.08c0,0.09,0,0.22,0.07,0.21c0.39,0.03,0.33,0.12,0.07,0.21c-0.26,0.09-0.52,0.18-0.53-0.25
	c0-0.04-0.06,0-0.06,0.04s0,0.09,0,0.13c0.06-0.04,0.19-0.05,0.19-0.09c0-0.04,0-0.13-0.13-0.08c-0.26,0.14-0.58,0.01-0.65,0.06
	c-0.26,0.14-0.46-0.08-0.59-0.07c-0.19,0.05-0.39,0.18-0.58,0.32c0,0-0.13-0.04-0.2-0.04c-0.13-0.04-0.2-0.13,0-0.17
	c0.13-0.05,0.26-0.05,0.32-0.09c0.06,0,0.13-0.05,0.13-0.05c-0.07-0.04-0.13-0.08-0.13-0.08c-0.32,0.05-0.79-0.24-0.91,0.15
	c-0.32,0.05-0.65,0.06-0.9,0.24c0,0-0.13-0.04-0.2-0.08c-0.2-0.26-0.59-0.2-0.91-0.2c-0.19,0-0.45,0.14-0.65-0.03
	c0,0-0.13,0.05-0.19,0.09c0.26,0.21,0.01,0.26-0.19,0.13c-0.2-0.08-0.33-0.12-0.52-0.16c-0.19,0-0.39-0.03-0.45,0.18
	c0,0.09-0.39,0.1-0.39-0.03c0-0.22-0.2-0.21-0.39-0.21c-0.39,0.05-0.84,0.02-1.1,0.2c-0.39,0.18-0.58,0.1-0.85-0.02
	c-0.2-0.08-0.39-0.16-0.59-0.25c-0.06,0-0.19,0-0.19,0c-0.06,0.3-0.32,0.14-0.52,0.14c-0.26,0.01-0.45,0.01-0.19,0.18l-0.13,0.09
	c-0.2-0.08-0.59-0.03-0.65-0.12c-0.53-0.46-1.11-0.11-1.69-0.05c-0.13,0-0.19,0.13-0.32,0.14c-0.13,0-0.45,0.1-0.46-0.16
	c0-0.09-0.13-0.21-0.27-0.25c-0.07-0.04-0.26,0.01-0.32,0.05c-0.06,0-0.13,0.09-0.19,0.13c0.06,0,0.2,0.04,0.26,0.04
	c0.07,0.04,0.2,0.04,0.26,0.08c-0.06,0.04-0.13,0.09-0.19,0.09c-0.39,0.01-0.78-0.11-1.17,0.07c0,0-0.13,0-0.2-0.04
	c0-0.04,0.06-0.09,0.13-0.13c0.06-0.09,0.26-0.18,0.32-0.27c0.06-0.09,0-0.22-0.07-0.26c-0.07-0.04-0.26-0.08-0.39-0.03
	c-0.26,0.05,0,0.13,0,0.17c0,0.22-0.38,0.44-0.7,0.45c-0.26,0.01-0.52,0.01-0.85-0.02c-0.39-0.03-0.72-0.33-1.11-0.15
	c-0.39,0.18-0.78-0.07-1.17,0.11c-0.13,0.05-0.52-0.16-0.65-0.07c-0.39,0.18-0.33-0.08-0.52-0.12c-0.07-0.04-0.2-0.08-0.26-0.08
	c-0.26,0.14-0.52,0.18-0.71,0.06C26.19,6.97,26,7.14,25.74,7.11c-0.2-0.04-0.52,0.01-0.71,0.1c-0.26,0.14-0.45,0.14-0.71,0.02
	c-0.07-0.04-0.19,0.05-0.32,0.05c-0.78,0.1-1.55,0.34-2.4,0.31c-0.26,0.01-0.52,0.18-0.71,0.32C20.75,8,20.63,8.13,20.5,8.22
	c-0.2-0.39-0.58,0.1-0.91-0.11c-0.26-0.17-0.72-0.16-1.11-0.02c-0.39,0.14-0.52,0.14-0.91-0.07c-0.26-0.12-0.39-0.16-0.45,0.1
	c-0.06,0.13-0.26,0.09-0.39,0.01C16.4,7.92,16,7.76,15.49,7.99c-0.33-0.21-0.58,0.06-0.91,0.06c-0.45,0.01-0.9,0.24-1.37-0.01
	c-0.2-0.08-0.65,0.01-0.91,0.06c-0.32,0.09-0.46-0.29-0.91-0.07C11.2,8.12,10.81,8,10.49,8.01C9.12,8,7.88,7.64,6.51,7.67
	C6.06,7.68,5.67,7.6,5.21,7.7C4.76,7.79,4.23,7.5,3.78,7.42C3.65,7.38,3.51,7.34,3.39,7.35C3.13,7.35,2.87,7.57,2.6,7.32
	C2.47,7.19,2.08,7.2,1.82,7.17c-0.85-0.15-0.99-0.71-1.58-1c-0.07-0.04,0-0.13,0-0.22c0-0.13,0.32-0.22,0.06-0.39
	C0.22,5.47,0.35,5.29,0.35,5.16c0-0.17-0.07-0.34-0.14-0.52C0.47,4.9,0.34,4.77,0.27,4.6C0.2,4.47-0.51,4.53,0,4.22
	c0.13-0.05,0.06-0.26-0.01-0.39c-0.13-0.21-0.07-0.34,0.18-0.48C0.3,3.3,0.49,2.74,0.42,2.61C0.28,2.13,0.28,2.13,1.05,1.94
	c0.39-0.1,0.77-0.28,1.09-0.5c0.19-0.13,0.32-0.22,0.64-0.23c0.33,0.04,0.65,0.12,0.97-0.07C3.83,1.1,4.03,1.14,4.16,1.18
	c0.26,0.08,0.46,0.21,0.72,0.29c0.2,0.04,0.52,0.16,0.65,0.12C5.98,1.44,6.05,1.7,6.25,1.74c0.13,0.04,0.84-0.06,1.1-0.15
	c0.26-0.14,0.52-0.14,0.78-0.1c0.59,0.07,0.85,0.07,1.56-0.03c0.19,0,0.39-0.01,0.52,0.03c0.66,0.29,1.38,0.49,2.09,0.43
	c0.45-0.01,0.84-0.11,1.3-0.07c0.39,0.03,0.84-0.02,1.3-0.07c0.13,0,0.26-0.01,0.32-0.09c0.32-0.27,1.04-0.15,1.29-0.55
	c0-0.04,0.13-0.09,0.19-0.05c0.2,0.08,0.27,0.3,0.59,0.12c0.06-0.04,0.46,0.08,0.59,0.2c0.2,0.17,0.52,0.07,0.72,0.16
	c0.2,0.04,0.39,0.16,0.53,0.25c0.2,0.08,0.46,0.12,0.65-0.01c0.19-0.13,0.39-0.18,0.65-0.14c0.26,0.04,0.46,0.16,0.72,0.16
	c0.19,0,0.45-0.1,0.65-0.1c0.19,0,0.46,0.03,0.65,0.12c0.2,0.08,0.26,0.04,0.45-0.01c0.13-0.05,0.32-0.05,0.39-0.01
	c0.46,0.21,1.11,0.15,1.57,0.35c0.26,0.12,0.59,0.07,0.85,0.02c0.19-0.05,0.39-0.23,0.58-0.23c0.19,0,0.39,0.12,0.59,0.16
	c0.19,0,0.32-0.09,0.52-0.18c0.19-0.09,0.19,0,0.2,0.08c0,0.13,0.07,0.17,0.2,0.04c0.06-0.09,0-0.13,0.26-0.09
	c0.72,0.11,1.43,0.14,2.21,0.12c0.19,0,0.32-0.05,0.52,0.07c0.2,0.17,0.46,0.29,0.78,0.11c0.19-0.09,0.26,0.21,0.46,0.03
	c0.06-0.09,0.26,0.21,0.45-0.01c0.53,0.29,1.04,0.11,1.56,0.05c0.19,0,0.51-0.23,0.46,0.12c0.46,0.16,0.85,0.37,1.31,0.53
	c0.07,0,0.19-0.05,0.26-0.05c0-0.04,0-0.13-0.07-0.17C35.46,2.86,35.51,2.3,35,2.44c0-0.04,0-0.09,0.06-0.13
	c0.13-0.18,0.32-0.01,0.45-0.01c0.13,0,0.26-0.14,0.38-0.23c0.07,0.04,0.13,0.08,0.07,0.09c0,0.04-0.06,0.13-0.13,0.18
	c-0.06,0.09-0.06,0.17-0.13,0.22c0.13,0,0.26,0.04,0.32-0.01c0.32-0.05,0.65-0.06,0.84-0.32c0.46,0.03,0.85,0.07,1.3,0.14
	c0.06,0,0.13,0.08,0.13,0.08c0.26-0.01,0.58-0.14,0.71-0.06c0.07,0.09,0.33,0.08,0.59,0.07c0.26-0.01,0.32-0.35,0.77-0.23
	c0.2,0.04,0.45-0.1,0.71-0.15c0.06,0,0.13,0,0.19,0c0,0.04,0,0.09,0,0.13c-0.06,0.04-0.06,0.13-0.13,0.18c0.06,0,0.19,0,0.26-0.01
	c0.26-0.18,0.58-0.01,0.91-0.06c0,0,0,0-0.06,0c0,0.04,0,0.09,0.07,0.09c0,0,0.06,0,0.13,0c0-0.04-0.07-0.04-0.13-0.08
	c0.12-0.26,0.58-0.01,0.77-0.23c0,0,0.2,0.04,0.13,0.04c0.01,0.39,0.39,0.08,0.59,0.12s0.45-0.14,0.52-0.1
	c0.33,0.21,0.65,0.2,0.91,0.2c0.07,0,0.13,0.08,0.13,0.13c0,0.13-0.06,0.26-0.06,0.43c0,0,0,0,0-0.04c-0.06,0-0.13,0-0.13,0.05
	c0,0,0,0.04,0,0.09c0.06,0,0.06-0.04,0.13-0.09c0.06-0.09,0.19-0.13,0.26-0.18c0.13-0.22,0.58-0.4,0.97-0.32c0,0,0.07,0,0.07,0.04
	c0.78,0.03,0.78,0.03,1.11,0.15c0.2,0.08,0.26,0.08,0.39-0.05c0.32-0.31,0.9-0.24,1.36-0.38c0,0,0.13,0.08,0.13,0.13
	c0.07,0.39,0.07,0.39,0.66,0.42c0.13,0,0.26,0.04,0.39,0.03c0.06,0,0.13-0.09,0.13-0.13c0-0.04,0-0.09-0.07-0.13
	c-0.13-0.04-0.26,0.01-0.39-0.03c-0.13,0-0.2-0.08-0.26-0.08c0.13-0.05,0.19-0.13,0.32-0.18c0.07,0,0.65,0.2,0.66,0.25
	c0.07,0.09,0.13,0.17,0.2,0.21c0.13,0.04,0.32-0.01,0.45-0.01c0-0.09,0-0.17,0-0.22c0-0.04-0.07-0.09-0.07-0.13
	c0-0.04,0.06-0.13,0.13-0.18c0.06,0,0.26,0.04,0.26,0.04c0.01,0.26,0.13,0.17,0.39,0.12c0.13-0.05,0.45-0.1,0.46,0.21
	c-0.06,0-0.07-0.04-0.13-0.04c-0.06,0-0.19,0-0.26,0.01c0,0.04,0,0.09,0,0.09c0.13,0,0.19,0,0.39-0.05
	c0.06-0.09,0.19-0.13,0.32-0.18c0.19-0.09,0.32-0.22,0.33,0.08c0,0.04,0,0.17,0,0.17c0.2,0.08,0.01,0.43,0.4,0.34
	c0.26-0.09,0-0.22-0.01-0.3c0-0.09,0.12-0.26,0.32-0.31c0.13-0.05,0.33,0.04,0.52,0.07C54.56,2.61,55.21,2.46,55.22,2.94
	c0.39-0.14-0.07-0.04-0.13-0.17c0-0.04-0.58,0.1-0.58,0.1c0.07,0.04,0.2,0.08,0.33,0.08c0.2,0.04,0.26,0.08,0.2,0.21
	c0,0.04,0.13,0.08,0.2,0.08C55.36,3.24,55.42,3.15,55.22,2.94z M72.96,5.31l0-0.04c-0.06,0-0.13,0-0.13,0.05c0,0,0,0.04,0,0.09
	c0.07,0,0.06-0.04,0.26-0.22c-0.06,0-0.06,0.04-0.13,0.05c0,0.04,0.07,0.04,0.07,0.09c0.06-0.04,0.06-0.04,0.13-0.09
	C73.15,5.18,73.08,5.14,72.96,5.31z M158.92,3.74c-0.07,0-0.06,0.04-0.13,0.05c0,0.04,0.07,0.04,0.07,0.09
	c0.06-0.04,0.06-0.04,0.13-0.09c0,0-0.07-0.04-0.19,0.13l0-0.04c-0.07,0-0.13,0-0.13,0.05c0,0,0,0.04,0,0.09
	C158.66,3.96,158.73,3.96,158.92,3.74z M117.43,5.83c-0.06,0-0.06,0.04-0.13,0.05c0,0.04,0.07,0.04,0.07,0.09
	c0.06-0.04,0.06-0.04,0.13-0.09c0,0-0.07-0.04-0.19,0.13l0-0.04c-0.07,0-0.13,0-0.13,0.05c0,0,0,0.04,0,0.09
	C117.24,6.06,117.24,6.01,117.43,5.83z M60.9,6.71c-0.07,0-0.06,0.04-0.13,0.05c0,0.04,0.07,0.04,0.07,0.09
	C60.9,6.8,60.9,6.8,60.96,6.75c0,0-0.07-0.04-0.13,0.18C60.7,6.84,60.7,6.84,60.7,6.84c-0.06,0-0.19,0-0.26,0.01
	c0,0.04,0,0.09,0,0.09C60.51,6.98,60.58,6.93,60.9,6.71z M126.59,5.8c-0.06,0.04-0.13,0.05-0.19,0.09c0.07,0.04,0.07,0.09,0.13,0.08
	c0.06,0,0.19,0,0.26-0.05c-0.07-0.04-0.13-0.08-0.59-0.2c0,0.04,0.07,0.04,0.07,0.09c0.06,0,0.06-0.04,0.13-0.05
	c-0.07-0.04-0.07-0.04-0.13-0.08C126.33,5.72,126.27,5.72,126.59,5.8z M84.92,2.66c-0.06,0.04-0.13,0.09,0.01,0.39
	c-0.13-0.08-0.2-0.17-0.33-0.25c-0.06,0.09-0.13,0.18-0.12,0.31c0,0.04,0.13,0.08,0.26,0.12c0.06,0,0.13-0.09-0.01-0.39
	C84.73,2.76,84.79,2.71,84.92,2.66c0.13,0,0.26-0.01,0.58-0.01c-0.06,0.04-0.13,0.05-0.19,0.09c0.07,0.04,0.07,0.09,0.13,0.08
	c0.07,0,0.19,0,0.26-0.05c-0.07-0.04-0.13-0.04-0.39-0.08c0-0.09,0-0.17-0.01-0.26c-0.13,0.05-0.19,0.09-0.32,0.14
	C84.92,2.58,84.92,2.62,84.92,2.66z M62.85,3.94c0.13-0.05,0.19-0.05,0.32-0.09c-0.07-0.04-0.13-0.08-0.2-0.08
	c-0.13,0-0.26,0.05-0.39,0.05c0.07,0.04,0.13,0.04,0.97-0.19c-0.13,0.05-0.19,0.05-0.32,0.09c0.07,0.04,0.13,0.08,0.2,0.08
	c0.13,0,0.26-0.05,0.39-0.05C63.75,3.7,63.69,3.7,62.85,3.94z M136.73,2.98l0-0.04c-0.07,0-0.13,0-0.13,0.05c0,0,0,0.04,0,0.09
	c0.07,0,0.06-0.04,0.51-0.27c-0.13,0.05-0.19,0.05-0.32,0.09c0.07,0.04,0.13,0.08,0.2,0.08c0.13,0,0.26-0.05,0.39-0.05
	C137.32,2.83,137.25,2.79,136.73,2.98z M29.93,2.47c-0.07-0.04-0.07-0.09-0.13-0.08c-0.13-0.04-0.33-0.04-0.32,0.14
	c0,0.04,0.07,0.09,0.07,0.13c0.13-0.05,0.26-0.09,0.71-0.41c-0.13,0.05-0.19,0.05-0.32,0.09c0.07,0.04,0.13,0.08,0.2,0.08
	c0.13,0,0.26-0.05,0.39-0.05C30.44,2.32,30.38,2.33,29.93,2.47z M72.85,3.54c-0.13-0.04-0.2-0.08-0.26-0.08
	c-0.06,0-0.13,0.05-0.19,0.05c0.07,0.09,0.13,0.13,0.26,0.21c0.06-0.04,0.13-0.09,0.7-0.62c-0.26-0.04-0.58,0.14-0.51,0.31
	c0,0.04,0.07,0.09,0.07,0.09c0.19-0.05,0.32-0.09,0.52-0.18c0.07,0,0.06-0.09,0.06-0.13C73.43,3.14,73.36,3.1,72.85,3.54z
	 M108.28,3.57c-0.06,0-0.06,0.04-0.13,0.05c0,0.04,0.07,0.04,0.07,0.09c0.06-0.04,0.06-0.04,0.13-0.09c0,0-0.07-0.04-0.19,0.18
	c-0.07-0.09-0.13-0.13-0.2-0.21c-0.07-0.04,0.06-0.22-0.13-0.13c-0.13,0.05-0.19,0.18-0.25,0.27c0.2,0.08,0.33,0.17,0.53,0.2
	C108.02,3.88,108.09,3.88,108.28,3.57z M70.16,2.48c-0.06,0-0.06,0.04-0.13,0.05c0,0.04,0.07,0.04,0.07,0.09
	c0.06-0.04,0.06-0.04,0.13-0.09c0,0-0.07-0.04,0.01,0.26c-0.33-0.17-0.46-0.29-0.59-0.33c-0.13,0-0.26,0.09-0.39,0.18
	c0.2,0.08,0.39,0.16,0.66,0.25C69.85,2.92,69.98,2.83,70.16,2.48z M41.47,7.01c0.13,0,0.19,0,0.33,0.04c0.39,0.08,0.65-0.1,0.9-0.24
	c0.06-0.04,0-0.13-0.07-0.17c0-0.04-0.13,0-0.2-0.04c-0.06,0.39-0.39,0.23-0.71,0.19c-0.13-0.04-0.33-0.04-0.45,0.01
	c-0.13,0-0.19,0.13-0.26,0.18c0.07,0.04,0.2,0.04,0.26,0.08C41.27,6.98,41.34,6.97,41.47,7.01z M72.74,4.54
	c-0.2-0.13-0.4-0.25-0.46-0.25c-0.19,0-0.45,0.14-0.64,0.23l0,0.04c0.2,0.08,0.39,0.21,0.66,0.25C72.36,4.81,72.55,4.63,72.74,4.54z
	 M72.64,2.98c-0.06,0-0.13-0.04-0.13-0.04c-0.39,0.18-0.52,0.1-0.46-0.16c0.06-0.22-0.2-0.17-0.39-0.16c-0.07,0-0.13,0.05-0.19,0.09
	c0.33,0.12,0.2,0.43,0.66,0.5C72.39,3.2,72.58,3.2,72.64,2.98z M45.35,3.46c-0.13,0-0.19,0-0.32,0.01c-0.06,0-0.13,0-0.19,0.05
	l0,0.04c0.07,0.21,0.65,0.16,0.53,0.46c0.06,0,0.13-0.05,0.19-0.05c0.06-0.09,0.19-0.18,0.25-0.27c0-0.04,0-0.13-0.07-0.17
	C45.68,3.46,45.48,3.46,45.35,3.46z M73.84,6.85c-0.39-0.12-0.46-0.34-0.47-0.6c-0.06,0-0.13,0.05-0.19,0.05
	c-0.32,0.18,0.01,0.43-0.12,0.65c0.06,0,0.13,0,0.19,0C73.45,6.95,73.58,6.9,73.84,6.85z M41.43,2.56c-0.26,0.05-0.58,0.1-0.97,0.15
	c0.26,0.17,0.59,0.2,0.91,0.02c0,0,0.2,0.13,0.26,0.12c0.06,0,0.19-0.05,0.19-0.09c0-0.04,0-0.13-0.07-0.17
	C41.76,2.59,41.63,2.59,41.43,2.56z M82.78,2.84c0,0.04,0,0,0-0.04c0.06-0.13,0-0.22-0.2-0.21c-0.26,0.01-0.19,0.18-0.19,0.26
	c0,0.09,0.07,0.17,0.2,0.21c0.07,0.04,0.2,0.04,0.33,0.08C82.85,3.01,82.85,2.97,82.78,2.84z M143.48,2.22c0,0.04,0,0.09,0,0.09
	c0.26,0.04,0.52,0.07,0.72,0.07c0-0.04,0-0.13-0.07-0.13c-0.13-0.04-0.33-0.12-0.52-0.12C143.61,2.13,143.54,2.22,143.48,2.22z
	 M78.7,3.45c-0.06,0.04-0.13,0.05-0.13,0.09c-0.06,0.13-0.13,0.22-0.19,0.35c0,0.04,0.07,0.09,0.07,0.13
	c0.06-0.04,0.13-0.05,0.13-0.09c0.06-0.13,0.13-0.22,0.19-0.35C78.77,3.54,78.7,3.5,78.7,3.45z M77.52,5.99
	c-0.13-0.08-0.13-0.21-0.2-0.21c-0.2-0.04-0.32,0.05-0.26,0.18c0,0.09,0.07,0.13,0.13,0.21C77.2,6.09,77.33,6.04,77.52,5.99z
	 M100.59,2.75c0,0.04,0.07,0.09,0.07,0.17c0.13-0.09,0.26-0.18,0.32-0.31c0,0-0.13-0.08-0.2-0.13c-0.06,0-0.13,0-0.19,0.05
	C100.65,2.57,100.59,2.66,100.59,2.75z M67.42,4.66c-0.13,0.09-0.32,0.14,0,0.17c0.07,0,0.13-0.09,0.19-0.18
	c0-0.04,0.06-0.09,0-0.13c-0.07-0.04-0.13-0.08-0.2-0.13c-0.13-0.04-0.26,0.01-0.13,0.13C67.41,4.57,67.42,4.62,67.42,4.66z
	 M61.79,3.27c-0.19,0.05-0.26,0.09-0.32,0.14c0.13,0.08,0.2,0.17,0.33,0.21c0.06,0,0.13-0.05,0.19-0.09
	C61.93,3.44,61.86,3.35,61.79,3.27z M79.81,6.59l0,0.04c0.26-0.01,0.52,0.03,0.72,0.03c0-0.04,0-0.09-0.07-0.09
	c-0.07-0.04-0.2-0.08-0.26-0.08C80.07,6.5,79.94,6.59,79.81,6.59z M74.87,6.66c0-0.04,0,0-0.06,0.04c0,0.04,0,0.09,0.07,0.13
	c0.13,0.04,0.33,0.04,0.46,0.03c0.07,0,0.06-0.09,0.13-0.18c-0.06,0-0.13-0.04-0.2-0.04C75.13,6.65,75.07,6.65,74.87,6.66z
	 M55.94,2.92c-0.13,0-0.13,0-0.19,0c0,0.13,0.01,0.26,0.01,0.35c0.07,0,0.19,0,0.26-0.01C56.01,3.14,55.94,3.05,55.94,2.92z
	 M60.75,6.02c0.13,0.08,0.26,0.17,0.4,0.25c0.06-0.04,0.06-0.13,0.06-0.17c0.06-0.13,0.06-0.22-0.2-0.21
	C60.94,5.89,60.88,5.97,60.75,6.02z M141.3,3.74c-0.13-0.13-0.2-0.21-0.26-0.17c-0.19,0.05-0.32,0.14-0.52,0.18
	c0.07,0.04,0.2,0.08,0.26,0.08C140.98,3.79,141.11,3.75,141.3,3.74z M115.63,3.8c-0.13-0.08-0.2-0.17-0.26-0.17
	c-0.13,0-0.19,0.09-0.26,0.14c0,0,0.07,0.13,0.13,0.13C115.37,3.89,115.5,3.84,115.63,3.8z M67.77,3.05
	c0.13,0.08,0.2,0.13,0.33,0.17c0.06,0,0.13-0.05,0.19-0.09c-0.07-0.04-0.13-0.13-0.2-0.17C68.03,2.91,67.96,3,67.77,3.05z
	 M69.74,6.77c-0.13-0.08-0.2-0.17-0.26-0.17c-0.13,0-0.19,0.05-0.26,0.14c0,0,0.07,0.13,0.13,0.13C69.48,6.86,69.54,6.82,69.74,6.77
	z M152.01,5.97c-0.13,0-0.26,0.05-0.32,0.05c0.07,0.09,0.2,0.21,0.26,0.17c0.13,0,0.26-0.09,0.39-0.14
	C152.14,6.05,152.08,6.01,152.01,5.97z M113.93,3.4c0.2,0.04,0.26,0.04,0.39,0.03c0.07,0,0.19-0.05,0.26-0.05
	c-0.07-0.04-0.13-0.13-0.2-0.13c-0.07-0.04-0.13-0.04-0.19,0C114.12,3.27,114.06,3.31,113.93,3.4z M52.5,5.99
	c0.13,0.08,0.2,0.13,0.33,0.17c0.06,0,0.13-0.05,0.19-0.09c-0.07-0.04-0.13-0.13-0.2-0.17C52.75,5.9,52.62,5.94,52.5,5.99z
	 M79.82,6.89c-0.13,0.09-0.19,0.13-0.32,0.22l0.07,0.09c0.19-0.05,0.32-0.09,0.52-0.14C80.01,7.02,79.95,6.98,79.82,6.89z
	 M60.24,3.56c-0.07-0.09-0.13-0.13-0.2-0.17c-0.13,0.05-0.26,0.14-0.26,0.18c0,0.09,0.13,0.13,0.26,0.21
	C60.05,3.7,60.11,3.65,60.24,3.56z M80.79,6.61c0.13,0.04,0.2,0.08,0.33,0.12c0.06,0,0.19,0,0.26-0.05
	c-0.13-0.08-0.33-0.17-0.46-0.25C80.91,6.52,80.85,6.57,80.79,6.61z M35.93,6.27c0.07,0.04,0.13,0.13,0.13,0.17
	c0.06-0.04,0.06-0.13,0.06-0.17c0-0.09-0.07-0.13-0.07-0.21C36.05,6.1,35.99,6.18,35.93,6.27z M70.81,5.49
	c-0.07-0.09-0.2-0.13-0.26-0.21c-0.06,0.04-0.13,0.13-0.13,0.18c0.07,0.04,0.2,0.08,0.26,0.12C70.75,5.54,70.81,5.49,70.81,5.49z
	 M144.1,4.03c-0.07-0.09-0.07-0.13-0.07-0.17c-0.13,0.05-0.26,0.14-0.39,0.18c0.07,0.04,0.13,0.08,0.13,0.08
	C143.91,4.07,143.97,4.03,144.1,4.03z M54.05,5.65c-0.06,0.04-0.13,0.09-0.19,0.18c0,0.04,0,0.09,0.07,0.13
	c0.13-0.05,0.26-0.14,0.39-0.18C54.18,5.73,54.18,5.73,54.05,5.65z M70.5,3.07c-0.06,0-0.13,0.05-0.13,0.05
	c0,0.09,0.07,0.17,0.13,0.21c0,0,0.19-0.05,0.26-0.05C70.63,3.2,70.57,3.16,70.5,3.07z M97.98,2.55c-0.07-0.09-0.07-0.13-0.07-0.17
	c-0.13,0.05-0.26,0.14-0.39,0.18c0.07,0.04,0.13,0.08,0.13,0.08C97.79,2.59,97.85,2.55,97.98,2.55z M66.03,6.68
	c-0.06,0.04-0.13,0.13-0.13,0.18c0,0.04,0.07,0.09,0.07,0.13c0.13-0.09,0.19-0.13,0.32-0.22C66.23,6.72,66.16,6.72,66.03,6.68z
	 M104.23,5.65c-0.26,0.05-0.39,0.05-0.52,0.05c0.07,0.04,0.13,0.08,0.2,0.08c0.13,0,0.26-0.01,0.39-0.01
	C104.23,5.74,104.23,5.7,104.23,5.65z M64.85,3.33c-0.06,0-0.13,0.05-0.13,0.05c0,0.09,0.07,0.17,0.13,0.21c0,0,0.19-0.05,0.26-0.05
	C65.05,3.5,64.92,3.42,64.85,3.33z M85.71,5.85c-0.07-0.09-0.07-0.17-0.14-0.26c-0.06,0.04-0.13,0.09-0.13,0.18
	c0,0.09,0.07,0.17,0.07,0.26C85.58,5.94,85.64,5.9,85.71,5.85z M57.04,5.54c-0.13,0.05-0.19,0.05-0.26,0.05
	c0.07,0.09,0.2,0.17,0.27,0.25c0.06-0.04,0.13-0.09,0.13-0.09C57.17,5.67,57.1,5.58,57.04,5.54z M120.65,4.38
	c-0.07-0.09-0.2-0.13-0.26-0.21c-0.06,0.04-0.13,0.13-0.13,0.18c0.07,0.04,0.2,0.08,0.26,0.12C120.52,4.42,120.58,4.38,120.65,4.38z
	 M48.88,6.98c0.07,0.04,0.13,0.08,0.26,0.12c0.06,0,0.13,0,0.19-0.05c-0.07-0.09-0.2-0.17-0.27-0.25C49,6.85,48.94,6.89,48.88,6.98z
	 M80.97,3.45c-0.13,0.09-0.19,0.13-0.32,0.22c0.06,0,0.13,0.04,0.13,0.04c0.06-0.04,0.19-0.09,0.26-0.14
	C81.04,3.53,80.98,3.49,80.97,3.45z M127.58,6.17c-0.06,0.04-0.13,0.13-0.13,0.18s0.07,0.09,0.07,0.13
	c0.13-0.09,0.19-0.13,0.32-0.22C127.71,6.21,127.71,6.21,127.58,6.17z M80.76,5.53c0.07,0.09,0.07,0.17,0.14,0.26
	c0.06-0.04,0.13-0.09,0.13-0.18c0-0.09-0.07-0.17-0.07-0.26C80.82,5.44,80.82,5.48,80.76,5.53z M61.93,6.51
	c-0.06,0-0.13,0.05-0.13,0.05c0,0.09,0.07,0.17,0.13,0.21c0,0,0.19-0.05,0.26-0.05C62.13,6.64,62,6.6,61.93,6.51z M120.61,5.89
	c0.13,0.08,0.2,0.13,0.33,0.21c0-0.04,0.06-0.09,0.06-0.09c-0.07-0.04-0.13-0.13-0.2-0.17C120.81,5.85,120.68,5.89,120.61,5.89z
	 M122.69,2.6c0.07,0.09,0.07,0.13,0.13,0.17c0.13-0.09,0.19-0.13,0.32-0.22c-0.06,0-0.13-0.04-0.13-0.04
	C122.88,2.51,122.81,2.55,122.69,2.6z M149.37,1.35c0,0.09,0.07,0.17,0.07,0.21c0.06-0.04,0.13-0.13,0.13-0.18c0-0.04,0-0.13,0-0.17
	C149.5,1.26,149.44,1.31,149.37,1.35z M68.68,6.02c0.13-0.05,0.19-0.05,0.26-0.09c-0.13-0.08-0.2-0.13-0.33-0.21
	c0,0.04-0.06,0.09-0.06,0.09C68.55,5.93,68.62,5.97,68.68,6.02z M102.34,5.44c0-0.09-0.07-0.17-0.07-0.21
	c-0.06,0.04-0.13,0.13-0.13,0.18c0,0.04,0,0.13,0,0.17C102.21,5.53,102.28,5.48,102.34,5.44z M121.82,4.7
	c0.13,0.08,0.2,0.13,0.33,0.21c0-0.04,0.06-0.09,0.06-0.09c-0.07-0.04-0.13-0.13-0.2-0.17C121.95,4.65,121.89,4.7,121.82,4.7z
	 M78.36,5.76c-0.06,0.04-0.13,0.09-0.13,0.13c0,0.04,0.07,0.13,0.07,0.17c0.06-0.04,0.13-0.05,0.13-0.09
	C78.43,5.93,78.43,5.84,78.36,5.76z M79,5.14c0,0.09-0.06,0.13-0.06,0.17c0,0,0.07,0.04,0.13,0.04c0.06-0.04,0.06-0.13,0.06-0.17
	C79.13,5.22,79.06,5.18,79,5.14z M82.14,3.25c0,0.09-0.06,0.13-0.06,0.17c0,0,0.07,0.04,0.13,0.04c0.06-0.04,0.06-0.13,0.06-0.17
	C82.34,3.29,82.2,3.25,82.14,3.25z M85.08,6.95c-0.06,0.04-0.13,0.05-0.19,0.09c0.07,0.04,0.13,0.08,0.26,0.08
	c0.07,0,0.13-0.05,0.19-0.05C85.21,6.99,85.15,6.99,85.08,6.95z M85.14,6.69c0-0.04-0.07-0.09-0.07-0.17
	c-0.06,0.04-0.13,0.05-0.13,0.09c0,0.04,0.07,0.13,0.07,0.17C85.08,6.77,85.14,6.73,85.14,6.69z M85.53,6.42
	c0,0-0.06,0.09-0.06,0.13c0.07,0,0.13,0.04,0.13,0.04c0.07,0,0.13-0.05,0.19-0.09C85.72,6.46,85.66,6.46,85.53,6.42z M86.4,4.62
	c-0.19,0.05-0.19,0.05-0.26,0.05c0.07,0.04,0.13,0.08,0.2,0.08c0.06,0,0.13,0,0.19-0.05C86.4,4.71,86.4,4.67,86.4,4.62z M87.35,3.74
	c0,0-0.06,0.09-0.06,0.13c0.07,0,0.13,0.04,0.13,0.04c0.06,0,0.13-0.05,0.19-0.09C87.55,3.82,87.48,3.78,87.35,3.74z M88.49,2.33
	c0.06-0.04,0.13-0.05,0.19-0.09c-0.07-0.04-0.13-0.08-0.26-0.08c-0.07,0-0.13,0.05-0.19,0.05C88.36,2.24,88.42,2.28,88.49,2.33z
	 M89.47,2.48c-0.06,0-0.13,0.05-0.26,0.05c0.07,0.04,0.07,0.09,0.13,0.08s0.19-0.05,0.26-0.05C89.6,2.52,89.53,2.52,89.47,2.48z
	 M88.97,6.21c0.07,0.04,0.07,0.13,0.07,0.13c0.06,0,0.19,0,0.26-0.05c0-0.04-0.07-0.09-0.07-0.09C89.16,6.21,89.1,6.21,88.97,6.21z
	 M89.49,3.6c0.07,0.04,0.07,0.13,0.07,0.13c0.07,0,0.19,0,0.26-0.05c0-0.04-0.07-0.09-0.07-0.09S89.62,3.6,89.49,3.6z M31.53,7.5
	c0.06-0.04,0.13-0.05,0.19-0.09c-0.07-0.04-0.13-0.08-0.26-0.08c-0.07,0-0.13,0.05-0.19,0.05C31.34,7.41,31.47,7.45,31.53,7.5z
	 M32.35,6.22c-0.19,0.05-0.19,0.05-0.26,0.05c0.07,0.04,0.13,0.08,0.2,0.08c0.06,0,0.13,0,0.19-0.05
	C32.42,6.31,32.35,6.27,32.35,6.22z M91.63,6.07c-0.07,0-0.13,0-0.13,0c0,0.04,0,0.13,0,0.17l0.13,0
	C91.63,6.2,91.63,6.15,91.63,6.07z M35.92,3.24c0,0-0.06,0.09-0.06,0.13c0.06,0,0.13,0.04,0.13,0.04c0.06,0,0.13-0.05,0.19-0.09
	C36.12,3.32,36.05,3.28,35.92,3.24z M112.21,2.01c0,0,0.13,0.04,0.2,0.04c0-0.04,0.06-0.09,0.06-0.09c0-0.04-0.07-0.09-0.13-0.13
	C112.33,1.88,112.34,1.92,112.21,2.01z M39.21,4.94c-0.06,0.04-0.13,0.09-0.13,0.13c0,0.04,0.07,0.13,0.07,0.17
	c0.06-0.04,0.13-0.05,0.13-0.09C39.28,5.07,39.21,4.99,39.21,4.94z M39.53,4.72c0.07,0.04,0.07,0.13,0.07,0.13
	c0.06,0,0.19,0,0.26-0.05c0-0.04-0.07-0.09-0.07-0.09C39.73,4.72,39.66,4.72,39.53,4.72z M113.66,5.79
	c0.07,0.04,0.07,0.13,0.07,0.13c0.06,0,0.19,0,0.26-0.05c0-0.04-0.07-0.09-0.07-0.09C113.85,5.78,113.72,5.79,113.66,5.79z
	 M41.19,6.28c0-0.04-0.07-0.09-0.07-0.17C41.06,6.16,40.99,6.16,41,6.2c0,0.04,0.07,0.13,0.07,0.17
	C41.06,6.37,41.13,6.37,41.19,6.28z M121.26,5.75c0.07,0.04,0.07,0.13,0.07,0.13c0.07,0,0.19,0,0.26-0.05
	c0-0.04-0.07-0.09-0.07-0.09S121.39,5.75,121.26,5.75z M126.74,3.59c0,0,0.13,0.04,0.2,0.04c0-0.04,0.06-0.09,0.06-0.09
	c0-0.04-0.07-0.09-0.13-0.13C126.8,3.42,126.8,3.46,126.74,3.59z M127.61,4.7c0.07,0.04,0.07,0.13,0.07,0.13c0.07,0,0.2,0,0.26-0.05
	c0-0.04-0.07-0.09-0.07-0.09C127.87,4.65,127.74,4.69,127.61,4.7z M132.8,1.64c0.07,0.04,0.13,0.08,0.2,0.08
	c0.07,0,0.19-0.05,0.26-0.05c-0.07-0.04-0.07-0.09-0.13-0.08C133,1.63,132.87,1.64,132.8,1.64z M51.13,3.12
	c-0.07-0.13-0.07-0.13-0.07-0.17C51,2.99,50.93,3.04,50.94,3.08c0,0.04,0,0.09,0.07,0.13C51.07,3.16,51.13,3.12,51.13,3.12z
	 M52.04,2.92c-0.19,0.05-0.19,0.05-0.26,0.05c0.07,0.04,0.13,0.08,0.2,0.08c0.06,0,0.13,0,0.19-0.05C52.1,3.01,52.1,2.97,52.04,2.92
	z M53.73,6.05c0,0-0.06,0.09-0.06,0.13c0.06,0,0.13,0.04,0.13,0.04c0.07,0,0.13-0.05,0.19-0.09C53.93,6.13,53.86,6.09,53.73,6.05z
	 M147.08,6.34c0-0.04-0.07-0.09-0.07-0.17c-0.06,0.04-0.13,0.05-0.13,0.09c0,0.04,0.07,0.13,0.07,0.17
	C146.95,6.43,147.02,6.38,147.08,6.34z M148.42,2.5c-0.06,0-0.13,0.05-0.26,0.05c0.07,0.04,0.07,0.09,0.13,0.08
	c0.07,0,0.19-0.05,0.26-0.05C148.56,2.58,148.49,2.54,148.42,2.5z M152.92,5.82c-0.13,0-0.2-0.04-0.26-0.04c0,0-0.06,0.04-0.06,0.09
	c0.07,0.04,0.2,0.04,0.26,0.04C152.79,5.91,152.85,5.86,152.92,5.82z M157.72,5.5c-0.13,0-0.2-0.04-0.26-0.04
	c0,0-0.06,0.04-0.06,0.09c0.07,0.04,0.2,0.04,0.26,0.04C157.59,5.59,157.66,5.54,157.72,5.5z M158.67,4.31
	c-0.13,0-0.2-0.04-0.26-0.04c0,0-0.06,0.04-0.06,0.09c0.07,0.04,0.2,0.04,0.26,0.04C158.61,4.39,158.67,4.35,158.67,4.31z
	 M56.86,6.28c-0.13,0-0.2-0.04-0.26-0.04c0,0-0.06,0.04-0.06,0.09c0.07,0.04,0.2,0.04,0.26,0.04C56.79,6.37,56.79,6.33,56.86,6.28z
	 M57.81,5.18c-0.06,0.04-0.13,0.09-0.13,0.13c0,0.04,0.07,0.13,0.07,0.17c0.06-0.04,0.13-0.05,0.13-0.09
	C57.81,5.31,57.81,5.22,57.81,5.18z M58.86,5.8c0,0.09-0.06,0.13-0.06,0.17c0,0,0.07,0.04,0.13,0.04c0.06-0.04,0.06-0.13,0.06-0.17
	C58.99,5.84,58.93,5.84,58.86,5.8z M59.86,6.78c-0.06,0.04-0.13,0.05-0.19,0.09c0.07,0.04,0.13,0.08,0.26,0.08
	c0.07,0,0.13-0.05,0.19-0.05C60.06,6.86,59.92,6.82,59.86,6.78z M201.86,5.72c-0.19,0.05-0.19,0.05-0.26,0.05
	c0.07,0.04,0.13,0.08,0.2,0.08c0.07,0,0.13,0,0.19-0.05C201.86,5.76,201.86,5.72,201.86,5.72z M62.11,2.79
	c-0.13,0-0.2-0.04-0.26-0.04c0,0-0.06,0.04-0.06,0.09c0.07,0.04,0.2,0.04,0.26,0.04C62.05,2.92,62.05,2.87,62.11,2.79z M212.51,5.18
	c-0.06,0.04-0.19,0.05-0.19,0.05c0,0.04,0,0.13,0.07,0.17c0.06,0,0.13-0.05,0.13-0.05C212.51,5.31,212.51,5.22,212.51,5.18z
	 M61.72,5.83c0.06-0.04,0.13-0.05,0.19-0.09c-0.07-0.04-0.13-0.08-0.26-0.08c-0.06,0-0.13,0.05-0.19,0.05
	C61.59,5.74,61.66,5.78,61.72,5.83z M64.38,2.47c-0.06,0.04-0.13,0.09-0.13,0.13c0,0.04,0.07,0.13,0.07,0.17
	c0.06-0.04,0.13-0.05,0.13-0.09C64.45,2.6,64.38,2.52,64.38,2.47z M64.53,6.37c-0.13,0-0.2-0.04-0.26-0.04c0,0-0.06,0.04-0.06,0.09
	c0.07,0.04,0.2,0.04,0.26,0.04C64.4,6.46,64.47,6.41,64.53,6.37z M66.42,3.6c-0.07-0.13-0.07-0.13-0.07-0.17
	c-0.06,0.04-0.13,0.09-0.13,0.13c0,0.04,0,0.09,0.07,0.13C66.29,3.64,66.35,3.6,66.42,3.6z M67.26,3.36
	c-0.07-0.13-0.07-0.13-0.07-0.17c-0.06,0.04-0.13,0.09-0.13,0.13c0,0.04,0,0.09,0.07,0.13C67.13,3.41,67.19,3.36,67.26,3.36z
	 M68.29,5.89c-0.13,0-0.2-0.04-0.26-0.04c0,0-0.06,0.04-0.06,0.09c0.07,0.04,0.2,0.04,0.26,0.04C68.23,5.98,68.22,5.94,68.29,5.89z
	 M72.45,5.8c-0.13,0-0.2-0.04-0.26-0.04c0,0-0.06,0.04-0.06,0.09c0.07,0.04,0.2,0.04,0.26,0.04C72.38,5.89,72.38,5.85,72.45,5.8z
	 M28.65,6.65c-0.07,0-0.06,0.04-0.13,0.05l0.07,0.04c0.06,0,0.06,0,0.13-0.05C28.66,6.69,28.65,6.65,28.65,6.65z M35.69,7.36
	c0.06,0,0.06-0.04,0.13-0.05l-0.07-0.04c-0.06,0-0.06,0-0.13,0.05C35.63,7.36,35.69,7.36,35.69,7.36z M36.43,5.7l-0.07-0.04
	c0,0.04-0.06,0.04-0.06,0.09l0.07,0.04C36.37,5.74,36.43,5.7,36.43,5.7z M37.31,7.24c0,0.04,0.07,0.04,0.07,0.09l0.06-0.04
	c0-0.04,0-0.04-0.07-0.09C37.38,7.24,37.38,7.24,37.31,7.24z M38.34,6.87l-0.07-0.04c0,0.04-0.06,0.04-0.06,0.09l0.07,0.04
	C38.28,6.96,38.35,6.91,38.34,6.87z M38.6,6.47c-0.07,0-0.06,0.04-0.13,0.05l0.07,0.04c0.06,0,0.06,0,0.13-0.05
	C38.6,6.47,38.6,6.47,38.6,6.47z M38.8,6.81l0.07,0.04c0.06,0,0.06,0,0.13-0.05l-0.07-0.04C38.93,6.77,38.86,6.77,38.8,6.81z
	 M39.1,5.64c-0.06,0-0.06,0.04-0.13,0.05l0.07,0.04c0.06,0,0.06,0,0.13-0.05C39.16,5.68,39.1,5.68,39.1,5.64z M39.97,6.79L39.9,6.83
	c0,0.04,0,0.04,0.07,0.09l0.06-0.04C39.97,6.83,39.97,6.83,39.97,6.79z M40.37,7.26L40.3,7.21c0,0.04-0.06,0.04-0.06,0.09l0.07,0.04
	C40.3,7.3,40.37,7.3,40.37,7.26z M42.87,2.83L42.8,2.78c0,0.04-0.06,0.04-0.06,0.09l0.07,0.04C42.81,2.87,42.81,2.87,42.87,2.83z
	 M43.41,3.81l-0.06,0.04c0.06,0,0.07,0.04,0.13,0.04l0.06-0.04C43.54,3.85,43.48,3.81,43.41,3.81z M49.97,3.62l-0.07-0.04
	c0,0.04-0.06,0.04-0.06,0.09l0.07,0.04C49.91,3.66,49.97,3.62,49.97,3.62z M50.34,5.56l-0.07-0.04c0,0.04-0.06,0.04-0.06,0.09
	l0.07,0.04C50.28,5.6,50.28,5.56,50.34,5.56z M50.82,6.81c0,0.04,0.07,0.04,0.07,0.09l0.06-0.04c0-0.04,0-0.04-0.07-0.09
	C50.89,6.8,50.89,6.8,50.82,6.81z M51.44,5.32c0,0.04,0.07,0.04,0.07,0.09l0.06-0.04c0-0.04,0-0.04-0.07-0.09
	C51.51,5.32,51.51,5.32,51.44,5.32z M51.86,6.78l0.07,0.04c0-0.04,0.06-0.04,0.06-0.09l-0.07-0.04C51.93,6.74,51.93,6.74,51.86,6.78
	z M52.73,4.86L52.8,4.9c0.06,0,0.06,0,0.13-0.05l-0.07-0.04C52.86,4.81,52.8,4.86,52.73,4.86z M55,4.59c0-0.04-0.07-0.04-0.07-0.09
	l-0.06,0.04c0,0.04,0,0.04,0.07,0.09L55,4.59z M55.3,3.54l0.06-0.04c-0.06,0-0.07-0.04-0.13-0.04L55.17,3.5
	C55.23,3.5,55.3,3.5,55.3,3.54z M55.68,5.83l-0.07-0.04c0,0.04-0.06,0.04-0.06,0.09l0.07,0.04C55.61,5.88,55.61,5.83,55.68,5.83z
	 M56.68,4.03l-0.06,0.04c0.06,0,0.07,0.04,0.13,0.04l0.06-0.04C56.74,4.07,56.68,4.08,56.68,4.03z M58.19,4.91l-0.06,0.04
	c0,0.04,0,0.04,0.07,0.09l0.06-0.04C58.26,4.99,58.19,4.95,58.19,4.91z M58.42,6.59l0.06-0.04c-0.06,0-0.07-0.04-0.13-0.04
	l-0.06,0.04C58.36,6.55,58.36,6.55,58.42,6.59z M41.38,5.8l-0.07-0.04c0,0.04-0.06,0.04-0.06,0.09l0.07,0.04
	C41.38,5.85,41.38,5.8,41.38,5.8z M60.76,3.47l-0.07-0.04c0,0.04-0.06,0.04-0.06,0.09l0.07,0.04C60.7,3.51,60.76,3.47,60.76,3.47z
	 M62.65,3.55l0.07,0.04c0.06,0,0.06,0,0.13-0.05l-0.07-0.04C62.71,3.55,62.71,3.55,62.65,3.55z M63.36,6.44L63.3,6.48
	c0.06,0,0.07,0.04,0.13,0.04l0.06-0.04C63.43,6.48,63.36,6.48,63.36,6.44z M63.94,6.08c0,0.04,0.07,0.04,0.07,0.09l0.06-0.04
	c0-0.04,0-0.04-0.07-0.09C64,6.08,64,6.08,63.94,6.08z M64.52,3.08l-0.07-0.04c0,0.04-0.06,0.04-0.06,0.09l0.07,0.04
	C64.46,3.12,64.52,3.12,64.52,3.08z M64.71,2.64l-0.06,0.04c0.07,0,0.07,0.04,0.13,0.04l0.06-0.04C64.77,2.68,64.77,2.68,64.71,2.64
	z M65.35,2.41l-0.06,0.04c0.07,0,0.07,0.04,0.13,0.04l0.06-0.04C65.42,2.45,65.42,2.41,65.35,2.41z M65.75,2.7l-0.06,0.04
	c0.06,0,0.07,0.04,0.13,0.04l0.06-0.04C65.81,2.75,65.75,2.7,65.75,2.7z M116.3,1.92l-0.06,0.04c0.07,0,0.07,0.04,0.13,0.04
	l0.06-0.04C116.37,1.96,116.37,1.92,116.3,1.92z M118.2,5.38l0.07,0.04c0.07,0,0.07,0,0.13-0.05l-0.07-0.04
	C118.33,5.34,118.26,5.34,118.2,5.38z M94.02,2.37c0-0.04-0.07-0.04-0.07-0.09l-0.06,0.04c0,0.04,0,0.04,0.07,0.09
	C93.95,2.42,93.95,2.42,94.02,2.37z M119.63,5.57l-0.07-0.04c0,0.04-0.06,0.04-0.06,0.09l0.07,0.04
	C119.57,5.61,119.57,5.57,119.63,5.57z M120.53,2l-0.07-0.04c0,0.04-0.06,0.04-0.06,0.09l0.07,0.04
	C120.46,2.04,120.53,2.04,120.53,2z M123.2,2.28l-0.07-0.04c0,0.04-0.06,0.04-0.06,0.09l0.07,0.04
	C123.13,2.33,123.13,2.29,123.2,2.28z M123.6,2.84c0,0.04,0.07,0.04,0.07,0.09l0.06-0.04c0-0.04,0-0.04-0.07-0.09
	C123.6,2.84,123.6,2.84,123.6,2.84z M123.75,3.87c0-0.04-0.07-0.04-0.07-0.09l-0.06,0.04c0,0.04,0,0.04,0.07,0.09
	C123.75,3.87,123.75,3.87,123.75,3.87z M93.83,2.73c0,0.04,0.07,0.04,0.07,0.09l0.06-0.04c0-0.04,0-0.04-0.07-0.09
	C93.83,2.73,93.83,2.73,93.83,2.73z M93.68,4.81l-0.07-0.04c0,0.04-0.06,0.04-0.06,0.09l0.07,0.04C93.62,4.85,93.62,4.85,93.68,4.81
	z M102.5,3.74l-0.07-0.04c0,0.04-0.06,0.04-0.06,0.09l0.07,0.04C102.43,3.79,102.5,3.74,102.5,3.74z M102.7,4.17l0.07,0.04
	c0.06,0,0.06,0,0.13-0.05l-0.07-0.04C102.76,4.13,102.7,4.17,102.7,4.17z M97.55,6.24c-0.07,0-0.06,0.04-0.13,0.05l0.07,0.04
	c0.06,0,0.06,0,0.13-0.05C97.61,6.23,97.61,6.23,97.55,6.24z M94.75,6.13l0.07,0.04c0.07,0,0.07,0,0.13-0.05l-0.07-0.04
	C94.81,6.08,94.81,6.12,94.75,6.13z M78.74,2.46l0.07,0.04c0-0.04,0.06-0.04,0.06-0.09l-0.07-0.04C78.81,2.41,78.81,2.41,78.74,2.46
	z M135.81,2.52l0.07,0.04c0.07,0,0.07,0,0.13-0.05l-0.07-0.04C135.88,2.48,135.81,2.48,135.81,2.52z M96.55,2.23l0.07,0.04
	c0-0.04,0.06-0.04,0.06-0.09l-0.07-0.04C96.61,2.19,96.61,2.19,96.55,2.23z M136.19,1.91l0.06-0.04c-0.06,0-0.07-0.04-0.13-0.04
	l-0.06,0.04C136.12,1.87,136.19,1.86,136.19,1.91z M136.46,2.51c0,0.04,0.07,0.04,0.07,0.09l0.06-0.04c0-0.04,0-0.04-0.07-0.09
	C136.46,2.51,136.46,2.51,136.46,2.51z M77.67,4c0,0.04,0.07,0.04,0.07,0.09l0.06-0.04c0-0.04,0-0.04-0.07-0.09
	C77.74,3.99,77.74,3.99,77.67,4z M77.06,2.62l0.07,0.04c0-0.04,0.06-0.04,0.06-0.09l-0.07-0.04C77.12,2.58,77.12,2.62,77.06,2.62z
	 M139.8,6.46l0.07,0.04c0-0.04,0.06-0.04,0.06-0.09l-0.07-0.04C139.87,6.41,139.87,6.41,139.8,6.46z M140.87,1.93
	c0,0.04,0.07,0.04,0.07,0.09L141,1.97c0-0.04,0-0.04-0.07-0.09C140.94,1.89,140.87,1.89,140.87,1.93z M141.26,1.97l0.07,0.04
	c0.07,0,0.07,0,0.13-0.05l-0.07-0.04C141.33,1.92,141.33,1.92,141.26,1.97z M142.27,3.5c0,0.04,0.07,0.04,0.07,0.09l0.06-0.04
	c0-0.04,0-0.04-0.07-0.09C142.34,3.46,142.34,3.5,142.27,3.5z M142.58,5.75l0.07,0.04c0.07,0,0.07,0,0.13-0.05l-0.07-0.04
	C142.65,5.7,142.65,5.75,142.58,5.75z M143.23,5.65l0.07,0.04c0.07,0,0.07,0,0.13-0.05l-0.07-0.04
	C143.29,5.6,143.23,5.65,143.23,5.65z M144.3,3.89c0,0.04,0.07,0.04,0.07,0.09l0.06-0.04c0-0.04,0-0.04-0.07-0.09
	C144.36,3.85,144.36,3.85,144.3,3.89z M74.02,6.46c0,0.04,0.07,0.04,0.07,0.09l0.06-0.04c0-0.04,0-0.04-0.07-0.09
	C74.09,6.41,74.09,6.46,74.02,6.46z M146.17,6.14c-0.07,0-0.06,0.04-0.13,0.05l0.07,0.04c0.07,0,0.07,0,0.13-0.05
	C146.23,6.19,146.17,6.19,146.17,6.14z M74.52,2.46l-0.07-0.04c0,0.04-0.06,0.04-0.06,0.09l0.07,0.04
	C74.52,2.55,74.52,2.51,74.52,2.46z M106.81,1.83l-0.06,0.04c0.07,0,0.07,0.04,0.13,0.04l0.06-0.04
	C106.87,1.87,106.81,1.87,106.81,1.83z M148.69,5.57l-0.06,0.04c0.07,0,0.07,0.04,0.13,0.04l0.06-0.04
	C148.75,5.61,148.69,5.61,148.69,5.57z M73.91,4.38c0,0.04,0.07,0.04,0.07,0.09l0.06-0.04c0-0.04,0-0.04-0.07-0.09
	C73.97,4.34,73.98,4.38,73.91,4.38z M150.13,5.93l-0.06,0.04c0,0.04,0,0.04,0.07,0.09l0.06-0.04
	C150.13,5.97,150.13,5.93,150.13,5.93z M152.03,1.16l0.06-0.04c-0.07,0-0.07-0.04-0.13-0.04l-0.06,0.04
	C151.97,1.12,151.97,1.12,152.03,1.16z M73.82,3.43l0.07,0.04c0-0.04,0.06-0.04,0.06-0.09l-0.07-0.04
	C73.89,3.39,73.89,3.43,73.82,3.43z M153.15,1.57c0,0.04,0.07,0.04,0.07,0.09l0.06-0.04c0-0.04,0-0.04-0.07-0.09
	C153.15,1.53,153.15,1.53,153.15,1.57z M154.67,5.61l-0.06,0.04c0,0.04,0,0.04,0.07,0.09l0.06-0.04
	C154.73,5.65,154.73,5.61,154.67,5.61z M73.68,2.87l0.07,0.04c0.06,0,0.06,0,0.13-0.05l-0.07-0.04C73.81,2.83,73.75,2.87,73.68,2.87
	z M156.72,1.45l-0.06,0.04c0.07,0,0.07,0.04,0.13,0.04l0.06-0.04C156.79,1.45,156.72,1.45,156.72,1.45z M158.42,4.57
	c-0.07,0-0.06,0.04-0.13,0.05l0.07,0.04c0.07,0,0.07,0,0.13-0.05C158.42,4.57,158.42,4.57,158.42,4.57z M108.13,5.78l-0.06,0.04
	c0.07,0,0.07,0.04,0.13,0.04l0.06-0.04C108.2,5.82,108.13,5.78,108.13,5.78z M160.57,4.78l-0.06,0.04c0.07,0,0.07,0.04,0.13,0.04
	l0.06-0.04C160.63,4.82,160.63,4.82,160.57,4.78z M165.73,3.02l0.07,0.04c0.07,0,0.07,0,0.13-0.05l-0.07-0.04
	C165.79,3.02,165.73,3.02,165.73,3.02z M166.39,3.66l0.06-0.04c-0.07,0-0.07-0.04-0.13-0.04l-0.06,0.04
	C166.26,3.62,166.33,3.66,166.39,3.66z M166.44,3.01c-0.07,0-0.06,0.04-0.13,0.05l0.07,0.04c0.07,0,0.07,0,0.13-0.05
	C166.51,3.05,166.51,3.05,166.44,3.01z M167.96,1.02l-0.06,0.04c0,0.04,0,0.04,0.07,0.09l0.06-0.04
	C168.02,1.07,167.96,1.02,167.96,1.02z M169.99,4.57c-0.07,0-0.06,0.04-0.13,0.05l0.06,0.04c0.07,0,0.07,0,0.13-0.05
	C169.99,4.62,169.99,4.62,169.99,4.57z M170.09,3.49c-0.07,0-0.06,0.04-0.13,0.05l0.07,0.04c0.07,0,0.07,0,0.13-0.05
	C170.16,3.53,170.16,3.49,170.09,3.49z M170.77,1.7l0.06-0.04c-0.07,0-0.07-0.04-0.13-0.04l-0.06,0.04
	C170.7,1.65,170.77,1.65,170.77,1.7z M175.9,1.58c0,0.04,0.07,0.04,0.07,0.09l0.06-0.04c0-0.04,0-0.04-0.07-0.09
	C175.9,1.54,175.9,1.58,175.9,1.58z M177.1,3.07l0.07,0.04c0-0.04,0.06-0.04,0.06-0.09l-0.07-0.04
	C177.17,3.03,177.17,3.03,177.1,3.07z M110.49,3.65l-0.06,0.04c0,0.04,0,0.04,0.07,0.09l0.06-0.04
	C110.56,3.74,110.49,3.69,110.49,3.65z M178.92,5.8l0.06-0.04c-0.07,0-0.07-0.04-0.13-0.04l-0.06,0.04
	C178.79,5.76,178.85,5.8,178.92,5.8z M72.66,6.62L72.6,6.66c0,0.04,0,0.04,0.07,0.09l0.06-0.04C72.73,6.66,72.66,6.66,72.66,6.62z
	 M95.19,2.52l-0.07-0.04c0,0.04-0.06,0.04-0.06,0.09l0.07,0.04C95.19,2.61,95.19,2.56,95.19,2.52z M72.96,2.41l0.07,0.04
	c0.07,0,0.07,0,0.13-0.05l-0.07-0.04C73.02,2.37,72.96,2.41,72.96,2.41z M183.21,5.88l0.06-0.04c-0.07,0-0.07-0.04-0.13-0.04
	l-0.06,0.04C183.14,5.84,183.21,5.88,183.21,5.88z M72,6.24l0.07,0.04c0.07,0,0.07,0,0.13-0.05L72.13,6.2C72.07,6.2,72,6.24,72,6.24
	z M111.95,2.23c-0.07,0-0.06,0.04-0.13,0.05l0.07,0.04c0.07,0,0.07,0,0.13-0.05C112.02,2.27,112.02,2.27,111.95,2.23z M72.08,6.63
	l-0.07-0.04c0,0.04-0.06,0.04-0.06,0.09l0.07,0.04C72.08,6.68,72.08,6.68,72.08,6.63z M98.7,5.6l-0.07-0.04
	c0,0.04-0.06,0.04-0.06,0.09l0.07,0.04C98.64,5.69,98.7,5.65,98.7,5.6z M113.05,1.69c0.06,0,0.06-0.04,0.13-0.05l-0.07-0.04
	c-0.06,0-0.06,0-0.13,0.05C112.98,1.65,112.98,1.69,113.05,1.69z M200.96,6.09l0.06-0.04c-0.07,0-0.07-0.04-0.13-0.04l-0.06,0.04
	C200.89,6.05,200.96,6.04,200.96,6.09z M204.52,2.54c0.07,0,0.06-0.04,0.13-0.05l-0.07-0.04c-0.07,0-0.07,0-0.13,0.05
	C204.46,2.5,204.52,2.5,204.52,2.54z M113.83,1.89l-0.06,0.04c0,0.04,0,0.04,0.07,0.09l0.06-0.04C113.9,1.97,113.9,1.93,113.83,1.89
	z M70.32,6.54c0,0.04,0.07,0.04,0.07,0.09l0.06-0.04c0-0.04,0-0.04-0.07-0.09L70.32,6.54z M70.16,5.25L70.1,5.29
	c0,0.04,0,0.04,0.07,0.09l0.06-0.04C70.23,5.29,70.16,5.29,70.16,5.25z M214.05,4.24l0.06-0.04c-0.07,0-0.07-0.04-0.13-0.04
	l-0.06,0.04C213.98,4.19,214.05,4.24,214.05,4.24z M70.05,6.07c-0.07,0-0.06,0.04-0.13,0.05l0.07,0.04c0.06,0,0.06,0,0.13-0.05
	C70.11,6.11,70.11,6.11,70.05,6.07z M87.66,5.85c-0.06,0-0.06,0.04-0.13,0.05l0.07,0.04c0.06,0,0.06,0,0.13-0.05
	C87.72,5.89,87.72,5.89,87.66,5.85z M69.64,5.13l-0.07-0.04c0,0.04-0.06,0.04-0.06,0.09l0.07,0.04C69.57,5.17,69.57,5.17,69.64,5.13
	z M68.24,6.59l0.07,0.04c0.06,0,0.06,0,0.13-0.05l-0.07-0.04C68.3,6.59,68.24,6.59,68.24,6.59z M93.52,6.24l0.07,0.04
	c0-0.04,0.06-0.04,0.06-0.09l-0.07-0.04C93.58,6.15,93.58,6.19,93.52,6.24z M114.74,2l0.07,0.04c0.06,0,0.06,0,0.13-0.05l-0.07-0.04
	C114.87,1.99,114.81,2,114.74,2z M86.18,6.66l-0.07-0.04c0,0.04-0.06,0.04-0.06,0.09l0.07,0.04C86.12,6.71,86.12,6.66,86.18,6.66z
	 M115.36,3.37c-0.06,0-0.06,0.04-0.13,0.05l0.07,0.04c0.06,0,0.06,0,0.13-0.05C115.36,3.41,115.36,3.41,115.36,3.37z M67.25,2.84
	c0-0.04-0.07-0.04-0.07-0.09L67.11,2.8c0,0.04,0,0.04,0.07,0.09L67.25,2.84z M66.66,5.8c0,0.04,0.07,0.04,0.07,0.09l0.06-0.04
	c0-0.04,0-0.04-0.07-0.09C66.73,5.8,66.73,5.8,66.66,5.8z M119.33,6.57c0.07,0,0.13-0.05,0.19-0.09c-0.07-0.04-0.13-0.13-0.2-0.17
	c-0.06,0-0.13,0.05-0.32,0.09C119.13,6.49,119.2,6.57,119.33,6.57z M117.19,6.84c0.07,0,0.13,0.04,0.13,0.04
	c0.06,0,0.13-0.05,0.19-0.09c-0.06,0-0.13-0.04-0.26-0.08C117.32,6.75,117.25,6.79,117.19,6.84z M124.21,6.77
	c0,0.04,0,0.13,0.07,0.17c0.07,0,0.13-0.05,0.13-0.05c0-0.04,0-0.13-0.01-0.22C124.34,6.72,124.21,6.77,124.21,6.77z M135.64,6.55
	c0.07,0,0.13,0,0.2,0c-0.07-0.04-0.07-0.13-0.13-0.13c-0.07,0-0.2,0-0.32,0.05C135.51,6.51,135.58,6.55,135.64,6.55z M54.54,7.37
	c0.06,0,0.19,0,0.26-0.05c0-0.04-0.07-0.09-0.07-0.09c-0.06,0-0.19,0-0.32,0.01C54.54,7.33,54.54,7.37,54.54,7.37z M56.23,7.29
	c0.07,0,0.19,0,0.26-0.05c0-0.04-0.07-0.09-0.07-0.09c-0.06,0-0.19,0-0.32,0.01C56.16,7.25,56.23,7.29,56.23,7.29z M36.28,7.69
	c0-0.04,0.06-0.04,0.06-0.09l-0.07-0.04c0,0.04-0.06,0.04-0.06,0.09C36.28,7.65,36.28,7.69,36.28,7.69z M53.7,7.43
	c0.06,0,0.06,0,0.13-0.05l-0.07-0.04c-0.06,0-0.06,0-0.13,0.05C53.63,7.39,53.63,7.43,53.7,7.43z M54.09,7.38
	c0,0.04,0,0.04,0.07,0.09l0.06-0.04c0-0.04,0-0.04-0.07-0.09C54.09,7.38,54.09,7.38,54.09,7.38z M57.98,7.21l0.07,0.04
	c0.07,0,0.07,0,0.13-0.05l-0.07-0.04C58.11,7.16,58.05,7.16,57.98,7.21z M84.84,7.69l0.07,0.04c0.07,0,0.07,0,0.13-0.05l-0.07-0.04
	C84.9,7.69,84.84,7.69,84.84,7.69z M122.2,7.11c0.07,0,0.07,0,0.13-0.05l-0.06-0.04c-0.07,0-0.07,0-0.13,0.05
	C122.14,7.07,122.14,7.11,122.2,7.11z M80.93,7.39L81,7.43c0.06,0,0.06,0,0.13-0.05l-0.07-0.04C81,7.34,81,7.34,80.93,7.39z
	 M127.73,1.62c0.06,0,0.06-0.04,0.13-0.05c-0.07-0.04-0.07-0.04-0.13-0.08l-0.06,0.04C127.67,1.58,127.73,1.58,127.73,1.62z
	 M128.78,1.68c0.06,0,0.06-0.04,0.13-0.05c-0.07-0.04-0.07-0.04-0.13-0.08l-0.06,0.04C128.71,1.64,128.77,1.64,128.78,1.68z
	 M138.31,6.58c0,0.04,0,0.09,0.07,0.09c0,0,0.07,0,0.13,0c0-0.04-0.07-0.04-0.07-0.09C138.38,6.58,138.38,6.58,138.31,6.58z
	 M91.72,7.06l0.07,0.04c0.07,0,0.07,0,0.13-0.05l-0.07-0.04C91.85,7.06,91.78,7.06,91.72,7.06z M213.52,1.09
	c0.06,0,0.13-0.05,0.19-0.05c-0.07-0.04-0.13-0.08-0.13-0.08S213.59,1,213.52,1.09z M67.78,6.51c0-0.22-0.26-0.12-0.39-0.16
	c0,0.04,0,0.09,0,0.13C67.52,6.52,67.65,6.52,67.78,6.51z"/>
</svg>