<svg width="204" height="8" viewBox="0 0 204 8" fill="none" xmlns="http://www.w3.org/2000/svg">
<path d="M52.4067 2.4467C52.4639 2.2291 52.6455 2.09569 52.7691 2.1366C53.0767 2.17394 53.0112 1.95872 53.1331 1.91307C53.2575 1.99726 53.3819 2.08145 53.5063 2.16563C53.6299 2.20654 53.8148 2.24626 53.8754 2.20179C54.1183 2.0672 54.2419 2.10811 54.2461 2.32452C54.2469 2.3678 54.431 2.36424 54.4932 2.40633C54.4924 2.36305 54.4916 2.31977 54.4907 2.27648L54.4285 2.23439C54.3646 2.10573 54.2999 1.93379 54.3605 1.88932C54.7262 1.75235 54.6093 2.0577 54.7337 2.14189C54.7959 2.18398 54.8589 2.26936 54.9211 2.31146C54.9834 2.35355 55.0439 2.30908 55.1061 2.35118C55.1053 2.30789 55.1044 2.26461 55.1036 2.22133C55.1019 2.13477 55.038 2.00611 55.0994 2.00492C55.2818 1.9148 55.3449 2.00017 55.4693 2.08436C55.5937 2.16855 55.7215 2.42587 55.8375 2.07724C56.389 2.02327 56.9379 1.83946 57.4961 2.13175C57.6819 2.21475 57.6836 2.30131 57.8021 2.08253C57.9215 1.90703 58.3519 1.942 58.5411 2.19813C58.5411 2.19813 58.5411 2.19813 58.5402 2.15485C58.4788 2.15603 58.4175 2.15722 58.4183 2.2005C58.4183 2.2005 58.4191 2.24379 58.42 2.28707C58.4814 2.28588 58.4805 2.2426 58.5411 2.19813C58.721 1.97816 58.8429 1.9325 58.9639 1.84356C59.2069 1.70897 59.1489 1.88328 59.2111 1.92538C59.2741 2.01075 59.4582 2.00719 59.5818 2.0481C59.5221 2.13585 59.4624 2.2236 59.4019 2.26807C59.5246 2.2657 59.586 2.26451 59.7087 2.26214C59.8315 2.25976 60.0147 2.21292 60.1988 2.20936C60.1383 2.25382 60.0778 2.29829 60.0181 2.38605C60.0181 2.38605 60.082 2.5147 60.0811 2.47142C60.2039 2.46905 60.3258 2.42339 60.5099 2.41983C60.4468 2.33445 60.3232 2.29354 60.1988 2.20936C60.0711 1.95204 59.8861 1.91232 59.5818 2.0481C59.6962 1.61291 59.6945 1.52634 60.1888 1.68997C60.4981 1.81388 60.9244 1.63244 61.2354 1.84292C61.2976 1.88501 61.4809 1.83817 61.6036 1.83579C61.9079 1.70001 62.2156 1.73736 62.4022 1.86364C62.4644 1.90574 62.5872 1.90336 62.7099 1.90099C62.7099 1.90099 62.7082 1.81442 62.7688 1.76996C62.8898 1.68102 63.0723 1.59089 63.1336 1.5897C63.3186 1.62942 63.3825 1.75808 63.1395 1.89268C63.079 1.93715 63.5127 2.14525 63.6952 2.05512C63.8776 1.96499 64.0592 1.83159 64.3063 1.9134C64.3063 1.9134 64.3063 1.9134 64.245 1.91459C64.2458 1.95787 64.2466 2.00115 64.308 1.99997C64.308 1.99997 64.3694 1.99878 64.4307 1.99759C64.4299 1.95431 64.3685 1.9555 64.3063 1.9134C64.2408 1.69818 64.4224 1.56477 64.6065 1.56121C65.0361 1.5529 65.5253 1.45684 65.8389 1.79716C65.965 1.96791 66.2659 1.659 66.3937 1.91632C66.635 1.69516 66.8821 1.77698 67.1284 1.81551C67.3125 1.81195 67.4319 1.63644 67.6808 1.80482C67.8052 1.88901 68.0448 1.58129 68.2331 1.79414C68.2339 1.83742 68.2953 1.83623 68.3567 1.83505C68.7854 1.78345 69.521 1.72593 69.9531 1.84746C70.2002 1.92928 70.3238 1.97018 70.5659 1.79231C70.6264 1.74784 70.9324 1.69862 70.9947 1.74071C71.3057 1.95119 71.5478 1.77331 71.7302 1.68319C72.0951 1.50293 72.0943 1.45965 72.3439 1.67131C72.5314 1.84088 72.7172 1.92388 73.0215 1.7881C73.272 2.04304 73.4527 1.86635 73.6352 1.77623C73.6352 1.77623 74.6146 1.62739 74.6768 1.66948C74.8012 1.75367 74.9248 1.79458 75.1072 1.70445C75.1677 1.65998 75.3518 1.65642 75.4132 1.65523C75.6612 1.78033 75.8486 1.9499 76.2757 1.81174C76.5817 1.76252 76.8902 1.84315 77.2584 1.83603C77.3198 1.83484 77.3803 1.79037 77.4417 1.78918C77.6863 1.74115 77.6199 1.48265 77.9259 1.43343C78.1714 1.42868 78.2992 1.686 78.5413 1.50812C78.6018 1.46365 78.7254 1.50456 78.7876 1.54666C78.9726 1.58638 78.9793 1.93263 79.3433 1.7091C79.4652 1.66344 79.7754 1.83063 80.0217 1.86917C80.4538 1.9907 80.9422 1.85136 81.3087 1.75767C81.6753 1.66398 81.9224 1.7458 82.2284 1.69658C82.2898 1.69539 82.2906 1.73868 82.3528 1.78077C82.2915 1.78196 82.2309 1.82643 82.1696 1.82761C82.1082 1.8288 82.0468 1.82999 81.9855 1.83118C81.9241 1.83236 81.8627 1.83355 81.8014 1.83474C81.8636 1.87683 81.8644 1.92011 81.9266 1.96221C81.9888 2.0043 82.1132 2.08849 82.2368 2.1294C82.2982 2.12821 82.4814 2.08137 82.542 2.0369C82.6017 1.94915 82.5386 1.86377 82.5983 1.77602C82.6589 1.73155 82.7185 1.6438 82.8413 1.64143C83.5155 1.58509 84.1964 1.875 84.9286 1.64434C85.1119 1.5975 84.7521 2.03744 85.2388 1.81154C85.4213 1.72141 85.5423 1.63247 85.6634 1.54353C85.7239 1.49906 85.9097 1.58207 85.9097 1.58207C85.9156 1.88504 86.1039 2.09789 86.2316 2.35521C86.2324 2.39849 86.1719 2.44296 86.1122 2.53071C86.1131 2.57399 86.0525 2.61846 86.0525 2.61846C86.1769 2.70265 86.6057 2.65106 86.7259 2.51884C86.8461 2.38662 86.9664 2.25439 86.657 2.13048C86.5334 2.08958 86.3477 2.00657 86.346 1.92001C86.2829 1.83463 86.3418 1.7036 86.4015 1.61585C86.4637 1.65795 86.5873 1.69885 86.6495 1.74095C86.7108 1.73976 86.773 1.78186 86.8336 1.73739C87.5053 1.5512 88.1223 1.71245 88.7974 1.6994C89.2269 1.69108 89.6557 1.63949 90.0836 1.54462C90.3282 1.49659 90.3888 1.45212 90.4543 1.66734C90.5199 1.88256 90.7645 1.83453 90.9478 1.78769C91.0697 1.74203 90.699 1.61931 90.9436 1.57128C91.0655 1.52562 91.2513 1.60862 91.4354 1.60506C91.7422 1.59913 92.1079 1.46216 92.2937 1.54516C92.6031 1.66907 92.8452 1.49119 93.1529 1.52854C93.5833 1.56351 93.8287 1.55876 94.0162 1.72833C94.1406 1.81252 94.2037 1.89789 94.3281 1.98208C94.3903 2.02418 94.513 2.0218 94.5744 2.02062C94.6349 1.97615 94.6946 1.8884 94.6324 1.8463C94.5694 1.76092 94.3836 1.67792 94.6274 1.58661C94.9939 1.49292 95.4201 1.31148 95.7295 1.43539C95.9153 1.5184 96.0372 1.47274 96.1591 1.42708C96.4659 1.42115 96.3465 1.59665 96.349 1.7265C96.2885 1.77096 96.228 1.81543 96.1069 1.90437C96.1069 1.90437 96.1069 1.90437 96.1061 1.86109C96.0447 1.86228 95.9833 1.86346 95.9842 1.90675C95.9842 1.90675 95.985 1.95003 95.9859 1.99331C96.0472 1.99212 96.0464 1.94884 96.1069 1.90437C96.1666 1.81662 96.2271 1.77215 96.349 1.7265C96.4718 1.72412 96.5953 1.76503 96.6559 1.72056C97.2032 1.45018 97.2032 1.45018 97.8202 1.61144C98.0051 1.65116 98.3153 1.81835 98.37 1.47091C98.37 1.47091 98.6146 1.42288 98.6768 1.46497C98.8004 1.50588 98.8643 1.63454 98.9887 1.71873C99.0484 1.63098 99.1073 1.49994 99.2292 1.45429C99.4738 1.40626 99.7798 1.35704 100.025 1.35229C100.393 1.34517 100.765 1.51117 101.129 1.28764L101.19 1.28645C101.504 1.62677 101.808 1.49099 102.174 1.35402C102.235 1.30955 102.663 1.25796 102.608 1.56212C102.611 1.73524 102.917 1.68603 103.101 1.68247C103.285 1.63562 103.466 1.50221 103.648 1.36881C103.709 1.36762 103.832 1.36525 103.833 1.40853C103.897 1.53719 103.654 1.71506 103.962 1.75241C104.27 1.78975 104.579 1.91366 104.882 1.69132C104.941 1.60357 105.063 1.55791 105.185 1.51225C105.306 1.42332 105.49 1.41975 105.615 1.50394C105.74 1.63141 105.924 1.62785 105.984 1.5401C106.224 1.27566 106.531 1.26973 106.899 1.21932C107.327 1.16773 107.571 1.07641 107.943 1.2857C108.068 1.36989 108.375 1.36396 108.497 1.3183C108.984 1.13567 109.293 1.2163 109.726 1.38112C109.788 1.42321 110.155 1.37281 110.154 1.32953C110.27 0.937614 110.645 1.27675 110.827 1.18662C111.077 1.44156 111.444 1.34788 111.813 1.38403C112.12 1.3781 112.37 1.58976 112.735 1.45279C112.857 1.40713 113.103 1.44567 113.288 1.48539C113.657 1.52155 114.089 1.5998 114.456 1.54939C114.884 1.45452 115.134 1.66618 115.44 1.61696C115.685 1.61221 115.93 1.56418 116.174 1.47287C116.478 1.33709 116.904 1.15565 117.339 1.40703C117.462 1.44794 117.705 1.31334 117.951 1.30859C118.196 1.30385 118.442 1.2991 118.627 1.33882C118.812 1.42182 118.936 1.46273 119.118 1.32932C119.178 1.28485 119.424 1.2801 119.545 1.23445C119.607 1.23326 119.669 1.27535 119.73 1.27417C119.67 1.31863 119.609 1.31982 119.548 1.36429C119.487 1.40876 119.428 1.49651 119.306 1.54217C119.368 1.58426 119.43 1.62636 119.492 1.62517C120.045 1.65777 120.599 1.73365 121.084 1.42117C121.332 1.54627 121.579 1.62809 121.885 1.57887C121.946 1.57768 122.006 1.48993 122.067 1.44546C122.503 1.78341 122.866 1.51659 123.354 1.33397C123.354 1.37725 123.233 1.4229 123.233 1.4229C123.296 1.55156 123.36 1.63694 123.423 1.7656C123.484 1.72113 123.545 1.71994 123.544 1.67666C123.543 1.5901 123.479 1.46144 123.354 1.33397C123.963 1.10568 123.963 1.10568 124.457 1.22603C124.518 1.22484 124.581 1.31022 124.58 1.26694C125.129 1.08313 125.747 1.28766 126.236 1.1916C126.481 1.14357 126.544 1.22895 126.667 1.22657C127.159 1.30364 127.649 1.25086 128.074 0.982859C128.317 0.848264 128.501 0.844702 128.689 1.01427C128.751 1.05636 128.752 1.14293 128.753 1.18621C128.814 1.14174 128.812 1.05518 128.873 1.01071C128.993 0.878487 129.177 0.874925 129.241 1.00358C129.304 1.08896 129.369 1.2609 129.37 1.34746C129.373 1.47731 129.435 1.51941 129.556 1.43047C129.617 1.386 129.676 1.29825 129.675 1.25496C129.675 1.21168 129.612 1.16959 129.551 1.17078C129.489 1.12868 129.488 1.0854 129.425 1.00002C129.486 0.998834 129.609 0.99646 129.67 0.995273C129.916 0.990524 130.041 1.118 130.107 1.33322C130.107 1.33322 130.107 1.33322 130.106 1.28994C130.044 1.29112 129.983 1.29231 129.984 1.33559C129.984 1.33559 129.985 1.37887 129.986 1.42216C130.047 1.42097 130.046 1.37769 130.107 1.33322C130.227 1.201 130.347 1.06878 130.47 1.0664C130.715 1.01837 130.967 1.35988 131.269 1.09425C131.45 0.960844 131.756 0.911626 132.002 0.906877C132.308 0.900941 132.615 0.895004 132.925 1.01891C133.172 1.10073 133.664 1.1778 133.785 1.04558C134.271 0.776386 134.703 0.941203 135.133 0.932892C135.194 0.931705 135.38 1.01471 135.381 1.05799C135.384 1.23112 135.568 1.22756 135.69 1.1819C136.055 1.00165 136.484 0.950056 136.914 0.985027C137.099 0.981466 137.342 0.890153 137.526 0.886591C137.711 0.88303 137.956 0.878281 138.08 0.96247C138.329 1.13085 138.446 0.825501 138.632 0.908503C138.755 0.949411 139.125 1.02885 139.119 0.725878C139.119 0.725878 139.425 0.67666 139.548 0.674285C140.47 0.743041 141.328 0.639856 142.248 0.622048C142.31 0.62086 142.372 0.662956 142.433 0.661768C142.742 0.742396 143.05 0.823024 143.292 0.601865C143.472 0.425176 143.72 0.506991 143.904 0.503429C144.15 0.541962 144.335 0.581682 144.519 0.578121C144.826 0.572185 145.071 0.567436 145.378 0.561499C145.624 0.556751 145.87 0.595284 146.177 0.589348C146.422 0.584599 146.728 0.492099 146.851 0.533006C147.1 0.701386 147.22 0.569165 147.403 0.522322C147.769 0.385352 147.839 0.816985 148.265 0.635546C148.447 0.545421 148.877 0.53711 149.063 0.620113C149.31 0.701928 149.371 0.700741 149.554 0.610615C149.858 0.474833 150.225 0.381146 150.594 0.417304C150.84 0.455837 151.148 0.493183 151.453 0.400684C151.636 0.35384 152.007 0.476562 152.254 0.558377C152.316 0.600472 152.441 0.727944 152.5 0.596911C152.616 0.248281 153.176 0.627133 153.232 0.322972C153.484 0.664479 153.845 0.267818 154.153 0.348446C154.462 0.429074 154.826 0.248823 155.137 0.416015C155.447 0.583206 155.808 0.229827 156.181 0.439114C156.243 0.481208 156.548 0.388709 156.793 0.340677C156.976 0.293834 157.22 0.202521 157.282 0.244616C157.655 0.497184 158.083 0.40231 158.452 0.438469C158.637 0.478189 159.007 0.55763 159.001 0.254656L159.062 0.210187C159.617 0.329348 160.225 0.0577842 160.719 0.178132C161.027 0.25876 161.271 0.167447 161.517 0.20598C161.764 0.244513 161.889 0.371985 162.255 0.278298C162.5 0.230267 162.805 0.137767 163.111 0.0885486C163.173 0.0873613 163.233 0.0428924 163.294 0.0417054C163.665 0.164428 164.154 0.068366 164.463 0.148994C164.833 0.228434 165.076 0.0938398 165.384 0.174468C165.693 0.255095 166 0.249159 166.368 0.242036C166.429 0.240849 166.55 0.15191 166.611 0.107441C166.671 0.062972 166.854 -0.0271533 166.916 0.0149415C167.473 0.263948 168.088 0.295358 168.698 0.110358C168.82 0.0647017 169.07 0.276362 169.253 0.229518C169.436 0.182675 169.557 0.0937369 169.744 0.220021C169.868 0.260929 170.173 0.168429 170.236 0.253805C170.422 0.38009 170.668 0.375341 170.852 0.371779C171.525 0.228874 172.263 0.344473 172.939 0.374695C173.062 0.372321 173.184 0.326665 173.306 0.281008C174.163 0.134542 174.96 0.119108 175.824 0.318896C176.009 0.358617 176.252 0.267304 176.377 0.351493C176.563 0.477778 176.809 0.473029 176.993 0.469467C177.177 0.465906 177.359 0.332498 177.546 0.502064C177.546 0.502064 177.669 0.499689 177.73 0.498502C178.277 0.184844 178.894 0.346099 179.446 0.335415C179.814 0.328291 180.243 0.276699 180.673 0.268388C181.102 0.260078 181.474 0.426082 181.899 0.201362C182.02 0.112424 182.33 0.236334 182.575 0.231585C183.067 0.265369 183.496 0.257058 183.987 0.204278C184.477 0.151499 185.026 -0.0323136 185.584 0.259975C185.77 0.342977 186.262 0.420043 186.565 0.197697C187.12 0.36014 187.727 0.00201249 188.223 0.252206C188.348 0.336396 188.655 0.33046 188.836 0.197052C189.08 0.10574 189.143 0.191116 189.146 0.364244C189.152 0.623935 189.214 0.66603 189.518 0.530248C189.64 0.484592 189.761 0.395654 189.883 0.349998L190.375 0.383782C190.619 0.335751 190.864 0.28772 191.109 0.282971C191.294 0.27941 191.48 0.405694 191.663 0.35885C192.091 0.263976 192.4 0.344603 192.65 0.599546C192.713 0.641641 192.897 0.63808 193.02 0.678987C193.02 0.678987 193.02 0.678987 192.959 0.680174C192.96 0.723456 192.961 0.766738 193.022 0.765551C193.022 0.765551 193.083 0.764363 193.145 0.763176C193.144 0.719894 193.082 0.721082 193.02 0.678987C192.957 0.593611 193.018 0.549141 193.016 0.462577C193.077 0.46139 193.139 0.460202 193.201 0.502297L193.263 0.544392C194.116 0.224798 194.979 0.381305 195.839 0.407965C195.9 0.406778 196.023 0.404404 196.084 0.359934C196.388 0.224153 196.269 0.399655 196.27 0.486219C196.271 0.529501 196.333 0.571595 196.395 0.570408C196.761 0.476721 197.128 0.383034 197.378 0.637977C197.683 0.502195 198.052 0.581635 198.358 0.489135C198.541 0.442291 198.663 0.396635 198.849 0.52292C198.912 0.565014 199.096 0.561452 199.219 0.60236C199.897 0.719146 200.63 0.531772 201.249 0.822874C201.312 0.864968 201.613 0.59934 201.681 0.901127C201.619 0.902314 201.559 0.946783 201.497 0.94797C201.56 0.990065 201.622 1.03216 201.622 1.03216C201.75 1.28948 202.178 1.1946 202.366 1.40745C202.554 1.6203 202.802 1.7454 202.806 1.96181C202.81 2.17822 203.244 2.38631 202.819 2.61103C202.636 2.70116 203.131 2.86479 202.826 3.00057C202.522 3.13635 202.831 3.26026 202.834 3.39011C202.78 3.78083 202.788 4.21365 202.673 4.60557C202.617 4.86644 202.128 4.96251 202.133 5.26548C202.134 5.30876 201.882 4.96725 201.827 5.27142C201.828 5.35798 201.892 5.48664 201.955 5.57201C202.02 5.74396 201.96 5.83171 201.653 5.79436C201.53 5.79674 201.347 5.84358 201.347 5.88686C201.415 6.18865 201.108 6.19458 200.8 6.15724C200.555 6.16199 200.307 6.03689 200.065 6.21477C200.004 6.25923 199.819 6.21951 199.757 6.17742C199.509 6.05232 199.263 6.01379 198.958 6.14957C198.714 6.24088 198.53 6.24445 198.344 6.11816L198.22 6.07725C198.1 6.20947 197.979 6.29841 197.797 6.43182C197.611 6.34882 197.485 6.13478 197.3 6.13834C197.055 6.14309 196.875 6.36306 196.686 6.10693C196.322 6.33047 195.887 6.07909 195.521 6.17277C194.97 6.27002 194.601 6.23386 194.228 5.9813C194.166 5.9392 193.981 5.89948 193.859 5.94514C193.431 6.04001 193.002 6.0916 192.699 6.27067C192.394 6.40645 192.33 6.27779 192.145 6.23807C191.713 6.11653 191.159 6.04066 190.669 6.09344C190.424 6.09819 190.179 6.14622 189.934 6.15096C189.688 6.15571 189.379 6.0318 189.138 6.25296C188.95 6.0834 188.765 6.04368 188.523 6.22155C188.523 6.22155 188.4 6.22393 188.339 6.22511C187.97 6.18896 187.657 5.89192 187.232 6.11664C186.928 6.25242 186.494 6.04432 186.129 6.22457C186.007 6.27023 185.761 6.2317 185.576 6.19198C185.207 6.15582 184.775 6.03428 184.532 6.16888C184.167 6.34913 183.914 5.96434 183.549 6.14459C183.367 6.278 182.874 6.15765 182.506 6.16477C182.26 6.16952 182.074 6.08652 181.89 6.09008C181.829 6.09127 181.705 6.05036 181.705 6.05036C181.219 6.27627 180.665 6.20039 180.173 6.1666C179.927 6.17135 179.562 6.30832 179.499 6.22295C179.249 6.01128 179.008 6.27573 178.761 6.19391C178.515 6.15538 178.27 6.20341 178.026 6.25144C177.72 6.30066 177.29 6.30897 176.981 6.18506C176.363 5.98052 175.749 5.99239 175.076 6.09202C174.524 6.14598 173.97 6.02682 173.417 6.03751C172.987 6.00254 172.556 5.92428 172.129 6.10572C171.825 6.2415 171.573 5.89999 171.207 6.03696C171.025 6.12709 170.595 6.1354 170.284 5.92493C170.222 5.88283 170.039 5.92968 169.917 5.97533C169.55 6.06902 169.183 6.11942 168.814 6.08327C168.445 6.04711 168.073 5.8811 167.71 6.14792C167.521 5.89179 167.034 6.11769 166.784 5.86275L166.661 5.86513C166.297 6.08866 165.866 6.01041 165.375 6.0199C165.129 6.02465 164.949 6.24462 164.76 5.98849C164.76 5.98849 164.698 5.9464 164.699 5.98968C164.212 6.21559 163.655 5.96658 163.104 6.06383C162.921 6.11067 162.737 6.15752 162.553 6.1178C162.245 6.08045 161.94 6.17295 161.629 6.00576C161.506 5.96485 161.142 6.18839 160.958 6.19195C160.651 6.19788 160.281 6.11844 159.973 6.0811C159.543 6.04613 159.113 6.01115 158.682 5.97618C158.621 5.97737 158.5 6.06631 158.438 6.0675C158.009 6.07581 157.64 6.03965 157.212 6.13452C156.845 6.22821 156.411 6.02011 155.984 6.15827C155.923 6.15945 155.798 6.03198 155.674 5.99107C155.488 5.86479 155.365 5.86716 155.245 6.04267C155.246 6.08595 155.063 6.13279 154.94 6.13517C154.573 6.18557 154.138 5.93419 153.714 6.20219C153.402 5.94844 153.096 5.99766 152.73 6.13462C152.355 5.79549 152.053 6.06112 151.75 6.24018C151.563 6.1139 151.447 6.46253 151.198 6.25087C151.073 6.16668 150.706 6.21708 150.581 6.13289C150.395 6.00661 150.271 5.9657 150.275 6.18211L150.215 6.22658C150.031 6.23014 149.847 6.23371 149.662 6.19398C149.477 6.15426 149.29 6.02798 149.23 6.07245C149.047 6.16258 148.925 6.16495 148.738 6.03867C148.613 5.91119 148.244 5.91832 148.671 5.73688C148.732 5.73569 148.73 5.64913 148.791 5.60466C148.73 5.60585 148.606 5.56494 148.606 5.56494C148.424 5.69835 148.177 5.61653 147.997 5.8365C147.758 6.14423 147.202 5.98178 146.899 6.16085C146.894 5.90115 146.587 5.90709 146.34 5.82527C145.97 5.74583 145.664 5.83833 145.424 6.10278C145.363 6.14724 145.303 6.19171 145.242 6.1929C145.18 6.19409 144.996 6.19765 144.935 6.19884C144.501 5.99074 144.013 6.13008 143.585 6.22496C143.463 6.27061 143.217 6.27536 143.154 6.18998C142.843 5.97951 142.352 5.98901 142.108 6.03704C141.802 6.08626 141.554 6.00444 141.433 6.0501C141.189 6.14141 140.942 6.0596 140.696 6.06435C140.389 6.07028 140.388 5.98372 140.631 5.84912C140.568 5.80703 140.506 5.76493 140.445 5.76612C140.075 5.68668 139.708 5.78037 139.405 5.95943C139.344 6.0039 139.346 6.09046 139.346 6.09046C139.408 6.13256 139.531 6.13018 139.593 6.17228C139.533 6.21675 139.41 6.21912 139.349 6.26359C139.106 6.39819 138.923 6.44503 138.675 6.31993C138.365 6.15274 137.873 6.11896 137.568 6.21146C137.08 6.39408 136.954 6.22333 136.706 6.05495C136.642 5.96957 136.458 5.92985 136.334 5.88895C136.273 5.89013 136.212 5.9346 136.151 5.93579C135.909 6.11367 135.605 6.29273 135.237 6.29985C135.053 6.30341 134.868 6.26369 134.685 6.31054C134.5 6.3141 134.316 6.27438 134.131 6.27794C133.947 6.2815 133.767 6.45819 133.64 6.24416L133.578 6.24534C133.457 6.33428 133.275 6.42441 133.154 6.51335C133.091 6.42797 132.965 6.3005 132.902 6.21512C132.902 6.21512 132.78 6.2175 132.718 6.21868C132.414 6.35447 131.681 6.54184 131.558 6.54421C131.313 6.54896 131.187 6.42149 131.123 6.24955C131.06 6.16417 131.119 6.07642 131.118 5.98986C131.055 5.90448 130.931 5.86358 130.869 5.82148C130.809 5.90923 130.811 5.99579 130.751 6.08355C130.752 6.12683 130.753 6.17011 130.754 6.21339C130.632 6.25905 130.51 6.3047 130.389 6.39364C130.327 6.39483 130.267 6.4393 130.205 6.44049C129.958 6.35867 129.588 6.27923 129.405 6.32607C129.404 6.28279 129.404 6.23951 129.523 6.06401C129.583 5.97626 129.523 6.06401 129.463 6.15176C129.463 6.15176 129.525 6.19386 129.526 6.23714C129.647 6.1482 129.708 6.10373 129.829 6.01479C129.768 6.01598 129.705 5.97388 129.523 6.06401C129.404 6.23951 129.342 6.2407 129.281 6.24189C129.343 6.28398 129.405 6.32607 129.405 6.32607C129.408 6.45592 129.351 6.7168 129.041 6.54961C128.855 6.4666 128.368 6.64923 128.422 6.25851C128.482 6.21404 128.543 6.16957 128.664 6.08063C128.355 6 128.108 5.91819 127.799 5.79428C127.8 5.83756 127.8 5.83756 127.8 5.88084C127.744 6.14172 127.745 6.185 127.497 6.05991C127.125 5.8939 126.822 6.07296 126.578 6.16428C126.274 6.30006 126.275 6.34334 125.966 6.26271C125.905 6.2639 125.843 6.26509 125.782 6.26627C125.598 6.26984 125.414 6.2734 125.229 6.23368C125.044 6.19396 124.798 6.15542 124.673 6.07124C124.486 5.90167 124.367 6.12045 124.183 6.12401C123.938 6.17205 123.748 5.87263 123.69 6.00367C123.632 6.22126 123.385 6.13945 123.264 6.22839C123.021 6.36298 123.02 6.27642 123.017 6.14657C123.016 6.10329 122.893 6.10566 122.831 6.06357C122.839 6.45311 122.343 6.20291 122.1 6.33751C121.858 6.51538 121.667 6.17269 121.421 6.13416C121.359 6.13534 121.357 6.0055 121.356 5.96222C121.295 6.00669 121.296 6.04997 121.236 6.09444C121.115 6.22666 120.996 6.40216 120.685 6.19169C120.684 6.1484 120.44 6.19644 120.44 6.23972C120.324 6.58835 119.892 6.46681 119.828 6.33815C119.701 6.08084 119.335 6.2178 119.088 6.13599C118.779 6.05536 118.534 6.06011 118.651 5.75476C118.651 5.75476 118.588 5.71267 118.526 5.67057C118.466 5.71504 118.467 5.75832 118.405 5.75951C118.168 6.19708 118.168 6.19708 117.489 5.99373C117.304 5.95401 117.243 5.9552 117.123 6.1307C117.005 6.39276 116.884 6.43842 116.574 6.31451C116.388 6.23151 116.264 6.14732 116.14 6.10641C116.078 6.06432 115.894 6.06788 115.894 6.06788C115.472 6.46573 115.402 6.0341 115.216 5.90781C115.03 5.82481 114.845 5.78509 114.66 5.74537C114.599 5.74655 114.538 5.79102 114.477 5.79221C114.417 5.87996 114.296 5.9689 114.236 6.05665C113.998 6.40766 113.875 6.41003 113.439 6.11537C113.191 5.94699 113.062 5.64639 112.572 5.69917C112.265 5.70511 112.447 5.61498 112.568 5.52604L112.505 5.44066C112.444 5.44185 112.382 5.39976 112.321 5.44423C112.26 5.44541 112.261 5.4887 112.2 5.53316C112.141 5.6642 112.268 5.87823 112.024 5.92626C111.902 5.97192 111.715 5.84564 111.53 5.80592C111.469 5.8071 111.408 5.85157 111.409 5.89485C111.23 6.15811 111.109 6.24705 110.86 6.07867C110.612 5.95357 110.183 6.00516 110.177 5.65891C110.173 5.4425 109.867 5.535 109.809 5.66603C109.689 5.84153 109.569 5.97375 109.26 5.89312C109.199 5.89431 109.197 5.80775 109.197 5.76447C109.318 5.67553 109.378 5.63106 109.132 5.59253C109.07 5.59371 108.949 5.63937 108.949 5.68265C108.952 5.8125 108.77 5.9459 109.079 6.02653C109.14 6.02535 109.204 6.154 109.266 6.1961C109.144 6.24175 109.023 6.28741 108.961 6.2886C108.47 6.2981 108.282 6.08525 108.154 5.82793C108.153 5.78465 108.091 5.74255 108.09 5.69927C108.03 5.74374 107.969 5.78821 107.97 5.83149C107.91 5.91924 107.973 6.00462 107.914 6.09237C107.915 6.13565 107.793 6.22459 107.731 6.1825C107.424 6.14515 106.996 6.24003 106.746 6.02836C106.622 5.94418 105.578 5.92108 105.454 5.88017C105.085 5.84401 105.278 6.31655 104.784 6.15292C104.598 6.06992 104.293 6.16242 104.048 6.21045C103.498 6.3077 102.945 6.2751 102.392 6.28578C102.208 6.28935 101.962 6.25081 101.966 6.46722C101.966 6.46722 101.721 6.51525 101.66 6.51644C101.409 6.2615 101.229 6.43819 101.046 6.52831C100.986 6.57278 100.741 6.62081 100.741 6.62081C100.491 6.36587 100.248 6.50047 100.066 6.63387C100.006 6.67834 99.9433 6.63625 99.882 6.63743C99.8803 6.55087 99.8794 6.50759 99.9997 6.37537C99.9988 6.33209 99.9997 6.37537 99.9383 6.37656C99.9391 6.41984 100.001 6.41865 100.001 6.46193C100.062 6.41746 100.062 6.41746 100.122 6.37299C100.122 6.37299 100.06 6.3309 99.9997 6.37537C99.6331 6.46906 99.3885 6.51709 99.0817 6.52302C98.7748 6.52896 98.774 6.48568 99.0153 6.26452C99.138 6.26214 99.3851 6.34396 99.5029 6.08189C99.502 6.03861 99.5029 6.08189 99.4415 6.08308C99.4423 6.12636 99.5037 6.12517 99.5045 6.16846C99.5651 6.12399 99.5651 6.12399 99.6256 6.07952C99.6256 6.07952 99.5634 6.03742 99.5029 6.08189C99.2591 6.1732 99.0724 6.04692 99.0153 6.26452C98.832 6.31136 98.8261 6.00839 98.584 6.18626C98.4032 6.36295 98.1578 6.3677 97.9115 6.32917C97.6038 6.29182 97.4197 6.29539 97.4255 6.59836C97.4289 6.77149 96.938 6.78098 96.8732 6.60904C96.743 6.22188 96.5008 6.39976 96.257 6.49107C96.0738 6.53791 95.8905 6.58476 95.7694 6.6737C95.587 6.76382 95.4659 6.85276 95.4609 6.59307C95.4601 6.54979 95.2751 6.51007 95.1516 6.46916C94.7792 6.25987 94.1655 6.27174 94.1563 5.79564C94.1554 5.75236 93.9713 5.75592 93.9091 5.71383C93.8478 5.71501 93.7864 5.7162 93.725 5.71739C93.7259 5.76067 93.6653 5.80514 93.7275 5.84723C93.9158 6.06008 94.1033 6.22965 94.2302 6.44368C94.2924 6.48578 94.1713 6.57472 94.173 6.66128C94.0494 6.62037 93.9872 6.57828 93.8628 6.49409C93.8006 6.452 93.7384 6.4099 93.4282 6.24271C93.2433 6.20299 93.3677 6.28718 93.4913 6.32809C93.5526 6.3269 93.6132 6.28243 93.6745 6.28124C93.5493 6.15377 93.4862 6.06839 93.361 5.94092C93.3005 5.98539 93.2399 6.02986 93.366 6.20061C93.6762 6.36781 93.7384 6.4099 93.8006 6.45199C93.7401 6.49646 93.6804 6.58421 93.619 6.5854C93.0045 6.55399 92.39 6.52258 91.7755 6.49117C91.6527 6.49355 91.5283 6.40936 91.4047 6.36845C91.2198 6.32873 90.9121 6.29138 90.7919 6.4236C90.612 6.64358 90.4295 6.7337 90.0597 6.65426C89.8133 6.61573 89.5132 6.96792 89.3821 6.53747C89.3804 6.45091 88.9492 6.37266 88.6415 6.33531C88.3952 6.29678 88.4599 6.46872 88.4624 6.59856C88.343 6.77407 88.343 6.77407 88.1539 6.51794C88.153 6.47465 88.1539 6.51794 88.0925 6.51912C88.0934 6.56241 88.1547 6.56122 88.1556 6.6045C88.2161 6.56003 88.2161 6.56003 88.2766 6.51556C88.2766 6.51556 88.2144 6.47347 88.1539 6.51794C87.8504 6.697 87.6049 6.70175 87.5394 6.48653C87.4763 6.40115 87.536 6.3134 87.5343 6.22684C87.5343 6.22684 87.3494 6.18712 87.3502 6.2304C87.2897 6.27487 87.2914 6.36143 87.2308 6.4059C87.1686 6.3638 87.1678 6.32052 87.1056 6.27843C87.1023 6.1053 86.8576 6.15333 86.7349 6.15571C86.6735 6.15689 86.4911 6.24702 86.4919 6.2903C86.5575 6.50552 86.2506 6.51146 86.0674 6.5583C86.006 6.55949 85.9446 6.56068 85.8833 6.56186C85.811 6.00039 85.3915 6.52808 85.1452 6.48955C84.9602 6.44983 84.782 6.75636 84.4735 6.67573C84.2271 6.6372 84.0439 6.68404 84.1002 6.42317C84.0985 6.3366 84.0347 6.20794 83.9103 6.12375C83.7858 6.03956 83.6009 5.99984 83.5429 6.17416C83.5479 6.43385 83.4268 6.52279 83.057 6.44335C82.8106 6.40481 82.566 6.45285 82.3802 6.36984C82.1322 6.24475 82.0709 6.24593 82.0751 6.46234C82.0137 6.46353 81.9523 6.46472 81.8901 6.42262C81.7674 6.425 81.5816 6.342 81.5824 6.38528C81.0377 6.7855 80.4173 6.45112 79.8658 6.50508C79.6203 6.50983 79.9802 6.06989 79.5556 6.33789C79.2521 6.51696 79.0075 6.56499 78.7578 6.35333C78.6334 6.26914 78.3266 6.27507 78.5762 6.48673C78.5157 6.5312 78.4552 6.57567 78.3938 6.57686C78.0869 6.58279 77.7179 6.54664 77.348 6.4672C77.2867 6.46838 77.348 6.4672 77.3489 6.51048C77.4102 6.50929 77.4094 6.46601 77.4708 6.46482C77.4085 6.42273 77.4085 6.42273 77.3463 6.38063C77.3463 6.38063 77.2858 6.4251 77.348 6.4672C77.4119 6.59585 77.3522 6.6836 77.3539 6.77017C77.2303 6.72926 77.0462 6.73282 77.0454 6.68954C76.979 6.43104 76.6713 6.39369 76.4241 6.31188C76.1778 6.27334 75.9937 6.2769 75.8752 6.49569C75.6969 6.80222 75.6356 6.80341 75.0824 6.77081C74.8983 6.77438 74.7134 6.73466 74.5293 6.73822C74.4679 6.7394 74.4057 6.69731 74.4048 6.65403C74.4662 6.65284 74.5881 6.60718 74.6495 6.606C74.71 6.56153 74.7697 6.47378 74.8302 6.42931C74.7067 6.3884 74.5831 6.34749 74.5226 6.39196C74.1552 6.44237 73.9131 6.62024 73.9803 6.92203C73.9811 6.96531 73.9206 7.00978 73.8592 7.01097C73.8584 6.96769 73.7962 6.92559 73.7962 6.92559C73.7953 6.88231 73.7945 6.83903 73.7937 6.79575C73.7903 6.62262 73.7878 6.49277 73.7845 6.31964C73.5398 6.36767 73.2321 6.33033 72.9883 6.42164C72.684 6.55742 72.5024 6.69083 72.1325 6.61139C71.9476 6.57167 71.6424 6.66417 71.6979 6.36001C71.6979 6.36001 71.2658 6.23847 71.0826 6.28532C70.8388 6.37663 70.6563 6.46676 70.468 6.25391C70.468 6.25391 70.2839 6.25747 70.2234 6.30194C70.1629 6.34641 70.1032 6.43416 70.0435 6.52191C69.7316 6.26815 69.4323 6.66363 69.2465 6.58063C68.9364 6.41343 68.6312 6.50593 68.3227 6.42531C68.2613 6.42649 68.2588 6.29665 68.258 6.25337C68.1932 6.08143 68.0108 6.17155 67.3938 6.0103C66.9617 5.88876 67.0239 5.93085 67.0861 5.97295C67.271 6.01267 67.4551 6.00911 67.6401 6.04883C67.7014 6.04764 67.7056 6.26405 67.8864 6.08736C67.9469 6.04289 67.8839 5.95752 67.8217 5.91542C67.5712 5.66048 67.1416 5.66879 67.3946 6.05358C67.8897 6.26049 67.9528 6.34587 68.015 6.38796C67.8922 6.39034 67.7704 6.43599 67.6476 6.43837C67.4005 6.35655 67.1516 6.18817 66.8498 6.4538C66.7901 6.54155 66.7296 6.58602 66.6699 6.67377C66.6682 6.58721 66.6052 6.50183 66.6035 6.41527C66.6582 6.06782 66.1756 6.51014 66.1706 6.25045C66.0487 6.29611 65.8032 6.30085 65.9293 6.47161C66.0562 6.68564 65.688 6.69277 65.7527 6.86471C65.6914 6.86589 65.5686 6.86827 65.5081 6.91274C65.5073 6.86946 65.5056 6.78289 65.5056 6.78289C65.6872 6.64948 65.5039 6.69633 65.3803 6.65542C65.1946 6.57242 64.886 6.49179 65.2509 6.31154C65.1879 6.22616 65.0643 6.18525 65.0012 6.09988C64.9407 6.14435 64.9415 6.18763 64.881 6.2321C64.8205 6.27657 64.6977 6.27894 64.6977 6.27894C64.5717 6.10819 64.2665 6.20069 64.0815 6.16097C64.0799 6.0744 64.0782 5.98784 64.1379 5.90009C64.5061 5.89297 64.3178 5.68012 64.3767 5.54909L64.2531 5.50818C64.0698 5.55502 63.9488 5.64396 63.7663 5.73409C63.705 5.73527 63.6436 5.73646 63.4587 5.69674C63.3973 5.69793 63.4587 5.69674 63.4595 5.74002C63.5209 5.73883 63.52 5.69555 63.5814 5.69436C63.5192 5.65227 63.5192 5.65227 63.457 5.61018C63.457 5.61018 63.3964 5.65464 63.4587 5.69674C63.5831 5.78093 63.6453 5.82302 63.7083 5.9084C63.8327 5.99259 63.958 6.12006 64.0824 6.20425C63.905 6.55407 63.905 6.55407 63.4132 6.52028C63.3518 6.52147 63.2896 6.47938 63.2896 6.47938C62.9836 6.52859 62.6768 6.53453 62.4313 6.53928C62.0622 6.50312 61.7504 6.24936 61.388 6.55946C61.2064 6.69287 60.7752 6.61462 60.5869 6.40177C60.5239 6.31639 60.3397 6.31995 60.2162 6.27905C60.2178 6.36561 60.3423 6.4498 60.2809 6.45099C60.1598 6.53992 60.0379 6.58558 59.916 6.63124C59.853 6.54586 59.7899 6.46048 59.848 6.28617C59.8471 6.24289 59.848 6.28617 59.7866 6.28736C59.7874 6.33064 59.8488 6.32945 59.8496 6.37273C59.9102 6.32826 59.9102 6.32826 59.9707 6.28379C59.9707 6.28379 59.9085 6.2417 59.848 6.28617C59.7277 6.41839 59.6058 6.46405 59.6067 6.50733C59.61 6.68045 59.8538 6.58914 59.9774 6.63005C59.9791 6.71661 59.9799 6.7599 59.9202 6.84765C59.8588 6.84883 59.7975 6.85002 59.7353 6.80793C59.6117 6.76702 59.4276 6.77058 59.304 6.72967C59.0569 6.64786 59.4242 6.59745 59.3612 6.51208C59.236 6.3846 58.8686 6.43501 58.8106 6.60932C58.7525 6.78364 58.6928 6.87139 58.4465 6.83286C58.2616 6.79314 58.0775 6.7967 57.8934 6.80026C57.7093 6.80382 57.6462 6.71845 57.6437 6.5886C57.5798 6.45994 57.4579 6.5056 57.4605 6.63544C57.4024 6.80976 57.2789 6.76885 57.0939 6.72913C56.7224 6.56313 56.3516 6.4404 55.9212 6.40543C55.8599 6.40662 55.7968 6.32124 55.7346 6.27915C55.4227 6.02539 55.1764 5.98686 54.8738 6.20921C54.7519 6.25486 54.6922 6.34261 54.6325 6.43036C54.5694 6.34499 54.5678 6.25842 54.5047 6.17305L54.4425 6.13095C54.3795 6.04558 54.3164 5.9602 54.1962 6.09242C54.1357 6.13689 53.9516 6.14045 54.0768 6.26792C54.139 6.31002 54.0802 6.44105 54.081 6.48433C53.9583 6.4867 53.8355 6.48908 53.7733 6.44699C53.5253 6.32189 53.3387 6.1956 52.9125 6.37704C52.5468 6.51401 51.9936 6.48141 51.5599 6.27332C51.2505 6.14941 51.0025 6.02431 50.6343 6.03143C50.2661 6.03855 50.2661 6.03855 50.3325 6.29706C50.3333 6.34034 50.3956 6.38244 50.3964 6.42572C50.3981 6.51228 50.3384 6.60003 50.2787 6.68778C50.1551 6.64688 50.0324 6.64925 49.9702 6.60716C49.7844 6.52415 49.718 6.26565 49.4759 6.44353C49.111 6.62378 49.0454 6.40856 48.8588 6.28227C48.7958 6.19689 48.7933 6.06705 48.7294 5.93839C48.6092 6.07061 48.4889 6.20283 48.3065 6.29296C48.1241 6.38308 48.309 6.4228 48.3107 6.50937C48.3754 6.68131 48.3779 6.81115 48.1341 6.90246C48.0728 6.90365 48.0114 6.90484 47.95 6.90603C48.0055 6.60186 47.6382 6.65227 47.4541 6.65583C47.0858 6.66296 46.8345 6.36473 46.4696 6.54498C46.4696 6.54498 46.3461 6.50407 46.2839 6.46198C46.2855 6.54854 46.2881 6.67839 46.3494 6.6772C46.7185 6.71336 46.6588 6.80111 46.415 6.89242C46.1712 6.98374 45.9274 7.07505 45.919 6.64223C45.9182 6.59895 45.8576 6.64342 45.8585 6.6867C45.8593 6.72998 45.8601 6.77326 45.861 6.81655C45.9215 6.77208 46.0443 6.7697 46.0434 6.72642C46.0426 6.68314 46.0409 6.59657 45.919 6.64223C45.676 6.77682 45.3667 6.65292 45.3062 6.69738C45.0632 6.83198 44.8749 6.61913 44.7522 6.62151C44.5689 6.66835 44.3873 6.80176 44.2057 6.93516C44.2057 6.93516 44.0821 6.89426 44.0208 6.89544C43.8972 6.85454 43.8342 6.76916 44.0174 6.72232C44.1393 6.67666 44.2621 6.67429 44.3226 6.62982C44.384 6.62863 44.4445 6.58416 44.4445 6.58416C44.3823 6.54207 44.3201 6.49997 44.3201 6.49997C44.0141 6.54919 43.5786 6.25453 43.4634 6.64644C43.1574 6.69566 42.8506 6.70159 42.6085 6.87947C42.6085 6.87947 42.4849 6.83856 42.4227 6.79647C42.2335 6.54034 41.8662 6.59074 41.5593 6.59668C41.3752 6.60024 41.1323 6.73483 40.9448 6.56527C40.9448 6.56527 40.8229 6.61092 40.7624 6.65539C41.012 6.86705 40.7674 6.91508 40.5808 6.7888C40.395 6.7058 40.2714 6.66489 40.0865 6.62517C39.9024 6.62873 39.7174 6.58901 39.6603 6.80661C39.6619 6.89317 39.2937 6.9003 39.2912 6.77045C39.287 6.55404 39.1029 6.5576 38.9188 6.56116C38.5514 6.61157 38.121 6.5766 37.8789 6.75447C37.514 6.93472 37.3283 6.85172 37.0803 6.72663C36.8945 6.64362 36.7087 6.56062 36.5229 6.47762C36.4616 6.47881 36.3388 6.48118 36.3388 6.48118C36.2833 6.78534 36.0345 6.61696 35.8504 6.62052C35.6049 6.62527 35.4208 6.62883 35.6696 6.79721L35.5486 6.88615C35.3628 6.80315 34.9954 6.85356 34.9324 6.76818C34.4322 6.30158 33.8866 6.65851 33.3351 6.71248C33.2124 6.71486 33.1535 6.84589 33.0308 6.84826C32.9081 6.85064 32.6029 6.94314 32.5979 6.68345C32.5962 6.59688 32.4709 6.46941 32.3474 6.4285C32.2852 6.38641 32.1019 6.43325 32.0414 6.47772C31.98 6.47891 31.9203 6.56666 31.8598 6.61113C31.9211 6.60994 32.0447 6.65085 32.1061 6.64966C32.1683 6.69176 32.291 6.68938 32.3532 6.73148C32.2927 6.77595 32.2322 6.82042 32.1708 6.8216C31.8026 6.82873 31.4319 6.706 31.067 6.88625C31.067 6.88625 30.9443 6.88863 30.8821 6.84653C30.8812 6.80325 30.9418 6.75878 31.0023 6.71431C31.062 6.62656 31.2444 6.53644 31.3041 6.44869C31.3638 6.36094 31.2999 6.23228 31.2377 6.19018C31.1755 6.14809 30.9906 6.10837 30.8687 6.15402C30.624 6.20205 30.8712 6.28387 30.872 6.32715C30.8762 6.54356 30.5122 6.76709 30.2053 6.77303C29.9599 6.77778 29.7144 6.78253 29.4067 6.74518C29.0377 6.70902 28.725 6.41199 28.3601 6.59224C27.9952 6.77249 27.622 6.51992 27.2571 6.70017C27.1352 6.74583 26.7628 6.53654 26.6418 6.62548C26.2769 6.80573 26.3333 6.54485 26.1483 6.50513C26.0861 6.46304 25.9625 6.42213 25.9012 6.42332C25.6582 6.55791 25.4136 6.60594 25.227 6.47966C24.979 6.35456 24.7982 6.53125 24.5519 6.49272C24.367 6.453 24.061 6.50221 23.8785 6.59234C23.6356 6.72693 23.4515 6.7305 23.2035 6.6054C23.1413 6.5633 23.0202 6.65224 22.8975 6.65462C22.1627 6.75543 21.4305 6.98608 20.6319 6.95824C20.3864 6.96298 20.1443 7.14086 19.9627 7.27427C19.8416 7.36321 19.7214 7.49543 19.6003 7.58437C19.4087 7.19839 19.0497 7.68161 18.7386 7.47114C18.4898 7.30276 18.0602 7.31107 17.6945 7.44804C17.3288 7.58501 17.2061 7.58739 16.8337 7.3781C16.5857 7.253 16.4622 7.21209 16.4058 7.47297C16.347 7.60401 16.162 7.56429 16.0376 7.4801C15.7266 7.26962 15.355 7.10362 14.8683 7.32953C14.5572 7.11905 14.3168 7.38349 14.0099 7.38943C13.5804 7.39774 13.155 7.62246 12.7204 7.37108C12.5346 7.28808 12.1067 7.38295 11.862 7.43098C11.5569 7.52348 11.4266 7.13632 11.0012 7.36104C10.8188 7.45116 10.448 7.32844 10.1412 7.33438C8.85163 7.31603 7.6781 6.94905 6.38936 6.97398C5.95978 6.98229 5.58989 6.90285 5.16199 6.99772C4.73409 7.0926 4.23728 6.79912 3.80602 6.72087C3.68245 6.67996 3.55887 6.63905 3.43614 6.64143C3.19066 6.64618 2.94938 6.86733 2.69888 6.61239C2.57363 6.48492 2.20542 6.49204 1.95911 6.45351C1.15797 6.29582 1.02435 5.73553 0.46617 5.44324C0.403965 5.40114 0.463658 5.31339 0.461984 5.22683C0.459472 5.09698 0.764639 5.00448 0.515816 4.8361C0.452773 4.75073 0.572161 4.57522 0.569649 4.44538C0.5663 4.27225 0.501582 4.10031 0.436864 3.92837C0.687362 4.18331 0.562113 4.05584 0.497395 3.8839C0.433515 3.75524 -0.2407 3.81158 0.244386 3.49911C0.366285 3.45346 0.30073 3.23823 0.23685 3.10957C0.109926 2.89554 0.168783 2.76451 0.411745 2.62991C0.533644 2.58425 0.706864 2.01803 0.642984 1.88937C0.511037 1.41564 0.511037 1.41564 1.24411 1.22827C1.61064 1.13458 1.97551 0.95433 2.27816 0.731984C2.45975 0.598576 2.58082 0.509638 2.88766 0.503702C3.19534 0.541048 3.50386 0.621676 3.80735 0.442612C3.86788 0.398143 4.05282 0.437863 4.1764 0.478771C4.42354 0.560586 4.61016 0.68687 4.85731 0.768685C5.04225 0.808405 5.35161 0.932315 5.47351 0.886658C5.90057 0.748502 5.96697 1.00701 6.15191 1.04673C6.27548 1.08763 6.94886 0.988011 7.19266 0.896698C7.43562 0.762104 7.6811 0.757355 7.92741 0.795888C8.4814 0.871767 8.72687 0.867018 9.40025 0.767395C9.58435 0.763833 9.76846 0.760271 9.89203 0.801179C10.5116 1.09228 11.1908 1.29563 11.865 1.23929C12.2946 1.23098 12.6611 1.13729 13.0916 1.17226C13.4606 1.20842 13.8894 1.15683 14.3181 1.10524C14.4408 1.10286 14.5636 1.10049 14.6233 1.01274C14.9251 0.747109 15.6026 0.863896 15.8406 0.469609C15.8397 0.426327 15.9616 0.380671 16.0239 0.422766C16.2096 0.505768 16.2752 0.72099 16.5787 0.541926C16.6392 0.497457 17.0099 0.62018 17.1352 0.747651C17.3226 0.917217 17.6278 0.824717 17.8136 0.90772C17.9985 0.94744 18.1851 1.07372 18.3096 1.15791C18.4953 1.24092 18.7416 1.27945 18.9232 1.14604C19.1048 1.01263 19.2881 0.96579 19.5344 1.00432C19.7807 1.04286 19.9673 1.16914 20.2128 1.16439C20.3969 1.16083 20.6407 1.06952 20.8248 1.06596C21.0089 1.06239 21.2552 1.10093 21.441 1.18393C21.6268 1.26693 21.6873 1.22246 21.8706 1.17562C21.9925 1.12996 22.1766 1.1264 22.2388 1.1685C22.6726 1.37659 23.2854 1.32144 23.7192 1.52954C23.9672 1.65464 24.2732 1.60542 24.5178 1.55739C24.7011 1.51054 24.8818 1.33385 25.0659 1.33029C25.2501 1.32673 25.4367 1.45302 25.6216 1.49274C25.8057 1.48917 25.9268 1.40024 26.1092 1.31011C26.2916 1.21999 26.2933 1.30655 26.295 1.39311C26.2975 1.52296 26.3597 1.56505 26.4799 1.43283C26.5396 1.34508 26.4774 1.30299 26.7237 1.34152C27.4013 1.45831 28.0772 1.48853 28.8136 1.47428C28.9977 1.47072 29.1196 1.42506 29.3062 1.55135C29.4937 1.72092 29.7417 1.84601 30.0452 1.66695C30.2276 1.57682 30.2948 1.87861 30.4756 1.70192C30.5353 1.61417 30.7252 1.91358 30.9052 1.69361C31.402 1.98709 31.8896 1.80446 32.3797 1.75168C32.5638 1.74812 32.8664 1.52577 32.8118 1.87322C33.2447 2.03803 33.6171 2.24732 34.05 2.41214C34.1114 2.41095 34.2333 2.36529 34.2947 2.36411C34.2938 2.32082 34.2921 2.23426 34.2299 2.19216C33.7407 2.28823 33.7912 1.72437 33.3027 1.86372C33.3019 1.82044 33.301 1.77715 33.3616 1.73268C33.481 1.55718 33.6684 1.72675 33.7912 1.72437C33.9139 1.722 34.0341 1.58978 34.1552 1.50084C34.2174 1.54294 34.2796 1.58503 34.2182 1.58622C34.2191 1.6295 34.1594 1.71725 34.0988 1.76172C34.0391 1.84947 34.0408 1.93603 33.9803 1.9805C34.103 1.97813 34.2266 2.01904 34.2871 1.97457C34.5931 1.92535 34.9 1.91941 35.079 1.65616C35.5095 1.69113 35.8785 1.72729 36.3098 1.80554C36.3711 1.80436 36.4342 1.88973 36.4342 1.88973C36.6797 1.88498 36.984 1.7492 37.1084 1.83339C37.1714 1.91877 37.4169 1.91402 37.6624 1.90927C37.9079 1.90452 37.9625 1.55708 38.3946 1.67861C38.5796 1.71833 38.8225 1.58374 39.0672 1.53571C39.1285 1.53452 39.1899 1.53333 39.2513 1.53215C39.2521 1.57543 39.2529 1.61871 39.2538 1.66199C39.1932 1.70646 39.1949 1.79303 39.1344 1.8375C39.1958 1.83631 39.3185 1.83393 39.3799 1.83275C39.622 1.65487 39.9322 1.82206 40.2382 1.77284C40.2382 1.77284 40.2382 1.77284 40.1768 1.77403C40.1777 1.81731 40.1785 1.8606 40.2399 1.85941C40.2399 1.85941 40.3012 1.85822 40.3626 1.85703C40.3618 1.81375 40.3004 1.81494 40.2382 1.77284C40.3559 1.51078 40.7905 1.76216 40.9704 1.54219C40.9704 1.54219 41.1554 1.58191 41.094 1.5831C41.1015 1.97263 41.4639 1.66254 41.6488 1.70226C41.8338 1.74198 42.0759 1.5641 42.1381 1.60619C42.4491 1.81667 42.756 1.81073 43.0014 1.80598C43.0628 1.8048 43.1258 1.89017 43.1267 1.93345C43.1292 2.0633 43.0703 2.19433 43.0737 2.36746C43.0737 2.36746 43.0737 2.36746 43.0729 2.32418C43.0115 2.32537 42.9501 2.32655 42.951 2.36984C42.951 2.36984 42.9518 2.41312 42.9526 2.4564C43.014 2.45521 43.0132 2.41193 43.0737 2.36746C43.1334 2.27971 43.2553 2.23405 43.3158 2.18958C43.4344 1.9708 43.8606 1.78936 44.2305 1.8688C44.2305 1.8688 44.2919 1.86762 44.2927 1.9109C45.0299 1.93993 45.0299 1.93993 45.3393 2.06384C45.5251 2.14684 45.5864 2.14566 45.7067 2.01344C46.0077 1.70453 46.5616 1.78041 46.9887 1.64225C46.9887 1.64225 47.1131 1.72644 47.114 1.76972C47.1829 2.15807 47.1829 2.15807 47.736 2.19067C47.8588 2.18829 47.9823 2.2292 48.1051 2.22683C48.1664 2.22564 48.2261 2.13789 48.2253 2.09461C48.2245 2.05133 48.2236 2.00804 48.1614 1.96595C48.0378 1.92504 47.9159 1.9707 47.7924 1.92979C47.6696 1.93216 47.6066 1.84679 47.5452 1.84798C47.6671 1.80232 47.7268 1.71457 47.8487 1.66891C47.9101 1.66772 48.4666 1.87345 48.4674 1.91673C48.5305 2.00211 48.5935 2.08748 48.6557 2.12958C48.7793 2.17049 48.9626 2.12364 49.0853 2.12127C49.0836 2.0347 49.0819 1.94814 49.0811 1.90486C49.0803 1.86158 49.0181 1.81948 49.0172 1.7762C49.0164 1.73292 49.0761 1.64517 49.1366 1.6007C49.198 1.59951 49.3829 1.63923 49.3829 1.63923C49.3879 1.89892 49.509 1.80998 49.7536 1.76195C49.8755 1.7163 50.1815 1.66708 50.1874 1.97005C50.126 1.97124 50.1252 1.92796 50.0638 1.92914C50.0025 1.93033 49.8797 1.93271 49.8184 1.93389C49.8192 1.97718 49.82 2.02046 49.82 2.02046C49.9428 2.01808 50.0041 2.0169 50.1874 1.97005C50.2471 1.8823 50.369 1.83665 50.4909 1.79099C50.6733 1.70086 50.7936 1.56864 50.7994 1.87162C50.8003 1.9149 50.8028 2.04474 50.8028 2.04474C50.9885 2.12775 50.8111 2.47756 51.1777 2.38388C51.4215 2.29256 51.1735 2.16747 51.1718 2.0809C51.1701 1.99434 51.2895 1.81884 51.4728 1.77199C51.5947 1.72634 51.7805 1.80934 51.9654 1.84906C51.7863 2.11231 52.3975 1.97059 52.4067 2.4467C52.7724 2.30973 52.3445 2.4046 52.2806 2.27594C52.2798 2.23266 51.73 2.37319 51.73 2.37319C51.7922 2.41529 51.9158 2.45619 52.0385 2.45382C52.2234 2.49354 52.2857 2.53563 52.2268 2.66667C52.2276 2.70995 52.3512 2.75086 52.4126 2.74967C52.5353 2.7473 52.595 2.65954 52.4067 2.4467ZM69.1525 4.89382L69.1517 4.85054C69.0903 4.85172 69.0289 4.85291 69.0298 4.89619C69.0298 4.89619 69.0306 4.93947 69.0315 4.98276C69.0928 4.98157 69.092 4.93829 69.2727 4.7616C69.2114 4.76278 69.2122 4.80607 69.1508 4.80725C69.1517 4.85054 69.2131 4.84935 69.2139 4.89263C69.2744 4.84816 69.2744 4.84816 69.335 4.80369C69.3341 4.76041 69.2719 4.71832 69.1525 4.89382ZM150.35 3.66939C150.288 3.67057 150.289 3.71386 150.228 3.71504C150.229 3.75832 150.29 3.75714 150.291 3.80042C150.351 3.75595 150.351 3.75595 150.412 3.71148C150.412 3.71148 150.35 3.66939 150.23 3.84489L150.229 3.80161C150.168 3.80279 150.107 3.80398 150.108 3.84726C150.108 3.84726 150.108 3.89054 150.109 3.93383C150.108 3.89054 150.17 3.88936 150.35 3.66939ZM111.158 5.59663C111.096 5.59782 111.097 5.6411 111.036 5.64229C111.037 5.68557 111.098 5.68438 111.099 5.72766C111.16 5.68319 111.16 5.68319 111.22 5.63872C111.22 5.63872 111.158 5.59663 111.038 5.77213L111.038 5.72885C110.976 5.73004 110.915 5.73122 110.916 5.77451C110.916 5.77451 110.917 5.81779 110.917 5.86107C110.978 5.8166 110.977 5.77332 111.158 5.59663ZM57.7598 6.23997C57.6984 6.24116 57.6992 6.28444 57.6379 6.28563C57.6387 6.32891 57.7001 6.32772 57.7009 6.371C57.7614 6.32653 57.7614 6.32653 57.822 6.28206C57.822 6.28206 57.7598 6.23997 57.7026 6.45757C57.5782 6.37338 57.5782 6.37338 57.5782 6.37338C57.5168 6.37456 57.3941 6.37694 57.3327 6.37813C57.3335 6.42141 57.3344 6.46469 57.3344 6.46469C57.3966 6.50679 57.4571 6.46232 57.7598 6.23997ZM119.814 5.60236C119.754 5.64683 119.692 5.64802 119.632 5.69249C119.694 5.73458 119.695 5.77786 119.756 5.77667C119.817 5.77549 119.94 5.77311 120.001 5.72864C119.939 5.68655 119.876 5.64445 119.444 5.52292C119.445 5.5662 119.506 5.56501 119.507 5.6083C119.569 5.60711 119.568 5.56383 119.629 5.56264C119.567 5.52054 119.567 5.52054 119.505 5.47845C119.567 5.52054 119.506 5.52173 119.814 5.60236ZM80.4596 2.29368C80.3991 2.33814 80.3386 2.38261 80.4672 2.68321C80.3428 2.59902 80.2797 2.51365 80.1553 2.42946C80.0956 2.51721 80.0359 2.60496 80.0384 2.73481C80.0393 2.77809 80.1628 2.819 80.2864 2.8599C80.3478 2.85872 80.4075 2.77096 80.2789 2.47037C80.2772 2.3838 80.3377 2.33933 80.4596 2.29368C80.5824 2.2913 80.7051 2.28893 81.0119 2.28299C80.9514 2.32746 80.8901 2.32865 80.8295 2.37312C80.8917 2.41521 80.8926 2.45849 80.9539 2.45731C81.0153 2.45612 81.138 2.45374 81.1986 2.40927C81.1364 2.36718 81.075 2.36837 80.8287 2.32983C80.827 2.24327 80.8253 2.15671 80.8237 2.07014C80.7018 2.1158 80.6412 2.16027 80.5193 2.20592C80.458 2.20711 80.4588 2.25039 80.4596 2.29368ZM59.6094 3.4764C59.7313 3.43075 59.7927 3.42956 59.9146 3.3839C59.8524 3.34181 59.7902 3.29971 59.7288 3.3009C59.6061 3.30328 59.4842 3.34893 59.3614 3.35131C59.4237 3.3934 59.485 3.39221 60.2786 3.16037C60.1567 3.20603 60.0954 3.20721 59.9735 3.25287C60.0357 3.29497 60.0979 3.33706 60.1592 3.33587C60.282 3.3335 60.4039 3.28784 60.5266 3.28547C60.4644 3.24337 60.403 3.24456 59.6094 3.4764ZM129.399 2.81905L129.398 2.77577C129.337 2.77696 129.275 2.77814 129.276 2.82142C129.276 2.82142 129.277 2.86471 129.278 2.90799C129.339 2.9068 129.338 2.86352 129.764 2.6388C129.642 2.68446 129.58 2.68564 129.458 2.7313C129.521 2.77339 129.583 2.81549 129.644 2.8143C129.767 2.81193 129.889 2.76627 130.012 2.7639C129.949 2.67852 129.886 2.63642 129.399 2.81905ZM28.5143 1.86976C28.4521 1.82766 28.4513 1.78438 28.3899 1.78557C28.2663 1.74466 28.0822 1.74822 28.0856 1.92135C28.0864 1.96463 28.1486 2.00673 28.1494 2.05001C28.2713 2.00435 28.3932 1.95869 28.817 1.64741C28.6951 1.69307 28.6337 1.69425 28.5118 1.73991C28.574 1.78201 28.6362 1.8241 28.6976 1.82291C28.8203 1.82054 28.9422 1.77488 29.0649 1.77251C29.0027 1.73041 28.9414 1.7316 28.5143 1.86976ZM69.0568 3.12044C68.9332 3.07954 68.871 3.03744 68.8097 3.03863C68.7483 3.03982 68.6878 3.08429 68.6264 3.08547C68.6894 3.17085 68.7517 3.21295 68.8761 3.29713C68.9366 3.25267 68.9971 3.2082 69.5394 2.67813C69.2931 2.63959 68.9896 2.81866 69.0543 2.9906C69.0552 3.03388 69.1174 3.07598 69.1174 3.07598C69.3006 3.02913 69.4225 2.98348 69.605 2.89335C69.6663 2.89216 69.6646 2.8056 69.6638 2.76232C69.6016 2.72022 69.5394 2.67813 69.0568 3.12044ZM102.519 3.29577C102.457 3.29696 102.458 3.34024 102.397 3.34143C102.397 3.38471 102.459 3.38352 102.46 3.4268C102.52 3.38233 102.52 3.38233 102.581 3.33786C102.581 3.33786 102.519 3.29577 102.4 3.51455C102.337 3.42918 102.275 3.38708 102.212 3.30171C102.149 3.25961 102.269 3.08411 102.086 3.17423C101.965 3.21989 101.906 3.35092 101.846 3.43867C102.032 3.52168 102.156 3.60587 102.341 3.64559C102.279 3.60349 102.34 3.6023 102.519 3.29577ZM66.5189 2.04379C66.4576 2.04498 66.4584 2.08826 66.397 2.08945C66.3979 2.13273 66.4592 2.13154 66.4601 2.17482C66.5206 2.13035 66.5206 2.13035 66.5812 2.08589C66.5812 2.08589 66.5189 2.04379 66.5862 2.34558C66.276 2.17839 66.1507 2.05091 66.0272 2.01001C65.9044 2.01238 65.7834 2.10132 65.6623 2.19026C65.8481 2.27326 66.0339 2.35626 66.281 2.43808C66.2205 2.48255 66.3415 2.39361 66.5189 2.04379ZM39.4081 6.4651C39.5308 6.46273 39.5922 6.46154 39.7158 6.50245C40.0857 6.58189 40.3278 6.40401 40.5707 6.26942C40.6313 6.22495 40.5682 6.13957 40.506 6.09748C40.5052 6.05419 40.3833 6.09985 40.3211 6.05776C40.2672 6.44848 39.9571 6.28129 39.6494 6.24394C39.5258 6.20304 39.3417 6.2066 39.2198 6.25225C39.0971 6.25463 39.0382 6.38566 38.9777 6.43013C39.0399 6.47223 39.1626 6.46985 39.2248 6.51195C39.2231 6.42538 39.2845 6.42419 39.4081 6.4651ZM68.9533 4.1183C68.7667 3.99202 68.5801 3.86574 68.5187 3.86692C68.3346 3.87048 68.0917 4.00508 67.9092 4.0952L67.9101 4.13849C68.0959 4.22149 68.2825 4.34777 68.5288 4.38631C68.5902 4.38512 68.7709 4.20843 68.9533 4.1183ZM68.8618 2.56134C68.8005 2.56253 68.7383 2.52043 68.7383 2.52043C68.3734 2.70069 68.249 2.6165 68.3053 2.35562C68.3625 2.13802 68.1179 2.18605 67.9338 2.18961C67.8724 2.1908 67.8119 2.23527 67.7513 2.27974C68.0607 2.40365 67.9438 2.709 68.3751 2.78725C68.6205 2.7825 68.8047 2.77894 68.8618 2.56134ZM43.0846 2.93013C42.9618 2.9325 42.9005 2.93369 42.7777 2.93606C42.7164 2.93725 42.655 2.93844 42.5945 2.98291L42.5953 3.02619C42.6609 3.24141 43.2123 3.18744 43.0955 3.49279C43.1568 3.4916 43.2174 3.44714 43.2787 3.44595C43.3384 3.3582 43.4595 3.26926 43.5192 3.18151C43.5183 3.13823 43.5167 3.05166 43.4545 3.00957C43.3914 2.92419 43.2073 2.92775 43.0846 2.93013ZM69.9805 6.43653C69.6097 6.31381 69.5442 6.09859 69.5392 5.8389C69.4778 5.84008 69.4173 5.88455 69.3559 5.88574C69.0524 6.0648 69.3643 6.31856 69.2457 6.53734C69.3071 6.53616 69.3684 6.53497 69.4298 6.53378C69.6139 6.53022 69.7358 6.48456 69.9805 6.43653ZM39.3832 2.00587C39.1386 2.05391 38.8326 2.10312 38.4652 2.15353C38.714 2.32191 39.0217 2.35925 39.3252 2.18019C39.3252 2.18019 39.5118 2.30647 39.5732 2.30529C39.6346 2.3041 39.7564 2.25844 39.7556 2.21516C39.7548 2.17188 39.7531 2.08532 39.6909 2.04322C39.6909 2.04322 39.5682 2.0456 39.3832 2.00587ZM78.437 2.4627C78.4378 2.50598 78.437 2.4627 78.4361 2.41942C78.495 2.28838 78.432 2.20301 78.2479 2.20657C78.0024 2.21132 78.0671 2.38326 78.0688 2.46982C78.0704 2.55639 78.1335 2.64176 78.2571 2.68267C78.3193 2.72477 78.442 2.72239 78.5656 2.7633C78.5017 2.63464 78.5009 2.59136 78.437 2.4627ZM135.769 2.08963C135.77 2.13291 135.771 2.1762 135.771 2.1762C136.017 2.21473 136.264 2.25326 136.448 2.2497C136.447 2.20642 136.445 2.11986 136.384 2.12104C136.26 2.08013 136.075 1.99713 135.89 2.00069C135.89 2.00069 135.831 2.08845 135.769 2.08963ZM74.5808 3.05688C74.5203 3.10135 74.4589 3.10253 74.4598 3.14582C74.4009 3.27685 74.3412 3.3646 74.2824 3.49563C74.2832 3.53891 74.3454 3.58101 74.3462 3.62429C74.4068 3.57982 74.4681 3.57863 74.4673 3.53535C74.5261 3.40432 74.5858 3.31657 74.6447 3.18554C74.6439 3.14225 74.5817 3.10016 74.5808 3.05688ZM73.4634 5.58979C73.339 5.5056 73.3365 5.37575 73.2751 5.37694C73.0901 5.33722 72.9691 5.42616 73.033 5.55482C73.0346 5.64138 73.0969 5.68347 73.1599 5.76885C73.1582 5.68229 73.2801 5.63663 73.4634 5.58979ZM95.2578 2.44038C95.2586 2.48366 95.3208 2.52575 95.3225 2.61232C95.4436 2.52338 95.5646 2.43444 95.6235 2.30341C95.6235 2.30341 95.4991 2.21922 95.4369 2.17712C95.3755 2.17831 95.3141 2.1795 95.2536 2.22397C95.3158 2.26606 95.2561 2.35381 95.2578 2.44038ZM63.9211 4.21566C63.8001 4.30459 63.6168 4.35144 63.9245 4.38878C63.9859 4.3876 64.0455 4.29985 64.1052 4.21209C64.1044 4.16881 64.1649 4.12434 64.1027 4.08225C64.0405 4.04015 63.9783 3.99806 63.9161 3.95596C63.7925 3.91506 63.6706 3.96071 63.7959 4.08818C63.9195 4.12909 63.9203 4.17237 63.9211 4.21566ZM58.6141 2.80289C58.4309 2.84973 58.3703 2.8942 58.3098 2.93867C58.4342 3.02286 58.4973 3.10824 58.6208 3.14914C58.6822 3.14796 58.7427 3.10349 58.8033 3.05902C58.7402 2.97364 58.6772 2.88827 58.6141 2.80289ZM75.6238 6.19746L75.6247 6.24075C75.8701 6.236 76.1165 6.27453 76.3006 6.27097C76.2997 6.22769 76.2989 6.1844 76.2375 6.18559C76.1753 6.1435 76.0517 6.10259 75.9904 6.10378C75.8676 6.10615 75.7466 6.19509 75.6238 6.19746ZM70.959 6.24441C70.9582 6.20113 70.959 6.24441 70.8985 6.28888C70.8993 6.33216 70.9001 6.37544 70.9623 6.41754C71.0859 6.45845 71.27 6.45488 71.3928 6.45251C71.4541 6.45132 71.4525 6.36476 71.5122 6.27701C71.4508 6.27819 71.3886 6.2361 71.3272 6.23729C71.2045 6.23966 71.1431 6.24085 70.959 6.24441ZM53.0818 2.43364C52.959 2.43601 52.959 2.43601 52.8977 2.4372C52.9002 2.56704 52.9027 2.69689 52.9044 2.78345C52.9657 2.78227 53.0885 2.77989 53.1498 2.7787C53.1473 2.64886 53.0843 2.56348 53.0818 2.43364ZM57.6236 5.54983C57.748 5.63402 57.8725 5.71821 57.9969 5.8024C58.0574 5.75793 58.0557 5.67137 58.0549 5.62809C58.1137 5.49705 58.1121 5.41049 57.8666 5.41524C57.8052 5.41643 57.7455 5.50418 57.6236 5.54983ZM133.711 3.60158C133.586 3.47411 133.523 3.38874 133.462 3.43321C133.279 3.48005 133.158 3.56899 132.975 3.61583C133.037 3.65793 133.161 3.69883 133.222 3.69765C133.405 3.6508 133.527 3.60515 133.711 3.60158ZM109.461 3.55115C109.336 3.46696 109.273 3.38159 109.212 3.38277C109.089 3.38515 109.029 3.4729 108.969 3.51737C108.969 3.51737 109.033 3.64603 109.094 3.64484C109.217 3.64246 109.339 3.59681 109.461 3.55115ZM64.2584 2.6071C64.3828 2.69129 64.445 2.73338 64.5686 2.77429C64.6299 2.77311 64.6905 2.72864 64.751 2.68417C64.6888 2.64207 64.6257 2.5567 64.5635 2.5146C64.5013 2.47251 64.4416 2.56026 64.2584 2.6071ZM66.1109 6.3382C65.9865 6.25401 65.9234 6.16863 65.8621 6.16982C65.7393 6.1722 65.6788 6.21666 65.6191 6.30442C65.6191 6.30442 65.683 6.43307 65.7444 6.43189C65.8671 6.42951 65.9276 6.38504 66.1109 6.3382ZM143.823 5.87395C143.701 5.87633 143.579 5.92198 143.517 5.92317C143.58 6.00855 143.706 6.13602 143.766 6.09155C143.889 6.08917 144.01 6.00024 144.132 5.95458C143.948 5.95814 143.886 5.91605 143.823 5.87395ZM107.857 3.1492C108.042 3.18892 108.103 3.18773 108.226 3.18536C108.287 3.18417 108.409 3.13851 108.47 3.13733C108.408 3.09523 108.345 3.00986 108.284 3.01104C108.222 2.96895 108.16 2.97014 108.1 3.0146C108.038 3.01579 107.978 3.06026 107.857 3.1492ZM49.8257 5.4842C49.9501 5.56839 50.0123 5.61048 50.1358 5.65139C50.1972 5.6502 50.2577 5.60574 50.3183 5.56127C50.2561 5.51917 50.193 5.43379 50.1308 5.3917C50.0694 5.39289 49.9475 5.43854 49.8257 5.4842ZM75.6297 6.50044C75.5086 6.58938 75.4481 6.63384 75.327 6.72278L75.3901 6.80816C75.5734 6.76132 75.6953 6.71566 75.8785 6.66882C75.8163 6.62672 75.7541 6.58463 75.6297 6.50044ZM57.1463 3.09107C57.0833 3.0057 57.0211 2.9636 56.9589 2.92151C56.837 2.96716 56.7159 3.0561 56.7167 3.09938C56.7184 3.18595 56.842 3.22686 56.9664 3.31104C56.9647 3.22448 57.0253 3.18001 57.1463 3.09107ZM76.5452 6.22294C76.6688 6.26385 76.731 6.30594 76.8546 6.34685C76.9159 6.34566 77.0387 6.34329 77.0992 6.29882C76.9748 6.21463 76.789 6.13162 76.6646 6.04744C76.6663 6.134 76.6057 6.17847 76.5452 6.22294ZM34.175 5.70038C34.2372 5.74247 34.3003 5.82785 34.3011 5.87113C34.3616 5.82666 34.36 5.7401 34.3591 5.69682C34.3575 5.61025 34.2952 5.56816 34.2936 5.48159C34.2944 5.52487 34.2347 5.61263 34.175 5.70038ZM67.1299 5.06284C67.0668 4.97746 66.9433 4.93656 66.8802 4.85118C66.8197 4.89565 66.76 4.9834 66.7608 5.02668C66.823 5.06878 66.9466 5.10968 67.0088 5.15178C67.0693 5.10731 67.1299 5.06284 67.1299 5.06284ZM136.357 3.89679C136.294 3.81141 136.293 3.76813 136.292 3.72485C136.17 3.77051 136.049 3.85944 135.927 3.9051C135.989 3.94719 136.052 3.98929 136.052 3.98929C136.174 3.94363 136.234 3.89916 136.357 3.89679ZM51.2926 5.15273C51.2321 5.1972 51.1716 5.24167 51.1119 5.32942C51.1127 5.3727 51.1135 5.41599 51.1758 5.45808C51.2977 5.41243 51.4187 5.32349 51.5406 5.27783C51.417 5.23692 51.417 5.23692 51.2926 5.15273ZM66.8375 2.6438C66.7761 2.64499 66.7156 2.68946 66.7156 2.68946C66.7173 2.77602 66.7803 2.8614 66.8425 2.90349C66.8425 2.90349 67.0258 2.85665 67.0872 2.85546C66.9628 2.77127 66.9006 2.72918 66.8375 2.6438ZM92.798 2.22817C92.735 2.1428 92.7342 2.09951 92.7333 2.05623C92.6114 2.10189 92.4904 2.19083 92.3685 2.23648C92.4307 2.27858 92.4929 2.32067 92.4929 2.32067C92.6148 2.27502 92.6753 2.23055 92.798 2.22817ZM62.6095 6.23274C62.549 6.27721 62.4893 6.36496 62.4902 6.40825C62.491 6.45153 62.5532 6.49362 62.554 6.5369C62.6751 6.44797 62.7356 6.4035 62.8567 6.31456C62.7945 6.27246 62.7331 6.27365 62.6095 6.23274ZM98.6908 5.36153C98.4462 5.40956 98.3235 5.41194 98.2007 5.41431C98.2629 5.45641 98.3251 5.4985 98.3865 5.49731C98.5093 5.49494 98.632 5.49257 98.7547 5.49019C98.6925 5.4481 98.6917 5.40481 98.6908 5.36153ZM61.501 2.87694C61.4396 2.87812 61.3791 2.92259 61.3791 2.92259C61.3807 3.00916 61.4438 3.09453 61.506 3.13663C61.506 3.13663 61.6893 3.08978 61.7506 3.0886C61.6884 3.0465 61.564 2.96231 61.501 2.87694ZM81.1967 5.48348C81.1336 5.3981 81.1319 5.31154 81.0689 5.22616C81.0084 5.27063 80.9478 5.3151 80.9495 5.40166C80.9512 5.48823 81.0142 5.57361 81.0159 5.66017C81.0756 5.57242 81.1361 5.52795 81.1967 5.48348ZM54.1147 5.05484C53.9928 5.1005 53.9315 5.10168 53.8701 5.10287C53.9331 5.18825 54.0576 5.27244 54.1206 5.35781C54.1811 5.31334 54.2417 5.26887 54.2417 5.26887C54.24 5.18231 54.1769 5.09693 54.1147 5.05484ZM114.199 4.15225C114.136 4.06687 114.013 4.02596 113.95 3.94059C113.889 3.98505 113.83 4.07281 113.83 4.11609C113.893 4.15818 114.016 4.19909 114.078 4.24119C114.078 4.1979 114.138 4.15343 114.199 4.15225ZM46.4066 6.4596C46.4688 6.5017 46.531 6.54379 46.6546 6.5847C46.716 6.58351 46.7773 6.58233 46.8379 6.53786C46.7748 6.45248 46.6504 6.36829 46.5874 6.28292C46.5268 6.32738 46.4663 6.37185 46.4066 6.4596ZM76.7296 3.05861C76.6085 3.14754 76.548 3.19201 76.4269 3.28095C76.4883 3.27977 76.5505 3.32186 76.5505 3.32186C76.611 3.27739 76.7329 3.23173 76.7934 3.18727C76.7926 3.14398 76.7304 3.10189 76.7296 3.05861ZM120.742 5.97409C120.682 6.01856 120.622 6.10631 120.623 6.14959C120.624 6.19287 120.686 6.23497 120.687 6.27825C120.808 6.18931 120.868 6.14484 120.989 6.0559C120.866 6.015 120.866 6.015 120.742 5.97409ZM76.5243 5.14089C76.5873 5.22627 76.589 5.31283 76.652 5.39821C76.7126 5.35374 76.7731 5.30927 76.7714 5.2227C76.7697 5.13614 76.7067 5.05076 76.705 4.9642C76.584 5.05314 76.5848 5.09642 76.5243 5.14089ZM58.7383 6.04785C58.6769 6.04903 58.6164 6.0935 58.6164 6.0935C58.6181 6.18007 58.6811 6.26544 58.7433 6.30754C58.7433 6.30754 58.9266 6.26069 58.988 6.25951C58.9249 6.17413 58.8014 6.13322 58.7383 6.04785ZM114.167 5.6683C114.292 5.75249 114.354 5.79459 114.478 5.87878C114.478 5.83549 114.538 5.79102 114.538 5.79102C114.476 5.74893 114.413 5.66355 114.351 5.62146C114.351 5.62146 114.229 5.66711 114.167 5.6683ZM116.13 2.38298C116.193 2.46836 116.194 2.51164 116.256 2.55373C116.377 2.46479 116.437 2.42032 116.559 2.33139C116.497 2.33257 116.435 2.29048 116.435 2.29048C116.312 2.29285 116.252 2.33732 116.13 2.38298ZM141.34 1.2458C141.341 1.33237 141.404 1.41774 141.405 1.46103C141.466 1.41656 141.525 1.32881 141.525 1.28552C141.524 1.24224 141.522 1.15568 141.521 1.1124C141.461 1.15686 141.4 1.20133 141.34 1.2458ZM65.1139 5.57812C65.2358 5.53246 65.2972 5.53128 65.3577 5.48681C65.2333 5.40262 65.1711 5.36052 65.0467 5.27633C65.0475 5.31962 64.987 5.36409 64.987 5.36409C64.9895 5.49393 65.0517 5.53603 65.1139 5.57812ZM96.9061 5.13627C96.9045 5.04971 96.8414 4.96433 96.8406 4.92105C96.78 4.96552 96.7203 5.05327 96.7212 5.09655C96.722 5.13983 96.7237 5.2264 96.7245 5.26968C96.7851 5.22521 96.8456 5.18074 96.9061 5.13627ZM115.311 4.47713C115.435 4.56132 115.497 4.60342 115.622 4.68761C115.621 4.64432 115.682 4.59985 115.682 4.59985C115.619 4.55776 115.556 4.47238 115.494 4.43029C115.433 4.43148 115.372 4.47594 115.311 4.47713ZM74.257 5.35794C74.1965 5.40241 74.1359 5.44688 74.1368 5.49016C74.1376 5.53345 74.2006 5.61882 74.2015 5.6621C74.262 5.61764 74.3234 5.61645 74.3225 5.57317C74.3217 5.52988 74.32 5.44332 74.257 5.35794ZM74.8589 4.74012C74.8606 4.82669 74.8001 4.87116 74.8009 4.91444C74.8009 4.91444 74.8631 4.95653 74.9245 4.95535C74.985 4.91088 74.9834 4.82431 74.9825 4.78103C74.9834 4.82431 74.9212 4.78222 74.8589 4.74012ZM77.8308 2.86411C77.8325 2.95067 77.772 2.99514 77.7728 3.03842C77.7728 3.03842 77.835 3.08052 77.8964 3.07933C77.9569 3.03486 77.9552 2.9483 77.9544 2.90502C78.0158 2.90383 77.8922 2.86292 77.8308 2.86411ZM80.6039 6.5774C80.5434 6.62187 80.482 6.62306 80.4215 6.66753C80.4837 6.70962 80.5459 6.75172 80.6686 6.74934C80.73 6.74815 80.7905 6.70368 80.8519 6.7025C80.7275 6.61831 80.6661 6.6195 80.6039 6.5774ZM80.6602 6.31652C80.6594 6.27324 80.5972 6.23115 80.5955 6.14458C80.535 6.18905 80.4736 6.19024 80.4745 6.23352C80.4753 6.2768 80.5383 6.36218 80.5392 6.40546C80.6005 6.40427 80.6611 6.3598 80.6602 6.31652ZM81.0234 6.04971C81.0234 6.04971 80.9637 6.13746 80.9646 6.18074C81.0259 6.17955 81.0881 6.22165 81.0881 6.22165C81.1495 6.22046 81.21 6.17599 81.2706 6.13152C81.2084 6.08943 81.147 6.09061 81.0234 6.04971ZM81.8483 4.25853C81.665 4.30537 81.665 4.30537 81.6036 4.30656C81.6658 4.34865 81.728 4.39075 81.7894 4.38956C81.8508 4.38837 81.9121 4.38718 81.9727 4.34272C81.8499 4.34509 81.8491 4.30181 81.8483 4.25853ZM82.752 3.37508C82.752 3.37508 82.6923 3.46283 82.6932 3.50611C82.7545 3.50492 82.8168 3.54702 82.8168 3.54702C82.8781 3.54583 82.9387 3.50136 82.9992 3.45689C82.9378 3.45808 82.8756 3.41599 82.752 3.37508ZM83.8299 1.96869C83.8904 1.92422 83.9518 1.92303 84.0123 1.87856C83.9501 1.83647 83.8879 1.79437 83.7652 1.79675C83.7038 1.79793 83.6433 1.8424 83.5819 1.84359C83.7055 1.8845 83.7677 1.92659 83.8299 1.96869ZM84.7537 2.12401C84.6924 2.12519 84.6319 2.16966 84.5091 2.17204C84.5713 2.21413 84.5722 2.25741 84.6335 2.25623C84.6949 2.25504 84.8168 2.20938 84.8782 2.2082C84.8773 2.16491 84.816 2.1661 84.7537 2.12401ZM84.2734 5.85694C84.3357 5.89903 84.3373 5.9856 84.3373 5.9856C84.3987 5.98441 84.5214 5.98204 84.582 5.93757C84.5811 5.89428 84.5189 5.85219 84.5189 5.85219C84.4575 5.85338 84.3962 5.85456 84.2734 5.85694ZM84.7755 3.24934C84.8377 3.29143 84.8394 3.378 84.8394 3.378C84.9008 3.37681 85.0235 3.37443 85.084 3.32996C85.0832 3.28668 85.021 3.24459 85.021 3.24459C85.021 3.24459 84.8983 3.24696 84.7755 3.24934ZM30.0237 6.90644C30.0843 6.86197 30.1456 6.86078 30.2062 6.81631C30.144 6.77422 30.0818 6.73212 29.959 6.7345C29.8977 6.73568 29.8371 6.78015 29.7758 6.78134C29.838 6.82344 29.9615 6.86434 30.0237 6.90644ZM30.7972 5.63583C30.614 5.68267 30.614 5.68267 30.5526 5.68386C30.6148 5.72595 30.677 5.76805 30.7384 5.76686C30.7998 5.76567 30.8611 5.76449 30.9217 5.72002C30.8603 5.7212 30.7981 5.67911 30.7972 5.63583ZM86.7879 5.7217C86.7265 5.72289 86.6651 5.72407 86.6651 5.72407C86.666 5.76736 86.6677 5.85392 86.6685 5.8972L86.7912 5.89483C86.7904 5.85154 86.7895 5.80826 86.7879 5.7217ZM34.1778 2.66945C34.1778 2.66945 34.1181 2.7572 34.1189 2.80049C34.1803 2.7993 34.2425 2.84139 34.2425 2.84139C34.3039 2.84021 34.3644 2.79574 34.4249 2.75127C34.3636 2.75246 34.3014 2.71036 34.1778 2.66945ZM106.234 1.75176C106.234 1.75176 106.357 1.79267 106.418 1.79148C106.418 1.7482 106.478 1.70373 106.478 1.70373C106.477 1.66045 106.415 1.61836 106.353 1.57626C106.354 1.61954 106.355 1.66282 106.234 1.75176ZM37.2805 4.38465C37.22 4.42912 37.1595 4.47359 37.1603 4.51687C37.1611 4.56015 37.2242 4.64553 37.225 4.68881C37.2856 4.64434 37.3469 4.64316 37.3461 4.59987C37.3444 4.51331 37.2814 4.42793 37.2805 4.38465ZM37.5832 4.16231C37.6454 4.2044 37.6471 4.29097 37.6471 4.29097C37.7084 4.28978 37.8312 4.2874 37.8917 4.24293C37.8909 4.19965 37.8287 4.15756 37.8287 4.15756C37.7673 4.15874 37.7059 4.15993 37.5832 4.16231ZM107.596 5.53564C107.658 5.57774 107.66 5.6643 107.66 5.6643C107.721 5.66311 107.844 5.66074 107.904 5.61627C107.904 5.57299 107.841 5.53089 107.841 5.53089C107.78 5.53208 107.657 5.53445 107.596 5.53564ZM39.1484 5.73406C39.1475 5.69078 39.0853 5.64868 39.0837 5.56212C39.0231 5.60659 38.9618 5.60777 38.9626 5.65106C38.9634 5.69434 39.0265 5.77971 39.0273 5.823C39.0273 5.823 39.0887 5.82181 39.1484 5.73406ZM114.779 5.52658C114.841 5.56868 114.842 5.65524 114.842 5.65524C114.904 5.65406 115.027 5.65168 115.087 5.60721C115.086 5.56393 115.024 5.52183 115.024 5.52183C115.024 5.52183 114.901 5.52421 114.779 5.52658ZM119.956 3.39142C119.956 3.39142 120.079 3.43233 120.14 3.43114C120.14 3.38786 120.2 3.34339 120.2 3.34339C120.199 3.30011 120.137 3.25801 120.075 3.21592C120.014 3.2171 120.014 3.26039 119.956 3.39142ZM120.775 4.50132C120.837 4.54341 120.839 4.62997 120.839 4.62997C120.9 4.62879 121.023 4.62641 121.084 4.58194C121.083 4.53866 121.021 4.49657 121.021 4.49657C121.02 4.45329 120.898 4.49894 120.775 4.50132ZM125.689 1.46198C125.751 1.50407 125.813 1.54617 125.875 1.54498C125.936 1.54379 126.058 1.49814 126.119 1.49695C126.057 1.45486 126.056 1.41157 125.995 1.41276C125.873 1.45842 125.75 1.46079 125.689 1.46198ZM48.5422 2.60805C48.4783 2.4794 48.4783 2.4794 48.4775 2.43611C48.4169 2.48058 48.3564 2.52505 48.3572 2.56833C48.3581 2.61162 48.3589 2.6549 48.4211 2.69699C48.4817 2.65252 48.5422 2.60805 48.5422 2.60805ZM49.398 2.41831C49.2147 2.46515 49.2147 2.46515 49.1534 2.46634C49.2156 2.50843 49.2778 2.55053 49.3391 2.54934C49.4005 2.54815 49.4619 2.54696 49.5224 2.5025C49.461 2.50368 49.4602 2.4604 49.398 2.41831ZM50.9933 5.54821C50.9933 5.54821 50.9336 5.63596 50.9345 5.67924C50.9958 5.67805 51.058 5.72015 51.058 5.72015C51.1194 5.71896 51.1799 5.67449 51.2405 5.63002C51.1791 5.63121 51.1169 5.58911 50.9933 5.54821ZM139.164 6.22387C139.164 6.18059 139.101 6.13849 139.1 6.05193C139.039 6.0964 138.978 6.09759 138.979 6.14087C138.98 6.18415 139.043 6.26953 139.043 6.31281C139.043 6.31281 139.104 6.26834 139.164 6.22387ZM140.441 2.38894C140.38 2.39013 140.319 2.4346 140.196 2.43697C140.258 2.47907 140.259 2.52235 140.321 2.52116C140.382 2.51998 140.504 2.47432 140.565 2.47313C140.565 2.47313 140.503 2.43104 140.441 2.38894ZM144.68 5.72748C144.557 5.72986 144.495 5.68776 144.434 5.68895C144.434 5.68895 144.373 5.73342 144.374 5.7767C144.436 5.8188 144.559 5.81642 144.62 5.81524C144.559 5.81642 144.62 5.77195 144.68 5.72748ZM149.217 5.42322C149.094 5.4256 149.032 5.3835 148.971 5.38469C148.971 5.38469 148.91 5.42916 148.911 5.47244C148.973 5.51453 149.096 5.51216 149.157 5.51097C149.096 5.51216 149.157 5.46769 149.217 5.42322ZM150.115 4.2368C149.992 4.23917 149.93 4.19708 149.869 4.19827C149.869 4.19827 149.808 4.24274 149.809 4.28602C149.871 4.32811 149.994 4.32574 150.055 4.32455C150.055 4.32455 150.116 4.28008 150.115 4.2368ZM53.9449 5.79419C53.8221 5.79657 53.7599 5.75447 53.6986 5.75566C53.6986 5.75566 53.638 5.80013 53.6389 5.84341C53.7011 5.88551 53.8238 5.88313 53.8852 5.88195C53.8852 5.88195 53.8843 5.83866 53.9449 5.79419ZM54.8445 4.69434C54.7839 4.73881 54.7234 4.78328 54.7242 4.82656C54.7251 4.86984 54.7881 4.95522 54.789 4.9985C54.8495 4.95403 54.9109 4.95284 54.91 4.90956C54.847 4.82418 54.8453 4.73762 54.8445 4.69434ZM55.8389 5.32457C55.8406 5.41113 55.7801 5.4556 55.7809 5.49889C55.7809 5.49889 55.8431 5.54098 55.9045 5.53979C55.965 5.49532 55.9633 5.40876 55.9625 5.36548C55.9625 5.36548 55.9011 5.36667 55.8389 5.32457ZM56.7787 6.30225C56.7182 6.34672 56.6568 6.3479 56.5963 6.39237C56.6585 6.43447 56.7207 6.47656 56.8434 6.47419C56.9048 6.473 56.9653 6.42853 57.0267 6.42734C56.9645 6.38525 56.8409 6.34434 56.7787 6.30225ZM190.91 5.829C190.726 5.87584 190.726 5.87584 190.665 5.87703C190.727 5.91912 190.79 5.96122 190.851 5.96003C190.912 5.95884 190.974 5.95765 191.034 5.91318C190.911 5.87228 190.91 5.829 190.91 5.829ZM58.9118 2.32085C58.789 2.32323 58.7268 2.28113 58.6655 2.28232C58.6655 2.28232 58.6049 2.32679 58.6058 2.37007C58.668 2.41216 58.7907 2.40979 58.8521 2.4086C58.8529 2.45188 58.8521 2.4086 58.9118 2.32085ZM200.968 5.33132C200.908 5.37579 200.785 5.37816 200.785 5.37816C200.786 5.42144 200.788 5.50801 200.85 5.5501C200.911 5.54892 200.972 5.50445 200.972 5.50445C200.971 5.46116 200.969 5.3746 200.968 5.33132ZM58.5408 5.3589C58.6013 5.31443 58.6627 5.31324 58.7232 5.26877C58.661 5.22668 58.5988 5.18458 58.4761 5.18696C58.4147 5.18814 58.3542 5.23261 58.2928 5.2338C58.4164 5.27471 58.4786 5.3168 58.5408 5.3589ZM61.0546 2.01961C60.9941 2.06408 60.9336 2.10855 60.9344 2.15183C60.9353 2.19511 60.9983 2.28049 60.9991 2.32377C61.0597 2.2793 61.121 2.27811 61.1202 2.23483C61.1185 2.14827 61.0555 2.06289 61.0546 2.01961ZM61.1914 5.91379C61.0686 5.91617 61.0064 5.87407 60.9451 5.87526C60.9451 5.87526 60.8845 5.91973 60.8854 5.96301C60.9476 6.00511 61.0703 6.00273 61.1317 6.00155C61.0703 6.00273 61.1308 5.95826 61.1914 5.91379ZM62.9797 3.15142C62.9158 3.02276 62.9158 3.02276 62.915 2.97948C62.8544 3.02394 62.7939 3.06841 62.7947 3.1117C62.7956 3.15498 62.7964 3.19826 62.8586 3.24035C62.8578 3.19707 62.9183 3.1526 62.9797 3.15142ZM63.7733 2.91957C63.7094 2.79091 63.7094 2.79091 63.7086 2.74763C63.648 2.7921 63.5875 2.83657 63.5883 2.87985C63.5892 2.92313 63.59 2.96642 63.6522 3.00851C63.6514 2.96523 63.7119 2.92076 63.7733 2.91957ZM64.7432 5.4554C64.6205 5.45777 64.5583 5.41568 64.4969 5.41687C64.4969 5.41687 64.4364 5.46133 64.4372 5.50462C64.4994 5.54671 64.6221 5.54434 64.6835 5.54315C64.6835 5.54315 64.6827 5.49987 64.7432 5.4554ZM68.6708 5.37942C68.548 5.38179 68.4858 5.3397 68.4245 5.34088C68.4245 5.34088 68.3639 5.38535 68.3648 5.42863C68.427 5.47073 68.5497 5.46835 68.6111 5.46717C68.6111 5.46717 68.6103 5.42389 68.6708 5.37942ZM27.3059 6.04975C27.2446 6.05094 27.2454 6.09422 27.184 6.09541L27.2463 6.13751C27.3076 6.13632 27.3076 6.13632 27.3682 6.09185C27.3068 6.09304 27.3059 6.04975 27.3059 6.04975ZM33.9505 6.78717C34.0119 6.78599 34.011 6.7427 34.0724 6.74152L34.0102 6.69942C33.9488 6.70061 33.9488 6.70061 33.8883 6.74508C33.8891 6.78836 33.9505 6.78717 33.9505 6.78717ZM34.6551 5.12821L34.5929 5.08612C34.5937 5.1294 34.5324 5.13059 34.5332 5.17387L34.5954 5.21596C34.5946 5.17268 34.6551 5.12821 34.6551 5.12821ZM35.483 6.67093C35.4839 6.71421 35.5452 6.71302 35.5461 6.75631L35.6066 6.71184C35.6058 6.66855 35.6058 6.66855 35.5436 6.62646C35.5444 6.66974 35.5444 6.66974 35.483 6.67093ZM36.4582 6.30568L36.396 6.26358C36.3968 6.30687 36.3355 6.30805 36.3363 6.35133L36.3985 6.39343C36.3985 6.39343 36.4591 6.34896 36.4582 6.30568ZM36.6962 5.91139C36.6348 5.91258 36.6356 5.95586 36.5743 5.95705L36.6365 5.99914C36.6978 5.99796 36.6978 5.99796 36.7584 5.95349C36.6962 5.91139 36.6962 5.91139 36.6962 5.91139ZM36.887 6.25409L36.9492 6.29618C37.0105 6.29499 37.0105 6.29499 37.0711 6.25052L37.0089 6.20843C37.0089 6.20843 36.9475 6.20962 36.887 6.25409ZM37.1712 5.07954C37.1098 5.08072 37.1107 5.12401 37.0493 5.12519L37.1115 5.16729C37.1729 5.1661 37.1729 5.1661 37.2334 5.12163C37.2334 5.12163 37.172 5.12282 37.1712 5.07954ZM37.9916 6.23272L37.9311 6.27719C37.9319 6.32047 37.9319 6.32047 37.9941 6.36256L38.0546 6.31809C37.9924 6.276 37.9924 6.276 37.9916 6.23272ZM38.369 6.70169L38.3068 6.6596C38.3076 6.70288 38.2463 6.70407 38.2471 6.74735L38.3093 6.78945C38.3085 6.74616 38.3698 6.74498 38.369 6.70169ZM40.7392 2.28273L40.677 2.24063C40.6778 2.28392 40.6164 2.2851 40.6173 2.32839L40.6795 2.37048C40.6786 2.3272 40.6786 2.3272 40.7392 2.28273ZM41.2494 3.26872L41.1889 3.31319C41.2502 3.312 41.2511 3.35528 41.3124 3.35409L41.373 3.30962C41.373 3.30962 41.3108 3.26753 41.2494 3.26872ZM47.4468 3.10553L47.3846 3.06343C47.3854 3.10671 47.324 3.1079 47.3249 3.15118L47.3871 3.19328C47.3862 3.14999 47.4468 3.10553 47.4468 3.10553ZM47.7913 5.04728L47.7291 5.00518C47.7299 5.04846 47.6685 5.04965 47.6694 5.09293L47.7316 5.13503C47.7307 5.09175 47.7299 5.04846 47.7913 5.04728ZM48.2451 6.29414C48.246 6.33742 48.3073 6.33624 48.3082 6.37952L48.3687 6.33505C48.3679 6.29177 48.3679 6.29177 48.3057 6.24967C48.3065 6.29296 48.3065 6.29296 48.2451 6.29414ZM48.8304 4.81068C48.8312 4.85397 48.8926 4.85278 48.8934 4.89606L48.9539 4.85159C48.9531 4.80831 48.9531 4.80831 48.8909 4.76622C48.8917 4.8095 48.8917 4.8095 48.8304 4.81068ZM49.227 6.27515L49.2892 6.31724C49.2884 6.27396 49.3498 6.27277 49.3489 6.22949L49.2867 6.1874C49.2876 6.23068 49.2876 6.23068 49.227 6.27515ZM50.0494 4.35412L50.1116 4.39622C50.1729 4.39503 50.1729 4.39503 50.2335 4.35056L50.1713 4.30846C50.1713 4.30846 50.1107 4.35293 50.0494 4.35412ZM52.1931 4.09616C52.1922 4.05288 52.1309 4.05406 52.13 4.01078L52.0695 4.05525C52.0703 4.09853 52.0703 4.09853 52.1325 4.14063L52.1931 4.09616ZM52.4798 3.05146L52.5403 3.00699C52.479 3.00817 52.4781 2.96489 52.4168 2.96608L52.3562 3.01055C52.4176 3.00936 52.479 3.00817 52.4798 3.05146ZM52.831 5.33946L52.7688 5.29737C52.7697 5.34065 52.7083 5.34184 52.7091 5.38512L52.7713 5.42721C52.7705 5.38393 52.7697 5.34065 52.831 5.33946ZM53.7786 3.54591L53.7181 3.59038C53.7794 3.58919 53.7803 3.63247 53.8416 3.63128L53.9022 3.58682C53.8408 3.588 53.7794 3.58919 53.7786 3.54591ZM55.2077 4.42752L55.1471 4.47199C55.148 4.51527 55.148 4.51527 55.2102 4.55737L55.2707 4.5129C55.2707 4.5129 55.2085 4.4708 55.2077 4.42752ZM55.4244 6.11196L55.4849 6.06749C55.4236 6.06867 55.4227 6.02539 55.3614 6.02658L55.3008 6.07105C55.3622 6.06986 55.3622 6.06986 55.4244 6.11196ZM39.3233 5.25439L39.2611 5.2123C39.2619 5.25558 39.2005 5.25677 39.2014 5.30005L39.2636 5.34215C39.3241 5.29768 39.3233 5.25439 39.3233 5.25439ZM57.6356 2.99501L57.5734 2.95292C57.5742 2.9962 57.5129 2.99739 57.5137 3.04067L57.5759 3.08276C57.5751 3.03948 57.6356 2.99501 57.6356 2.99501ZM59.4178 3.09043L59.48 3.13252C59.5414 3.13134 59.5414 3.13134 59.6019 3.08687L59.5397 3.04477C59.4792 3.08924 59.4792 3.08924 59.4178 3.09043ZM60.0876 5.97845L60.027 6.02292C60.0884 6.02173 60.0893 6.06501 60.1506 6.06382L60.2111 6.01935C60.1498 6.02054 60.0884 6.02173 60.0876 5.97845ZM60.6332 5.62151C60.634 5.66479 60.6954 5.6636 60.6962 5.70688L60.7568 5.66241C60.7559 5.61913 60.7559 5.61913 60.6937 5.57704C60.6946 5.62032 60.6946 5.62032 60.6332 5.62151ZM61.1891 2.62318L61.1269 2.58108C61.1277 2.62437 61.0664 2.62555 61.0672 2.66884L61.1294 2.71093C61.1286 2.66765 61.1899 2.66646 61.1891 2.62318ZM61.3648 2.1868L61.3043 2.23127C61.3657 2.23008 61.3665 2.27336 61.4279 2.27218L61.4884 2.22771C61.427 2.22889 61.427 2.22889 61.3648 2.1868ZM61.9743 1.95852L61.9138 2.00299C61.9752 2.0018 61.976 2.04508 62.0374 2.04389L62.0979 1.99942C62.0365 2.00061 62.0357 1.95733 61.9743 1.95852ZM62.3484 2.25437L62.2879 2.29884C62.3492 2.29765 62.3501 2.34093 62.4114 2.33974L62.472 2.29527C62.4106 2.29646 62.3484 2.25437 62.3484 2.25437ZM110.1 1.67697L110.039 1.72144C110.101 1.72025 110.101 1.76353 110.163 1.76235L110.223 1.71788C110.162 1.71906 110.161 1.67578 110.1 1.67697ZM111.886 5.14956L111.948 5.19166C112.009 5.19047 112.009 5.19047 112.07 5.146L112.008 5.10391C112.008 5.10391 111.946 5.10509 111.886 5.14956ZM89.0495 2.0409C89.0487 1.99762 88.9873 1.99881 88.9865 1.95552L88.926 1.99999C88.9268 2.04328 88.9268 2.04328 88.989 2.08537C88.989 2.08537 88.989 2.08537 89.0495 2.0409ZM113.24 5.33985L113.178 5.29776C113.179 5.34104 113.117 5.34223 113.118 5.38551L113.18 5.42761C113.18 5.38432 113.179 5.34104 113.24 5.33985ZM114.092 1.77293L114.03 1.73083C114.031 1.77411 113.969 1.7753 113.97 1.81858L114.032 1.86068C114.032 1.8174 114.093 1.81621 114.092 1.77293ZM116.615 2.07051L116.553 2.02841C116.553 2.07169 116.492 2.07288 116.493 2.11616L116.555 2.15826C116.554 2.11498 116.553 2.07169 116.615 2.07051ZM116.994 2.62605C116.995 2.66933 117.056 2.66814 117.057 2.71143L117.118 2.66696C117.117 2.62367 117.117 2.62367 117.054 2.58158C116.994 2.62605 116.994 2.62605 116.994 2.62605ZM117.137 3.66244C117.136 3.61916 117.075 3.62035 117.074 3.57706L117.013 3.62153C117.014 3.66482 117.014 3.66481 117.076 3.70691C117.137 3.66244 117.137 3.66244 117.137 3.66244ZM88.8721 2.39072C88.873 2.434 88.9343 2.43281 88.9352 2.4761L88.9957 2.43163C88.9949 2.38834 88.9949 2.38834 88.9327 2.34625C88.8721 2.39072 88.8721 2.39072 88.8721 2.39072ZM88.7282 4.47181L88.666 4.42972C88.6669 4.473 88.6055 4.47419 88.6063 4.51747L88.6685 4.55956C88.6677 4.51628 88.6677 4.51628 88.7282 4.47181ZM97.0576 3.44471L96.9954 3.40262C96.9962 3.4459 96.9348 3.44709 96.9357 3.49037L96.9979 3.53246C96.997 3.48918 97.0576 3.44471 97.0576 3.44471ZM97.2501 3.87397L97.3123 3.91607C97.3736 3.91488 97.3736 3.91488 97.4342 3.87041L97.372 3.82831C97.3106 3.8295 97.2501 3.87397 97.2501 3.87397ZM92.3783 5.91664C92.3169 5.91782 92.3177 5.9611 92.2564 5.96229L92.3186 6.00439C92.3799 6.0032 92.3799 6.0032 92.4405 5.95873C92.4396 5.91545 92.4396 5.91545 92.3783 5.91664ZM89.7361 5.79456L89.7983 5.83665C89.8596 5.83547 89.8596 5.83547 89.9202 5.791L89.858 5.7489C89.7966 5.75009 89.7974 5.79337 89.7361 5.79456ZM74.6229 2.06021L74.6851 2.1023C74.6843 2.05902 74.7457 2.05783 74.7448 2.01455L74.6826 1.97245C74.6835 2.01574 74.6835 2.01574 74.6229 2.06021ZM128.53 2.35957L128.593 2.40166C128.654 2.40048 128.654 2.40048 128.714 2.35601L128.652 2.31391C128.591 2.3151 128.53 2.31629 128.53 2.35957ZM91.4412 1.90804L91.5034 1.95013C91.5026 1.90685 91.564 1.90566 91.5631 1.86238L91.5009 1.82028C91.5018 1.86357 91.5018 1.86357 91.4412 1.90804ZM128.887 1.7465L128.947 1.70203C128.886 1.70322 128.885 1.65994 128.824 1.66112L128.763 1.70559C128.825 1.70441 128.886 1.70322 128.887 1.7465ZM129.144 2.3477C129.145 2.39098 129.206 2.38979 129.207 2.43307L129.268 2.38861C129.267 2.34532 129.267 2.34532 129.205 2.30323C129.144 2.3477 129.144 2.3477 129.144 2.3477ZM73.609 3.59526C73.6098 3.63854 73.6712 3.63735 73.672 3.68063L73.7325 3.63616C73.7317 3.59288 73.7317 3.59288 73.6695 3.55079C73.6703 3.59407 73.6703 3.59407 73.609 3.59526ZM73.0299 2.22092L73.0921 2.26301C73.0912 2.21973 73.1526 2.21854 73.1518 2.17526L73.0896 2.13317C73.0904 2.17645 73.0912 2.21973 73.0299 2.22092ZM132.29 6.31356L132.353 6.35565C132.352 6.31237 132.413 6.31118 132.412 6.2679L132.35 6.22581C132.351 6.26909 132.351 6.26909 132.29 6.31356ZM133.308 1.79087C133.309 1.83415 133.37 1.83296 133.371 1.87624L133.431 1.83177C133.431 1.78849 133.431 1.78849 133.368 1.7464C133.368 1.7464 133.307 1.74758 133.308 1.79087ZM133.677 1.82702L133.739 1.86912C133.801 1.86793 133.801 1.86793 133.861 1.82346L133.799 1.78137C133.737 1.78256 133.737 1.78256 133.677 1.82702ZM134.628 3.36737C134.628 3.41065 134.69 3.40946 134.691 3.45274L134.751 3.40827C134.75 3.36499 134.75 3.36499 134.688 3.3229C134.688 3.3229 134.689 3.36618 134.628 3.36737ZM134.917 5.61328L134.979 5.65537C135.04 5.65419 135.04 5.65419 135.101 5.60972L135.039 5.56762C134.977 5.56881 134.978 5.61209 134.917 5.61328ZM135.529 5.51484L135.591 5.55694C135.652 5.55575 135.652 5.55575 135.713 5.51128L135.651 5.46919C135.589 5.47037 135.529 5.51484 135.529 5.51484ZM136.538 3.76338C136.539 3.80666 136.601 3.80548 136.601 3.84876L136.662 3.80429C136.661 3.76101 136.661 3.76101 136.599 3.71891C136.599 3.71891 136.599 3.71891 136.538 3.76338ZM70.157 6.04343C70.1579 6.08672 70.2192 6.08553 70.2201 6.12881L70.2806 6.08434C70.2798 6.04106 70.2798 6.04106 70.2176 5.99897C70.2176 5.99897 70.2184 6.04225 70.157 6.04343ZM138.301 6.02408C138.24 6.02527 138.241 6.06855 138.179 6.06974L138.241 6.11183C138.303 6.11065 138.303 6.11065 138.363 6.06618C138.363 6.06618 138.302 6.06736 138.301 6.02408ZM70.6323 2.05081L70.5701 2.00872C70.5709 2.052 70.5096 2.05319 70.5104 2.09647L70.5726 2.13856C70.634 2.13737 70.6331 2.09409 70.6323 2.05081ZM101.134 1.54733L101.074 1.5918C101.135 1.59061 101.136 1.63389 101.197 1.6327L101.258 1.58824C101.196 1.58942 101.135 1.59061 101.134 1.54733ZM140.684 5.4584L140.624 5.50287C140.685 5.50168 140.686 5.54496 140.747 5.54377L140.808 5.49931C140.747 5.50049 140.685 5.50168 140.684 5.4584ZM70.0555 3.96709C70.0563 4.01037 70.1177 4.00918 70.1185 4.05246L70.179 4.008C70.1782 3.96471 70.1782 3.96471 70.116 3.92262C70.116 3.92262 70.1168 3.9659 70.0555 3.96709ZM142.042 5.82182L141.982 5.86629C141.982 5.90957 141.982 5.90957 142.045 5.95166L142.105 5.90719C142.043 5.8651 142.042 5.82182 142.042 5.82182ZM143.853 1.06728L143.914 1.02281C143.852 1.024 143.852 0.980718 143.79 0.981905L143.73 1.02637C143.791 1.02519 143.791 1.02519 143.853 1.06728ZM69.9757 3.01607L70.0379 3.05817C70.037 3.01489 70.0984 3.0137 70.0976 2.97042L70.0354 2.92832C70.0362 2.9716 70.037 3.01489 69.9757 3.01607ZM144.905 1.47992C144.906 1.5232 144.967 1.52201 144.968 1.56529L145.028 1.52083C145.028 1.47754 145.028 1.47754 144.965 1.43545C144.904 1.43664 144.904 1.43664 144.905 1.47992ZM146.334 5.5223L146.273 5.56677C146.274 5.61005 146.274 5.61005 146.336 5.65215L146.397 5.60768C146.396 5.5644 146.395 5.52112 146.334 5.5223ZM69.8421 2.45578L69.9043 2.49788C69.9656 2.49669 69.9656 2.49669 70.0262 2.45222L69.964 2.41013C69.964 2.41013 69.9034 2.45459 69.8421 2.45578ZM148.279 1.37134L148.219 1.41581C148.28 1.41462 148.281 1.4579 148.342 1.45672L148.403 1.41225C148.341 1.37015 148.279 1.37134 148.279 1.37134ZM149.875 4.50124C149.813 4.50243 149.814 4.54571 149.753 4.5469L149.815 4.58899C149.876 4.5878 149.876 4.5878 149.937 4.54334C149.875 4.50124 149.875 4.50124 149.875 4.50124ZM102.377 5.50671L102.317 5.55118C102.378 5.54999 102.379 5.59327 102.44 5.59209L102.501 5.54762C102.439 5.5488 102.377 5.50671 102.377 5.50671ZM151.905 4.72175L151.844 4.76622C151.906 4.76504 151.906 4.80832 151.968 4.80713L152.028 4.76266C151.967 4.76385 151.967 4.76385 151.905 4.72175ZM156.782 2.98206L156.845 3.02416C156.906 3.02297 156.906 3.02297 156.967 2.9785L156.904 2.93641C156.844 2.98088 156.782 2.98206 156.782 2.98206ZM157.409 3.61942L157.469 3.57495C157.408 3.57614 157.407 3.53286 157.346 3.53404L157.285 3.57851C157.285 3.57851 157.347 3.62061 157.409 3.61942ZM157.458 2.969C157.396 2.97019 157.397 3.01347 157.336 3.01466L157.398 3.05676C157.459 3.05557 157.459 3.05557 157.52 3.0111C157.52 3.0111 157.52 3.0111 157.458 2.969ZM158.893 0.992824L158.832 1.03729C158.833 1.08057 158.833 1.08057 158.895 1.12267L158.956 1.0782C158.955 1.03492 158.893 0.992824 158.893 0.992824ZM160.803 4.54961C160.742 4.5508 160.743 4.59408 160.681 4.59526L160.744 4.63736C160.805 4.63617 160.805 4.63617 160.865 4.5917C160.804 4.59289 160.804 4.59289 160.803 4.54961ZM160.905 3.46518C160.844 3.46637 160.844 3.50965 160.783 3.51084L160.845 3.55294C160.907 3.55175 160.907 3.55175 160.967 3.50728C160.967 3.50728 160.966 3.464 160.905 3.46518ZM161.546 1.67757L161.606 1.6331C161.545 1.63428 161.544 1.591 161.483 1.59219L161.422 1.63666C161.484 1.63547 161.545 1.63428 161.546 1.67757ZM166.394 1.58378C166.395 1.62706 166.456 1.62587 166.457 1.66915L166.517 1.62468C166.517 1.5814 166.517 1.5814 166.454 1.53931C166.393 1.54049 166.394 1.58378 166.394 1.58378ZM167.528 3.07727L167.59 3.11937C167.589 3.07609 167.651 3.0749 167.65 3.03162L167.587 2.98952C167.588 3.03281 167.588 3.03281 167.528 3.07727ZM104.608 3.38525L104.547 3.42972C104.548 3.473 104.548 3.473 104.61 3.5151L104.671 3.47063C104.671 3.47063 104.608 3.42853 104.608 3.38525ZM169.238 5.81526L169.299 5.77079C169.237 5.77198 169.237 5.7287 169.175 5.72989L169.115 5.77436C169.115 5.77436 169.177 5.81645 169.238 5.81526ZM68.8708 6.19821L68.8103 6.24268C68.8111 6.28596 68.8111 6.28596 68.8733 6.32806L68.9338 6.28359C68.933 6.24031 68.8716 6.24149 68.8708 6.19821ZM90.1575 2.19266L90.0953 2.15056C90.0961 2.19385 90.0348 2.19503 90.0356 2.23832L90.0978 2.28041C90.1592 2.27922 90.1584 2.23594 90.1575 2.19266ZM69.1578 1.99274L69.22 2.03483C69.2814 2.03365 69.2814 2.03365 69.3419 1.98918L69.2797 1.94708C69.2183 1.94827 69.1578 1.99274 69.1578 1.99274ZM173.292 5.91003L173.353 5.86557C173.291 5.86675 173.29 5.82347 173.229 5.82466L173.168 5.86913C173.23 5.86794 173.292 5.91003 173.292 5.91003ZM68.2496 5.82055L68.3118 5.86264C68.3732 5.86145 68.3732 5.86145 68.4337 5.81698L68.3715 5.77489C68.3101 5.77608 68.2496 5.82055 68.2496 5.82055ZM105.992 1.97292C105.931 1.97411 105.932 2.01739 105.87 2.01858L105.933 2.06067C105.994 2.05949 105.994 2.05949 106.054 2.01502C106.054 2.01502 106.054 2.01502 105.992 1.97292ZM68.3185 6.2089L68.2563 6.1668C68.2571 6.21008 68.1957 6.21127 68.1966 6.25455L68.2588 6.29665C68.3193 6.25218 68.3193 6.25218 68.3185 6.2089ZM93.4712 5.28932L93.409 5.24722C93.4098 5.29051 93.3484 5.29169 93.3493 5.33497L93.4115 5.37707C93.4115 5.37707 93.472 5.3326 93.4712 5.28932ZM107.025 1.43336C107.087 1.43217 107.086 1.38889 107.147 1.3877L107.085 1.3456C107.024 1.34679 107.024 1.34679 106.963 1.39126C106.963 1.39126 106.964 1.43454 107.025 1.43336ZM190.057 6.19187L190.118 6.1474C190.056 6.14859 190.056 6.10531 189.994 6.1065L189.934 6.15096C189.995 6.14978 190.056 6.14859 190.057 6.19187ZM193.427 2.66283C193.488 2.66165 193.487 2.61836 193.549 2.61718L193.487 2.57508C193.425 2.57627 193.425 2.57627 193.365 2.62074C193.365 2.62074 193.426 2.61955 193.427 2.66283ZM107.766 1.63552L107.706 1.67999C107.706 1.72327 107.706 1.72327 107.769 1.76536L107.829 1.7209C107.829 1.7209 107.828 1.67761 107.766 1.63552ZM66.659 6.11111C66.6599 6.15439 66.7212 6.1532 66.7221 6.19648L66.7826 6.15201C66.7818 6.10873 66.7818 6.10873 66.7196 6.06664L66.659 6.11111ZM66.5112 4.81502L66.4506 4.85949C66.4515 4.90277 66.4515 4.90277 66.5137 4.94487L66.5742 4.9004C66.5734 4.85712 66.512 4.8583 66.5112 4.81502ZM202.424 4.3939L202.484 4.34944C202.423 4.35062 202.422 4.30734 202.361 4.30853L202.3 4.353C202.361 4.35181 202.424 4.3939 202.424 4.3939ZM66.4043 5.63975C66.343 5.64094 66.3438 5.68422 66.2824 5.68541L66.3446 5.7275C66.406 5.72632 66.406 5.72632 66.4665 5.68185C66.4665 5.68185 66.4665 5.68185 66.4043 5.63975ZM83.0385 5.49115C82.9772 5.49233 82.978 5.53561 82.9166 5.5368L82.9788 5.5789C83.0402 5.57771 83.0402 5.57771 83.1007 5.53324C83.1007 5.53324 83.1007 5.53324 83.0385 5.49115ZM66.0177 4.69467L65.9555 4.65258C65.9563 4.69586 65.895 4.69705 65.8958 4.74033L65.958 4.78242C65.9572 4.73914 65.9572 4.73914 66.0177 4.69467ZM64.6952 6.1491L64.7574 6.19119C64.8188 6.19 64.8188 6.19 64.8793 6.14553L64.8171 6.10344C64.7566 6.14791 64.6952 6.1491 64.6952 6.1491ZM88.5717 5.90368L88.634 5.94577C88.6331 5.90249 88.6945 5.9013 88.6936 5.85802L88.6314 5.81593C88.6314 5.81593 88.6323 5.85921 88.5717 5.90368ZM108.628 1.74874L108.69 1.79084C108.751 1.78965 108.751 1.78965 108.812 1.74518L108.75 1.70309C108.75 1.74637 108.689 1.74756 108.628 1.74874ZM81.6421 6.29753L81.5799 6.25543C81.5808 6.29871 81.5194 6.2999 81.5202 6.34318L81.5824 6.38528C81.5816 6.342 81.5808 6.29871 81.6421 6.29753ZM109.207 3.12308C109.145 3.12427 109.146 3.16755 109.085 3.16874L109.147 3.21083C109.209 3.20964 109.209 3.20964 109.269 3.16518C109.208 3.16636 109.208 3.16636 109.207 3.12308ZM63.7632 2.40019C63.7624 2.35691 63.701 2.35809 63.7002 2.31481L63.6397 2.35928C63.6405 2.40256 63.6405 2.40256 63.7027 2.44466L63.7632 2.40019ZM63.2065 5.35523C63.2073 5.39851 63.2687 5.39733 63.2695 5.44061L63.3301 5.39614C63.3292 5.35286 63.3292 5.35286 63.267 5.31076C63.2678 5.35405 63.2678 5.35405 63.2065 5.35523ZM112.953 6.34128C113.014 6.34009 113.074 6.29562 113.135 6.25115C113.073 6.20905 113.01 6.12368 112.948 6.08158C112.886 6.08277 112.826 6.12724 112.642 6.17408C112.767 6.25827 112.83 6.34365 112.953 6.34128ZM110.932 6.59686C110.993 6.59568 111.055 6.63777 111.055 6.63777C111.117 6.63658 111.177 6.59211 111.238 6.54764C111.176 6.54883 111.114 6.50674 110.99 6.46583C111.053 6.50792 110.992 6.55239 110.932 6.59686ZM117.561 6.55521C117.562 6.59849 117.564 6.68505 117.626 6.72715C117.687 6.72596 117.748 6.68149 117.748 6.68149C117.747 6.63821 117.745 6.55165 117.744 6.46508C117.683 6.50955 117.561 6.55521 117.561 6.55521ZM128.363 6.38954C128.424 6.38835 128.486 6.38717 128.547 6.38598C128.485 6.34388 128.483 6.25732 128.422 6.25851C128.36 6.25969 128.238 6.26207 128.116 6.30772C128.239 6.34863 128.301 6.39073 128.363 6.38954ZM51.7557 6.8757C51.8171 6.87451 51.9398 6.87214 52.0003 6.82767C51.9995 6.78439 51.9373 6.74229 51.9373 6.74229C51.8759 6.74348 51.7532 6.74585 51.6305 6.74823C51.7549 6.83242 51.7557 6.8757 51.7557 6.8757ZM53.3504 6.80155C53.4118 6.80036 53.5346 6.79799 53.5951 6.75352C53.5942 6.71024 53.532 6.66814 53.532 6.66814C53.4707 6.66933 53.3479 6.67171 53.2252 6.67408C53.2882 6.75946 53.3504 6.80155 53.3504 6.80155ZM34.5095 7.12274C34.5087 7.07946 34.57 7.07828 34.5692 7.03499L34.507 6.9929C34.5078 7.03618 34.4465 7.03737 34.4473 7.08065C34.5087 7.07946 34.5095 7.12274 34.5095 7.12274ZM50.9588 6.93442C51.0201 6.93323 51.0201 6.93323 51.0807 6.88876L51.0184 6.84667C50.9571 6.84785 50.9571 6.84785 50.8965 6.89232C50.8965 6.89232 50.8974 6.9356 50.9588 6.93442ZM51.3261 6.88401C51.327 6.92729 51.327 6.92729 51.3892 6.96939L51.4497 6.92492C51.4489 6.88164 51.4489 6.88164 51.3867 6.83954C51.3261 6.88401 51.3261 6.88401 51.3261 6.88401ZM55.0066 6.72621L55.0688 6.76831C55.1301 6.76712 55.1301 6.76712 55.1907 6.72265L55.1285 6.68056C55.1285 6.68056 55.0671 6.68174 55.0066 6.72621ZM80.3727 7.31794L80.4349 7.36004C80.4962 7.35885 80.4962 7.35885 80.5568 7.31438L80.4946 7.27229C80.434 7.31676 80.3727 7.31794 80.3727 7.31794ZM115.665 6.89498C115.726 6.8938 115.726 6.8938 115.786 6.84933L115.724 6.80723C115.663 6.80842 115.663 6.80842 115.602 6.85289C115.602 6.85289 115.603 6.89617 115.665 6.89498ZM76.683 6.99964L76.7452 7.04173C76.8066 7.04055 76.8066 7.04055 76.8671 6.99608L76.8049 6.95398C76.7435 6.95517 76.7435 6.95517 76.683 6.99964ZM120.9 1.42474C120.961 1.42355 120.96 1.38027 121.022 1.37908C120.959 1.33699 120.959 1.33699 120.897 1.29489L120.837 1.33936C120.838 1.38264 120.899 1.38145 120.9 1.42474ZM121.883 1.4923C121.945 1.49112 121.944 1.44784 122.005 1.44665C121.943 1.40455 121.943 1.40455 121.881 1.36246L121.82 1.40693C121.821 1.45021 121.882 1.44902 121.883 1.4923ZM130.881 6.42743C130.881 6.47071 130.882 6.51399 130.944 6.5128C130.944 6.5128 131.005 6.51162 131.066 6.51043C131.065 6.46715 131.004 6.46834 131.003 6.42505C130.942 6.42624 130.942 6.42624 130.881 6.42743ZM86.8685 6.716L86.9307 6.75809C86.9921 6.7569 86.9921 6.7569 87.0526 6.71243L86.9904 6.67034C86.9912 6.71362 86.9299 6.71481 86.8685 6.716ZM201.933 1.24263C201.994 1.24145 202.055 1.19698 202.116 1.19579C202.054 1.15369 201.992 1.1116 201.992 1.1116C201.992 1.1116 201.993 1.15488 201.933 1.24263ZM64.264 6.07084C64.2598 5.85443 64.016 5.94575 63.8924 5.90484C63.8933 5.94812 63.8941 5.9914 63.8949 6.03468C64.0185 6.07559 64.1412 6.07322 64.264 6.07084Z" fill="#FDB706"/>
</svg>
