<svg width="199" height="9" viewBox="0 0 199 9" fill="none" xmlns="http://www.w3.org/2000/svg">
<path d="M51.3514 3.09546C51.4087 2.87822 51.5874 2.74592 51.7083 2.78759C52.0097 2.82681 51.9466 2.6112 52.0663 2.56629C52.1878 2.65124 52.3093 2.73618 52.4308 2.82113C52.5517 2.8628 52.7328 2.90365 52.7924 2.85955C53.0313 2.72644 53.1522 2.76811 53.1551 2.98454C53.1557 3.02782 53.3362 3.02539 53.3969 3.06786C53.3963 3.02457 53.3957 2.98129 53.3951 2.938L53.3344 2.89553C53.2725 2.76648 53.21 2.59415 53.2696 2.55005C53.6288 2.41532 53.5125 2.71995 53.634 2.8049C53.6948 2.84737 53.7561 2.93313 53.8169 2.97561C53.8776 3.01808 53.9372 2.97398 53.9979 3.01646C53.9973 2.97317 53.9968 2.92989 53.9962 2.8866C53.995 2.80003 53.9331 2.67098 53.9933 2.67017C54.1726 2.58116 54.2339 2.66692 54.3554 2.75187C54.4769 2.83682 54.6007 3.09491 54.7164 2.747C55.2572 2.69641 55.7963 2.51596 56.3419 2.81165C56.5235 2.89579 56.5247 2.98236 56.6421 2.76431C56.7601 2.58954 57.1818 2.62715 57.3658 2.88443C57.3658 2.88443 57.3658 2.88443 57.3652 2.84114C57.3051 2.84195 57.2449 2.84276 57.2455 2.88605C57.2455 2.88605 57.2461 2.92934 57.2466 2.97262C57.3068 2.97181 57.3062 2.92852 57.3658 2.88443C57.5434 2.66556 57.6631 2.62065 57.7823 2.53246C58.0211 2.39935 57.9633 2.57331 58.0241 2.61578C58.0854 2.70154 58.2659 2.69911 58.3868 2.74077C58.3278 2.82815 58.2688 2.91554 58.2092 2.95964C58.3295 2.95801 58.3897 2.9572 58.51 2.95558C58.6304 2.95395 58.8103 2.90823 58.9907 2.9058C58.9312 2.94989 58.8716 2.99399 58.8126 3.08138C58.8126 3.08138 58.8745 3.21042 58.8739 3.16714C58.9942 3.16551 59.114 3.1206 59.2945 3.11817C59.2331 3.03241 59.1122 2.99074 58.9907 2.9058C58.8669 2.6477 58.6858 2.60685 58.3868 2.74077C58.5013 2.30628 58.5001 2.21971 58.9837 2.38636C59.2863 2.51216 59.7051 2.33334 60.0088 2.54571C60.0696 2.58818 60.2495 2.54246 60.3698 2.54084C60.6688 2.40692 60.9702 2.44615 61.1525 2.57357C61.2132 2.61604 61.3335 2.61442 61.4539 2.6128C61.4539 2.6128 61.4527 2.52623 61.5123 2.48213C61.6314 2.39393 61.8107 2.30492 61.8709 2.30411C62.052 2.34496 62.1139 2.47401 61.875 2.60712C61.8154 2.65121 62.2394 2.86196 62.4188 2.77295C62.5981 2.68395 62.7768 2.55165 63.0186 2.63498C63.0186 2.63498 63.0186 2.63498 62.9585 2.63579C62.9591 2.67908 62.9596 2.72236 63.0198 2.72155C63.0198 2.72155 63.08 2.72074 63.1401 2.71993C63.1395 2.67664 63.0794 2.67745 63.0186 2.63498C62.9555 2.41936 63.1343 2.28707 63.3148 2.28463C63.7359 2.27895 64.216 2.18588 64.5215 2.52811C64.6442 2.69963 64.9409 2.39257 65.0647 2.65066C65.3024 2.43099 65.5442 2.51431 65.7855 2.55435C65.966 2.55192 66.0839 2.37715 66.3269 2.54705C66.4484 2.63199 66.685 2.32574 66.8684 2.53974C66.869 2.58303 66.9291 2.58221 66.9893 2.5814C67.4098 2.53243 68.1312 2.47941 68.5541 2.60358C68.7959 2.68691 68.9168 2.72857 69.1551 2.55218C69.2147 2.50808 69.5149 2.46074 69.5756 2.50321C69.8794 2.71558 70.1177 2.53919 70.297 2.45018C70.6556 2.27217 70.655 2.22888 70.8986 2.44207C71.0814 2.61278 71.2631 2.69691 71.5621 2.563C71.8063 2.81947 71.9844 2.64389 72.1637 2.55488C72.1637 2.55488 73.1246 2.41203 73.1853 2.45451C73.3068 2.53945 73.4277 2.58112 73.607 2.49211C73.6666 2.44801 73.8471 2.44558 73.9073 2.44477C74.1497 2.57138 74.3325 2.74209 74.7519 2.60654C75.0521 2.5592 75.3541 2.64171 75.715 2.63684C75.7752 2.63603 75.8348 2.59193 75.8949 2.59112C76.135 2.54459 76.0713 2.28568 76.3715 2.23834C76.6122 2.23509 76.736 2.49319 76.9743 2.31679C77.0339 2.2727 77.1548 2.31436 77.2156 2.35683C77.3966 2.39768 77.4013 2.74397 77.7593 2.52267C77.8791 2.47776 78.1822 2.64685 78.4235 2.68689C78.8463 2.81106 79.3259 2.67471 79.6857 2.58327C80.0455 2.49182 80.2873 2.57515 80.5875 2.52781C80.6477 2.52699 80.6483 2.57028 80.709 2.61275C80.6488 2.61357 80.5893 2.65766 80.5291 2.65848C80.4689 2.65929 80.4088 2.6601 80.3486 2.66091C80.2885 2.66172 80.2283 2.66253 80.1681 2.66335C80.2289 2.70582 80.2295 2.74911 80.2902 2.79158C80.351 2.83405 80.4724 2.919 80.5933 2.96067C80.6535 2.95985 80.8334 2.91413 80.893 2.87004C80.952 2.78265 80.8907 2.69689 80.9496 2.60951C81.0092 2.56541 81.0682 2.47803 81.1885 2.4764C81.8497 2.42419 82.5156 2.71826 83.2346 2.49209C83.4145 2.44637 83.0594 2.8841 83.5378 2.66117C83.7171 2.57217 83.8362 2.48397 83.9554 2.39578C84.015 2.35168 84.1966 2.43581 84.1966 2.43581C84.2007 2.73882 84.3841 2.95281 84.5079 3.2109C84.5085 3.25419 84.4489 3.29829 84.3899 3.38567C84.3905 3.42896 84.331 3.47306 84.331 3.47306C84.4524 3.55801 84.873 3.50904 84.9916 3.37756C85.1101 3.24607 85.2287 3.11459 84.9261 2.98879C84.8052 2.94713 84.6236 2.86299 84.6224 2.77642C84.5611 2.69066 84.6195 2.55999 84.6785 2.47261C84.7392 2.51508 84.8601 2.55674 84.9209 2.59922C84.981 2.59841 85.0418 2.64088 85.1014 2.59678C85.7608 2.41471 86.3648 2.57974 87.0265 2.57081C87.4477 2.56512 87.8682 2.51616 88.2882 2.4239C88.5282 2.37737 88.5878 2.33327 88.6509 2.54889C88.714 2.76451 88.954 2.71797 89.1339 2.67225C89.2537 2.62734 88.891 2.50236 89.131 2.45582C89.2508 2.41091 89.4324 2.49505 89.6129 2.49261C89.9137 2.48856 90.2729 2.35383 90.4546 2.43796C90.7571 2.56376 90.9954 2.38737 91.2968 2.4266C91.7185 2.4642 91.9592 2.46096 92.142 2.63167C92.2635 2.71661 92.3248 2.80237 92.4463 2.88732C92.5071 2.9298 92.6274 2.92817 92.6875 2.92736C92.7471 2.88326 92.8061 2.79588 92.7454 2.75341C92.684 2.66765 92.5024 2.58351 92.7419 2.49369C93.1017 2.40225 93.5204 2.22342 93.823 2.34922C94.0047 2.43336 94.1244 2.38845 94.2441 2.34354C94.5449 2.33948 94.427 2.51425 94.4287 2.64411C94.3691 2.6882 94.3096 2.7323 94.1904 2.8205C94.1904 2.8205 94.1904 2.8205 94.1898 2.77721C94.1297 2.77802 94.0695 2.77883 94.0701 2.82212C94.0701 2.82212 94.0707 2.86541 94.0713 2.90869C94.1314 2.90788 94.1308 2.86459 94.1904 2.8205C94.2494 2.73311 94.309 2.68901 94.4287 2.64411C94.549 2.64248 94.6699 2.68414 94.7295 2.64005C95.2675 2.37302 95.2675 2.37302 95.8714 2.53805C96.0525 2.5789 96.3556 2.74799 96.4111 2.40089C96.4111 2.40089 96.6512 2.35435 96.7119 2.39683C96.8328 2.43849 96.8947 2.56754 97.0162 2.65249C97.0752 2.5651 97.1336 2.43443 97.2534 2.38952C97.4934 2.34299 97.7937 2.29564 98.0343 2.2924C98.3953 2.28753 98.7586 2.4558 99.1166 2.2345L99.1768 2.23369C99.4823 2.57592 99.7813 2.442 100.141 2.30727C100.2 2.26317 100.621 2.21421 100.565 2.51802C100.567 2.69116 100.867 2.64382 101.048 2.64138C101.228 2.59566 101.406 2.46337 101.585 2.33108C101.645 2.33026 101.765 2.32864 101.766 2.37193C101.828 2.50097 101.59 2.67737 101.891 2.71659C102.192 2.75582 102.495 2.88162 102.793 2.66113C102.852 2.57375 102.972 2.52884 103.091 2.48393C103.211 2.39573 103.391 2.3933 103.512 2.47824C103.635 2.60648 103.815 2.60404 103.874 2.51666C104.111 2.2537 104.412 2.24964 104.772 2.20148C105.193 2.15251 105.432 2.06269 105.796 2.27425C105.918 2.3592 106.219 2.35514 106.338 2.31023C106.817 2.1306 107.119 2.21311 107.543 2.38057C107.603 2.42305 107.964 2.37489 107.963 2.3316C108.078 1.9404 108.444 2.28182 108.623 2.19282C108.867 2.44928 109.227 2.35784 109.589 2.39626C109.89 2.3922 110.133 2.60538 110.492 2.47065C110.612 2.42574 110.853 2.46578 111.034 2.50663C111.396 2.54505 111.818 2.62594 112.179 2.57778C112.599 2.48553 112.842 2.69871 113.142 2.65137C113.383 2.64812 113.623 2.60159 113.863 2.51177C114.162 2.37785 114.58 2.19902 115.005 2.45306C115.126 2.49472 115.365 2.36162 115.606 2.35837C115.846 2.35512 116.087 2.35187 116.268 2.39273C116.45 2.47686 116.57 2.51853 116.749 2.38623C116.809 2.34213 117.049 2.33889 117.169 2.29398C117.229 2.29317 117.29 2.33564 117.35 2.33483C117.291 2.37893 117.23 2.37974 117.171 2.42384C117.111 2.46793 117.052 2.55532 116.933 2.60023C116.993 2.6427 117.054 2.68518 117.114 2.68436C117.656 2.72034 118.199 2.79961 118.676 2.49011C118.918 2.61673 119.16 2.70005 119.461 2.65271C119.521 2.65189 119.58 2.56451 119.639 2.52041C120.065 2.86102 120.423 2.59643 120.901 2.41679C120.902 2.46008 120.782 2.50499 120.782 2.50499C120.844 2.63404 120.906 2.7198 120.967 2.84884C121.027 2.80474 121.087 2.80393 121.087 2.76065C121.085 2.67407 121.024 2.54503 120.901 2.41679C121.5 2.19224 121.5 2.19225 121.983 2.31561C122.043 2.3148 122.105 2.40056 122.104 2.35727C122.643 2.17682 123.248 2.38513 123.728 2.29207C123.968 2.24554 124.029 2.3313 124.15 2.32967C124.632 2.40975 125.113 2.35997 125.53 2.09457C125.769 1.96147 125.95 1.95903 126.133 2.12974C126.193 2.17221 126.195 2.25879 126.195 2.30207C126.255 2.25798 126.253 2.1714 126.313 2.1273C126.432 1.99582 126.612 1.99339 126.674 2.12243C126.735 2.20819 126.798 2.38053 126.799 2.4671C126.801 2.59696 126.862 2.63943 126.981 2.55124C127.04 2.50714 127.099 2.41975 127.099 2.37647C127.098 2.33318 127.037 2.29071 126.977 2.29152C126.916 2.24905 126.916 2.20576 126.855 2.12C126.915 2.11919 127.035 2.11756 127.095 2.11675C127.336 2.11351 127.458 2.24174 127.521 2.45736C127.521 2.45736 127.521 2.45736 127.52 2.41407C127.46 2.41488 127.4 2.4157 127.401 2.45898C127.401 2.45898 127.401 2.50227 127.402 2.54555C127.462 2.54474 127.461 2.50146 127.521 2.45736C127.64 2.32588 127.758 2.1944 127.878 2.19277C128.119 2.14624 128.364 2.48928 128.661 2.2255C128.84 2.09321 129.14 2.04587 129.381 2.04262C129.682 2.03856 129.982 2.0345 130.285 2.1603C130.527 2.24363 131.009 2.32371 131.128 2.19222C131.606 1.92601 132.029 2.09347 132.45 2.08779C132.51 2.08698 132.692 2.17112 132.693 2.2144C132.695 2.38755 132.875 2.38511 132.995 2.3402C133.354 2.16219 133.774 2.11322 134.196 2.15082C134.376 2.14839 134.616 2.05857 134.796 2.05613C134.977 2.0537 135.218 2.05045 135.339 2.1354C135.582 2.3053 135.698 2.00067 135.88 2.08481C136.001 2.12647 136.363 2.20817 136.359 1.90517C136.359 1.90517 136.659 1.85783 136.779 1.8562C137.683 1.9306 138.524 1.83266 139.427 1.82048C139.487 1.81967 139.547 1.86215 139.608 1.86134C139.91 1.94385 140.212 2.02636 140.449 1.80669C140.627 1.63111 140.869 1.71443 141.05 1.712C141.291 1.75203 141.472 1.79289 141.652 1.79045C141.953 1.78639 142.194 1.78314 142.495 1.77909C142.735 1.77584 142.977 1.81588 143.277 1.81182C143.518 1.80857 143.818 1.71794 143.939 1.7596C144.182 1.9295 144.3 1.79802 144.48 1.7523C144.839 1.61757 144.905 2.04962 145.324 1.87079C145.503 1.78178 145.925 1.7761 146.106 1.86024C146.348 1.94356 146.408 1.94275 146.587 1.85374C146.887 1.71983 147.246 1.62839 147.608 1.6668C147.849 1.70684 148.15 1.74607 148.45 1.65544C148.63 1.60971 148.993 1.7347 149.235 1.81803C149.295 1.8605 149.417 1.98874 149.476 1.85807C149.591 1.51015 150.138 1.89242 150.194 1.58861C150.44 1.93165 150.795 1.53721 151.097 1.61972C151.399 1.70223 151.758 1.52422 152.061 1.6933C152.364 1.86239 152.72 1.51123 153.084 1.72279C153.145 1.76526 153.445 1.67463 153.685 1.6281C153.865 1.58238 154.104 1.49256 154.165 1.53503C154.529 1.78988 154.949 1.69763 155.311 1.73604C155.492 1.77689 155.854 1.85859 155.85 1.55559L155.91 1.51149C156.453 1.63405 157.051 1.36621 157.534 1.48958C157.836 1.57209 158.075 1.48227 158.317 1.52231C158.558 1.56235 158.68 1.69058 159.04 1.59914C159.28 1.55261 159.579 1.46198 159.88 1.41463C159.94 1.41382 159.999 1.36972 160.06 1.36891C160.422 1.4939 160.902 1.40083 161.204 1.48335C161.566 1.56505 161.805 1.43194 162.107 1.51445C162.409 1.59697 162.71 1.59291 163.071 1.58804C163.131 1.58723 163.25 1.49903 163.31 1.45493C163.37 1.41084 163.549 1.32183 163.61 1.3643C164.155 1.61671 164.757 1.65188 165.356 1.47062C165.476 1.42571 165.719 1.63889 165.899 1.59317C166.079 1.54745 166.198 1.45926 166.381 1.58668C166.501 1.62834 166.801 1.53771 166.862 1.62347C167.045 1.75089 167.285 1.74765 167.466 1.74521C168.126 1.60642 168.85 1.72654 169.512 1.7609C169.632 1.75927 169.752 1.71437 169.872 1.66946C170.712 1.52823 171.494 1.51768 172.339 1.72275C172.521 1.7636 172.76 1.67378 172.881 1.75873C173.064 1.88615 173.304 1.8829 173.485 1.88047C173.665 1.87803 173.844 1.74574 174.027 1.91645C174.027 1.91645 174.147 1.91482 174.207 1.91401C174.745 1.6037 175.349 1.76873 175.89 1.76143C176.251 1.75655 176.672 1.70759 177.093 1.7019C177.514 1.69622 177.877 1.8645 178.295 1.64238C178.415 1.55419 178.717 1.67999 178.958 1.67674C179.44 1.71353 179.861 1.70785 180.341 1.65807C180.822 1.60829 181.361 1.42784 181.907 1.72354C182.088 1.80767 182.571 1.88775 182.869 1.66726C183.413 1.8331 184.01 1.47869 184.494 1.73192C184.616 1.81687 184.917 1.81281 185.095 1.68051C185.335 1.59069 185.396 1.67645 185.399 1.8496C185.402 2.10932 185.463 2.15179 185.762 2.01787C185.882 1.97296 186.001 1.88477 186.12 1.83986L186.602 1.87665C186.842 1.83012 187.082 1.78358 187.323 1.78034C187.504 1.7779 187.686 1.90532 187.866 1.8596C188.286 1.76735 188.588 1.84986 188.832 2.10633C188.893 2.14881 189.073 2.14637 189.194 2.18803C189.194 2.18803 189.194 2.18803 189.134 2.18885C189.134 2.23213 189.135 2.27542 189.195 2.27461C189.195 2.27461 189.255 2.27379 189.315 2.27298C189.315 2.2297 189.255 2.23051 189.194 2.18803C189.133 2.10227 189.192 2.05818 189.191 1.9716C189.251 1.97079 189.311 1.96998 189.372 2.01245L189.433 2.05493C190.271 1.74056 191.116 1.90234 191.958 1.93426C192.019 1.93345 192.139 1.93183 192.199 1.88773C192.498 1.75381 192.38 1.92858 192.381 2.01515C192.381 2.05844 192.442 2.10091 192.502 2.1001C192.862 2.00866 193.222 1.91722 193.466 2.17369C193.765 2.03977 194.127 2.12147 194.427 2.03084C194.607 1.98512 194.726 1.94021 194.909 2.06763C194.969 2.11011 195.15 2.10767 195.271 2.14933C195.934 2.27026 196.654 2.08738 197.26 2.38226C197.32 2.42474 197.618 2.16096 197.682 2.46315C197.622 2.46396 197.562 2.50806 197.502 2.50887C197.563 2.55135 197.624 2.59382 197.624 2.59382C197.747 2.85191 198.167 2.75966 198.351 2.97366C198.534 3.18765 198.777 3.31426 198.779 3.53069C198.782 3.74712 199.206 3.95787 198.788 4.17998C198.609 4.26899 199.093 4.43564 198.793 4.56956C198.494 4.70348 198.797 4.82928 198.799 4.95913C198.744 5.34952 198.75 5.78238 198.635 6.17358C198.578 6.43411 198.098 6.52717 198.102 6.83018C198.103 6.87346 197.857 6.53042 197.801 6.83424C197.802 6.92081 197.864 7.04985 197.926 7.13561C197.988 7.30795 197.929 7.39533 197.628 7.3561C197.507 7.35773 197.327 7.40345 197.328 7.44674C197.392 7.74893 197.091 7.75298 196.79 7.71376C196.549 7.717 196.307 7.59039 196.069 7.76678C196.009 7.81088 195.828 7.77003 195.767 7.72756C195.525 7.60095 195.284 7.56091 194.985 7.69482C194.745 7.78464 194.565 7.78708 194.382 7.65965L194.262 7.61799C194.143 7.74947 194.024 7.83767 193.845 7.96996C193.663 7.88583 193.54 7.67102 193.36 7.67345C193.119 7.6767 192.942 7.89557 192.758 7.63829C192.399 7.85959 191.975 7.60555 191.615 7.697C191.075 7.79087 190.713 7.75246 190.349 7.49761C190.288 7.45514 190.107 7.41429 189.987 7.4592C189.567 7.55145 189.147 7.60042 188.848 7.77762C188.549 7.91154 188.487 7.78249 188.306 7.74164C187.883 7.61747 187.341 7.5382 186.86 7.58798C186.619 7.59123 186.379 7.63776 186.139 7.64101C185.898 7.64425 185.595 7.51845 185.358 7.73813C185.175 7.56742 184.994 7.52657 184.755 7.70296C184.755 7.70296 184.635 7.70459 184.575 7.7054C184.213 7.66698 183.909 7.36804 183.49 7.59015C183.191 7.72407 182.767 7.51332 182.409 7.69134C182.289 7.73625 182.048 7.69621 181.867 7.65536C181.505 7.61694 181.082 7.49276 180.843 7.62587C180.485 7.80388 180.239 7.41756 179.88 7.59557C179.701 7.72786 179.218 7.6045 178.857 7.60937C178.617 7.61262 178.435 7.52848 178.255 7.53092C178.194 7.53173 178.073 7.49006 178.073 7.49006C177.595 7.71299 177.052 7.63372 176.571 7.59693C176.33 7.60018 175.971 7.73491 175.909 7.64915C175.666 7.43596 175.429 7.69893 175.187 7.6156C174.946 7.57556 174.706 7.6221 174.466 7.66863C174.165 7.71597 173.744 7.72166 173.442 7.59586C172.837 7.38754 172.235 7.39566 171.575 7.49116C171.034 7.54175 170.491 7.4192 169.949 7.42651C169.528 7.3889 169.105 7.30801 168.687 7.48684C168.387 7.62076 168.142 7.27771 167.783 7.41244C167.604 7.50145 167.182 7.50713 166.879 7.29476C166.818 7.25229 166.638 7.29801 166.518 7.34292C166.159 7.43436 165.798 7.48252 165.437 7.4441C165.075 7.40569 164.712 7.23741 164.354 7.502C164.17 7.24472 163.692 7.46764 163.448 7.21117L163.327 7.2128C162.969 7.4341 162.547 7.35321 162.066 7.3597C161.825 7.36295 161.648 7.58181 161.464 7.32453C161.464 7.32453 161.403 7.28206 161.404 7.32534C160.925 7.54827 160.38 7.29586 159.84 7.38974C159.66 7.43546 159.48 7.48118 159.299 7.44033C158.998 7.4011 158.698 7.49173 158.395 7.32265C158.274 7.28098 157.916 7.50228 157.735 7.50472C157.435 7.50878 157.072 7.42708 156.771 7.38785C156.349 7.35025 155.928 7.31264 155.506 7.27504C155.446 7.27585 155.327 7.36405 155.266 7.36486C154.845 7.37054 154.484 7.33212 154.064 7.42438C153.704 7.51582 153.28 7.30507 152.861 7.44061C152.8 7.44142 152.678 7.31319 152.557 7.27153C152.375 7.1441 152.255 7.14573 152.137 7.3205C152.137 7.36378 151.958 7.4095 151.837 7.41113C151.477 7.45928 151.052 7.20525 150.635 7.47065C150.33 7.21499 150.03 7.26234 149.671 7.39706C149.305 7.05565 149.008 7.31942 148.709 7.49662C148.527 7.3692 148.412 7.71711 148.168 7.50393C148.047 7.41898 147.686 7.46714 147.565 7.38219C147.382 7.25477 147.261 7.2131 147.264 7.42953L147.205 7.47363C147.024 7.47607 146.844 7.4785 146.663 7.43765C146.482 7.3968 146.299 7.26938 146.24 7.31348C146.061 7.40248 145.94 7.40411 145.758 7.27668C145.636 7.14845 145.275 7.15332 145.694 6.97449C145.754 6.97368 145.753 6.88711 145.812 6.84301C145.752 6.84382 145.631 6.80216 145.631 6.80216C145.453 6.93445 145.211 6.85113 145.033 7.06999C144.797 7.37624 144.253 7.2104 143.954 7.38761C143.951 7.12789 143.65 7.13195 143.408 7.04862C143.046 6.96692 142.746 7.05755 142.509 7.32052C142.45 7.36462 142.39 7.40871 142.33 7.40953C142.27 7.41034 142.089 7.41277 142.029 7.41358C141.605 7.20284 141.126 7.33919 140.706 7.43144C140.586 7.47635 140.345 7.4796 140.284 7.39384C139.98 7.18147 139.499 7.18796 139.259 7.23449C138.959 7.28184 138.717 7.19851 138.597 7.24342C138.358 7.33324 138.116 7.24992 137.875 7.25316C137.574 7.25722 137.573 7.17065 137.812 7.03755C137.751 6.99507 137.691 6.9526 137.63 6.95341C137.268 6.87171 136.908 6.96315 136.61 7.14035C136.55 7.18445 136.552 7.27102 136.552 7.27102C136.612 7.3135 136.733 7.31187 136.793 7.35435C136.734 7.39845 136.614 7.40007 136.554 7.44417C136.315 7.57727 136.135 7.62299 135.893 7.49638C135.59 7.3273 135.108 7.2905 134.808 7.38114C134.329 7.56077 134.206 7.38925 133.963 7.21936C133.902 7.1336 133.721 7.09275 133.6 7.05108C133.54 7.05189 133.48 7.09599 133.42 7.0968C133.182 7.2732 132.884 7.4504 132.523 7.45527C132.342 7.4577 132.161 7.41685 131.981 7.46257C131.801 7.46501 131.62 7.42416 131.439 7.42659C131.259 7.42903 131.08 7.60461 130.957 7.3898L130.897 7.39061C130.778 7.47881 130.599 7.56782 130.479 7.65601C130.418 7.57025 130.296 7.44202 130.235 7.35626C130.235 7.35626 130.114 7.35788 130.054 7.35869C129.755 7.49261 129.036 7.67549 128.915 7.67712C128.675 7.68036 128.552 7.55213 128.49 7.3798C128.429 7.29404 128.488 7.20665 128.486 7.12008C128.425 7.03432 128.304 6.99266 128.243 6.95018C128.185 7.03757 128.186 7.12414 128.127 7.21152C128.127 7.25481 128.128 7.2981 128.128 7.34138C128.009 7.38629 127.889 7.4312 127.77 7.5194C127.71 7.52021 127.65 7.56431 127.59 7.56512C127.348 7.48179 126.986 7.40009 126.806 7.44581C126.805 7.40253 126.805 7.35924 126.923 7.18447C126.982 7.09709 126.923 7.18447 126.864 7.27186C126.864 7.27186 126.925 7.31433 126.925 7.35762C127.044 7.26942 127.104 7.22532 127.223 7.13713C127.163 7.13794 127.102 7.09547 126.923 7.18447C126.805 7.35924 126.745 7.36005 126.685 7.36086C126.745 7.40334 126.806 7.44581 126.806 7.44581C126.808 7.57567 126.751 7.8362 126.448 7.66711C126.266 7.58298 125.787 7.76261 125.842 7.37223C125.902 7.32813 125.961 7.28403 126.081 7.19584C125.779 7.11332 125.537 7.03 125.234 6.9042C125.235 6.94749 125.235 6.94749 125.235 6.99077C125.179 7.2513 125.179 7.29459 124.937 7.16797C124.574 6.9997 124.275 7.1769 124.036 7.26672C123.737 7.40064 123.737 7.44393 123.435 7.36141C123.375 7.36222 123.315 7.36304 123.255 7.36385C123.074 7.36628 122.894 7.36872 122.713 7.32787C122.532 7.28702 122.29 7.24698 122.169 7.16203C121.986 6.99132 121.869 7.20937 121.688 7.21181C121.448 7.25834 121.264 6.95777 121.205 7.08844C121.148 7.30569 120.906 7.22236 120.787 7.31056C120.548 7.44366 120.547 7.35709 120.545 7.22723C120.545 7.18395 120.424 7.18557 120.364 7.1431C120.369 7.53267 119.884 7.27945 119.645 7.41255C119.407 7.58894 119.222 7.24509 118.98 7.20505C118.92 7.20586 118.918 7.07601 118.918 7.03272C118.858 7.07682 118.859 7.1201 118.799 7.1642C118.681 7.29568 118.563 7.47045 118.259 7.25808C118.258 7.21479 118.018 7.26133 118.019 7.30461C117.903 7.65252 117.48 7.52835 117.419 7.3993C117.295 7.14121 116.935 7.27594 116.694 7.19261C116.392 7.1101 116.151 7.11335 116.267 6.80872C116.267 6.80872 116.207 6.76624 116.146 6.72377C116.086 6.76787 116.087 6.81115 116.027 6.81197C115.792 7.24807 115.792 7.24807 115.127 7.04057C114.946 6.99972 114.886 7.00053 114.768 7.1753C114.651 7.43664 114.531 7.48155 114.229 7.35575C114.047 7.27162 113.926 7.18667 113.805 7.145C113.744 7.10253 113.564 7.10496 113.564 7.10496C113.148 7.50022 113.082 7.06817 112.899 6.94075C112.718 6.85661 112.537 6.81576 112.356 6.77491C112.295 6.77572 112.236 6.81982 112.176 6.82063C112.117 6.90802 111.998 6.99621 111.939 7.0836C111.703 7.43313 111.582 7.43476 111.157 7.13743C110.914 6.96754 110.79 6.66616 110.309 6.71594C110.008 6.72 110.187 6.63099 110.307 6.54279L110.245 6.45703C110.185 6.45785 110.124 6.41537 110.065 6.45947C110.005 6.46028 110.005 6.50357 109.946 6.54766C109.887 6.67833 110.011 6.89314 109.77 6.93967C109.651 6.98458 109.468 6.85716 109.287 6.81631C109.227 6.81712 109.168 6.86122 109.168 6.90451C108.991 7.16666 108.872 7.25485 108.629 7.08496C108.387 6.95834 107.966 7.00731 107.962 6.66102C107.959 6.44459 107.659 6.53522 107.601 6.66589C107.483 6.84066 107.364 6.97214 107.062 6.88963C107.002 6.89044 107.001 6.80387 107 6.76058C107.119 6.67239 107.179 6.62829 106.938 6.58825C106.877 6.58906 106.758 6.63397 106.758 6.67726C106.76 6.80712 106.581 6.93941 106.883 7.02192C106.943 7.02111 107.005 7.15016 107.066 7.19263C106.946 7.23754 106.827 7.28245 106.766 7.28326C106.285 7.28976 106.102 7.07576 105.978 6.81767C105.977 6.77438 105.917 6.73191 105.916 6.68862C105.856 6.73272 105.797 6.77682 105.797 6.82011C105.738 6.90749 105.8 6.99325 105.741 7.08063C105.741 7.12392 105.622 7.21212 105.561 7.16964C105.26 7.13041 104.84 7.22267 104.597 7.00949C104.475 6.92454 103.452 6.89505 103.331 6.85339C102.969 6.81497 103.156 7.28868 102.673 7.12203C102.491 7.0379 102.191 7.12853 101.951 7.17506C101.411 7.26894 100.869 7.23296 100.327 7.24026C100.147 7.2427 99.9057 7.20266 99.9086 7.41909C99.9086 7.41909 99.6686 7.46562 99.6084 7.46644C99.3643 7.20997 99.1861 7.38555 99.0068 7.47455C98.9472 7.51865 98.7072 7.56518 98.7072 7.56518C98.463 7.30871 98.2241 7.44182 98.0454 7.57411C97.9858 7.61821 97.9251 7.57574 97.8649 7.57655C97.8637 7.48998 97.8632 7.44669 97.9817 7.31521C97.9811 7.27192 97.9817 7.31521 97.9216 7.31602C97.9222 7.35931 97.9823 7.35849 97.9829 7.40178C98.0425 7.35768 98.0425 7.35768 98.1021 7.31358C98.1021 7.31358 98.0413 7.27111 97.9817 7.31521C97.6219 7.40665 97.3819 7.45318 97.0811 7.45724C96.7803 7.4613 96.7797 7.41801 97.0174 7.19834C97.1377 7.19671 97.3795 7.28004 97.4964 7.0187C97.4958 6.97541 97.4964 7.0187 97.4362 7.01951C97.4368 7.0628 97.4969 7.06199 97.4975 7.10527C97.5571 7.06117 97.5571 7.06117 97.6167 7.01708C97.6167 7.01708 97.5559 6.9746 97.4964 7.0187C97.2569 7.10852 97.0746 6.9811 97.0174 7.19834C96.8375 7.24406 96.8334 6.94106 96.5951 7.11745C96.417 7.29303 96.1763 7.29627 95.9351 7.25624C95.6337 7.21701 95.4532 7.21944 95.4573 7.52245C95.4596 7.69559 94.9783 7.70208 94.9158 7.52975C94.7903 7.1418 94.552 7.31819 94.3125 7.40801C94.1326 7.45373 93.9527 7.49945 93.8335 7.58765C93.6542 7.67666 93.5351 7.76485 93.5315 7.50514C93.531 7.46185 93.3499 7.421 93.229 7.37934C92.8651 7.16778 92.2635 7.17589 92.2571 6.69975C92.2565 6.65646 92.076 6.6589 92.0152 6.61642C91.9551 6.61723 91.8949 6.61805 91.8348 6.61886C91.8353 6.66214 91.7758 6.70624 91.8365 6.74872C92.0199 6.96271 92.2027 7.13342 92.326 7.34823C92.3867 7.3907 92.2676 7.4789 92.2687 7.56547C92.1478 7.52381 92.0871 7.48133 91.9656 7.39638C91.9048 7.35391 91.8441 7.31143 91.541 7.14235C91.3599 7.1015 91.4814 7.18645 91.6023 7.22811C91.6625 7.2273 91.722 7.1832 91.7822 7.18239C91.6601 7.05415 91.5988 6.96839 91.4767 6.84016C91.4171 6.88426 91.3576 6.92835 91.4802 7.09987C91.7834 7.26896 91.8441 7.31143 91.9049 7.35391C91.8453 7.39801 91.7863 7.48539 91.7261 7.4862C91.1239 7.45103 90.5217 7.41587 89.9195 7.3807C89.7992 7.38232 89.6777 7.29737 89.5568 7.25571C89.3757 7.21486 89.0743 7.17563 88.9558 7.30711C88.7782 7.52598 88.5989 7.61499 88.2368 7.53328C87.9955 7.49324 87.6994 7.84359 87.5732 7.41236C87.5721 7.32578 87.1498 7.24489 86.8484 7.20567C86.6071 7.16563 86.6696 7.33796 86.6714 7.46782C86.5534 7.64259 86.5534 7.64258 86.3694 7.3853C86.3688 7.34202 86.3694 7.3853 86.3093 7.38612C86.3098 7.4294 86.37 7.42859 86.3706 7.47188C86.4302 7.42778 86.4302 7.42778 86.4898 7.38368C86.4898 7.38368 86.429 7.34121 86.3694 7.3853C86.071 7.56251 85.8303 7.56575 85.7672 7.35014C85.7059 7.26437 85.7649 7.17699 85.7637 7.09042C85.7637 7.09042 85.5827 7.04957 85.5832 7.09285C85.5237 7.13695 85.5248 7.22352 85.4652 7.26762C85.4045 7.22515 85.4039 7.18186 85.3432 7.13939C85.3408 6.96624 85.1008 7.01278 84.9805 7.0144C84.9203 7.01521 84.741 7.10422 84.7416 7.1475C84.8046 7.36312 84.5038 7.36718 84.3239 7.4129C84.2638 7.41372 84.2036 7.41453 84.1435 7.41534C84.0757 6.85343 83.6616 7.37855 83.4203 7.33851C83.2393 7.29766 83.0629 7.6031 82.7609 7.52058C82.5197 7.48054 82.3398 7.52626 82.3964 7.26574C82.3953 7.17916 82.3334 7.05012 82.2119 6.96517C82.0904 6.88022 81.9093 6.83937 81.8515 7.01332C81.855 7.27304 81.7358 7.36124 81.3737 7.27953C81.1325 7.2395 80.8924 7.28603 80.7107 7.20189C80.4683 7.07528 80.4082 7.07609 80.4111 7.29252C80.3509 7.29333 80.2908 7.29415 80.23 7.25167C80.1097 7.2533 79.9281 7.16916 79.9286 7.21244C79.3925 7.60933 78.7862 7.27115 78.2453 7.32175C78.0047 7.32499 78.3598 6.88726 77.9422 7.15266C77.6437 7.32986 77.4036 7.3764 77.1601 7.16321C77.0386 7.07826 76.7378 7.08232 76.9813 7.29551C76.9217 7.3396 76.8622 7.3837 76.802 7.38451C76.5012 7.38857 76.1396 7.35016 75.7775 7.26846C75.7174 7.26927 75.7775 7.26846 75.7781 7.31174C75.8383 7.31093 75.8377 7.26764 75.8978 7.26683C75.8371 7.22436 75.8371 7.22436 75.7763 7.18188C75.7763 7.18188 75.7168 7.22598 75.7775 7.26846C75.8394 7.3975 75.7804 7.48489 75.7816 7.57146C75.6607 7.5298 75.4802 7.53223 75.4796 7.48894C75.416 7.23004 75.1146 7.19081 74.8728 7.10749C74.6315 7.06745 74.451 7.06988 74.3336 7.28794C74.1572 7.59338 74.0971 7.59419 73.555 7.55821C73.3746 7.56064 73.1935 7.51979 73.013 7.52223C72.9528 7.52304 72.8921 7.48056 72.8915 7.43728C72.9517 7.43647 73.0714 7.39156 73.1316 7.39074C73.1912 7.34665 73.2501 7.25926 73.3097 7.21517C73.1888 7.1735 73.0679 7.13184 73.0083 7.17594C72.648 7.22409 72.4096 7.40049 72.4739 7.70268C72.4745 7.74596 72.4149 7.79006 72.3547 7.79087C72.3542 7.74759 72.2934 7.70511 72.2934 7.70511C72.2928 7.66183 72.2922 7.61854 72.2917 7.57525C72.2893 7.40211 72.2876 7.27225 72.2852 7.09911C72.0452 7.14564 71.7438 7.10641 71.5043 7.19623C71.2052 7.33015 71.0265 7.46244 70.6644 7.38074C70.4833 7.33989 70.1837 7.43052 70.2397 7.12671C70.2397 7.12671 69.8169 7.00253 69.637 7.04825C69.3975 7.13807 69.2182 7.22708 69.0348 7.01308C69.0348 7.01308 68.8543 7.01552 68.7947 7.05962C68.7351 7.10371 68.6761 7.1911 68.6171 7.27848C68.3128 7.02282 68.0173 7.41646 67.8356 7.33232C67.5325 7.16324 67.2328 7.25387 66.9309 7.17135C66.8707 7.17216 66.869 7.04231 66.8684 6.99902C66.8059 6.82669 66.6266 6.91569 66.0226 6.75067C65.5997 6.62649 65.6605 6.66897 65.7212 6.71144C65.9023 6.75229 66.0828 6.74986 66.2638 6.79071C66.324 6.78989 66.3269 7.00633 66.5051 6.83075C66.5646 6.78665 66.5033 6.70089 66.4426 6.65841C66.1984 6.40194 65.7773 6.40763 66.0232 6.79395C66.5074 7.00389 66.5687 7.08965 66.6295 7.13213C66.5092 7.13375 66.3894 7.17866 66.2691 7.18028C66.0273 7.09696 65.7843 6.92706 65.487 7.19083C65.428 7.27822 65.3684 7.32232 65.3094 7.4097C65.3083 7.32313 65.2469 7.23737 65.2458 7.1508C65.3013 6.8037 64.8258 7.24305 64.8223 6.98333C64.7026 7.02824 64.4619 7.03149 64.5846 7.20301C64.7078 7.41782 64.3469 7.42269 64.4093 7.59502C64.3492 7.59583 64.2289 7.59746 64.1693 7.64155C64.1687 7.59827 64.1675 7.5117 64.1675 7.5117C64.3463 7.3794 64.1664 7.42512 64.0455 7.38346C63.8638 7.29932 63.5618 7.21681 63.9205 7.0388C63.8591 6.95303 63.7382 6.91137 63.6769 6.82561C63.6173 6.86971 63.6179 6.913 63.5583 6.95709C63.4987 7.00119 63.3784 7.00282 63.3784 7.00282C63.2558 6.83129 62.9561 6.92193 62.7751 6.88107C62.7739 6.7945 62.7727 6.70793 62.8317 6.62055C63.1927 6.61568 63.0093 6.40168 63.0677 6.27101L62.9468 6.22935C62.7669 6.27507 62.6477 6.36326 62.4684 6.45227C62.4082 6.45308 62.3481 6.4539 62.167 6.41304C62.1069 6.41386 62.167 6.41304 62.1676 6.45633C62.2278 6.45552 62.2272 6.41223 62.2873 6.41142C62.2266 6.36895 62.2266 6.36895 62.1659 6.32647C62.1659 6.32647 62.1063 6.37057 62.167 6.41304C62.2885 6.49799 62.3493 6.54047 62.4106 6.62623C62.5321 6.71118 62.6542 6.83941 62.7756 6.92436C62.5998 7.27309 62.5998 7.27308 62.118 7.23629C62.0578 7.2371 61.9971 7.19463 61.9971 7.19463C61.6968 7.24198 61.396 7.24603 61.1554 7.24928C60.7938 7.21086 60.4895 6.95521 60.1326 7.26308C59.9539 7.39537 59.5316 7.31448 59.3482 7.10049C59.2869 7.01473 59.1064 7.01716 58.9855 6.9755C58.9866 7.06207 59.1081 7.14702 59.048 7.14783C58.9288 7.23603 58.8091 7.28094 58.6893 7.32585C58.628 7.24009 58.5667 7.15433 58.6245 6.98037C58.6239 6.93709 58.6245 6.98037 58.5643 6.98118C58.5649 7.02447 58.6251 7.02366 58.6257 7.06694C58.6853 7.02285 58.6853 7.02285 58.7448 6.97875C58.7448 6.97875 58.6841 6.93627 58.6245 6.98037C58.5059 7.11185 58.3862 7.15676 58.3868 7.20005C58.3891 7.37319 58.6286 7.28337 58.7495 7.32504C58.7507 7.41161 58.7513 7.45489 58.6923 7.54228C58.6321 7.54309 58.5719 7.5439 58.5112 7.50143C58.3903 7.45977 58.2098 7.4622 58.0889 7.42054C57.8471 7.33721 58.2075 7.28906 58.1461 7.2033C58.0241 7.07506 57.6637 7.12322 57.6059 7.29717C57.548 7.47113 57.489 7.55851 57.2478 7.51847C57.0667 7.47762 56.8863 7.48006 56.7058 7.48249C56.5253 7.48493 56.464 7.39917 56.4622 7.26931C56.4003 7.14026 56.2806 7.18517 56.2823 7.31503C56.2245 7.48899 56.1036 7.44733 55.9225 7.40648C55.5592 7.2382 55.1965 7.11321 54.7748 7.07561C54.7146 7.07642 54.6533 6.99066 54.5925 6.94819C54.2882 6.69253 54.047 6.65249 53.7491 6.87298C53.6294 6.91789 53.5704 7.00527 53.5114 7.09266C53.4501 7.0069 53.4489 6.92032 53.3875 6.83456L53.3268 6.79209C53.2655 6.70633 53.2041 6.62057 53.0856 6.75205C53.026 6.79615 52.8455 6.79858 52.9676 6.92682C53.0283 6.96929 52.9699 7.09996 52.9705 7.14325C52.8502 7.14487 52.7299 7.1465 52.6691 7.10402C52.4267 6.97741 52.2445 6.84999 51.8257 7.02881C51.4665 7.16354 50.9244 7.12756 50.5004 6.91681C50.1978 6.79101 49.9554 6.6644 49.5945 6.66927C49.2335 6.67414 49.2335 6.67414 49.2972 6.93305C49.2977 6.97633 49.3585 7.01881 49.3591 7.06209C49.3602 7.14867 49.3012 7.23605 49.2423 7.32344C49.1213 7.28177 49.001 7.2834 48.9403 7.24092C48.7586 7.15678 48.695 6.89788 48.4567 7.07427C48.098 7.25229 48.0349 7.03667 47.8527 6.90924C47.7914 6.82348 47.7896 6.69363 47.7277 6.56458C47.6091 6.69606 47.4906 6.82754 47.3112 6.91655C47.1319 7.00556 47.313 7.04641 47.3142 7.13298C47.3767 7.30531 47.3784 7.43517 47.1389 7.52499C47.0788 7.5258 47.0186 7.52661 46.9585 7.52743C47.0145 7.22361 46.6541 7.27177 46.4737 7.2742C46.1127 7.27907 45.868 6.97932 45.5093 7.15733C45.5093 7.15733 45.3884 7.11567 45.3277 7.0732C45.3288 7.15977 45.3306 7.28963 45.3908 7.28881C45.7523 7.32723 45.6933 7.41461 45.4538 7.50443C45.2144 7.59425 44.9749 7.68407 44.969 7.25121C44.9685 7.20792 44.9089 7.25202 44.9095 7.29531C44.9101 7.33859 44.9106 7.38188 44.9112 7.42517C44.9708 7.38107 45.0911 7.37945 45.0905 7.33616C45.09 7.29287 45.0888 7.2063 44.969 7.25121C44.7302 7.38432 44.4276 7.25852 44.368 7.30261C44.1291 7.43572 43.9457 7.22172 43.8254 7.22335C43.6455 7.26907 43.4668 7.40136 43.288 7.53366C43.288 7.53366 43.1671 7.49199 43.107 7.49281C42.9861 7.45114 42.9247 7.36538 43.1046 7.31966C43.2244 7.27475 43.3447 7.27313 43.4043 7.22903C43.4644 7.22822 43.524 7.18412 43.524 7.18412C43.4633 7.14165 43.4025 7.09917 43.4025 7.09917C43.1023 7.14652 42.6771 6.8492 42.562 7.2404C42.2618 7.28774 41.961 7.2918 41.7227 7.46819C41.7227 7.46819 41.6018 7.42653 41.541 7.38405C41.357 7.12677 40.9966 7.17493 40.6958 7.17899C40.5153 7.18142 40.2765 7.31453 40.0936 7.14382C40.0936 7.14382 39.9739 7.18873 39.9143 7.23283C40.1579 7.44601 39.9178 7.49254 39.7356 7.36512C39.5539 7.28098 39.433 7.23932 39.252 7.19847C39.0715 7.2009 38.8904 7.16005 38.8332 7.3773C38.8343 7.46387 38.4734 7.46874 38.4716 7.33888C38.4687 7.12245 38.2882 7.12489 38.1077 7.12732C37.7473 7.17548 37.3256 7.13787 37.0873 7.31426C36.7287 7.49228 36.547 7.40814 36.3046 7.28153C36.123 7.19739 35.9413 7.11326 35.7597 7.02912C35.6995 7.02993 35.5792 7.03156 35.5792 7.03156C35.5231 7.33537 35.2801 7.16547 35.0997 7.16791C34.859 7.17115 34.6785 7.17359 34.9215 7.34349L34.8024 7.43168C34.6207 7.34755 34.2603 7.3957 34.199 7.30994C33.7113 6.84029 33.1745 7.19388 32.6336 7.24448C32.5133 7.2461 32.4549 7.37677 32.3346 7.37839C32.2142 7.38002 31.9146 7.47065 31.9111 7.21093C31.9099 7.12436 31.7879 6.99612 31.667 6.95446C31.6062 6.91199 31.4263 6.95771 31.3667 7.00181C31.3066 7.00262 31.2476 7.09 31.188 7.1341C31.2482 7.13329 31.3691 7.17495 31.4292 7.17414C31.49 7.21661 31.6103 7.21499 31.671 7.25746C31.6115 7.30156 31.5519 7.34566 31.4917 7.34647C31.1308 7.35134 30.768 7.22635 30.4094 7.40437C30.4094 7.40437 30.2891 7.40599 30.2283 7.36352C30.2278 7.32023 30.2873 7.27613 30.3469 7.23204C30.4059 7.14465 30.5852 7.05564 30.6442 6.96826C30.7032 6.88088 30.6413 6.75183 30.5805 6.70936C30.5198 6.66688 30.3387 6.62603 30.219 6.67094C29.9789 6.71747 30.2207 6.8008 30.2213 6.84408C30.2243 7.06051 29.8662 7.28182 29.5654 7.28587C29.3248 7.28912 29.0841 7.29237 28.7827 7.25314C28.4212 7.21473 28.1163 6.91578 27.7576 7.0938C27.399 7.27181 27.0345 7.01697 26.6759 7.19498C26.5562 7.23989 26.1923 7.02833 26.0731 7.11653C25.7145 7.29454 25.7711 7.03401 25.5901 6.99316C25.5293 6.95069 25.4084 6.90902 25.3483 6.90984C25.1094 7.04294 24.8693 7.08948 24.6871 6.96205C24.4447 6.83544 24.2665 7.01102 24.0253 6.97098C23.8442 6.93013 23.544 6.97747 23.3647 7.06648C23.1258 7.19959 22.9453 7.20202 22.7029 7.07541C22.6422 7.03294 22.523 7.12113 22.4027 7.12276C21.6819 7.21907 20.9629 7.44524 20.1802 7.41251C19.9396 7.41575 19.7013 7.59215 19.5225 7.72444C19.4034 7.81264 19.2848 7.94412 19.1657 8.03231C18.9799 7.64517 18.6254 8.12619 18.3216 7.91382C18.0787 7.74392 17.6575 7.7496 17.2983 7.88433C16.9391 8.01906 16.8188 8.02069 16.4549 7.80913C16.2125 7.68251 16.0916 7.64085 16.0349 7.90138C15.9765 8.03205 15.7954 7.9912 15.674 7.90625C15.3702 7.69388 15.0069 7.5256 14.5286 7.74853C14.2248 7.53616 13.9877 7.79912 13.6869 7.80318C13.2658 7.80886 12.8475 8.03097 12.4229 7.77694C12.2413 7.6928 11.8213 7.78506 11.5812 7.83159C11.2816 7.92222 11.156 7.53427 10.7378 7.75638C10.5585 7.84539 10.1958 7.7204 9.89496 7.72446C8.63099 7.69822 7.48267 7.32407 6.21928 7.34112C5.79815 7.3468 5.43601 7.2651 5.01605 7.35735C4.59609 7.44961 4.11071 7.1531 3.68841 7.07221C3.5675 7.03055 3.4466 6.98888 3.32628 6.99051C3.08563 6.99375 2.8479 7.21343 2.60375 6.95696C2.48168 6.82873 2.12071 6.8336 1.87948 6.79356C1.09505 6.63097 0.967132 6.06987 0.421591 5.77417C0.360846 5.7317 0.419839 5.64432 0.418671 5.55774C0.416919 5.42789 0.716558 5.33725 0.473576 5.16736C0.412247 5.0816 0.530233 4.90683 0.528481 4.77697C0.526145 4.60383 0.463647 4.43149 0.40115 4.25916C0.645299 4.51563 0.523224 4.3874 0.460727 4.21506C0.398813 4.08602 -0.262378 4.13823 0.214825 3.82873C0.334564 3.78383 0.271482 3.56821 0.209568 3.43916C0.0863254 3.22435 0.144735 3.09368 0.383628 2.96058C0.503367 2.91567 0.676258 2.35051 0.614345 2.22147C0.487597 1.74694 0.487597 1.74694 1.2072 1.56406C1.567 1.47262 1.92563 1.2946 2.22352 1.07411C2.40225 0.941818 2.5214 0.853622 2.82221 0.849563C3.1236 0.888791 3.42558 0.971304 3.72405 0.794101C3.78362 0.750003 3.96469 0.790854 4.0856 0.832516C4.32741 0.915842 4.50965 1.04326 4.75146 1.12659C4.93253 1.16744 5.23509 1.29324 5.35483 1.24833C5.77421 1.11279 5.83787 1.37169 6.01894 1.41255C6.13985 1.45421 6.80045 1.35871 7.03993 1.26889C7.27882 1.13578 7.51947 1.13254 7.7607 1.17257C8.30332 1.25184 8.54397 1.24859 9.20457 1.15309C9.38506 1.15066 9.56554 1.14822 9.68645 1.18988C10.2921 1.48477 10.9568 1.69227 11.618 1.64006C12.0392 1.63437 12.399 1.54293 12.8207 1.58053C13.1822 1.61895 13.6028 1.56998 14.0233 1.52101C14.1436 1.51939 14.264 1.51777 14.323 1.43038C14.6203 1.16661 15.2838 1.28754 15.5192 0.894714C15.5186 0.851428 15.6383 0.806519 15.6991 0.848993C15.8807 0.93313 15.9438 1.14875 16.2423 0.971545C16.3019 0.927448 16.6646 1.05244 16.7867 1.18067C16.9695 1.35138 17.2691 1.26075 17.4508 1.34489C17.6318 1.38574 17.8141 1.51316 17.9356 1.59811C18.1172 1.68224 18.3584 1.72228 18.5372 1.58999C18.7159 1.4577 18.8958 1.41198 19.137 1.45201C19.3783 1.49205 19.5605 1.61948 19.8012 1.61623C19.9816 1.61379 20.2211 1.52398 20.4016 1.52154C20.5821 1.5191 20.8233 1.55914 21.005 1.64328C21.1866 1.72742 21.2462 1.68332 21.4261 1.6376C21.5458 1.59269 21.7263 1.59025 21.7871 1.63273C22.2111 1.84348 22.8121 1.79207 23.2362 2.00282C23.4786 2.12943 23.7788 2.08209 24.0189 2.03555C24.1988 1.98983 24.3769 1.81425 24.5574 1.81182C24.7379 1.80938 24.9201 1.93681 25.1012 1.97766C25.2817 1.97522 25.4008 1.88703 25.5801 1.79802C25.7595 1.70901 25.7606 1.79558 25.7618 1.88216C25.7636 2.01201 25.8243 2.05449 25.9429 1.92301C26.0019 1.83562 25.9411 1.79315 26.1823 1.83319C26.8459 1.95412 27.5082 1.98847 28.2302 1.97873C28.4107 1.9763 28.5304 1.93139 28.7126 2.05881C28.8954 2.22952 29.1378 2.35613 29.4363 2.17893C29.6156 2.08992 29.6799 2.39211 29.858 2.21653C29.917 2.12915 30.1016 2.42971 30.2792 2.21085C30.7645 2.50736 31.2435 2.32772 31.7242 2.27794C31.9047 2.2755 32.2026 2.05501 32.1471 2.40211C32.5705 2.56958 32.9344 2.78114 33.3579 2.9486C33.4181 2.94779 33.5378 2.90288 33.598 2.90207C33.5974 2.85878 33.5962 2.77221 33.5355 2.72973C33.0553 2.8228 33.1079 2.25927 32.6284 2.39562C32.6278 2.35233 32.6272 2.30905 32.6868 2.26495C32.8048 2.09018 32.9876 2.26089 33.1079 2.25927C33.2282 2.25765 33.3468 2.12616 33.466 2.03797C33.5267 2.08044 33.5875 2.12292 33.5273 2.12373C33.5279 2.16701 33.4689 2.2544 33.4093 2.2985C33.3503 2.38588 33.3515 2.47245 33.2919 2.51655C33.4122 2.51493 33.5331 2.55659 33.5927 2.51249C33.8929 2.46515 34.1937 2.46109 34.3707 2.19894C34.7924 2.23654 35.154 2.27496 35.5763 2.35585C35.6364 2.35503 35.6978 2.44079 35.6978 2.44079C35.9384 2.43755 36.2375 2.30363 36.359 2.38858C36.4203 2.47434 36.6609 2.47109 36.9016 2.46784C37.1422 2.4646 37.1977 2.1175 37.6206 2.24167C37.8017 2.28252 38.0406 2.14942 38.2806 2.10289C38.3408 2.10207 38.4009 2.10126 38.4611 2.10045C38.4617 2.14374 38.4623 2.18702 38.4629 2.23031C38.4033 2.27441 38.4045 2.36098 38.3449 2.40508C38.405 2.40426 38.5254 2.40264 38.5855 2.40183C38.8238 2.22544 39.127 2.39452 39.4272 2.34718C39.4272 2.34718 39.4272 2.34718 39.367 2.34799C39.3676 2.39128 39.3682 2.43456 39.4284 2.43375C39.4284 2.43375 39.4885 2.43294 39.5487 2.43213C39.5481 2.38884 39.4879 2.38965 39.4272 2.34718C39.544 2.08584 39.9686 2.33987 40.1462 2.12101C40.1462 2.12101 40.3273 2.16186 40.2671 2.16267C40.2724 2.55225 40.6293 2.24437 40.8103 2.28522C40.9914 2.32607 41.2297 2.14968 41.2904 2.19216C41.5942 2.40453 41.895 2.40047 42.1356 2.39722C42.1958 2.39641 42.2571 2.48217 42.2577 2.52546C42.2594 2.65532 42.201 2.78599 42.2034 2.95913C42.2034 2.95913 42.2034 2.95913 42.2028 2.91584C42.1426 2.91666 42.0825 2.91747 42.0831 2.96075C42.0831 2.96075 42.0836 3.00404 42.0842 3.04733C42.1444 3.04651 42.1438 3.00323 42.2034 2.95913C42.2624 2.87175 42.3821 2.82684 42.4417 2.78274C42.5591 2.56468 42.9779 2.38586 43.34 2.46756C43.34 2.46756 43.4002 2.46675 43.4008 2.51003C44.1233 2.54358 44.1233 2.54358 44.4258 2.66938C44.6075 2.75352 44.6677 2.7527 44.7862 2.62122C45.0829 2.31416 45.6256 2.39343 46.0449 2.25789C46.0449 2.25789 46.1664 2.34284 46.167 2.38612C46.2324 2.77488 46.2324 2.77488 46.7745 2.81086C46.8948 2.80924 47.0157 2.8509 47.136 2.84928C47.1962 2.84847 47.2552 2.76108 47.2546 2.7178C47.254 2.67451 47.2534 2.63123 47.1927 2.58875C47.0718 2.54709 46.952 2.592 46.8311 2.55034C46.7108 2.55196 46.6495 2.4662 46.5893 2.46701C46.7091 2.4221 46.7681 2.33472 46.8878 2.28981C46.948 2.289 47.4923 2.49812 47.4929 2.54141C47.5542 2.62717 47.6156 2.71293 47.6763 2.7554C47.7972 2.79707 47.9771 2.75134 48.0974 2.74972C48.0963 2.66315 48.0951 2.57658 48.0945 2.53329C48.0939 2.49 48.0332 2.44753 48.0326 2.40424C48.032 2.36096 48.091 2.27357 48.1506 2.22948C48.2108 2.22866 48.3918 2.26951 48.3918 2.26951C48.3953 2.52923 48.5145 2.44104 48.7545 2.3945C48.8743 2.34959 49.1745 2.30225 49.1786 2.60525C49.1184 2.60606 49.1178 2.56278 49.0577 2.56359C48.9975 2.5644 48.8772 2.56602 48.817 2.56683C48.8176 2.61012 48.8182 2.65341 48.8182 2.65341C48.9385 2.65178 48.9987 2.65097 49.1786 2.60525C49.2376 2.51787 49.3573 2.47296 49.4771 2.42805C49.6564 2.33904 49.7749 2.20756 49.779 2.51056C49.7796 2.55385 49.7814 2.68371 49.7814 2.68371C49.963 2.76784 49.7872 3.11657 50.147 3.02512C50.3865 2.9353 50.1441 2.80869 50.1429 2.72212C50.1418 2.63555 50.2597 2.46078 50.4396 2.41506C50.5594 2.37015 50.741 2.45429 50.9221 2.49514C50.7451 2.75729 51.345 2.61931 51.3514 3.09546C51.7106 2.96073 51.2907 3.05299 51.2288 2.92394C51.2282 2.88065 50.6885 3.01782 50.6885 3.01782C50.7492 3.06029 50.8701 3.10195 50.9904 3.10033C51.1715 3.14118 51.2323 3.18366 51.1738 3.31433C51.1744 3.35761 51.2953 3.39927 51.3555 3.39846C51.4758 3.39684 51.5348 3.30946 51.3514 3.09546ZM67.7527 5.64497L67.7521 5.60169C67.6919 5.6025 67.6318 5.60331 67.6324 5.6466C67.6324 5.6466 67.633 5.68988 67.6335 5.73317C67.6937 5.73236 67.6931 5.68907 67.8713 5.51349C67.8111 5.5143 67.8117 5.55759 67.7515 5.5584C67.7521 5.60169 67.8123 5.60088 67.8128 5.64416C67.8724 5.60006 67.8724 5.60006 67.932 5.55597C67.9314 5.51268 67.8707 5.47021 67.7527 5.64497ZM147.351 4.91732C147.291 4.91813 147.291 4.96141 147.231 4.96223C147.232 5.00551 147.292 5.0047 147.292 5.04799C147.352 5.00389 147.352 5.00389 147.412 4.95979C147.412 4.95979 147.351 4.91732 147.233 5.09208L147.232 5.0488C147.172 5.04961 147.112 5.05042 147.113 5.09371C147.113 5.09371 147.113 5.13699 147.114 5.18028C147.113 5.13699 147.173 5.13618 147.351 4.91732ZM108.924 6.60475C108.863 6.60556 108.864 6.64885 108.804 6.64966C108.804 6.69295 108.865 6.69213 108.865 6.73542C108.925 6.69132 108.925 6.69132 108.984 6.64722C108.984 6.64722 108.924 6.60475 108.806 6.77952L108.805 6.73623C108.745 6.73704 108.685 6.73786 108.685 6.78114C108.685 6.78114 108.686 6.82443 108.686 6.86771C108.746 6.82362 108.745 6.78033 108.924 6.60475ZM56.5779 6.9214C56.5177 6.92221 56.5183 6.9655 56.4581 6.96631C56.4587 7.00959 56.5189 7.00878 56.5194 7.05207C56.579 7.00797 56.579 7.00797 56.6386 6.96387C56.6386 6.96387 56.5779 6.9214 56.5206 7.13864C56.3991 7.05369 56.3991 7.05369 56.3991 7.05369C56.339 7.0545 56.2186 7.05613 56.1585 7.05694C56.1591 7.10023 56.1596 7.14351 56.1596 7.14351C56.2204 7.18599 56.28 7.14189 56.5779 6.9214ZM117.409 6.66344C117.349 6.70754 117.289 6.70835 117.229 6.75245C117.29 6.79492 117.291 6.83821 117.351 6.83739C117.411 6.83658 117.531 6.83496 117.591 6.79086C117.53 6.74839 117.469 6.70591 117.046 6.58174C117.047 6.62502 117.107 6.62421 117.108 6.6675C117.168 6.66669 117.167 6.6234 117.228 6.62259C117.167 6.58011 117.167 6.58011 117.106 6.53764C117.167 6.58011 117.107 6.58092 117.409 6.66344ZM78.8504 3.11407C78.7908 3.15816 78.7313 3.20226 78.8557 3.50364C78.7342 3.41869 78.6729 3.33293 78.5514 3.24798C78.4924 3.33537 78.4334 3.42275 78.4351 3.55261C78.4357 3.59589 78.5566 3.63756 78.6775 3.67922C78.7377 3.67841 78.7967 3.59102 78.6723 3.28964C78.6711 3.20307 78.7307 3.15897 78.8504 3.11407C78.9707 3.11244 79.0911 3.11082 79.3919 3.10676C79.3323 3.15086 79.2721 3.15167 79.2126 3.19577C79.2733 3.23824 79.2739 3.28153 79.334 3.28072C79.3942 3.2799 79.5145 3.27828 79.5741 3.23418C79.5134 3.19171 79.4532 3.19252 79.212 3.15248C79.2108 3.06591 79.2096 2.97934 79.2085 2.89276C79.0887 2.93767 79.0292 2.98177 78.9094 3.02668C78.8493 3.02749 78.8498 3.07078 78.8504 3.11407ZM58.4061 4.16921C58.5258 4.1243 58.586 4.12349 58.7057 4.07858C58.645 4.0361 58.5842 3.99363 58.524 3.99444C58.4037 3.99607 58.284 4.04098 58.1637 4.0426C58.2244 4.08507 58.2846 4.08426 59.0637 3.85728C58.944 3.90219 58.8838 3.903 58.7641 3.94791C58.8249 3.99038 58.8856 4.03286 58.9458 4.03205C59.0661 4.03042 59.1858 3.98551 59.3061 3.98389C59.2454 3.94142 59.1852 3.94223 58.4061 4.16921ZM126.819 3.93883L126.818 3.89554C126.758 3.89635 126.698 3.89716 126.699 3.94045C126.699 3.94045 126.699 3.98374 126.7 4.02702C126.76 4.02621 126.759 3.98292 127.178 3.76081C127.058 3.80572 126.998 3.80653 126.878 3.85144C126.939 3.89392 126.999 3.93639 127.06 3.93558C127.18 3.93396 127.3 3.88905 127.42 3.88742C127.359 3.80166 127.298 3.75919 126.819 3.93883ZM27.9346 2.37237C27.8739 2.32989 27.8733 2.2866 27.8131 2.28742C27.6922 2.24575 27.5117 2.24819 27.5141 2.42133C27.5147 2.46462 27.5754 2.50709 27.576 2.55038C27.6957 2.50547 27.8155 2.46056 28.2325 2.15188C28.1128 2.19679 28.0526 2.1976 27.9329 2.24251C27.9936 2.28498 28.0544 2.32746 28.1145 2.32664C28.2348 2.32502 28.3546 2.28011 28.4749 2.27849C28.4142 2.23601 28.354 2.23682 27.9346 2.37237ZM67.6686 3.87106C67.5477 3.82939 67.4869 3.78692 67.4268 3.78773C67.3666 3.78854 67.307 3.83264 67.2469 3.83345C67.3082 3.91921 67.3689 3.96169 67.4904 4.04664C67.55 4.00254 67.6096 3.95844 68.144 3.4317C67.9028 3.39166 67.6043 3.56887 67.6668 3.7412C67.6674 3.78448 67.7282 3.82696 67.7282 3.82696C67.9081 3.78124 68.0278 3.73633 68.2071 3.64732C68.2673 3.64651 68.2661 3.55994 68.2655 3.51665C68.2048 3.47418 68.144 3.4317 67.6686 3.87106ZM100.468 4.25109C100.407 4.2519 100.408 4.29519 100.348 4.296C100.348 4.33928 100.409 4.33847 100.409 4.38176C100.469 4.33766 100.469 4.33766 100.528 4.29356C100.528 4.29356 100.468 4.25109 100.35 4.46914C100.289 4.38338 100.228 4.34091 100.167 4.25515C100.106 4.21267 100.224 4.0379 100.045 4.12691C99.925 4.17182 99.8666 4.30249 99.8076 4.38987C99.9893 4.47401 100.111 4.55896 100.292 4.59981C100.231 4.55734 100.291 4.55653 100.468 4.25109ZM65.1868 2.7789C65.1266 2.77971 65.1272 2.823 65.067 2.82381C65.0676 2.8671 65.1278 2.86628 65.1284 2.90957C65.1879 2.86547 65.1879 2.86547 65.2475 2.82137C65.2475 2.82137 65.1868 2.7789 65.251 3.08109C64.9479 2.912 64.8258 2.78377 64.7049 2.74211C64.5846 2.74373 64.4654 2.83193 64.3463 2.92012C64.5279 3.00426 64.7096 3.0884 64.9514 3.17172C64.8918 3.21582 65.011 3.12762 65.1868 2.7789ZM38.5878 7.03425C38.7082 7.03263 38.7683 7.03182 38.8892 7.07348C39.2514 7.15518 39.4897 6.97879 39.7286 6.84569C39.7882 6.80159 39.7268 6.71583 39.6661 6.67335C39.6655 6.63007 39.5458 6.67498 39.485 6.6325C39.4301 7.02289 39.127 6.8538 38.8256 6.81458C38.7047 6.77291 38.5242 6.77535 38.4044 6.82026C38.2841 6.82188 38.2257 6.95255 38.1661 6.99665C38.2269 7.03912 38.3472 7.0375 38.408 7.07998C38.4068 6.9934 38.4669 6.99259 38.5878 7.03425ZM67.5617 4.86826C67.3794 4.74084 67.1972 4.61341 67.1371 4.61423C66.9566 4.61666 66.7177 4.74977 66.5384 4.83877L66.5389 4.88206C66.7206 4.9662 66.9028 5.09362 67.1441 5.13366C67.2042 5.13285 67.3824 4.95727 67.5617 4.86826ZM67.4805 3.31077C67.4203 3.31158 67.3596 3.26911 67.3596 3.26911C67.001 3.44712 66.8795 3.36218 66.9361 3.10165C66.9934 2.88441 66.7533 2.93094 66.5728 2.93337C66.5127 2.93419 66.4531 2.97828 66.3935 3.02238C66.6961 3.14818 66.5798 3.45281 67.0021 3.5337C67.2428 3.53045 67.4233 3.52801 67.4805 3.31077ZM42.211 3.52185C42.0906 3.52347 42.0305 3.52428 41.9102 3.52591C41.85 3.52672 41.7898 3.52753 41.7303 3.57163L41.7308 3.61492C41.7939 3.83053 42.3348 3.77994 42.2186 4.08457C42.2787 4.08376 42.3383 4.03966 42.3985 4.03885C42.4575 3.95146 42.5766 3.86327 42.6356 3.77588C42.635 3.7326 42.6339 3.64603 42.5731 3.60355C42.5118 3.51779 42.3313 3.52023 42.211 3.52185ZM68.5558 7.19272C68.1931 7.06773 68.13 6.85211 68.1265 6.5924C68.0663 6.59321 68.0068 6.63731 67.9466 6.63812C67.6481 6.81532 67.9524 7.07098 67.835 7.28903C67.8952 7.28822 67.9554 7.28741 68.0155 7.2866C68.196 7.28416 68.3158 7.23925 68.5558 7.19272ZM38.5879 2.57497C38.3478 2.62151 38.0476 2.66885 37.6872 2.71701C37.9302 2.88691 38.2316 2.92613 38.53 2.74893C38.53 2.74893 38.7123 2.87635 38.7724 2.87554C38.8326 2.87473 38.9523 2.82982 38.9517 2.78653C38.9512 2.74325 38.95 2.65668 38.8892 2.6142C38.8892 2.6142 38.7689 2.61583 38.5879 2.57497ZM76.8668 3.27071C76.8674 3.314 76.8668 3.27071 76.8663 3.22743C76.9247 3.09676 76.8633 3.01099 76.6829 3.01343C76.4422 3.01668 76.5047 3.18901 76.5059 3.27558C76.507 3.36215 76.5684 3.44791 76.6893 3.48958C76.75 3.53205 76.8704 3.53043 76.9913 3.57209C76.9293 3.44304 76.9288 3.39976 76.8668 3.27071ZM133.068 3.2484C133.068 3.29169 133.069 3.33497 133.069 3.33497C133.31 3.37501 133.551 3.41505 133.732 3.41261C133.731 3.36933 133.73 3.28276 133.67 3.28357C133.549 3.24191 133.367 3.15777 133.187 3.1602C133.187 3.1602 133.128 3.24759 133.068 3.2484ZM73.0837 3.84128C73.0241 3.88538 72.9639 3.88619 72.9645 3.92948C72.9061 4.06015 72.8471 4.14753 72.7887 4.2782C72.7893 4.32149 72.8501 4.36397 72.8506 4.40725C72.9102 4.36315 72.9704 4.36234 72.9698 4.31906C73.0282 4.18839 73.0872 4.101 73.1456 3.97033C73.145 3.92705 73.0843 3.88457 73.0837 3.84128ZM71.9745 6.3673C71.853 6.28235 71.8512 6.15249 71.7911 6.15331C71.61 6.11246 71.4909 6.20065 71.5528 6.3297C71.554 6.41627 71.6147 6.45874 71.676 6.5445C71.6749 6.45793 71.7946 6.41302 71.9745 6.3673ZM93.3552 3.35129C93.3557 3.39458 93.4165 3.43705 93.4176 3.52363C93.5368 3.43543 93.656 3.34724 93.7144 3.21657C93.7144 3.21657 93.5929 3.13162 93.5321 3.08914C93.472 3.08995 93.4118 3.09077 93.3522 3.13486C93.413 3.17734 93.354 3.26472 93.3552 3.35129ZM62.6285 4.93482C62.5093 5.02302 62.3294 5.06874 62.6308 5.10797C62.691 5.10716 62.7499 5.01977 62.8089 4.93239C62.8084 4.8891 62.8679 4.845 62.8072 4.80253C62.7464 4.76006 62.6857 4.71758 62.625 4.67511C62.504 4.63344 62.3843 4.67835 62.5064 4.80659C62.6273 4.84825 62.6279 4.89154 62.6285 4.93482ZM57.4341 3.48962C57.2542 3.53534 57.1947 3.57944 57.1351 3.62354C57.2566 3.70849 57.3179 3.79425 57.4388 3.83591C57.499 3.8351 57.5585 3.791 57.6181 3.7469C57.5568 3.66114 57.4955 3.57538 57.4341 3.48962ZM74.0889 6.98818L74.0895 7.03147C74.3301 7.02822 74.5714 7.06826 74.7518 7.06582C74.7513 7.02254 74.7507 6.97925 74.6905 6.98006C74.6298 6.93759 74.5089 6.89593 74.4487 6.89674C74.3284 6.89836 74.2092 6.98656 74.0889 6.98818ZM69.5161 7.00659C69.5155 6.9633 69.5161 7.00659 69.4565 7.05069C69.4571 7.09397 69.4576 7.13726 69.5184 7.17973C69.6393 7.2214 69.8198 7.21896 69.9401 7.21734C70.0003 7.21653 69.9991 7.12995 70.0581 7.04257C69.9979 7.04338 69.9372 7.00091 69.877 7.00172C69.7567 7.00334 69.6965 7.00415 69.5161 7.00659ZM52.0132 3.08653C51.8929 3.08815 51.8929 3.08815 51.8327 3.08897C51.8345 3.21882 51.8362 3.34868 51.8374 3.43526C51.8975 3.43444 52.0179 3.43282 52.078 3.43201C52.0763 3.30215 52.0149 3.21639 52.0132 3.08653ZM56.4482 6.23044C56.5697 6.31539 56.6912 6.40034 56.8127 6.48529C56.8722 6.44119 56.8711 6.35462 56.8705 6.31133C56.9289 6.18066 56.9277 6.09409 56.6871 6.09734C56.6269 6.09815 56.5679 6.18554 56.4482 6.23044ZM131.042 4.74773C130.92 4.61949 130.858 4.53373 130.799 4.57783C130.619 4.62355 130.5 4.71175 130.32 4.75747C130.381 4.79994 130.502 4.8416 130.562 4.84079C130.742 4.79507 130.861 4.75016 131.042 4.74773ZM107.271 4.54894C107.15 4.46399 107.088 4.37823 107.028 4.37904C106.908 4.38066 106.849 4.46805 106.789 4.51214C106.789 4.51214 106.851 4.64119 106.911 4.64038C107.032 4.63875 107.151 4.59384 107.271 4.54894ZM62.9678 3.32837C63.0893 3.41332 63.15 3.45579 63.271 3.49745C63.3311 3.49664 63.3907 3.45254 63.4503 3.40845C63.3895 3.36597 63.3282 3.28021 63.2675 3.23774C63.2067 3.19526 63.1477 3.28265 62.9678 3.32837ZM64.7633 7.07072C64.6418 6.98577 64.5805 6.90001 64.5203 6.90082C64.4 6.90244 64.3404 6.94654 64.2814 7.03393C64.2814 7.03393 64.3433 7.16297 64.4035 7.16216C64.5238 7.16054 64.5834 7.11644 64.7633 7.07072ZM140.942 7.08191C140.821 7.08353 140.702 7.12844 140.641 7.12925C140.703 7.21501 140.825 7.34325 140.884 7.29915C141.005 7.29753 141.124 7.20933 141.244 7.16442C141.063 7.16686 141.002 7.12438 140.942 7.08191ZM105.701 4.13718C105.882 4.17803 105.942 4.17722 106.063 4.1756C106.123 4.17478 106.243 4.12987 106.303 4.12906C106.242 4.08659 106.181 4.00083 106.12 4.00164C106.06 3.95916 106 3.95998 105.94 4.00407C105.88 4.00489 105.82 4.04898 105.701 4.13718ZM48.8048 6.11711C48.9263 6.20206 48.987 6.24453 49.1079 6.28619C49.1681 6.28538 49.2277 6.24128 49.2872 6.19718C49.2265 6.15471 49.1652 6.06895 49.1044 6.02648C49.0442 6.02729 48.9245 6.0722 48.8048 6.11711ZM74.093 7.29118C73.9738 7.37938 73.9143 7.42348 73.7951 7.51167L73.8564 7.59743C74.0363 7.55171 74.1561 7.5068 74.336 7.46108C74.2752 7.41861 74.2145 7.37613 74.093 7.29118ZM55.9938 3.76882C55.9324 3.68306 55.8717 3.64058 55.8109 3.59811C55.6912 3.64302 55.5721 3.73122 55.5726 3.7745C55.5738 3.86107 55.6947 3.90274 55.8162 3.98769C55.815 3.90111 55.8746 3.85702 55.9938 3.76882ZM74.9919 7.01929C75.1128 7.06095 75.1736 7.10343 75.2945 7.14509C75.3546 7.14428 75.475 7.14266 75.5345 7.09856C75.413 7.01361 75.2314 6.92947 75.1099 6.84452C75.1111 6.9311 75.0515 6.97519 74.9919 7.01929ZM33.4625 6.23753C33.5232 6.28001 33.5845 6.36577 33.5851 6.40905C33.6447 6.36495 33.6435 6.27838 33.6429 6.2351C33.6418 6.14852 33.581 6.10605 33.5799 6.01948C33.5804 6.06276 33.5214 6.15015 33.4625 6.23753ZM65.7691 5.80162C65.7078 5.71586 65.5869 5.6742 65.5255 5.58844C65.466 5.63253 65.407 5.71992 65.4076 5.7632C65.4683 5.80568 65.5892 5.84734 65.65 5.88982C65.7095 5.84572 65.7691 5.80162 65.7691 5.80162ZM133.633 5.05911C133.572 4.97335 133.572 4.93006 133.571 4.88678C133.451 4.93169 133.332 5.01988 133.212 5.06479C133.273 5.10727 133.334 5.14974 133.334 5.14974C133.454 5.10483 133.513 5.06073 133.633 5.05911ZM50.2446 5.79462C50.185 5.83872 50.1254 5.88282 50.0664 5.9702C50.067 6.01349 50.0676 6.05677 50.1283 6.09925C50.2481 6.05434 50.3672 5.96614 50.487 5.92123C50.366 5.87957 50.366 5.87957 50.2446 5.79462ZM65.4958 3.38085C65.4356 3.38166 65.376 3.42576 65.376 3.42576C65.3772 3.51233 65.4385 3.59809 65.4993 3.64056C65.4993 3.64056 65.6792 3.59484 65.7393 3.59403C65.6178 3.50908 65.5571 3.46661 65.4958 3.38085ZM90.9452 3.12405C90.8839 3.03829 90.8833 2.995 90.8827 2.95172C90.763 2.99662 90.6438 3.08482 90.5241 3.12973C90.5848 3.1722 90.6456 3.21468 90.6456 3.21468C90.7653 3.16977 90.8249 3.12567 90.9452 3.12405ZM61.3318 6.94384C61.2722 6.98794 61.2132 7.07532 61.2138 7.11861C61.2144 7.1619 61.2751 7.20437 61.2757 7.24766C61.3949 7.15946 61.4544 7.11536 61.5736 7.02717C61.5128 6.98469 61.4527 6.98551 61.3318 6.94384ZM96.7043 6.29339C96.4643 6.33992 96.3439 6.34155 96.2236 6.34317C96.2844 6.38564 96.3451 6.42812 96.4053 6.42731C96.5256 6.42568 96.6459 6.42406 96.7662 6.42244C96.7055 6.37996 96.7049 6.33667 96.7043 6.29339ZM60.2635 3.58133C60.2033 3.58214 60.1437 3.62624 60.1437 3.62624C60.1449 3.71281 60.2062 3.79857 60.267 3.84104C60.267 3.84104 60.4469 3.79532 60.507 3.79451C60.4463 3.75204 60.3248 3.66709 60.2635 3.58133ZM79.5554 6.30831C79.4941 6.22255 79.4929 6.13597 79.4316 6.05021C79.372 6.09431 79.3124 6.13841 79.3136 6.22498C79.3148 6.31155 79.3761 6.39731 79.3773 6.48389C79.4363 6.3965 79.4958 6.3524 79.5554 6.30831ZM53.0114 5.71399C52.8917 5.7589 52.8315 5.75972 52.7713 5.76053C52.8327 5.84629 52.9542 5.93124 53.0155 6.017C53.0751 5.9729 53.1346 5.9288 53.1346 5.9288C53.1335 5.84223 53.0721 5.75647 53.0114 5.71399ZM111.913 5.17901C111.852 5.09325 111.731 5.05158 111.669 4.96582C111.61 5.00992 111.551 5.09731 111.551 5.14059C111.612 5.18307 111.733 5.22473 111.794 5.2672C111.793 5.22392 111.853 5.17982 111.913 5.17901ZM45.448 7.07157C45.5087 7.11405 45.5695 7.15652 45.6904 7.19818C45.7506 7.19737 45.8107 7.19656 45.8703 7.15246C45.809 7.0667 45.6875 6.98175 45.6261 6.89599C45.5666 6.94009 45.507 6.98419 45.448 7.07157ZM75.1899 3.85616C75.0708 3.94435 75.0112 3.98845 74.892 4.07665C74.9522 4.07584 75.0129 4.11831 75.0129 4.11831C75.0725 4.07421 75.1923 4.0293 75.2518 3.98521C75.2512 3.94192 75.1905 3.89945 75.1899 3.85616ZM118.316 7.04084C118.257 7.08493 118.198 7.17232 118.198 7.2156C118.199 7.25889 118.26 7.30136 118.26 7.34465C118.379 7.25645 118.439 7.21236 118.558 7.12416C118.437 7.0825 118.437 7.0825 118.316 7.04084ZM74.9773 5.93714C75.0386 6.0229 75.0398 6.10947 75.1011 6.19523C75.1607 6.15113 75.2203 6.10704 75.2191 6.02046C75.218 5.93389 75.1566 5.84813 75.1555 5.76156C75.0363 5.84976 75.0369 5.89304 74.9773 5.93714ZM57.5381 6.73527C57.4779 6.73608 57.4184 6.78018 57.4184 6.78018C57.4195 6.86675 57.4809 6.95251 57.5416 6.99498C57.5416 6.99498 57.7215 6.94926 57.7817 6.94845C57.7203 6.86269 57.5994 6.82103 57.5381 6.73527ZM111.873 6.69483C111.995 6.77978 112.055 6.82226 112.177 6.9072C112.176 6.86392 112.236 6.81982 112.236 6.81982C112.175 6.77735 112.114 6.69159 112.053 6.64911C112.053 6.64911 111.933 6.69402 111.873 6.69483ZM113.815 3.42159C113.876 3.50735 113.877 3.55063 113.937 3.59311C114.057 3.50491 114.116 3.46081 114.235 3.37262C114.175 3.37343 114.114 3.33096 114.114 3.33096C113.994 3.33258 113.934 3.37668 113.815 3.42159ZM138.532 2.43867C138.533 2.52524 138.595 2.611 138.595 2.65429C138.655 2.61019 138.714 2.5228 138.713 2.47952C138.713 2.43623 138.712 2.34966 138.711 2.30637C138.651 2.35047 138.592 2.39457 138.532 2.43867ZM63.7902 6.30456C63.9099 6.25965 63.9701 6.25883 64.0297 6.21474C63.9082 6.12979 63.8475 6.08731 63.726 6.00236C63.7265 6.04565 63.667 6.08975 63.667 6.08975C63.6687 6.21961 63.7295 6.26208 63.7902 6.30456ZM94.9561 6.05721C94.955 5.97064 94.8936 5.88488 94.8931 5.84159C94.8335 5.88569 94.7745 5.97308 94.7751 6.01636C94.7757 6.05965 94.7768 6.14622 94.7774 6.18951C94.837 6.14541 94.8966 6.10131 94.9561 6.05721ZM113 5.51068C113.122 5.59563 113.183 5.63811 113.304 5.72306C113.304 5.67977 113.363 5.63567 113.363 5.63567C113.302 5.5932 113.241 5.50744 113.18 5.46496C113.12 5.46578 113.061 5.50987 113 5.51068ZM72.7537 6.14032C72.6941 6.18442 72.6345 6.22851 72.6351 6.2718C72.6357 6.31509 72.697 6.40085 72.6976 6.44413C72.7572 6.40004 72.8173 6.39922 72.8168 6.35594C72.8162 6.31265 72.815 6.22608 72.7537 6.14032ZM73.3471 5.5262C73.3483 5.61277 73.2887 5.65687 73.2893 5.70015C73.2893 5.70015 73.35 5.74263 73.4102 5.74181C73.4698 5.69772 73.4686 5.61114 73.468 5.56786C73.4686 5.61114 73.4079 5.56867 73.3471 5.5262ZM76.2705 3.6684C76.2716 3.75498 76.2121 3.79907 76.2127 3.84236C76.2127 3.84236 76.2734 3.88483 76.3336 3.88402C76.3931 3.83992 76.392 3.75335 76.3914 3.71007C76.4516 3.70925 76.3306 3.66759 76.2705 3.6684ZM78.9684 7.39858C78.9088 7.44268 78.8487 7.44349 78.7891 7.48758C78.8498 7.53006 78.9106 7.57253 79.0309 7.57091C79.0911 7.5701 79.1506 7.526 79.2108 7.52519C79.0893 7.44024 79.0292 7.44105 78.9684 7.39858ZM79.0251 7.13805C79.0245 7.09476 78.9637 7.05229 78.9626 6.96572C78.903 7.00981 78.8428 7.01063 78.8434 7.05391C78.844 7.0972 78.9053 7.18296 78.9059 7.22624C78.9661 7.22543 79.0256 7.18134 79.0251 7.13805ZM79.3825 6.87346C79.3825 6.87346 79.3235 6.96085 79.3241 7.00413C79.3843 7.00332 79.445 7.04579 79.445 7.04579C79.5052 7.04498 79.5648 7.00089 79.6243 6.95679C79.5636 6.91431 79.5034 6.91512 79.3825 6.87346ZM80.2008 5.08737C80.0209 5.13309 80.0209 5.13309 79.9608 5.1339C80.0215 5.17637 80.0823 5.21885 80.1424 5.21804C80.2026 5.21723 80.2627 5.21641 80.3223 5.17232C80.202 5.17394 80.2014 5.13065 80.2008 5.08737ZM81.0916 4.20947C81.0916 4.20947 81.0326 4.29685 81.0332 4.34014C81.0933 4.33933 81.1541 4.3818 81.1541 4.3818C81.2142 4.38099 81.2738 4.33689 81.3334 4.29279C81.2732 4.29361 81.2125 4.25113 81.0916 4.20947ZM82.1558 2.8097C82.2154 2.7656 82.2755 2.76479 82.3351 2.72069C82.2744 2.67822 82.2136 2.63575 82.0933 2.63737C82.0331 2.63818 81.9736 2.68228 81.9134 2.68309C82.0343 2.72475 82.0951 2.76723 82.1558 2.8097ZM83.0606 2.97067C83.0004 2.97148 82.9408 3.01558 82.8205 3.0172C82.8812 3.05968 82.8818 3.10296 82.942 3.10215C83.0021 3.10134 83.1219 3.05643 83.182 3.05562C83.1815 3.01233 83.1213 3.01314 83.0606 2.97067ZM82.5693 6.70058C82.6301 6.74306 82.6312 6.82963 82.6312 6.82963C82.6914 6.82882 82.8117 6.82719 82.8713 6.78309C82.8707 6.73981 82.81 6.69733 82.81 6.69733C82.7498 6.69815 82.6897 6.69896 82.5693 6.70058ZM83.0757 4.09611C83.1365 4.13858 83.1377 4.22516 83.1377 4.22516C83.1978 4.22434 83.3181 4.22272 83.3777 4.17862C83.3771 4.13534 83.3164 4.09286 83.3164 4.09286C83.3164 4.09286 83.1961 4.09449 83.0757 4.09611ZM29.3867 7.41817C29.4462 7.37407 29.5064 7.37326 29.566 7.32916C29.5052 7.28669 29.4445 7.24421 29.3242 7.24584C29.264 7.24665 29.2044 7.29075 29.1443 7.29156C29.205 7.33403 29.3259 7.37569 29.3867 7.41817ZM30.1518 6.15232C29.9719 6.19804 29.9719 6.19804 29.9118 6.19885C29.9725 6.24133 30.0333 6.2838 30.0934 6.28299C30.1536 6.28218 30.2137 6.28137 30.2733 6.23727C30.2132 6.23808 30.1524 6.19561 30.1518 6.15232ZM85.0348 6.58073C84.9746 6.58154 84.9144 6.58235 84.9144 6.58235C84.915 6.62564 84.9162 6.71221 84.9168 6.75549L85.0371 6.75387C85.0365 6.71058 85.0359 6.6673 85.0348 6.58073ZM33.4817 3.20669C33.4817 3.20669 33.4227 3.29408 33.4233 3.33736C33.4835 3.33655 33.5442 3.37902 33.5442 3.37902C33.6044 3.37821 33.664 3.33412 33.7235 3.29002C33.6634 3.29083 33.6026 3.24835 33.4817 3.20669ZM104.118 2.72984C104.118 2.72984 104.239 2.77151 104.299 2.77069C104.298 2.72741 104.358 2.68331 104.358 2.68331C104.357 2.64002 104.296 2.59755 104.236 2.55508C104.236 2.59836 104.237 2.64165 104.118 2.72984ZM36.5137 4.94083C36.4542 4.98493 36.3946 5.02903 36.3952 5.07232C36.3958 5.1156 36.4571 5.20136 36.4577 5.24465C36.5172 5.20055 36.5774 5.19974 36.5768 5.15645C36.5757 5.06988 36.5143 4.98412 36.5137 4.94083ZM36.8116 4.72035C36.8724 4.76282 36.8735 4.84939 36.8735 4.84939C36.9337 4.84858 37.054 4.84696 37.1136 4.80286C37.113 4.75957 37.0523 4.7171 37.0523 4.7171C36.9921 4.71791 36.932 4.71872 36.8116 4.72035ZM105.432 6.52197C105.493 6.56445 105.494 6.65102 105.494 6.65102C105.554 6.65021 105.675 6.64859 105.734 6.60449C105.734 6.5612 105.673 6.51873 105.673 6.51873C105.613 6.51954 105.493 6.52116 105.432 6.52197ZM38.3373 6.30164C38.3367 6.25835 38.2759 6.21588 38.2748 6.1293C38.2152 6.1734 38.155 6.17421 38.1556 6.2175C38.1562 6.26079 38.2175 6.34655 38.2181 6.38983C38.2181 6.38983 38.2783 6.38902 38.3373 6.30164ZM112.473 6.55686C112.534 6.59933 112.535 6.6859 112.535 6.6859C112.595 6.68509 112.715 6.68347 112.775 6.63937C112.774 6.59608 112.714 6.55361 112.714 6.55361C112.714 6.55361 112.593 6.55523 112.473 6.55686ZM117.559 4.45341C117.559 4.45341 117.68 4.49507 117.74 4.49426C117.74 4.45098 117.799 4.40688 117.799 4.40688C117.799 4.36359 117.738 4.32112 117.677 4.27864C117.617 4.27946 117.618 4.32274 117.559 4.45341ZM118.357 5.5683C118.417 5.61077 118.418 5.69734 118.418 5.69734C118.479 5.69653 118.599 5.69491 118.659 5.65081C118.658 5.60752 118.597 5.56505 118.597 5.56505C118.597 5.52176 118.477 5.56667 118.357 5.5683ZM123.19 2.55909C123.251 2.60157 123.311 2.64404 123.372 2.64323C123.432 2.64242 123.551 2.59751 123.612 2.59669C123.551 2.55422 123.55 2.51093 123.49 2.51175C123.37 2.55666 123.25 2.55828 123.19 2.55909ZM47.5624 3.23317C47.5005 3.10413 47.5005 3.10413 47.4999 3.06084C47.4403 3.10494 47.3808 3.14904 47.3813 3.19232C47.3819 3.23561 47.3825 3.27889 47.4433 3.32137C47.5028 3.27727 47.5624 3.23317 47.5624 3.23317ZM48.4023 3.04866C48.2224 3.09439 48.2224 3.09439 48.1623 3.0952C48.223 3.13767 48.2838 3.18015 48.3439 3.17933C48.4041 3.17852 48.4642 3.17771 48.5238 3.13361C48.4637 3.13442 48.4631 3.09114 48.4023 3.04866ZM49.949 6.18826C49.949 6.18826 49.89 6.27564 49.8906 6.31893C49.9508 6.31811 50.0115 6.36059 50.0115 6.36059C50.0717 6.35978 50.1312 6.31568 50.1908 6.27158C50.1307 6.27239 50.0699 6.22992 49.949 6.18826ZM136.373 7.40332C136.372 7.36003 136.312 7.31756 136.31 7.23098C136.251 7.27508 136.191 7.27589 136.191 7.31918C136.192 7.36247 136.253 7.44823 136.254 7.49151C136.254 7.49151 136.313 7.44741 136.373 7.40332ZM137.645 3.57628C137.585 3.57709 137.525 3.62119 137.405 3.62281C137.466 3.66529 137.466 3.70858 137.526 3.70776C137.587 3.70695 137.706 3.66204 137.767 3.66123C137.767 3.66123 137.706 3.61876 137.645 3.57628ZM141.782 6.94068C141.662 6.94231 141.601 6.89983 141.541 6.90065C141.541 6.90065 141.481 6.94474 141.482 6.98803C141.543 7.0305 141.663 7.02888 141.723 7.02807C141.663 7.02888 141.723 6.98478 141.782 6.94068ZM146.231 6.66418C146.111 6.66581 146.05 6.62333 145.99 6.62414C145.99 6.62414 145.93 6.66824 145.931 6.71153C145.992 6.754 146.112 6.75238 146.172 6.75157C146.112 6.75238 146.172 6.70828 146.231 6.66418ZM147.118 5.48328C146.997 5.48491 146.937 5.44243 146.877 5.44324C146.877 5.44324 146.817 5.48734 146.818 5.53063C146.878 5.5731 146.999 5.57148 147.059 5.57067C147.059 5.57067 147.118 5.52657 147.118 5.48328ZM52.8408 6.45229C52.7205 6.45392 52.6598 6.41144 52.5996 6.41225C52.5996 6.41225 52.54 6.45635 52.5406 6.49964C52.6014 6.54211 52.7217 6.54049 52.7818 6.53968C52.7818 6.53968 52.7813 6.49639 52.8408 6.45229ZM53.7287 5.35797C53.6691 5.40206 53.6095 5.44616 53.6101 5.48945C53.6107 5.53273 53.672 5.61849 53.6726 5.66178C53.7322 5.61768 53.7923 5.61687 53.7917 5.57358C53.7304 5.48782 53.7292 5.40125 53.7287 5.35797ZM54.7 5.99427C54.7012 6.08084 54.6416 6.12494 54.6422 6.16822C54.6422 6.16822 54.7029 6.2107 54.7631 6.20989C54.8227 6.16579 54.8215 6.07922 54.8209 6.03593C54.8209 6.03593 54.7608 6.03674 54.7 5.99427ZM55.6159 6.97767C55.5563 7.02177 55.4961 7.02258 55.4365 7.06668C55.4973 7.10915 55.558 7.15163 55.6784 7.15001C55.7385 7.14919 55.7981 7.1051 55.8583 7.10428C55.7975 7.06181 55.6766 7.02015 55.6159 6.97767ZM187.097 7.32502C186.917 7.37074 186.917 7.37074 186.857 7.37155C186.918 7.41402 186.979 7.4565 187.039 7.45569C187.099 7.45487 187.159 7.45406 187.219 7.40996C187.098 7.3683 187.097 7.32502 187.097 7.32502ZM57.7285 3.00941C57.6082 3.01104 57.5474 2.96856 57.4873 2.96938C57.4873 2.96938 57.4277 3.01347 57.4283 3.05676C57.489 3.09923 57.6094 3.09761 57.6695 3.0968C57.6701 3.14008 57.6695 3.0968 57.7285 3.00941ZM196.959 6.88889C196.9 6.93298 196.78 6.93461 196.78 6.93461C196.78 6.97789 196.781 7.06447 196.842 7.10694C196.902 7.10613 196.962 7.06203 196.962 7.06203C196.961 7.01874 196.96 6.93217 196.959 6.88889ZM57.3483 6.04512C57.4078 6.00103 57.468 6.00021 57.5276 5.95612C57.4668 5.91364 57.4061 5.87117 57.2858 5.87279C57.2256 5.8736 57.166 5.9177 57.1059 5.91851C57.2268 5.96018 57.2875 6.00265 57.3483 6.04512ZM59.8307 2.72129C59.7711 2.76538 59.7115 2.80948 59.7121 2.85277C59.7127 2.89605 59.774 2.98182 59.7746 3.0251C59.8342 2.981 59.8943 2.98019 59.8937 2.93691C59.8926 2.85033 59.8312 2.76457 59.8307 2.72129ZM59.9434 6.61622C59.8231 6.61785 59.7623 6.57537 59.7022 6.57619C59.7022 6.57619 59.6426 6.62028 59.6432 6.66357C59.7039 6.70604 59.8242 6.70442 59.8844 6.70361C59.8242 6.70442 59.8838 6.66032 59.9434 6.61622ZM61.7114 3.86485C61.6495 3.7358 61.6495 3.7358 61.6489 3.69251C61.5894 3.73661 61.5298 3.78071 61.5304 3.824C61.5309 3.86728 61.5315 3.91057 61.5923 3.95304C61.5917 3.90976 61.6513 3.86566 61.7114 3.86485ZM62.4906 3.63786C62.4287 3.50882 62.4287 3.50882 62.4281 3.46553C62.3685 3.50963 62.309 3.55373 62.3095 3.59701C62.3101 3.6403 62.3107 3.68359 62.3715 3.72606C62.3709 3.68277 62.4305 3.63868 62.4906 3.63786ZM63.4275 6.17957C63.3072 6.18119 63.2464 6.13872 63.1863 6.13953C63.1863 6.13953 63.1267 6.18363 63.1273 6.22691C63.188 6.26939 63.3083 6.26776 63.3685 6.26695C63.3685 6.26695 63.3679 6.22367 63.4275 6.17957ZM67.2778 6.12762C67.1575 6.12924 67.0968 6.08676 67.0366 6.08758C67.0366 6.08758 66.977 6.13167 66.9776 6.17496C67.0383 6.21743 67.1587 6.21581 67.2188 6.215C67.2188 6.215 67.2182 6.17171 67.2778 6.12762ZM26.7273 6.54488C26.6671 6.54569 26.6677 6.58898 26.6076 6.58979L26.6683 6.63226C26.7285 6.63145 26.7285 6.63145 26.788 6.58735C26.7279 6.58816 26.7273 6.54488 26.7273 6.54488ZM33.2364 7.32293C33.2966 7.32212 33.296 7.27883 33.3561 7.27802L33.2954 7.23555C33.2352 7.23636 33.2352 7.23636 33.1757 7.28046C33.1762 7.32374 33.2364 7.32293 33.2364 7.32293ZM33.9362 5.66832L33.8754 5.62584C33.876 5.66913 33.8158 5.66994 33.8164 5.71323L33.8772 5.7557C33.8766 5.71242 33.9362 5.66832 33.9362 5.66832ZM34.7393 7.21606C34.7399 7.25935 34.8 7.25854 34.8006 7.30182L34.8602 7.25773C34.8596 7.21444 34.8596 7.21444 34.7989 7.17197C34.7994 7.21525 34.7994 7.21525 34.7393 7.21606ZM35.6972 6.85679L35.6364 6.81431C35.637 6.8576 35.5769 6.85841 35.5774 6.9017L35.6382 6.94417C35.6382 6.94417 35.6978 6.90007 35.6972 6.85679ZM35.9326 6.46397C35.8724 6.46478 35.873 6.50806 35.8128 6.50888L35.8736 6.55135C35.9337 6.55054 35.9337 6.55054 35.9933 6.50644C35.9326 6.46397 35.9326 6.46397 35.9326 6.46397ZM36.1177 6.80782L36.1785 6.85029C36.2386 6.84948 36.2386 6.84948 36.2982 6.80538L36.2375 6.76291C36.2375 6.76291 36.1773 6.76372 36.1177 6.80782ZM36.4028 5.63504C36.3426 5.63585 36.3432 5.67913 36.283 5.67994L36.3438 5.72242C36.4039 5.72161 36.4039 5.72161 36.4635 5.67751C36.4635 5.67751 36.4034 5.67832 36.4028 5.63504ZM37.2006 6.79321L37.1411 6.83731C37.1416 6.88059 37.1416 6.88059 37.2024 6.92307L37.262 6.87897C37.2012 6.83649 37.2012 6.83649 37.2006 6.79321ZM37.568 7.26448L37.5073 7.22201C37.5079 7.2653 37.4477 7.26611 37.4483 7.30939L37.509 7.35187C37.5085 7.30858 37.5686 7.30777 37.568 7.26448ZM39.9155 2.86012L39.8547 2.81764C39.8553 2.86093 39.7952 2.86174 39.7958 2.90503L39.8565 2.9475C39.8559 2.90422 39.8559 2.90422 39.9155 2.86012ZM40.4102 3.8492L40.3506 3.8933C40.4108 3.89249 40.4114 3.93578 40.4715 3.93497L40.5311 3.89087C40.5311 3.89087 40.4704 3.84839 40.4102 3.8492ZM46.4859 3.72393L46.4252 3.68146C46.4258 3.72474 46.3656 3.72556 46.3662 3.76884L46.4269 3.81132C46.4264 3.76803 46.4859 3.72393 46.4859 3.72393ZM46.813 5.66775L46.7523 5.62527C46.7529 5.66856 46.6927 5.66937 46.6933 5.71266L46.754 5.75513C46.7534 5.71185 46.7529 5.66856 46.813 5.66775ZM47.2511 6.91736C47.2517 6.96065 47.3118 6.95984 47.3124 7.00312L47.372 6.95902C47.3714 6.91574 47.3714 6.91574 47.3107 6.87326C47.3112 6.91655 47.3113 6.91655 47.2511 6.91736ZM47.8328 5.43752C47.8334 5.4808 47.8936 5.47999 47.8942 5.52328L47.9538 5.47918C47.9532 5.43589 47.9532 5.43589 47.8924 5.39342C47.893 5.43671 47.893 5.43671 47.8328 5.43752ZM48.2137 6.90437L48.2744 6.94685C48.2738 6.90356 48.334 6.90275 48.3334 6.85946L48.2727 6.81699C48.2732 6.86028 48.2732 6.86028 48.2137 6.90437ZM49.0302 4.98842L49.091 5.0309C49.1511 5.03008 49.1511 5.03008 49.2107 4.98599L49.15 4.94351C49.15 4.94351 49.0904 4.98761 49.0302 4.98842ZM51.133 4.74358C51.1324 4.70029 51.0722 4.70111 51.0716 4.65782L51.012 4.70192C51.0126 4.7452 51.0126 4.7452 51.0734 4.78768L51.133 4.74358ZM51.4198 3.70065L51.4793 3.65656C51.4192 3.65737 51.4186 3.61408 51.3584 3.61489L51.2988 3.65899C51.359 3.65818 51.4192 3.65737 51.4198 3.70065ZM51.7515 5.99076L51.6908 5.94828C51.6914 5.99157 51.6312 5.99238 51.6318 6.03567L51.6925 6.07814C51.6919 6.03486 51.6913 5.99157 51.7515 5.99076ZM52.6901 4.20304L52.6306 4.24714C52.6907 4.24633 52.6913 4.28961 52.7515 4.2888L52.8111 4.2447C52.7509 4.24552 52.6907 4.24633 52.6901 4.20304ZM54.0861 5.09338L54.0265 5.13748C54.0271 5.18076 54.0271 5.18076 54.0879 5.22324L54.1475 5.17914C54.1475 5.17914 54.0867 5.13666 54.0861 5.09338ZM54.2894 6.7791L54.349 6.735C54.2888 6.73581 54.2882 6.69253 54.2281 6.69334L54.1685 6.73744C54.2286 6.73663 54.2286 6.73663 54.2894 6.7791ZM38.5113 5.82305L38.4506 5.78058C38.4512 5.82387 38.391 5.82468 38.3916 5.86796L38.4523 5.91044C38.5119 5.86634 38.5113 5.82305 38.5113 5.82305ZM56.4739 3.67575L56.4131 3.63328C56.4137 3.67657 56.3536 3.67738 56.3541 3.72066L56.4149 3.76314C56.4143 3.71985 56.4739 3.67575 56.4739 3.67575ZM58.2203 3.78207L58.2811 3.82455C58.3412 3.82373 58.3412 3.82373 58.4008 3.77964L58.3401 3.73716C58.2805 3.78126 58.2805 3.78126 58.2203 3.78207ZM58.8611 6.67412L58.8015 6.71822C58.8617 6.71741 58.8622 6.76069 58.9224 6.75988L58.982 6.71578C58.9218 6.7166 58.8617 6.71741 58.8611 6.67412ZM59.3978 6.32053C59.3984 6.36381 59.4586 6.363 59.4592 6.40629L59.5188 6.36219C59.5182 6.3189 59.5182 6.3189 59.4574 6.27643C59.458 6.31972 59.458 6.31972 59.3978 6.32053ZM59.9592 3.32567L59.8984 3.28319C59.899 3.32648 59.8388 3.32729 59.8394 3.37058L59.9002 3.41305C59.8996 3.36977 59.9597 3.36896 59.9592 3.32567ZM60.1338 2.89037L60.0742 2.93447C60.1344 2.93366 60.135 2.97694 60.1951 2.97613L60.2547 2.93204C60.1946 2.93285 60.1946 2.93285 60.1338 2.89037ZM60.7325 2.66582L60.6729 2.70992C60.7331 2.70911 60.7337 2.7524 60.7938 2.75159L60.8534 2.70749C60.7932 2.7083 60.7927 2.66501 60.7325 2.66582ZM61.0976 2.96396L61.038 3.00805C61.0981 3.00724 61.0987 3.05053 61.1589 3.04972L61.2185 3.00562C61.1583 3.00643 61.0976 2.96396 61.0976 2.96396ZM107.908 2.6787L107.848 2.7228C107.908 2.72199 107.909 2.76528 107.969 2.76446L108.029 2.72037C107.969 2.72118 107.968 2.67789 107.908 2.6787ZM109.64 6.16215L109.7 6.20462C109.761 6.20381 109.761 6.20381 109.82 6.15971L109.759 6.11724C109.759 6.11724 109.699 6.11805 109.64 6.16215ZM87.2718 2.91385C87.2713 2.87056 87.2111 2.87137 87.2105 2.82809L87.1509 2.87219C87.1515 2.91547 87.1515 2.91547 87.2123 2.95795C87.2123 2.95795 87.2123 2.95795 87.2718 2.91385ZM110.966 6.36072L110.905 6.31825C110.906 6.36153 110.846 6.36234 110.846 6.40563L110.907 6.4481C110.907 6.40482 110.906 6.36153 110.966 6.36072ZM111.821 2.79908L111.76 2.75661C111.76 2.7999 111.7 2.80071 111.701 2.84399L111.762 2.88647C111.761 2.84318 111.821 2.84237 111.821 2.79908ZM114.292 3.11209L114.231 3.06962C114.232 3.1129 114.172 3.11371 114.172 3.157L114.233 3.19948C114.232 3.15619 114.232 3.1129 114.292 3.11209ZM114.66 3.66994C114.661 3.71323 114.721 3.71241 114.722 3.7557L114.781 3.7116C114.781 3.66832 114.781 3.66832 114.72 3.62584C114.66 3.66994 114.66 3.66994 114.66 3.66994ZM114.795 4.70718C114.794 4.6639 114.734 4.66471 114.733 4.62142L114.674 4.66552C114.674 4.70881 114.674 4.70881 114.735 4.75128C114.795 4.70718 114.795 4.70718 114.795 4.70718ZM87.096 3.26257C87.0966 3.30586 87.1568 3.30505 87.1574 3.34833L87.2169 3.30423C87.2164 3.26095 87.2164 3.26095 87.1556 3.21847C87.096 3.26257 87.096 3.26257 87.096 3.26257ZM86.9436 5.34274L86.8828 5.30027C86.8834 5.34355 86.8233 5.34436 86.8238 5.38765L86.8846 5.43012C86.884 5.38684 86.884 5.38684 86.9436 5.34274ZM95.1139 4.36662L95.0531 4.32415C95.0537 4.36743 94.9935 4.36824 94.9941 4.41153L95.0549 4.454C95.0543 4.41072 95.1139 4.36662 95.1139 4.36662ZM95.3002 4.79705L95.3609 4.83952C95.4211 4.83871 95.4211 4.83871 95.4807 4.79461L95.4199 4.75214C95.3598 4.75295 95.3002 4.79705 95.3002 4.79705ZM90.5135 6.80986C90.4534 6.81067 90.454 6.85396 90.3938 6.85477L90.4546 6.89724C90.5147 6.89643 90.5147 6.89643 90.5743 6.85233C90.5737 6.80905 90.5737 6.80905 90.5135 6.80986ZM87.9243 6.67162L87.985 6.71409C88.0452 6.71328 88.0452 6.71328 88.1048 6.66919L88.044 6.62671C87.9838 6.62752 87.9844 6.67081 87.9243 6.67162ZM73.1304 2.84489L73.1912 2.88737C73.1906 2.84408 73.2507 2.84327 73.2502 2.79998L73.1894 2.75751C73.19 2.8008 73.19 2.8008 73.1304 2.84489ZM125.97 3.47404L126.031 3.51652C126.091 3.51571 126.091 3.51571 126.151 3.47161L126.09 3.42914C126.03 3.42995 125.97 3.43076 125.97 3.47404ZM89.617 2.79562L89.6777 2.83809C89.6771 2.79481 89.7373 2.79399 89.7367 2.75071L89.676 2.70823C89.6766 2.75152 89.6765 2.75152 89.617 2.79562ZM126.323 2.86317L126.383 2.81907C126.322 2.81988 126.322 2.7766 126.262 2.77741L126.202 2.82151C126.262 2.82069 126.322 2.81988 126.323 2.86317ZM126.572 3.46593C126.572 3.50921 126.633 3.5084 126.633 3.55169L126.693 3.50759C126.692 3.4643 126.692 3.4643 126.631 3.42183C126.572 3.46593 126.572 3.46593 126.572 3.46593ZM72.1281 4.37371C72.1287 4.41699 72.1889 4.41618 72.1894 4.45947L72.249 4.41537C72.2484 4.37208 72.2484 4.37208 72.1877 4.32961C72.1883 4.37289 72.1883 4.37289 72.1281 4.37371ZM71.568 2.99586L71.6287 3.03833C71.6281 2.99504 71.6883 2.99423 71.6877 2.95095L71.627 2.90847C71.6275 2.95176 71.6281 2.99504 71.568 2.99586ZM129.634 7.45095L129.695 7.49342C129.694 7.45013 129.755 7.44932 129.754 7.40604L129.693 7.36356C129.694 7.40685 129.694 7.40685 129.634 7.45095ZM130.656 2.93458C130.657 2.97787 130.717 2.97706 130.718 3.02034L130.777 2.97624C130.777 2.93296 130.777 2.93296 130.716 2.89048C130.716 2.89048 130.656 2.89129 130.656 2.93458ZM131.018 2.973L131.079 3.01547C131.139 3.01466 131.139 3.01466 131.198 2.97056L131.138 2.92809C131.077 2.9289 131.077 2.9289 131.018 2.973ZM131.941 4.51912C131.942 4.56241 132.002 4.56159 132.003 4.60488L132.062 4.56078C132.062 4.5175 132.062 4.5175 132.001 4.47502C132.001 4.47502 132.002 4.51831 131.941 4.51912ZM132.212 6.76675L132.273 6.80922C132.333 6.80841 132.333 6.80841 132.393 6.76431L132.332 6.72184C132.272 6.72265 132.273 6.76594 132.212 6.76675ZM132.813 6.67206L132.874 6.71453C132.934 6.71372 132.934 6.71372 132.993 6.66963L132.933 6.62715C132.872 6.62796 132.813 6.67206 132.813 6.67206ZM133.812 4.92682C133.813 4.9701 133.873 4.96929 133.874 5.01258L133.933 4.96848C133.933 4.92519 133.933 4.92519 133.872 4.88272C133.872 4.88272 133.872 4.88272 133.812 4.92682ZM68.731 6.80071C68.7316 6.844 68.7918 6.84319 68.7924 6.88647L68.8519 6.84237C68.8514 6.79909 68.8514 6.79909 68.7906 6.75661C68.7906 6.75661 68.7912 6.7999 68.731 6.80071ZM135.528 7.19825C135.468 7.19906 135.468 7.24235 135.408 7.24316L135.469 7.28563C135.529 7.28482 135.529 7.28482 135.588 7.24072C135.588 7.24072 135.528 7.24154 135.528 7.19825ZM69.2188 2.81108L69.158 2.76861C69.1586 2.8119 69.0984 2.81271 69.099 2.85599L69.1598 2.89847C69.2199 2.89766 69.2193 2.85437 69.2188 2.81108ZM99.1201 2.49422L99.0606 2.53831C99.1207 2.5375 99.1213 2.58079 99.1815 2.57998L99.241 2.53588C99.1809 2.53669 99.1207 2.5375 99.1201 2.49422ZM137.867 6.64716L137.807 6.69126C137.868 6.69045 137.868 6.73373 137.928 6.73292L137.988 6.68882C137.928 6.68963 137.868 6.69044 137.867 6.64716ZM68.6428 4.72379C68.6434 4.76708 68.7036 4.76626 68.7042 4.80955L68.7637 4.76545C68.7632 4.72217 68.7632 4.72217 68.7024 4.67969C68.7024 4.67969 68.703 4.72298 68.6428 4.72379ZM139.196 7.01888L139.136 7.06297C139.137 7.10626 139.137 7.10626 139.198 7.14873L139.257 7.10464C139.196 7.06216 139.196 7.01888 139.196 7.01888ZM140.997 2.27553L141.057 2.23143C140.997 2.23224 140.996 2.18895 140.936 2.18977L140.876 2.23386C140.936 2.23305 140.936 2.23305 140.997 2.27553ZM68.5698 3.77231L68.6306 3.81478C68.63 3.7715 68.6902 3.77068 68.6896 3.7274L68.6288 3.68492C68.6294 3.72821 68.63 3.7715 68.5698 3.77231ZM142.026 2.69459C142.026 2.73787 142.086 2.73706 142.087 2.78035L142.147 2.73625C142.146 2.69296 142.146 2.69296 142.085 2.65049C142.025 2.6513 142.025 2.6513 142.026 2.69459ZM143.404 6.74562L143.345 6.78972C143.345 6.83301 143.345 6.83301 143.406 6.87548L143.465 6.83138C143.465 6.7881 143.464 6.74481 143.404 6.74562ZM68.4419 3.21121L68.5027 3.25369C68.5628 3.25287 68.5628 3.25287 68.6224 3.20878L68.5617 3.1663C68.5617 3.1663 68.5021 3.2104 68.4419 3.21121ZM145.334 2.60666L145.274 2.65075C145.335 2.64994 145.335 2.69323 145.395 2.69242L145.455 2.64832C145.394 2.60584 145.334 2.60666 145.334 2.60666ZM146.881 5.74625C146.821 5.74706 146.821 5.79034 146.761 5.79116L146.822 5.83363C146.882 5.83282 146.882 5.83282 146.941 5.78872C146.881 5.74625 146.881 5.74625 146.881 5.74625ZM100.317 6.46111L100.257 6.50521C100.318 6.5044 100.318 6.54769 100.378 6.54687L100.438 6.50278C100.378 6.50359 100.317 6.46111 100.317 6.46111ZM148.87 5.97918L148.81 6.02327C148.87 6.02246 148.871 6.06575 148.931 6.06494L148.99 6.02084C148.93 6.02165 148.93 6.02165 148.87 5.97918ZM153.66 4.26936L153.721 4.31184C153.781 4.31103 153.781 4.31103 153.841 4.26693L153.78 4.22445C153.72 4.26855 153.66 4.26936 153.66 4.26936ZM154.271 4.91054L154.33 4.86644C154.27 4.86725 154.269 4.82397 154.209 4.82478L154.15 4.86888C154.15 4.86888 154.21 4.91135 154.271 4.91054ZM154.322 4.26043C154.262 4.26125 154.262 4.30453 154.202 4.30534L154.263 4.34782C154.323 4.34701 154.323 4.34701 154.383 4.30291C154.383 4.30291 154.383 4.30291 154.322 4.26043ZM155.74 2.29308L155.68 2.33718C155.681 2.38046 155.681 2.38046 155.741 2.42294L155.801 2.37884C155.8 2.33555 155.74 2.29308 155.74 2.29308ZM157.593 5.86147C157.533 5.86228 157.533 5.90557 157.473 5.90638L157.534 5.94886C157.594 5.94804 157.594 5.94804 157.654 5.90395C157.593 5.90476 157.593 5.90476 157.593 5.86147ZM157.699 4.7777C157.638 4.77851 157.639 4.82179 157.579 4.82261L157.64 4.86508C157.7 4.86427 157.7 4.86427 157.759 4.82017C157.759 4.82017 157.759 4.77688 157.699 4.7777ZM158.336 2.99404L158.396 2.94994C158.336 2.95075 158.335 2.90746 158.275 2.90828L158.216 2.95237C158.276 2.95156 158.336 2.95075 158.336 2.99404ZM163.089 2.92991C163.09 2.97319 163.15 2.97238 163.151 3.01567L163.21 2.97157C163.21 2.92828 163.21 2.92828 163.149 2.88581C163.089 2.88662 163.089 2.92991 163.089 2.92991ZM164.193 4.43031L164.253 4.47278C164.253 4.4295 164.313 4.42869 164.312 4.3854L164.252 4.34293C164.252 4.38621 164.252 4.38621 164.193 4.43031ZM102.515 4.35335L102.455 4.39744C102.456 4.44073 102.456 4.44073 102.517 4.4832L102.576 4.43911C102.576 4.43911 102.515 4.39663 102.515 4.35335ZM165.854 7.1787L165.914 7.1346C165.854 7.13542 165.853 7.09213 165.793 7.09294L165.733 7.13704C165.733 7.13704 165.794 7.17951 165.854 7.1787ZM67.4694 6.94762L67.4098 6.99171C67.4104 7.035 67.4104 7.035 67.4712 7.07747L67.5307 7.03338C67.5301 6.99009 67.47 6.9909 67.4694 6.94762ZM88.3571 3.07238L88.2963 3.02991C88.2969 3.07319 88.2368 3.074 88.2374 3.11729L88.2981 3.15976C88.3583 3.15895 88.3577 3.11567 88.3571 3.07238ZM67.7737 2.74399L67.8345 2.78647C67.8946 2.78566 67.8946 2.78566 67.9542 2.74156L67.8935 2.69908C67.8333 2.6999 67.7737 2.74399 67.7737 2.74399ZM169.827 7.29827L169.887 7.25417C169.827 7.25499 169.826 7.2117 169.766 7.21251L169.706 7.25661C169.767 7.2558 169.827 7.29827 169.827 7.29827ZM66.8625 6.56616L66.9233 6.60863C66.9834 6.60782 66.9834 6.60782 67.043 6.56372L66.9823 6.52125C66.9221 6.52206 66.8625 6.56616 66.8625 6.56616ZM103.88 2.94952C103.82 2.95033 103.82 2.99362 103.76 2.99443L103.821 3.03691C103.881 3.03609 103.881 3.03609 103.941 2.992C103.941 2.992 103.941 2.992 103.88 2.94952ZM66.9279 6.95492L66.8672 6.91245C66.8678 6.95573 66.8076 6.95655 66.8082 6.99983L66.869 7.04231C66.9285 6.99821 66.9285 6.99821 66.9279 6.95492ZM91.5883 6.18924L91.5275 6.14677C91.5281 6.19005 91.468 6.19087 91.4685 6.23415L91.5293 6.27663C91.5293 6.27663 91.5889 6.23253 91.5883 6.18924ZM104.896 2.41629C104.956 2.41548 104.955 2.37219 105.015 2.37138L104.955 2.3289C104.894 2.32972 104.894 2.32972 104.835 2.37381C104.835 2.37381 104.835 2.4171 104.896 2.41629ZM186.259 7.68267L186.319 7.63857C186.259 7.63938 186.258 7.5961 186.198 7.59691L186.139 7.64101C186.199 7.6402 186.259 7.63938 186.259 7.68267ZM189.582 4.17432C189.642 4.17351 189.641 4.13023 189.702 4.12941L189.641 4.08694C189.581 4.08775 189.581 4.08775 189.521 4.13185C189.521 4.13185 189.581 4.13104 189.582 4.17432ZM105.62 2.62298L105.561 2.66708C105.561 2.71036 105.561 2.71036 105.622 2.75284L105.682 2.70874C105.682 2.70874 105.681 2.66545 105.62 2.62298ZM65.3018 6.84698C65.3024 6.89027 65.3626 6.88946 65.3632 6.93274L65.4227 6.88864C65.4222 6.84536 65.4222 6.84536 65.3614 6.80288L65.3018 6.84698ZM65.164 5.55002L65.1044 5.59412C65.105 5.63741 65.105 5.63741 65.1657 5.67988L65.2253 5.63578C65.2247 5.5925 65.1646 5.59331 65.164 5.55002ZM198.391 5.9604L198.451 5.9163C198.39 5.91711 198.39 5.87382 198.33 5.87464L198.27 5.91873C198.33 5.91792 198.391 5.9604 198.391 5.9604ZM65.0548 6.37408C64.9946 6.37489 64.9952 6.41818 64.935 6.41899L64.9958 6.46146C65.0559 6.46065 65.0559 6.46065 65.1155 6.41656C65.1155 6.41656 65.1155 6.41656 65.0548 6.37408ZM81.3608 6.32724C81.3007 6.32805 81.3013 6.37134 81.2411 6.37215L81.3018 6.41462C81.362 6.41381 81.362 6.41381 81.4216 6.36971C81.4216 6.36971 81.4216 6.36972 81.3608 6.32724ZM64.681 5.42666L64.6202 5.38418C64.6208 5.42747 64.5606 5.42828 64.5612 5.47157L64.622 5.51404C64.6214 5.47076 64.6214 5.47076 64.681 5.42666ZM63.3767 6.87296L63.4374 6.91543C63.4976 6.91462 63.4976 6.91462 63.5572 6.87052L63.4964 6.82805C63.4368 6.87215 63.3767 6.87296 63.3767 6.87296ZM86.7824 6.77362L86.8431 6.81609C86.8425 6.7728 86.9027 6.77199 86.9021 6.72871L86.8414 6.68623C86.8414 6.68623 86.842 6.72952 86.7824 6.77362ZM106.464 2.74147L106.525 2.78395C106.585 2.78313 106.585 2.78313 106.645 2.73904L106.584 2.69656C106.585 2.73985 106.525 2.74066 106.464 2.74147ZM79.9876 7.12506L79.9269 7.08259C79.9275 7.12587 79.8673 7.12668 79.8679 7.16997L79.9286 7.21244C79.9281 7.16916 79.9275 7.12587 79.9876 7.12506ZM107.025 4.11932C106.964 4.12013 106.965 4.16342 106.905 4.16423L106.966 4.2067C107.026 4.20589 107.026 4.20589 107.085 4.1618C107.025 4.16261 107.025 4.16261 107.025 4.11932ZM62.4836 3.11843C62.483 3.07515 62.4229 3.07596 62.4223 3.03267L62.3627 3.07677C62.3633 3.12005 62.3633 3.12005 62.424 3.16253L62.4836 3.11843ZM61.9217 6.07C61.9223 6.11329 61.9825 6.11248 61.983 6.15576L62.0426 6.11167C62.042 6.06838 62.042 6.06838 61.9813 6.02591C61.9819 6.06919 61.9819 6.06919 61.9217 6.07ZM110.679 7.36036C110.739 7.35955 110.798 7.31545 110.858 7.27135C110.797 7.22888 110.736 7.14312 110.675 7.10064C110.615 7.10145 110.555 7.14555 110.376 7.19127C110.497 7.27622 110.558 7.36198 110.679 7.36036ZM108.696 7.60358C108.756 7.60277 108.817 7.64524 108.817 7.64524C108.877 7.64443 108.937 7.60033 108.997 7.55623C108.936 7.55704 108.876 7.51457 108.755 7.47291C108.815 7.51538 108.756 7.55948 108.696 7.60358ZM115.195 7.60248C115.195 7.64577 115.197 7.73234 115.257 7.77481C115.318 7.774 115.377 7.7299 115.377 7.7299C115.377 7.68662 115.375 7.60005 115.374 7.51347C115.315 7.55757 115.195 7.60248 115.195 7.60248ZM125.784 7.5029C125.844 7.50209 125.904 7.50128 125.964 7.50046C125.904 7.45799 125.902 7.37142 125.842 7.37223C125.782 7.37304 125.662 7.37466 125.542 7.41957C125.663 7.46124 125.724 7.50371 125.784 7.5029ZM50.689 7.52038C50.7492 7.51957 50.8695 7.51795 50.9291 7.47385C50.9285 7.43056 50.8678 7.38809 50.8678 7.38809C50.8076 7.3889 50.6873 7.39052 50.567 7.39215C50.6885 7.4771 50.689 7.52038 50.689 7.52038ZM52.2527 7.45599C52.3128 7.45518 52.4331 7.45356 52.4927 7.40946C52.4921 7.36617 52.4314 7.3237 52.4314 7.3237C52.3712 7.32451 52.2509 7.32613 52.1306 7.32776C52.1919 7.41352 52.2527 7.45599 52.2527 7.45599ZM33.7825 7.66191C33.7819 7.61863 33.8421 7.61782 33.8415 7.57453L33.7808 7.53206C33.7814 7.57534 33.7212 7.57615 33.7218 7.61944C33.7819 7.61863 33.7825 7.66191 33.7825 7.66191ZM49.9075 7.57422C49.9677 7.57341 49.9677 7.57341 50.0273 7.52931L49.9665 7.48684C49.9064 7.48765 49.9064 7.48765 49.8468 7.53175C49.8468 7.53175 49.8474 7.57503 49.9075 7.57422ZM50.2679 7.52607C50.2685 7.56935 50.2685 7.56935 50.3292 7.61183L50.3888 7.56773C50.3882 7.52444 50.3882 7.52444 50.3275 7.48197C50.2679 7.52607 50.2679 7.52607 50.2679 7.52607ZM53.8764 7.39079L53.9372 7.43326C53.9973 7.43245 53.9973 7.43245 54.0569 7.38835L53.9962 7.34588C53.9962 7.34588 53.936 7.34669 53.8764 7.39079ZM78.7377 8.13769L78.7984 8.18016C78.8586 8.17935 78.8586 8.17935 78.9182 8.13525L78.8574 8.09278C78.7978 8.13688 78.7377 8.13769 78.7377 8.13769ZM113.334 7.93065C113.394 7.92984 113.394 7.92984 113.454 7.88574L113.393 7.84326C113.333 7.84407 113.333 7.84407 113.273 7.88817C113.273 7.88817 113.274 7.93146 113.334 7.93065ZM75.1227 7.79682L75.1835 7.83929C75.2437 7.83848 75.2436 7.83848 75.3032 7.79438L75.2425 7.75191C75.1823 7.75272 75.1823 7.75272 75.1227 7.79682ZM118.496 2.49255C118.556 2.49174 118.555 2.44845 118.615 2.44764C118.555 2.40517 118.555 2.40517 118.494 2.36269L118.434 2.40679C118.435 2.45007 118.495 2.44926 118.496 2.49255ZM119.459 2.56613C119.52 2.56532 119.519 2.52204 119.579 2.52122C119.518 2.47875 119.518 2.47875 119.458 2.43627L119.398 2.48037C119.399 2.52366 119.459 2.52285 119.459 2.56613ZM128.252 7.55619C128.252 7.59948 128.253 7.64276 128.313 7.64195C128.313 7.64195 128.373 7.64114 128.433 7.64033C128.433 7.59704 128.373 7.59785 128.372 7.55457C128.312 7.55538 128.312 7.55538 128.252 7.55619ZM85.1084 7.57549L85.1691 7.61797C85.2293 7.61716 85.2293 7.61716 85.2889 7.57306L85.2281 7.53059C85.2287 7.57387 85.1685 7.57468 85.1084 7.57549ZM197.927 2.80619C197.987 2.80538 198.047 2.76128 198.107 2.76047C198.046 2.718 197.986 2.67552 197.986 2.67552C197.986 2.67552 197.986 2.71881 197.927 2.80619ZM62.9544 6.79207C62.9515 6.57564 62.712 6.66546 62.5911 6.62379C62.5917 6.66708 62.5922 6.71037 62.5928 6.75365C62.7137 6.79531 62.8341 6.79369 62.9544 6.79207Z" fill="#FDB706"/>
</svg>
